<?xml version="1.0" encoding="UTF-8" standalone="no"?>
<!DOCTYPE svg PUBLIC "-//W3C//DTD SVG 1.1//EN"
 "http://www.w3.org/Graphics/SVG/1.1/DTD/svg11.dtd">
<!-- Generated by graphviz version 2.43.0 (0)
 -->
<!-- Title: include/Lists/MLCL_CircularDoubleLinkedList.h Pages: 1 -->
<svg width="202pt" height="207pt"
 viewBox="0.00 0.00 202.00 207.00" xmlns="http://www.w3.org/2000/svg" xmlns:xlink="http://www.w3.org/1999/xlink">
<g id="graph0" class="graph" transform="scale(1 1) rotate(0) translate(4 203)">
<title>include/Lists/MLCL_CircularDoubleLinkedList.h</title>
<!-- Node1 -->
<g id="node1" class="node">
<title>Node1</title>
<g id="a_node1"><a xlink:title=" ">
<polygon fill="#bfbfbf" stroke="black" points="0,-168.5 0,-198.5 152,-198.5 152,-168.5 0,-168.5"/>
<text text-anchor="start" x="8" y="-186.5" font-family="Helvetica,sans-Serif" font-size="10.00">include/Lists/MLCL</text>
<text text-anchor="middle" x="76" y="-175.5" font-family="Helvetica,sans-Serif" font-size="10.00">_CircularDoubleLinkedList.h</text>
</a>
</g>
</g>
<!-- Node2 -->
<g id="node2" class="node">
<title>Node2</title>
<g id="a_node2"><a xlink:href="_m_l_c_l___double_linked_list_8h.html" target="_top" xlink:title=" ">
<polygon fill="none" stroke="black" points="6,-112.5 6,-131.5 146,-131.5 146,-112.5 6,-112.5"/>
<text text-anchor="middle" x="76" y="-119.5" font-family="Helvetica,sans-Serif" font-size="10.00">MLCL_DoubleLinkedList.h</text>
</a>
</g>
</g>
<!-- Node1&#45;&gt;Node2 -->
<g id="edge1" class="edge">
<title>Node1&#45;&gt;Node2</title>
<path fill="none" stroke="midnightblue" d="M76,-168.4C76,-160.47 76,-150.46 76,-141.86"/>
<polygon fill="midnightblue" stroke="midnightblue" points="79.5,-141.66 76,-131.66 72.5,-141.66 79.5,-141.66"/>
</g>
<!-- Node3 -->
<g id="node3" class="node">
<title>Node3</title>
<g id="a_node3"><a xlink:title=" ">
<polygon fill="none" stroke="#bfbfbf" points="15.5,-0.5 15.5,-19.5 68.5,-19.5 68.5,-0.5 15.5,-0.5"/>
<text text-anchor="middle" x="42" y="-7.5" font-family="Helvetica,sans-Serif" font-size="10.00">stdlib.h</text>
</a>
</g>
</g>
<!-- Node2&#45;&gt;Node3 -->
<g id="edge2" class="edge">
<title>Node2&#45;&gt;Node3</title>
<path fill="none" stroke="midnightblue" d="M68.56,-112.38C61.63,-103.8 51.68,-89.92 47,-76 41.97,-61.07 40.94,-43.15 41.03,-29.92"/>
<polygon fill="midnightblue" stroke="midnightblue" points="44.54,-29.78 41.34,-19.68 37.54,-29.57 44.54,-29.78"/>
</g>
<!-- Node4 -->
<g id="node4" class="node">
<title>Node4</title>
<g id="a_node4"><a xlink:href="_m_l_c_l___type_descriptor_8h.html" target="_top" xlink:title=" ">
<polygon fill="none" stroke="black" points="56,-56.5 56,-75.5 194,-75.5 194,-56.5 56,-56.5"/>
<text text-anchor="middle" x="125" y="-63.5" font-family="Helvetica,sans-Serif" font-size="10.00">../MLCL_TypeDescriptor.h</text>
</a>
</g>
</g>
<!-- Node2&#45;&gt;Node4 -->
<g id="edge3" class="edge">
<title>Node2&#45;&gt;Node4</title>
<path fill="none" stroke="midnightblue" d="M84.09,-112.08C91.16,-104.3 101.59,-92.8 110.15,-83.37"/>
<polygon fill="midnightblue" stroke="midnightblue" points="112.93,-85.51 117.06,-75.75 107.75,-80.8 112.93,-85.51"/>
</g>
<!-- Node4&#45;&gt;Node3 -->
<g id="edge4" class="edge">
<title>Node4&#45;&gt;Node3</title>
<path fill="none" stroke="midnightblue" d="M111.66,-56.32C98.84,-47.98 79.22,-35.21 64.06,-25.35"/>
<polygon fill="midnightblue" stroke="midnightblue" points="65.59,-22.17 55.3,-19.65 61.78,-28.04 65.59,-22.17"/>
</g>
<!-- Node5 -->
<g id="node5" class="node">
<title>Node5</title>
<g id="a_node5"><a xlink:title=" ">
<polygon fill="none" stroke="#bfbfbf" points="100,-0.5 100,-19.5 150,-19.5 150,-0.5 100,-0.5"/>
<text text-anchor="middle" x="125" y="-7.5" font-family="Helvetica,sans-Serif" font-size="10.00">stdio.h</text>
</a>
</g>
</g>
<!-- Node4&#45;&gt;Node5 -->
<g id="edge5" class="edge">
<title>Node4&#45;&gt;Node5</title>
<path fill="none" stroke="midnightblue" d="M125,-56.08C125,-49.01 125,-38.86 125,-29.99"/>
<polygon fill="midnightblue" stroke="midnightblue" points="128.5,-29.75 125,-19.75 121.5,-29.75 128.5,-29.75"/>
</g>
</g>
</svg>
