<?xml version="1.0" encoding="UTF-8" standalone="no"?>
<!DOCTYPE svg PUBLIC "-//W3C//DTD SVG 1.1//EN"
 "http://www.w3.org/Graphics/SVG/1.1/DTD/svg11.dtd">
<!-- Generated by graphviz version 2.43.0 (0)
 -->
<!-- Title: include/MLCL_TypeDescriptor.h Pages: 1 -->
<svg width="2842pt" height="385pt"
 viewBox="0.00 0.00 2842.00 385.00" xmlns="http://www.w3.org/2000/svg" xmlns:xlink="http://www.w3.org/1999/xlink">
<g id="graph0" class="graph" transform="scale(1 1) rotate(0) translate(4 381)">
<title>include/MLCL_TypeDescriptor.h</title>
<!-- Node1 -->
<g id="node1" class="node">
<title>Node1</title>
<g id="a_node1"><a xlink:title=" ">
<polygon fill="#bfbfbf" stroke="black" points="2130.5,-357.5 2130.5,-376.5 2297.5,-376.5 2297.5,-357.5 2130.5,-357.5"/>
<text text-anchor="middle" x="2214" y="-364.5" font-family="Helvetica,sans-Serif" font-size="10.00">include/MLCL_TypeDescriptor.h</text>
</a>
</g>
</g>
<!-- Node2 -->
<g id="node2" class="node">
<title>Node2</title>
<g id="a_node2"><a xlink:href="_m_l_c_l___binary_heap__test_8c.html" target="_top" xlink:title=" ">
<polygon fill="none" stroke="black" points="205,-67.5 205,-97.5 327,-97.5 327,-67.5 205,-67.5"/>
<text text-anchor="start" x="213" y="-85.5" font-family="Helvetica,sans-Serif" font-size="10.00">src/_Tests/Heap/MLCL</text>
<text text-anchor="middle" x="266" y="-74.5" font-family="Helvetica,sans-Serif" font-size="10.00">_BinaryHeap_test.c</text>
</a>
</g>
</g>
<!-- Node1&#45;&gt;Node2 -->
<g id="edge1" class="edge">
<title>Node1&#45;&gt;Node2</title>
<path fill="none" stroke="midnightblue" d="M2120.28,-366.33C1804.05,-367.01 777.92,-365.63 451,-321 246.15,-293.03 121.56,-349.41 9,-176 -38.45,-102.91 114.62,-87.09 204.8,-83.98"/>
<polygon fill="midnightblue" stroke="midnightblue" points="2120.33,-369.83 2130.33,-366.31 2120.32,-362.83 2120.33,-369.83"/>
</g>
<!-- Node3 -->
<g id="node3" class="node">
<title>Node3</title>
<g id="a_node3"><a xlink:href="_m_l_c_l__basic__types_8h.html" target="_top" xlink:title=" ">
<polygon fill="none" stroke="black" points="1095,-218 1095,-248 1207,-248 1207,-218 1095,-218"/>
<text text-anchor="start" x="1103" y="-236" font-family="Helvetica,sans-Serif" font-size="10.00">include/MLCL_basic</text>
<text text-anchor="middle" x="1151" y="-225" font-family="Helvetica,sans-Serif" font-size="10.00">_types.h</text>
</a>
</g>
</g>
<!-- Node1&#45;&gt;Node3 -->
<g id="edge2" class="edge">
<title>Node1&#45;&gt;Node3</title>
<path fill="none" stroke="midnightblue" d="M2120.32,-361.5C2006.27,-355.38 1807.96,-342.62 1639,-321 1481.5,-300.85 1297.55,-264.55 1207.08,-245.85"/>
<polygon fill="midnightblue" stroke="midnightblue" points="2120.24,-365 2130.41,-362.04 2120.61,-358.01 2120.24,-365"/>
</g>
<!-- Node13 -->
<g id="node13" class="node">
<title>Node13</title>
<g id="a_node13"><a xlink:href="_m_l_c_l___a_v_l_tree__test_8c.html" target="_top" xlink:title=" ">
<polygon fill="none" stroke="black" points="2314,-140 2314,-170 2436,-170 2436,-140 2314,-140"/>
<text text-anchor="start" x="2322" y="-158" font-family="Helvetica,sans-Serif" font-size="10.00">src/_Tests/Trees/MLCL</text>
<text text-anchor="middle" x="2375" y="-147" font-family="Helvetica,sans-Serif" font-size="10.00">_AVLTree_test.c</text>
</a>
</g>
</g>
<!-- Node1&#45;&gt;Node13 -->
<g id="edge55" class="edge">
<title>Node1&#45;&gt;Node13</title>
<path fill="none" stroke="midnightblue" d="M2220.99,-347.8C2233.35,-317.29 2261.35,-254.92 2299,-212 2313.8,-195.12 2334.53,-180.27 2350.59,-170.11"/>
<polygon fill="midnightblue" stroke="midnightblue" points="2217.71,-346.6 2217.28,-357.19 2224.22,-349.17 2217.71,-346.6"/>
</g>
<!-- Node17 -->
<g id="node17" class="node">
<title>Node17</title>
<g id="a_node17"><a xlink:href="_m_l_c_l___array_list_8h.html" target="_top" xlink:title=" ">
<polygon fill="none" stroke="black" points="460.5,-290.5 460.5,-320.5 567.5,-320.5 567.5,-290.5 460.5,-290.5"/>
<text text-anchor="start" x="468.5" y="-308.5" font-family="Helvetica,sans-Serif" font-size="10.00">include/Lists/MLCL</text>
<text text-anchor="middle" x="514" y="-297.5" font-family="Helvetica,sans-Serif" font-size="10.00">_ArrayList.h</text>
</a>
</g>
</g>
<!-- Node1&#45;&gt;Node17 -->
<g id="edge17" class="edge">
<title>Node1&#45;&gt;Node17</title>
<path fill="none" stroke="midnightblue" d="M2119.89,-362.71C1807.47,-351.77 810.68,-316.88 567.76,-308.38"/>
<polygon fill="midnightblue" stroke="midnightblue" points="2120.16,-366.22 2130.27,-363.07 2120.4,-359.22 2120.16,-366.22"/>
</g>
<!-- Node23 -->
<g id="node23" class="node">
<title>Node23</title>
<g id="a_node23"><a xlink:href="_m_l_c_l___ternary_search_tree_8h.html" target="_top" xlink:title=" ">
<polygon fill="none" stroke="black" points="2004,-67.5 2004,-97.5 2124,-97.5 2124,-67.5 2004,-67.5"/>
<text text-anchor="start" x="2012" y="-85.5" font-family="Helvetica,sans-Serif" font-size="10.00">include/Trees/MLCL</text>
<text text-anchor="middle" x="2064" y="-74.5" font-family="Helvetica,sans-Serif" font-size="10.00">_TernarySearchTree.h</text>
</a>
</g>
</g>
<!-- Node1&#45;&gt;Node23 -->
<g id="edge56" class="edge">
<title>Node1&#45;&gt;Node23</title>
<path fill="none" stroke="midnightblue" d="M2287.44,-355.98C2389.92,-340.26 2567.29,-306.11 2603,-254 2633.14,-210 2638.91,-173.43 2603,-134 2587.04,-116.48 2261.47,-95.21 2124.2,-86.98"/>
<polygon fill="midnightblue" stroke="midnightblue" points="2286.83,-352.54 2277.46,-357.49 2287.87,-359.46 2286.83,-352.54"/>
</g>
<!-- Node25 -->
<g id="node25" class="node">
<title>Node25</title>
<g id="a_node25"><a xlink:href="_m_l_c_l___list_8c.html" target="_top" xlink:title=" ">
<polygon fill="none" stroke="black" points="2372,-73 2372,-92 2488,-92 2488,-73 2372,-73"/>
<text text-anchor="middle" x="2430" y="-80" font-family="Helvetica,sans-Serif" font-size="10.00">src/Lists/MLCL_List.c</text>
</a>
</g>
</g>
<!-- Node1&#45;&gt;Node25 -->
<g id="edge57" class="edge">
<title>Node1&#45;&gt;Node25</title>
<path fill="none" stroke="midnightblue" d="M2307.93,-362.37C2370.02,-357.54 2452.33,-346.43 2521,-321 2573.26,-301.65 2599.79,-302.64 2627,-254 2653.03,-207.45 2660.72,-176.12 2628,-134 2610.91,-112.01 2540.31,-98 2488.26,-90.45"/>
<polygon fill="midnightblue" stroke="midnightblue" points="2307.47,-358.89 2297.75,-363.12 2307.98,-365.87 2307.47,-358.89"/>
</g>
<!-- Node32 -->
<g id="node32" class="node">
<title>Node32</title>
<g id="a_node32"><a xlink:href="_m_l_c_l___double_linked_list_8h.html" target="_top" xlink:title=" ">
<polygon fill="none" stroke="black" points="1648,-290.5 1648,-320.5 1762,-320.5 1762,-290.5 1648,-290.5"/>
<text text-anchor="start" x="1656" y="-308.5" font-family="Helvetica,sans-Serif" font-size="10.00">include/Lists/MLCL</text>
<text text-anchor="middle" x="1705" y="-297.5" font-family="Helvetica,sans-Serif" font-size="10.00">_DoubleLinkedList.h</text>
</a>
</g>
</g>
<!-- Node1&#45;&gt;Node32 -->
<g id="edge38" class="edge">
<title>Node1&#45;&gt;Node32</title>
<path fill="none" stroke="midnightblue" d="M2130.93,-356.29C2027.05,-344.15 1851.95,-323.68 1762.04,-313.17"/>
<polygon fill="midnightblue" stroke="midnightblue" points="2130.73,-359.79 2141.07,-357.48 2131.54,-352.84 2130.73,-359.79"/>
</g>
<!-- Node36 -->
<g id="node36" class="node">
<title>Node36</title>
<g id="a_node36"><a xlink:href="_m_l_c_l___linked_list_8h.html" target="_top" xlink:title=" ">
<polygon fill="none" stroke="black" points="2098.5,-290.5 2098.5,-320.5 2205.5,-320.5 2205.5,-290.5 2098.5,-290.5"/>
<text text-anchor="start" x="2106.5" y="-308.5" font-family="Helvetica,sans-Serif" font-size="10.00">include/Lists/MLCL</text>
<text text-anchor="middle" x="2152" y="-297.5" font-family="Helvetica,sans-Serif" font-size="10.00">_LinkedList.h</text>
</a>
</g>
</g>
<!-- Node1&#45;&gt;Node36 -->
<g id="edge47" class="edge">
<title>Node1&#45;&gt;Node36</title>
<path fill="none" stroke="midnightblue" d="M2197.71,-350.37C2188.06,-341.11 2175.94,-329.48 2166.61,-320.52"/>
<polygon fill="midnightblue" stroke="midnightblue" points="2195.47,-353.08 2205.11,-357.48 2200.32,-348.03 2195.47,-353.08"/>
</g>
<!-- Node40 -->
<g id="node40" class="node">
<title>Node40</title>
<g id="a_node40"><a xlink:href="_m_l_c_l___type_descriptor_8c.html" target="_top" xlink:title=" ">
<polygon fill="none" stroke="black" points="2688,-296 2688,-315 2834,-315 2834,-296 2688,-296"/>
<text text-anchor="middle" x="2761" y="-303" font-family="Helvetica,sans-Serif" font-size="10.00">src/MLCL_TypeDescriptor.c</text>
</a>
</g>
</g>
<!-- Node1&#45;&gt;Node40 -->
<g id="edge58" class="edge">
<title>Node1&#45;&gt;Node40</title>
<path fill="none" stroke="midnightblue" d="M2307.95,-358.68C2401.07,-350.99 2547.67,-337.69 2674,-321 2686.75,-319.32 2700.5,-317.18 2713.22,-315.06"/>
<polygon fill="midnightblue" stroke="midnightblue" points="2307.39,-355.22 2297.71,-359.52 2307.96,-362.19 2307.39,-355.22"/>
</g>
<!-- Node41 -->
<g id="node41" class="node">
<title>Node41</title>
<g id="a_node41"><a xlink:href="_m_l_c_l___binary_search_tree_8h.html" target="_top" xlink:title=" ">
<polygon fill="none" stroke="black" points="2305,-290.5 2305,-320.5 2421,-320.5 2421,-290.5 2305,-290.5"/>
<text text-anchor="start" x="2313" y="-308.5" font-family="Helvetica,sans-Serif" font-size="10.00">include/Trees/MLCL</text>
<text text-anchor="middle" x="2363" y="-297.5" font-family="Helvetica,sans-Serif" font-size="10.00">_BinarySearchTree.h</text>
</a>
</g>
</g>
<!-- Node1&#45;&gt;Node41 -->
<g id="edge59" class="edge">
<title>Node1&#45;&gt;Node41</title>
<path fill="none" stroke="midnightblue" d="M2244.75,-353.72C2268.93,-344.06 2302.64,-330.6 2327.88,-320.52"/>
<polygon fill="midnightblue" stroke="midnightblue" points="2243.33,-350.52 2235.34,-357.48 2245.93,-357.02 2243.33,-350.52"/>
</g>
<!-- Node3&#45;&gt;Node2 -->
<g id="edge3" class="edge">
<title>Node3&#45;&gt;Node2</title>
<path fill="none" stroke="midnightblue" d="M1084.91,-228.39C980.99,-221.88 784.71,-205.98 722,-176 697.61,-164.34 702.43,-145.57 678,-134 677.01,-133.53 441.52,-104.85 327.06,-90.92"/>
<polygon fill="midnightblue" stroke="midnightblue" points="1084.79,-231.89 1094.98,-229.01 1085.22,-224.9 1084.79,-231.89"/>
</g>
<!-- Node4 -->
<g id="node4" class="node">
<title>Node4</title>
<g id="a_node4"><a xlink:href="_m_l_c_l___array_list__test_8c.html" target="_top" xlink:title=" ">
<polygon fill="none" stroke="black" points="354.5,-140 354.5,-170 473.5,-170 473.5,-140 354.5,-140"/>
<text text-anchor="start" x="362.5" y="-158" font-family="Helvetica,sans-Serif" font-size="10.00">src/_Tests/Lists/MLCL</text>
<text text-anchor="middle" x="414" y="-147" font-family="Helvetica,sans-Serif" font-size="10.00">_ArrayList_test.c</text>
</a>
</g>
</g>
<!-- Node3&#45;&gt;Node4 -->
<g id="edge4" class="edge">
<title>Node3&#45;&gt;Node4</title>
<path fill="none" stroke="midnightblue" d="M1084.68,-228.21C969.6,-221.16 725.59,-204.15 521,-176 505.55,-173.88 488.95,-171.04 473.54,-168.18"/>
<polygon fill="midnightblue" stroke="midnightblue" points="1084.55,-231.71 1094.75,-228.82 1084.98,-224.72 1084.55,-231.71"/>
</g>
<!-- Node5 -->
<g id="node5" class="node">
<title>Node5</title>
<g id="a_node5"><a xlink:href="_m_l_c_l___circular_double_linked_list__test_8c.html" target="_top" xlink:title=" ">
<polygon fill="none" stroke="black" points="1509.5,-134.5 1509.5,-175.5 1652.5,-175.5 1652.5,-134.5 1509.5,-134.5"/>
<text text-anchor="start" x="1517.5" y="-163.5" font-family="Helvetica,sans-Serif" font-size="10.00">src/_Tests/Lists/MLCL</text>
<text text-anchor="start" x="1517.5" y="-152.5" font-family="Helvetica,sans-Serif" font-size="10.00">_CircularDoubleLinkedList</text>
<text text-anchor="middle" x="1581" y="-141.5" font-family="Helvetica,sans-Serif" font-size="10.00">_test.c</text>
</a>
</g>
</g>
<!-- Node3&#45;&gt;Node5 -->
<g id="edge5" class="edge">
<title>Node3&#45;&gt;Node5</title>
<path fill="none" stroke="midnightblue" d="M1217.12,-223.16C1287.73,-213.31 1402.74,-196.1 1501,-176 1503.66,-175.45 1506.37,-174.88 1509.1,-174.28"/>
<polygon fill="midnightblue" stroke="midnightblue" points="1216.46,-219.71 1207.03,-224.55 1217.42,-226.65 1216.46,-219.71"/>
</g>
<!-- Node6 -->
<g id="node6" class="node">
<title>Node6</title>
<g id="a_node6"><a xlink:href="_m_l_c_l___circular_linked_list__test_8c.html" target="_top" xlink:title=" ">
<polygon fill="none" stroke="black" points="1671,-140 1671,-170 1811,-170 1811,-140 1671,-140"/>
<text text-anchor="start" x="1679" y="-158" font-family="Helvetica,sans-Serif" font-size="10.00">src/_Tests/Lists/MLCL</text>
<text text-anchor="middle" x="1741" y="-147" font-family="Helvetica,sans-Serif" font-size="10.00">_CircularLinkedList_test.c</text>
</a>
</g>
</g>
<!-- Node3&#45;&gt;Node6 -->
<g id="edge6" class="edge">
<title>Node3&#45;&gt;Node6</title>
<path fill="none" stroke="midnightblue" d="M1217.36,-227.68C1315.24,-220.65 1503.8,-204.55 1662,-176 1671.05,-174.37 1680.59,-172.27 1689.8,-170.06"/>
<polygon fill="midnightblue" stroke="midnightblue" points="1217.04,-224.2 1207.32,-228.4 1217.54,-231.18 1217.04,-224.2"/>
</g>
<!-- Node7 -->
<g id="node7" class="node">
<title>Node7</title>
<g id="a_node7"><a xlink:href="_m_l_c_l___double_linked_list__test_8c.html" target="_top" xlink:title=" ">
<polygon fill="none" stroke="black" points="1217.5,-140 1217.5,-170 1354.5,-170 1354.5,-140 1217.5,-140"/>
<text text-anchor="start" x="1225.5" y="-158" font-family="Helvetica,sans-Serif" font-size="10.00">src/_Tests/Lists/MLCL</text>
<text text-anchor="middle" x="1286" y="-147" font-family="Helvetica,sans-Serif" font-size="10.00">_DoubleLinkedList_test.c</text>
</a>
</g>
</g>
<!-- Node3&#45;&gt;Node7 -->
<g id="edge7" class="edge">
<title>Node3&#45;&gt;Node7</title>
<path fill="none" stroke="midnightblue" d="M1185.06,-212.82C1208.71,-199.51 1239.69,-182.07 1261.05,-170.04"/>
<polygon fill="midnightblue" stroke="midnightblue" points="1183.07,-209.93 1176.07,-217.88 1186.5,-216.03 1183.07,-209.93"/>
</g>
<!-- Node8 -->
<g id="node8" class="node">
<title>Node8</title>
<g id="a_node8"><a xlink:href="_m_l_c_l___linked_list__test_8c.html" target="_top" xlink:title=" ">
<polygon fill="none" stroke="black" points="1372.5,-140 1372.5,-170 1491.5,-170 1491.5,-140 1372.5,-140"/>
<text text-anchor="start" x="1380.5" y="-158" font-family="Helvetica,sans-Serif" font-size="10.00">src/_Tests/Lists/MLCL</text>
<text text-anchor="middle" x="1432" y="-147" font-family="Helvetica,sans-Serif" font-size="10.00">_LinkedList_test.c</text>
</a>
</g>
</g>
<!-- Node3&#45;&gt;Node8 -->
<g id="edge8" class="edge">
<title>Node3&#45;&gt;Node8</title>
<path fill="none" stroke="midnightblue" d="M1215.39,-215.42C1257.47,-204.47 1313.58,-189.69 1363,-176 1369.85,-174.1 1377.07,-172.06 1384.15,-170.03"/>
<polygon fill="midnightblue" stroke="midnightblue" points="1214.36,-212.07 1205.56,-217.97 1216.12,-218.84 1214.36,-212.07"/>
</g>
<!-- Node9 -->
<g id="node9" class="node">
<title>Node9</title>
<g id="a_node9"><a xlink:href="_m_l_c_l___list__test_8c.html" target="_top" xlink:title=" ">
<polygon fill="none" stroke="black" points="835.5,-67.5 835.5,-97.5 954.5,-97.5 954.5,-67.5 835.5,-67.5"/>
<text text-anchor="start" x="843.5" y="-85.5" font-family="Helvetica,sans-Serif" font-size="10.00">src/_Tests/Lists/MLCL</text>
<text text-anchor="middle" x="895" y="-74.5" font-family="Helvetica,sans-Serif" font-size="10.00">_List_test.c</text>
</a>
</g>
</g>
<!-- Node3&#45;&gt;Node9 -->
<g id="edge9" class="edge">
<title>Node3&#45;&gt;Node9</title>
<path fill="none" stroke="midnightblue" d="M1152.95,-207.8C1153.33,-185.59 1150.11,-153.3 1131,-134 1130.8,-133.8 1024.64,-111.14 954.79,-96.24"/>
<polygon fill="midnightblue" stroke="midnightblue" points="1149.45,-207.66 1152.52,-217.8 1156.45,-207.95 1149.45,-207.66"/>
</g>
<!-- Node10 -->
<g id="node10" class="node">
<title>Node10</title>
<g id="a_node10"><a xlink:href="_m_l_c_l___type_descriptor__test_8c.html" target="_top" xlink:title=" ">
<polygon fill="none" stroke="black" points="802.5,-140 802.5,-170 973.5,-170 973.5,-140 802.5,-140"/>
<text text-anchor="start" x="810.5" y="-158" font-family="Helvetica,sans-Serif" font-size="10.00">src/_Tests/MLCL_TypeDescriptor</text>
<text text-anchor="middle" x="888" y="-147" font-family="Helvetica,sans-Serif" font-size="10.00">_test.c</text>
</a>
</g>
</g>
<!-- Node3&#45;&gt;Node10 -->
<g id="edge10" class="edge">
<title>Node3&#45;&gt;Node10</title>
<path fill="none" stroke="midnightblue" d="M1092.74,-215.17C1045.89,-201.63 980.82,-182.82 936.7,-170.07"/>
<polygon fill="midnightblue" stroke="midnightblue" points="1091.87,-218.56 1102.45,-217.97 1093.82,-211.83 1091.87,-218.56"/>
</g>
<!-- Node11 -->
<g id="node11" class="node">
<title>Node11</title>
<g id="a_node11"><a xlink:href="_m_l_c_l___queue__test_8c.html" target="_top" xlink:title=" ">
<polygon fill="none" stroke="black" points="816,-0.5 816,-30.5 944,-30.5 944,-0.5 816,-0.5"/>
<text text-anchor="start" x="824" y="-18.5" font-family="Helvetica,sans-Serif" font-size="10.00">src/_Tests/Queue/MLCL</text>
<text text-anchor="middle" x="880" y="-7.5" font-family="Helvetica,sans-Serif" font-size="10.00">_Queue_test.c</text>
</a>
</g>
</g>
<!-- Node3&#45;&gt;Node11 -->
<g id="edge11" class="edge">
<title>Node3&#45;&gt;Node11</title>
<path fill="none" stroke="midnightblue" d="M1084.81,-231.5C991.85,-229.23 829.81,-219.02 793,-176 752.7,-128.91 825.52,-60.14 861.55,-30.71"/>
<polygon fill="midnightblue" stroke="midnightblue" points="1084.89,-235 1094.96,-231.72 1085.04,-228 1084.89,-235"/>
</g>
<!-- Node12 -->
<g id="node12" class="node">
<title>Node12</title>
<g id="a_node12"><a xlink:href="_m_l_c_l___stack__test_8c.html" target="_top" xlink:title=" ">
<polygon fill="none" stroke="black" points="674.5,-0.5 674.5,-30.5 797.5,-30.5 797.5,-0.5 674.5,-0.5"/>
<text text-anchor="start" x="682.5" y="-18.5" font-family="Helvetica,sans-Serif" font-size="10.00">src/_Tests/Stack/MLCL</text>
<text text-anchor="middle" x="736" y="-7.5" font-family="Helvetica,sans-Serif" font-size="10.00">_Stack_test.c</text>
</a>
</g>
</g>
<!-- Node3&#45;&gt;Node12 -->
<g id="edge12" class="edge">
<title>Node3&#45;&gt;Node12</title>
<path fill="none" stroke="midnightblue" d="M1084.92,-230.58C990.13,-227.17 822.09,-215.55 778,-176 735.36,-137.76 733.71,-61.92 735.03,-30.57"/>
<polygon fill="midnightblue" stroke="midnightblue" points="1084.87,-234.08 1094.99,-230.92 1085.11,-227.09 1084.87,-234.08"/>
</g>
<!-- Node3&#45;&gt;Node13 -->
<g id="edge13" class="edge">
<title>Node3&#45;&gt;Node13</title>
<path fill="none" stroke="midnightblue" d="M1217.32,-226.45C1271.74,-222.04 1350.82,-215.98 1420,-212 1813.01,-189.4 1916.33,-238.51 2305,-176 2313.86,-174.57 2323.19,-172.4 2332.04,-170.01"/>
<polygon fill="midnightblue" stroke="midnightblue" points="1216.8,-222.98 1207.12,-227.28 1217.37,-229.95 1216.8,-222.98"/>
</g>
<!-- Node14 -->
<g id="node14" class="node">
<title>Node14</title>
<g id="a_node14"><a xlink:href="_m_l_c_l___binary_search_tree__test_8c.html" target="_top" xlink:title=" ">
<polygon fill="none" stroke="black" points="530.5,-140 530.5,-170 669.5,-170 669.5,-140 530.5,-140"/>
<text text-anchor="start" x="538.5" y="-158" font-family="Helvetica,sans-Serif" font-size="10.00">src/_Tests/Trees/MLCL</text>
<text text-anchor="middle" x="600" y="-147" font-family="Helvetica,sans-Serif" font-size="10.00">_BinarySearchTree_test.c</text>
</a>
</g>
</g>
<!-- Node3&#45;&gt;Node14 -->
<g id="edge14" class="edge">
<title>Node3&#45;&gt;Node14</title>
<path fill="none" stroke="midnightblue" d="M1084.83,-226.47C994.01,-218.33 825.84,-201.31 684,-176 674.55,-174.31 664.58,-172.22 654.93,-170.03"/>
<polygon fill="midnightblue" stroke="midnightblue" points="1084.71,-229.97 1094.98,-227.37 1085.33,-223 1084.71,-229.97"/>
</g>
<!-- Node15 -->
<g id="node15" class="node">
<title>Node15</title>
<g id="a_node15"><a xlink:href="_m_l_c_l__basic__types_8c.html" target="_top" xlink:title=" ">
<polygon fill="none" stroke="black" points="991.5,-145.5 991.5,-164.5 1122.5,-164.5 1122.5,-145.5 991.5,-145.5"/>
<text text-anchor="middle" x="1057" y="-152.5" font-family="Helvetica,sans-Serif" font-size="10.00">src/MLCL_basic_types.c</text>
</a>
</g>
</g>
<!-- Node3&#45;&gt;Node15 -->
<g id="edge15" class="edge">
<title>Node3&#45;&gt;Node15</title>
<path fill="none" stroke="midnightblue" d="M1125.33,-211.25C1106.36,-195.91 1081.49,-175.81 1067.59,-164.56"/>
<polygon fill="midnightblue" stroke="midnightblue" points="1123.34,-214.14 1133.31,-217.7 1127.74,-208.7 1123.34,-214.14"/>
</g>
<!-- Node16 -->
<g id="node16" class="node">
<title>Node16</title>
<g id="a_node16"><a xlink:href="_m_l_c_l___ternary_search_tree_8c.html" target="_top" xlink:title=" ">
<polygon fill="none" stroke="black" points="1541.5,-0.5 1541.5,-30.5 1704.5,-30.5 1704.5,-0.5 1541.5,-0.5"/>
<text text-anchor="start" x="1549.5" y="-18.5" font-family="Helvetica,sans-Serif" font-size="10.00">src/Trees/MLCL_TernarySearch</text>
<text text-anchor="middle" x="1623" y="-7.5" font-family="Helvetica,sans-Serif" font-size="10.00">Tree.c</text>
</a>
</g>
</g>
<!-- Node3&#45;&gt;Node16 -->
<g id="edge16" class="edge">
<title>Node3&#45;&gt;Node16</title>
<path fill="none" stroke="midnightblue" d="M1158.89,-208.22C1167.51,-185.86 1183.45,-153.04 1208,-134 1306.05,-57.91 1451.1,-31.09 1541.19,-21.64"/>
<polygon fill="midnightblue" stroke="midnightblue" points="1155.58,-207.08 1155.44,-217.67 1162.15,-209.48 1155.58,-207.08"/>
</g>
<!-- Node17&#45;&gt;Node4 -->
<g id="edge18" class="edge">
<title>Node17&#45;&gt;Node4</title>
<path fill="none" stroke="midnightblue" d="M469.53,-285.54C455.88,-277.66 442.08,-267.22 433,-254 415.42,-228.44 413.13,-190.71 413.35,-170.33"/>
<polygon fill="midnightblue" stroke="midnightblue" points="467.96,-288.67 478.42,-290.34 471.29,-282.51 467.96,-288.67"/>
</g>
<!-- Node18 -->
<g id="node18" class="node">
<title>Node18</title>
<g id="a_node18"><a xlink:href="_m_l_c_l___list_8h.html" target="_top" xlink:title=" ">
<polygon fill="none" stroke="black" points="2010.5,-140 2010.5,-170 2117.5,-170 2117.5,-140 2010.5,-140"/>
<text text-anchor="start" x="2018.5" y="-158" font-family="Helvetica,sans-Serif" font-size="10.00">include/Lists/MLCL</text>
<text text-anchor="middle" x="2064" y="-147" font-family="Helvetica,sans-Serif" font-size="10.00">_List.h</text>
</a>
</g>
</g>
<!-- Node17&#45;&gt;Node18 -->
<g id="edge19" class="edge">
<title>Node17&#45;&gt;Node18</title>
<path fill="none" stroke="midnightblue" d="M577.85,-303.56C835.19,-299.58 1785.16,-282.97 1842,-254 1863.15,-243.22 1855.28,-225.22 1875,-212 1923.73,-179.33 1945.85,-193.01 2002,-176 2008.17,-174.13 2014.66,-172.1 2021.03,-170.08"/>
<polygon fill="midnightblue" stroke="midnightblue" points="577.5,-300.06 567.55,-303.72 577.6,-307.06 577.5,-300.06"/>
</g>
<!-- Node26 -->
<g id="node26" class="node">
<title>Node26</title>
<g id="a_node26"><a xlink:href="_m_l_c_l___binary_heap_8h.html" target="_top" xlink:title=" ">
<polygon fill="none" stroke="black" points="193,-218 193,-248 339,-248 339,-218 193,-218"/>
<text text-anchor="start" x="201" y="-236" font-family="Helvetica,sans-Serif" font-size="10.00">include/Heap/MLCL_Binary</text>
<text text-anchor="middle" x="266" y="-225" font-family="Helvetica,sans-Serif" font-size="10.00">Heap.h</text>
</a>
</g>
</g>
<!-- Node17&#45;&gt;Node26 -->
<g id="edge31" class="edge">
<title>Node17&#45;&gt;Node26</title>
<path fill="none" stroke="midnightblue" d="M455.04,-287.74C412.54,-275.66 355.81,-259.53 315.62,-248.11"/>
<polygon fill="midnightblue" stroke="midnightblue" points="454.13,-291.12 464.7,-290.49 456.04,-284.39 454.13,-291.12"/>
</g>
<!-- Node31 -->
<g id="node31" class="node">
<title>Node31</title>
<g id="a_node31"><a xlink:href="_m_l_c_l___array_list_8c.html" target="_top" xlink:title=" ">
<polygon fill="none" stroke="black" points="442.5,-223.5 442.5,-242.5 585.5,-242.5 585.5,-223.5 442.5,-223.5"/>
<text text-anchor="middle" x="514" y="-230.5" font-family="Helvetica,sans-Serif" font-size="10.00">src/Lists/MLCL_ArrayList.c</text>
</a>
</g>
</g>
<!-- Node17&#45;&gt;Node31 -->
<g id="edge37" class="edge">
<title>Node17&#45;&gt;Node31</title>
<path fill="none" stroke="midnightblue" d="M514,-280.09C514,-267.21 514,-252.2 514,-242.89"/>
<polygon fill="midnightblue" stroke="midnightblue" points="510.5,-280.23 514,-290.23 517.5,-280.23 510.5,-280.23"/>
</g>
<!-- Node18&#45;&gt;Node9 -->
<g id="edge20" class="edge">
<title>Node18&#45;&gt;Node9</title>
<path fill="none" stroke="midnightblue" d="M2016.32,-137.17C2011.52,-135.92 2006.69,-134.82 2002,-134 1546.86,-54.31 1421.6,-154.4 963,-98 960.24,-97.66 957.43,-97.27 954.6,-96.83"/>
<polygon fill="midnightblue" stroke="midnightblue" points="2015.47,-140.57 2026.05,-139.93 2017.38,-133.83 2015.47,-140.57"/>
</g>
<!-- Node19 -->
<g id="node19" class="node">
<title>Node19</title>
<g id="a_node19"><a xlink:href="_m_l_c_l___queue_8h.html" target="_top" xlink:title=" ">
<polygon fill="none" stroke="black" points="1102,-67.5 1102,-97.5 1218,-97.5 1218,-67.5 1102,-67.5"/>
<text text-anchor="start" x="1110" y="-85.5" font-family="Helvetica,sans-Serif" font-size="10.00">include/Queue/MLCL</text>
<text text-anchor="middle" x="1160" y="-74.5" font-family="Helvetica,sans-Serif" font-size="10.00">_Queue.h</text>
</a>
</g>
</g>
<!-- Node18&#45;&gt;Node19 -->
<g id="edge21" class="edge">
<title>Node18&#45;&gt;Node19</title>
<path fill="none" stroke="midnightblue" d="M2015.72,-137.14C2011.12,-135.92 2006.49,-134.85 2002,-134 1851.15,-105.62 1382.77,-89.86 1218.03,-85.08"/>
<polygon fill="midnightblue" stroke="midnightblue" points="2015.11,-140.61 2025.69,-139.99 2017.03,-133.88 2015.11,-140.61"/>
</g>
<!-- Node21 -->
<g id="node21" class="node">
<title>Node21</title>
<g id="a_node21"><a xlink:href="_m_l_c_l___stack_8h.html" target="_top" xlink:title=" ">
<polygon fill="none" stroke="black" points="972.5,-67.5 972.5,-97.5 1083.5,-97.5 1083.5,-67.5 972.5,-67.5"/>
<text text-anchor="start" x="980.5" y="-85.5" font-family="Helvetica,sans-Serif" font-size="10.00">include/Stack/MLCL</text>
<text text-anchor="middle" x="1028" y="-74.5" font-family="Helvetica,sans-Serif" font-size="10.00">_Stack.h</text>
</a>
</g>
</g>
<!-- Node18&#45;&gt;Node21 -->
<g id="edge24" class="edge">
<title>Node18&#45;&gt;Node21</title>
<path fill="none" stroke="midnightblue" d="M2016.31,-137.19C2011.52,-135.94 2006.69,-134.83 2002,-134 1603.91,-63.28 1493.93,-150.23 1093,-98 1089.9,-97.6 1086.73,-97.12 1083.55,-96.58"/>
<polygon fill="midnightblue" stroke="midnightblue" points="2015.47,-140.59 2026.04,-139.96 2017.38,-133.86 2015.47,-140.59"/>
</g>
<!-- Node18&#45;&gt;Node23 -->
<g id="edge27" class="edge">
<title>Node18&#45;&gt;Node23</title>
<path fill="none" stroke="midnightblue" d="M2064,-129.73C2064,-119.07 2064,-106.91 2064,-97.75"/>
<polygon fill="midnightblue" stroke="midnightblue" points="2060.5,-129.73 2064,-139.73 2067.5,-129.73 2060.5,-129.73"/>
</g>
<!-- Node18&#45;&gt;Node25 -->
<g id="edge30" class="edge">
<title>Node18&#45;&gt;Node25</title>
<path fill="none" stroke="midnightblue" d="M2115.24,-137.07C2119.2,-135.96 2123.15,-134.93 2127,-134 2211.25,-113.71 2310.63,-98.83 2371.98,-90.67"/>
<polygon fill="midnightblue" stroke="midnightblue" points="2114.06,-133.77 2105.44,-139.92 2116.02,-140.49 2114.06,-133.77"/>
</g>
<!-- Node19&#45;&gt;Node11 -->
<g id="edge22" class="edge">
<title>Node19&#45;&gt;Node11</title>
<path fill="none" stroke="midnightblue" d="M1092.03,-65.72C1045.72,-54.97 984.96,-40.87 940.36,-30.51"/>
<polygon fill="midnightblue" stroke="midnightblue" points="1091.45,-69.18 1101.98,-68.03 1093.03,-62.36 1091.45,-69.18"/>
</g>
<!-- Node20 -->
<g id="node20" class="node">
<title>Node20</title>
<g id="a_node20"><a xlink:href="_m_l_c_l___queue_8c.html" target="_top" xlink:title=" ">
<polygon fill="none" stroke="black" points="1112,-6 1112,-25 1252,-25 1252,-6 1112,-6"/>
<text text-anchor="middle" x="1182" y="-13" font-family="Helvetica,sans-Serif" font-size="10.00">src/Queue/MLCL_Queue.c</text>
</a>
</g>
</g>
<!-- Node19&#45;&gt;Node20 -->
<g id="edge23" class="edge">
<title>Node19&#45;&gt;Node20</title>
<path fill="none" stroke="midnightblue" d="M1168.09,-57.6C1171.92,-46.28 1176.25,-33.46 1179.05,-25.19"/>
<polygon fill="midnightblue" stroke="midnightblue" points="1164.66,-56.8 1164.77,-67.4 1171.29,-59.05 1164.66,-56.8"/>
</g>
<!-- Node21&#45;&gt;Node12 -->
<g id="edge25" class="edge">
<title>Node21&#45;&gt;Node12</title>
<path fill="none" stroke="midnightblue" d="M962.39,-66.87C900.61,-53.1 841,-39.84 797.66,-30.21"/>
<polygon fill="midnightblue" stroke="midnightblue" points="961.81,-70.32 972.33,-69.08 963.33,-63.49 961.81,-70.32"/>
</g>
<!-- Node22 -->
<g id="node22" class="node">
<title>Node22</title>
<g id="a_node22"><a xlink:href="_m_l_c_l___stack_8c.html" target="_top" xlink:title=" ">
<polygon fill="none" stroke="black" points="962.5,-6 962.5,-25 1093.5,-25 1093.5,-6 962.5,-6"/>
<text text-anchor="middle" x="1028" y="-13" font-family="Helvetica,sans-Serif" font-size="10.00">src/Stack/MLCL_Stack.c</text>
</a>
</g>
</g>
<!-- Node21&#45;&gt;Node22 -->
<g id="edge26" class="edge">
<title>Node21&#45;&gt;Node22</title>
<path fill="none" stroke="midnightblue" d="M1028,-57.25C1028,-46.02 1028,-33.38 1028,-25.19"/>
<polygon fill="midnightblue" stroke="midnightblue" points="1024.5,-57.4 1028,-67.4 1031.5,-57.4 1024.5,-57.4"/>
</g>
<!-- Node23&#45;&gt;Node16 -->
<g id="edge29" class="edge">
<title>Node23&#45;&gt;Node16</title>
<path fill="none" stroke="midnightblue" d="M1993.3,-71.08C1914.62,-59.48 1787.66,-40.77 1704.76,-28.55"/>
<polygon fill="midnightblue" stroke="midnightblue" points="1993.2,-74.6 2003.6,-72.6 1994.22,-67.68 1993.2,-74.6"/>
</g>
<!-- Node24 -->
<g id="node24" class="node">
<title>Node24</title>
<g id="a_node24"><a xlink:href="_m_l_c_l___ternary_search_tree__test_8c.html" target="_top" xlink:title=" ">
<polygon fill="none" stroke="black" points="1992.5,-0.5 1992.5,-30.5 2135.5,-30.5 2135.5,-0.5 1992.5,-0.5"/>
<text text-anchor="start" x="2000.5" y="-18.5" font-family="Helvetica,sans-Serif" font-size="10.00">src/_Tests/Trees/MLCL</text>
<text text-anchor="middle" x="2064" y="-7.5" font-family="Helvetica,sans-Serif" font-size="10.00">_TernarySearchTree_test.c</text>
</a>
</g>
</g>
<!-- Node23&#45;&gt;Node24 -->
<g id="edge28" class="edge">
<title>Node23&#45;&gt;Node24</title>
<path fill="none" stroke="midnightblue" d="M2064,-57.11C2064,-48.15 2064,-38.32 2064,-30.58"/>
<polygon fill="midnightblue" stroke="midnightblue" points="2060.5,-57.4 2064,-67.4 2067.5,-57.4 2060.5,-57.4"/>
</g>
<!-- Node27 -->
<g id="node27" class="node">
<title>Node27</title>
<g id="a_node27"><a xlink:href="_m_l_c_l___binary_heap__test_8h.html" target="_top" xlink:title=" ">
<polygon fill="none" stroke="black" points="195.5,-140 195.5,-170 336.5,-170 336.5,-140 195.5,-140"/>
<text text-anchor="start" x="203.5" y="-158" font-family="Helvetica,sans-Serif" font-size="10.00">include/_Tests/Heap</text>
<text text-anchor="middle" x="266" y="-147" font-family="Helvetica,sans-Serif" font-size="10.00">/MLCL_BinaryHeap_test.h</text>
</a>
</g>
</g>
<!-- Node26&#45;&gt;Node27 -->
<g id="edge32" class="edge">
<title>Node26&#45;&gt;Node27</title>
<path fill="none" stroke="midnightblue" d="M266,-207.59C266,-195.26 266,-180.72 266,-170.23"/>
<polygon fill="midnightblue" stroke="midnightblue" points="262.5,-207.7 266,-217.7 269.5,-207.71 262.5,-207.7"/>
</g>
<!-- Node30 -->
<g id="node30" class="node">
<title>Node30</title>
<g id="a_node30"><a xlink:href="_m_l_c_l___binary_heap_8c.html" target="_top" xlink:title=" ">
<polygon fill="none" stroke="black" points="18.5,-145.5 18.5,-164.5 177.5,-164.5 177.5,-145.5 18.5,-145.5"/>
<text text-anchor="middle" x="98" y="-152.5" font-family="Helvetica,sans-Serif" font-size="10.00">src/Heap/MLCL_BinaryHeap.c</text>
</a>
</g>
</g>
<!-- Node26&#45;&gt;Node30 -->
<g id="edge36" class="edge">
<title>Node26&#45;&gt;Node30</title>
<path fill="none" stroke="midnightblue" d="M225.47,-213.67C191.06,-198.1 143.22,-176.46 117.02,-164.61"/>
<polygon fill="midnightblue" stroke="midnightblue" points="224.24,-216.95 234.79,-217.88 227.12,-210.57 224.24,-216.95"/>
</g>
<!-- Node27&#45;&gt;Node2 -->
<g id="edge33" class="edge">
<title>Node27&#45;&gt;Node2</title>
<path fill="none" stroke="midnightblue" d="M266,-129.73C266,-119.07 266,-106.91 266,-97.75"/>
<polygon fill="midnightblue" stroke="midnightblue" points="262.5,-129.73 266,-139.73 269.5,-129.73 262.5,-129.73"/>
</g>
<!-- Node28 -->
<g id="node28" class="node">
<title>Node28</title>
<g id="a_node28"><a xlink:href="_m_l_c_l__all__tests_8h.html" target="_top" xlink:title=" ">
<polygon fill="none" stroke="black" points="395,-67.5 395,-97.5 509,-97.5 509,-67.5 395,-67.5"/>
<text text-anchor="start" x="403" y="-85.5" font-family="Helvetica,sans-Serif" font-size="10.00">include/_Tests/MLCL</text>
<text text-anchor="middle" x="452" y="-74.5" font-family="Helvetica,sans-Serif" font-size="10.00">_all_tests.h</text>
</a>
</g>
</g>
<!-- Node27&#45;&gt;Node28 -->
<g id="edge34" class="edge">
<title>Node27&#45;&gt;Node28</title>
<path fill="none" stroke="midnightblue" d="M312.67,-136.31C344.28,-124.33 385.49,-108.71 414.87,-97.57"/>
<polygon fill="midnightblue" stroke="midnightblue" points="311.3,-133.09 303.19,-139.9 313.78,-139.63 311.3,-133.09"/>
</g>
<!-- Node29 -->
<g id="node29" class="node">
<title>Node29</title>
<g id="a_node29"><a xlink:href="_m_l_c_l__all__tests_8c.html" target="_top" xlink:title=" ">
<polygon fill="none" stroke="black" points="397,-0.5 397,-30.5 507,-30.5 507,-0.5 397,-0.5"/>
<text text-anchor="start" x="405" y="-18.5" font-family="Helvetica,sans-Serif" font-size="10.00">src/_Tests/MLCL_all</text>
<text text-anchor="middle" x="452" y="-7.5" font-family="Helvetica,sans-Serif" font-size="10.00">_tests.c</text>
</a>
</g>
</g>
<!-- Node28&#45;&gt;Node29 -->
<g id="edge35" class="edge">
<title>Node28&#45;&gt;Node29</title>
<path fill="none" stroke="midnightblue" d="M452,-57.11C452,-48.15 452,-38.32 452,-30.58"/>
<polygon fill="midnightblue" stroke="midnightblue" points="448.5,-57.4 452,-67.4 455.5,-57.4 448.5,-57.4"/>
</g>
<!-- Node32&#45;&gt;Node7 -->
<g id="edge43" class="edge">
<title>Node32&#45;&gt;Node7</title>
<path fill="none" stroke="midnightblue" d="M1637.94,-301.2C1578.59,-296.31 1490.66,-284.16 1420,-254 1371.49,-233.3 1323.86,-192.11 1300.64,-170.31"/>
<polygon fill="midnightblue" stroke="midnightblue" points="1637.71,-304.69 1647.95,-301.98 1638.25,-297.71 1637.71,-304.69"/>
</g>
<!-- Node32&#45;&gt;Node18 -->
<g id="edge44" class="edge">
<title>Node32&#45;&gt;Node18</title>
<path fill="none" stroke="midnightblue" d="M1772.04,-292.48C1804.64,-284.72 1843.48,-272.52 1875,-254 1898.03,-240.47 1895.5,-226.41 1918,-212 1935.65,-200.68 1985.17,-182.63 2021.67,-170.09"/>
<polygon fill="midnightblue" stroke="midnightblue" points="1771.1,-289.11 1762.13,-294.75 1772.66,-295.93 1771.1,-289.11"/>
</g>
<!-- Node33 -->
<g id="node33" class="node">
<title>Node33</title>
<g id="a_node33"><a xlink:href="_m_l_c_l___circular_double_linked_list_8h.html" target="_top" xlink:title=" ">
<polygon fill="none" stroke="black" points="1681,-218 1681,-248 1833,-248 1833,-218 1681,-218"/>
<text text-anchor="start" x="1689" y="-236" font-family="Helvetica,sans-Serif" font-size="10.00">include/Lists/MLCL</text>
<text text-anchor="middle" x="1757" y="-225" font-family="Helvetica,sans-Serif" font-size="10.00">_CircularDoubleLinkedList.h</text>
</a>
</g>
</g>
<!-- Node32&#45;&gt;Node33 -->
<g id="edge39" class="edge">
<title>Node32&#45;&gt;Node33</title>
<path fill="none" stroke="midnightblue" d="M1721.68,-281.89C1729.82,-270.84 1739.37,-257.89 1746.49,-248.25"/>
<polygon fill="midnightblue" stroke="midnightblue" points="1718.64,-280.11 1715.52,-290.23 1724.27,-284.26 1718.64,-280.11"/>
</g>
<!-- Node34 -->
<g id="node34" class="node">
<title>Node34</title>
<g id="a_node34"><a xlink:href="_m_l_c_l___circular_double_linked_list_8c.html" target="_top" xlink:title=" ">
<polygon fill="none" stroke="black" points="1829.5,-140 1829.5,-170 1992.5,-170 1992.5,-140 1829.5,-140"/>
<text text-anchor="start" x="1837.5" y="-158" font-family="Helvetica,sans-Serif" font-size="10.00">src/Lists/MLCL_CircularDouble</text>
<text text-anchor="middle" x="1911" y="-147" font-family="Helvetica,sans-Serif" font-size="10.00">LinkedList.c</text>
</a>
</g>
</g>
<!-- Node32&#45;&gt;Node34 -->
<g id="edge45" class="edge">
<title>Node32&#45;&gt;Node34</title>
<path fill="none" stroke="midnightblue" d="M1685.94,-282.29C1671.11,-262.2 1655.59,-232.69 1672,-212 1673.4,-210.22 1778.64,-186.04 1848.99,-170.04"/>
<polygon fill="midnightblue" stroke="midnightblue" points="1683.24,-284.53 1692.15,-290.27 1688.77,-280.23 1683.24,-284.53"/>
</g>
<!-- Node35 -->
<g id="node35" class="node">
<title>Node35</title>
<g id="a_node35"><a xlink:href="_m_l_c_l___double_linked_list_8c.html" target="_top" xlink:title=" ">
<polygon fill="none" stroke="black" points="1429.5,-218 1429.5,-248 1586.5,-248 1586.5,-218 1429.5,-218"/>
<text text-anchor="start" x="1437.5" y="-236" font-family="Helvetica,sans-Serif" font-size="10.00">src/Lists/MLCL_DoubleLinked</text>
<text text-anchor="middle" x="1508" y="-225" font-family="Helvetica,sans-Serif" font-size="10.00">List.c</text>
</a>
</g>
</g>
<!-- Node32&#45;&gt;Node35 -->
<g id="edge46" class="edge">
<title>Node32&#45;&gt;Node35</title>
<path fill="none" stroke="midnightblue" d="M1656,-286.96C1622.46,-274.96 1578.57,-259.26 1547.32,-248.07"/>
<polygon fill="midnightblue" stroke="midnightblue" points="1655.01,-290.33 1665.6,-290.4 1657.37,-283.74 1655.01,-290.33"/>
</g>
<!-- Node33&#45;&gt;Node5 -->
<g id="edge40" class="edge">
<title>Node33&#45;&gt;Node5</title>
<path fill="none" stroke="midnightblue" d="M1714.86,-213.81C1688.19,-202.29 1653.73,-187.41 1626.45,-175.63"/>
<polygon fill="midnightblue" stroke="midnightblue" points="1713.74,-217.13 1724.3,-217.88 1716.51,-210.71 1713.74,-217.13"/>
</g>
<!-- Node33&#45;&gt;Node18 -->
<g id="edge41" class="edge">
<title>Node33&#45;&gt;Node18</title>
<path fill="none" stroke="midnightblue" d="M1829.75,-215.71C1895.8,-200.86 1985.36,-180.57 2002,-176 2008.54,-174.2 2015.42,-172.15 2022.12,-170.05"/>
<polygon fill="midnightblue" stroke="midnightblue" points="1828.76,-212.34 1819.77,-217.95 1830.3,-219.17 1828.76,-212.34"/>
</g>
<!-- Node33&#45;&gt;Node34 -->
<g id="edge42" class="edge">
<title>Node33&#45;&gt;Node34</title>
<path fill="none" stroke="midnightblue" d="M1794.79,-213.35C1821.9,-199.97 1857.85,-182.23 1882.54,-170.04"/>
<polygon fill="midnightblue" stroke="midnightblue" points="1793.02,-210.32 1785.6,-217.88 1796.12,-216.6 1793.02,-210.32"/>
</g>
<!-- Node36&#45;&gt;Node8 -->
<g id="edge52" class="edge">
<title>Node36&#45;&gt;Node8</title>
<path fill="none" stroke="midnightblue" d="M2087.99,-300.93C1975.71,-294.15 1747.96,-277.9 1672,-254 1635.18,-242.42 1631.28,-227.63 1596,-212 1558.03,-195.19 1513.34,-180.23 1480.21,-170.01"/>
<polygon fill="midnightblue" stroke="midnightblue" points="2087.97,-304.44 2098.16,-301.54 2088.39,-297.45 2087.97,-304.44"/>
</g>
<!-- Node36&#45;&gt;Node18 -->
<g id="edge53" class="edge">
<title>Node36&#45;&gt;Node18</title>
<path fill="none" stroke="midnightblue" d="M2190.9,-284.86C2202.41,-276.96 2213.62,-266.67 2220,-254 2228.38,-237.32 2230.74,-227.27 2220,-212 2216.56,-207.12 2151.99,-185.02 2107.01,-170.09"/>
<polygon fill="midnightblue" stroke="midnightblue" points="2188.68,-282.13 2182.11,-290.44 2192.43,-288.03 2188.68,-282.13"/>
</g>
<!-- Node37 -->
<g id="node37" class="node">
<title>Node37</title>
<g id="a_node37"><a xlink:href="_m_l_c_l___circular_linked_list_8h.html" target="_top" xlink:title=" ">
<polygon fill="none" stroke="black" points="2093.5,-218 2093.5,-248 2210.5,-248 2210.5,-218 2093.5,-218"/>
<text text-anchor="start" x="2101.5" y="-236" font-family="Helvetica,sans-Serif" font-size="10.00">include/Lists/MLCL</text>
<text text-anchor="middle" x="2152" y="-225" font-family="Helvetica,sans-Serif" font-size="10.00">_CircularLinkedList.h</text>
</a>
</g>
</g>
<!-- Node36&#45;&gt;Node37 -->
<g id="edge48" class="edge">
<title>Node36&#45;&gt;Node37</title>
<path fill="none" stroke="midnightblue" d="M2152,-280.23C2152,-269.57 2152,-257.41 2152,-248.25"/>
<polygon fill="midnightblue" stroke="midnightblue" points="2148.5,-280.23 2152,-290.23 2155.5,-280.23 2148.5,-280.23"/>
</g>
<!-- Node39 -->
<g id="node39" class="node">
<title>Node39</title>
<g id="a_node39"><a xlink:href="_m_l_c_l___linked_list_8c.html" target="_top" xlink:title=" ">
<polygon fill="none" stroke="black" points="1927,-223.5 1927,-242.5 2075,-242.5 2075,-223.5 1927,-223.5"/>
<text text-anchor="middle" x="2001" y="-230.5" font-family="Helvetica,sans-Serif" font-size="10.00">src/Lists/MLCL_LinkedList.c</text>
</a>
</g>
</g>
<!-- Node36&#45;&gt;Node39 -->
<g id="edge54" class="edge">
<title>Node36&#45;&gt;Node39</title>
<path fill="none" stroke="midnightblue" d="M2112.41,-286.02C2082.29,-271.96 2042.24,-253.26 2019.27,-242.53"/>
<polygon fill="midnightblue" stroke="midnightblue" points="2111.26,-289.34 2121.8,-290.4 2114.22,-283 2111.26,-289.34"/>
</g>
<!-- Node37&#45;&gt;Node6 -->
<g id="edge49" class="edge">
<title>Node37&#45;&gt;Node6</title>
<path fill="none" stroke="midnightblue" d="M2097.62,-215.23C2093.03,-214.05 2088.45,-212.95 2084,-212 1968.63,-187.29 1936.84,-198.34 1821,-176 1812.14,-174.29 1802.8,-172.21 1793.74,-170.05"/>
<polygon fill="midnightblue" stroke="midnightblue" points="2097.05,-218.7 2107.62,-217.91 2098.86,-211.94 2097.05,-218.7"/>
</g>
<!-- Node37&#45;&gt;Node18 -->
<g id="edge50" class="edge">
<title>Node37&#45;&gt;Node18</title>
<path fill="none" stroke="midnightblue" d="M2127.56,-210.89C2112.55,-197.93 2093.73,-181.68 2080.47,-170.23"/>
<polygon fill="midnightblue" stroke="midnightblue" points="2125.59,-213.82 2135.44,-217.7 2130.16,-208.52 2125.59,-213.82"/>
</g>
<!-- Node38 -->
<g id="node38" class="node">
<title>Node38</title>
<g id="a_node38"><a xlink:href="_m_l_c_l___circular_linked_list_8c.html" target="_top" xlink:title=" ">
<polygon fill="none" stroke="black" points="2136,-140 2136,-170 2296,-170 2296,-140 2136,-140"/>
<text text-anchor="start" x="2144" y="-158" font-family="Helvetica,sans-Serif" font-size="10.00">src/Lists/MLCL_CircularLinked</text>
<text text-anchor="middle" x="2216" y="-147" font-family="Helvetica,sans-Serif" font-size="10.00">List.c</text>
</a>
</g>
</g>
<!-- Node37&#45;&gt;Node38 -->
<g id="edge51" class="edge">
<title>Node37&#45;&gt;Node38</title>
<path fill="none" stroke="midnightblue" d="M2170.68,-209.81C2181.44,-197.03 2194.64,-181.36 2204.01,-170.23"/>
<polygon fill="midnightblue" stroke="midnightblue" points="2167.8,-207.8 2164.03,-217.7 2173.15,-212.31 2167.8,-207.8"/>
</g>
<!-- Node42 -->
<g id="node42" class="node">
<title>Node42</title>
<g id="a_node42"><a xlink:href="_m_l_c_l___a_v_l_tree_8h.html" target="_top" xlink:title=" ">
<polygon fill="none" stroke="black" points="2308,-218 2308,-248 2418,-248 2418,-218 2308,-218"/>
<text text-anchor="start" x="2316" y="-236" font-family="Helvetica,sans-Serif" font-size="10.00">include/Trees/MLCL</text>
<text text-anchor="middle" x="2363" y="-225" font-family="Helvetica,sans-Serif" font-size="10.00">_AVLTree.h</text>
</a>
</g>
</g>
<!-- Node41&#45;&gt;Node42 -->
<g id="edge60" class="edge">
<title>Node41&#45;&gt;Node42</title>
<path fill="none" stroke="midnightblue" d="M2363,-280.23C2363,-269.57 2363,-257.41 2363,-248.25"/>
<polygon fill="midnightblue" stroke="midnightblue" points="2359.5,-280.23 2363,-290.23 2366.5,-280.23 2359.5,-280.23"/>
</g>
<!-- Node44 -->
<g id="node44" class="node">
<title>Node44</title>
<g id="a_node44"><a xlink:href="_m_l_c_l___binary_search_tree__test_8h.html" target="_top" xlink:title=" ">
<polygon fill="none" stroke="black" points="604,-212.5 604,-253.5 740,-253.5 740,-212.5 604,-212.5"/>
<text text-anchor="start" x="612" y="-241.5" font-family="Helvetica,sans-Serif" font-size="10.00">include/_Tests/Trees</text>
<text text-anchor="start" x="612" y="-230.5" font-family="Helvetica,sans-Serif" font-size="10.00">/MLCL_BinarySearchTree</text>
<text text-anchor="middle" x="672" y="-219.5" font-family="Helvetica,sans-Serif" font-size="10.00">_test.h</text>
</a>
</g>
</g>
<!-- Node41&#45;&gt;Node44 -->
<g id="edge63" class="edge">
<title>Node41&#45;&gt;Node44</title>
<path fill="none" stroke="midnightblue" d="M2294.6,-296.85C2269.58,-294.3 2241.04,-291.69 2215,-290 1714.02,-257.51 1587.63,-274.11 1086,-254 964.12,-249.11 822.14,-241.93 740.11,-237.63"/>
<polygon fill="midnightblue" stroke="midnightblue" points="2294.42,-300.35 2304.72,-297.9 2295.14,-293.39 2294.42,-300.35"/>
</g>
<!-- Node45 -->
<g id="node45" class="node">
<title>Node45</title>
<g id="a_node45"><a xlink:href="_m_l_c_l___binary_search_tree_8c.html" target="_top" xlink:title=" ">
<polygon fill="none" stroke="black" points="2436,-218 2436,-248 2594,-248 2594,-218 2436,-218"/>
<text text-anchor="start" x="2444" y="-236" font-family="Helvetica,sans-Serif" font-size="10.00">src/Trees/MLCL_BinarySearch</text>
<text text-anchor="middle" x="2515" y="-225" font-family="Helvetica,sans-Serif" font-size="10.00">Tree.c</text>
</a>
</g>
</g>
<!-- Node41&#45;&gt;Node45 -->
<g id="edge66" class="edge">
<title>Node41&#45;&gt;Node45</title>
<path fill="none" stroke="midnightblue" d="M2402.48,-286.19C2428.13,-274.29 2461.06,-259.02 2484.65,-248.07"/>
<polygon fill="midnightblue" stroke="midnightblue" points="2400.99,-283.02 2393.39,-290.4 2403.93,-289.37 2400.99,-283.02"/>
</g>
<!-- Node42&#45;&gt;Node13 -->
<g id="edge61" class="edge">
<title>Node42&#45;&gt;Node13</title>
<path fill="none" stroke="midnightblue" d="M2366.85,-207.59C2368.8,-195.26 2371.09,-180.72 2372.75,-170.23"/>
<polygon fill="midnightblue" stroke="midnightblue" points="2363.36,-207.28 2365.25,-217.7 2370.27,-208.37 2363.36,-207.28"/>
</g>
<!-- Node43 -->
<g id="node43" class="node">
<title>Node43</title>
<g id="a_node43"><a xlink:href="_m_l_c_l___a_v_l_tree_8c.html" target="_top" xlink:title=" ">
<polygon fill="none" stroke="black" points="2454,-145.5 2454,-164.5 2594,-164.5 2594,-145.5 2454,-145.5"/>
<text text-anchor="middle" x="2524" y="-152.5" font-family="Helvetica,sans-Serif" font-size="10.00">src/Trees/MLCL_AVLTree.c</text>
</a>
</g>
</g>
<!-- Node42&#45;&gt;Node43 -->
<g id="edge62" class="edge">
<title>Node42&#45;&gt;Node43</title>
<path fill="none" stroke="midnightblue" d="M2402.26,-213.47C2435.2,-197.92 2480.76,-176.41 2505.76,-164.61"/>
<polygon fill="midnightblue" stroke="midnightblue" points="2400.45,-210.45 2392.9,-217.88 2403.44,-216.78 2400.45,-210.45"/>
</g>
<!-- Node44&#45;&gt;Node14 -->
<g id="edge65" class="edge">
<title>Node44&#45;&gt;Node14</title>
<path fill="none" stroke="midnightblue" d="M646.41,-204.99C635.29,-193.25 622.72,-179.99 613.47,-170.23"/>
<polygon fill="midnightblue" stroke="midnightblue" points="644.04,-207.58 653.45,-212.43 649.12,-202.76 644.04,-207.58"/>
</g>
<!-- Node44&#45;&gt;Node28 -->
<g id="edge64" class="edge">
<title>Node44&#45;&gt;Node28</title>
<path fill="none" stroke="midnightblue" d="M598.66,-209.17C566.96,-198.42 534.13,-185.83 521,-176 506,-164.78 476.09,-120.59 461.06,-97.59"/>
<polygon fill="midnightblue" stroke="midnightblue" points="597.85,-212.59 608.44,-212.44 600.07,-205.95 597.85,-212.59"/>
</g>
</g>
</svg>
