<?xml version="1.0" encoding="UTF-8" standalone="no"?>
<!DOCTYPE svg PUBLIC "-//W3C//DTD SVG 1.1//EN"
 "http://www.w3.org/Graphics/SVG/1.1/DTD/svg11.dtd">
<!-- Generated by graphviz version 2.43.0 (0)
 -->
<!-- Title: src/Queue/MLCL_Queue.c Pages: 1 -->
<svg width="471pt" height="386pt"
 viewBox="0.00 0.00 471.14 386.00" xmlns="http://www.w3.org/2000/svg" xmlns:xlink="http://www.w3.org/1999/xlink">
<g id="graph0" class="graph" transform="scale(1 1) rotate(0) translate(4 382)">
<title>src/Queue/MLCL_Queue.c</title>
<!-- Node1 -->
<g id="node1" class="node">
<title>Node1</title>
<g id="a_node1"><a xlink:title=" ">
<polygon fill="#bfbfbf" stroke="black" points="166.22,-358.5 166.22,-377.5 306.22,-377.5 306.22,-358.5 166.22,-358.5"/>
<text text-anchor="middle" x="236.22" y="-365.5" font-family="Helvetica,sans-Serif" font-size="10.00">src/Queue/MLCL_Queue.c</text>
</a>
</g>
</g>
<!-- Node2 -->
<g id="node2" class="node">
<title>Node2</title>
<g id="a_node2"><a xlink:href="_m_l_c_l___queue_8h.html" target="_top" xlink:title=" ">
<polygon fill="none" stroke="black" points="184.22,-291.5 184.22,-321.5 288.22,-321.5 288.22,-291.5 184.22,-291.5"/>
<text text-anchor="start" x="192.22" y="-309.5" font-family="Helvetica,sans-Serif" font-size="10.00">../../include/Queue</text>
<text text-anchor="middle" x="236.22" y="-298.5" font-family="Helvetica,sans-Serif" font-size="10.00">/MLCL_Queue.h</text>
</a>
</g>
</g>
<!-- Node1&#45;&gt;Node2 -->
<g id="edge1" class="edge">
<title>Node1&#45;&gt;Node2</title>
<path fill="none" stroke="midnightblue" d="M236.22,-358.48C236.22,-351.47 236.22,-341.19 236.22,-331.7"/>
<polygon fill="midnightblue" stroke="midnightblue" points="239.72,-331.52 236.22,-321.52 232.72,-331.52 239.72,-331.52"/>
</g>
<!-- Node3 -->
<g id="node3" class="node">
<title>Node3</title>
<g id="a_node3"><a xlink:href="_m_l_c_l___list_8h.html" target="_top" xlink:title=" ">
<polygon fill="none" stroke="black" points="181.72,-235.5 181.72,-254.5 290.72,-254.5 290.72,-235.5 181.72,-235.5"/>
<text text-anchor="middle" x="236.22" y="-242.5" font-family="Helvetica,sans-Serif" font-size="10.00">../Lists/MLCL_List.h</text>
</a>
</g>
</g>
<!-- Node2&#45;&gt;Node3 -->
<g id="edge2" class="edge">
<title>Node2&#45;&gt;Node3</title>
<path fill="none" stroke="midnightblue" d="M236.22,-291.4C236.22,-283.47 236.22,-273.46 236.22,-264.86"/>
<polygon fill="midnightblue" stroke="midnightblue" points="239.72,-264.66 236.22,-254.66 232.72,-264.66 239.72,-264.66"/>
</g>
<!-- Node4 -->
<g id="node4" class="node">
<title>Node4</title>
<g id="a_node4"><a xlink:href="_m_l_c_l___array_list_8h.html" target="_top" xlink:title=" ">
<polygon fill="none" stroke="black" points="185.72,-174 185.72,-193 286.72,-193 286.72,-174 185.72,-174"/>
<text text-anchor="middle" x="236.22" y="-181" font-family="Helvetica,sans-Serif" font-size="10.00">MLCL_ArrayList.h</text>
</a>
</g>
</g>
<!-- Node3&#45;&gt;Node4 -->
<g id="edge3" class="edge">
<title>Node3&#45;&gt;Node4</title>
<path fill="none" stroke="midnightblue" d="M236.22,-235.48C236.22,-227.08 236.22,-213.98 236.22,-203.16"/>
<polygon fill="midnightblue" stroke="midnightblue" points="239.72,-203.01 236.22,-193.01 232.72,-203.01 239.72,-203.01"/>
</g>
<!-- Node8 -->
<g id="node8" class="node">
<title>Node8</title>
<g id="a_node8"><a xlink:href="_m_l_c_l___linked_list_8h.html" target="_top" xlink:title=" ">
<polygon fill="none" stroke="black" points="330.22,-112.5 330.22,-131.5 436.22,-131.5 436.22,-112.5 330.22,-112.5"/>
<text text-anchor="middle" x="383.22" y="-119.5" font-family="Helvetica,sans-Serif" font-size="10.00">MLCL_LinkedList.h</text>
</a>
</g>
</g>
<!-- Node3&#45;&gt;Node8 -->
<g id="edge7" class="edge">
<title>Node3&#45;&gt;Node8</title>
<path fill="none" stroke="midnightblue" d="M290.81,-240.6C349.32,-235.69 436.6,-224.24 457.22,-199 465.94,-188.33 463.97,-180.01 457.22,-168 449,-153.38 433.89,-142.95 419.46,-135.85"/>
<polygon fill="midnightblue" stroke="midnightblue" points="420.7,-132.57 410.15,-131.64 417.82,-138.95 420.7,-132.57"/>
</g>
<!-- Node9 -->
<g id="node9" class="node">
<title>Node9</title>
<g id="a_node9"><a xlink:href="_m_l_c_l___circular_linked_list_8h.html" target="_top" xlink:title=" ">
<polygon fill="none" stroke="black" points="304.72,-174 304.72,-193 447.72,-193 447.72,-174 304.72,-174"/>
<text text-anchor="middle" x="376.22" y="-181" font-family="Helvetica,sans-Serif" font-size="10.00">MLCL_CircularLinkedList.h</text>
</a>
</g>
</g>
<!-- Node3&#45;&gt;Node9 -->
<g id="edge11" class="edge">
<title>Node3&#45;&gt;Node9</title>
<path fill="none" stroke="midnightblue" d="M256.28,-235.48C279.98,-225.4 319.63,-208.55 346.8,-197"/>
<polygon fill="midnightblue" stroke="midnightblue" points="348.36,-200.14 356.2,-193.01 345.63,-193.7 348.36,-200.14"/>
</g>
<!-- Node11 -->
<g id="node11" class="node">
<title>Node11</title>
<g id="a_node11"><a xlink:href="_m_l_c_l___double_linked_list_8h.html" target="_top" xlink:title=" ">
<polygon fill="none" stroke="black" points="44.22,-112.5 44.22,-131.5 184.22,-131.5 184.22,-112.5 44.22,-112.5"/>
<text text-anchor="middle" x="114.22" y="-119.5" font-family="Helvetica,sans-Serif" font-size="10.00">MLCL_DoubleLinkedList.h</text>
</a>
</g>
</g>
<!-- Node3&#45;&gt;Node11 -->
<g id="edge14" class="edge">
<title>Node3&#45;&gt;Node11</title>
<path fill="none" stroke="midnightblue" d="M181.61,-241.1C120.76,-236.59 28.01,-225.46 6.22,-199 -2.54,-188.36 -1.42,-179.46 6.22,-168 17.01,-151.81 34.85,-141.44 52.95,-134.79"/>
<polygon fill="midnightblue" stroke="midnightblue" points="54.3,-138.03 62.69,-131.56 52.1,-131.39 54.3,-138.03"/>
</g>
<!-- Node12 -->
<g id="node12" class="node">
<title>Node12</title>
<g id="a_node12"><a xlink:href="_m_l_c_l___circular_double_linked_list_8h.html" target="_top" xlink:title=" ">
<polygon fill="none" stroke="black" points="15.22,-168.5 15.22,-198.5 167.22,-198.5 167.22,-168.5 15.22,-168.5"/>
<text text-anchor="start" x="23.22" y="-186.5" font-family="Helvetica,sans-Serif" font-size="10.00">MLCL_CircularDoubleLinked</text>
<text text-anchor="middle" x="91.22" y="-175.5" font-family="Helvetica,sans-Serif" font-size="10.00">List.h</text>
</a>
</g>
</g>
<!-- Node3&#45;&gt;Node12 -->
<g id="edge17" class="edge">
<title>Node3&#45;&gt;Node12</title>
<path fill="none" stroke="midnightblue" d="M215.44,-235.48C194.52,-226.89 161.61,-213.38 134.91,-202.43"/>
<polygon fill="midnightblue" stroke="midnightblue" points="135.97,-199.08 125.39,-198.52 133.32,-205.56 135.97,-199.08"/>
</g>
<!-- Node5 -->
<g id="node5" class="node">
<title>Node5</title>
<g id="a_node5"><a xlink:href="_m_l_c_l___type_descriptor_8h.html" target="_top" xlink:title=" ">
<polygon fill="none" stroke="black" points="161.22,-56.5 161.22,-75.5 299.22,-75.5 299.22,-56.5 161.22,-56.5"/>
<text text-anchor="middle" x="230.22" y="-63.5" font-family="Helvetica,sans-Serif" font-size="10.00">../MLCL_TypeDescriptor.h</text>
</a>
</g>
</g>
<!-- Node4&#45;&gt;Node5 -->
<g id="edge4" class="edge">
<title>Node4&#45;&gt;Node5</title>
<path fill="none" stroke="midnightblue" d="M235.77,-173.82C234.8,-155.26 232.52,-111.34 231.21,-85.97"/>
<polygon fill="midnightblue" stroke="midnightblue" points="234.69,-85.59 230.68,-75.78 227.7,-85.95 234.69,-85.59"/>
</g>
<!-- Node6 -->
<g id="node6" class="node">
<title>Node6</title>
<g id="a_node6"><a xlink:title=" ">
<polygon fill="none" stroke="#bfbfbf" points="203.72,-0.5 203.72,-19.5 256.72,-19.5 256.72,-0.5 203.72,-0.5"/>
<text text-anchor="middle" x="230.22" y="-7.5" font-family="Helvetica,sans-Serif" font-size="10.00">stdlib.h</text>
</a>
</g>
</g>
<!-- Node5&#45;&gt;Node6 -->
<g id="edge5" class="edge">
<title>Node5&#45;&gt;Node6</title>
<path fill="none" stroke="midnightblue" d="M230.22,-56.08C230.22,-49.01 230.22,-38.86 230.22,-29.99"/>
<polygon fill="midnightblue" stroke="midnightblue" points="233.72,-29.75 230.22,-19.75 226.72,-29.75 233.72,-29.75"/>
</g>
<!-- Node7 -->
<g id="node7" class="node">
<title>Node7</title>
<g id="a_node7"><a xlink:title=" ">
<polygon fill="none" stroke="#bfbfbf" points="307.22,-0.5 307.22,-19.5 357.22,-19.5 357.22,-0.5 307.22,-0.5"/>
<text text-anchor="middle" x="332.22" y="-7.5" font-family="Helvetica,sans-Serif" font-size="10.00">stdio.h</text>
</a>
</g>
</g>
<!-- Node5&#45;&gt;Node7 -->
<g id="edge6" class="edge">
<title>Node5&#45;&gt;Node7</title>
<path fill="none" stroke="midnightblue" d="M246.61,-56.32C262.89,-47.7 288.09,-34.36 306.94,-24.39"/>
<polygon fill="midnightblue" stroke="midnightblue" points="308.67,-27.43 315.87,-19.65 305.4,-21.24 308.67,-27.43"/>
</g>
<!-- Node8&#45;&gt;Node5 -->
<g id="edge8" class="edge">
<title>Node8&#45;&gt;Node5</title>
<path fill="none" stroke="midnightblue" d="M358.98,-112.44C333.35,-103.4 292.73,-89.06 263.98,-78.92"/>
<polygon fill="midnightblue" stroke="midnightblue" points="264.94,-75.54 254.35,-75.52 262.61,-82.15 264.94,-75.54"/>
</g>
<!-- Node8&#45;&gt;Node6 -->
<g id="edge9" class="edge">
<title>Node8&#45;&gt;Node6</title>
<path fill="none" stroke="midnightblue" d="M374.45,-112.41C360.9,-99.37 333.77,-74.19 308.22,-56 291.66,-44.21 271.8,-32.79 256.27,-24.4"/>
<polygon fill="midnightblue" stroke="midnightblue" points="257.69,-21.2 247.22,-19.6 254.41,-27.38 257.69,-21.2"/>
</g>
<!-- Node8&#45;&gt;Node7 -->
<g id="edge10" class="edge">
<title>Node8&#45;&gt;Node7</title>
<path fill="none" stroke="midnightblue" d="M379.22,-112.37C370.91,-94.46 351.66,-52.92 340.54,-28.95"/>
<polygon fill="midnightblue" stroke="midnightblue" points="343.58,-27.19 336.2,-19.59 337.23,-30.14 343.58,-27.19"/>
</g>
<!-- Node9&#45;&gt;Node8 -->
<g id="edge12" class="edge">
<title>Node9&#45;&gt;Node8</title>
<path fill="none" stroke="midnightblue" d="M377.22,-173.98C378.21,-165.58 379.75,-152.48 381.02,-141.66"/>
<polygon fill="midnightblue" stroke="midnightblue" points="384.53,-141.85 382.22,-131.51 377.57,-141.03 384.53,-141.85"/>
</g>
<!-- Node10 -->
<g id="node10" class="node">
<title>Node10</title>
<g id="a_node10"><a xlink:title=" ">
<polygon fill="none" stroke="#bfbfbf" points="256.22,-112.5 256.22,-131.5 312.22,-131.5 312.22,-112.5 256.22,-112.5"/>
<text text-anchor="middle" x="284.22" y="-119.5" font-family="Helvetica,sans-Serif" font-size="10.00">assert.h</text>
</a>
</g>
</g>
<!-- Node9&#45;&gt;Node10 -->
<g id="edge13" class="edge">
<title>Node9&#45;&gt;Node10</title>
<path fill="none" stroke="midnightblue" d="M363.04,-173.98C348.15,-164.34 323.68,-148.52 305.95,-137.05"/>
<polygon fill="midnightblue" stroke="midnightblue" points="307.67,-134 297.38,-131.51 303.87,-139.88 307.67,-134"/>
</g>
<!-- Node11&#45;&gt;Node5 -->
<g id="edge16" class="edge">
<title>Node11&#45;&gt;Node5</title>
<path fill="none" stroke="midnightblue" d="M132.6,-112.44C151.44,-103.68 180.95,-89.94 202.6,-79.86"/>
<polygon fill="midnightblue" stroke="midnightblue" points="204.34,-82.91 211.93,-75.52 201.38,-76.56 204.34,-82.91"/>
</g>
<!-- Node11&#45;&gt;Node6 -->
<g id="edge15" class="edge">
<title>Node11&#45;&gt;Node6</title>
<path fill="none" stroke="midnightblue" d="M117.5,-112.49C122.99,-99.12 135.16,-72.96 152.22,-56 165.81,-42.49 184.26,-31.6 199.81,-23.92"/>
<polygon fill="midnightblue" stroke="midnightblue" points="201.5,-26.99 209.05,-19.56 198.51,-20.67 201.5,-26.99"/>
</g>
<!-- Node12&#45;&gt;Node11 -->
<g id="edge18" class="edge">
<title>Node12&#45;&gt;Node11</title>
<path fill="none" stroke="midnightblue" d="M96.67,-168.4C99.84,-160.2 103.87,-149.78 107.26,-140.99"/>
<polygon fill="midnightblue" stroke="midnightblue" points="110.53,-142.25 110.87,-131.66 104,-139.72 110.53,-142.25"/>
</g>
</g>
</svg>
