<?xml version="1.0" encoding="UTF-8" standalone="no"?>
<!DOCTYPE svg PUBLIC "-//W3C//DTD SVG 1.1//EN"
 "http://www.w3.org/Graphics/SVG/1.1/DTD/svg11.dtd">
<!-- Generated by graphviz version 2.43.0 (0)
 -->
<!-- Title: include/Stack/MLCL_Stack.h Pages: 1 -->
<svg width="280pt" height="106pt"
 viewBox="0.00 0.00 280.00 106.00" xmlns="http://www.w3.org/2000/svg" xmlns:xlink="http://www.w3.org/1999/xlink">
<g id="graph0" class="graph" transform="scale(1 1) rotate(0) translate(4 102)">
<title>include/Stack/MLCL_Stack.h</title>
<!-- Node1 -->
<g id="node1" class="node">
<title>Node1</title>
<g id="a_node1"><a xlink:title=" ">
<polygon fill="#bfbfbf" stroke="black" points="78,-67.5 78,-97.5 189,-97.5 189,-67.5 78,-67.5"/>
<text text-anchor="start" x="86" y="-85.5" font-family="Helvetica,sans-Serif" font-size="10.00">include/Stack/MLCL</text>
<text text-anchor="middle" x="133.5" y="-74.5" font-family="Helvetica,sans-Serif" font-size="10.00">_Stack.h</text>
</a>
</g>
</g>
<!-- Node2 -->
<g id="node2" class="node">
<title>Node2</title>
<g id="a_node2"><a xlink:href="_m_l_c_l___stack__test_8c.html" target="_top" xlink:title=" ">
<polygon fill="none" stroke="black" points="0,-0.5 0,-30.5 123,-30.5 123,-0.5 0,-0.5"/>
<text text-anchor="start" x="8" y="-18.5" font-family="Helvetica,sans-Serif" font-size="10.00">src/_Tests/Stack/MLCL</text>
<text text-anchor="middle" x="61.5" y="-7.5" font-family="Helvetica,sans-Serif" font-size="10.00">_Stack_test.c</text>
</a>
</g>
</g>
<!-- Node1&#45;&gt;Node2 -->
<g id="edge1" class="edge">
<title>Node1&#45;&gt;Node2</title>
<path fill="none" stroke="midnightblue" d="M110.35,-60.6C99.48,-50.78 86.8,-39.34 77.09,-30.58"/>
<polygon fill="midnightblue" stroke="midnightblue" points="108.11,-63.29 117.88,-67.4 112.8,-58.1 108.11,-63.29"/>
</g>
<!-- Node3 -->
<g id="node3" class="node">
<title>Node3</title>
<g id="a_node3"><a xlink:href="_m_l_c_l___stack_8c.html" target="_top" xlink:title=" ">
<polygon fill="none" stroke="black" points="141,-6 141,-25 272,-25 272,-6 141,-6"/>
<text text-anchor="middle" x="206.5" y="-13" font-family="Helvetica,sans-Serif" font-size="10.00">src/Stack/MLCL_Stack.c</text>
</a>
</g>
</g>
<!-- Node1&#45;&gt;Node3 -->
<g id="edge2" class="edge">
<title>Node1&#45;&gt;Node3</title>
<path fill="none" stroke="midnightblue" d="M156.89,-60.67C170.37,-48.67 186.6,-34.22 196.74,-25.19"/>
<polygon fill="midnightblue" stroke="midnightblue" points="154.48,-58.13 149.34,-67.4 159.14,-63.36 154.48,-58.13"/>
</g>
</g>
</svg>
