<?xml version="1.0" encoding="UTF-8" standalone="no"?>
<!DOCTYPE svg PUBLIC "-//W3C//DTD SVG 1.1//EN"
 "http://www.w3.org/Graphics/SVG/1.1/DTD/svg11.dtd">
<!-- Generated by graphviz version 2.43.0 (0)
 -->
<!-- Title: include/Tests/MLCL_exceptions.h Pages: 1 -->
<svg width="1039pt" height="106pt"
 viewBox="0.00 0.00 1038.50 106.00" xmlns="http://www.w3.org/2000/svg" xmlns:xlink="http://www.w3.org/1999/xlink">
<g id="graph0" class="graph" transform="scale(1 1) rotate(0) translate(4 102)">
<title>include/Tests/MLCL_exceptions.h</title>
<!-- Node1 -->
<g id="node1" class="node">
<title>Node1</title>
<g id="a_node1"><a xlink:title=" ">
<polygon fill="#bfbfbf" stroke="black" points="462,-67.5 462,-97.5 571,-97.5 571,-67.5 462,-67.5"/>
<text text-anchor="start" x="470" y="-85.5" font-family="Helvetica,sans-Serif" font-size="10.00">include/Tests/MLCL</text>
<text text-anchor="middle" x="516.5" y="-74.5" font-family="Helvetica,sans-Serif" font-size="10.00">_exceptions.h</text>
</a>
</g>
</g>
<!-- Node2 -->
<g id="node2" class="node">
<title>Node2</title>
<g id="a_node2"><a xlink:href="_m_l_c_l___binary_tree__test_8c.html" target="_top" xlink:title=" ">
<polygon fill="none" stroke="black" points="0,-0.5 0,-30.5 145,-30.5 145,-0.5 0,-0.5"/>
<text text-anchor="start" x="8" y="-18.5" font-family="Helvetica,sans-Serif" font-size="10.00">src/Tests/MLCL_BinaryTree</text>
<text text-anchor="middle" x="72.5" y="-7.5" font-family="Helvetica,sans-Serif" font-size="10.00">_test.c</text>
</a>
</g>
</g>
<!-- Node1&#45;&gt;Node2 -->
<g id="edge1" class="edge">
<title>Node1&#45;&gt;Node2</title>
<path fill="none" stroke="midnightblue" d="M452.05,-73.3C379.39,-63.88 257.78,-47.58 153.5,-31 150.82,-30.57 148.09,-30.13 145.34,-29.68"/>
<polygon fill="midnightblue" stroke="midnightblue" points="451.61,-76.78 461.98,-74.59 452.51,-69.83 451.61,-76.78"/>
</g>
<!-- Node3 -->
<g id="node3" class="node">
<title>Node3</title>
<g id="a_node3"><a xlink:href="_m_l_c_l___circular_double_linked_list__test_8c.html" target="_top" xlink:title=" ">
<polygon fill="none" stroke="black" points="163,-0.5 163,-30.5 328,-30.5 328,-0.5 163,-0.5"/>
<text text-anchor="start" x="171" y="-18.5" font-family="Helvetica,sans-Serif" font-size="10.00">src/Tests/MLCL_CircularDouble</text>
<text text-anchor="middle" x="245.5" y="-7.5" font-family="Helvetica,sans-Serif" font-size="10.00">LinkedList_test.c</text>
</a>
</g>
</g>
<!-- Node1&#45;&gt;Node3 -->
<g id="edge2" class="edge">
<title>Node1&#45;&gt;Node3</title>
<path fill="none" stroke="midnightblue" d="M452.06,-66.04C407.16,-55.27 347.73,-41.02 304.15,-30.57"/>
<polygon fill="midnightblue" stroke="midnightblue" points="451.44,-69.5 461.99,-68.42 453.08,-62.69 451.44,-69.5"/>
</g>
<!-- Node4 -->
<g id="node4" class="node">
<title>Node4</title>
<g id="a_node4"><a xlink:href="_m_l_c_l___circular_linked_list__test_8c.html" target="_top" xlink:title=" ">
<polygon fill="none" stroke="black" points="346.5,-0.5 346.5,-30.5 508.5,-30.5 508.5,-0.5 346.5,-0.5"/>
<text text-anchor="start" x="354.5" y="-18.5" font-family="Helvetica,sans-Serif" font-size="10.00">src/Tests/MLCL_CircularLinked</text>
<text text-anchor="middle" x="427.5" y="-7.5" font-family="Helvetica,sans-Serif" font-size="10.00">List_test.c</text>
</a>
</g>
</g>
<!-- Node1&#45;&gt;Node4 -->
<g id="edge3" class="edge">
<title>Node1&#45;&gt;Node4</title>
<path fill="none" stroke="midnightblue" d="M489.05,-61.45C475.36,-51.45 459.13,-39.6 446.77,-30.58"/>
<polygon fill="midnightblue" stroke="midnightblue" points="487.05,-64.32 497.19,-67.4 491.18,-58.67 487.05,-64.32"/>
</g>
<!-- Node5 -->
<g id="node5" class="node">
<title>Node5</title>
<g id="a_node5"><a xlink:href="_m_l_c_l___double_linked_list__test_8c.html" target="_top" xlink:title=" ">
<polygon fill="none" stroke="black" points="527,-0.5 527,-30.5 686,-30.5 686,-0.5 527,-0.5"/>
<text text-anchor="start" x="535" y="-18.5" font-family="Helvetica,sans-Serif" font-size="10.00">src/Tests/MLCL_DoubleLinked</text>
<text text-anchor="middle" x="606.5" y="-7.5" font-family="Helvetica,sans-Serif" font-size="10.00">List_test.c</text>
</a>
</g>
</g>
<!-- Node1&#45;&gt;Node5 -->
<g id="edge4" class="edge">
<title>Node1&#45;&gt;Node5</title>
<path fill="none" stroke="midnightblue" d="M544.26,-61.45C558.11,-51.45 574.52,-39.6 587.01,-30.58"/>
<polygon fill="midnightblue" stroke="midnightblue" points="542.09,-58.7 536.03,-67.4 546.18,-64.38 542.09,-58.7"/>
</g>
<!-- Node6 -->
<g id="node6" class="node">
<title>Node6</title>
<g id="a_node6"><a xlink:href="_m_l_c_l___linked_list__test_8c.html" target="_top" xlink:title=" ">
<polygon fill="none" stroke="black" points="704.5,-0.5 704.5,-30.5 846.5,-30.5 846.5,-0.5 704.5,-0.5"/>
<text text-anchor="start" x="712.5" y="-18.5" font-family="Helvetica,sans-Serif" font-size="10.00">src/Tests/MLCL_LinkedList</text>
<text text-anchor="middle" x="775.5" y="-7.5" font-family="Helvetica,sans-Serif" font-size="10.00">_test.c</text>
</a>
</g>
</g>
<!-- Node1&#45;&gt;Node6 -->
<g id="edge5" class="edge">
<title>Node1&#45;&gt;Node6</title>
<path fill="none" stroke="midnightblue" d="M580.83,-65.36C623.46,-54.66 678.84,-40.76 719.62,-30.52"/>
<polygon fill="midnightblue" stroke="midnightblue" points="579.96,-61.97 571.11,-67.79 581.66,-68.76 579.96,-61.97"/>
</g>
<!-- Node7 -->
<g id="node7" class="node">
<title>Node7</title>
<g id="a_node7"><a xlink:href="_m_l_c_l___type_descriptor__test_8c.html" target="_top" xlink:title=" ">
<polygon fill="none" stroke="black" points="864.5,-0.5 864.5,-30.5 1030.5,-30.5 1030.5,-0.5 864.5,-0.5"/>
<text text-anchor="start" x="872.5" y="-18.5" font-family="Helvetica,sans-Serif" font-size="10.00">src/Tests/MLCL_TypeDescriptor</text>
<text text-anchor="middle" x="947.5" y="-7.5" font-family="Helvetica,sans-Serif" font-size="10.00">_test.c</text>
</a>
</g>
</g>
<!-- Node1&#45;&gt;Node7 -->
<g id="edge6" class="edge">
<title>Node1&#45;&gt;Node7</title>
<path fill="none" stroke="midnightblue" d="M581.29,-72.01C649.54,-61.98 760.11,-45.62 855.5,-31 858.38,-30.56 861.3,-30.11 864.26,-29.65"/>
<polygon fill="midnightblue" stroke="midnightblue" points="580.51,-68.59 571.13,-73.51 581.53,-75.52 580.51,-68.59"/>
</g>
</g>
</svg>
