<?xml version="1.0" encoding="UTF-8" standalone="no"?>
<!DOCTYPE svg PUBLIC "-//W3C//DTD SVG 1.1//EN"
 "http://www.w3.org/Graphics/SVG/1.1/DTD/svg11.dtd">
<!-- Generated by graphviz version 2.43.0 (0)
 -->
<!-- Title: include/MLCL_basic_types.h Pages: 1 -->
<svg width="2275pt" height="117pt"
 viewBox="0.00 0.00 2274.50 117.00" xmlns="http://www.w3.org/2000/svg" xmlns:xlink="http://www.w3.org/1999/xlink">
<g id="graph0" class="graph" transform="scale(1 1) rotate(0) translate(4 113)">
<title>include/MLCL_basic_types.h</title>
<!-- Node1 -->
<g id="node1" class="node">
<title>Node1</title>
<g id="a_node1"><a xlink:title=" ">
<polygon fill="#bfbfbf" stroke="black" points="1056,-78.5 1056,-108.5 1168,-108.5 1168,-78.5 1056,-78.5"/>
<text text-anchor="start" x="1064" y="-96.5" font-family="Helvetica,sans-Serif" font-size="10.00">include/MLCL_basic</text>
<text text-anchor="middle" x="1112" y="-85.5" font-family="Helvetica,sans-Serif" font-size="10.00">_types.h</text>
</a>
</g>
</g>
<!-- Node2 -->
<g id="node2" class="node">
<title>Node2</title>
<g id="a_node2"><a xlink:href="_m_l_c_l___binary_heap__test_8c.html" target="_top" xlink:title=" ">
<polygon fill="none" stroke="black" points="0,-6 0,-36 122,-36 122,-6 0,-6"/>
<text text-anchor="start" x="8" y="-24" font-family="Helvetica,sans-Serif" font-size="10.00">src/_Tests/Heap/MLCL</text>
<text text-anchor="middle" x="61" y="-13" font-family="Helvetica,sans-Serif" font-size="10.00">_BinaryHeap_test.c</text>
</a>
</g>
</g>
<!-- Node1&#45;&gt;Node2 -->
<g id="edge1" class="edge">
<title>Node1&#45;&gt;Node2</title>
<path fill="none" stroke="midnightblue" d="M1045.83,-91.05C855.3,-86.56 307.75,-71.41 131,-42 122.27,-40.55 113.08,-38.39 104.34,-36.03"/>
<polygon fill="midnightblue" stroke="midnightblue" points="1045.9,-94.55 1055.98,-91.29 1046.07,-87.55 1045.9,-94.55"/>
</g>
<!-- Node3 -->
<g id="node3" class="node">
<title>Node3</title>
<g id="a_node3"><a xlink:href="_m_l_c_l___array_list__test_8c.html" target="_top" xlink:title=" ">
<polygon fill="none" stroke="black" points="140.5,-6 140.5,-36 259.5,-36 259.5,-6 140.5,-6"/>
<text text-anchor="start" x="148.5" y="-24" font-family="Helvetica,sans-Serif" font-size="10.00">src/_Tests/Lists/MLCL</text>
<text text-anchor="middle" x="200" y="-13" font-family="Helvetica,sans-Serif" font-size="10.00">_ArrayList_test.c</text>
</a>
</g>
</g>
<!-- Node1&#45;&gt;Node3 -->
<g id="edge2" class="edge">
<title>Node1&#45;&gt;Node3</title>
<path fill="none" stroke="midnightblue" d="M1045.75,-90.47C873.95,-84.91 417.15,-68.05 268,-42 259.64,-40.54 250.84,-38.41 242.45,-36.09"/>
<polygon fill="midnightblue" stroke="midnightblue" points="1045.81,-93.98 1055.92,-90.8 1046.03,-86.98 1045.81,-93.98"/>
</g>
<!-- Node4 -->
<g id="node4" class="node">
<title>Node4</title>
<g id="a_node4"><a xlink:href="_m_l_c_l___circular_double_linked_list__test_8c.html" target="_top" xlink:title=" ">
<polygon fill="none" stroke="black" points="277.5,-0.5 277.5,-41.5 420.5,-41.5 420.5,-0.5 277.5,-0.5"/>
<text text-anchor="start" x="285.5" y="-29.5" font-family="Helvetica,sans-Serif" font-size="10.00">src/_Tests/Lists/MLCL</text>
<text text-anchor="start" x="285.5" y="-18.5" font-family="Helvetica,sans-Serif" font-size="10.00">_CircularDoubleLinkedList</text>
<text text-anchor="middle" x="349" y="-7.5" font-family="Helvetica,sans-Serif" font-size="10.00">_test.c</text>
</a>
</g>
</g>
<!-- Node1&#45;&gt;Node4 -->
<g id="edge3" class="edge">
<title>Node1&#45;&gt;Node4</title>
<path fill="none" stroke="midnightblue" d="M1045.61,-91.28C923.18,-88.22 653.87,-77.67 430,-42 427,-41.52 423.94,-40.99 420.86,-40.41"/>
<polygon fill="midnightblue" stroke="midnightblue" points="1045.86,-94.79 1055.94,-91.53 1046.03,-87.79 1045.86,-94.79"/>
</g>
<!-- Node5 -->
<g id="node5" class="node">
<title>Node5</title>
<g id="a_node5"><a xlink:href="_m_l_c_l___circular_linked_list__test_8c.html" target="_top" xlink:title=" ">
<polygon fill="none" stroke="black" points="439,-6 439,-36 579,-36 579,-6 439,-6"/>
<text text-anchor="start" x="447" y="-24" font-family="Helvetica,sans-Serif" font-size="10.00">src/_Tests/Lists/MLCL</text>
<text text-anchor="middle" x="509" y="-13" font-family="Helvetica,sans-Serif" font-size="10.00">_CircularLinkedList_test.c</text>
</a>
</g>
</g>
<!-- Node1&#45;&gt;Node5 -->
<g id="edge4" class="edge">
<title>Node1&#45;&gt;Node5</title>
<path fill="none" stroke="midnightblue" d="M1045.54,-89.34C945.64,-83.85 751.06,-70.33 588,-42 578.8,-40.4 569.09,-38.3 559.75,-36.06"/>
<polygon fill="midnightblue" stroke="midnightblue" points="1045.62,-92.84 1055.79,-89.89 1045.99,-85.85 1045.62,-92.84"/>
</g>
<!-- Node6 -->
<g id="node6" class="node">
<title>Node6</title>
<g id="a_node6"><a xlink:href="_m_l_c_l___double_linked_list__test_8c.html" target="_top" xlink:title=" ">
<polygon fill="none" stroke="black" points="597.5,-6 597.5,-36 734.5,-36 734.5,-6 597.5,-6"/>
<text text-anchor="start" x="605.5" y="-24" font-family="Helvetica,sans-Serif" font-size="10.00">src/_Tests/Lists/MLCL</text>
<text text-anchor="middle" x="666" y="-13" font-family="Helvetica,sans-Serif" font-size="10.00">_DoubleLinkedList_test.c</text>
</a>
</g>
</g>
<!-- Node1&#45;&gt;Node6 -->
<g id="edge5" class="edge">
<title>Node1&#45;&gt;Node6</title>
<path fill="none" stroke="midnightblue" d="M1045.58,-85.8C971.4,-77.77 847.96,-62.74 743,-42 734.46,-40.31 725.47,-38.25 716.75,-36.09"/>
<polygon fill="midnightblue" stroke="midnightblue" points="1045.39,-89.3 1055.71,-86.89 1046.14,-82.34 1045.39,-89.3"/>
</g>
<!-- Node7 -->
<g id="node7" class="node">
<title>Node7</title>
<g id="a_node7"><a xlink:href="_m_l_c_l___linked_list__test_8c.html" target="_top" xlink:title=" ">
<polygon fill="none" stroke="black" points="752.5,-6 752.5,-36 871.5,-36 871.5,-6 752.5,-6"/>
<text text-anchor="start" x="760.5" y="-24" font-family="Helvetica,sans-Serif" font-size="10.00">src/_Tests/Lists/MLCL</text>
<text text-anchor="middle" x="812" y="-13" font-family="Helvetica,sans-Serif" font-size="10.00">_LinkedList_test.c</text>
</a>
</g>
</g>
<!-- Node1&#45;&gt;Node7 -->
<g id="edge6" class="edge">
<title>Node1&#45;&gt;Node7</title>
<path fill="none" stroke="midnightblue" d="M1045.98,-79.44C999.4,-69.91 935.63,-56.21 880,-42 872.85,-40.17 865.31,-38.1 857.97,-36"/>
<polygon fill="midnightblue" stroke="midnightblue" points="1045.45,-82.91 1055.95,-81.47 1046.85,-76.05 1045.45,-82.91"/>
</g>
<!-- Node8 -->
<g id="node8" class="node">
<title>Node8</title>
<g id="a_node8"><a xlink:href="_m_l_c_l___list__test_8c.html" target="_top" xlink:title=" ">
<polygon fill="none" stroke="black" points="889.5,-6 889.5,-36 1008.5,-36 1008.5,-6 889.5,-6"/>
<text text-anchor="start" x="897.5" y="-24" font-family="Helvetica,sans-Serif" font-size="10.00">src/_Tests/Lists/MLCL</text>
<text text-anchor="middle" x="949" y="-13" font-family="Helvetica,sans-Serif" font-size="10.00">_List_test.c</text>
</a>
</g>
</g>
<!-- Node1&#45;&gt;Node8 -->
<g id="edge7" class="edge">
<title>Node1&#45;&gt;Node8</title>
<path fill="none" stroke="midnightblue" d="M1070.02,-74.34C1042.46,-62.42 1006.95,-47.07 981.54,-36.07"/>
<polygon fill="midnightblue" stroke="midnightblue" points="1068.84,-77.65 1079.41,-78.4 1071.62,-71.22 1068.84,-77.65"/>
</g>
<!-- Node9 -->
<g id="node9" class="node">
<title>Node9</title>
<g id="a_node9"><a xlink:href="_m_l_c_l___type_descriptor__test_8c.html" target="_top" xlink:title=" ">
<polygon fill="none" stroke="black" points="1026.5,-6 1026.5,-36 1197.5,-36 1197.5,-6 1026.5,-6"/>
<text text-anchor="start" x="1034.5" y="-24" font-family="Helvetica,sans-Serif" font-size="10.00">src/_Tests/MLCL_TypeDescriptor</text>
<text text-anchor="middle" x="1112" y="-13" font-family="Helvetica,sans-Serif" font-size="10.00">_test.c</text>
</a>
</g>
</g>
<!-- Node1&#45;&gt;Node9 -->
<g id="edge8" class="edge">
<title>Node1&#45;&gt;Node9</title>
<path fill="none" stroke="midnightblue" d="M1112,-68.23C1112,-57.57 1112,-45.41 1112,-36.25"/>
<polygon fill="midnightblue" stroke="midnightblue" points="1108.5,-68.23 1112,-78.23 1115.5,-68.23 1108.5,-68.23"/>
</g>
<!-- Node10 -->
<g id="node10" class="node">
<title>Node10</title>
<g id="a_node10"><a xlink:href="_m_l_c_l___queue__test_8c.html" target="_top" xlink:title=" ">
<polygon fill="none" stroke="black" points="1216,-6 1216,-36 1344,-36 1344,-6 1216,-6"/>
<text text-anchor="start" x="1224" y="-24" font-family="Helvetica,sans-Serif" font-size="10.00">src/_Tests/Queue/MLCL</text>
<text text-anchor="middle" x="1280" y="-13" font-family="Helvetica,sans-Serif" font-size="10.00">_Queue_test.c</text>
</a>
</g>
</g>
<!-- Node1&#45;&gt;Node10 -->
<g id="edge9" class="edge">
<title>Node1&#45;&gt;Node10</title>
<path fill="none" stroke="midnightblue" d="M1154.9,-74.5C1183.35,-62.56 1220.15,-47.11 1246.46,-36.07"/>
<polygon fill="midnightblue" stroke="midnightblue" points="1153.46,-71.31 1145.59,-78.4 1156.17,-77.76 1153.46,-71.31"/>
</g>
<!-- Node11 -->
<g id="node11" class="node">
<title>Node11</title>
<g id="a_node11"><a xlink:href="_m_l_c_l___stack__test_8c.html" target="_top" xlink:title=" ">
<polygon fill="none" stroke="black" points="1362.5,-6 1362.5,-36 1485.5,-36 1485.5,-6 1362.5,-6"/>
<text text-anchor="start" x="1370.5" y="-24" font-family="Helvetica,sans-Serif" font-size="10.00">src/_Tests/Stack/MLCL</text>
<text text-anchor="middle" x="1424" y="-13" font-family="Helvetica,sans-Serif" font-size="10.00">_Stack_test.c</text>
</a>
</g>
</g>
<!-- Node1&#45;&gt;Node11 -->
<g id="edge10" class="edge">
<title>Node1&#45;&gt;Node11</title>
<path fill="none" stroke="midnightblue" d="M1178.31,-79.87C1226.88,-70.31 1294.28,-56.41 1353,-42 1360.34,-40.2 1368.06,-38.17 1375.61,-36.1"/>
<polygon fill="midnightblue" stroke="midnightblue" points="1177.39,-76.48 1168.25,-81.84 1178.73,-83.35 1177.39,-76.48"/>
</g>
<!-- Node12 -->
<g id="node12" class="node">
<title>Node12</title>
<g id="a_node12"><a xlink:href="_m_l_c_l___a_v_l_tree__test_8c.html" target="_top" xlink:title=" ">
<polygon fill="none" stroke="black" points="1504,-6 1504,-36 1626,-36 1626,-6 1504,-6"/>
<text text-anchor="start" x="1512" y="-24" font-family="Helvetica,sans-Serif" font-size="10.00">src/_Tests/Trees/MLCL</text>
<text text-anchor="middle" x="1565" y="-13" font-family="Helvetica,sans-Serif" font-size="10.00">_AVLTree_test.c</text>
</a>
</g>
</g>
<!-- Node1&#45;&gt;Node12 -->
<g id="edge11" class="edge">
<title>Node1&#45;&gt;Node12</title>
<path fill="none" stroke="midnightblue" d="M1178.26,-86.75C1255.02,-79.4 1385.02,-64.83 1495,-42 1502.92,-40.36 1511.26,-38.28 1519.3,-36.1"/>
<polygon fill="midnightblue" stroke="midnightblue" points="1177.88,-83.27 1168.25,-87.7 1178.54,-90.24 1177.88,-83.27"/>
</g>
<!-- Node13 -->
<g id="node13" class="node">
<title>Node13</title>
<g id="a_node13"><a xlink:href="_m_l_c_l___binary_search_tree__test_8c.html" target="_top" xlink:title=" ">
<polygon fill="none" stroke="black" points="1644.5,-6 1644.5,-36 1783.5,-36 1783.5,-6 1644.5,-6"/>
<text text-anchor="start" x="1652.5" y="-24" font-family="Helvetica,sans-Serif" font-size="10.00">src/_Tests/Trees/MLCL</text>
<text text-anchor="middle" x="1714" y="-13" font-family="Helvetica,sans-Serif" font-size="10.00">_BinarySearchTree_test.c</text>
</a>
</g>
</g>
<!-- Node1&#45;&gt;Node13 -->
<g id="edge12" class="edge">
<title>Node1&#45;&gt;Node13</title>
<path fill="none" stroke="midnightblue" d="M1178.33,-89.33C1278.05,-83.83 1472.25,-70.29 1635,-42 1644.2,-40.4 1653.91,-38.3 1663.25,-36.05"/>
<polygon fill="midnightblue" stroke="midnightblue" points="1177.9,-85.84 1168.1,-89.88 1178.28,-92.83 1177.9,-85.84"/>
</g>
<!-- Node14 -->
<g id="node14" class="node">
<title>Node14</title>
<g id="a_node14"><a xlink:href="_m_l_c_l__basic__types_8c.html" target="_top" xlink:title=" ">
<polygon fill="none" stroke="black" points="1801.5,-11.5 1801.5,-30.5 1932.5,-30.5 1932.5,-11.5 1801.5,-11.5"/>
<text text-anchor="middle" x="1867" y="-18.5" font-family="Helvetica,sans-Serif" font-size="10.00">src/MLCL_basic_types.c</text>
</a>
</g>
</g>
<!-- Node1&#45;&gt;Node14 -->
<g id="edge13" class="edge">
<title>Node1&#45;&gt;Node14</title>
<path fill="none" stroke="midnightblue" d="M1178.37,-91.75C1300.75,-89.44 1569.86,-80.07 1793,-42 1808.87,-39.29 1826.27,-34.68 1840.21,-30.56"/>
<polygon fill="midnightblue" stroke="midnightblue" points="1177.98,-88.26 1168.05,-91.93 1178.11,-95.25 1177.98,-88.26"/>
</g>
<!-- Node15 -->
<g id="node15" class="node">
<title>Node15</title>
<g id="a_node15"><a xlink:href="_m_l_c_l___b_k_tree_8c.html" target="_top" xlink:title=" ">
<polygon fill="none" stroke="black" points="1950.5,-11.5 1950.5,-30.5 2085.5,-30.5 2085.5,-11.5 1950.5,-11.5"/>
<text text-anchor="middle" x="2018" y="-18.5" font-family="Helvetica,sans-Serif" font-size="10.00">src/Trees/MLCL_BKTree.c</text>
</a>
</g>
</g>
<!-- Node1&#45;&gt;Node15 -->
<g id="edge14" class="edge">
<title>Node1&#45;&gt;Node15</title>
<path fill="none" stroke="midnightblue" d="M1178.52,-92.87C1319.98,-92.68 1660.75,-87.11 1942,-42 1958.44,-39.36 1976.47,-34.7 1990.84,-30.54"/>
<polygon fill="midnightblue" stroke="midnightblue" points="1178.28,-89.37 1168.28,-92.87 1178.28,-96.37 1178.28,-89.37"/>
</g>
<!-- Node16 -->
<g id="node16" class="node">
<title>Node16</title>
<g id="a_node16"><a xlink:href="_m_l_c_l___ternary_search_tree_8c.html" target="_top" xlink:title=" ">
<polygon fill="none" stroke="black" points="2103.5,-6 2103.5,-36 2266.5,-36 2266.5,-6 2103.5,-6"/>
<text text-anchor="start" x="2111.5" y="-24" font-family="Helvetica,sans-Serif" font-size="10.00">src/Trees/MLCL_TernarySearch</text>
<text text-anchor="middle" x="2185" y="-13" font-family="Helvetica,sans-Serif" font-size="10.00">Tree.c</text>
</a>
</g>
</g>
<!-- Node1&#45;&gt;Node16 -->
<g id="edge15" class="edge">
<title>Node1&#45;&gt;Node16</title>
<path fill="none" stroke="midnightblue" d="M1178.09,-92.91C1336.9,-93.06 1752.22,-88.56 2095,-42 2105.94,-40.51 2117.53,-38.38 2128.61,-36.04"/>
<polygon fill="midnightblue" stroke="midnightblue" points="1178.01,-89.41 1168,-92.89 1178,-96.41 1178.01,-89.41"/>
</g>
</g>
</svg>
