<?xml version="1.0" encoding="UTF-8" standalone="no"?>
<!DOCTYPE svg PUBLIC "-//W3C//DTD SVG 1.1//EN"
 "http://www.w3.org/Graphics/SVG/1.1/DTD/svg11.dtd">
<!-- Generated by graphviz version 2.43.0 (0)
 -->
<!-- Title: src/MLCL_basic_types.c Pages: 1 -->
<svg width="299pt" height="207pt"
 viewBox="0.00 0.00 298.70 207.00" xmlns="http://www.w3.org/2000/svg" xmlns:xlink="http://www.w3.org/1999/xlink">
<g id="graph0" class="graph" transform="scale(1 1) rotate(0) translate(4 203)">
<title>src/MLCL_basic_types.c</title>
<!-- Node1 -->
<g id="node1" class="node">
<title>Node1</title>
<g id="a_node1"><a xlink:title=" ">
<polygon fill="#bfbfbf" stroke="black" points="96.2,-179.5 96.2,-198.5 227.2,-198.5 227.2,-179.5 96.2,-179.5"/>
<text text-anchor="middle" x="161.7" y="-186.5" font-family="Helvetica,sans-Serif" font-size="10.00">src/MLCL_basic_types.c</text>
</a>
</g>
</g>
<!-- Node2 -->
<g id="node2" class="node">
<title>Node2</title>
<g id="a_node2"><a xlink:href="_m_l_c_l__basic__types_8h.html" target="_top" xlink:title=" ">
<polygon fill="none" stroke="black" points="57.2,-112.5 57.2,-142.5 178.2,-142.5 178.2,-112.5 57.2,-112.5"/>
<text text-anchor="start" x="65.2" y="-130.5" font-family="Helvetica,sans-Serif" font-size="10.00">../include/MLCL_basic</text>
<text text-anchor="middle" x="117.7" y="-119.5" font-family="Helvetica,sans-Serif" font-size="10.00">_types.h</text>
</a>
</g>
</g>
<!-- Node1&#45;&gt;Node2 -->
<g id="edge1" class="edge">
<title>Node1&#45;&gt;Node2</title>
<path fill="none" stroke="midnightblue" d="M155.4,-179.48C149.83,-171.94 141.46,-160.63 134.02,-150.57"/>
<polygon fill="midnightblue" stroke="midnightblue" points="136.83,-148.48 128.07,-142.52 131.2,-152.64 136.83,-148.48"/>
</g>
<!-- Node4 -->
<g id="node4" class="node">
<title>Node4</title>
<g id="a_node4"><a xlink:title=" ">
<polygon fill="none" stroke="#bfbfbf" points="3.2,-0.5 3.2,-19.5 56.2,-19.5 56.2,-0.5 3.2,-0.5"/>
<text text-anchor="middle" x="29.7" y="-7.5" font-family="Helvetica,sans-Serif" font-size="10.00">stdlib.h</text>
</a>
</g>
</g>
<!-- Node1&#45;&gt;Node4 -->
<g id="edge8" class="edge">
<title>Node1&#45;&gt;Node4</title>
<path fill="none" stroke="midnightblue" d="M124.96,-179.49C101.1,-172.6 70.34,-161.03 47.7,-143 19.45,-120.5 12.41,-110.5 1.7,-76 -3.56,-59.03 6.06,-40.49 15.42,-27.57"/>
<polygon fill="midnightblue" stroke="midnightblue" points="18.25,-29.63 21.68,-19.61 12.75,-25.3 18.25,-29.63"/>
</g>
<!-- Node5 -->
<g id="node5" class="node">
<title>Node5</title>
<g id="a_node5"><a xlink:title=" ">
<polygon fill="none" stroke="#bfbfbf" points="143.7,-0.5 143.7,-19.5 193.7,-19.5 193.7,-0.5 143.7,-0.5"/>
<text text-anchor="middle" x="168.7" y="-7.5" font-family="Helvetica,sans-Serif" font-size="10.00">stdio.h</text>
</a>
</g>
</g>
<!-- Node1&#45;&gt;Node5 -->
<g id="edge7" class="edge">
<title>Node1&#45;&gt;Node5</title>
<path fill="none" stroke="midnightblue" d="M168.33,-179.27C174.47,-170.61 183.16,-156.67 186.7,-143 197.01,-103.23 184.35,-55.1 175.63,-29.36"/>
<polygon fill="midnightblue" stroke="midnightblue" points="178.87,-28.03 172.21,-19.79 172.28,-30.38 178.87,-28.03"/>
</g>
<!-- Node6 -->
<g id="node6" class="node">
<title>Node6</title>
<g id="a_node6"><a xlink:title=" ">
<polygon fill="none" stroke="#bfbfbf" points="234.7,-118 234.7,-137 290.7,-137 290.7,-118 234.7,-118"/>
<text text-anchor="middle" x="262.7" y="-125" font-family="Helvetica,sans-Serif" font-size="10.00">assert.h</text>
</a>
</g>
</g>
<!-- Node1&#45;&gt;Node6 -->
<g id="edge6" class="edge">
<title>Node1&#45;&gt;Node6</title>
<path fill="none" stroke="midnightblue" d="M176.17,-179.48C192.67,-169.75 219.88,-153.73 239.38,-142.24"/>
<polygon fill="midnightblue" stroke="midnightblue" points="241.42,-145.1 248.26,-137.01 237.87,-139.07 241.42,-145.1"/>
</g>
<!-- Node3 -->
<g id="node3" class="node">
<title>Node3</title>
<g id="a_node3"><a xlink:href="_m_l_c_l___type_descriptor_8h.html" target="_top" xlink:title=" ">
<polygon fill="none" stroke="black" points="11.2,-56.5 11.2,-75.5 140.2,-75.5 140.2,-56.5 11.2,-56.5"/>
<text text-anchor="middle" x="75.7" y="-63.5" font-family="Helvetica,sans-Serif" font-size="10.00">MLCL_TypeDescriptor.h</text>
</a>
</g>
</g>
<!-- Node2&#45;&gt;Node3 -->
<g id="edge2" class="edge">
<title>Node2&#45;&gt;Node3</title>
<path fill="none" stroke="midnightblue" d="M107.75,-112.4C101.71,-103.84 93.96,-92.87 87.6,-83.86"/>
<polygon fill="midnightblue" stroke="midnightblue" points="90.44,-81.81 81.81,-75.66 84.72,-85.85 90.44,-81.81"/>
</g>
<!-- Node2&#45;&gt;Node5 -->
<g id="edge5" class="edge">
<title>Node2&#45;&gt;Node5</title>
<path fill="none" stroke="midnightblue" d="M127.66,-112.45C134.3,-102.6 142.85,-88.94 148.7,-76 155.54,-60.87 160.9,-42.75 164.34,-29.49"/>
<polygon fill="midnightblue" stroke="midnightblue" points="167.77,-30.21 166.78,-19.66 160.98,-28.53 167.77,-30.21"/>
</g>
<!-- Node3&#45;&gt;Node4 -->
<g id="edge3" class="edge">
<title>Node3&#45;&gt;Node4</title>
<path fill="none" stroke="midnightblue" d="M68.11,-56.08C61.47,-48.3 51.68,-36.8 43.64,-27.37"/>
<polygon fill="midnightblue" stroke="midnightblue" points="46.31,-25.09 37.16,-19.75 40.98,-29.63 46.31,-25.09"/>
</g>
<!-- Node3&#45;&gt;Node5 -->
<g id="edge4" class="edge">
<title>Node3&#45;&gt;Node5</title>
<path fill="none" stroke="midnightblue" d="M90.64,-56.32C105.29,-47.82 127.84,-34.73 144.94,-24.8"/>
<polygon fill="midnightblue" stroke="midnightblue" points="146.91,-27.7 153.8,-19.65 143.39,-21.65 146.91,-27.7"/>
</g>
</g>
</svg>
