<?xml version="1.0" encoding="UTF-8" standalone="no"?>
<!DOCTYPE svg PUBLIC "-//W3C//DTD SVG 1.1//EN"
 "http://www.w3.org/Graphics/SVG/1.1/DTD/svg11.dtd">
<!-- Generated by graphviz version 2.43.0 (0)
 -->
<!-- Title: include/Tree/MLCL_AVLTree.h Pages: 1 -->
<svg width="171pt" height="196pt"
 viewBox="0.00 0.00 170.69 196.00" xmlns="http://www.w3.org/2000/svg" xmlns:xlink="http://www.w3.org/1999/xlink">
<g id="graph0" class="graph" transform="scale(1 1) rotate(0) translate(4 192)">
<title>include/Tree/MLCL_AVLTree.h</title>
<!-- Node1 -->
<g id="node1" class="node">
<title>Node1</title>
<g id="a_node1"><a xlink:title=" ">
<polygon fill="#bfbfbf" stroke="black" points="3.34,-168.5 3.34,-187.5 159.34,-187.5 159.34,-168.5 3.34,-168.5"/>
<text text-anchor="middle" x="81.34" y="-175.5" font-family="Helvetica,sans-Serif" font-size="10.00">include/Tree/MLCL_AVLTree.h</text>
</a>
</g>
</g>
<!-- Node2 -->
<g id="node2" class="node">
<title>Node2</title>
<g id="a_node2"><a xlink:href="_m_l_c_l___binary_search_tree_8h.html" target="_top" xlink:title=" ">
<polygon fill="none" stroke="black" points="10.34,-112.5 10.34,-131.5 152.34,-131.5 152.34,-112.5 10.34,-112.5"/>
<text text-anchor="middle" x="81.34" y="-119.5" font-family="Helvetica,sans-Serif" font-size="10.00">MLCL_BinarySearchTree.h</text>
</a>
</g>
</g>
<!-- Node1&#45;&gt;Node2 -->
<g id="edge1" class="edge">
<title>Node1&#45;&gt;Node2</title>
<path fill="none" stroke="midnightblue" d="M81.34,-168.08C81.34,-161.01 81.34,-150.86 81.34,-141.99"/>
<polygon fill="midnightblue" stroke="midnightblue" points="84.84,-141.75 81.34,-131.75 77.84,-141.75 84.84,-141.75"/>
</g>
<!-- Node3 -->
<g id="node3" class="node">
<title>Node3</title>
<g id="a_node3"><a xlink:href="_m_l_c_l___type_descriptor_8h.html" target="_top" xlink:title=" ">
<polygon fill="none" stroke="black" points="12.34,-56.5 12.34,-75.5 150.34,-75.5 150.34,-56.5 12.34,-56.5"/>
<text text-anchor="middle" x="81.34" y="-63.5" font-family="Helvetica,sans-Serif" font-size="10.00">../MLCL_TypeDescriptor.h</text>
</a>
</g>
</g>
<!-- Node2&#45;&gt;Node3 -->
<g id="edge2" class="edge">
<title>Node2&#45;&gt;Node3</title>
<path fill="none" stroke="midnightblue" d="M81.34,-112.08C81.34,-105.01 81.34,-94.86 81.34,-85.99"/>
<polygon fill="midnightblue" stroke="midnightblue" points="84.84,-85.75 81.34,-75.75 77.84,-85.75 84.84,-85.75"/>
</g>
<!-- Node4 -->
<g id="node4" class="node">
<title>Node4</title>
<g id="a_node4"><a xlink:title=" ">
<polygon fill="none" stroke="#bfbfbf" points="12.84,-0.5 12.84,-19.5 65.84,-19.5 65.84,-0.5 12.84,-0.5"/>
<text text-anchor="middle" x="39.34" y="-7.5" font-family="Helvetica,sans-Serif" font-size="10.00">stdlib.h</text>
</a>
</g>
</g>
<!-- Node2&#45;&gt;Node4 -->
<g id="edge5" class="edge">
<title>Node2&#45;&gt;Node4</title>
<path fill="none" stroke="midnightblue" d="M52.22,-112.44C34.7,-105.62 13.82,-94.14 3.34,-76 -6.26,-59.38 7.46,-40.12 20.64,-26.9"/>
<polygon fill="midnightblue" stroke="midnightblue" points="23.23,-29.27 28.15,-19.89 18.46,-24.15 23.23,-29.27"/>
</g>
<!-- Node5 -->
<g id="node5" class="node">
<title>Node5</title>
<g id="a_node5"><a xlink:title=" ">
<polygon fill="none" stroke="#bfbfbf" points="97.34,-0.5 97.34,-19.5 147.34,-19.5 147.34,-0.5 97.34,-0.5"/>
<text text-anchor="middle" x="122.34" y="-7.5" font-family="Helvetica,sans-Serif" font-size="10.00">stdio.h</text>
</a>
</g>
</g>
<!-- Node2&#45;&gt;Node5 -->
<g id="edge6" class="edge">
<title>Node2&#45;&gt;Node5</title>
<path fill="none" stroke="midnightblue" d="M110.46,-112.44C127.99,-105.62 148.86,-94.14 159.34,-76 169.01,-59.27 154.94,-40.03 141.46,-26.85"/>
<polygon fill="midnightblue" stroke="midnightblue" points="143.52,-24 133.77,-19.85 138.81,-29.17 143.52,-24"/>
</g>
<!-- Node3&#45;&gt;Node4 -->
<g id="edge3" class="edge">
<title>Node3&#45;&gt;Node4</title>
<path fill="none" stroke="midnightblue" d="M74.41,-56.08C68.41,-48.38 59.59,-37.03 52.29,-27.65"/>
<polygon fill="midnightblue" stroke="midnightblue" points="55.05,-25.5 46.15,-19.75 49.53,-29.79 55.05,-25.5"/>
</g>
<!-- Node3&#45;&gt;Node5 -->
<g id="edge4" class="edge">
<title>Node3&#45;&gt;Node5</title>
<path fill="none" stroke="midnightblue" d="M88.11,-56.08C93.9,-48.46 102.4,-37.26 109.48,-27.94"/>
<polygon fill="midnightblue" stroke="midnightblue" points="112.44,-29.83 115.7,-19.75 106.86,-25.6 112.44,-29.83"/>
</g>
</g>
</svg>
