<?xml version="1.0" encoding="UTF-8" standalone="no"?>
<!DOCTYPE svg PUBLIC "-//W3C//DTD SVG 1.1//EN"
 "http://www.w3.org/Graphics/SVG/1.1/DTD/svg11.dtd">
<!-- Generated by graphviz version 2.43.0 (0)
 -->
<!-- Title: /home/antoine/Documents/Developpement/C/MyLittleCLibrary/include/MLCL_CircularDoubleLinkedList.h Pages: 1 -->
<svg width="681pt" height="206pt"
 viewBox="0.00 0.00 681.00 206.00" xmlns="http://www.w3.org/2000/svg" xmlns:xlink="http://www.w3.org/1999/xlink">
<g id="graph0" class="graph" transform="scale(1 1) rotate(0) translate(4 202)">
<title>/home/antoine/Documents/Developpement/C/MyLittleCLibrary/include/MLCL_CircularDoubleLinkedList.h</title>
<!-- Node1 -->
<g id="node1" class="node">
<title>Node1</title>
<g id="a_node1"><a xlink:title=" ">
<polygon fill="#bfbfbf" stroke="black" points="230,-156.5 230,-197.5 449,-197.5 449,-156.5 230,-156.5"/>
<text text-anchor="start" x="238" y="-185.5" font-family="Helvetica,sans-Serif" font-size="10.00">/home/antoine/Documents</text>
<text text-anchor="start" x="238" y="-174.5" font-family="Helvetica,sans-Serif" font-size="10.00">/Developpement/C/MyLittleCLibrary</text>
<text text-anchor="middle" x="339.5" y="-163.5" font-family="Helvetica,sans-Serif" font-size="10.00">/include/MLCL_CircularDoubleLinkedList.h</text>
</a>
</g>
</g>
<!-- Node2 -->
<g id="node2" class="node">
<title>Node2</title>
<g id="a_node2"><a xlink:href="_m_l_c_l___circular_double_linked_list_8c.html" target="_top" xlink:title=" ">
<polygon fill="none" stroke="black" points="0,-78.5 0,-119.5 197,-119.5 197,-78.5 0,-78.5"/>
<text text-anchor="start" x="8" y="-107.5" font-family="Helvetica,sans-Serif" font-size="10.00">/home/antoine/Documents</text>
<text text-anchor="start" x="8" y="-96.5" font-family="Helvetica,sans-Serif" font-size="10.00">/Developpement/C/MyLittleCLibrary</text>
<text text-anchor="middle" x="98.5" y="-85.5" font-family="Helvetica,sans-Serif" font-size="10.00">/src/MLCL_CircularDoubleLinkedList.c</text>
</a>
</g>
</g>
<!-- Node1&#45;&gt;Node2 -->
<g id="edge1" class="edge">
<title>Node1&#45;&gt;Node2</title>
<path fill="none" stroke="midnightblue" d="M267.53,-153.3C233.41,-142.55 193.07,-129.82 160.35,-119.51"/>
<polygon fill="midnightblue" stroke="midnightblue" points="266.85,-156.76 277.44,-156.43 268.95,-150.08 266.85,-156.76"/>
</g>
<!-- Node3 -->
<g id="node3" class="node">
<title>Node3</title>
<g id="a_node3"><a xlink:href="_m_l_c_l___circular_double_linked_list__test_8c.html" target="_top" xlink:title=" ">
<polygon fill="none" stroke="black" points="215,-78.5 215,-119.5 464,-119.5 464,-78.5 215,-78.5"/>
<text text-anchor="start" x="223" y="-107.5" font-family="Helvetica,sans-Serif" font-size="10.00">/home/antoine/Documents</text>
<text text-anchor="start" x="223" y="-96.5" font-family="Helvetica,sans-Serif" font-size="10.00">/Developpement/C/MyLittleCLibrary</text>
<text text-anchor="middle" x="339.5" y="-85.5" font-family="Helvetica,sans-Serif" font-size="10.00">/src/Tests/MLCL_CircularDoubleLinkedList_test.c</text>
</a>
</g>
</g>
<!-- Node1&#45;&gt;Node3 -->
<g id="edge2" class="edge">
<title>Node1&#45;&gt;Node3</title>
<path fill="none" stroke="midnightblue" d="M339.5,-146.3C339.5,-137.3 339.5,-127.65 339.5,-119.51"/>
<polygon fill="midnightblue" stroke="midnightblue" points="336,-146.43 339.5,-156.43 343,-146.43 336,-146.43"/>
</g>
<!-- Node4 -->
<g id="node4" class="node">
<title>Node4</title>
<g id="a_node4"><a xlink:href="_m_l_c_l_8h.html" target="_top" xlink:title=" ">
<polygon fill="none" stroke="black" points="482,-78.5 482,-119.5 673,-119.5 673,-78.5 482,-78.5"/>
<text text-anchor="start" x="490" y="-107.5" font-family="Helvetica,sans-Serif" font-size="10.00">/home/antoine/Documents</text>
<text text-anchor="start" x="490" y="-96.5" font-family="Helvetica,sans-Serif" font-size="10.00">/Developpement/C/MyLittleCLibrary</text>
<text text-anchor="middle" x="577.5" y="-85.5" font-family="Helvetica,sans-Serif" font-size="10.00">/MLCL.h</text>
</a>
</g>
</g>
<!-- Node1&#45;&gt;Node4 -->
<g id="edge3" class="edge">
<title>Node1&#45;&gt;Node4</title>
<path fill="none" stroke="midnightblue" d="M410.57,-153.3C444.26,-142.55 484.11,-129.82 516.42,-119.51"/>
<polygon fill="midnightblue" stroke="midnightblue" points="409.25,-150.05 400.79,-156.43 411.38,-156.72 409.25,-150.05"/>
</g>
<!-- Node5 -->
<g id="node5" class="node">
<title>Node5</title>
<g id="a_node5"><a xlink:href="test_8c.html" target="_top" xlink:title=" ">
<polygon fill="none" stroke="black" points="482,-0.5 482,-41.5 673,-41.5 673,-0.5 482,-0.5"/>
<text text-anchor="start" x="490" y="-29.5" font-family="Helvetica,sans-Serif" font-size="10.00">/home/antoine/Documents</text>
<text text-anchor="start" x="490" y="-18.5" font-family="Helvetica,sans-Serif" font-size="10.00">/Developpement/C/MyLittleCLibrary</text>
<text text-anchor="middle" x="577.5" y="-7.5" font-family="Helvetica,sans-Serif" font-size="10.00">/test.c</text>
</a>
</g>
</g>
<!-- Node4&#45;&gt;Node5 -->
<g id="edge4" class="edge">
<title>Node4&#45;&gt;Node5</title>
<path fill="none" stroke="midnightblue" d="M577.5,-68.3C577.5,-59.3 577.5,-49.65 577.5,-41.51"/>
<polygon fill="midnightblue" stroke="midnightblue" points="574,-68.43 577.5,-78.43 581,-68.43 574,-68.43"/>
</g>
</g>
</svg>
