<?xml version="1.0" encoding="UTF-8" standalone="no"?>
<!DOCTYPE svg PUBLIC "-//W3C//DTD SVG 1.1//EN"
 "http://www.w3.org/Graphics/SVG/1.1/DTD/svg11.dtd">
<!-- Generated by graphviz version 2.43.0 (0)
 -->
<!-- Title: src/Lists/MLCL_CircularDoubleLinkedList.c Pages: 1 -->
<svg width="257pt" height="285pt"
 viewBox="0.00 0.00 256.50 285.00" xmlns="http://www.w3.org/2000/svg" xmlns:xlink="http://www.w3.org/1999/xlink">
<g id="graph0" class="graph" transform="scale(1 1) rotate(0) translate(4 281)">
<title>src/Lists/MLCL_CircularDoubleLinkedList.c</title>
<!-- Node1 -->
<g id="node1" class="node">
<title>Node1</title>
<g id="a_node1"><a xlink:title=" ">
<polygon fill="#bfbfbf" stroke="black" points="49,-246.5 49,-276.5 212,-276.5 212,-246.5 49,-246.5"/>
<text text-anchor="start" x="57" y="-264.5" font-family="Helvetica,sans-Serif" font-size="10.00">src/Lists/MLCL_CircularDouble</text>
<text text-anchor="middle" x="130.5" y="-253.5" font-family="Helvetica,sans-Serif" font-size="10.00">LinkedList.c</text>
</a>
</g>
</g>
<!-- Node2 -->
<g id="node2" class="node">
<title>Node2</title>
<g id="a_node2"><a xlink:href="_m_l_c_l___circular_double_linked_list_8h.html" target="_top" xlink:title=" ">
<polygon fill="none" stroke="black" points="0,-168.5 0,-209.5 155,-209.5 155,-168.5 0,-168.5"/>
<text text-anchor="start" x="8" y="-197.5" font-family="Helvetica,sans-Serif" font-size="10.00">../../include/Lists</text>
<text text-anchor="start" x="8" y="-186.5" font-family="Helvetica,sans-Serif" font-size="10.00">/MLCL_CircularDoubleLinked</text>
<text text-anchor="middle" x="77.5" y="-175.5" font-family="Helvetica,sans-Serif" font-size="10.00">List.h</text>
</a>
</g>
</g>
<!-- Node1&#45;&gt;Node2 -->
<g id="edge1" class="edge">
<title>Node1&#45;&gt;Node2</title>
<path fill="none" stroke="midnightblue" d="M119.77,-246.23C113.65,-238.08 105.75,-227.57 98.44,-217.85"/>
<polygon fill="midnightblue" stroke="midnightblue" points="101.03,-215.48 92.23,-209.59 95.44,-219.68 101.03,-215.48"/>
</g>
<!-- Node3 -->
<g id="node3" class="node">
<title>Node3</title>
<g id="a_node3"><a xlink:href="_m_l_c_l___double_linked_list_8h.html" target="_top" xlink:title=" ">
<polygon fill="none" stroke="black" points="60.5,-112.5 60.5,-131.5 200.5,-131.5 200.5,-112.5 60.5,-112.5"/>
<text text-anchor="middle" x="130.5" y="-119.5" font-family="Helvetica,sans-Serif" font-size="10.00">MLCL_DoubleLinkedList.h</text>
</a>
</g>
</g>
<!-- Node1&#45;&gt;Node3 -->
<g id="edge7" class="edge">
<title>Node1&#45;&gt;Node3</title>
<path fill="none" stroke="midnightblue" d="M143.11,-246.19C150.64,-236.66 159.49,-223.45 163.5,-210 168.83,-192.11 169.31,-185.74 163.5,-168 160.01,-157.34 152.93,-147.12 146.21,-139.12"/>
<polygon fill="midnightblue" stroke="midnightblue" points="148.8,-136.76 139.52,-131.66 143.6,-141.44 148.8,-136.76"/>
</g>
<!-- Node2&#45;&gt;Node3 -->
<g id="edge2" class="edge">
<title>Node2&#45;&gt;Node3</title>
<path fill="none" stroke="midnightblue" d="M93.4,-168.5C100.9,-159.3 109.76,-148.44 116.94,-139.63"/>
<polygon fill="midnightblue" stroke="midnightblue" points="119.84,-141.61 123.44,-131.65 114.41,-137.19 119.84,-141.61"/>
</g>
<!-- Node4 -->
<g id="node4" class="node">
<title>Node4</title>
<g id="a_node4"><a xlink:title=" ">
<polygon fill="none" stroke="#bfbfbf" points="70,-0.5 70,-19.5 123,-19.5 123,-0.5 70,-0.5"/>
<text text-anchor="middle" x="96.5" y="-7.5" font-family="Helvetica,sans-Serif" font-size="10.00">stdlib.h</text>
</a>
</g>
</g>
<!-- Node3&#45;&gt;Node4 -->
<g id="edge3" class="edge">
<title>Node3&#45;&gt;Node4</title>
<path fill="none" stroke="midnightblue" d="M123.06,-112.38C116.13,-103.8 106.18,-89.92 101.5,-76 96.47,-61.07 95.44,-43.15 95.53,-29.92"/>
<polygon fill="midnightblue" stroke="midnightblue" points="99.04,-29.78 95.84,-19.68 92.04,-29.57 99.04,-29.78"/>
</g>
<!-- Node5 -->
<g id="node5" class="node">
<title>Node5</title>
<g id="a_node5"><a xlink:href="_m_l_c_l___type_descriptor_8h.html" target="_top" xlink:title=" ">
<polygon fill="none" stroke="black" points="110.5,-56.5 110.5,-75.5 248.5,-75.5 248.5,-56.5 110.5,-56.5"/>
<text text-anchor="middle" x="179.5" y="-63.5" font-family="Helvetica,sans-Serif" font-size="10.00">../MLCL_TypeDescriptor.h</text>
</a>
</g>
</g>
<!-- Node3&#45;&gt;Node5 -->
<g id="edge4" class="edge">
<title>Node3&#45;&gt;Node5</title>
<path fill="none" stroke="midnightblue" d="M138.59,-112.08C145.66,-104.3 156.09,-92.8 164.65,-83.37"/>
<polygon fill="midnightblue" stroke="midnightblue" points="167.43,-85.51 171.56,-75.75 162.25,-80.8 167.43,-85.51"/>
</g>
<!-- Node5&#45;&gt;Node4 -->
<g id="edge5" class="edge">
<title>Node5&#45;&gt;Node4</title>
<path fill="none" stroke="midnightblue" d="M166.16,-56.32C153.34,-47.98 133.72,-35.21 118.56,-25.35"/>
<polygon fill="midnightblue" stroke="midnightblue" points="120.09,-22.17 109.8,-19.65 116.28,-28.04 120.09,-22.17"/>
</g>
<!-- Node6 -->
<g id="node6" class="node">
<title>Node6</title>
<g id="a_node6"><a xlink:title=" ">
<polygon fill="none" stroke="#bfbfbf" points="154.5,-0.5 154.5,-19.5 204.5,-19.5 204.5,-0.5 154.5,-0.5"/>
<text text-anchor="middle" x="179.5" y="-7.5" font-family="Helvetica,sans-Serif" font-size="10.00">stdio.h</text>
</a>
</g>
</g>
<!-- Node5&#45;&gt;Node6 -->
<g id="edge6" class="edge">
<title>Node5&#45;&gt;Node6</title>
<path fill="none" stroke="midnightblue" d="M179.5,-56.08C179.5,-49.01 179.5,-38.86 179.5,-29.99"/>
<polygon fill="midnightblue" stroke="midnightblue" points="183,-29.75 179.5,-19.75 176,-29.75 183,-29.75"/>
</g>
</g>
</svg>
