<?xml version="1.0" encoding="UTF-8" standalone="no"?>
<!DOCTYPE svg PUBLIC "-//W3C//DTD SVG 1.1//EN"
 "http://www.w3.org/Graphics/SVG/1.1/DTD/svg11.dtd">
<!-- Generated by graphviz version 2.43.0 (0)
 -->
<!-- Title: src/Trees/MLCL_BKTree.c Pages: 1 -->
<svg width="341pt" height="207pt"
 viewBox="0.00 0.00 340.50 207.00" xmlns="http://www.w3.org/2000/svg" xmlns:xlink="http://www.w3.org/1999/xlink">
<g id="graph0" class="graph" transform="scale(1 1) rotate(0) translate(4 203)">
<title>src/Trees/MLCL_BKTree.c</title>
<!-- Node1 -->
<g id="node1" class="node">
<title>Node1</title>
<g id="a_node1"><a xlink:title=" ">
<polygon fill="#bfbfbf" stroke="black" points="98.5,-179.5 98.5,-198.5 233.5,-198.5 233.5,-179.5 98.5,-179.5"/>
<text text-anchor="middle" x="166" y="-186.5" font-family="Helvetica,sans-Serif" font-size="10.00">src/Trees/MLCL_BKTree.c</text>
</a>
</g>
</g>
<!-- Node2 -->
<g id="node2" class="node">
<title>Node2</title>
<g id="a_node2"><a xlink:href="_m_l_c_l___b_k_tree_8h.html" target="_top" xlink:title=" ">
<polygon fill="none" stroke="black" points="0,-112.5 0,-142.5 98,-142.5 98,-112.5 0,-112.5"/>
<text text-anchor="start" x="8" y="-130.5" font-family="Helvetica,sans-Serif" font-size="10.00">../../include/Trees</text>
<text text-anchor="middle" x="49" y="-119.5" font-family="Helvetica,sans-Serif" font-size="10.00">/MLCL_BKTree.h</text>
</a>
</g>
</g>
<!-- Node1&#45;&gt;Node2 -->
<g id="edge1" class="edge">
<title>Node1&#45;&gt;Node2</title>
<path fill="none" stroke="midnightblue" d="M149.24,-179.48C132.72,-171.08 106.95,-157.97 85.68,-147.15"/>
<polygon fill="midnightblue" stroke="midnightblue" points="87.07,-143.94 76.57,-142.52 83.9,-150.18 87.07,-143.94"/>
</g>
<!-- Node6 -->
<g id="node6" class="node">
<title>Node6</title>
<g id="a_node6"><a xlink:href="_m_l_c_l__basic__types_8h.html" target="_top" xlink:title=" ">
<polygon fill="none" stroke="black" points="116.5,-112.5 116.5,-142.5 215.5,-142.5 215.5,-112.5 116.5,-112.5"/>
<text text-anchor="start" x="124.5" y="-130.5" font-family="Helvetica,sans-Serif" font-size="10.00">../../include/MLCL</text>
<text text-anchor="middle" x="166" y="-119.5" font-family="Helvetica,sans-Serif" font-size="10.00">_basic_types.h</text>
</a>
</g>
</g>
<!-- Node1&#45;&gt;Node6 -->
<g id="edge5" class="edge">
<title>Node1&#45;&gt;Node6</title>
<path fill="none" stroke="midnightblue" d="M166,-179.48C166,-172.47 166,-162.19 166,-152.7"/>
<polygon fill="midnightblue" stroke="midnightblue" points="169.5,-152.52 166,-142.52 162.5,-152.52 169.5,-152.52"/>
</g>
<!-- Node7 -->
<g id="node7" class="node">
<title>Node7</title>
<g id="a_node7"><a xlink:href="_m_l_c_l__utils_8h.html" target="_top" xlink:title=" ">
<polygon fill="none" stroke="black" points="233.5,-112.5 233.5,-142.5 332.5,-142.5 332.5,-112.5 233.5,-112.5"/>
<text text-anchor="start" x="241.5" y="-130.5" font-family="Helvetica,sans-Serif" font-size="10.00">../../include/MLCL</text>
<text text-anchor="middle" x="283" y="-119.5" font-family="Helvetica,sans-Serif" font-size="10.00">_utils.h</text>
</a>
</g>
</g>
<!-- Node1&#45;&gt;Node7 -->
<g id="edge8" class="edge">
<title>Node1&#45;&gt;Node7</title>
<path fill="none" stroke="midnightblue" d="M182.76,-179.48C199.28,-171.08 225.05,-157.97 246.32,-147.15"/>
<polygon fill="midnightblue" stroke="midnightblue" points="248.1,-150.18 255.43,-142.52 244.93,-143.94 248.1,-150.18"/>
</g>
<!-- Node3 -->
<g id="node3" class="node">
<title>Node3</title>
<g id="a_node3"><a xlink:href="_m_l_c_l___type_descriptor_8h.html" target="_top" xlink:title=" ">
<polygon fill="none" stroke="black" points="0,-56.5 0,-75.5 138,-75.5 138,-56.5 0,-56.5"/>
<text text-anchor="middle" x="69" y="-63.5" font-family="Helvetica,sans-Serif" font-size="10.00">../MLCL_TypeDescriptor.h</text>
</a>
</g>
</g>
<!-- Node2&#45;&gt;Node3 -->
<g id="edge2" class="edge">
<title>Node2&#45;&gt;Node3</title>
<path fill="none" stroke="midnightblue" d="M53.74,-112.4C56.47,-104.29 59.92,-94.01 62.86,-85.28"/>
<polygon fill="midnightblue" stroke="midnightblue" points="66.22,-86.25 66.09,-75.66 59.59,-84.02 66.22,-86.25"/>
</g>
<!-- Node4 -->
<g id="node4" class="node">
<title>Node4</title>
<g id="a_node4"><a xlink:title=" ">
<polygon fill="none" stroke="#bfbfbf" points="42.5,-0.5 42.5,-19.5 95.5,-19.5 95.5,-0.5 42.5,-0.5"/>
<text text-anchor="middle" x="69" y="-7.5" font-family="Helvetica,sans-Serif" font-size="10.00">stdlib.h</text>
</a>
</g>
</g>
<!-- Node3&#45;&gt;Node4 -->
<g id="edge3" class="edge">
<title>Node3&#45;&gt;Node4</title>
<path fill="none" stroke="midnightblue" d="M69,-56.08C69,-49.01 69,-38.86 69,-29.99"/>
<polygon fill="midnightblue" stroke="midnightblue" points="72.5,-29.75 69,-19.75 65.5,-29.75 72.5,-29.75"/>
</g>
<!-- Node5 -->
<g id="node5" class="node">
<title>Node5</title>
<g id="a_node5"><a xlink:title=" ">
<polygon fill="none" stroke="#bfbfbf" points="127,-0.5 127,-19.5 177,-19.5 177,-0.5 127,-0.5"/>
<text text-anchor="middle" x="152" y="-7.5" font-family="Helvetica,sans-Serif" font-size="10.00">stdio.h</text>
</a>
</g>
</g>
<!-- Node3&#45;&gt;Node5 -->
<g id="edge4" class="edge">
<title>Node3&#45;&gt;Node5</title>
<path fill="none" stroke="midnightblue" d="M82.34,-56.32C95.16,-47.98 114.78,-35.21 129.94,-25.35"/>
<polygon fill="midnightblue" stroke="midnightblue" points="132.22,-28.04 138.7,-19.65 128.41,-22.17 132.22,-28.04"/>
</g>
<!-- Node6&#45;&gt;Node3 -->
<g id="edge6" class="edge">
<title>Node6&#45;&gt;Node3</title>
<path fill="none" stroke="midnightblue" d="M143.01,-112.4C127.61,-102.95 107.41,-90.56 92,-81.11"/>
<polygon fill="midnightblue" stroke="midnightblue" points="93.47,-77.9 83.11,-75.66 89.81,-83.87 93.47,-77.9"/>
</g>
<!-- Node6&#45;&gt;Node5 -->
<g id="edge7" class="edge">
<title>Node6&#45;&gt;Node5</title>
<path fill="none" stroke="midnightblue" d="M164.28,-112.34C161.77,-91.62 157.09,-53.02 154.29,-29.9"/>
<polygon fill="midnightblue" stroke="midnightblue" points="157.73,-29.18 153.05,-19.67 150.78,-30.02 157.73,-29.18"/>
</g>
</g>
</svg>
