<?xml version="1.0" encoding="UTF-8" standalone="no"?>
<!DOCTYPE svg PUBLIC "-//W3C//DTD SVG 1.1//EN"
 "http://www.w3.org/Graphics/SVG/1.1/DTD/svg11.dtd">
<!-- Generated by graphviz version 2.43.0 (0)
 -->
<!-- Title: include/MLCL_basic_types.h Pages: 1 -->
<svg width="1025pt" height="106pt"
 viewBox="0.00 0.00 1024.50 106.00" xmlns="http://www.w3.org/2000/svg" xmlns:xlink="http://www.w3.org/1999/xlink">
<g id="graph0" class="graph" transform="scale(1 1) rotate(0) translate(4 102)">
<title>include/MLCL_basic_types.h</title>
<!-- Node1 -->
<g id="node1" class="node">
<title>Node1</title>
<g id="a_node1"><a xlink:title=" ">
<polygon fill="#bfbfbf" stroke="black" points="446.5,-67.5 446.5,-97.5 558.5,-97.5 558.5,-67.5 446.5,-67.5"/>
<text text-anchor="start" x="454.5" y="-85.5" font-family="Helvetica,sans-Serif" font-size="10.00">include/MLCL_basic</text>
<text text-anchor="middle" x="502.5" y="-74.5" font-family="Helvetica,sans-Serif" font-size="10.00">_types.h</text>
</a>
</g>
</g>
<!-- Node2 -->
<g id="node2" class="node">
<title>Node2</title>
<g id="a_node2"><a xlink:href="_m_l_c_l__basic__types_8c.html" target="_top" xlink:title=" ">
<polygon fill="none" stroke="black" points="0,-6 0,-25 131,-25 131,-6 0,-6"/>
<text text-anchor="middle" x="65.5" y="-13" font-family="Helvetica,sans-Serif" font-size="10.00">src/MLCL_basic_types.c</text>
</a>
</g>
</g>
<!-- Node1&#45;&gt;Node2 -->
<g id="edge1" class="edge">
<title>Node1&#45;&gt;Node2</title>
<path fill="none" stroke="midnightblue" d="M436.43,-73.42C363.55,-64.25 242.89,-48.31 139.5,-31 128.91,-29.23 117.51,-27.1 106.91,-25.03"/>
<polygon fill="midnightblue" stroke="midnightblue" points="436.03,-76.9 446.39,-74.67 436.9,-69.95 436.03,-76.9"/>
</g>
<!-- Node3 -->
<g id="node3" class="node">
<title>Node3</title>
<g id="a_node3"><a xlink:href="_m_l_c_l___circular_double_linked_list__test_8c.html" target="_top" xlink:title=" ">
<polygon fill="none" stroke="black" points="149,-0.5 149,-30.5 314,-30.5 314,-0.5 149,-0.5"/>
<text text-anchor="start" x="157" y="-18.5" font-family="Helvetica,sans-Serif" font-size="10.00">src/Tests/MLCL_CircularDouble</text>
<text text-anchor="middle" x="231.5" y="-7.5" font-family="Helvetica,sans-Serif" font-size="10.00">LinkedList_test.c</text>
</a>
</g>
</g>
<!-- Node1&#45;&gt;Node3 -->
<g id="edge2" class="edge">
<title>Node1&#45;&gt;Node3</title>
<path fill="none" stroke="midnightblue" d="M436.44,-65.65C391.65,-54.91 333,-40.84 289.92,-30.51"/>
<polygon fill="midnightblue" stroke="midnightblue" points="435.81,-69.1 446.35,-68.03 437.44,-62.3 435.81,-69.1"/>
</g>
<!-- Node4 -->
<g id="node4" class="node">
<title>Node4</title>
<g id="a_node4"><a xlink:href="_m_l_c_l___circular_linked_list__test_8c.html" target="_top" xlink:title=" ">
<polygon fill="none" stroke="black" points="332.5,-0.5 332.5,-30.5 494.5,-30.5 494.5,-0.5 332.5,-0.5"/>
<text text-anchor="start" x="340.5" y="-18.5" font-family="Helvetica,sans-Serif" font-size="10.00">src/Tests/MLCL_CircularLinked</text>
<text text-anchor="middle" x="413.5" y="-7.5" font-family="Helvetica,sans-Serif" font-size="10.00">List_test.c</text>
</a>
</g>
</g>
<!-- Node1&#45;&gt;Node4 -->
<g id="edge3" class="edge">
<title>Node1&#45;&gt;Node4</title>
<path fill="none" stroke="midnightblue" d="M475.05,-61.45C461.36,-51.45 445.13,-39.6 432.77,-30.58"/>
<polygon fill="midnightblue" stroke="midnightblue" points="473.05,-64.32 483.19,-67.4 477.18,-58.67 473.05,-64.32"/>
</g>
<!-- Node5 -->
<g id="node5" class="node">
<title>Node5</title>
<g id="a_node5"><a xlink:href="_m_l_c_l___double_linked_list__test_8c.html" target="_top" xlink:title=" ">
<polygon fill="none" stroke="black" points="513,-0.5 513,-30.5 672,-30.5 672,-0.5 513,-0.5"/>
<text text-anchor="start" x="521" y="-18.5" font-family="Helvetica,sans-Serif" font-size="10.00">src/Tests/MLCL_DoubleLinked</text>
<text text-anchor="middle" x="592.5" y="-7.5" font-family="Helvetica,sans-Serif" font-size="10.00">List_test.c</text>
</a>
</g>
</g>
<!-- Node1&#45;&gt;Node5 -->
<g id="edge4" class="edge">
<title>Node1&#45;&gt;Node5</title>
<path fill="none" stroke="midnightblue" d="M530.26,-61.45C544.11,-51.45 560.52,-39.6 573.01,-30.58"/>
<polygon fill="midnightblue" stroke="midnightblue" points="528.09,-58.7 522.03,-67.4 532.18,-64.38 528.09,-58.7"/>
</g>
<!-- Node6 -->
<g id="node6" class="node">
<title>Node6</title>
<g id="a_node6"><a xlink:href="_m_l_c_l___linked_list__test_8c.html" target="_top" xlink:title=" ">
<polygon fill="none" stroke="black" points="690.5,-0.5 690.5,-30.5 832.5,-30.5 832.5,-0.5 690.5,-0.5"/>
<text text-anchor="start" x="698.5" y="-18.5" font-family="Helvetica,sans-Serif" font-size="10.00">src/Tests/MLCL_LinkedList</text>
<text text-anchor="middle" x="761.5" y="-7.5" font-family="Helvetica,sans-Serif" font-size="10.00">_test.c</text>
</a>
</g>
</g>
<!-- Node1&#45;&gt;Node6 -->
<g id="edge5" class="edge">
<title>Node1&#45;&gt;Node6</title>
<path fill="none" stroke="midnightblue" d="M568.31,-64.98C610.61,-54.37 664.99,-40.72 705.27,-30.61"/>
<polygon fill="midnightblue" stroke="midnightblue" points="567.23,-61.65 558.38,-67.48 568.93,-68.44 567.23,-61.65"/>
</g>
<!-- Node7 -->
<g id="node7" class="node">
<title>Node7</title>
<g id="a_node7"><a xlink:href="_m_l_c_l___type_descriptor__test_8c.html" target="_top" xlink:title=" ">
<polygon fill="none" stroke="black" points="850.5,-0.5 850.5,-30.5 1016.5,-30.5 1016.5,-0.5 850.5,-0.5"/>
<text text-anchor="start" x="858.5" y="-18.5" font-family="Helvetica,sans-Serif" font-size="10.00">src/Tests/MLCL_TypeDescriptor</text>
<text text-anchor="middle" x="933.5" y="-7.5" font-family="Helvetica,sans-Serif" font-size="10.00">_test.c</text>
</a>
</g>
</g>
<!-- Node1&#45;&gt;Node7 -->
<g id="edge6" class="edge">
<title>Node1&#45;&gt;Node7</title>
<path fill="none" stroke="midnightblue" d="M568.8,-71.79C637.16,-61.74 746.81,-45.51 841.5,-31 844.38,-30.56 847.3,-30.11 850.26,-29.65"/>
<polygon fill="midnightblue" stroke="midnightblue" points="567.99,-68.37 558.61,-73.29 569.01,-75.3 567.99,-68.37"/>
</g>
</g>
</svg>
