<?xml version="1.0" encoding="UTF-8" standalone="no"?>
<!DOCTYPE svg PUBLIC "-//W3C//DTD SVG 1.1//EN"
 "http://www.w3.org/Graphics/SVG/1.1/DTD/svg11.dtd">
<!-- Generated by graphviz version 2.43.0 (0)
 -->
<!-- Title: include/Lists/MLCL_DoubleLinkedList.h Pages: 1 -->
<svg width="723pt" height="251pt"
 viewBox="0.00 0.00 723.00 251.00" xmlns="http://www.w3.org/2000/svg" xmlns:xlink="http://www.w3.org/1999/xlink">
<g id="graph0" class="graph" transform="scale(1 1) rotate(0) translate(4 247)">
<title>include/Lists/MLCL_DoubleLinkedList.h</title>
<!-- Node1 -->
<g id="node1" class="node">
<title>Node1</title>
<g id="a_node1"><a xlink:title=" ">
<polygon fill="#bfbfbf" stroke="black" points="317.5,-212.5 317.5,-242.5 431.5,-242.5 431.5,-212.5 317.5,-212.5"/>
<text text-anchor="start" x="325.5" y="-230.5" font-family="Helvetica,sans-Serif" font-size="10.00">include/Lists/MLCL</text>
<text text-anchor="middle" x="374.5" y="-219.5" font-family="Helvetica,sans-Serif" font-size="10.00">_DoubleLinkedList.h</text>
</a>
</g>
</g>
<!-- Node2 -->
<g id="node2" class="node">
<title>Node2</title>
<g id="a_node2"><a xlink:href="_m_l_c_l___circular_double_linked_list_8h.html" target="_top" xlink:title=" ">
<polygon fill="none" stroke="black" points="194.5,-145.5 194.5,-175.5 346.5,-175.5 346.5,-145.5 194.5,-145.5"/>
<text text-anchor="start" x="202.5" y="-163.5" font-family="Helvetica,sans-Serif" font-size="10.00">include/Lists/MLCL</text>
<text text-anchor="middle" x="270.5" y="-152.5" font-family="Helvetica,sans-Serif" font-size="10.00">_CircularDoubleLinkedList.h</text>
</a>
</g>
</g>
<!-- Node1&#45;&gt;Node2 -->
<g id="edge1" class="edge">
<title>Node1&#45;&gt;Node2</title>
<path fill="none" stroke="midnightblue" d="M343.32,-207.02C327.14,-196.9 307.73,-184.77 293.02,-175.58"/>
<polygon fill="midnightblue" stroke="midnightblue" points="341.6,-210.06 351.93,-212.4 345.31,-204.13 341.6,-210.06"/>
</g>
<!-- Node4 -->
<g id="node4" class="node">
<title>Node4</title>
<g id="a_node4"><a xlink:href="_m_l_c_l___list_8h.html" target="_top" xlink:title=" ">
<polygon fill="none" stroke="black" points="74,-73 74,-103 181,-103 181,-73 74,-73"/>
<text text-anchor="start" x="82" y="-91" font-family="Helvetica,sans-Serif" font-size="10.00">include/Lists/MLCL</text>
<text text-anchor="middle" x="127.5" y="-80" font-family="Helvetica,sans-Serif" font-size="10.00">_List.h</text>
</a>
</g>
</g>
<!-- Node1&#45;&gt;Node4 -->
<g id="edge8" class="edge">
<title>Node1&#45;&gt;Node4</title>
<path fill="none" stroke="midnightblue" d="M307.38,-220.39C268.8,-214.14 221.1,-201.52 185.5,-176 159.24,-157.17 141.46,-122.47 133.06,-103.07"/>
<polygon fill="midnightblue" stroke="midnightblue" points="307.07,-223.88 317.48,-221.91 308.12,-216.96 307.07,-223.88"/>
</g>
<!-- Node7 -->
<g id="node7" class="node">
<title>Node7</title>
<g id="a_node7"><a xlink:href="_m_l_c_l___circular_double_linked_list_8c.html" target="_top" xlink:title=" ">
<polygon fill="none" stroke="black" points="360,-73 360,-103 523,-103 523,-73 360,-73"/>
<text text-anchor="start" x="368" y="-91" font-family="Helvetica,sans-Serif" font-size="10.00">src/Lists/MLCL_CircularDouble</text>
<text text-anchor="middle" x="441.5" y="-80" font-family="Helvetica,sans-Serif" font-size="10.00">LinkedList.c</text>
</a>
</g>
</g>
<!-- Node1&#45;&gt;Node7 -->
<g id="edge9" class="edge">
<title>Node1&#45;&gt;Node7</title>
<path fill="none" stroke="midnightblue" d="M377.5,-202.17C380.26,-185.42 385.36,-163.01 394.5,-145 402.54,-129.15 415.84,-113.89 426.25,-103.31"/>
<polygon fill="midnightblue" stroke="midnightblue" points="374,-201.86 376,-212.27 380.93,-202.89 374,-201.86"/>
</g>
<!-- Node8 -->
<g id="node8" class="node">
<title>Node8</title>
<g id="a_node8"><a xlink:href="_m_l_c_l___double_linked_list__test_8c.html" target="_top" xlink:title=" ">
<polygon fill="none" stroke="black" points="403,-145.5 403,-175.5 540,-175.5 540,-145.5 403,-145.5"/>
<text text-anchor="start" x="411" y="-163.5" font-family="Helvetica,sans-Serif" font-size="10.00">src/_Tests/Lists/MLCL</text>
<text text-anchor="middle" x="471.5" y="-152.5" font-family="Helvetica,sans-Serif" font-size="10.00">_DoubleLinkedList_test.c</text>
</a>
</g>
</g>
<!-- Node1&#45;&gt;Node8 -->
<g id="edge7" class="edge">
<title>Node1&#45;&gt;Node8</title>
<path fill="none" stroke="midnightblue" d="M404,-206.73C419.01,-196.68 436.9,-184.68 450.49,-175.58"/>
<polygon fill="midnightblue" stroke="midnightblue" points="401.91,-203.92 395.55,-212.4 405.8,-209.74 401.91,-203.92"/>
</g>
<!-- Node9 -->
<g id="node9" class="node">
<title>Node9</title>
<g id="a_node9"><a xlink:href="_m_l_c_l___double_linked_list_8c.html" target="_top" xlink:title=" ">
<polygon fill="none" stroke="black" points="558,-145.5 558,-175.5 715,-175.5 715,-145.5 558,-145.5"/>
<text text-anchor="start" x="566" y="-163.5" font-family="Helvetica,sans-Serif" font-size="10.00">src/Lists/MLCL_DoubleLinked</text>
<text text-anchor="middle" x="636.5" y="-152.5" font-family="Helvetica,sans-Serif" font-size="10.00">List.c</text>
</a>
</g>
</g>
<!-- Node1&#45;&gt;Node9 -->
<g id="edge10" class="edge">
<title>Node1&#45;&gt;Node9</title>
<path fill="none" stroke="midnightblue" d="M440.8,-210.05C483.63,-199.43 538.79,-185.74 579.62,-175.61"/>
<polygon fill="midnightblue" stroke="midnightblue" points="439.89,-206.67 431.03,-212.48 441.58,-213.47 439.89,-206.67"/>
</g>
<!-- Node3 -->
<g id="node3" class="node">
<title>Node3</title>
<g id="a_node3"><a xlink:href="_m_l_c_l___circular_double_linked_list__test_8c.html" target="_top" xlink:title=" ">
<polygon fill="none" stroke="black" points="199,-67.5 199,-108.5 342,-108.5 342,-67.5 199,-67.5"/>
<text text-anchor="start" x="207" y="-96.5" font-family="Helvetica,sans-Serif" font-size="10.00">src/_Tests/Lists/MLCL</text>
<text text-anchor="start" x="207" y="-85.5" font-family="Helvetica,sans-Serif" font-size="10.00">_CircularDoubleLinkedList</text>
<text text-anchor="middle" x="270.5" y="-74.5" font-family="Helvetica,sans-Serif" font-size="10.00">_test.c</text>
</a>
</g>
</g>
<!-- Node2&#45;&gt;Node3 -->
<g id="edge2" class="edge">
<title>Node2&#45;&gt;Node3</title>
<path fill="none" stroke="midnightblue" d="M270.5,-134.98C270.5,-126.35 270.5,-116.76 270.5,-108.59"/>
<polygon fill="midnightblue" stroke="midnightblue" points="267,-135.23 270.5,-145.23 274,-135.23 267,-135.23"/>
</g>
<!-- Node2&#45;&gt;Node4 -->
<g id="edge3" class="edge">
<title>Node2&#45;&gt;Node4</title>
<path fill="none" stroke="midnightblue" d="M232.72,-140.87C208.68,-129.02 178.05,-113.92 156.04,-103.07"/>
<polygon fill="midnightblue" stroke="midnightblue" points="231.39,-144.12 241.91,-145.4 234.48,-137.84 231.39,-144.12"/>
</g>
<!-- Node2&#45;&gt;Node7 -->
<g id="edge6" class="edge">
<title>Node2&#45;&gt;Node7</title>
<path fill="none" stroke="midnightblue" d="M314.16,-141.5C343.12,-129.56 380.59,-114.11 407.37,-103.07"/>
<polygon fill="midnightblue" stroke="midnightblue" points="312.6,-138.36 304.69,-145.4 315.27,-144.83 312.6,-138.36"/>
</g>
<!-- Node5 -->
<g id="node5" class="node">
<title>Node5</title>
<g id="a_node5"><a xlink:href="_m_l_c_l___list__test_8c.html" target="_top" xlink:title=" ">
<polygon fill="none" stroke="black" points="0,-0.5 0,-30.5 119,-30.5 119,-0.5 0,-0.5"/>
<text text-anchor="start" x="8" y="-18.5" font-family="Helvetica,sans-Serif" font-size="10.00">src/_Tests/Lists/MLCL</text>
<text text-anchor="middle" x="59.5" y="-7.5" font-family="Helvetica,sans-Serif" font-size="10.00">_List_test.c</text>
</a>
</g>
</g>
<!-- Node4&#45;&gt;Node5 -->
<g id="edge4" class="edge">
<title>Node4&#45;&gt;Node5</title>
<path fill="none" stroke="midnightblue" d="M106.63,-65.36C95.78,-54.11 82.82,-40.68 73.24,-30.75"/>
<polygon fill="midnightblue" stroke="midnightblue" points="104.28,-67.97 113.74,-72.73 109.32,-63.11 104.28,-67.97"/>
</g>
<!-- Node6 -->
<g id="node6" class="node">
<title>Node6</title>
<g id="a_node6"><a xlink:href="_m_l_c_l___list_8c.html" target="_top" xlink:title=" ">
<polygon fill="none" stroke="black" points="137.5,-6 137.5,-25 253.5,-25 253.5,-6 137.5,-6"/>
<text text-anchor="middle" x="195.5" y="-13" font-family="Helvetica,sans-Serif" font-size="10.00">src/Lists/MLCL_List.c</text>
</a>
</g>
</g>
<!-- Node4&#45;&gt;Node6 -->
<g id="edge5" class="edge">
<title>Node4&#45;&gt;Node6</title>
<path fill="none" stroke="midnightblue" d="M148.47,-65.26C161.41,-51.84 177.32,-35.35 186.92,-25.39"/>
<polygon fill="midnightblue" stroke="midnightblue" points="145.68,-63.11 141.26,-72.73 150.72,-67.97 145.68,-63.11"/>
</g>
</g>
</svg>
