<?xml version="1.0" encoding="UTF-8" standalone="no"?>
<!DOCTYPE svg PUBLIC "-//W3C//DTD SVG 1.1//EN"
 "http://www.w3.org/Graphics/SVG/1.1/DTD/svg11.dtd">
<!-- Generated by graphviz version 2.43.0 (0)
 -->
<!-- Title: include/MLCL_utils.h Pages: 1 -->
<svg width="274pt" height="95pt"
 viewBox="0.00 0.00 274.00 95.00" xmlns="http://www.w3.org/2000/svg" xmlns:xlink="http://www.w3.org/1999/xlink">
<g id="graph0" class="graph" transform="scale(1 1) rotate(0) translate(4 91)">
<title>include/MLCL_utils.h</title>
<!-- Node1 -->
<g id="node1" class="node">
<title>Node1</title>
<g id="a_node1"><a xlink:title=" ">
<polygon fill="#bfbfbf" stroke="black" points="60.5,-67.5 60.5,-86.5 176.5,-86.5 176.5,-67.5 60.5,-67.5"/>
<text text-anchor="middle" x="118.5" y="-74.5" font-family="Helvetica,sans-Serif" font-size="10.00">include/MLCL_utils.h</text>
</a>
</g>
</g>
<!-- Node2 -->
<g id="node2" class="node">
<title>Node2</title>
<g id="a_node2"><a xlink:href="_m_l_c_l__utils_8c.html" target="_top" xlink:title=" ">
<polygon fill="none" stroke="black" points="0,-6 0,-25 95,-25 95,-6 0,-6"/>
<text text-anchor="middle" x="47.5" y="-13" font-family="Helvetica,sans-Serif" font-size="10.00">src/MLCL_utils.c</text>
</a>
</g>
</g>
<!-- Node1&#45;&gt;Node2 -->
<g id="edge1" class="edge">
<title>Node1&#45;&gt;Node2</title>
<path fill="none" stroke="midnightblue" d="M100.57,-60.97C86.99,-49.59 68.82,-34.37 57.65,-25.01"/>
<polygon fill="midnightblue" stroke="midnightblue" points="98.41,-63.73 108.33,-67.48 102.91,-58.37 98.41,-63.73"/>
</g>
<!-- Node3 -->
<g id="node3" class="node">
<title>Node3</title>
<g id="a_node3"><a xlink:href="_m_l_c_l___binary_search_tree_8c.html" target="_top" xlink:title=" ">
<polygon fill="none" stroke="black" points="113,-0.5 113,-30.5 266,-30.5 266,-0.5 113,-0.5"/>
<text text-anchor="start" x="121" y="-18.5" font-family="Helvetica,sans-Serif" font-size="10.00">src/Tree/MLCL_BinarySearch</text>
<text text-anchor="middle" x="189.5" y="-7.5" font-family="Helvetica,sans-Serif" font-size="10.00">Tree.c</text>
</a>
</g>
</g>
<!-- Node1&#45;&gt;Node3 -->
<g id="edge2" class="edge">
<title>Node1&#45;&gt;Node3</title>
<path fill="none" stroke="midnightblue" d="M136.49,-60.92C147.64,-51.58 161.86,-39.66 172.77,-30.52"/>
<polygon fill="midnightblue" stroke="midnightblue" points="134.09,-58.37 128.67,-67.48 138.59,-63.73 134.09,-58.37"/>
</g>
</g>
</svg>
