<?xml version="1.0" encoding="UTF-8" standalone="no"?>
<!DOCTYPE svg PUBLIC "-//W3C//DTD SVG 1.1//EN"
 "http://www.w3.org/Graphics/SVG/1.1/DTD/svg11.dtd">
<!-- Generated by graphviz version 2.43.0 (0)
 -->
<!-- Title: include/MLCL_utils.h Pages: 1 -->
<svg width="399pt" height="95pt"
 viewBox="0.00 0.00 398.50 95.00" xmlns="http://www.w3.org/2000/svg" xmlns:xlink="http://www.w3.org/1999/xlink">
<g id="graph0" class="graph" transform="scale(1 1) rotate(0) translate(4 91)">
<title>include/MLCL_utils.h</title>
<!-- Node1 -->
<g id="node1" class="node">
<title>Node1</title>
<g id="a_node1"><a xlink:title=" ">
<polygon fill="#bfbfbf" stroke="black" points="108.5,-67.5 108.5,-86.5 224.5,-86.5 224.5,-67.5 108.5,-67.5"/>
<text text-anchor="middle" x="166.5" y="-74.5" font-family="Helvetica,sans-Serif" font-size="10.00">include/MLCL_utils.h</text>
</a>
</g>
</g>
<!-- Node2 -->
<g id="node2" class="node">
<title>Node2</title>
<g id="a_node2"><a xlink:href="_m_l_c_l___timer_8c.html" target="_top" xlink:title=" ">
<polygon fill="none" stroke="black" points="0,-6 0,-25 101,-25 101,-6 0,-6"/>
<text text-anchor="middle" x="50.5" y="-13" font-family="Helvetica,sans-Serif" font-size="10.00">src/MLCL_Timer.c</text>
</a>
</g>
</g>
<!-- Node1&#45;&gt;Node2 -->
<g id="edge1" class="edge">
<title>Node1&#45;&gt;Node2</title>
<path fill="none" stroke="midnightblue" d="M140.9,-62.87C118.41,-51.33 86.37,-34.9 67.09,-25.01"/>
<polygon fill="midnightblue" stroke="midnightblue" points="139.38,-66.03 149.88,-67.48 142.58,-59.8 139.38,-66.03"/>
</g>
<!-- Node3 -->
<g id="node3" class="node">
<title>Node3</title>
<g id="a_node3"><a xlink:href="_m_l_c_l__utils_8c.html" target="_top" xlink:title=" ">
<polygon fill="none" stroke="black" points="119,-6 119,-25 214,-25 214,-6 119,-6"/>
<text text-anchor="middle" x="166.5" y="-13" font-family="Helvetica,sans-Serif" font-size="10.00">src/MLCL_utils.c</text>
</a>
</g>
</g>
<!-- Node1&#45;&gt;Node3 -->
<g id="edge2" class="edge">
<title>Node1&#45;&gt;Node3</title>
<path fill="none" stroke="midnightblue" d="M166.5,-57.32C166.5,-46.5 166.5,-33.4 166.5,-25.01"/>
<polygon fill="midnightblue" stroke="midnightblue" points="163,-57.48 166.5,-67.48 170,-57.48 163,-57.48"/>
</g>
<!-- Node4 -->
<g id="node4" class="node">
<title>Node4</title>
<g id="a_node4"><a xlink:href="_m_l_c_l___binary_search_tree_8c.html" target="_top" xlink:title=" ">
<polygon fill="none" stroke="black" points="232.5,-0.5 232.5,-30.5 390.5,-30.5 390.5,-0.5 232.5,-0.5"/>
<text text-anchor="start" x="240.5" y="-18.5" font-family="Helvetica,sans-Serif" font-size="10.00">src/Trees/MLCL_BinarySearch</text>
<text text-anchor="middle" x="311.5" y="-7.5" font-family="Helvetica,sans-Serif" font-size="10.00">Tree.c</text>
</a>
</g>
</g>
<!-- Node1&#45;&gt;Node4 -->
<g id="edge3" class="edge">
<title>Node1&#45;&gt;Node4</title>
<path fill="none" stroke="midnightblue" d="M196.74,-63.59C220.25,-53.94 252.87,-40.56 277.33,-30.52"/>
<polygon fill="midnightblue" stroke="midnightblue" points="195.2,-60.44 187.27,-67.48 197.86,-66.92 195.2,-60.44"/>
</g>
</g>
</svg>
