<?xml version="1.0" encoding="UTF-8" standalone="no"?>
<!DOCTYPE svg PUBLIC "-//W3C//DTD SVG 1.1//EN"
 "http://www.w3.org/Graphics/SVG/1.1/DTD/svg11.dtd">
<!-- Generated by graphviz version 2.43.0 (0)
 -->
<!-- Title: include/MLCL_basic_types.h Pages: 1 -->
<svg width="1357pt" height="117pt"
 viewBox="0.00 0.00 1357.00 117.00" xmlns="http://www.w3.org/2000/svg" xmlns:xlink="http://www.w3.org/1999/xlink">
<g id="graph0" class="graph" transform="scale(1 1) rotate(0) translate(4 113)">
<title>include/MLCL_basic_types.h</title>
<!-- Node1 -->
<g id="node1" class="node">
<title>Node1</title>
<g id="a_node1"><a xlink:title=" ">
<polygon fill="#bfbfbf" stroke="black" points="606.5,-78.5 606.5,-108.5 718.5,-108.5 718.5,-78.5 606.5,-78.5"/>
<text text-anchor="start" x="614.5" y="-96.5" font-family="Helvetica,sans-Serif" font-size="10.00">include/MLCL_basic</text>
<text text-anchor="middle" x="662.5" y="-85.5" font-family="Helvetica,sans-Serif" font-size="10.00">_types.h</text>
</a>
</g>
</g>
<!-- Node2 -->
<g id="node2" class="node">
<title>Node2</title>
<g id="a_node2"><a xlink:href="_m_l_c_l___array_list__test_8c.html" target="_top" xlink:title=" ">
<polygon fill="none" stroke="black" points="0,-6 0,-36 113,-36 113,-6 0,-6"/>
<text text-anchor="start" x="8" y="-24" font-family="Helvetica,sans-Serif" font-size="10.00">src/_Tests/List/MLCL</text>
<text text-anchor="middle" x="56.5" y="-13" font-family="Helvetica,sans-Serif" font-size="10.00">_ArrayList_test.c</text>
</a>
</g>
</g>
<!-- Node1&#45;&gt;Node2 -->
<g id="edge1" class="edge">
<title>Node1&#45;&gt;Node2</title>
<path fill="none" stroke="midnightblue" d="M596.05,-90.68C493.37,-86.89 290.35,-75.49 121.5,-42 113.74,-40.46 105.59,-38.36 97.79,-36.09"/>
<polygon fill="midnightblue" stroke="midnightblue" points="596.15,-94.19 606.27,-91.05 596.4,-87.19 596.15,-94.19"/>
</g>
<!-- Node3 -->
<g id="node3" class="node">
<title>Node3</title>
<g id="a_node3"><a xlink:href="_m_l_c_l___circular_double_linked_list__test_8c.html" target="_top" xlink:title=" ">
<polygon fill="none" stroke="black" points="131,-0.5 131,-41.5 274,-41.5 274,-0.5 131,-0.5"/>
<text text-anchor="start" x="139" y="-29.5" font-family="Helvetica,sans-Serif" font-size="10.00">src/_Tests/List/MLCL</text>
<text text-anchor="start" x="139" y="-18.5" font-family="Helvetica,sans-Serif" font-size="10.00">_CircularDoubleLinkedList</text>
<text text-anchor="middle" x="202.5" y="-7.5" font-family="Helvetica,sans-Serif" font-size="10.00">_test.c</text>
</a>
</g>
</g>
<!-- Node1&#45;&gt;Node3 -->
<g id="edge2" class="edge">
<title>Node1&#45;&gt;Node3</title>
<path fill="none" stroke="midnightblue" d="M595.96,-85.87C520,-77.78 392.2,-62.6 283.5,-42 280.51,-41.43 277.47,-40.83 274.4,-40.19"/>
<polygon fill="midnightblue" stroke="midnightblue" points="596.01,-89.39 606.32,-86.96 596.75,-82.43 596.01,-89.39"/>
</g>
<!-- Node4 -->
<g id="node4" class="node">
<title>Node4</title>
<g id="a_node4"><a xlink:href="_m_l_c_l___circular_linked_list__test_8c.html" target="_top" xlink:title=" ">
<polygon fill="none" stroke="black" points="292.5,-6 292.5,-36 432.5,-36 432.5,-6 292.5,-6"/>
<text text-anchor="start" x="300.5" y="-24" font-family="Helvetica,sans-Serif" font-size="10.00">src/_Tests/List/MLCL</text>
<text text-anchor="middle" x="362.5" y="-13" font-family="Helvetica,sans-Serif" font-size="10.00">_CircularLinkedList_test.c</text>
</a>
</g>
</g>
<!-- Node1&#45;&gt;Node4 -->
<g id="edge3" class="edge">
<title>Node1&#45;&gt;Node4</title>
<path fill="none" stroke="midnightblue" d="M596.11,-77.75C552.18,-67.89 493.33,-54.48 441.5,-42 433.66,-40.11 425.39,-38.07 417.28,-36.04"/>
<polygon fill="midnightblue" stroke="midnightblue" points="595.57,-81.22 606.1,-79.99 597.11,-74.39 595.57,-81.22"/>
</g>
<!-- Node5 -->
<g id="node5" class="node">
<title>Node5</title>
<g id="a_node5"><a xlink:href="_m_l_c_l___double_linked_list__test_8c.html" target="_top" xlink:title=" ">
<polygon fill="none" stroke="black" points="451,-6 451,-36 588,-36 588,-6 451,-6"/>
<text text-anchor="start" x="459" y="-24" font-family="Helvetica,sans-Serif" font-size="10.00">src/_Tests/List/MLCL</text>
<text text-anchor="middle" x="519.5" y="-13" font-family="Helvetica,sans-Serif" font-size="10.00">_DoubleLinkedList_test.c</text>
</a>
</g>
</g>
<!-- Node1&#45;&gt;Node5 -->
<g id="edge4" class="edge">
<title>Node1&#45;&gt;Node5</title>
<path fill="none" stroke="midnightblue" d="M624.72,-73.87C600.68,-62.02 570.05,-46.92 548.04,-36.07"/>
<polygon fill="midnightblue" stroke="midnightblue" points="623.39,-77.12 633.91,-78.4 626.48,-70.84 623.39,-77.12"/>
</g>
<!-- Node6 -->
<g id="node6" class="node">
<title>Node6</title>
<g id="a_node6"><a xlink:href="_m_l_c_l___linked_list__test_8c.html" target="_top" xlink:title=" ">
<polygon fill="none" stroke="black" points="606,-6 606,-36 719,-36 719,-6 606,-6"/>
<text text-anchor="start" x="614" y="-24" font-family="Helvetica,sans-Serif" font-size="10.00">src/_Tests/List/MLCL</text>
<text text-anchor="middle" x="662.5" y="-13" font-family="Helvetica,sans-Serif" font-size="10.00">_LinkedList_test.c</text>
</a>
</g>
</g>
<!-- Node1&#45;&gt;Node6 -->
<g id="edge5" class="edge">
<title>Node1&#45;&gt;Node6</title>
<path fill="none" stroke="midnightblue" d="M662.5,-68.23C662.5,-57.57 662.5,-45.41 662.5,-36.25"/>
<polygon fill="midnightblue" stroke="midnightblue" points="659,-68.23 662.5,-78.23 666,-68.23 659,-68.23"/>
</g>
<!-- Node7 -->
<g id="node7" class="node">
<title>Node7</title>
<g id="a_node7"><a xlink:href="_m_l_c_l___type_descriptor__test_8c.html" target="_top" xlink:title=" ">
<polygon fill="none" stroke="black" points="737,-6 737,-36 908,-36 908,-6 737,-6"/>
<text text-anchor="start" x="745" y="-24" font-family="Helvetica,sans-Serif" font-size="10.00">src/_Tests/MLCL_TypeDescriptor</text>
<text text-anchor="middle" x="822.5" y="-13" font-family="Helvetica,sans-Serif" font-size="10.00">_test.c</text>
</a>
</g>
</g>
<!-- Node1&#45;&gt;Node7 -->
<g id="edge6" class="edge">
<title>Node1&#45;&gt;Node7</title>
<path fill="none" stroke="midnightblue" d="M703.71,-74.34C730.76,-62.42 765.61,-47.07 790.56,-36.07"/>
<polygon fill="midnightblue" stroke="midnightblue" points="702.23,-71.17 694.49,-78.4 705.06,-77.57 702.23,-71.17"/>
</g>
<!-- Node8 -->
<g id="node8" class="node">
<title>Node8</title>
<g id="a_node8"><a xlink:href="_m_l_c_l___a_v_l_tree__test_8c.html" target="_top" xlink:title=" ">
<polygon fill="none" stroke="black" points="926.5,-6 926.5,-36 1042.5,-36 1042.5,-6 926.5,-6"/>
<text text-anchor="start" x="934.5" y="-24" font-family="Helvetica,sans-Serif" font-size="10.00">src/_Tests/Tree/MLCL</text>
<text text-anchor="middle" x="984.5" y="-13" font-family="Helvetica,sans-Serif" font-size="10.00">_AVLTree_test.c</text>
</a>
</g>
</g>
<!-- Node1&#45;&gt;Node8 -->
<g id="edge7" class="edge">
<title>Node1&#45;&gt;Node8</title>
<path fill="none" stroke="midnightblue" d="M728.59,-81.18C780.29,-71.91 853.84,-57.77 917.5,-42 924.69,-40.22 932.25,-38.15 939.61,-36.04"/>
<polygon fill="midnightblue" stroke="midnightblue" points="727.78,-77.77 718.55,-82.97 729.01,-84.66 727.78,-77.77"/>
</g>
<!-- Node9 -->
<g id="node9" class="node">
<title>Node9</title>
<g id="a_node9"><a xlink:href="_m_l_c_l___binary_search_tree__test_8c.html" target="_top" xlink:title=" ">
<polygon fill="none" stroke="black" points="1061,-6 1061,-36 1200,-36 1200,-6 1061,-6"/>
<text text-anchor="start" x="1069" y="-24" font-family="Helvetica,sans-Serif" font-size="10.00">src/_Tests/Tree/MLCL</text>
<text text-anchor="middle" x="1130.5" y="-13" font-family="Helvetica,sans-Serif" font-size="10.00">_BinarySearchTree_test.c</text>
</a>
</g>
</g>
<!-- Node1&#45;&gt;Node9 -->
<g id="edge8" class="edge">
<title>Node1&#45;&gt;Node9</title>
<path fill="none" stroke="midnightblue" d="M728.68,-86.33C806.4,-78.53 938.98,-63.47 1051.5,-42 1060.39,-40.3 1069.78,-38.2 1078.85,-36.01"/>
<polygon fill="midnightblue" stroke="midnightblue" points="728.16,-82.86 718.55,-87.34 728.85,-89.83 728.16,-82.86"/>
</g>
<!-- Node10 -->
<g id="node10" class="node">
<title>Node10</title>
<g id="a_node10"><a xlink:href="_m_l_c_l__basic__types_8c.html" target="_top" xlink:title=" ">
<polygon fill="none" stroke="black" points="1218,-11.5 1218,-30.5 1349,-30.5 1349,-11.5 1218,-11.5"/>
<text text-anchor="middle" x="1283.5" y="-18.5" font-family="Helvetica,sans-Serif" font-size="10.00">src/MLCL_basic_types.c</text>
</a>
</g>
</g>
<!-- Node1&#45;&gt;Node10 -->
<g id="edge9" class="edge">
<title>Node1&#45;&gt;Node10</title>
<path fill="none" stroke="midnightblue" d="M729.14,-90.04C832.64,-85.39 1037.99,-72.86 1209.5,-42 1225.22,-39.17 1242.46,-34.6 1256.34,-30.54"/>
<polygon fill="midnightblue" stroke="midnightblue" points="728.67,-86.56 718.84,-90.49 728.98,-93.55 728.67,-86.56"/>
</g>
</g>
</svg>
