<?xml version="1.0" encoding="UTF-8" standalone="no"?>
<!DOCTYPE svg PUBLIC "-//W3C//DTD SVG 1.1//EN"
 "http://www.w3.org/Graphics/SVG/1.1/DTD/svg11.dtd">
<!-- Generated by graphviz version 2.43.0 (0)
 -->
<!-- Title: include/MLCL_TypeDescriptor.h Pages: 1 -->
<svg width="2811pt" height="385pt"
 viewBox="0.00 0.00 2810.93 385.00" xmlns="http://www.w3.org/2000/svg" xmlns:xlink="http://www.w3.org/1999/xlink">
<g id="graph0" class="graph" transform="scale(1 1) rotate(0) translate(4 381)">
<title>include/MLCL_TypeDescriptor.h</title>
<!-- Node1 -->
<g id="node1" class="node">
<title>Node1</title>
<g id="a_node1"><a xlink:title=" ">
<polygon fill="#bfbfbf" stroke="black" points="1499.5,-357.5 1499.5,-376.5 1666.5,-376.5 1666.5,-357.5 1499.5,-357.5"/>
<text text-anchor="middle" x="1583" y="-364.5" font-family="Helvetica,sans-Serif" font-size="10.00">include/MLCL_TypeDescriptor.h</text>
</a>
</g>
</g>
<!-- Node2 -->
<g id="node2" class="node">
<title>Node2</title>
<g id="a_node2"><a xlink:href="_m_l_c_l___binary_heap__test_8c.html" target="_top" xlink:title=" ">
<polygon fill="none" stroke="black" points="205,-67.5 205,-97.5 327,-97.5 327,-67.5 205,-67.5"/>
<text text-anchor="start" x="213" y="-85.5" font-family="Helvetica,sans-Serif" font-size="10.00">src/_Tests/Heap/MLCL</text>
<text text-anchor="middle" x="266" y="-74.5" font-family="Helvetica,sans-Serif" font-size="10.00">_BinaryHeap_test.c</text>
</a>
</g>
</g>
<!-- Node1&#45;&gt;Node2 -->
<g id="edge1" class="edge">
<title>Node1&#45;&gt;Node2</title>
<path fill="none" stroke="midnightblue" d="M1489.41,-364.41C1259.48,-360.14 671.49,-346.97 477,-321 344.59,-303.32 310.71,-296.28 184,-254 103.22,-227.05 55.36,-247.43 9,-176 -38.45,-102.91 114.62,-87.09 204.8,-83.98"/>
<polygon fill="midnightblue" stroke="midnightblue" points="1489.36,-367.91 1499.42,-364.59 1489.49,-360.91 1489.36,-367.91"/>
</g>
<!-- Node3 -->
<g id="node3" class="node">
<title>Node3</title>
<g id="a_node3"><a xlink:href="_m_l_c_l__basic__types_8h.html" target="_top" xlink:title=" ">
<polygon fill="none" stroke="black" points="1374,-218 1374,-248 1486,-248 1486,-218 1374,-218"/>
<text text-anchor="start" x="1382" y="-236" font-family="Helvetica,sans-Serif" font-size="10.00">include/MLCL_basic</text>
<text text-anchor="middle" x="1430" y="-225" font-family="Helvetica,sans-Serif" font-size="10.00">_types.h</text>
</a>
</g>
</g>
<!-- Node1&#45;&gt;Node3 -->
<g id="edge2" class="edge">
<title>Node1&#45;&gt;Node3</title>
<path fill="none" stroke="midnightblue" d="M1561.01,-351.82C1548.35,-343.35 1532.36,-332.11 1519,-321 1490.41,-297.25 1460.06,-266.14 1443.22,-248.28"/>
<polygon fill="midnightblue" stroke="midnightblue" points="1559.27,-354.87 1569.55,-357.46 1563.13,-349.03 1559.27,-354.87"/>
</g>
<!-- Node13 -->
<g id="node13" class="node">
<title>Node13</title>
<g id="a_node13"><a xlink:href="_m_l_c_l___a_v_l_tree__test_8c.html" target="_top" xlink:title=" ">
<polygon fill="none" stroke="black" points="650,-140 650,-170 772,-170 772,-140 650,-140"/>
<text text-anchor="start" x="658" y="-158" font-family="Helvetica,sans-Serif" font-size="10.00">src/_Tests/Trees/MLCL</text>
<text text-anchor="middle" x="711" y="-147" font-family="Helvetica,sans-Serif" font-size="10.00">_AVLTree_test.c</text>
</a>
</g>
</g>
<!-- Node1&#45;&gt;Node13 -->
<g id="edge56" class="edge">
<title>Node1&#45;&gt;Node13</title>
<path fill="none" stroke="midnightblue" d="M1489.24,-366.06C1330.01,-365.12 1013.9,-358.4 910,-321 837.44,-294.88 831.31,-264.68 775,-212 759.36,-197.37 740.91,-181.35 727.84,-170.21"/>
<polygon fill="midnightblue" stroke="midnightblue" points="1489.48,-369.56 1499.49,-366.12 1489.51,-362.56 1489.48,-369.56"/>
</g>
<!-- Node18 -->
<g id="node18" class="node">
<title>Node18</title>
<g id="a_node18"><a xlink:href="_m_l_c_l___array_list_8h.html" target="_top" xlink:title=" ">
<polygon fill="none" stroke="black" points="486.5,-290.5 486.5,-320.5 593.5,-320.5 593.5,-290.5 486.5,-290.5"/>
<text text-anchor="start" x="494.5" y="-308.5" font-family="Helvetica,sans-Serif" font-size="10.00">include/Lists/MLCL</text>
<text text-anchor="middle" x="540" y="-297.5" font-family="Helvetica,sans-Serif" font-size="10.00">_ArrayList.h</text>
</a>
</g>
</g>
<!-- Node1&#45;&gt;Node18 -->
<g id="edge18" class="edge">
<title>Node1&#45;&gt;Node18</title>
<path fill="none" stroke="midnightblue" d="M1489.32,-360.85C1339.78,-352.61 1037.87,-335.85 782,-321 717.29,-317.24 642.86,-312.76 593.82,-309.78"/>
<polygon fill="midnightblue" stroke="midnightblue" points="1489.21,-364.35 1499.39,-361.41 1489.59,-357.36 1489.21,-364.35"/>
</g>
<!-- Node24 -->
<g id="node24" class="node">
<title>Node24</title>
<g id="a_node24"><a xlink:href="_m_l_c_l___ternary_search_tree_8h.html" target="_top" xlink:title=" ">
<polygon fill="none" stroke="black" points="1608,-67.5 1608,-97.5 1728,-97.5 1728,-67.5 1608,-67.5"/>
<text text-anchor="start" x="1616" y="-85.5" font-family="Helvetica,sans-Serif" font-size="10.00">include/Trees/MLCL</text>
<text text-anchor="middle" x="1668" y="-74.5" font-family="Helvetica,sans-Serif" font-size="10.00">_TernarySearchTree.h</text>
</a>
</g>
</g>
<!-- Node1&#45;&gt;Node24 -->
<g id="edge57" class="edge">
<title>Node1&#45;&gt;Node24</title>
<path fill="none" stroke="midnightblue" d="M1612.45,-352.56C1625.27,-345.14 1639.12,-334.63 1647,-321 1690.05,-246.44 1677.01,-136.25 1670.6,-97.55"/>
<polygon fill="midnightblue" stroke="midnightblue" points="1610.56,-349.61 1603.41,-357.42 1613.88,-355.77 1610.56,-349.61"/>
</g>
<!-- Node26 -->
<g id="node26" class="node">
<title>Node26</title>
<g id="a_node26"><a xlink:href="_m_l_c_l___list_8c.html" target="_top" xlink:title=" ">
<polygon fill="none" stroke="black" points="2595,-73 2595,-92 2711,-92 2711,-73 2595,-73"/>
<text text-anchor="middle" x="2653" y="-80" font-family="Helvetica,sans-Serif" font-size="10.00">src/Lists/MLCL_List.c</text>
</a>
</g>
</g>
<!-- Node1&#45;&gt;Node26 -->
<g id="edge58" class="edge">
<title>Node1&#45;&gt;Node26</title>
<path fill="none" stroke="midnightblue" d="M1676.74,-366.39C1822.06,-365.67 2110.06,-358.97 2351,-321 2468.02,-302.56 2496.75,-291.89 2609,-254 2693.93,-225.33 2745.36,-250.64 2795,-176 2805.33,-160.46 2805.76,-149.25 2795,-134 2776.06,-107.17 2741.56,-94.51 2711.31,-88.57"/>
<polygon fill="midnightblue" stroke="midnightblue" points="1676.51,-362.89 1666.53,-366.43 1676.54,-369.89 1676.51,-362.89"/>
</g>
<!-- Node33 -->
<g id="node33" class="node">
<title>Node33</title>
<g id="a_node33"><a xlink:href="_m_l_c_l___double_linked_list_8h.html" target="_top" xlink:title=" ">
<polygon fill="none" stroke="black" points="1833,-290.5 1833,-320.5 1947,-320.5 1947,-290.5 1833,-290.5"/>
<text text-anchor="start" x="1841" y="-308.5" font-family="Helvetica,sans-Serif" font-size="10.00">include/Lists/MLCL</text>
<text text-anchor="middle" x="1890" y="-297.5" font-family="Helvetica,sans-Serif" font-size="10.00">_DoubleLinkedList.h</text>
</a>
</g>
</g>
<!-- Node1&#45;&gt;Node33 -->
<g id="edge39" class="edge">
<title>Node1&#45;&gt;Node33</title>
<path fill="none" stroke="midnightblue" d="M1636.87,-355.56C1691.79,-344.91 1776.65,-328.47 1832.76,-317.59"/>
<polygon fill="midnightblue" stroke="midnightblue" points="1636.13,-352.14 1626.98,-357.48 1637.46,-359.01 1636.13,-352.14"/>
</g>
<!-- Node37 -->
<g id="node37" class="node">
<title>Node37</title>
<g id="a_node37"><a xlink:href="_m_l_c_l___linked_list_8h.html" target="_top" xlink:title=" ">
<polygon fill="none" stroke="black" points="2234.5,-290.5 2234.5,-320.5 2341.5,-320.5 2341.5,-290.5 2234.5,-290.5"/>
<text text-anchor="start" x="2242.5" y="-308.5" font-family="Helvetica,sans-Serif" font-size="10.00">include/Lists/MLCL</text>
<text text-anchor="middle" x="2288" y="-297.5" font-family="Helvetica,sans-Serif" font-size="10.00">_LinkedList.h</text>
</a>
</g>
</g>
<!-- Node1&#45;&gt;Node37 -->
<g id="edge48" class="edge">
<title>Node1&#45;&gt;Node37</title>
<path fill="none" stroke="midnightblue" d="M1676.86,-358.21C1784.04,-349.29 1964.67,-334.21 2120,-321 2158.21,-317.75 2201.3,-314.03 2234.28,-311.17"/>
<polygon fill="midnightblue" stroke="midnightblue" points="1676.39,-354.73 1666.71,-359.05 1676.97,-361.71 1676.39,-354.73"/>
</g>
<!-- Node41 -->
<g id="node41" class="node">
<title>Node41</title>
<g id="a_node41"><a xlink:href="_m_l_c_l___type_descriptor_8c.html" target="_top" xlink:title=" ">
<polygon fill="none" stroke="black" points="1965,-296 1965,-315 2111,-315 2111,-296 1965,-296"/>
<text text-anchor="middle" x="2038" y="-303" font-family="Helvetica,sans-Serif" font-size="10.00">src/MLCL_TypeDescriptor.c</text>
</a>
</g>
</g>
<!-- Node1&#45;&gt;Node41 -->
<g id="edge59" class="edge">
<title>Node1&#45;&gt;Node41</title>
<path fill="none" stroke="midnightblue" d="M1674.27,-356.4C1749.9,-348.11 1860.14,-335.25 1956,-321 1967.72,-319.26 1980.35,-317.14 1992.1,-315.07"/>
<polygon fill="midnightblue" stroke="midnightblue" points="1673.86,-352.93 1664.3,-357.49 1674.62,-359.89 1673.86,-352.93"/>
</g>
<!-- Node42 -->
<g id="node42" class="node">
<title>Node42</title>
<g id="a_node42"><a xlink:href="_m_l_c_l___binary_search_tree_8h.html" target="_top" xlink:title=" ">
<polygon fill="none" stroke="black" points="919,-290.5 919,-320.5 1035,-320.5 1035,-290.5 919,-290.5"/>
<text text-anchor="start" x="927" y="-308.5" font-family="Helvetica,sans-Serif" font-size="10.00">include/Trees/MLCL</text>
<text text-anchor="middle" x="977" y="-297.5" font-family="Helvetica,sans-Serif" font-size="10.00">_BinarySearchTree.h</text>
</a>
</g>
</g>
<!-- Node1&#45;&gt;Node42 -->
<g id="edge60" class="edge">
<title>Node1&#45;&gt;Node42</title>
<path fill="none" stroke="midnightblue" d="M1489.29,-356.8C1362.57,-344.36 1140.35,-322.54 1035.24,-312.22"/>
<polygon fill="midnightblue" stroke="midnightblue" points="1489.08,-360.3 1499.37,-357.79 1489.76,-353.33 1489.08,-360.3"/>
</g>
<!-- Node47 -->
<g id="node47" class="node">
<title>Node47</title>
<g id="a_node47"><a xlink:href="_m_l_c_l___b_k_tree_8h.html" target="_top" xlink:title=" ">
<polygon fill="none" stroke="black" points="1528,-290.5 1528,-320.5 1638,-320.5 1638,-290.5 1528,-290.5"/>
<text text-anchor="start" x="1536" y="-308.5" font-family="Helvetica,sans-Serif" font-size="10.00">include/Trees/MLCL</text>
<text text-anchor="middle" x="1583" y="-297.5" font-family="Helvetica,sans-Serif" font-size="10.00">_BKTree.h</text>
</a>
</g>
</g>
<!-- Node1&#45;&gt;Node47 -->
<g id="edge68" class="edge">
<title>Node1&#45;&gt;Node47</title>
<path fill="none" stroke="midnightblue" d="M1583,-347.23C1583,-338.59 1583,-328.5 1583,-320.52"/>
<polygon fill="midnightblue" stroke="midnightblue" points="1579.5,-347.48 1583,-357.48 1586.5,-347.48 1579.5,-347.48"/>
</g>
<!-- Node3&#45;&gt;Node2 -->
<g id="edge3" class="edge">
<title>Node3&#45;&gt;Node2</title>
<path fill="none" stroke="midnightblue" d="M1363.56,-228.48C1262.16,-222.19 1074.28,-206.73 1015,-176 992.38,-164.28 998.97,-145 976,-134 946.95,-120.09 494.25,-95.34 327.26,-86.63"/>
<polygon fill="midnightblue" stroke="midnightblue" points="1363.5,-231.98 1373.69,-229.09 1363.92,-224.99 1363.5,-231.98"/>
</g>
<!-- Node4 -->
<g id="node4" class="node">
<title>Node4</title>
<g id="a_node4"><a xlink:href="_m_l_c_l___array_list__test_8c.html" target="_top" xlink:title=" ">
<polygon fill="none" stroke="black" points="354.5,-140 354.5,-170 473.5,-170 473.5,-140 354.5,-140"/>
<text text-anchor="start" x="362.5" y="-158" font-family="Helvetica,sans-Serif" font-size="10.00">src/_Tests/Lists/MLCL</text>
<text text-anchor="middle" x="414" y="-147" font-family="Helvetica,sans-Serif" font-size="10.00">_ArrayList_test.c</text>
</a>
</g>
</g>
<!-- Node3&#45;&gt;Node4 -->
<g id="edge4" class="edge">
<title>Node3&#45;&gt;Node4</title>
<path fill="none" stroke="midnightblue" d="M1363.88,-227.02C1306.54,-222.77 1221.31,-216.64 1147,-212 852.03,-193.58 774.37,-225.46 483,-176 474.39,-174.54 465.33,-172.38 456.71,-170.02"/>
<polygon fill="midnightblue" stroke="midnightblue" points="1363.67,-230.51 1373.9,-227.76 1364.19,-223.53 1363.67,-230.51"/>
</g>
<!-- Node5 -->
<g id="node5" class="node">
<title>Node5</title>
<g id="a_node5"><a xlink:href="_m_l_c_l___circular_double_linked_list__test_8c.html" target="_top" xlink:title=" ">
<polygon fill="none" stroke="black" points="1999.5,-134.5 1999.5,-175.5 2142.5,-175.5 2142.5,-134.5 1999.5,-134.5"/>
<text text-anchor="start" x="2007.5" y="-163.5" font-family="Helvetica,sans-Serif" font-size="10.00">src/_Tests/Lists/MLCL</text>
<text text-anchor="start" x="2007.5" y="-152.5" font-family="Helvetica,sans-Serif" font-size="10.00">_CircularDoubleLinkedList</text>
<text text-anchor="middle" x="2071" y="-141.5" font-family="Helvetica,sans-Serif" font-size="10.00">_test.c</text>
</a>
</g>
</g>
<!-- Node3&#45;&gt;Node5 -->
<g id="edge5" class="edge">
<title>Node3&#45;&gt;Node5</title>
<path fill="none" stroke="midnightblue" d="M1496.34,-224.73C1532.07,-220.86 1576.94,-216.07 1617,-212 1783.13,-195.12 1826.43,-204.33 1991,-176 1993.68,-175.54 1996.4,-175.04 1999.14,-174.5"/>
<polygon fill="midnightblue" stroke="midnightblue" points="1495.6,-221.29 1486.03,-225.85 1496.35,-228.25 1495.6,-221.29"/>
</g>
<!-- Node6 -->
<g id="node6" class="node">
<title>Node6</title>
<g id="a_node6"><a xlink:href="_m_l_c_l___circular_linked_list__test_8c.html" target="_top" xlink:title=" ">
<polygon fill="none" stroke="black" points="2342,-140 2342,-170 2482,-170 2482,-140 2342,-140"/>
<text text-anchor="start" x="2350" y="-158" font-family="Helvetica,sans-Serif" font-size="10.00">src/_Tests/Lists/MLCL</text>
<text text-anchor="middle" x="2412" y="-147" font-family="Helvetica,sans-Serif" font-size="10.00">_CircularLinkedList_test.c</text>
</a>
</g>
</g>
<!-- Node3&#45;&gt;Node6 -->
<g id="edge6" class="edge">
<title>Node3&#45;&gt;Node6</title>
<path fill="none" stroke="midnightblue" d="M1496.66,-223.95C1532.32,-219.87 1577,-215.14 1617,-212 1934.64,-187.05 2017.91,-223.33 2333,-176 2342.79,-174.53 2353.13,-172.37 2363,-170"/>
<polygon fill="midnightblue" stroke="midnightblue" points="1495.92,-220.51 1486.38,-225.13 1496.72,-227.47 1495.92,-220.51"/>
</g>
<!-- Node7 -->
<g id="node7" class="node">
<title>Node7</title>
<g id="a_node7"><a xlink:href="_m_l_c_l___double_linked_list__test_8c.html" target="_top" xlink:title=" ">
<polygon fill="none" stroke="black" points="1707.5,-140 1707.5,-170 1844.5,-170 1844.5,-140 1707.5,-140"/>
<text text-anchor="start" x="1715.5" y="-158" font-family="Helvetica,sans-Serif" font-size="10.00">src/_Tests/Lists/MLCL</text>
<text text-anchor="middle" x="1776" y="-147" font-family="Helvetica,sans-Serif" font-size="10.00">_DoubleLinkedList_test.c</text>
</a>
</g>
</g>
<!-- Node3&#45;&gt;Node7 -->
<g id="edge7" class="edge">
<title>Node3&#45;&gt;Node7</title>
<path fill="none" stroke="midnightblue" d="M1496.44,-217.4C1558.56,-203.76 1650.71,-183.52 1712.02,-170.05"/>
<polygon fill="midnightblue" stroke="midnightblue" points="1495.37,-214.06 1486.36,-219.62 1496.87,-220.89 1495.37,-214.06"/>
</g>
<!-- Node8 -->
<g id="node8" class="node">
<title>Node8</title>
<g id="a_node8"><a xlink:href="_m_l_c_l___linked_list__test_8c.html" target="_top" xlink:title=" ">
<polygon fill="none" stroke="black" points="1862.5,-140 1862.5,-170 1981.5,-170 1981.5,-140 1862.5,-140"/>
<text text-anchor="start" x="1870.5" y="-158" font-family="Helvetica,sans-Serif" font-size="10.00">src/_Tests/Lists/MLCL</text>
<text text-anchor="middle" x="1922" y="-147" font-family="Helvetica,sans-Serif" font-size="10.00">_LinkedList_test.c</text>
</a>
</g>
</g>
<!-- Node3&#45;&gt;Node8 -->
<g id="edge8" class="edge">
<title>Node3&#45;&gt;Node8</title>
<path fill="none" stroke="midnightblue" d="M1496.4,-224.5C1598,-212.81 1787.28,-190.13 1854,-176 1861.82,-174.34 1870.06,-172.24 1877.99,-170.02"/>
<polygon fill="midnightblue" stroke="midnightblue" points="1495.79,-221.05 1486.25,-225.67 1496.58,-228 1495.79,-221.05"/>
</g>
<!-- Node9 -->
<g id="node9" class="node">
<title>Node9</title>
<g id="a_node9"><a xlink:href="_m_l_c_l___list__test_8c.html" target="_top" xlink:title=" ">
<polygon fill="none" stroke="black" points="1460.5,-67.5 1460.5,-97.5 1579.5,-97.5 1579.5,-67.5 1460.5,-67.5"/>
<text text-anchor="start" x="1468.5" y="-85.5" font-family="Helvetica,sans-Serif" font-size="10.00">src/_Tests/Lists/MLCL</text>
<text text-anchor="middle" x="1520" y="-74.5" font-family="Helvetica,sans-Serif" font-size="10.00">_List_test.c</text>
</a>
</g>
</g>
<!-- Node3&#45;&gt;Node9 -->
<g id="edge9" class="edge">
<title>Node3&#45;&gt;Node9</title>
<path fill="none" stroke="midnightblue" d="M1437.8,-208.42C1445.19,-187.83 1457.46,-157.64 1473,-134 1481.81,-120.59 1494.28,-107.38 1504.15,-97.84"/>
<polygon fill="midnightblue" stroke="midnightblue" points="1434.46,-207.35 1434.48,-217.95 1441.07,-209.65 1434.46,-207.35"/>
</g>
<!-- Node10 -->
<g id="node10" class="node">
<title>Node10</title>
<g id="a_node10"><a xlink:href="_m_l_c_l___type_descriptor__test_8c.html" target="_top" xlink:title=" ">
<polygon fill="none" stroke="black" points="1173.5,-140 1173.5,-170 1344.5,-170 1344.5,-140 1173.5,-140"/>
<text text-anchor="start" x="1181.5" y="-158" font-family="Helvetica,sans-Serif" font-size="10.00">src/_Tests/MLCL_TypeDescriptor</text>
<text text-anchor="middle" x="1259" y="-147" font-family="Helvetica,sans-Serif" font-size="10.00">_test.c</text>
</a>
</g>
</g>
<!-- Node3&#45;&gt;Node10 -->
<g id="edge10" class="edge">
<title>Node3&#45;&gt;Node10</title>
<path fill="none" stroke="midnightblue" d="M1388.82,-213.7C1358.63,-200.28 1318.25,-182.34 1290.59,-170.04"/>
<polygon fill="midnightblue" stroke="midnightblue" points="1387.67,-217.02 1398.23,-217.88 1390.52,-210.62 1387.67,-217.02"/>
</g>
<!-- Node11 -->
<g id="node11" class="node">
<title>Node11</title>
<g id="a_node11"><a xlink:href="_m_l_c_l___queue__test_8c.html" target="_top" xlink:title=" ">
<polygon fill="none" stroke="black" points="1461,-0.5 1461,-30.5 1589,-30.5 1589,-0.5 1461,-0.5"/>
<text text-anchor="start" x="1469" y="-18.5" font-family="Helvetica,sans-Serif" font-size="10.00">src/_Tests/Queue/MLCL</text>
<text text-anchor="middle" x="1525" y="-7.5" font-family="Helvetica,sans-Serif" font-size="10.00">_Queue_test.c</text>
</a>
</g>
</g>
<!-- Node3&#45;&gt;Node11 -->
<g id="edge11" class="edge">
<title>Node3&#45;&gt;Node11</title>
<path fill="none" stroke="midnightblue" d="M1427.21,-207.97C1424.49,-173.95 1424.06,-111 1451,-67 1460.74,-51.08 1477.61,-38.99 1492.78,-30.64"/>
<polygon fill="midnightblue" stroke="midnightblue" points="1423.73,-208.31 1428.14,-217.94 1430.7,-207.66 1423.73,-208.31"/>
</g>
<!-- Node12 -->
<g id="node12" class="node">
<title>Node12</title>
<g id="a_node12"><a xlink:href="_m_l_c_l___stack__test_8c.html" target="_top" xlink:title=" ">
<polygon fill="none" stroke="black" points="2082.5,-0.5 2082.5,-30.5 2205.5,-30.5 2205.5,-0.5 2082.5,-0.5"/>
<text text-anchor="start" x="2090.5" y="-18.5" font-family="Helvetica,sans-Serif" font-size="10.00">src/_Tests/Stack/MLCL</text>
<text text-anchor="middle" x="2144" y="-7.5" font-family="Helvetica,sans-Serif" font-size="10.00">_Stack_test.c</text>
</a>
</g>
</g>
<!-- Node3&#45;&gt;Node12 -->
<g id="edge12" class="edge">
<title>Node3&#45;&gt;Node12</title>
<path fill="none" stroke="midnightblue" d="M1447.1,-209.72C1469.2,-180.98 1504.96,-134.57 1506,-134 1577.34,-94.59 1791.02,-113.73 1871,-98 1956.17,-81.25 2052.87,-49.16 2105.26,-30.64"/>
<polygon fill="midnightblue" stroke="midnightblue" points="1444.33,-207.59 1441.01,-217.65 1449.88,-211.85 1444.33,-207.59"/>
</g>
<!-- Node3&#45;&gt;Node13 -->
<g id="edge13" class="edge">
<title>Node3&#45;&gt;Node13</title>
<path fill="none" stroke="midnightblue" d="M1363.61,-227.92C1251.17,-220.56 1016.23,-203.24 819,-176 803.79,-173.9 787.47,-171.14 772.24,-168.35"/>
<polygon fill="midnightblue" stroke="midnightblue" points="1363.57,-231.42 1373.78,-228.58 1364.03,-224.44 1363.57,-231.42"/>
</g>
<!-- Node14 -->
<g id="node14" class="node">
<title>Node14</title>
<g id="a_node14"><a xlink:href="_m_l_c_l___binary_search_tree__test_8c.html" target="_top" xlink:title=" ">
<polygon fill="none" stroke="black" points="828.5,-140 828.5,-170 967.5,-170 967.5,-140 828.5,-140"/>
<text text-anchor="start" x="836.5" y="-158" font-family="Helvetica,sans-Serif" font-size="10.00">src/_Tests/Trees/MLCL</text>
<text text-anchor="middle" x="898" y="-147" font-family="Helvetica,sans-Serif" font-size="10.00">_BinarySearchTree_test.c</text>
</a>
</g>
</g>
<!-- Node3&#45;&gt;Node14 -->
<g id="edge14" class="edge">
<title>Node3&#45;&gt;Node14</title>
<path fill="none" stroke="midnightblue" d="M1363.74,-226.01C1276.01,-217.55 1116.65,-200.37 982,-176 972.7,-174.32 962.9,-172.25 953.39,-170.09"/>
<polygon fill="midnightblue" stroke="midnightblue" points="1363.53,-229.5 1373.82,-226.97 1364.2,-222.53 1363.53,-229.5"/>
</g>
<!-- Node15 -->
<g id="node15" class="node">
<title>Node15</title>
<g id="a_node15"><a xlink:href="_m_l_c_l__basic__types_8c.html" target="_top" xlink:title=" ">
<polygon fill="none" stroke="black" points="1024.5,-145.5 1024.5,-164.5 1155.5,-164.5 1155.5,-145.5 1024.5,-145.5"/>
<text text-anchor="middle" x="1090" y="-152.5" font-family="Helvetica,sans-Serif" font-size="10.00">src/MLCL_basic_types.c</text>
</a>
</g>
</g>
<!-- Node3&#45;&gt;Node15 -->
<g id="edge15" class="edge">
<title>Node3&#45;&gt;Node15</title>
<path fill="none" stroke="midnightblue" d="M1363.62,-219.11C1309.67,-208.37 1231.68,-192.26 1164,-176 1149.5,-172.52 1133.53,-168.26 1120.14,-164.56"/>
<polygon fill="midnightblue" stroke="midnightblue" points="1363.25,-222.6 1373.74,-221.12 1364.62,-215.74 1363.25,-222.6"/>
</g>
<!-- Node16 -->
<g id="node16" class="node">
<title>Node16</title>
<g id="a_node16"><a xlink:href="_m_l_c_l___b_k_tree_8c.html" target="_top" xlink:title=" ">
<polygon fill="none" stroke="black" points="1515.5,-145.5 1515.5,-164.5 1650.5,-164.5 1650.5,-145.5 1515.5,-145.5"/>
<text text-anchor="middle" x="1583" y="-152.5" font-family="Helvetica,sans-Serif" font-size="10.00">src/Trees/MLCL_BKTree.c</text>
</a>
</g>
</g>
<!-- Node3&#45;&gt;Node16 -->
<g id="edge16" class="edge">
<title>Node3&#45;&gt;Node16</title>
<path fill="none" stroke="midnightblue" d="M1467.71,-213.27C1498.98,-197.73 1542.01,-176.36 1565.67,-164.61"/>
<polygon fill="midnightblue" stroke="midnightblue" points="1465.81,-210.3 1458.42,-217.88 1468.93,-216.57 1465.81,-210.3"/>
</g>
<!-- Node17 -->
<g id="node17" class="node">
<title>Node17</title>
<g id="a_node17"><a xlink:href="_m_l_c_l___ternary_search_tree_8c.html" target="_top" xlink:title=" ">
<polygon fill="none" stroke="black" points="1279.5,-0.5 1279.5,-30.5 1442.5,-30.5 1442.5,-0.5 1279.5,-0.5"/>
<text text-anchor="start" x="1287.5" y="-18.5" font-family="Helvetica,sans-Serif" font-size="10.00">src/Trees/MLCL_TernarySearch</text>
<text text-anchor="middle" x="1361" y="-7.5" font-family="Helvetica,sans-Serif" font-size="10.00">Tree.c</text>
</a>
</g>
</g>
<!-- Node3&#45;&gt;Node17 -->
<g id="edge17" class="edge">
<title>Node3&#45;&gt;Node17</title>
<path fill="none" stroke="midnightblue" d="M1414.54,-209.46C1408.33,-199.56 1401.58,-187.57 1397,-176 1376.6,-124.54 1366.39,-58.93 1362.68,-30.59"/>
<polygon fill="midnightblue" stroke="midnightblue" points="1411.63,-211.41 1420.01,-217.9 1417.51,-207.6 1411.63,-211.41"/>
</g>
<!-- Node18&#45;&gt;Node4 -->
<g id="edge19" class="edge">
<title>Node18&#45;&gt;Node4</title>
<path fill="none" stroke="midnightblue" d="M499.33,-285.37C485.21,-277.22 470.13,-266.65 459,-254 436.73,-228.71 423.53,-190.53 417.65,-170.1"/>
<polygon fill="midnightblue" stroke="midnightblue" points="497.98,-288.62 508.43,-290.37 501.35,-282.48 497.98,-288.62"/>
</g>
<!-- Node19 -->
<g id="node19" class="node">
<title>Node19</title>
<g id="a_node19"><a xlink:href="_m_l_c_l___list_8h.html" target="_top" xlink:title=" ">
<polygon fill="none" stroke="black" points="2500.5,-140 2500.5,-170 2607.5,-170 2607.5,-140 2500.5,-140"/>
<text text-anchor="start" x="2508.5" y="-158" font-family="Helvetica,sans-Serif" font-size="10.00">include/Lists/MLCL</text>
<text text-anchor="middle" x="2554" y="-147" font-family="Helvetica,sans-Serif" font-size="10.00">_List.h</text>
</a>
</g>
</g>
<!-- Node18&#45;&gt;Node19 -->
<g id="edge20" class="edge">
<title>Node18&#45;&gt;Node19</title>
<path fill="none" stroke="midnightblue" d="M603.88,-301.81C788.6,-293.94 1321.21,-270.42 1495,-254 1632.54,-241.01 1665.45,-224.95 1803,-212 2107.84,-183.29 2189.74,-230.77 2491,-176 2498.9,-174.56 2507.19,-172.42 2515.07,-170.06"/>
<polygon fill="midnightblue" stroke="midnightblue" points="603.62,-298.32 593.78,-302.24 603.92,-305.31 603.62,-298.32"/>
</g>
<!-- Node27 -->
<g id="node27" class="node">
<title>Node27</title>
<g id="a_node27"><a xlink:href="_m_l_c_l___binary_heap_8h.html" target="_top" xlink:title=" ">
<polygon fill="none" stroke="black" points="193,-218 193,-248 339,-248 339,-218 193,-218"/>
<text text-anchor="start" x="201" y="-236" font-family="Helvetica,sans-Serif" font-size="10.00">include/Heap/MLCL_Binary</text>
<text text-anchor="middle" x="266" y="-225" font-family="Helvetica,sans-Serif" font-size="10.00">Heap.h</text>
</a>
</g>
</g>
<!-- Node18&#45;&gt;Node27 -->
<g id="edge32" class="edge">
<title>Node18&#45;&gt;Node27</title>
<path fill="none" stroke="midnightblue" d="M476.38,-288.13C429.19,-275.99 365.51,-259.61 320.62,-248.05"/>
<polygon fill="midnightblue" stroke="midnightblue" points="475.63,-291.55 486.19,-290.66 477.38,-284.77 475.63,-291.55"/>
</g>
<!-- Node32 -->
<g id="node32" class="node">
<title>Node32</title>
<g id="a_node32"><a xlink:href="_m_l_c_l___array_list_8c.html" target="_top" xlink:title=" ">
<polygon fill="none" stroke="black" points="468.5,-223.5 468.5,-242.5 611.5,-242.5 611.5,-223.5 468.5,-223.5"/>
<text text-anchor="middle" x="540" y="-230.5" font-family="Helvetica,sans-Serif" font-size="10.00">src/Lists/MLCL_ArrayList.c</text>
</a>
</g>
</g>
<!-- Node18&#45;&gt;Node32 -->
<g id="edge38" class="edge">
<title>Node18&#45;&gt;Node32</title>
<path fill="none" stroke="midnightblue" d="M540,-280.09C540,-267.21 540,-252.2 540,-242.89"/>
<polygon fill="midnightblue" stroke="midnightblue" points="536.5,-280.23 540,-290.23 543.5,-280.23 536.5,-280.23"/>
</g>
<!-- Node19&#45;&gt;Node9 -->
<g id="edge21" class="edge">
<title>Node19&#45;&gt;Node9</title>
<path fill="none" stroke="midnightblue" d="M2505.53,-137.2C2500.66,-135.94 2495.76,-134.84 2491,-134 2100.21,-65.36 1993.32,-141.92 1599,-98 1592.76,-97.31 1586.27,-96.41 1579.82,-95.4"/>
<polygon fill="midnightblue" stroke="midnightblue" points="2504.84,-140.64 2515.42,-139.97 2506.73,-133.9 2504.84,-140.64"/>
</g>
<!-- Node20 -->
<g id="node20" class="node">
<title>Node20</title>
<g id="a_node20"><a xlink:href="_m_l_c_l___queue_8h.html" target="_top" xlink:title=" ">
<polygon fill="none" stroke="black" points="1746,-67.5 1746,-97.5 1862,-97.5 1862,-67.5 1746,-67.5"/>
<text text-anchor="start" x="1754" y="-85.5" font-family="Helvetica,sans-Serif" font-size="10.00">include/Queue/MLCL</text>
<text text-anchor="middle" x="1804" y="-74.5" font-family="Helvetica,sans-Serif" font-size="10.00">_Queue.h</text>
</a>
</g>
</g>
<!-- Node19&#45;&gt;Node20 -->
<g id="edge22" class="edge">
<title>Node19&#45;&gt;Node20</title>
<path fill="none" stroke="midnightblue" d="M2504.72,-137.16C2500.11,-135.95 2495.49,-134.87 2491,-134 2261.12,-89.7 1981.11,-83.62 1862.05,-83.21"/>
<polygon fill="midnightblue" stroke="midnightblue" points="2504.13,-140.63 2514.7,-139.97 2506.03,-133.89 2504.13,-140.63"/>
</g>
<!-- Node22 -->
<g id="node22" class="node">
<title>Node22</title>
<g id="a_node22"><a xlink:href="_m_l_c_l___stack_8h.html" target="_top" xlink:title=" ">
<polygon fill="none" stroke="black" points="2398.5,-67.5 2398.5,-97.5 2509.5,-97.5 2509.5,-67.5 2398.5,-67.5"/>
<text text-anchor="start" x="2406.5" y="-85.5" font-family="Helvetica,sans-Serif" font-size="10.00">include/Stack/MLCL</text>
<text text-anchor="middle" x="2454" y="-74.5" font-family="Helvetica,sans-Serif" font-size="10.00">_Stack.h</text>
</a>
</g>
</g>
<!-- Node19&#45;&gt;Node22 -->
<g id="edge25" class="edge">
<title>Node19&#45;&gt;Node22</title>
<path fill="none" stroke="midnightblue" d="M2525.53,-133.93C2509.02,-122.29 2488.64,-107.92 2473.86,-97.5"/>
<polygon fill="midnightblue" stroke="midnightblue" points="2523.57,-136.83 2533.76,-139.73 2527.6,-131.11 2523.57,-136.83"/>
</g>
<!-- Node19&#45;&gt;Node24 -->
<g id="edge28" class="edge">
<title>Node19&#45;&gt;Node24</title>
<path fill="none" stroke="midnightblue" d="M2505.32,-137.18C2500.52,-135.94 2495.69,-134.84 2491,-134 2160.78,-74.74 2069.77,-140.63 1737,-98 1734.08,-97.63 1731.11,-97.2 1728.11,-96.72"/>
<polygon fill="midnightblue" stroke="midnightblue" points="2504.5,-140.59 2515.07,-139.92 2506.39,-133.85 2504.5,-140.59"/>
</g>
<!-- Node19&#45;&gt;Node26 -->
<g id="edge31" class="edge">
<title>Node19&#45;&gt;Node26</title>
<path fill="none" stroke="midnightblue" d="M2582.22,-133.9C2601.57,-120.12 2626.27,-102.53 2640.79,-92.19"/>
<polygon fill="midnightblue" stroke="midnightblue" points="2580.15,-131.08 2574.03,-139.73 2584.21,-136.78 2580.15,-131.08"/>
</g>
<!-- Node20&#45;&gt;Node11 -->
<g id="edge23" class="edge">
<title>Node20&#45;&gt;Node11</title>
<path fill="none" stroke="midnightblue" d="M1735.97,-65.65C1689.98,-54.94 1629.79,-40.92 1585.48,-30.59"/>
<polygon fill="midnightblue" stroke="midnightblue" points="1735.31,-69.09 1745.85,-67.95 1736.9,-62.28 1735.31,-69.09"/>
</g>
<!-- Node21 -->
<g id="node21" class="node">
<title>Node21</title>
<g id="a_node21"><a xlink:href="_m_l_c_l___queue_8c.html" target="_top" xlink:title=" ">
<polygon fill="none" stroke="black" points="1769,-6 1769,-25 1909,-25 1909,-6 1769,-6"/>
<text text-anchor="middle" x="1839" y="-13" font-family="Helvetica,sans-Serif" font-size="10.00">src/Queue/MLCL_Queue.c</text>
</a>
</g>
</g>
<!-- Node20&#45;&gt;Node21 -->
<g id="edge24" class="edge">
<title>Node20&#45;&gt;Node21</title>
<path fill="none" stroke="midnightblue" d="M1816.49,-58.29C1822.68,-46.8 1829.77,-33.63 1834.31,-25.19"/>
<polygon fill="midnightblue" stroke="midnightblue" points="1813.25,-56.93 1811.59,-67.4 1819.41,-60.25 1813.25,-56.93"/>
</g>
<!-- Node22&#45;&gt;Node12 -->
<g id="edge26" class="edge">
<title>Node22&#45;&gt;Node12</title>
<path fill="none" stroke="midnightblue" d="M2388.41,-67.75C2334.47,-56.44 2258.56,-40.52 2205.71,-29.44"/>
<polygon fill="midnightblue" stroke="midnightblue" points="2387.71,-71.18 2398.22,-69.8 2389.15,-64.33 2387.71,-71.18"/>
</g>
<!-- Node23 -->
<g id="node23" class="node">
<title>Node23</title>
<g id="a_node23"><a xlink:href="_m_l_c_l___stack_8c.html" target="_top" xlink:title=" ">
<polygon fill="none" stroke="black" points="2388.5,-6 2388.5,-25 2519.5,-25 2519.5,-6 2388.5,-6"/>
<text text-anchor="middle" x="2454" y="-13" font-family="Helvetica,sans-Serif" font-size="10.00">src/Stack/MLCL_Stack.c</text>
</a>
</g>
</g>
<!-- Node22&#45;&gt;Node23 -->
<g id="edge27" class="edge">
<title>Node22&#45;&gt;Node23</title>
<path fill="none" stroke="midnightblue" d="M2454,-57.25C2454,-46.02 2454,-33.38 2454,-25.19"/>
<polygon fill="midnightblue" stroke="midnightblue" points="2450.5,-57.4 2454,-67.4 2457.5,-57.4 2450.5,-57.4"/>
</g>
<!-- Node24&#45;&gt;Node17 -->
<g id="edge30" class="edge">
<title>Node24&#45;&gt;Node17</title>
<path fill="none" stroke="midnightblue" d="M1597.71,-66.62C1546.48,-55.77 1477.53,-41.17 1427.26,-30.53"/>
<polygon fill="midnightblue" stroke="midnightblue" points="1597.2,-70.09 1607.71,-68.74 1598.65,-63.24 1597.2,-70.09"/>
</g>
<!-- Node25 -->
<g id="node25" class="node">
<title>Node25</title>
<g id="a_node25"><a xlink:href="_m_l_c_l___ternary_search_tree__test_8c.html" target="_top" xlink:title=" ">
<polygon fill="none" stroke="black" points="1607.5,-0.5 1607.5,-30.5 1750.5,-30.5 1750.5,-0.5 1607.5,-0.5"/>
<text text-anchor="start" x="1615.5" y="-18.5" font-family="Helvetica,sans-Serif" font-size="10.00">src/_Tests/Trees/MLCL</text>
<text text-anchor="middle" x="1679" y="-7.5" font-family="Helvetica,sans-Serif" font-size="10.00">_TernarySearchTree_test.c</text>
</a>
</g>
</g>
<!-- Node24&#45;&gt;Node25 -->
<g id="edge29" class="edge">
<title>Node24&#45;&gt;Node25</title>
<path fill="none" stroke="midnightblue" d="M1672.07,-57.4C1673.6,-48.37 1675.29,-38.41 1676.61,-30.58"/>
<polygon fill="midnightblue" stroke="midnightblue" points="1668.6,-56.95 1670.38,-67.4 1675.5,-58.12 1668.6,-56.95"/>
</g>
<!-- Node28 -->
<g id="node28" class="node">
<title>Node28</title>
<g id="a_node28"><a xlink:href="_m_l_c_l___binary_heap__test_8h.html" target="_top" xlink:title=" ">
<polygon fill="none" stroke="black" points="195.5,-140 195.5,-170 336.5,-170 336.5,-140 195.5,-140"/>
<text text-anchor="start" x="203.5" y="-158" font-family="Helvetica,sans-Serif" font-size="10.00">include/_Tests/Heap</text>
<text text-anchor="middle" x="266" y="-147" font-family="Helvetica,sans-Serif" font-size="10.00">/MLCL_BinaryHeap_test.h</text>
</a>
</g>
</g>
<!-- Node27&#45;&gt;Node28 -->
<g id="edge33" class="edge">
<title>Node27&#45;&gt;Node28</title>
<path fill="none" stroke="midnightblue" d="M266,-207.59C266,-195.26 266,-180.72 266,-170.23"/>
<polygon fill="midnightblue" stroke="midnightblue" points="262.5,-207.7 266,-217.7 269.5,-207.71 262.5,-207.7"/>
</g>
<!-- Node31 -->
<g id="node31" class="node">
<title>Node31</title>
<g id="a_node31"><a xlink:href="_m_l_c_l___binary_heap_8c.html" target="_top" xlink:title=" ">
<polygon fill="none" stroke="black" points="18.5,-145.5 18.5,-164.5 177.5,-164.5 177.5,-145.5 18.5,-145.5"/>
<text text-anchor="middle" x="98" y="-152.5" font-family="Helvetica,sans-Serif" font-size="10.00">src/Heap/MLCL_BinaryHeap.c</text>
</a>
</g>
</g>
<!-- Node27&#45;&gt;Node31 -->
<g id="edge37" class="edge">
<title>Node27&#45;&gt;Node31</title>
<path fill="none" stroke="midnightblue" d="M225.47,-213.67C191.06,-198.1 143.22,-176.46 117.02,-164.61"/>
<polygon fill="midnightblue" stroke="midnightblue" points="224.24,-216.95 234.79,-217.88 227.12,-210.57 224.24,-216.95"/>
</g>
<!-- Node28&#45;&gt;Node2 -->
<g id="edge34" class="edge">
<title>Node28&#45;&gt;Node2</title>
<path fill="none" stroke="midnightblue" d="M266,-129.73C266,-119.07 266,-106.91 266,-97.75"/>
<polygon fill="midnightblue" stroke="midnightblue" points="262.5,-129.73 266,-139.73 269.5,-129.73 262.5,-129.73"/>
</g>
<!-- Node29 -->
<g id="node29" class="node">
<title>Node29</title>
<g id="a_node29"><a xlink:href="_m_l_c_l__all__tests_8h.html" target="_top" xlink:title=" ">
<polygon fill="none" stroke="black" points="544,-67.5 544,-97.5 658,-97.5 658,-67.5 544,-67.5"/>
<text text-anchor="start" x="552" y="-85.5" font-family="Helvetica,sans-Serif" font-size="10.00">include/_Tests/MLCL</text>
<text text-anchor="middle" x="601" y="-74.5" font-family="Helvetica,sans-Serif" font-size="10.00">_all_tests.h</text>
</a>
</g>
</g>
<!-- Node28&#45;&gt;Node29 -->
<g id="edge35" class="edge">
<title>Node28&#45;&gt;Node29</title>
<path fill="none" stroke="midnightblue" d="M329.76,-137.55C334.91,-136.31 340.03,-135.12 345,-134 413.06,-118.68 491.87,-103.52 543.87,-93.87"/>
<polygon fill="midnightblue" stroke="midnightblue" points="328.76,-134.19 319.87,-139.95 330.42,-140.99 328.76,-134.19"/>
</g>
<!-- Node30 -->
<g id="node30" class="node">
<title>Node30</title>
<g id="a_node30"><a xlink:href="_m_l_c_l__all__tests_8c.html" target="_top" xlink:title=" ">
<polygon fill="none" stroke="black" points="546,-0.5 546,-30.5 656,-30.5 656,-0.5 546,-0.5"/>
<text text-anchor="start" x="554" y="-18.5" font-family="Helvetica,sans-Serif" font-size="10.00">src/_Tests/MLCL_all</text>
<text text-anchor="middle" x="601" y="-7.5" font-family="Helvetica,sans-Serif" font-size="10.00">_tests.c</text>
</a>
</g>
</g>
<!-- Node29&#45;&gt;Node30 -->
<g id="edge36" class="edge">
<title>Node29&#45;&gt;Node30</title>
<path fill="none" stroke="midnightblue" d="M601,-57.11C601,-48.15 601,-38.32 601,-30.58"/>
<polygon fill="midnightblue" stroke="midnightblue" points="597.5,-57.4 601,-67.4 604.5,-57.4 597.5,-57.4"/>
</g>
<!-- Node33&#45;&gt;Node7 -->
<g id="edge44" class="edge">
<title>Node33&#45;&gt;Node7</title>
<path fill="none" stroke="midnightblue" d="M1842.92,-285.76C1828.3,-277.89 1813.33,-267.4 1803,-254 1783.6,-228.84 1778.13,-190.61 1776.59,-170.13"/>
<polygon fill="midnightblue" stroke="midnightblue" points="1841.43,-288.92 1851.94,-290.31 1844.59,-282.68 1841.43,-288.92"/>
</g>
<!-- Node33&#45;&gt;Node19 -->
<g id="edge45" class="edge">
<title>Node33&#45;&gt;Node19</title>
<path fill="none" stroke="midnightblue" d="M1957.26,-289.93C2079.12,-270.46 2119.66,-300.11 2230,-254 2258.05,-242.28 2256.19,-224.3 2284,-212 2369.39,-174.21 2400.29,-198.18 2491,-176 2498.02,-174.28 2505.4,-172.2 2512.54,-170.03"/>
<polygon fill="midnightblue" stroke="midnightblue" points="1956.46,-286.52 1947.17,-291.62 1957.62,-293.42 1956.46,-286.52"/>
</g>
<!-- Node34 -->
<g id="node34" class="node">
<title>Node34</title>
<g id="a_node34"><a xlink:href="_m_l_c_l___circular_double_linked_list_8h.html" target="_top" xlink:title=" ">
<polygon fill="none" stroke="black" points="2069,-218 2069,-248 2221,-248 2221,-218 2069,-218"/>
<text text-anchor="start" x="2077" y="-236" font-family="Helvetica,sans-Serif" font-size="10.00">include/Lists/MLCL</text>
<text text-anchor="middle" x="2145" y="-225" font-family="Helvetica,sans-Serif" font-size="10.00">_CircularDoubleLinkedList.h</text>
</a>
</g>
</g>
<!-- Node33&#45;&gt;Node34 -->
<g id="edge40" class="edge">
<title>Node33&#45;&gt;Node34</title>
<path fill="none" stroke="midnightblue" d="M1950.34,-287.82C1994.07,-275.73 2052.56,-259.56 2093.97,-248.11"/>
<polygon fill="midnightblue" stroke="midnightblue" points="1949.39,-284.45 1940.68,-290.49 1951.25,-291.2 1949.39,-284.45"/>
</g>
<!-- Node35 -->
<g id="node35" class="node">
<title>Node35</title>
<g id="a_node35"><a xlink:href="_m_l_c_l___circular_double_linked_list_8c.html" target="_top" xlink:title=" ">
<polygon fill="none" stroke="black" points="2160.5,-140 2160.5,-170 2323.5,-170 2323.5,-140 2160.5,-140"/>
<text text-anchor="start" x="2168.5" y="-158" font-family="Helvetica,sans-Serif" font-size="10.00">src/Lists/MLCL_CircularDouble</text>
<text text-anchor="middle" x="2242" y="-147" font-family="Helvetica,sans-Serif" font-size="10.00">LinkedList.c</text>
</a>
</g>
</g>
<!-- Node33&#45;&gt;Node35 -->
<g id="edge46" class="edge">
<title>Node33&#45;&gt;Node35</title>
<path fill="none" stroke="midnightblue" d="M1923.29,-285.35C1964.68,-261.73 2033.15,-223.3 2060,-212 2101.13,-194.69 2149.49,-180.06 2186.02,-170.1"/>
<polygon fill="midnightblue" stroke="midnightblue" points="1921.34,-282.43 1914.4,-290.44 1924.81,-288.51 1921.34,-282.43"/>
</g>
<!-- Node36 -->
<g id="node36" class="node">
<title>Node36</title>
<g id="a_node36"><a xlink:href="_m_l_c_l___double_linked_list_8c.html" target="_top" xlink:title=" ">
<polygon fill="none" stroke="black" points="1811.5,-218 1811.5,-248 1968.5,-248 1968.5,-218 1811.5,-218"/>
<text text-anchor="start" x="1819.5" y="-236" font-family="Helvetica,sans-Serif" font-size="10.00">src/Lists/MLCL_DoubleLinked</text>
<text text-anchor="middle" x="1890" y="-225" font-family="Helvetica,sans-Serif" font-size="10.00">List.c</text>
</a>
</g>
</g>
<!-- Node33&#45;&gt;Node36 -->
<g id="edge47" class="edge">
<title>Node33&#45;&gt;Node36</title>
<path fill="none" stroke="midnightblue" d="M1890,-280.23C1890,-269.57 1890,-257.41 1890,-248.25"/>
<polygon fill="midnightblue" stroke="midnightblue" points="1886.5,-280.23 1890,-290.23 1893.5,-280.23 1886.5,-280.23"/>
</g>
<!-- Node34&#45;&gt;Node5 -->
<g id="edge41" class="edge">
<title>Node34&#45;&gt;Node5</title>
<path fill="none" stroke="midnightblue" d="M2123.8,-210.23C2113.2,-199.34 2100.46,-186.26 2090.16,-175.68"/>
<polygon fill="midnightblue" stroke="midnightblue" points="2121.59,-212.98 2131.08,-217.7 2126.61,-208.1 2121.59,-212.98"/>
</g>
<!-- Node34&#45;&gt;Node19 -->
<g id="edge42" class="edge">
<title>Node34&#45;&gt;Node19</title>
<path fill="none" stroke="midnightblue" d="M2215.94,-215.86C2222.7,-214.49 2229.47,-213.18 2236,-212 2348.64,-191.7 2379.39,-201.4 2491,-176 2498.27,-174.34 2505.91,-172.24 2513.26,-170.02"/>
<polygon fill="midnightblue" stroke="midnightblue" points="2215.14,-212.45 2206.05,-217.91 2216.56,-219.31 2215.14,-212.45"/>
</g>
<!-- Node34&#45;&gt;Node35 -->
<g id="edge43" class="edge">
<title>Node34&#45;&gt;Node35</title>
<path fill="none" stroke="midnightblue" d="M2171.47,-211.25C2188.09,-198.23 2209.09,-181.78 2223.83,-170.23"/>
<polygon fill="midnightblue" stroke="midnightblue" points="2168.95,-208.78 2163.24,-217.7 2173.27,-214.29 2168.95,-208.78"/>
</g>
<!-- Node37&#45;&gt;Node8 -->
<g id="edge53" class="edge">
<title>Node37&#45;&gt;Node8</title>
<path fill="none" stroke="midnightblue" d="M2224,-297.28C2177.08,-290.35 2112.64,-277.37 2060,-254 2010.85,-232.18 1961.45,-191.48 1937.27,-170.04"/>
<polygon fill="midnightblue" stroke="midnightblue" points="2223.64,-300.77 2234.04,-298.71 2224.63,-293.84 2223.64,-300.77"/>
</g>
<!-- Node37&#45;&gt;Node19 -->
<g id="edge54" class="edge">
<title>Node37&#45;&gt;Node19</title>
<path fill="none" stroke="midnightblue" d="M2286.1,-280.32C2285.86,-259.35 2289.14,-229.69 2307,-212 2366.19,-153.35 2410.26,-196.64 2491,-176 2497.89,-174.24 2505.14,-172.16 2512.17,-170.01"/>
<polygon fill="midnightblue" stroke="midnightblue" points="2282.6,-280.52 2286.48,-290.37 2289.6,-280.25 2282.6,-280.52"/>
</g>
<!-- Node38 -->
<g id="node38" class="node">
<title>Node38</title>
<g id="a_node38"><a xlink:href="_m_l_c_l___circular_linked_list_8h.html" target="_top" xlink:title=" ">
<polygon fill="none" stroke="black" points="2482.5,-218 2482.5,-248 2599.5,-248 2599.5,-218 2482.5,-218"/>
<text text-anchor="start" x="2490.5" y="-236" font-family="Helvetica,sans-Serif" font-size="10.00">include/Lists/MLCL</text>
<text text-anchor="middle" x="2541" y="-225" font-family="Helvetica,sans-Serif" font-size="10.00">_CircularLinkedList.h</text>
</a>
</g>
</g>
<!-- Node37&#45;&gt;Node38 -->
<g id="edge49" class="edge">
<title>Node37&#45;&gt;Node38</title>
<path fill="none" stroke="midnightblue" d="M2350.55,-287.75C2386.43,-278.06 2432.3,-265.54 2473,-254 2479.63,-252.12 2486.61,-250.11 2493.47,-248.11"/>
<polygon fill="midnightblue" stroke="midnightblue" points="2349.45,-284.42 2340.7,-290.41 2351.27,-291.18 2349.45,-284.42"/>
</g>
<!-- Node40 -->
<g id="node40" class="node">
<title>Node40</title>
<g id="a_node40"><a xlink:href="_m_l_c_l___linked_list_8c.html" target="_top" xlink:title=" ">
<polygon fill="none" stroke="black" points="2316,-223.5 2316,-242.5 2464,-242.5 2464,-223.5 2316,-223.5"/>
<text text-anchor="middle" x="2390" y="-230.5" font-family="Helvetica,sans-Serif" font-size="10.00">src/Lists/MLCL_LinkedList.c</text>
</a>
</g>
</g>
<!-- Node37&#45;&gt;Node40 -->
<g id="edge55" class="edge">
<title>Node37&#45;&gt;Node40</title>
<path fill="none" stroke="midnightblue" d="M2317.07,-284.4C2337.01,-270.62 2362.46,-253.03 2377.42,-242.69"/>
<polygon fill="midnightblue" stroke="midnightblue" points="2314.87,-281.67 2308.64,-290.23 2318.85,-287.43 2314.87,-281.67"/>
</g>
<!-- Node38&#45;&gt;Node6 -->
<g id="edge50" class="edge">
<title>Node38&#45;&gt;Node6</title>
<path fill="none" stroke="midnightblue" d="M2508.14,-212.64C2485.58,-199.35 2456.16,-182.02 2435.83,-170.04"/>
<polygon fill="midnightblue" stroke="midnightblue" points="2506.64,-215.82 2517.03,-217.88 2510.19,-209.79 2506.64,-215.82"/>
</g>
<!-- Node38&#45;&gt;Node19 -->
<g id="edge51" class="edge">
<title>Node38&#45;&gt;Node19</title>
<path fill="none" stroke="midnightblue" d="M2545.17,-207.59C2547.28,-195.26 2549.77,-180.72 2551.56,-170.23"/>
<polygon fill="midnightblue" stroke="midnightblue" points="2541.68,-207.26 2543.44,-217.7 2548.58,-208.44 2541.68,-207.26"/>
</g>
<!-- Node39 -->
<g id="node39" class="node">
<title>Node39</title>
<g id="a_node39"><a xlink:href="_m_l_c_l___circular_linked_list_8c.html" target="_top" xlink:title=" ">
<polygon fill="none" stroke="black" points="2626,-140 2626,-170 2786,-170 2786,-140 2626,-140"/>
<text text-anchor="start" x="2634" y="-158" font-family="Helvetica,sans-Serif" font-size="10.00">src/Lists/MLCL_CircularLinked</text>
<text text-anchor="middle" x="2706" y="-147" font-family="Helvetica,sans-Serif" font-size="10.00">List.c</text>
</a>
</g>
</g>
<!-- Node38&#45;&gt;Node39 -->
<g id="edge52" class="edge">
<title>Node38&#45;&gt;Node39</title>
<path fill="none" stroke="midnightblue" d="M2580.73,-213.7C2609.86,-200.28 2648.82,-182.34 2675.51,-170.04"/>
<polygon fill="midnightblue" stroke="midnightblue" points="2579.26,-210.52 2571.64,-217.88 2582.19,-216.88 2579.26,-210.52"/>
</g>
<!-- Node43 -->
<g id="node43" class="node">
<title>Node43</title>
<g id="a_node43"><a xlink:href="_m_l_c_l___a_v_l_tree_8h.html" target="_top" xlink:title=" ">
<polygon fill="none" stroke="black" points="656,-218 656,-248 766,-248 766,-218 656,-218"/>
<text text-anchor="start" x="664" y="-236" font-family="Helvetica,sans-Serif" font-size="10.00">include/Trees/MLCL</text>
<text text-anchor="middle" x="711" y="-225" font-family="Helvetica,sans-Serif" font-size="10.00">_AVLTree.h</text>
</a>
</g>
</g>
<!-- Node42&#45;&gt;Node43 -->
<g id="edge61" class="edge">
<title>Node42&#45;&gt;Node43</title>
<path fill="none" stroke="midnightblue" d="M914.34,-287.89C868.69,-275.79 807.51,-259.58 764.22,-248.11"/>
<polygon fill="midnightblue" stroke="midnightblue" points="913.56,-291.31 924.12,-290.49 915.35,-284.54 913.56,-291.31"/>
</g>
<!-- Node45 -->
<g id="node45" class="node">
<title>Node45</title>
<g id="a_node45"><a xlink:href="_m_l_c_l___binary_search_tree__test_8h.html" target="_top" xlink:title=" ">
<polygon fill="none" stroke="black" points="826,-212.5 826,-253.5 962,-253.5 962,-212.5 826,-212.5"/>
<text text-anchor="start" x="834" y="-241.5" font-family="Helvetica,sans-Serif" font-size="10.00">include/_Tests/Trees</text>
<text text-anchor="start" x="834" y="-230.5" font-family="Helvetica,sans-Serif" font-size="10.00">/MLCL_BinarySearchTree</text>
<text text-anchor="middle" x="894" y="-219.5" font-family="Helvetica,sans-Serif" font-size="10.00">_test.h</text>
</a>
</g>
</g>
<!-- Node42&#45;&gt;Node45 -->
<g id="edge64" class="edge">
<title>Node42&#45;&gt;Node45</title>
<path fill="none" stroke="midnightblue" d="M952.46,-283.66C941.26,-274.15 928.07,-262.94 917.06,-253.59"/>
<polygon fill="midnightblue" stroke="midnightblue" points="950.31,-286.43 960.2,-290.23 954.84,-281.09 950.31,-286.43"/>
</g>
<!-- Node46 -->
<g id="node46" class="node">
<title>Node46</title>
<g id="a_node46"><a xlink:href="_m_l_c_l___binary_search_tree_8c.html" target="_top" xlink:title=" ">
<polygon fill="none" stroke="black" points="980,-218 980,-248 1138,-248 1138,-218 980,-218"/>
<text text-anchor="start" x="988" y="-236" font-family="Helvetica,sans-Serif" font-size="10.00">src/Trees/MLCL_BinarySearch</text>
<text text-anchor="middle" x="1059" y="-225" font-family="Helvetica,sans-Serif" font-size="10.00">Tree.c</text>
</a>
</g>
</g>
<!-- Node42&#45;&gt;Node46 -->
<g id="edge67" class="edge">
<title>Node42&#45;&gt;Node46</title>
<path fill="none" stroke="midnightblue" d="M1001.46,-283.46C1014.79,-272 1030.92,-258.14 1042.71,-248"/>
<polygon fill="midnightblue" stroke="midnightblue" points="998.89,-281.06 993.59,-290.23 1003.45,-286.37 998.89,-281.06"/>
</g>
<!-- Node43&#45;&gt;Node13 -->
<g id="edge62" class="edge">
<title>Node43&#45;&gt;Node13</title>
<path fill="none" stroke="midnightblue" d="M711,-207.59C711,-195.26 711,-180.72 711,-170.23"/>
<polygon fill="midnightblue" stroke="midnightblue" points="707.5,-207.7 711,-217.7 714.5,-207.71 707.5,-207.7"/>
</g>
<!-- Node44 -->
<g id="node44" class="node">
<title>Node44</title>
<g id="a_node44"><a xlink:href="_m_l_c_l___a_v_l_tree_8c.html" target="_top" xlink:title=" ">
<polygon fill="none" stroke="black" points="492,-145.5 492,-164.5 632,-164.5 632,-145.5 492,-145.5"/>
<text text-anchor="middle" x="562" y="-152.5" font-family="Helvetica,sans-Serif" font-size="10.00">src/Trees/MLCL_AVLTree.c</text>
</a>
</g>
</g>
<!-- Node43&#45;&gt;Node44 -->
<g id="edge63" class="edge">
<title>Node43&#45;&gt;Node44</title>
<path fill="none" stroke="midnightblue" d="M674.27,-213.27C643.81,-197.73 601.9,-176.36 578.87,-164.61"/>
<polygon fill="midnightblue" stroke="midnightblue" points="672.82,-216.46 683.32,-217.88 676,-210.22 672.82,-216.46"/>
</g>
<!-- Node45&#45;&gt;Node14 -->
<g id="edge66" class="edge">
<title>Node45&#45;&gt;Node14</title>
<path fill="none" stroke="midnightblue" d="M895.56,-202.28C896.14,-191.25 896.77,-179.25 897.25,-170.23"/>
<polygon fill="midnightblue" stroke="midnightblue" points="892.06,-202.26 895.03,-212.43 899.05,-202.63 892.06,-202.26"/>
</g>
<!-- Node45&#45;&gt;Node29 -->
<g id="edge65" class="edge">
<title>Node45&#45;&gt;Node29</title>
<path fill="none" stroke="midnightblue" d="M856.82,-206.45C844.38,-197.33 830.71,-186.66 819,-176 800.38,-159.06 802.4,-147.25 781,-134 743.61,-110.85 695.37,-98.06 658.24,-91.14"/>
<polygon fill="midnightblue" stroke="midnightblue" points="855.04,-209.48 865.2,-212.49 859.14,-203.8 855.04,-209.48"/>
</g>
<!-- Node47&#45;&gt;Node16 -->
<g id="edge69" class="edge">
<title>Node47&#45;&gt;Node16</title>
<path fill="none" stroke="midnightblue" d="M1583,-279.87C1583,-246.11 1583,-187.11 1583,-164.85"/>
<polygon fill="midnightblue" stroke="midnightblue" points="1579.5,-280.26 1583,-290.26 1586.5,-280.26 1579.5,-280.26"/>
</g>
</g>
</svg>
