<?xml version="1.0" encoding="UTF-8" standalone="no"?>
<!DOCTYPE svg PUBLIC "-//W3C//DTD SVG 1.1//EN"
 "http://www.w3.org/Graphics/SVG/1.1/DTD/svg11.dtd">
<!-- Generated by graphviz version 2.43.0 (0)
 -->
<!-- Title: src/MLCL_CircularDoubleLinkedList.c Pages: 1 -->
<svg width="268pt" height="274pt"
 viewBox="0.00 0.00 267.50 274.00" xmlns="http://www.w3.org/2000/svg" xmlns:xlink="http://www.w3.org/1999/xlink">
<g id="graph0" class="graph" transform="scale(1 1) rotate(0) translate(4 270)">
<title>src/MLCL_CircularDoubleLinkedList.c</title>
<!-- Node1 -->
<g id="node1" class="node">
<title>Node1</title>
<g id="a_node1"><a xlink:title=" ">
<polygon fill="#bfbfbf" stroke="black" points="29,-235.5 29,-265.5 198,-265.5 198,-235.5 29,-235.5"/>
<text text-anchor="start" x="37" y="-253.5" font-family="Helvetica,sans-Serif" font-size="10.00">src/MLCL_CircularDoubleLinked</text>
<text text-anchor="middle" x="113.5" y="-242.5" font-family="Helvetica,sans-Serif" font-size="10.00">List.c</text>
</a>
</g>
</g>
<!-- Node2 -->
<g id="node2" class="node">
<title>Node2</title>
<g id="a_node2"><a xlink:href="_m_l_c_l___circular_double_linked_list_8h.html" target="_top" xlink:title=" ">
<polygon fill="none" stroke="black" points="0,-168.5 0,-198.5 133,-198.5 133,-168.5 0,-168.5"/>
<text text-anchor="start" x="8" y="-186.5" font-family="Helvetica,sans-Serif" font-size="10.00">../include/MLCL_Circular</text>
<text text-anchor="middle" x="66.5" y="-175.5" font-family="Helvetica,sans-Serif" font-size="10.00">DoubleLinkedList.h</text>
</a>
</g>
</g>
<!-- Node1&#45;&gt;Node2 -->
<g id="edge1" class="edge">
<title>Node1&#45;&gt;Node2</title>
<path fill="none" stroke="midnightblue" d="M103.3,-235.4C97.27,-227.05 89.48,-216.29 82.63,-206.81"/>
<polygon fill="midnightblue" stroke="midnightblue" points="85.37,-204.63 76.68,-198.58 79.7,-208.73 85.37,-204.63"/>
</g>
<!-- Node3 -->
<g id="node3" class="node">
<title>Node3</title>
<g id="a_node3"><a xlink:href="_m_l_c_l___double_linked_list_8h.html" target="_top" xlink:title=" ">
<polygon fill="none" stroke="black" points="43.5,-112.5 43.5,-131.5 183.5,-131.5 183.5,-112.5 43.5,-112.5"/>
<text text-anchor="middle" x="113.5" y="-119.5" font-family="Helvetica,sans-Serif" font-size="10.00">MLCL_DoubleLinkedList.h</text>
</a>
</g>
</g>
<!-- Node1&#45;&gt;Node3 -->
<g id="edge7" class="edge">
<title>Node1&#45;&gt;Node3</title>
<path fill="none" stroke="midnightblue" d="M123.94,-235.31C130.4,-225.63 138.09,-212.2 141.5,-199 144.95,-185.66 145.29,-181.25 141.5,-168 138.6,-157.84 132.67,-147.75 127.01,-139.7"/>
<polygon fill="midnightblue" stroke="midnightblue" points="129.72,-137.48 120.91,-131.59 124.12,-141.69 129.72,-137.48"/>
</g>
<!-- Node2&#45;&gt;Node3 -->
<g id="edge2" class="edge">
<title>Node2&#45;&gt;Node3</title>
<path fill="none" stroke="midnightblue" d="M77.64,-168.4C84.47,-159.75 93.24,-148.64 100.41,-139.58"/>
<polygon fill="midnightblue" stroke="midnightblue" points="103.21,-141.67 106.66,-131.66 97.72,-137.34 103.21,-141.67"/>
</g>
<!-- Node4 -->
<g id="node4" class="node">
<title>Node4</title>
<g id="a_node4"><a xlink:title=" ">
<polygon fill="none" stroke="#bfbfbf" points="52,-0.5 52,-19.5 105,-19.5 105,-0.5 52,-0.5"/>
<text text-anchor="middle" x="78.5" y="-7.5" font-family="Helvetica,sans-Serif" font-size="10.00">stdlib.h</text>
</a>
</g>
</g>
<!-- Node3&#45;&gt;Node4 -->
<g id="edge3" class="edge">
<title>Node3&#45;&gt;Node4</title>
<path fill="none" stroke="midnightblue" d="M102.51,-112.37C93.05,-104.17 80.06,-90.92 74.5,-76 68.94,-61.1 70.7,-42.96 73.41,-29.63"/>
<polygon fill="midnightblue" stroke="midnightblue" points="76.85,-30.28 75.77,-19.74 70.04,-28.66 76.85,-30.28"/>
</g>
<!-- Node5 -->
<g id="node5" class="node">
<title>Node5</title>
<g id="a_node5"><a xlink:href="_m_l_c_l___type_descriptor_8h.html" target="_top" xlink:title=" ">
<polygon fill="none" stroke="black" points="83.5,-56.5 83.5,-75.5 259.5,-75.5 259.5,-56.5 83.5,-56.5"/>
<text text-anchor="middle" x="171.5" y="-63.5" font-family="Helvetica,sans-Serif" font-size="10.00">../include/MLCL_TypeDescriptor.h</text>
</a>
</g>
</g>
<!-- Node3&#45;&gt;Node5 -->
<g id="edge4" class="edge">
<title>Node3&#45;&gt;Node5</title>
<path fill="none" stroke="midnightblue" d="M122.82,-112.32C131.39,-104.34 144.31,-92.31 154.69,-82.65"/>
<polygon fill="midnightblue" stroke="midnightblue" points="157.08,-85.21 162.01,-75.83 152.31,-80.09 157.08,-85.21"/>
</g>
<!-- Node5&#45;&gt;Node4 -->
<g id="edge5" class="edge">
<title>Node5&#45;&gt;Node4</title>
<path fill="none" stroke="midnightblue" d="M156.56,-56.32C141.91,-47.82 119.37,-34.73 102.26,-24.8"/>
<polygon fill="midnightblue" stroke="midnightblue" points="103.81,-21.65 93.4,-19.65 100.3,-27.7 103.81,-21.65"/>
</g>
<!-- Node6 -->
<g id="node6" class="node">
<title>Node6</title>
<g id="a_node6"><a xlink:title=" ">
<polygon fill="none" stroke="#bfbfbf" points="146.5,-0.5 146.5,-19.5 196.5,-19.5 196.5,-0.5 146.5,-0.5"/>
<text text-anchor="middle" x="171.5" y="-7.5" font-family="Helvetica,sans-Serif" font-size="10.00">stdio.h</text>
</a>
</g>
</g>
<!-- Node5&#45;&gt;Node6 -->
<g id="edge6" class="edge">
<title>Node5&#45;&gt;Node6</title>
<path fill="none" stroke="midnightblue" d="M171.5,-56.08C171.5,-49.01 171.5,-38.86 171.5,-29.99"/>
<polygon fill="midnightblue" stroke="midnightblue" points="175,-29.75 171.5,-19.75 168,-29.75 175,-29.75"/>
</g>
</g>
</svg>
