<?xml version="1.0" encoding="UTF-8" standalone="no"?>
<!DOCTYPE svg PUBLIC "-//W3C//DTD SVG 1.1//EN"
 "http://www.w3.org/Graphics/SVG/1.1/DTD/svg11.dtd">
<!-- Generated by graphviz version 2.43.0 (0)
 -->
<!-- Title: src/MLCL_DoubleLinkedList.c Pages: 1 -->
<svg width="422pt" height="207pt"
 viewBox="0.00 0.00 422.00 207.00" xmlns="http://www.w3.org/2000/svg" xmlns:xlink="http://www.w3.org/1999/xlink">
<g id="graph0" class="graph" transform="scale(1 1) rotate(0) translate(4 203)">
<title>src/MLCL_DoubleLinkedList.c</title>
<!-- Node1 -->
<g id="node1" class="node">
<title>Node1</title>
<g id="a_node1"><a xlink:title=" ">
<polygon fill="#bfbfbf" stroke="black" points="180,-179.5 180,-198.5 337,-198.5 337,-179.5 180,-179.5"/>
<text text-anchor="middle" x="258.5" y="-186.5" font-family="Helvetica,sans-Serif" font-size="10.00">src/MLCL_DoubleLinkedList.c</text>
</a>
</g>
</g>
<!-- Node2 -->
<g id="node2" class="node">
<title>Node2</title>
<g id="a_node2"><a xlink:href="_m_l_c_l___double_linked_list_8h.html" target="_top" xlink:title=" ">
<polygon fill="none" stroke="black" points="62,-112.5 62,-142.5 223,-142.5 223,-112.5 62,-112.5"/>
<text text-anchor="start" x="70" y="-130.5" font-family="Helvetica,sans-Serif" font-size="10.00">../include/MLCL_DoubleLinked</text>
<text text-anchor="middle" x="142.5" y="-119.5" font-family="Helvetica,sans-Serif" font-size="10.00">List.h</text>
</a>
</g>
</g>
<!-- Node1&#45;&gt;Node2 -->
<g id="edge1" class="edge">
<title>Node1&#45;&gt;Node2</title>
<path fill="none" stroke="midnightblue" d="M241.88,-179.48C225.51,-171.08 199.96,-157.97 178.87,-147.15"/>
<polygon fill="midnightblue" stroke="midnightblue" points="180.33,-143.97 169.84,-142.52 177.14,-150.2 180.33,-143.97"/>
</g>
<!-- Node3 -->
<g id="node3" class="node">
<title>Node3</title>
<g id="a_node3"><a xlink:title=" ">
<polygon fill="none" stroke="#bfbfbf" points="0,-0.5 0,-19.5 53,-19.5 53,-0.5 0,-0.5"/>
<text text-anchor="middle" x="26.5" y="-7.5" font-family="Helvetica,sans-Serif" font-size="10.00">stdlib.h</text>
</a>
</g>
</g>
<!-- Node1&#45;&gt;Node3 -->
<g id="edge9" class="edge">
<title>Node1&#45;&gt;Node3</title>
<path fill="none" stroke="midnightblue" d="M182.66,-179.46C132.1,-172.3 71.54,-160.42 52.5,-143 20.86,-114.05 21.23,-58.72 23.97,-29.74"/>
<polygon fill="midnightblue" stroke="midnightblue" points="27.46,-30.06 25.12,-19.72 20.5,-29.26 27.46,-30.06"/>
</g>
<!-- Node5 -->
<g id="node5" class="node">
<title>Node5</title>
<g id="a_node5"><a xlink:title=" ">
<polygon fill="none" stroke="#bfbfbf" points="175.5,-0.5 175.5,-19.5 225.5,-19.5 225.5,-0.5 175.5,-0.5"/>
<text text-anchor="middle" x="200.5" y="-7.5" font-family="Helvetica,sans-Serif" font-size="10.00">stdio.h</text>
</a>
</g>
</g>
<!-- Node1&#45;&gt;Node5 -->
<g id="edge8" class="edge">
<title>Node1&#45;&gt;Node5</title>
<path fill="none" stroke="midnightblue" d="M258.9,-179.19C259.54,-157.27 259.13,-98.96 239.5,-56 234.47,-45 225.9,-34.65 218.06,-26.66"/>
<polygon fill="midnightblue" stroke="midnightblue" points="220.27,-23.93 210.64,-19.52 215.42,-28.97 220.27,-23.93"/>
</g>
<!-- Node6 -->
<g id="node6" class="node">
<title>Node6</title>
<g id="a_node6"><a xlink:title=" ">
<polygon fill="none" stroke="#bfbfbf" points="286.5,-118 286.5,-137 342.5,-137 342.5,-118 286.5,-118"/>
<text text-anchor="middle" x="314.5" y="-125" font-family="Helvetica,sans-Serif" font-size="10.00">assert.h</text>
</a>
</g>
</g>
<!-- Node1&#45;&gt;Node6 -->
<g id="edge6" class="edge">
<title>Node1&#45;&gt;Node6</title>
<path fill="none" stroke="midnightblue" d="M266.52,-179.48C275.09,-170.37 288.86,-155.74 299.46,-144.48"/>
<polygon fill="midnightblue" stroke="midnightblue" points="302.19,-146.69 306.49,-137.01 297.09,-141.89 302.19,-146.69"/>
</g>
<!-- Node7 -->
<g id="node7" class="node">
<title>Node7</title>
<g id="a_node7"><a xlink:title=" ">
<polygon fill="none" stroke="#bfbfbf" points="361,-118 361,-137 414,-137 414,-118 361,-118"/>
<text text-anchor="middle" x="387.5" y="-125" font-family="Helvetica,sans-Serif" font-size="10.00">string.h</text>
</a>
</g>
</g>
<!-- Node1&#45;&gt;Node7 -->
<g id="edge7" class="edge">
<title>Node1&#45;&gt;Node7</title>
<path fill="none" stroke="midnightblue" d="M276.98,-179.48C298.63,-169.49 334.71,-152.85 359.73,-141.31"/>
<polygon fill="midnightblue" stroke="midnightblue" points="361.44,-144.38 369.05,-137.01 358.51,-138.02 361.44,-144.38"/>
</g>
<!-- Node2&#45;&gt;Node3 -->
<g id="edge2" class="edge">
<title>Node2&#45;&gt;Node3</title>
<path fill="none" stroke="midnightblue" d="M98.26,-112.35C79.61,-104.36 59.12,-92.58 45.5,-76 34.67,-62.81 30.01,-43.67 28.01,-29.58"/>
<polygon fill="midnightblue" stroke="midnightblue" points="31.48,-29.12 26.91,-19.57 24.52,-29.89 31.48,-29.12"/>
</g>
<!-- Node4 -->
<g id="node4" class="node">
<title>Node4</title>
<g id="a_node4"><a xlink:href="_m_l_c_l___type_descriptor_8h.html" target="_top" xlink:title=" ">
<polygon fill="none" stroke="black" points="54.5,-56.5 54.5,-75.5 230.5,-75.5 230.5,-56.5 54.5,-56.5"/>
<text text-anchor="middle" x="142.5" y="-63.5" font-family="Helvetica,sans-Serif" font-size="10.00">../include/MLCL_TypeDescriptor.h</text>
</a>
</g>
</g>
<!-- Node2&#45;&gt;Node4 -->
<g id="edge3" class="edge">
<title>Node2&#45;&gt;Node4</title>
<path fill="none" stroke="midnightblue" d="M142.5,-112.4C142.5,-104.47 142.5,-94.46 142.5,-85.86"/>
<polygon fill="midnightblue" stroke="midnightblue" points="146,-85.66 142.5,-75.66 139,-85.66 146,-85.66"/>
</g>
<!-- Node4&#45;&gt;Node3 -->
<g id="edge4" class="edge">
<title>Node4&#45;&gt;Node3</title>
<path fill="none" stroke="midnightblue" d="M124.12,-56.44C105.28,-47.68 75.77,-33.94 54.12,-23.86"/>
<polygon fill="midnightblue" stroke="midnightblue" points="55.34,-20.56 44.79,-19.52 52.38,-26.91 55.34,-20.56"/>
</g>
<!-- Node4&#45;&gt;Node5 -->
<g id="edge5" class="edge">
<title>Node4&#45;&gt;Node5</title>
<path fill="none" stroke="midnightblue" d="M151.82,-56.32C160.39,-48.34 173.31,-36.31 183.69,-26.65"/>
<polygon fill="midnightblue" stroke="midnightblue" points="186.08,-29.21 191.01,-19.83 181.31,-24.09 186.08,-29.21"/>
</g>
</g>
</svg>
