<?xml version="1.0" encoding="UTF-8" standalone="no"?>
<!DOCTYPE svg PUBLIC "-//W3C//DTD SVG 1.1//EN"
 "http://www.w3.org/Graphics/SVG/1.1/DTD/svg11.dtd">
<!-- Generated by graphviz version 2.43.0 (0)
 -->
<!-- Title: include/_Tests/MLCL_exceptions.h Pages: 1 -->
<svg width="1363pt" height="117pt"
 viewBox="0.00 0.00 1363.00 117.00" xmlns="http://www.w3.org/2000/svg" xmlns:xlink="http://www.w3.org/1999/xlink">
<g id="graph0" class="graph" transform="scale(1 1) rotate(0) translate(4 113)">
<title>include/_Tests/MLCL_exceptions.h</title>
<!-- Node1 -->
<g id="node1" class="node">
<title>Node1</title>
<g id="a_node1"><a xlink:title=" ">
<polygon fill="#bfbfbf" stroke="black" points="614.5,-78.5 614.5,-108.5 728.5,-108.5 728.5,-78.5 614.5,-78.5"/>
<text text-anchor="start" x="622.5" y="-96.5" font-family="Helvetica,sans-Serif" font-size="10.00">include/_Tests/MLCL</text>
<text text-anchor="middle" x="671.5" y="-85.5" font-family="Helvetica,sans-Serif" font-size="10.00">_exceptions.h</text>
</a>
</g>
</g>
<!-- Node2 -->
<g id="node2" class="node">
<title>Node2</title>
<g id="a_node2"><a xlink:href="_m_l_c_l___array_list__test_8c.html" target="_top" xlink:title=" ">
<polygon fill="none" stroke="black" points="0,-6 0,-36 119,-36 119,-6 0,-6"/>
<text text-anchor="start" x="8" y="-24" font-family="Helvetica,sans-Serif" font-size="10.00">src/_Tests/Lists/MLCL</text>
<text text-anchor="middle" x="59.5" y="-13" font-family="Helvetica,sans-Serif" font-size="10.00">_ArrayList_test.c</text>
</a>
</g>
</g>
<!-- Node1&#45;&gt;Node2 -->
<g id="edge1" class="edge">
<title>Node1&#45;&gt;Node2</title>
<path fill="none" stroke="midnightblue" d="M603.91,-90.42C500.47,-86.3 297.04,-74.49 127.5,-42 119.4,-40.45 110.89,-38.34 102.72,-36.07"/>
<polygon fill="midnightblue" stroke="midnightblue" points="604.08,-93.93 614.21,-90.82 604.35,-86.94 604.08,-93.93"/>
</g>
<!-- Node3 -->
<g id="node3" class="node">
<title>Node3</title>
<g id="a_node3"><a xlink:href="_m_l_c_l___circular_double_linked_list__test_8c.html" target="_top" xlink:title=" ">
<polygon fill="none" stroke="black" points="137,-0.5 137,-41.5 280,-41.5 280,-0.5 137,-0.5"/>
<text text-anchor="start" x="145" y="-29.5" font-family="Helvetica,sans-Serif" font-size="10.00">src/_Tests/Lists/MLCL</text>
<text text-anchor="start" x="145" y="-18.5" font-family="Helvetica,sans-Serif" font-size="10.00">_CircularDoubleLinkedList</text>
<text text-anchor="middle" x="208.5" y="-7.5" font-family="Helvetica,sans-Serif" font-size="10.00">_test.c</text>
</a>
</g>
</g>
<!-- Node1&#45;&gt;Node3 -->
<g id="edge2" class="edge">
<title>Node1&#45;&gt;Node3</title>
<path fill="none" stroke="midnightblue" d="M604.24,-85.89C527.65,-77.83 398.96,-62.68 289.5,-42 286.51,-41.44 283.47,-40.83 280.4,-40.19"/>
<polygon fill="midnightblue" stroke="midnightblue" points="603.92,-89.37 614.23,-86.93 604.65,-82.41 603.92,-89.37"/>
</g>
<!-- Node4 -->
<g id="node4" class="node">
<title>Node4</title>
<g id="a_node4"><a xlink:href="_m_l_c_l___circular_linked_list__test_8c.html" target="_top" xlink:title=" ">
<polygon fill="none" stroke="black" points="298.5,-6 298.5,-36 438.5,-36 438.5,-6 298.5,-6"/>
<text text-anchor="start" x="306.5" y="-24" font-family="Helvetica,sans-Serif" font-size="10.00">src/_Tests/Lists/MLCL</text>
<text text-anchor="middle" x="368.5" y="-13" font-family="Helvetica,sans-Serif" font-size="10.00">_CircularLinkedList_test.c</text>
</a>
</g>
</g>
<!-- Node1&#45;&gt;Node4 -->
<g id="edge3" class="edge">
<title>Node1&#45;&gt;Node4</title>
<path fill="none" stroke="midnightblue" d="M604.48,-77.87C559.92,-68.03 500.13,-54.59 447.5,-42 439.66,-40.12 431.39,-38.09 423.28,-36.07"/>
<polygon fill="midnightblue" stroke="midnightblue" points="603.8,-81.31 614.32,-80.04 605.31,-74.47 603.8,-81.31"/>
</g>
<!-- Node5 -->
<g id="node5" class="node">
<title>Node5</title>
<g id="a_node5"><a xlink:href="_m_l_c_l___double_linked_list__test_8c.html" target="_top" xlink:title=" ">
<polygon fill="none" stroke="black" points="457,-6 457,-36 594,-36 594,-6 457,-6"/>
<text text-anchor="start" x="465" y="-24" font-family="Helvetica,sans-Serif" font-size="10.00">src/_Tests/Lists/MLCL</text>
<text text-anchor="middle" x="525.5" y="-13" font-family="Helvetica,sans-Serif" font-size="10.00">_DoubleLinkedList_test.c</text>
</a>
</g>
</g>
<!-- Node1&#45;&gt;Node5 -->
<g id="edge4" class="edge">
<title>Node1&#45;&gt;Node5</title>
<path fill="none" stroke="midnightblue" d="M633.25,-74.03C608.66,-62.16 577.21,-46.97 554.64,-36.07"/>
<polygon fill="midnightblue" stroke="midnightblue" points="631.78,-77.21 642.31,-78.4 634.82,-70.9 631.78,-77.21"/>
</g>
<!-- Node6 -->
<g id="node6" class="node">
<title>Node6</title>
<g id="a_node6"><a xlink:href="_m_l_c_l___linked_list__test_8c.html" target="_top" xlink:title=" ">
<polygon fill="none" stroke="black" points="612,-6 612,-36 731,-36 731,-6 612,-6"/>
<text text-anchor="start" x="620" y="-24" font-family="Helvetica,sans-Serif" font-size="10.00">src/_Tests/Lists/MLCL</text>
<text text-anchor="middle" x="671.5" y="-13" font-family="Helvetica,sans-Serif" font-size="10.00">_LinkedList_test.c</text>
</a>
</g>
</g>
<!-- Node1&#45;&gt;Node6 -->
<g id="edge5" class="edge">
<title>Node1&#45;&gt;Node6</title>
<path fill="none" stroke="midnightblue" d="M671.5,-68.23C671.5,-57.57 671.5,-45.41 671.5,-36.25"/>
<polygon fill="midnightblue" stroke="midnightblue" points="668,-68.23 671.5,-78.23 675,-68.23 668,-68.23"/>
</g>
<!-- Node7 -->
<g id="node7" class="node">
<title>Node7</title>
<g id="a_node7"><a xlink:href="_m_l_c_l___list__test_8c.html" target="_top" xlink:title=" ">
<polygon fill="none" stroke="black" points="749,-6 749,-36 868,-36 868,-6 749,-6"/>
<text text-anchor="start" x="757" y="-24" font-family="Helvetica,sans-Serif" font-size="10.00">src/_Tests/Lists/MLCL</text>
<text text-anchor="middle" x="808.5" y="-13" font-family="Helvetica,sans-Serif" font-size="10.00">_List_test.c</text>
</a>
</g>
</g>
<!-- Node1&#45;&gt;Node7 -->
<g id="edge6" class="edge">
<title>Node1&#45;&gt;Node7</title>
<path fill="none" stroke="midnightblue" d="M708,-73.72C730.99,-61.89 760.16,-46.87 781.15,-36.07"/>
<polygon fill="midnightblue" stroke="midnightblue" points="706.18,-70.71 698.89,-78.4 709.39,-76.94 706.18,-70.71"/>
</g>
<!-- Node8 -->
<g id="node8" class="node">
<title>Node8</title>
<g id="a_node8"><a xlink:href="_m_l_c_l___type_descriptor__test_8c.html" target="_top" xlink:title=" ">
<polygon fill="none" stroke="black" points="886,-6 886,-36 1057,-36 1057,-6 886,-6"/>
<text text-anchor="start" x="894" y="-24" font-family="Helvetica,sans-Serif" font-size="10.00">src/_Tests/MLCL_TypeDescriptor</text>
<text text-anchor="middle" x="971.5" y="-13" font-family="Helvetica,sans-Serif" font-size="10.00">_test.c</text>
</a>
</g>
</g>
<!-- Node1&#45;&gt;Node8 -->
<g id="edge7" class="edge">
<title>Node1&#45;&gt;Node8</title>
<path fill="none" stroke="midnightblue" d="M738.42,-76.77C790.37,-64.57 861.72,-47.8 911.75,-36.04"/>
<polygon fill="midnightblue" stroke="midnightblue" points="737.57,-73.38 728.63,-79.07 739.17,-80.19 737.57,-73.38"/>
</g>
<!-- Node9 -->
<g id="node9" class="node">
<title>Node9</title>
<g id="a_node9"><a xlink:href="_m_l_c_l___a_v_l_tree__test_8c.html" target="_top" xlink:title=" ">
<polygon fill="none" stroke="black" points="1075.5,-6 1075.5,-36 1197.5,-36 1197.5,-6 1075.5,-6"/>
<text text-anchor="start" x="1083.5" y="-24" font-family="Helvetica,sans-Serif" font-size="10.00">src/_Tests/Trees/MLCL</text>
<text text-anchor="middle" x="1136.5" y="-13" font-family="Helvetica,sans-Serif" font-size="10.00">_AVLTree_test.c</text>
</a>
</g>
</g>
<!-- Node1&#45;&gt;Node9 -->
<g id="edge8" class="edge">
<title>Node1&#45;&gt;Node9</title>
<path fill="none" stroke="midnightblue" d="M738.83,-87.02C817.85,-79.86 952.6,-65.41 1066.5,-42 1074.55,-40.35 1083.02,-38.24 1091.19,-36.02"/>
<polygon fill="midnightblue" stroke="midnightblue" points="738.17,-83.56 728.53,-87.94 738.8,-90.53 738.17,-83.56"/>
</g>
<!-- Node10 -->
<g id="node10" class="node">
<title>Node10</title>
<g id="a_node10"><a xlink:href="_m_l_c_l___binary_search_tree__test_8c.html" target="_top" xlink:title=" ">
<polygon fill="none" stroke="black" points="1216,-6 1216,-36 1355,-36 1355,-6 1216,-6"/>
<text text-anchor="start" x="1224" y="-24" font-family="Helvetica,sans-Serif" font-size="10.00">src/_Tests/Trees/MLCL</text>
<text text-anchor="middle" x="1285.5" y="-13" font-family="Helvetica,sans-Serif" font-size="10.00">_BinarySearchTree_test.c</text>
</a>
</g>
</g>
<!-- Node1&#45;&gt;Node10 -->
<g id="edge9" class="edge">
<title>Node1&#45;&gt;Node10</title>
<path fill="none" stroke="midnightblue" d="M739.04,-89.46C840.96,-84.13 1039.85,-70.78 1206.5,-42 1215.7,-40.41 1225.41,-38.31 1234.75,-36.07"/>
<polygon fill="midnightblue" stroke="midnightblue" points="738.7,-85.97 728.89,-89.98 739.06,-92.96 738.7,-85.97"/>
</g>
</g>
</svg>
