<?xml version="1.0" encoding="UTF-8" standalone="no"?>
<!DOCTYPE svg PUBLIC "-//W3C//DTD SVG 1.1//EN"
 "http://www.w3.org/Graphics/SVG/1.1/DTD/svg11.dtd">
<!-- Generated by graphviz version 2.43.0 (0)
 -->
<!-- Title: include/MLCL_basic_types.h Pages: 1 -->
<svg width="1375pt" height="117pt"
 viewBox="0.00 0.00 1375.00 117.00" xmlns="http://www.w3.org/2000/svg" xmlns:xlink="http://www.w3.org/1999/xlink">
<g id="graph0" class="graph" transform="scale(1 1) rotate(0) translate(4 113)">
<title>include/MLCL_basic_types.h</title>
<!-- Node1 -->
<g id="node1" class="node">
<title>Node1</title>
<g id="a_node1"><a xlink:title=" ">
<polygon fill="#bfbfbf" stroke="black" points="615.5,-78.5 615.5,-108.5 727.5,-108.5 727.5,-78.5 615.5,-78.5"/>
<text text-anchor="start" x="623.5" y="-96.5" font-family="Helvetica,sans-Serif" font-size="10.00">include/MLCL_basic</text>
<text text-anchor="middle" x="671.5" y="-85.5" font-family="Helvetica,sans-Serif" font-size="10.00">_types.h</text>
</a>
</g>
</g>
<!-- Node2 -->
<g id="node2" class="node">
<title>Node2</title>
<g id="a_node2"><a xlink:href="_m_l_c_l___array_list__test_8c.html" target="_top" xlink:title=" ">
<polygon fill="none" stroke="black" points="0,-6 0,-36 119,-36 119,-6 0,-6"/>
<text text-anchor="start" x="8" y="-24" font-family="Helvetica,sans-Serif" font-size="10.00">src/_Tests/Lists/MLCL</text>
<text text-anchor="middle" x="59.5" y="-13" font-family="Helvetica,sans-Serif" font-size="10.00">_ArrayList_test.c</text>
</a>
</g>
</g>
<!-- Node1&#45;&gt;Node2 -->
<g id="edge1" class="edge">
<title>Node1&#45;&gt;Node2</title>
<path fill="none" stroke="midnightblue" d="M605.14,-90.47C502.09,-86.4 297.72,-74.61 127.5,-42 119.4,-40.45 110.89,-38.34 102.72,-36.07"/>
<polygon fill="midnightblue" stroke="midnightblue" points="605.27,-93.98 615.4,-90.87 605.54,-86.98 605.27,-93.98"/>
</g>
<!-- Node3 -->
<g id="node3" class="node">
<title>Node3</title>
<g id="a_node3"><a xlink:href="_m_l_c_l___circular_double_linked_list__test_8c.html" target="_top" xlink:title=" ">
<polygon fill="none" stroke="black" points="137,-0.5 137,-41.5 280,-41.5 280,-0.5 137,-0.5"/>
<text text-anchor="start" x="145" y="-29.5" font-family="Helvetica,sans-Serif" font-size="10.00">src/_Tests/Lists/MLCL</text>
<text text-anchor="start" x="145" y="-18.5" font-family="Helvetica,sans-Serif" font-size="10.00">_CircularDoubleLinkedList</text>
<text text-anchor="middle" x="208.5" y="-7.5" font-family="Helvetica,sans-Serif" font-size="10.00">_test.c</text>
</a>
</g>
</g>
<!-- Node1&#45;&gt;Node3 -->
<g id="edge2" class="edge">
<title>Node1&#45;&gt;Node3</title>
<path fill="none" stroke="midnightblue" d="M605.23,-85.99C528.76,-77.96 399.43,-62.77 289.5,-42 286.51,-41.44 283.47,-40.83 280.4,-40.19"/>
<polygon fill="midnightblue" stroke="midnightblue" points="604.89,-89.47 615.2,-87.03 605.62,-82.51 604.89,-89.47"/>
</g>
<!-- Node4 -->
<g id="node4" class="node">
<title>Node4</title>
<g id="a_node4"><a xlink:href="_m_l_c_l___circular_linked_list__test_8c.html" target="_top" xlink:title=" ">
<polygon fill="none" stroke="black" points="298.5,-6 298.5,-36 438.5,-36 438.5,-6 298.5,-6"/>
<text text-anchor="start" x="306.5" y="-24" font-family="Helvetica,sans-Serif" font-size="10.00">src/_Tests/Lists/MLCL</text>
<text text-anchor="middle" x="368.5" y="-13" font-family="Helvetica,sans-Serif" font-size="10.00">_CircularLinkedList_test.c</text>
</a>
</g>
</g>
<!-- Node1&#45;&gt;Node4 -->
<g id="edge3" class="edge">
<title>Node1&#45;&gt;Node4</title>
<path fill="none" stroke="midnightblue" d="M605.4,-78.07C560.74,-68.21 500.49,-54.68 447.5,-42 439.66,-40.12 431.39,-38.09 423.28,-36.07"/>
<polygon fill="midnightblue" stroke="midnightblue" points="604.73,-81.51 615.25,-80.25 606.24,-74.68 604.73,-81.51"/>
</g>
<!-- Node5 -->
<g id="node5" class="node">
<title>Node5</title>
<g id="a_node5"><a xlink:href="_m_l_c_l___double_linked_list__test_8c.html" target="_top" xlink:title=" ">
<polygon fill="none" stroke="black" points="457,-6 457,-36 594,-36 594,-6 457,-6"/>
<text text-anchor="start" x="465" y="-24" font-family="Helvetica,sans-Serif" font-size="10.00">src/_Tests/Lists/MLCL</text>
<text text-anchor="middle" x="525.5" y="-13" font-family="Helvetica,sans-Serif" font-size="10.00">_DoubleLinkedList_test.c</text>
</a>
</g>
</g>
<!-- Node1&#45;&gt;Node5 -->
<g id="edge4" class="edge">
<title>Node1&#45;&gt;Node5</title>
<path fill="none" stroke="midnightblue" d="M633.25,-74.03C608.66,-62.16 577.21,-46.97 554.64,-36.07"/>
<polygon fill="midnightblue" stroke="midnightblue" points="631.78,-77.21 642.31,-78.4 634.82,-70.9 631.78,-77.21"/>
</g>
<!-- Node6 -->
<g id="node6" class="node">
<title>Node6</title>
<g id="a_node6"><a xlink:href="_m_l_c_l___linked_list__test_8c.html" target="_top" xlink:title=" ">
<polygon fill="none" stroke="black" points="612,-6 612,-36 731,-36 731,-6 612,-6"/>
<text text-anchor="start" x="620" y="-24" font-family="Helvetica,sans-Serif" font-size="10.00">src/_Tests/Lists/MLCL</text>
<text text-anchor="middle" x="671.5" y="-13" font-family="Helvetica,sans-Serif" font-size="10.00">_LinkedList_test.c</text>
</a>
</g>
</g>
<!-- Node1&#45;&gt;Node6 -->
<g id="edge5" class="edge">
<title>Node1&#45;&gt;Node6</title>
<path fill="none" stroke="midnightblue" d="M671.5,-68.23C671.5,-57.57 671.5,-45.41 671.5,-36.25"/>
<polygon fill="midnightblue" stroke="midnightblue" points="668,-68.23 671.5,-78.23 675,-68.23 668,-68.23"/>
</g>
<!-- Node7 -->
<g id="node7" class="node">
<title>Node7</title>
<g id="a_node7"><a xlink:href="_m_l_c_l___type_descriptor__test_8c.html" target="_top" xlink:title=" ">
<polygon fill="none" stroke="black" points="749,-6 749,-36 920,-36 920,-6 749,-6"/>
<text text-anchor="start" x="757" y="-24" font-family="Helvetica,sans-Serif" font-size="10.00">src/_Tests/MLCL_TypeDescriptor</text>
<text text-anchor="middle" x="834.5" y="-13" font-family="Helvetica,sans-Serif" font-size="10.00">_test.c</text>
</a>
</g>
</g>
<!-- Node1&#45;&gt;Node7 -->
<g id="edge6" class="edge">
<title>Node1&#45;&gt;Node7</title>
<path fill="none" stroke="midnightblue" d="M713.48,-74.34C741.04,-62.42 776.55,-47.07 801.96,-36.07"/>
<polygon fill="midnightblue" stroke="midnightblue" points="711.88,-71.22 704.09,-78.4 714.66,-77.65 711.88,-71.22"/>
</g>
<!-- Node8 -->
<g id="node8" class="node">
<title>Node8</title>
<g id="a_node8"><a xlink:href="_m_l_c_l___a_v_l_tree__test_8c.html" target="_top" xlink:title=" ">
<polygon fill="none" stroke="black" points="938.5,-6 938.5,-36 1060.5,-36 1060.5,-6 938.5,-6"/>
<text text-anchor="start" x="946.5" y="-24" font-family="Helvetica,sans-Serif" font-size="10.00">src/_Tests/Trees/MLCL</text>
<text text-anchor="middle" x="999.5" y="-13" font-family="Helvetica,sans-Serif" font-size="10.00">_AVLTree_test.c</text>
</a>
</g>
</g>
<!-- Node1&#45;&gt;Node8 -->
<g id="edge7" class="edge">
<title>Node1&#45;&gt;Node8</title>
<path fill="none" stroke="midnightblue" d="M737.82,-81.12C790.13,-71.76 864.8,-57.54 929.5,-42 936.87,-40.23 944.64,-38.19 952.2,-36.1"/>
<polygon fill="midnightblue" stroke="midnightblue" points="736.89,-77.73 727.66,-82.93 738.12,-84.62 736.89,-77.73"/>
</g>
<!-- Node9 -->
<g id="node9" class="node">
<title>Node9</title>
<g id="a_node9"><a xlink:href="_m_l_c_l___binary_search_tree__test_8c.html" target="_top" xlink:title=" ">
<polygon fill="none" stroke="black" points="1079,-6 1079,-36 1218,-36 1218,-6 1079,-6"/>
<text text-anchor="start" x="1087" y="-24" font-family="Helvetica,sans-Serif" font-size="10.00">src/_Tests/Trees/MLCL</text>
<text text-anchor="middle" x="1148.5" y="-13" font-family="Helvetica,sans-Serif" font-size="10.00">_BinarySearchTree_test.c</text>
</a>
</g>
</g>
<!-- Node1&#45;&gt;Node9 -->
<g id="edge8" class="edge">
<title>Node1&#45;&gt;Node9</title>
<path fill="none" stroke="midnightblue" d="M737.87,-86.57C817.19,-78.92 953.74,-63.91 1069.5,-42 1078.4,-40.32 1087.78,-38.22 1096.86,-36.03"/>
<polygon fill="midnightblue" stroke="midnightblue" points="737.16,-83.13 727.53,-87.56 737.82,-90.09 737.16,-83.13"/>
</g>
<!-- Node10 -->
<g id="node10" class="node">
<title>Node10</title>
<g id="a_node10"><a xlink:href="_m_l_c_l__basic__types_8c.html" target="_top" xlink:title=" ">
<polygon fill="none" stroke="black" points="1236,-11.5 1236,-30.5 1367,-30.5 1367,-11.5 1236,-11.5"/>
<text text-anchor="middle" x="1301.5" y="-18.5" font-family="Helvetica,sans-Serif" font-size="10.00">src/MLCL_basic_types.c</text>
</a>
</g>
</g>
<!-- Node1&#45;&gt;Node10 -->
<g id="edge9" class="edge">
<title>Node1&#45;&gt;Node10</title>
<path fill="none" stroke="midnightblue" d="M737.67,-90.2C842.36,-85.73 1052.3,-73.39 1227.5,-42 1243.22,-39.18 1260.46,-34.61 1274.35,-30.55"/>
<polygon fill="midnightblue" stroke="midnightblue" points="737.41,-86.71 727.56,-90.62 737.7,-93.7 737.41,-86.71"/>
</g>
</g>
</svg>
