<?xml version="1.0" encoding="UTF-8" standalone="no"?>
<!DOCTYPE svg PUBLIC "-//W3C//DTD SVG 1.1//EN"
 "http://www.w3.org/Graphics/SVG/1.1/DTD/svg11.dtd">
<!-- Generated by graphviz version 2.43.0 (0)
 -->
<!-- Title: include/MLCL_TypeDescriptor.h Pages: 1 -->
<svg width="2526pt" height="385pt"
 viewBox="0.00 0.00 2525.92 385.00" xmlns="http://www.w3.org/2000/svg" xmlns:xlink="http://www.w3.org/1999/xlink">
<g id="graph0" class="graph" transform="scale(1 1) rotate(0) translate(4 381)">
<title>include/MLCL_TypeDescriptor.h</title>
<!-- Node1 -->
<g id="node1" class="node">
<title>Node1</title>
<g id="a_node1"><a xlink:title=" ">
<polygon fill="#bfbfbf" stroke="black" points="1030.42,-357.5 1030.42,-376.5 1197.42,-376.5 1197.42,-357.5 1030.42,-357.5"/>
<text text-anchor="middle" x="1113.92" y="-364.5" font-family="Helvetica,sans-Serif" font-size="10.00">include/MLCL_TypeDescriptor.h</text>
</a>
</g>
</g>
<!-- Node2 -->
<g id="node2" class="node">
<title>Node2</title>
<g id="a_node2"><a xlink:href="_m_l_c_l___binary_heap__test_8c.html" target="_top" xlink:title=" ">
<polygon fill="none" stroke="black" points="166.92,-67.5 166.92,-97.5 288.92,-97.5 288.92,-67.5 166.92,-67.5"/>
<text text-anchor="start" x="174.92" y="-85.5" font-family="Helvetica,sans-Serif" font-size="10.00">src/_Tests/Heap/MLCL</text>
<text text-anchor="middle" x="227.92" y="-74.5" font-family="Helvetica,sans-Serif" font-size="10.00">_BinaryHeap_test.c</text>
</a>
</g>
</g>
<!-- Node1&#45;&gt;Node2 -->
<g id="edge1" class="edge">
<title>Node1&#45;&gt;Node2</title>
<path fill="none" stroke="midnightblue" d="M1020.3,-366.44C773.54,-365.23 116.86,-345.84 7.92,-176 -31.67,-114.27 88.65,-93.68 166.69,-86.85"/>
<polygon fill="midnightblue" stroke="midnightblue" points="1020.31,-369.94 1030.32,-366.48 1020.34,-362.94 1020.31,-369.94"/>
</g>
<!-- Node3 -->
<g id="node3" class="node">
<title>Node3</title>
<g id="a_node3"><a xlink:href="_m_l_c_l__basic__types_8h.html" target="_top" xlink:title=" ">
<polygon fill="none" stroke="black" points="1222.92,-218 1222.92,-248 1334.92,-248 1334.92,-218 1222.92,-218"/>
<text text-anchor="start" x="1230.92" y="-236" font-family="Helvetica,sans-Serif" font-size="10.00">include/MLCL_basic</text>
<text text-anchor="middle" x="1278.92" y="-225" font-family="Helvetica,sans-Serif" font-size="10.00">_types.h</text>
</a>
</g>
</g>
<!-- Node1&#45;&gt;Node3 -->
<g id="edge2" class="edge">
<title>Node1&#45;&gt;Node3</title>
<path fill="none" stroke="midnightblue" d="M1132.91,-350.8C1165.14,-325.02 1230.08,-273.07 1261.33,-248.07"/>
<polygon fill="midnightblue" stroke="midnightblue" points="1130.37,-348.36 1124.75,-357.34 1134.74,-353.83 1130.37,-348.36"/>
</g>
<!-- Node12 -->
<g id="node12" class="node">
<title>Node12</title>
<g id="a_node12"><a xlink:href="_m_l_c_l___a_v_l_tree__test_8c.html" target="_top" xlink:title=" ">
<polygon fill="none" stroke="black" points="529.92,-140 529.92,-170 651.92,-170 651.92,-140 529.92,-140"/>
<text text-anchor="start" x="537.92" y="-158" font-family="Helvetica,sans-Serif" font-size="10.00">src/_Tests/Trees/MLCL</text>
<text text-anchor="middle" x="590.92" y="-147" font-family="Helvetica,sans-Serif" font-size="10.00">_AVLTree_test.c</text>
</a>
</g>
</g>
<!-- Node1&#45;&gt;Node12 -->
<g id="edge49" class="edge">
<title>Node1&#45;&gt;Node12</title>
<path fill="none" stroke="midnightblue" d="M1020.12,-357.47C891.2,-343.73 669,-312.17 614.92,-254 593.33,-230.78 590.27,-191.4 590.33,-170.33"/>
<polygon fill="midnightblue" stroke="midnightblue" points="1020.08,-360.99 1030.39,-358.55 1020.81,-354.02 1020.08,-360.99"/>
</g>
<!-- Node15 -->
<g id="node15" class="node">
<title>Node15</title>
<g id="a_node15"><a xlink:href="_m_l_c_l___array_list_8h.html" target="_top" xlink:title=" ">
<polygon fill="none" stroke="black" points="460.42,-290.5 460.42,-320.5 567.42,-320.5 567.42,-290.5 460.42,-290.5"/>
<text text-anchor="start" x="468.42" y="-308.5" font-family="Helvetica,sans-Serif" font-size="10.00">include/Lists/MLCL</text>
<text text-anchor="middle" x="513.92" y="-297.5" font-family="Helvetica,sans-Serif" font-size="10.00">_ArrayList.h</text>
</a>
</g>
</g>
<!-- Node1&#45;&gt;Node15 -->
<g id="edge15" class="edge">
<title>Node1&#45;&gt;Node15</title>
<path fill="none" stroke="midnightblue" d="M1020.06,-361.64C913.45,-355.85 734.47,-343.63 581.92,-321 577.26,-320.31 572.45,-319.49 567.63,-318.6"/>
<polygon fill="midnightblue" stroke="midnightblue" points="1019.98,-365.14 1030.15,-362.18 1020.35,-358.15 1019.98,-365.14"/>
</g>
<!-- Node28 -->
<g id="node28" class="node">
<title>Node28</title>
<g id="a_node28"><a xlink:href="_m_l_c_l___double_linked_list_8h.html" target="_top" xlink:title=" ">
<polygon fill="none" stroke="black" points="1635.92,-290.5 1635.92,-320.5 1749.92,-320.5 1749.92,-290.5 1635.92,-290.5"/>
<text text-anchor="start" x="1643.92" y="-308.5" font-family="Helvetica,sans-Serif" font-size="10.00">include/Lists/MLCL</text>
<text text-anchor="middle" x="1692.92" y="-297.5" font-family="Helvetica,sans-Serif" font-size="10.00">_DoubleLinkedList.h</text>
</a>
</g>
</g>
<!-- Node1&#45;&gt;Node28 -->
<g id="edge32" class="edge">
<title>Node1&#45;&gt;Node28</title>
<path fill="none" stroke="midnightblue" d="M1206.86,-356.45C1327.77,-344.02 1535.34,-322.69 1635.52,-312.4"/>
<polygon fill="midnightblue" stroke="midnightblue" points="1206.47,-352.97 1196.88,-357.48 1207.18,-359.93 1206.47,-352.97"/>
</g>
<!-- Node32 -->
<g id="node32" class="node">
<title>Node32</title>
<g id="a_node32"><a xlink:href="_m_l_c_l___linked_list_8h.html" target="_top" xlink:title=" ">
<polygon fill="none" stroke="black" points="2144.42,-290.5 2144.42,-320.5 2251.42,-320.5 2251.42,-290.5 2144.42,-290.5"/>
<text text-anchor="start" x="2152.42" y="-308.5" font-family="Helvetica,sans-Serif" font-size="10.00">include/Lists/MLCL</text>
<text text-anchor="middle" x="2197.92" y="-297.5" font-family="Helvetica,sans-Serif" font-size="10.00">_LinkedList.h</text>
</a>
</g>
</g>
<!-- Node1&#45;&gt;Node32 -->
<g id="edge41" class="edge">
<title>Node1&#45;&gt;Node32</title>
<path fill="none" stroke="midnightblue" d="M1207.86,-360.84C1428.03,-348.76 1971.71,-318.92 2144.38,-309.44"/>
<polygon fill="midnightblue" stroke="midnightblue" points="1207.42,-357.36 1197.63,-361.41 1207.8,-364.35 1207.42,-357.36"/>
</g>
<!-- Node36 -->
<g id="node36" class="node">
<title>Node36</title>
<g id="a_node36"><a xlink:href="_m_l_c_l___type_descriptor_8c.html" target="_top" xlink:title=" ">
<polygon fill="none" stroke="black" points="1767.92,-296 1767.92,-315 1913.92,-315 1913.92,-296 1767.92,-296"/>
<text text-anchor="middle" x="1840.92" y="-303" font-family="Helvetica,sans-Serif" font-size="10.00">src/MLCL_TypeDescriptor.c</text>
</a>
</g>
</g>
<!-- Node1&#45;&gt;Node36 -->
<g id="edge50" class="edge">
<title>Node1&#45;&gt;Node36</title>
<path fill="none" stroke="midnightblue" d="M1207.79,-362.55C1333.61,-357.23 1563.73,-345 1758.92,-321 1771.55,-319.45 1785.18,-317.25 1797.64,-315.03"/>
<polygon fill="midnightblue" stroke="midnightblue" points="1207.27,-359.07 1197.43,-362.99 1207.56,-366.07 1207.27,-359.07"/>
</g>
<!-- Node37 -->
<g id="node37" class="node">
<title>Node37</title>
<g id="a_node37"><a xlink:href="_m_l_c_l___binary_search_tree_8h.html" target="_top" xlink:title=" ">
<polygon fill="none" stroke="black" points="830.92,-290.5 830.92,-320.5 946.92,-320.5 946.92,-290.5 830.92,-290.5"/>
<text text-anchor="start" x="838.92" y="-308.5" font-family="Helvetica,sans-Serif" font-size="10.00">include/Trees/MLCL</text>
<text text-anchor="middle" x="888.92" y="-297.5" font-family="Helvetica,sans-Serif" font-size="10.00">_BinarySearchTree.h</text>
</a>
</g>
</g>
<!-- Node1&#45;&gt;Node37 -->
<g id="edge51" class="edge">
<title>Node1&#45;&gt;Node37</title>
<path fill="none" stroke="midnightblue" d="M1071.79,-354.86C1035.05,-345.14 981.59,-331.01 941.95,-320.52"/>
<polygon fill="midnightblue" stroke="midnightblue" points="1071.12,-358.3 1081.68,-357.48 1072.91,-351.53 1071.12,-358.3"/>
</g>
<!-- Node3&#45;&gt;Node2 -->
<g id="edge3" class="edge">
<title>Node3&#45;&gt;Node2</title>
<path fill="none" stroke="midnightblue" d="M1212.6,-228.74C1156.99,-223.55 1077.1,-210.21 1015.92,-176 993.42,-163.42 999.34,-144.78 975.92,-134 838.87,-70.91 447.55,-117.36 297.92,-98 295.09,-97.63 292.2,-97.22 289.29,-96.76"/>
<polygon fill="midnightblue" stroke="midnightblue" points="1212.42,-232.24 1222.69,-229.62 1213.03,-225.26 1212.42,-232.24"/>
</g>
<!-- Node4 -->
<g id="node4" class="node">
<title>Node4</title>
<g id="a_node4"><a xlink:href="_m_l_c_l___array_list__test_8c.html" target="_top" xlink:title=" ">
<polygon fill="none" stroke="black" points="392.42,-140 392.42,-170 511.42,-170 511.42,-140 392.42,-140"/>
<text text-anchor="start" x="400.42" y="-158" font-family="Helvetica,sans-Serif" font-size="10.00">src/_Tests/Lists/MLCL</text>
<text text-anchor="middle" x="451.92" y="-147" font-family="Helvetica,sans-Serif" font-size="10.00">_ArrayList_test.c</text>
</a>
</g>
</g>
<!-- Node3&#45;&gt;Node4 -->
<g id="edge4" class="edge">
<title>Node3&#45;&gt;Node4</title>
<path fill="none" stroke="midnightblue" d="M1212.58,-225.02C1172.23,-220.91 1119.64,-215.79 1072.92,-212 827.87,-192.12 763.08,-218.47 520.92,-176 512.44,-174.51 503.52,-172.38 495.02,-170.04"/>
<polygon fill="midnightblue" stroke="midnightblue" points="1212.26,-228.51 1222.57,-226.04 1212.98,-221.54 1212.26,-228.51"/>
</g>
<!-- Node5 -->
<g id="node5" class="node">
<title>Node5</title>
<g id="a_node5"><a xlink:href="_m_l_c_l___circular_double_linked_list__test_8c.html" target="_top" xlink:title=" ">
<polygon fill="none" stroke="black" points="1731.42,-134.5 1731.42,-175.5 1874.42,-175.5 1874.42,-134.5 1731.42,-134.5"/>
<text text-anchor="start" x="1739.42" y="-163.5" font-family="Helvetica,sans-Serif" font-size="10.00">src/_Tests/Lists/MLCL</text>
<text text-anchor="start" x="1739.42" y="-152.5" font-family="Helvetica,sans-Serif" font-size="10.00">_CircularDoubleLinkedList</text>
<text text-anchor="middle" x="1802.92" y="-141.5" font-family="Helvetica,sans-Serif" font-size="10.00">_test.c</text>
</a>
</g>
</g>
<!-- Node3&#45;&gt;Node5 -->
<g id="edge5" class="edge">
<title>Node3&#45;&gt;Node5</title>
<path fill="none" stroke="midnightblue" d="M1344.98,-226.16C1432.05,-217.89 1589.78,-200.95 1722.92,-176 1725.59,-175.5 1728.31,-174.96 1731.05,-174.4"/>
<polygon fill="midnightblue" stroke="midnightblue" points="1344.6,-222.68 1334.98,-227.1 1345.26,-229.65 1344.6,-222.68"/>
</g>
<!-- Node6 -->
<g id="node6" class="node">
<title>Node6</title>
<g id="a_node6"><a xlink:href="_m_l_c_l___circular_linked_list__test_8c.html" target="_top" xlink:title=" ">
<polygon fill="none" stroke="black" points="1892.92,-140 1892.92,-170 2032.92,-170 2032.92,-140 1892.92,-140"/>
<text text-anchor="start" x="1900.92" y="-158" font-family="Helvetica,sans-Serif" font-size="10.00">src/_Tests/Lists/MLCL</text>
<text text-anchor="middle" x="1962.92" y="-147" font-family="Helvetica,sans-Serif" font-size="10.00">_CircularLinkedList_test.c</text>
</a>
</g>
</g>
<!-- Node3&#45;&gt;Node6 -->
<g id="edge6" class="edge">
<title>Node3&#45;&gt;Node6</title>
<path fill="none" stroke="midnightblue" d="M1345.3,-229.24C1457.12,-223.83 1689.85,-209.34 1883.92,-176 1893.12,-174.42 1902.83,-172.32 1912.17,-170.08"/>
<polygon fill="midnightblue" stroke="midnightblue" points="1345.01,-225.75 1335.19,-229.72 1345.34,-232.74 1345.01,-225.75"/>
</g>
<!-- Node7 -->
<g id="node7" class="node">
<title>Node7</title>
<g id="a_node7"><a xlink:href="_m_l_c_l___double_linked_list__test_8c.html" target="_top" xlink:title=" ">
<polygon fill="none" stroke="black" points="1439.42,-140 1439.42,-170 1576.42,-170 1576.42,-140 1439.42,-140"/>
<text text-anchor="start" x="1447.42" y="-158" font-family="Helvetica,sans-Serif" font-size="10.00">src/_Tests/Lists/MLCL</text>
<text text-anchor="middle" x="1507.92" y="-147" font-family="Helvetica,sans-Serif" font-size="10.00">_DoubleLinkedList_test.c</text>
</a>
</g>
</g>
<!-- Node3&#45;&gt;Node7 -->
<g id="edge7" class="edge">
<title>Node3&#45;&gt;Node7</title>
<path fill="none" stroke="midnightblue" d="M1330.93,-214.74C1371.62,-201.23 1427.5,-182.69 1465.51,-170.07"/>
<polygon fill="midnightblue" stroke="midnightblue" points="1329.58,-211.5 1321.19,-217.97 1331.78,-218.14 1329.58,-211.5"/>
</g>
<!-- Node8 -->
<g id="node8" class="node">
<title>Node8</title>
<g id="a_node8"><a xlink:href="_m_l_c_l___linked_list__test_8c.html" target="_top" xlink:title=" ">
<polygon fill="none" stroke="black" points="1594.42,-140 1594.42,-170 1713.42,-170 1713.42,-140 1594.42,-140"/>
<text text-anchor="start" x="1602.42" y="-158" font-family="Helvetica,sans-Serif" font-size="10.00">src/_Tests/Lists/MLCL</text>
<text text-anchor="middle" x="1653.92" y="-147" font-family="Helvetica,sans-Serif" font-size="10.00">_LinkedList_test.c</text>
</a>
</g>
</g>
<!-- Node3&#45;&gt;Node8 -->
<g id="edge8" class="edge">
<title>Node3&#45;&gt;Node8</title>
<path fill="none" stroke="midnightblue" d="M1345.14,-222C1407.6,-212.07 1503.66,-195.54 1585.92,-176 1593.34,-174.24 1601.16,-172.15 1608.74,-170.01"/>
<polygon fill="midnightblue" stroke="midnightblue" points="1344.36,-218.57 1335.03,-223.59 1345.45,-225.49 1344.36,-218.57"/>
</g>
<!-- Node9 -->
<g id="node9" class="node">
<title>Node9</title>
<g id="a_node9"><a xlink:href="_m_l_c_l___list__test_8c.html" target="_top" xlink:title=" ">
<polygon fill="none" stroke="black" points="1609.42,-67.5 1609.42,-97.5 1728.42,-97.5 1728.42,-67.5 1609.42,-67.5"/>
<text text-anchor="start" x="1617.42" y="-85.5" font-family="Helvetica,sans-Serif" font-size="10.00">src/_Tests/Lists/MLCL</text>
<text text-anchor="middle" x="1668.92" y="-74.5" font-family="Helvetica,sans-Serif" font-size="10.00">_List_test.c</text>
</a>
</g>
</g>
<!-- Node3&#45;&gt;Node9 -->
<g id="edge9" class="edge">
<title>Node3&#45;&gt;Node9</title>
<path fill="none" stroke="midnightblue" d="M1321.14,-213.55C1341.77,-203.69 1366.5,-190.58 1386.92,-176 1408.92,-160.29 1407.01,-146.62 1430.92,-134 1486.95,-104.43 1559.03,-92.17 1609.12,-87.09"/>
<polygon fill="midnightblue" stroke="midnightblue" points="1319.54,-210.44 1311.97,-217.85 1322.51,-216.78 1319.54,-210.44"/>
</g>
<!-- Node10 -->
<g id="node10" class="node">
<title>Node10</title>
<g id="a_node10"><a xlink:href="_m_l_c_l___type_descriptor__test_8c.html" target="_top" xlink:title=" ">
<polygon fill="none" stroke="black" points="1024.42,-140 1024.42,-170 1195.42,-170 1195.42,-140 1024.42,-140"/>
<text text-anchor="start" x="1032.42" y="-158" font-family="Helvetica,sans-Serif" font-size="10.00">src/_Tests/MLCL_TypeDescriptor</text>
<text text-anchor="middle" x="1109.92" y="-147" font-family="Helvetica,sans-Serif" font-size="10.00">_test.c</text>
</a>
</g>
</g>
<!-- Node3&#45;&gt;Node10 -->
<g id="edge10" class="edge">
<title>Node3&#45;&gt;Node10</title>
<path fill="none" stroke="midnightblue" d="M1238.22,-213.7C1208.39,-200.28 1168.48,-182.34 1141.14,-170.04"/>
<polygon fill="midnightblue" stroke="midnightblue" points="1236.97,-216.97 1247.53,-217.88 1239.84,-210.59 1236.97,-216.97"/>
</g>
<!-- Node11 -->
<g id="node11" class="node">
<title>Node11</title>
<g id="a_node11"><a xlink:href="_m_l_c_l___queue__test_8c.html" target="_top" xlink:title=" ">
<polygon fill="none" stroke="black" points="1493.92,-0.5 1493.92,-30.5 1621.92,-30.5 1621.92,-0.5 1493.92,-0.5"/>
<text text-anchor="start" x="1501.92" y="-18.5" font-family="Helvetica,sans-Serif" font-size="10.00">src/_Tests/Queue/MLCL</text>
<text text-anchor="middle" x="1557.92" y="-7.5" font-family="Helvetica,sans-Serif" font-size="10.00">_Queue_test.c</text>
</a>
</g>
</g>
<!-- Node3&#45;&gt;Node11 -->
<g id="edge11" class="edge">
<title>Node3&#45;&gt;Node11</title>
<path fill="none" stroke="midnightblue" d="M1309.29,-212.08C1323.54,-202.06 1340.34,-189.25 1353.92,-176 1370.91,-159.42 1369.61,-150.24 1386.92,-134 1433.55,-90.26 1497.73,-50.69 1532.7,-30.53"/>
<polygon fill="midnightblue" stroke="midnightblue" points="1307.04,-209.38 1300.8,-217.94 1311.02,-215.14 1307.04,-209.38"/>
</g>
<!-- Node3&#45;&gt;Node12 -->
<g id="edge12" class="edge">
<title>Node3&#45;&gt;Node12</title>
<path fill="none" stroke="midnightblue" d="M1212.55,-225.39C1172.19,-221.42 1119.59,-216.3 1072.92,-212 889.89,-195.12 841.67,-209.4 660.92,-176 652.59,-174.46 643.83,-172.36 635.43,-170.09"/>
<polygon fill="midnightblue" stroke="midnightblue" points="1212.24,-228.88 1222.54,-226.38 1212.93,-221.91 1212.24,-228.88"/>
</g>
<!-- Node13 -->
<g id="node13" class="node">
<title>Node13</title>
<g id="a_node13"><a xlink:href="_m_l_c_l___binary_search_tree__test_8c.html" target="_top" xlink:title=" ">
<polygon fill="none" stroke="black" points="828.42,-140 828.42,-170 967.42,-170 967.42,-140 828.42,-140"/>
<text text-anchor="start" x="836.42" y="-158" font-family="Helvetica,sans-Serif" font-size="10.00">src/_Tests/Trees/MLCL</text>
<text text-anchor="middle" x="897.92" y="-147" font-family="Helvetica,sans-Serif" font-size="10.00">_BinarySearchTree_test.c</text>
</a>
</g>
</g>
<!-- Node3&#45;&gt;Node13 -->
<g id="edge13" class="edge">
<title>Node3&#45;&gt;Node13</title>
<path fill="none" stroke="midnightblue" d="M1212.51,-220.41C1152.2,-209.66 1060.87,-192.83 981.92,-176 973.27,-174.16 964.14,-172.1 955.22,-170.03"/>
<polygon fill="midnightblue" stroke="midnightblue" points="1212.19,-223.91 1222.65,-222.21 1213.42,-217.01 1212.19,-223.91"/>
</g>
<!-- Node14 -->
<g id="node14" class="node">
<title>Node14</title>
<g id="a_node14"><a xlink:href="_m_l_c_l__basic__types_8c.html" target="_top" xlink:title=" ">
<polygon fill="none" stroke="black" points="1213.42,-145.5 1213.42,-164.5 1344.42,-164.5 1344.42,-145.5 1213.42,-145.5"/>
<text text-anchor="middle" x="1278.92" y="-152.5" font-family="Helvetica,sans-Serif" font-size="10.00">src/MLCL_basic_types.c</text>
</a>
</g>
</g>
<!-- Node3&#45;&gt;Node14 -->
<g id="edge14" class="edge">
<title>Node3&#45;&gt;Node14</title>
<path fill="none" stroke="midnightblue" d="M1278.92,-207.67C1278.92,-192.9 1278.92,-174.95 1278.92,-164.56"/>
<polygon fill="midnightblue" stroke="midnightblue" points="1275.42,-207.7 1278.92,-217.7 1282.42,-207.71 1275.42,-207.7"/>
</g>
<!-- Node15&#45;&gt;Node4 -->
<g id="edge16" class="edge">
<title>Node15&#45;&gt;Node4</title>
<path fill="none" stroke="midnightblue" d="M515.01,-280.22C514.96,-260.9 512.8,-233.62 502.92,-212 495.38,-195.49 481.15,-180.51 469.63,-170.2"/>
<polygon fill="midnightblue" stroke="midnightblue" points="511.51,-280.25 514.85,-290.31 518.51,-280.37 511.51,-280.25"/>
</g>
<!-- Node16 -->
<g id="node16" class="node">
<title>Node16</title>
<g id="a_node16"><a xlink:href="_m_l_c_l___list_8h.html" target="_top" xlink:title=" ">
<polygon fill="none" stroke="black" points="2232.42,-140 2232.42,-170 2339.42,-170 2339.42,-140 2232.42,-140"/>
<text text-anchor="start" x="2240.42" y="-158" font-family="Helvetica,sans-Serif" font-size="10.00">include/Lists/MLCL</text>
<text text-anchor="middle" x="2285.92" y="-147" font-family="Helvetica,sans-Serif" font-size="10.00">_List.h</text>
</a>
</g>
</g>
<!-- Node15&#45;&gt;Node16 -->
<g id="edge17" class="edge">
<title>Node15&#45;&gt;Node16</title>
<path fill="none" stroke="midnightblue" d="M577.66,-301.15C639.94,-297.96 737.42,-293.18 821.92,-290 892.62,-287.34 2030.66,-283.61 2094.92,-254 2117.78,-243.46 2112.05,-226.07 2132.92,-212 2142.51,-205.54 2202.26,-184.49 2244.18,-170.12"/>
<polygon fill="midnightblue" stroke="midnightblue" points="577.41,-297.66 567.6,-301.67 577.77,-304.65 577.41,-297.66"/>
</g>
<!-- Node22 -->
<g id="node22" class="node">
<title>Node22</title>
<g id="a_node22"><a xlink:href="_m_l_c_l___binary_heap_8h.html" target="_top" xlink:title=" ">
<polygon fill="none" stroke="black" points="186.92,-218 186.92,-248 332.92,-248 332.92,-218 186.92,-218"/>
<text text-anchor="start" x="194.92" y="-236" font-family="Helvetica,sans-Serif" font-size="10.00">include/Heap/MLCL_Binary</text>
<text text-anchor="middle" x="259.92" y="-225" font-family="Helvetica,sans-Serif" font-size="10.00">Heap.h</text>
</a>
</g>
</g>
<!-- Node15&#45;&gt;Node22 -->
<g id="edge25" class="edge">
<title>Node15&#45;&gt;Node22</title>
<path fill="none" stroke="midnightblue" d="M453.54,-287.74C410.01,-275.66 351.91,-259.53 310.74,-248.11"/>
<polygon fill="midnightblue" stroke="midnightblue" points="452.86,-291.19 463.43,-290.49 454.73,-284.44 452.86,-291.19"/>
</g>
<!-- Node27 -->
<g id="node27" class="node">
<title>Node27</title>
<g id="a_node27"><a xlink:href="_m_l_c_l___array_list_8c.html" target="_top" xlink:title=" ">
<polygon fill="none" stroke="black" points="351.42,-223.5 351.42,-242.5 494.42,-242.5 494.42,-223.5 351.42,-223.5"/>
<text text-anchor="middle" x="422.92" y="-230.5" font-family="Helvetica,sans-Serif" font-size="10.00">src/Lists/MLCL_ArrayList.c</text>
</a>
</g>
</g>
<!-- Node15&#45;&gt;Node27 -->
<g id="edge31" class="edge">
<title>Node15&#45;&gt;Node27</title>
<path fill="none" stroke="midnightblue" d="M487.26,-283.84C469.58,-270.15 447.3,-252.89 434.14,-242.69"/>
<polygon fill="midnightblue" stroke="midnightblue" points="485.46,-286.88 495.5,-290.23 489.74,-281.34 485.46,-286.88"/>
</g>
<!-- Node16&#45;&gt;Node9 -->
<g id="edge18" class="edge">
<title>Node16&#45;&gt;Node9</title>
<path fill="none" stroke="midnightblue" d="M2237.22,-137.18C2232.76,-135.98 2228.28,-134.89 2223.92,-134 2176.34,-124.29 1862.09,-98.75 1728.67,-88.18"/>
<polygon fill="midnightblue" stroke="midnightblue" points="2236.33,-140.57 2246.91,-139.97 2238.27,-133.84 2236.33,-140.57"/>
</g>
<!-- Node17 -->
<g id="node17" class="node">
<title>Node17</title>
<g id="a_node17"><a xlink:href="_m_l_c_l___queue_8h.html" target="_top" xlink:title=" ">
<polygon fill="none" stroke="black" points="1888.92,-67.5 1888.92,-97.5 2004.92,-97.5 2004.92,-67.5 1888.92,-67.5"/>
<text text-anchor="start" x="1896.92" y="-85.5" font-family="Helvetica,sans-Serif" font-size="10.00">include/Queue/MLCL</text>
<text text-anchor="middle" x="1946.92" y="-74.5" font-family="Helvetica,sans-Serif" font-size="10.00">_Queue.h</text>
</a>
</g>
</g>
<!-- Node16&#45;&gt;Node17 -->
<g id="edge19" class="edge">
<title>Node16&#45;&gt;Node17</title>
<path fill="none" stroke="midnightblue" d="M2235.48,-137.12C2231.58,-136.01 2227.7,-134.95 2223.92,-134 2149.13,-115.21 2061.33,-100.4 2004.96,-91.8"/>
<polygon fill="midnightblue" stroke="midnightblue" points="2234.54,-140.49 2245.12,-140 2236.54,-133.79 2234.54,-140.49"/>
</g>
<!-- Node19 -->
<g id="node19" class="node">
<title>Node19</title>
<g id="a_node19"><a xlink:href="_m_l_c_l___list_8c.html" target="_top" xlink:title=" ">
<polygon fill="none" stroke="black" points="2293.92,-73 2293.92,-92 2409.92,-92 2409.92,-73 2293.92,-73"/>
<text text-anchor="middle" x="2351.92" y="-80" font-family="Helvetica,sans-Serif" font-size="10.00">src/Lists/MLCL_List.c</text>
</a>
</g>
</g>
<!-- Node16&#45;&gt;Node19 -->
<g id="edge22" class="edge">
<title>Node16&#45;&gt;Node19</title>
<path fill="none" stroke="midnightblue" d="M2306.27,-132.26C2318.83,-118.84 2334.27,-102.35 2343.59,-92.39"/>
<polygon fill="midnightblue" stroke="midnightblue" points="2303.56,-130.04 2299.28,-139.73 2308.67,-134.83 2303.56,-130.04"/>
</g>
<!-- Node20 -->
<g id="node20" class="node">
<title>Node20</title>
<g id="a_node20"><a xlink:href="_m_l_c_l___stack_8h.html" target="_top" xlink:title=" ">
<polygon fill="none" stroke="black" points="2164.42,-67.5 2164.42,-97.5 2275.42,-97.5 2275.42,-67.5 2164.42,-67.5"/>
<text text-anchor="start" x="2172.42" y="-85.5" font-family="Helvetica,sans-Serif" font-size="10.00">include/Stack/MLCL</text>
<text text-anchor="middle" x="2219.92" y="-74.5" font-family="Helvetica,sans-Serif" font-size="10.00">_Stack.h</text>
</a>
</g>
</g>
<!-- Node16&#45;&gt;Node20 -->
<g id="edge23" class="edge">
<title>Node16&#45;&gt;Node20</title>
<path fill="none" stroke="midnightblue" d="M2265.66,-132.36C2255.13,-121.11 2242.56,-107.68 2233.26,-97.75"/>
<polygon fill="midnightblue" stroke="midnightblue" points="2263.17,-134.83 2272.56,-139.73 2268.28,-130.04 2263.17,-134.83"/>
</g>
<!-- Node17&#45;&gt;Node11 -->
<g id="edge20" class="edge">
<title>Node17&#45;&gt;Node11</title>
<path fill="none" stroke="midnightblue" d="M1878.75,-70.11C1806.38,-58.02 1692.87,-39.05 1622.07,-27.22"/>
<polygon fill="midnightblue" stroke="midnightblue" points="1878.24,-73.57 1888.68,-71.77 1879.4,-66.67 1878.24,-73.57"/>
</g>
<!-- Node18 -->
<g id="node18" class="node">
<title>Node18</title>
<g id="a_node18"><a xlink:href="_m_l_c_l___queue_8c.html" target="_top" xlink:title=" ">
<polygon fill="none" stroke="black" points="1876.92,-6 1876.92,-25 2016.92,-25 2016.92,-6 1876.92,-6"/>
<text text-anchor="middle" x="1946.92" y="-13" font-family="Helvetica,sans-Serif" font-size="10.00">src/Queue/MLCL_Queue.c</text>
</a>
</g>
</g>
<!-- Node17&#45;&gt;Node18 -->
<g id="edge21" class="edge">
<title>Node17&#45;&gt;Node18</title>
<path fill="none" stroke="midnightblue" d="M1946.92,-57.25C1946.92,-46.02 1946.92,-33.38 1946.92,-25.19"/>
<polygon fill="midnightblue" stroke="midnightblue" points="1943.42,-57.4 1946.92,-67.4 1950.42,-57.4 1943.42,-57.4"/>
</g>
<!-- Node21 -->
<g id="node21" class="node">
<title>Node21</title>
<g id="a_node21"><a xlink:href="_m_l_c_l___stack_8c.html" target="_top" xlink:title=" ">
<polygon fill="none" stroke="black" points="2154.42,-6 2154.42,-25 2285.42,-25 2285.42,-6 2154.42,-6"/>
<text text-anchor="middle" x="2219.92" y="-13" font-family="Helvetica,sans-Serif" font-size="10.00">src/Stack/MLCL_Stack.c</text>
</a>
</g>
</g>
<!-- Node20&#45;&gt;Node21 -->
<g id="edge24" class="edge">
<title>Node20&#45;&gt;Node21</title>
<path fill="none" stroke="midnightblue" d="M2219.92,-57.25C2219.92,-46.02 2219.92,-33.38 2219.92,-25.19"/>
<polygon fill="midnightblue" stroke="midnightblue" points="2216.42,-57.4 2219.92,-67.4 2223.42,-57.4 2216.42,-57.4"/>
</g>
<!-- Node23 -->
<g id="node23" class="node">
<title>Node23</title>
<g id="a_node23"><a xlink:href="_m_l_c_l___binary_heap__test_8h.html" target="_top" xlink:title=" ">
<polygon fill="none" stroke="black" points="194.42,-140 194.42,-170 335.42,-170 335.42,-140 194.42,-140"/>
<text text-anchor="start" x="202.42" y="-158" font-family="Helvetica,sans-Serif" font-size="10.00">include/_Tests/Heap</text>
<text text-anchor="middle" x="264.92" y="-147" font-family="Helvetica,sans-Serif" font-size="10.00">/MLCL_BinaryHeap_test.h</text>
</a>
</g>
</g>
<!-- Node22&#45;&gt;Node23 -->
<g id="edge26" class="edge">
<title>Node22&#45;&gt;Node23</title>
<path fill="none" stroke="midnightblue" d="M261.53,-207.59C262.34,-195.26 263.29,-180.72 263.98,-170.23"/>
<polygon fill="midnightblue" stroke="midnightblue" points="258.02,-207.5 260.86,-217.7 265.01,-207.96 258.02,-207.5"/>
</g>
<!-- Node26 -->
<g id="node26" class="node">
<title>Node26</title>
<g id="a_node26"><a xlink:href="_m_l_c_l___binary_heap_8c.html" target="_top" xlink:title=" ">
<polygon fill="none" stroke="black" points="17.42,-145.5 17.42,-164.5 176.42,-164.5 176.42,-145.5 17.42,-145.5"/>
<text text-anchor="middle" x="96.92" y="-152.5" font-family="Helvetica,sans-Serif" font-size="10.00">src/Heap/MLCL_BinaryHeap.c</text>
</a>
</g>
</g>
<!-- Node22&#45;&gt;Node26 -->
<g id="edge30" class="edge">
<title>Node22&#45;&gt;Node26</title>
<path fill="none" stroke="midnightblue" d="M220.17,-213.47C186.82,-197.92 140.69,-176.41 115.38,-164.61"/>
<polygon fill="midnightblue" stroke="midnightblue" points="219.1,-216.83 229.64,-217.88 222.06,-210.49 219.1,-216.83"/>
</g>
<!-- Node23&#45;&gt;Node2 -->
<g id="edge27" class="edge">
<title>Node23&#45;&gt;Node2</title>
<path fill="none" stroke="midnightblue" d="M252.71,-130.73C246.99,-119.83 240.36,-107.2 235.4,-97.75"/>
<polygon fill="midnightblue" stroke="midnightblue" points="249.69,-132.51 257.43,-139.73 255.88,-129.25 249.69,-132.51"/>
</g>
<!-- Node24 -->
<g id="node24" class="node">
<title>Node24</title>
<g id="a_node24"><a xlink:href="_m_l_c_l__all__tests_8h.html" target="_top" xlink:title=" ">
<polygon fill="none" stroke="black" points="306.92,-67.5 306.92,-97.5 420.92,-97.5 420.92,-67.5 306.92,-67.5"/>
<text text-anchor="start" x="314.92" y="-85.5" font-family="Helvetica,sans-Serif" font-size="10.00">include/_Tests/MLCL</text>
<text text-anchor="middle" x="363.92" y="-74.5" font-family="Helvetica,sans-Serif" font-size="10.00">_all_tests.h</text>
</a>
</g>
</g>
<!-- Node23&#45;&gt;Node24 -->
<g id="edge28" class="edge">
<title>Node23&#45;&gt;Node24</title>
<path fill="none" stroke="midnightblue" d="M293.1,-133.93C309.45,-122.29 329.62,-107.92 344.25,-97.5"/>
<polygon fill="midnightblue" stroke="midnightblue" points="291.07,-131.08 284.95,-139.73 295.13,-136.78 291.07,-131.08"/>
</g>
<!-- Node25 -->
<g id="node25" class="node">
<title>Node25</title>
<g id="a_node25"><a xlink:href="_m_l_c_l__all__tests_8c.html" target="_top" xlink:title=" ">
<polygon fill="none" stroke="black" points="308.92,-0.5 308.92,-30.5 418.92,-30.5 418.92,-0.5 308.92,-0.5"/>
<text text-anchor="start" x="316.92" y="-18.5" font-family="Helvetica,sans-Serif" font-size="10.00">src/_Tests/MLCL_all</text>
<text text-anchor="middle" x="363.92" y="-7.5" font-family="Helvetica,sans-Serif" font-size="10.00">_tests.c</text>
</a>
</g>
</g>
<!-- Node24&#45;&gt;Node25 -->
<g id="edge29" class="edge">
<title>Node24&#45;&gt;Node25</title>
<path fill="none" stroke="midnightblue" d="M363.92,-57.11C363.92,-48.15 363.92,-38.32 363.92,-30.58"/>
<polygon fill="midnightblue" stroke="midnightblue" points="360.42,-57.4 363.92,-67.4 367.42,-57.4 360.42,-57.4"/>
</g>
<!-- Node28&#45;&gt;Node7 -->
<g id="edge37" class="edge">
<title>Node28&#45;&gt;Node7</title>
<path fill="none" stroke="midnightblue" d="M1655.31,-285.47C1639.47,-276.75 1621.19,-265.75 1605.92,-254 1571.78,-227.74 1537.47,-190.29 1519.92,-170.14"/>
<polygon fill="midnightblue" stroke="midnightblue" points="1653.86,-288.66 1664.32,-290.33 1657.18,-282.5 1653.86,-288.66"/>
</g>
<!-- Node28&#45;&gt;Node16 -->
<g id="edge38" class="edge">
<title>Node28&#45;&gt;Node16</title>
<path fill="none" stroke="midnightblue" d="M1760.12,-289.97C1925.93,-265.75 1978.28,-307.8 2132.92,-254 2165.4,-242.7 2168.97,-230.57 2197.92,-212 2220.18,-197.73 2245.67,-181.52 2263.47,-170.23"/>
<polygon fill="midnightblue" stroke="midnightblue" points="1759.44,-286.54 1750.08,-291.5 1760.49,-293.46 1759.44,-286.54"/>
</g>
<!-- Node29 -->
<g id="node29" class="node">
<title>Node29</title>
<g id="a_node29"><a xlink:href="_m_l_c_l___circular_double_linked_list_8h.html" target="_top" xlink:title=" ">
<polygon fill="none" stroke="black" points="1933.92,-218 1933.92,-248 2085.92,-248 2085.92,-218 1933.92,-218"/>
<text text-anchor="start" x="1941.92" y="-236" font-family="Helvetica,sans-Serif" font-size="10.00">include/Lists/MLCL</text>
<text text-anchor="middle" x="2009.92" y="-225" font-family="Helvetica,sans-Serif" font-size="10.00">_CircularDoubleLinkedList.h</text>
</a>
</g>
</g>
<!-- Node28&#45;&gt;Node29 -->
<g id="edge33" class="edge">
<title>Node28&#45;&gt;Node29</title>
<path fill="none" stroke="midnightblue" d="M1759.99,-289.58C1815.15,-277.32 1892.77,-260.05 1946.81,-248.03"/>
<polygon fill="midnightblue" stroke="midnightblue" points="1758.96,-286.23 1749.96,-291.81 1760.48,-293.06 1758.96,-286.23"/>
</g>
<!-- Node30 -->
<g id="node30" class="node">
<title>Node30</title>
<g id="a_node30"><a xlink:href="_m_l_c_l___circular_double_linked_list_8c.html" target="_top" xlink:title=" ">
<polygon fill="none" stroke="black" points="2051.42,-140 2051.42,-170 2214.42,-170 2214.42,-140 2051.42,-140"/>
<text text-anchor="start" x="2059.42" y="-158" font-family="Helvetica,sans-Serif" font-size="10.00">src/Lists/MLCL_CircularDouble</text>
<text text-anchor="middle" x="2132.92" y="-147" font-family="Helvetica,sans-Serif" font-size="10.00">LinkedList.c</text>
</a>
</g>
</g>
<!-- Node28&#45;&gt;Node30 -->
<g id="edge39" class="edge">
<title>Node28&#45;&gt;Node30</title>
<path fill="none" stroke="midnightblue" d="M1734.08,-286.4C1780.05,-266.58 1856.93,-234.62 1924.92,-212 1974.42,-195.53 2031.74,-180.38 2073.65,-170"/>
<polygon fill="midnightblue" stroke="midnightblue" points="1732.55,-283.25 1724.76,-290.43 1735.33,-289.67 1732.55,-283.25"/>
</g>
<!-- Node31 -->
<g id="node31" class="node">
<title>Node31</title>
<g id="a_node31"><a xlink:href="_m_l_c_l___double_linked_list_8c.html" target="_top" xlink:title=" ">
<polygon fill="none" stroke="black" points="1614.42,-218 1614.42,-248 1771.42,-248 1771.42,-218 1614.42,-218"/>
<text text-anchor="start" x="1622.42" y="-236" font-family="Helvetica,sans-Serif" font-size="10.00">src/Lists/MLCL_DoubleLinked</text>
<text text-anchor="middle" x="1692.92" y="-225" font-family="Helvetica,sans-Serif" font-size="10.00">List.c</text>
</a>
</g>
</g>
<!-- Node28&#45;&gt;Node31 -->
<g id="edge40" class="edge">
<title>Node28&#45;&gt;Node31</title>
<path fill="none" stroke="midnightblue" d="M1692.92,-280.23C1692.92,-269.57 1692.92,-257.41 1692.92,-248.25"/>
<polygon fill="midnightblue" stroke="midnightblue" points="1689.42,-280.23 1692.92,-290.23 1696.42,-280.23 1689.42,-280.23"/>
</g>
<!-- Node29&#45;&gt;Node5 -->
<g id="edge34" class="edge">
<title>Node29&#45;&gt;Node5</title>
<path fill="none" stroke="midnightblue" d="M1962,-214.41C1930.42,-202.81 1889.03,-187.61 1856.38,-175.63"/>
<polygon fill="midnightblue" stroke="midnightblue" points="1960.88,-217.72 1971.47,-217.88 1963.29,-211.15 1960.88,-217.72"/>
</g>
<!-- Node29&#45;&gt;Node16 -->
<g id="edge35" class="edge">
<title>Node29&#45;&gt;Node16</title>
<path fill="none" stroke="midnightblue" d="M2077.28,-215.4C2119.56,-204.73 2175.11,-190.25 2223.92,-176 2230.22,-174.16 2236.84,-172.13 2243.33,-170.09"/>
<polygon fill="midnightblue" stroke="midnightblue" points="2076.23,-212.06 2067.38,-217.89 2077.93,-218.85 2076.23,-212.06"/>
</g>
<!-- Node29&#45;&gt;Node30 -->
<g id="edge36" class="edge">
<title>Node29&#45;&gt;Node30</title>
<path fill="none" stroke="midnightblue" d="M2041.53,-212.47C2063.01,-199.2 2090.9,-181.96 2110.2,-170.04"/>
<polygon fill="midnightblue" stroke="midnightblue" points="2039.43,-209.65 2032.77,-217.88 2043.11,-215.6 2039.43,-209.65"/>
</g>
<!-- Node32&#45;&gt;Node8 -->
<g id="edge46" class="edge">
<title>Node32&#45;&gt;Node8</title>
<path fill="none" stroke="midnightblue" d="M2134.15,-295.73C2078.4,-287.35 1995.53,-273.16 1924.92,-254 1837.28,-230.22 1737.69,-190.9 1687.15,-170.03"/>
<polygon fill="midnightblue" stroke="midnightblue" points="2133.83,-299.23 2144.24,-297.23 2134.86,-292.3 2133.83,-299.23"/>
</g>
<!-- Node32&#45;&gt;Node16 -->
<g id="edge47" class="edge">
<title>Node32&#45;&gt;Node16</title>
<path fill="none" stroke="midnightblue" d="M2198.82,-280.29C2200.52,-260.62 2205.22,-232.83 2217.92,-212 2228.59,-194.5 2246.72,-179.98 2261.58,-170.11"/>
<polygon fill="midnightblue" stroke="midnightblue" points="2195.33,-280.07 2198.15,-290.28 2202.31,-280.54 2195.33,-280.07"/>
</g>
<!-- Node33 -->
<g id="node33" class="node">
<title>Node33</title>
<g id="a_node33"><a xlink:href="_m_l_c_l___circular_linked_list_8h.html" target="_top" xlink:title=" ">
<polygon fill="none" stroke="black" points="2226.42,-218 2226.42,-248 2343.42,-248 2343.42,-218 2226.42,-218"/>
<text text-anchor="start" x="2234.42" y="-236" font-family="Helvetica,sans-Serif" font-size="10.00">include/Lists/MLCL</text>
<text text-anchor="middle" x="2284.92" y="-225" font-family="Helvetica,sans-Serif" font-size="10.00">_CircularLinkedList.h</text>
</a>
</g>
</g>
<!-- Node32&#45;&gt;Node33 -->
<g id="edge42" class="edge">
<title>Node32&#45;&gt;Node33</title>
<path fill="none" stroke="midnightblue" d="M2223.48,-283.79C2237.7,-272.27 2255.02,-258.23 2267.64,-248"/>
<polygon fill="midnightblue" stroke="midnightblue" points="2221.09,-281.22 2215.53,-290.23 2225.5,-286.66 2221.09,-281.22"/>
</g>
<!-- Node35 -->
<g id="node35" class="node">
<title>Node35</title>
<g id="a_node35"><a xlink:href="_m_l_c_l___linked_list_8c.html" target="_top" xlink:title=" ">
<polygon fill="none" stroke="black" points="2361.92,-223.5 2361.92,-242.5 2509.92,-242.5 2509.92,-223.5 2361.92,-223.5"/>
<text text-anchor="middle" x="2435.92" y="-230.5" font-family="Helvetica,sans-Serif" font-size="10.00">src/Lists/MLCL_LinkedList.c</text>
</a>
</g>
</g>
<!-- Node32&#45;&gt;Node35 -->
<g id="edge48" class="edge">
<title>Node32&#45;&gt;Node35</title>
<path fill="none" stroke="midnightblue" d="M2254.85,-287.64C2302.8,-273.43 2369.42,-253.7 2407.04,-242.55"/>
<polygon fill="midnightblue" stroke="midnightblue" points="2253.82,-284.29 2245.23,-290.49 2255.81,-291 2253.82,-284.29"/>
</g>
<!-- Node33&#45;&gt;Node6 -->
<g id="edge43" class="edge">
<title>Node33&#45;&gt;Node6</title>
<path fill="none" stroke="midnightblue" d="M2216.41,-216.48C2167.91,-205.42 2101.36,-190.07 2042.92,-176 2034.99,-174.09 2026.62,-172.04 2018.41,-170.01"/>
<polygon fill="midnightblue" stroke="midnightblue" points="2215.64,-219.9 2226.17,-218.71 2217.2,-213.07 2215.64,-219.9"/>
</g>
<!-- Node33&#45;&gt;Node16 -->
<g id="edge44" class="edge">
<title>Node33&#45;&gt;Node16</title>
<path fill="none" stroke="midnightblue" d="M2285.24,-207.59C2285.4,-195.26 2285.59,-180.72 2285.73,-170.23"/>
<polygon fill="midnightblue" stroke="midnightblue" points="2281.74,-207.66 2285.11,-217.7 2288.74,-207.75 2281.74,-207.66"/>
</g>
<!-- Node34 -->
<g id="node34" class="node">
<title>Node34</title>
<g id="a_node34"><a xlink:href="_m_l_c_l___circular_linked_list_8c.html" target="_top" xlink:title=" ">
<polygon fill="none" stroke="black" points="2357.92,-140 2357.92,-170 2517.92,-170 2517.92,-140 2357.92,-140"/>
<text text-anchor="start" x="2365.92" y="-158" font-family="Helvetica,sans-Serif" font-size="10.00">src/Lists/MLCL_CircularLinked</text>
<text text-anchor="middle" x="2437.92" y="-147" font-family="Helvetica,sans-Serif" font-size="10.00">List.c</text>
</a>
</g>
</g>
<!-- Node33&#45;&gt;Node34 -->
<g id="edge45" class="edge">
<title>Node33&#45;&gt;Node34</title>
<path fill="none" stroke="midnightblue" d="M2322.47,-213.35C2349.4,-199.97 2385.12,-182.23 2409.65,-170.04"/>
<polygon fill="midnightblue" stroke="midnightblue" points="2320.74,-210.3 2313.34,-217.88 2323.85,-216.57 2320.74,-210.3"/>
</g>
<!-- Node38 -->
<g id="node38" class="node">
<title>Node38</title>
<g id="a_node38"><a xlink:href="_m_l_c_l___a_v_l_tree_8h.html" target="_top" xlink:title=" ">
<polygon fill="none" stroke="black" points="777.92,-218 777.92,-248 887.92,-248 887.92,-218 777.92,-218"/>
<text text-anchor="start" x="785.92" y="-236" font-family="Helvetica,sans-Serif" font-size="10.00">include/Trees/MLCL</text>
<text text-anchor="middle" x="832.92" y="-225" font-family="Helvetica,sans-Serif" font-size="10.00">_AVLTree.h</text>
</a>
</g>
</g>
<!-- Node37&#45;&gt;Node38 -->
<g id="edge52" class="edge">
<title>Node37&#45;&gt;Node38</title>
<path fill="none" stroke="midnightblue" d="M871.22,-282.21C862.39,-271.1 851.97,-257.99 844.24,-248.25"/>
<polygon fill="midnightblue" stroke="midnightblue" points="868.63,-284.58 877.59,-290.23 874.11,-280.23 868.63,-284.58"/>
</g>
<!-- Node40 -->
<g id="node40" class="node">
<title>Node40</title>
<g id="a_node40"><a xlink:href="_m_l_c_l___binary_search_tree__test_8h.html" target="_top" xlink:title=" ">
<polygon fill="none" stroke="black" points="623.92,-212.5 623.92,-253.5 759.92,-253.5 759.92,-212.5 623.92,-212.5"/>
<text text-anchor="start" x="631.92" y="-241.5" font-family="Helvetica,sans-Serif" font-size="10.00">include/_Tests/Trees</text>
<text text-anchor="start" x="631.92" y="-230.5" font-family="Helvetica,sans-Serif" font-size="10.00">/MLCL_BinarySearchTree</text>
<text text-anchor="middle" x="691.92" y="-219.5" font-family="Helvetica,sans-Serif" font-size="10.00">_test.h</text>
</a>
</g>
</g>
<!-- Node37&#45;&gt;Node40 -->
<g id="edge55" class="edge">
<title>Node37&#45;&gt;Node40</title>
<path fill="none" stroke="midnightblue" d="M839.83,-286.93C811.48,-276.79 775.77,-264.01 746.54,-253.55"/>
<polygon fill="midnightblue" stroke="midnightblue" points="838.93,-290.33 849.53,-290.4 841.29,-283.74 838.93,-290.33"/>
</g>
<!-- Node41 -->
<g id="node41" class="node">
<title>Node41</title>
<g id="a_node41"><a xlink:href="_m_l_c_l___binary_search_tree_8c.html" target="_top" xlink:title=" ">
<polygon fill="none" stroke="black" points="905.92,-218 905.92,-248 1063.92,-248 1063.92,-218 905.92,-218"/>
<text text-anchor="start" x="913.92" y="-236" font-family="Helvetica,sans-Serif" font-size="10.00">src/Trees/MLCL_BinarySearch</text>
<text text-anchor="middle" x="984.92" y="-225" font-family="Helvetica,sans-Serif" font-size="10.00">Tree.c</text>
</a>
</g>
</g>
<!-- Node37&#45;&gt;Node41 -->
<g id="edge58" class="edge">
<title>Node37&#45;&gt;Node41</title>
<path fill="none" stroke="midnightblue" d="M916.68,-284.11C932.45,-272.53 951.79,-258.33 965.85,-248"/>
<polygon fill="midnightblue" stroke="midnightblue" points="914.34,-281.49 908.35,-290.23 918.48,-287.14 914.34,-281.49"/>
</g>
<!-- Node38&#45;&gt;Node12 -->
<g id="edge53" class="edge">
<title>Node38&#45;&gt;Node12</title>
<path fill="none" stroke="midnightblue" d="M778.51,-214.91C735.46,-201.39 676.08,-182.74 635.74,-170.07"/>
<polygon fill="midnightblue" stroke="midnightblue" points="777.66,-218.31 788.25,-217.97 779.76,-211.64 777.66,-218.31"/>
</g>
<!-- Node39 -->
<g id="node39" class="node">
<title>Node39</title>
<g id="a_node39"><a xlink:href="_m_l_c_l___a_v_l_tree_8c.html" target="_top" xlink:title=" ">
<polygon fill="none" stroke="black" points="669.92,-145.5 669.92,-164.5 809.92,-164.5 809.92,-145.5 669.92,-145.5"/>
<text text-anchor="middle" x="739.92" y="-152.5" font-family="Helvetica,sans-Serif" font-size="10.00">src/Trees/MLCL_AVLTree.c</text>
</a>
</g>
</g>
<!-- Node38&#45;&gt;Node39 -->
<g id="edge54" class="edge">
<title>Node38&#45;&gt;Node39</title>
<path fill="none" stroke="midnightblue" d="M807.53,-211.25C788.76,-195.91 764.16,-175.81 750.4,-164.56"/>
<polygon fill="midnightblue" stroke="midnightblue" points="805.47,-214.09 815.43,-217.7 809.9,-208.67 805.47,-214.09"/>
</g>
<!-- Node40&#45;&gt;Node13 -->
<g id="edge57" class="edge">
<title>Node40&#45;&gt;Node13</title>
<path fill="none" stroke="midnightblue" d="M754.44,-208.93C788.75,-196.28 830.18,-180.99 859.68,-170.11"/>
<polygon fill="midnightblue" stroke="midnightblue" points="753.14,-205.68 744.97,-212.43 755.56,-212.25 753.14,-205.68"/>
</g>
<!-- Node40&#45;&gt;Node24 -->
<g id="edge56" class="edge">
<title>Node40&#45;&gt;Node24</title>
<path fill="none" stroke="midnightblue" d="M613.8,-222.44C527.77,-211.19 399.33,-192.03 382.92,-176 361.81,-155.38 360.99,-118.03 362.37,-97.66"/>
<polygon fill="midnightblue" stroke="midnightblue" points="613.45,-225.92 623.82,-223.73 614.35,-218.98 613.45,-225.92"/>
</g>
</g>
</svg>
