<?xml version="1.0" encoding="UTF-8" standalone="no"?>
<!DOCTYPE svg PUBLIC "-//W3C//DTD SVG 1.1//EN"
 "http://www.w3.org/Graphics/SVG/1.1/DTD/svg11.dtd">
<!-- Generated by graphviz version 2.43.0 (0)
 -->
<!-- Title: include/Tree/MLCL_BinarySearchTree.h Pages: 1 -->
<svg width="377pt" height="251pt"
 viewBox="0.00 0.00 376.50 251.00" xmlns="http://www.w3.org/2000/svg" xmlns:xlink="http://www.w3.org/1999/xlink">
<g id="graph0" class="graph" transform="scale(1 1) rotate(0) translate(4 247)">
<title>include/Tree/MLCL_BinarySearchTree.h</title>
<!-- Node1 -->
<g id="node1" class="node">
<title>Node1</title>
<g id="a_node1"><a xlink:title=" ">
<polygon fill="#bfbfbf" stroke="black" points="139.5,-212.5 139.5,-242.5 280.5,-242.5 280.5,-212.5 139.5,-212.5"/>
<text text-anchor="start" x="147.5" y="-230.5" font-family="Helvetica,sans-Serif" font-size="10.00">include/Tree/MLCL_Binary</text>
<text text-anchor="middle" x="210" y="-219.5" font-family="Helvetica,sans-Serif" font-size="10.00">SearchTree.h</text>
</a>
</g>
</g>
<!-- Node2 -->
<g id="node2" class="node">
<title>Node2</title>
<g id="a_node2"><a xlink:href="_m_l_c_l___binary_search_tree__test_8h.html" target="_top" xlink:title=" ">
<polygon fill="none" stroke="black" points="61,-134.5 61,-175.5 197,-175.5 197,-134.5 61,-134.5"/>
<text text-anchor="start" x="69" y="-163.5" font-family="Helvetica,sans-Serif" font-size="10.00">include/_Tests/Tree</text>
<text text-anchor="start" x="69" y="-152.5" font-family="Helvetica,sans-Serif" font-size="10.00">/MLCL_BinarySearchTree</text>
<text text-anchor="middle" x="129" y="-141.5" font-family="Helvetica,sans-Serif" font-size="10.00">_test.h</text>
</a>
</g>
</g>
<!-- Node1&#45;&gt;Node2 -->
<g id="edge1" class="edge">
<title>Node1&#45;&gt;Node2</title>
<path fill="none" stroke="midnightblue" d="M186.05,-205.66C175.12,-196.15 162.25,-184.94 151.51,-175.59"/>
<polygon fill="midnightblue" stroke="midnightblue" points="183.77,-208.31 193.61,-212.23 188.36,-203.03 183.77,-208.31"/>
</g>
<!-- Node6 -->
<g id="node6" class="node">
<title>Node6</title>
<g id="a_node6"><a xlink:href="_m_l_c_l___binary_search_tree_8c.html" target="_top" xlink:title=" ">
<polygon fill="none" stroke="black" points="215.5,-140 215.5,-170 368.5,-170 368.5,-140 215.5,-140"/>
<text text-anchor="start" x="223.5" y="-158" font-family="Helvetica,sans-Serif" font-size="10.00">src/Tree/MLCL_BinarySearch</text>
<text text-anchor="middle" x="292" y="-147" font-family="Helvetica,sans-Serif" font-size="10.00">Tree.c</text>
</a>
</g>
</g>
<!-- Node1&#45;&gt;Node6 -->
<g id="edge5" class="edge">
<title>Node1&#45;&gt;Node6</title>
<path fill="none" stroke="midnightblue" d="M234.47,-205.46C247.8,-194 263.93,-180.14 275.71,-170"/>
<polygon fill="midnightblue" stroke="midnightblue" points="231.89,-203.06 226.59,-212.23 236.46,-208.37 231.89,-203.06"/>
</g>
<!-- Node3 -->
<g id="node3" class="node">
<title>Node3</title>
<g id="a_node3"><a xlink:href="_m_l_c_l__all__tests_8h.html" target="_top" xlink:title=" ">
<polygon fill="none" stroke="black" points="0,-67.5 0,-97.5 114,-97.5 114,-67.5 0,-67.5"/>
<text text-anchor="start" x="8" y="-85.5" font-family="Helvetica,sans-Serif" font-size="10.00">include/_Tests/MLCL</text>
<text text-anchor="middle" x="57" y="-74.5" font-family="Helvetica,sans-Serif" font-size="10.00">_all_tests.h</text>
</a>
</g>
</g>
<!-- Node2&#45;&gt;Node3 -->
<g id="edge2" class="edge">
<title>Node2&#45;&gt;Node3</title>
<path fill="none" stroke="midnightblue" d="M101.74,-127.31C91.54,-117.32 80.34,-106.35 71.7,-97.89"/>
<polygon fill="midnightblue" stroke="midnightblue" points="99.35,-129.87 108.94,-134.36 104.25,-124.86 99.35,-129.87"/>
</g>
<!-- Node5 -->
<g id="node5" class="node">
<title>Node5</title>
<g id="a_node5"><a xlink:href="_m_l_c_l___binary_search_tree__test_8c.html" target="_top" xlink:title=" ">
<polygon fill="none" stroke="black" points="132.5,-67.5 132.5,-97.5 271.5,-97.5 271.5,-67.5 132.5,-67.5"/>
<text text-anchor="start" x="140.5" y="-85.5" font-family="Helvetica,sans-Serif" font-size="10.00">src/_Tests/Tree/MLCL</text>
<text text-anchor="middle" x="202" y="-74.5" font-family="Helvetica,sans-Serif" font-size="10.00">_BinarySearchTree_test.c</text>
</a>
</g>
</g>
<!-- Node2&#45;&gt;Node5 -->
<g id="edge4" class="edge">
<title>Node2&#45;&gt;Node5</title>
<path fill="none" stroke="midnightblue" d="M156.64,-127.31C166.98,-117.32 178.34,-106.35 187.1,-97.89"/>
<polygon fill="midnightblue" stroke="midnightblue" points="154.1,-124.9 149.33,-134.36 158.96,-129.93 154.1,-124.9"/>
</g>
<!-- Node4 -->
<g id="node4" class="node">
<title>Node4</title>
<g id="a_node4"><a xlink:href="_m_l_c_l__all__tests_8c.html" target="_top" xlink:title=" ">
<polygon fill="none" stroke="black" points="2,-0.5 2,-30.5 112,-30.5 112,-0.5 2,-0.5"/>
<text text-anchor="start" x="10" y="-18.5" font-family="Helvetica,sans-Serif" font-size="10.00">src/_Tests/MLCL_all</text>
<text text-anchor="middle" x="57" y="-7.5" font-family="Helvetica,sans-Serif" font-size="10.00">_tests.c</text>
</a>
</g>
</g>
<!-- Node3&#45;&gt;Node4 -->
<g id="edge3" class="edge">
<title>Node3&#45;&gt;Node4</title>
<path fill="none" stroke="midnightblue" d="M57,-57.11C57,-48.15 57,-38.32 57,-30.58"/>
<polygon fill="midnightblue" stroke="midnightblue" points="53.5,-57.4 57,-67.4 60.5,-57.4 53.5,-57.4"/>
</g>
</g>
</svg>
