<?xml version="1.0" encoding="UTF-8" standalone="no"?>
<!DOCTYPE svg PUBLIC "-//W3C//DTD SVG 1.1//EN"
 "http://www.w3.org/Graphics/SVG/1.1/DTD/svg11.dtd">
<!-- Generated by graphviz version 2.43.0 (0)
 -->
<!-- Title: include/Lists/MLCL_DoubleLinkedList.h Pages: 1 -->
<svg width="1221pt" height="318pt"
 viewBox="0.00 0.00 1220.50 318.00" xmlns="http://www.w3.org/2000/svg" xmlns:xlink="http://www.w3.org/1999/xlink">
<g id="graph0" class="graph" transform="scale(1 1) rotate(0) translate(4 314)">
<title>include/Lists/MLCL_DoubleLinkedList.h</title>
<!-- Node1 -->
<g id="node1" class="node">
<title>Node1</title>
<g id="a_node1"><a xlink:title=" ">
<polygon fill="#bfbfbf" stroke="black" points="773,-279.5 773,-309.5 887,-309.5 887,-279.5 773,-279.5"/>
<text text-anchor="start" x="781" y="-297.5" font-family="Helvetica,sans-Serif" font-size="10.00">include/Lists/MLCL</text>
<text text-anchor="middle" x="830" y="-286.5" font-family="Helvetica,sans-Serif" font-size="10.00">_DoubleLinkedList.h</text>
</a>
</g>
</g>
<!-- Node2 -->
<g id="node2" class="node">
<title>Node2</title>
<g id="a_node2"><a xlink:href="_m_l_c_l___circular_double_linked_list_8h.html" target="_top" xlink:title=" ">
<polygon fill="none" stroke="black" points="650,-212.5 650,-242.5 802,-242.5 802,-212.5 650,-212.5"/>
<text text-anchor="start" x="658" y="-230.5" font-family="Helvetica,sans-Serif" font-size="10.00">include/Lists/MLCL</text>
<text text-anchor="middle" x="726" y="-219.5" font-family="Helvetica,sans-Serif" font-size="10.00">_CircularDoubleLinkedList.h</text>
</a>
</g>
</g>
<!-- Node1&#45;&gt;Node2 -->
<g id="edge1" class="edge">
<title>Node1&#45;&gt;Node2</title>
<path fill="none" stroke="midnightblue" d="M798.82,-274.02C782.64,-263.9 763.23,-251.77 748.52,-242.58"/>
<polygon fill="midnightblue" stroke="midnightblue" points="797.1,-277.06 807.43,-279.4 800.81,-271.13 797.1,-277.06"/>
</g>
<!-- Node4 -->
<g id="node4" class="node">
<title>Node4</title>
<g id="a_node4"><a xlink:href="_m_l_c_l___list_8h.html" target="_top" xlink:title=" ">
<polygon fill="none" stroke="black" points="529.5,-140 529.5,-170 636.5,-170 636.5,-140 529.5,-140"/>
<text text-anchor="start" x="537.5" y="-158" font-family="Helvetica,sans-Serif" font-size="10.00">include/Lists/MLCL</text>
<text text-anchor="middle" x="583" y="-147" font-family="Helvetica,sans-Serif" font-size="10.00">_List.h</text>
</a>
</g>
</g>
<!-- Node1&#45;&gt;Node4 -->
<g id="edge20" class="edge">
<title>Node1&#45;&gt;Node4</title>
<path fill="none" stroke="midnightblue" d="M762.88,-287.39C724.3,-281.14 676.6,-268.52 641,-243 614.74,-224.17 596.96,-189.47 588.56,-170.07"/>
<polygon fill="midnightblue" stroke="midnightblue" points="762.57,-290.88 772.98,-288.91 763.62,-283.96 762.57,-290.88"/>
</g>
<!-- Node19 -->
<g id="node19" class="node">
<title>Node19</title>
<g id="a_node19"><a xlink:href="_m_l_c_l___circular_double_linked_list_8c.html" target="_top" xlink:title=" ">
<polygon fill="none" stroke="black" points="815.5,-140 815.5,-170 978.5,-170 978.5,-140 815.5,-140"/>
<text text-anchor="start" x="823.5" y="-158" font-family="Helvetica,sans-Serif" font-size="10.00">src/Lists/MLCL_CircularDouble</text>
<text text-anchor="middle" x="897" y="-147" font-family="Helvetica,sans-Serif" font-size="10.00">LinkedList.c</text>
</a>
</g>
</g>
<!-- Node1&#45;&gt;Node19 -->
<g id="edge21" class="edge">
<title>Node1&#45;&gt;Node19</title>
<path fill="none" stroke="midnightblue" d="M833,-269.17C835.76,-252.42 840.86,-230.01 850,-212 858.04,-196.15 871.34,-180.89 881.75,-170.31"/>
<polygon fill="midnightblue" stroke="midnightblue" points="829.5,-268.86 831.5,-279.27 836.43,-269.89 829.5,-268.86"/>
</g>
<!-- Node20 -->
<g id="node20" class="node">
<title>Node20</title>
<g id="a_node20"><a xlink:href="_m_l_c_l___double_linked_list__test_8c.html" target="_top" xlink:title=" ">
<polygon fill="none" stroke="black" points="858.5,-212.5 858.5,-242.5 995.5,-242.5 995.5,-212.5 858.5,-212.5"/>
<text text-anchor="start" x="866.5" y="-230.5" font-family="Helvetica,sans-Serif" font-size="10.00">src/_Tests/Lists/MLCL</text>
<text text-anchor="middle" x="927" y="-219.5" font-family="Helvetica,sans-Serif" font-size="10.00">_DoubleLinkedList_test.c</text>
</a>
</g>
</g>
<!-- Node1&#45;&gt;Node20 -->
<g id="edge19" class="edge">
<title>Node1&#45;&gt;Node20</title>
<path fill="none" stroke="midnightblue" d="M859.5,-273.73C874.51,-263.68 892.4,-251.68 905.99,-242.58"/>
<polygon fill="midnightblue" stroke="midnightblue" points="857.41,-270.92 851.05,-279.4 861.3,-276.74 857.41,-270.92"/>
</g>
<!-- Node21 -->
<g id="node21" class="node">
<title>Node21</title>
<g id="a_node21"><a xlink:href="_m_l_c_l___double_linked_list_8c.html" target="_top" xlink:title=" ">
<polygon fill="none" stroke="black" points="1013.5,-212.5 1013.5,-242.5 1170.5,-242.5 1170.5,-212.5 1013.5,-212.5"/>
<text text-anchor="start" x="1021.5" y="-230.5" font-family="Helvetica,sans-Serif" font-size="10.00">src/Lists/MLCL_DoubleLinked</text>
<text text-anchor="middle" x="1092" y="-219.5" font-family="Helvetica,sans-Serif" font-size="10.00">List.c</text>
</a>
</g>
</g>
<!-- Node1&#45;&gt;Node21 -->
<g id="edge22" class="edge">
<title>Node1&#45;&gt;Node21</title>
<path fill="none" stroke="midnightblue" d="M896.3,-277.05C939.13,-266.43 994.29,-252.74 1035.12,-242.61"/>
<polygon fill="midnightblue" stroke="midnightblue" points="895.39,-273.67 886.53,-279.48 897.08,-280.47 895.39,-273.67"/>
</g>
<!-- Node3 -->
<g id="node3" class="node">
<title>Node3</title>
<g id="a_node3"><a xlink:href="_m_l_c_l___circular_double_linked_list__test_8c.html" target="_top" xlink:title=" ">
<polygon fill="none" stroke="black" points="654.5,-134.5 654.5,-175.5 797.5,-175.5 797.5,-134.5 654.5,-134.5"/>
<text text-anchor="start" x="662.5" y="-163.5" font-family="Helvetica,sans-Serif" font-size="10.00">src/_Tests/Lists/MLCL</text>
<text text-anchor="start" x="662.5" y="-152.5" font-family="Helvetica,sans-Serif" font-size="10.00">_CircularDoubleLinkedList</text>
<text text-anchor="middle" x="726" y="-141.5" font-family="Helvetica,sans-Serif" font-size="10.00">_test.c</text>
</a>
</g>
</g>
<!-- Node2&#45;&gt;Node3 -->
<g id="edge2" class="edge">
<title>Node2&#45;&gt;Node3</title>
<path fill="none" stroke="midnightblue" d="M726,-201.98C726,-193.35 726,-183.76 726,-175.59"/>
<polygon fill="midnightblue" stroke="midnightblue" points="722.5,-202.23 726,-212.23 729.5,-202.23 722.5,-202.23"/>
</g>
<!-- Node2&#45;&gt;Node4 -->
<g id="edge3" class="edge">
<title>Node2&#45;&gt;Node4</title>
<path fill="none" stroke="midnightblue" d="M688.22,-207.87C664.18,-196.02 633.55,-180.92 611.54,-170.07"/>
<polygon fill="midnightblue" stroke="midnightblue" points="686.89,-211.12 697.41,-212.4 689.98,-204.84 686.89,-211.12"/>
</g>
<!-- Node2&#45;&gt;Node19 -->
<g id="edge18" class="edge">
<title>Node2&#45;&gt;Node19</title>
<path fill="none" stroke="midnightblue" d="M769.66,-208.5C798.62,-196.56 836.09,-181.11 862.87,-170.07"/>
<polygon fill="midnightblue" stroke="midnightblue" points="768.1,-205.36 760.19,-212.4 770.77,-211.83 768.1,-205.36"/>
</g>
<!-- Node5 -->
<g id="node5" class="node">
<title>Node5</title>
<g id="a_node5"><a xlink:href="_m_l_c_l___list__test_8c.html" target="_top" xlink:title=" ">
<polygon fill="none" stroke="black" points="102.5,-67.5 102.5,-97.5 221.5,-97.5 221.5,-67.5 102.5,-67.5"/>
<text text-anchor="start" x="110.5" y="-85.5" font-family="Helvetica,sans-Serif" font-size="10.00">src/_Tests/Lists/MLCL</text>
<text text-anchor="middle" x="162" y="-74.5" font-family="Helvetica,sans-Serif" font-size="10.00">_List_test.c</text>
</a>
</g>
</g>
<!-- Node4&#45;&gt;Node5 -->
<g id="edge4" class="edge">
<title>Node4&#45;&gt;Node5</title>
<path fill="none" stroke="midnightblue" d="M519.41,-144.85C448.79,-134.46 331.49,-116.54 231,-98 227.99,-97.44 224.91,-96.86 221.8,-96.26"/>
<polygon fill="midnightblue" stroke="midnightblue" points="519.09,-148.34 529.49,-146.33 520.1,-141.41 519.09,-148.34"/>
</g>
<!-- Node6 -->
<g id="node6" class="node">
<title>Node6</title>
<g id="a_node6"><a xlink:href="_m_l_c_l___queue_8h.html" target="_top" xlink:title=" ">
<polygon fill="none" stroke="black" points="240,-67.5 240,-97.5 356,-97.5 356,-67.5 240,-67.5"/>
<text text-anchor="start" x="248" y="-85.5" font-family="Helvetica,sans-Serif" font-size="10.00">include/Queue/MLCL</text>
<text text-anchor="middle" x="298" y="-74.5" font-family="Helvetica,sans-Serif" font-size="10.00">_Queue.h</text>
</a>
</g>
</g>
<!-- Node4&#45;&gt;Node6 -->
<g id="edge5" class="edge">
<title>Node4&#45;&gt;Node6</title>
<path fill="none" stroke="midnightblue" d="M519.47,-138.29C470.13,-126.08 402.33,-109.31 354.78,-97.55"/>
<polygon fill="midnightblue" stroke="midnightblue" points="518.85,-141.74 529.39,-140.74 520.53,-134.94 518.85,-141.74"/>
</g>
<!-- Node9 -->
<g id="node9" class="node">
<title>Node9</title>
<g id="a_node9"><a xlink:href="_m_l_c_l___stack_8h.html" target="_top" xlink:title=" ">
<polygon fill="none" stroke="black" points="455.5,-67.5 455.5,-97.5 566.5,-97.5 566.5,-67.5 455.5,-67.5"/>
<text text-anchor="start" x="463.5" y="-85.5" font-family="Helvetica,sans-Serif" font-size="10.00">include/Stack/MLCL</text>
<text text-anchor="middle" x="511" y="-74.5" font-family="Helvetica,sans-Serif" font-size="10.00">_Stack.h</text>
</a>
</g>
</g>
<!-- Node4&#45;&gt;Node9 -->
<g id="edge8" class="edge">
<title>Node4&#45;&gt;Node9</title>
<path fill="none" stroke="midnightblue" d="M561.23,-132.69C549.68,-121.37 535.79,-107.77 525.55,-97.75"/>
<polygon fill="midnightblue" stroke="midnightblue" points="558.84,-135.24 568.43,-139.73 563.73,-130.24 558.84,-135.24"/>
</g>
<!-- Node12 -->
<g id="node12" class="node">
<title>Node12</title>
<g id="a_node12"><a xlink:href="_m_l_c_l___b_k_tree_8h.html" target="_top" xlink:title=" ">
<polygon fill="none" stroke="black" points="601,-67.5 601,-97.5 711,-97.5 711,-67.5 601,-67.5"/>
<text text-anchor="start" x="609" y="-85.5" font-family="Helvetica,sans-Serif" font-size="10.00">include/Trees/MLCL</text>
<text text-anchor="middle" x="656" y="-74.5" font-family="Helvetica,sans-Serif" font-size="10.00">_BKTree.h</text>
</a>
</g>
</g>
<!-- Node4&#45;&gt;Node12 -->
<g id="edge11" class="edge">
<title>Node4&#45;&gt;Node12</title>
<path fill="none" stroke="midnightblue" d="M605.07,-132.69C616.78,-121.37 630.87,-107.77 641.25,-97.75"/>
<polygon fill="midnightblue" stroke="midnightblue" points="602.53,-130.27 597.77,-139.73 607.4,-135.3 602.53,-130.27"/>
</g>
<!-- Node15 -->
<g id="node15" class="node">
<title>Node15</title>
<g id="a_node15"><a xlink:href="_m_l_c_l___ternary_search_tree_8h.html" target="_top" xlink:title=" ">
<polygon fill="none" stroke="black" points="814,-67.5 814,-97.5 934,-97.5 934,-67.5 814,-67.5"/>
<text text-anchor="start" x="822" y="-85.5" font-family="Helvetica,sans-Serif" font-size="10.00">include/Trees/MLCL</text>
<text text-anchor="middle" x="874" y="-74.5" font-family="Helvetica,sans-Serif" font-size="10.00">_TernarySearchTree.h</text>
</a>
</g>
</g>
<!-- Node4&#45;&gt;Node15 -->
<g id="edge14" class="edge">
<title>Node4&#45;&gt;Node15</title>
<path fill="none" stroke="midnightblue" d="M635.19,-137.04C638.84,-135.97 642.47,-134.95 646,-134 702.38,-118.84 767.47,-104.76 813.64,-95.34"/>
<polygon fill="midnightblue" stroke="midnightblue" points="634.12,-133.7 625.55,-139.93 636.13,-140.41 634.12,-133.7"/>
</g>
<!-- Node18 -->
<g id="node18" class="node">
<title>Node18</title>
<g id="a_node18"><a xlink:href="_m_l_c_l___list_8c.html" target="_top" xlink:title=" ">
<polygon fill="none" stroke="black" points="952,-73 952,-92 1068,-92 1068,-73 952,-73"/>
<text text-anchor="middle" x="1010" y="-80" font-family="Helvetica,sans-Serif" font-size="10.00">src/Lists/MLCL_List.c</text>
</a>
</g>
</g>
<!-- Node4&#45;&gt;Node18 -->
<g id="edge17" class="edge">
<title>Node4&#45;&gt;Node18</title>
<path fill="none" stroke="midnightblue" d="M633.28,-137.12C637.56,-135.97 641.84,-134.9 646,-134 775.93,-105.76 811.88,-120.09 943,-98 952.98,-96.32 963.71,-94.16 973.61,-92.02"/>
<polygon fill="midnightblue" stroke="midnightblue" points="632.02,-133.84 623.37,-139.96 633.94,-140.57 632.02,-133.84"/>
</g>
<!-- Node7 -->
<g id="node7" class="node">
<title>Node7</title>
<g id="a_node7"><a xlink:href="_m_l_c_l___queue__test_8c.html" target="_top" xlink:title=" ">
<polygon fill="none" stroke="black" points="0,-0.5 0,-30.5 128,-30.5 128,-0.5 0,-0.5"/>
<text text-anchor="start" x="8" y="-18.5" font-family="Helvetica,sans-Serif" font-size="10.00">src/_Tests/Queue/MLCL</text>
<text text-anchor="middle" x="64" y="-7.5" font-family="Helvetica,sans-Serif" font-size="10.00">_Queue_test.c</text>
</a>
</g>
</g>
<!-- Node6&#45;&gt;Node7 -->
<g id="edge6" class="edge">
<title>Node6&#45;&gt;Node7</title>
<path fill="none" stroke="midnightblue" d="M237.57,-64.71C199.49,-54.14 150.89,-40.63 114.8,-30.61"/>
<polygon fill="midnightblue" stroke="midnightblue" points="236.94,-68.17 247.51,-67.48 238.82,-61.43 236.94,-68.17"/>
</g>
<!-- Node8 -->
<g id="node8" class="node">
<title>Node8</title>
<g id="a_node8"><a xlink:href="_m_l_c_l___queue_8c.html" target="_top" xlink:title=" ">
<polygon fill="none" stroke="black" points="146,-6 146,-25 286,-25 286,-6 146,-6"/>
<text text-anchor="middle" x="216" y="-13" font-family="Helvetica,sans-Serif" font-size="10.00">src/Queue/MLCL_Queue.c</text>
</a>
</g>
</g>
<!-- Node6&#45;&gt;Node8 -->
<g id="edge7" class="edge">
<title>Node6&#45;&gt;Node8</title>
<path fill="none" stroke="midnightblue" d="M272.15,-61.01C256.93,-48.94 238.46,-34.3 226.97,-25.19"/>
<polygon fill="midnightblue" stroke="midnightblue" points="270.2,-63.93 280.21,-67.4 274.54,-58.44 270.2,-63.93"/>
</g>
<!-- Node10 -->
<g id="node10" class="node">
<title>Node10</title>
<g id="a_node10"><a xlink:href="_m_l_c_l___stack__test_8c.html" target="_top" xlink:title=" ">
<polygon fill="none" stroke="black" points="304.5,-0.5 304.5,-30.5 427.5,-30.5 427.5,-0.5 304.5,-0.5"/>
<text text-anchor="start" x="312.5" y="-18.5" font-family="Helvetica,sans-Serif" font-size="10.00">src/_Tests/Stack/MLCL</text>
<text text-anchor="middle" x="366" y="-7.5" font-family="Helvetica,sans-Serif" font-size="10.00">_Stack_test.c</text>
</a>
</g>
</g>
<!-- Node9&#45;&gt;Node10 -->
<g id="edge9" class="edge">
<title>Node9&#45;&gt;Node10</title>
<path fill="none" stroke="midnightblue" d="M470.33,-63.27C447.24,-52.92 418.76,-40.15 397.4,-30.58"/>
<polygon fill="midnightblue" stroke="midnightblue" points="468.98,-66.5 479.54,-67.4 471.84,-60.11 468.98,-66.5"/>
</g>
<!-- Node11 -->
<g id="node11" class="node">
<title>Node11</title>
<g id="a_node11"><a xlink:href="_m_l_c_l___stack_8c.html" target="_top" xlink:title=" ">
<polygon fill="none" stroke="black" points="445.5,-6 445.5,-25 576.5,-25 576.5,-6 445.5,-6"/>
<text text-anchor="middle" x="511" y="-13" font-family="Helvetica,sans-Serif" font-size="10.00">src/Stack/MLCL_Stack.c</text>
</a>
</g>
</g>
<!-- Node9&#45;&gt;Node11 -->
<g id="edge10" class="edge">
<title>Node9&#45;&gt;Node11</title>
<path fill="none" stroke="midnightblue" d="M511,-57.25C511,-46.02 511,-33.38 511,-25.19"/>
<polygon fill="midnightblue" stroke="midnightblue" points="507.5,-57.4 511,-67.4 514.5,-57.4 507.5,-57.4"/>
</g>
<!-- Node13 -->
<g id="node13" class="node">
<title>Node13</title>
<g id="a_node13"><a xlink:href="_m_l_c_l___b_k_tree__test_8c.html" target="_top" xlink:title=" ">
<polygon fill="none" stroke="black" points="595,-0.5 595,-30.5 717,-30.5 717,-0.5 595,-0.5"/>
<text text-anchor="start" x="603" y="-18.5" font-family="Helvetica,sans-Serif" font-size="10.00">src/_Tests/Trees/MLCL</text>
<text text-anchor="middle" x="656" y="-7.5" font-family="Helvetica,sans-Serif" font-size="10.00">_BKTree_test.c</text>
</a>
</g>
</g>
<!-- Node12&#45;&gt;Node13 -->
<g id="edge12" class="edge">
<title>Node12&#45;&gt;Node13</title>
<path fill="none" stroke="midnightblue" d="M656,-57.11C656,-48.15 656,-38.32 656,-30.58"/>
<polygon fill="midnightblue" stroke="midnightblue" points="652.5,-57.4 656,-67.4 659.5,-57.4 652.5,-57.4"/>
</g>
<!-- Node14 -->
<g id="node14" class="node">
<title>Node14</title>
<g id="a_node14"><a xlink:href="_m_l_c_l___b_k_tree_8c.html" target="_top" xlink:title=" ">
<polygon fill="none" stroke="black" points="735.5,-6 735.5,-25 870.5,-25 870.5,-6 735.5,-6"/>
<text text-anchor="middle" x="803" y="-13" font-family="Helvetica,sans-Serif" font-size="10.00">src/Trees/MLCL_BKTree.c</text>
</a>
</g>
</g>
<!-- Node12&#45;&gt;Node14 -->
<g id="edge13" class="edge">
<title>Node12&#45;&gt;Node14</title>
<path fill="none" stroke="midnightblue" d="M697.17,-63.3C725.52,-50.76 761.88,-34.68 783.76,-25.01"/>
<polygon fill="midnightblue" stroke="midnightblue" points="695.63,-60.15 687.9,-67.4 698.46,-66.55 695.63,-60.15"/>
</g>
<!-- Node16 -->
<g id="node16" class="node">
<title>Node16</title>
<g id="a_node16"><a xlink:href="_m_l_c_l___ternary_search_tree__test_8c.html" target="_top" xlink:title=" ">
<polygon fill="none" stroke="black" points="888.5,-0.5 888.5,-30.5 1031.5,-30.5 1031.5,-0.5 888.5,-0.5"/>
<text text-anchor="start" x="896.5" y="-18.5" font-family="Helvetica,sans-Serif" font-size="10.00">src/_Tests/Trees/MLCL</text>
<text text-anchor="middle" x="960" y="-7.5" font-family="Helvetica,sans-Serif" font-size="10.00">_TernarySearchTree_test.c</text>
</a>
</g>
</g>
<!-- Node15&#45;&gt;Node16 -->
<g id="edge15" class="edge">
<title>Node15&#45;&gt;Node16</title>
<path fill="none" stroke="midnightblue" d="M900.9,-61.17C914.05,-51.23 929.55,-39.51 941.38,-30.58"/>
<polygon fill="midnightblue" stroke="midnightblue" points="898.53,-58.57 892.66,-67.4 902.75,-64.16 898.53,-58.57"/>
</g>
<!-- Node17 -->
<g id="node17" class="node">
<title>Node17</title>
<g id="a_node17"><a xlink:href="_m_l_c_l___ternary_search_tree_8c.html" target="_top" xlink:title=" ">
<polygon fill="none" stroke="black" points="1049.5,-0.5 1049.5,-30.5 1212.5,-30.5 1212.5,-0.5 1049.5,-0.5"/>
<text text-anchor="start" x="1057.5" y="-18.5" font-family="Helvetica,sans-Serif" font-size="10.00">src/Trees/MLCL_TernarySearch</text>
<text text-anchor="middle" x="1131" y="-7.5" font-family="Helvetica,sans-Serif" font-size="10.00">Tree.c</text>
</a>
</g>
</g>
<!-- Node15&#45;&gt;Node17 -->
<g id="edge16" class="edge">
<title>Node15&#45;&gt;Node17</title>
<path fill="none" stroke="midnightblue" d="M939.3,-64.98C981.28,-54.37 1035.24,-40.72 1075.21,-30.61"/>
<polygon fill="midnightblue" stroke="midnightblue" points="938.29,-61.63 929.45,-67.48 940,-68.42 938.29,-61.63"/>
</g>
</g>
</svg>
