<?xml version="1.0" encoding="UTF-8" standalone="no"?>
<!DOCTYPE svg PUBLIC "-//W3C//DTD SVG 1.1//EN"
 "http://www.w3.org/Graphics/SVG/1.1/DTD/svg11.dtd">
<!-- Generated by graphviz version 2.43.0 (0)
 -->
<!-- Title: src/Lists/MLCL_CircularLinkedList.c Pages: 1 -->
<svg width="348pt" height="274pt"
 viewBox="0.00 0.00 348.00 274.00" xmlns="http://www.w3.org/2000/svg" xmlns:xlink="http://www.w3.org/1999/xlink">
<g id="graph0" class="graph" transform="scale(1 1) rotate(0) translate(4 270)">
<title>src/Lists/MLCL_CircularLinkedList.c</title>
<!-- Node1 -->
<g id="node1" class="node">
<title>Node1</title>
<g id="a_node1"><a xlink:title=" ">
<polygon fill="#bfbfbf" stroke="black" points="127.5,-235.5 127.5,-265.5 287.5,-265.5 287.5,-235.5 127.5,-235.5"/>
<text text-anchor="start" x="135.5" y="-253.5" font-family="Helvetica,sans-Serif" font-size="10.00">src/Lists/MLCL_CircularLinked</text>
<text text-anchor="middle" x="207.5" y="-242.5" font-family="Helvetica,sans-Serif" font-size="10.00">List.c</text>
</a>
</g>
</g>
<!-- Node2 -->
<g id="node2" class="node">
<title>Node2</title>
<g id="a_node2"><a xlink:href="_m_l_c_l___circular_linked_list_8h.html" target="_top" xlink:title=" ">
<polygon fill="none" stroke="black" points="77.5,-168.5 77.5,-198.5 223.5,-198.5 223.5,-168.5 77.5,-168.5"/>
<text text-anchor="start" x="85.5" y="-186.5" font-family="Helvetica,sans-Serif" font-size="10.00">../../include/Lists</text>
<text text-anchor="middle" x="150.5" y="-175.5" font-family="Helvetica,sans-Serif" font-size="10.00">/MLCL_CircularLinkedList.h</text>
</a>
</g>
</g>
<!-- Node1&#45;&gt;Node2 -->
<g id="edge1" class="edge">
<title>Node1&#45;&gt;Node2</title>
<path fill="none" stroke="midnightblue" d="M195.13,-235.4C187.66,-226.88 177.99,-215.85 169.56,-206.23"/>
<polygon fill="midnightblue" stroke="midnightblue" points="172.07,-203.79 162.84,-198.58 166.81,-208.4 172.07,-203.79"/>
</g>
<!-- Node5 -->
<g id="node5" class="node">
<title>Node5</title>
<g id="a_node5"><a xlink:title=" ">
<polygon fill="none" stroke="#bfbfbf" points="0,-0.5 0,-19.5 53,-19.5 53,-0.5 0,-0.5"/>
<text text-anchor="middle" x="26.5" y="-7.5" font-family="Helvetica,sans-Serif" font-size="10.00">stdlib.h</text>
</a>
</g>
</g>
<!-- Node1&#45;&gt;Node5 -->
<g id="edge10" class="edge">
<title>Node1&#45;&gt;Node5</title>
<path fill="none" stroke="midnightblue" d="M147.25,-235.41C121.43,-227.47 91.9,-215.72 68.5,-199 37.38,-176.76 27.22,-168.07 14.5,-132 2.2,-97.13 12.35,-53.32 19.99,-29.14"/>
<polygon fill="midnightblue" stroke="midnightblue" points="23.35,-30.11 23.23,-19.51 16.72,-27.87 23.35,-30.11"/>
</g>
<!-- Node6 -->
<g id="node6" class="node">
<title>Node6</title>
<g id="a_node6"><a xlink:title=" ">
<polygon fill="none" stroke="#bfbfbf" points="195.5,-0.5 195.5,-19.5 245.5,-19.5 245.5,-0.5 195.5,-0.5"/>
<text text-anchor="middle" x="220.5" y="-7.5" font-family="Helvetica,sans-Serif" font-size="10.00">stdio.h</text>
</a>
</g>
</g>
<!-- Node1&#45;&gt;Node6 -->
<g id="edge9" class="edge">
<title>Node1&#45;&gt;Node6</title>
<path fill="none" stroke="midnightblue" d="M216.83,-235.15C222.6,-225.4 229.47,-211.95 232.5,-199 246.69,-138.34 233.12,-63.88 225.25,-29.73"/>
<polygon fill="midnightblue" stroke="midnightblue" points="228.59,-28.67 222.84,-19.77 221.79,-30.31 228.59,-28.67"/>
</g>
<!-- Node8 -->
<g id="node8" class="node">
<title>Node8</title>
<g id="a_node8"><a xlink:title=" ">
<polygon fill="none" stroke="#bfbfbf" points="287,-174 287,-193 340,-193 340,-174 287,-174"/>
<text text-anchor="middle" x="313.5" y="-181" font-family="Helvetica,sans-Serif" font-size="10.00">string.h</text>
</a>
</g>
</g>
<!-- Node1&#45;&gt;Node8 -->
<g id="edge11" class="edge">
<title>Node1&#45;&gt;Node8</title>
<path fill="none" stroke="midnightblue" d="M230.5,-235.4C248.44,-224.39 273.22,-209.2 291.02,-198.28"/>
<polygon fill="midnightblue" stroke="midnightblue" points="292.93,-201.22 299.63,-193.01 289.27,-195.25 292.93,-201.22"/>
</g>
<!-- Node3 -->
<g id="node3" class="node">
<title>Node3</title>
<g id="a_node3"><a xlink:href="_m_l_c_l___linked_list_8h.html" target="_top" xlink:title=" ">
<polygon fill="none" stroke="black" points="97.5,-112.5 97.5,-131.5 203.5,-131.5 203.5,-112.5 97.5,-112.5"/>
<text text-anchor="middle" x="150.5" y="-119.5" font-family="Helvetica,sans-Serif" font-size="10.00">MLCL_LinkedList.h</text>
</a>
</g>
</g>
<!-- Node2&#45;&gt;Node3 -->
<g id="edge2" class="edge">
<title>Node2&#45;&gt;Node3</title>
<path fill="none" stroke="midnightblue" d="M150.5,-168.4C150.5,-160.47 150.5,-150.46 150.5,-141.86"/>
<polygon fill="midnightblue" stroke="midnightblue" points="154,-141.66 150.5,-131.66 147,-141.66 154,-141.66"/>
</g>
<!-- Node7 -->
<g id="node7" class="node">
<title>Node7</title>
<g id="a_node7"><a xlink:title=" ">
<polygon fill="none" stroke="#bfbfbf" points="23.5,-112.5 23.5,-131.5 79.5,-131.5 79.5,-112.5 23.5,-112.5"/>
<text text-anchor="middle" x="51.5" y="-119.5" font-family="Helvetica,sans-Serif" font-size="10.00">assert.h</text>
</a>
</g>
</g>
<!-- Node2&#45;&gt;Node7 -->
<g id="edge8" class="edge">
<title>Node2&#45;&gt;Node7</title>
<path fill="none" stroke="midnightblue" d="M127.04,-168.4C111.17,-158.86 90.31,-146.32 74.53,-136.84"/>
<polygon fill="midnightblue" stroke="midnightblue" points="76.28,-133.81 65.91,-131.66 72.67,-139.81 76.28,-133.81"/>
</g>
<!-- Node4 -->
<g id="node4" class="node">
<title>Node4</title>
<g id="a_node4"><a xlink:href="_m_l_c_l___type_descriptor_8h.html" target="_top" xlink:title=" ">
<polygon fill="none" stroke="black" points="54.5,-56.5 54.5,-75.5 192.5,-75.5 192.5,-56.5 54.5,-56.5"/>
<text text-anchor="middle" x="123.5" y="-63.5" font-family="Helvetica,sans-Serif" font-size="10.00">../MLCL_TypeDescriptor.h</text>
</a>
</g>
</g>
<!-- Node3&#45;&gt;Node4 -->
<g id="edge3" class="edge">
<title>Node3&#45;&gt;Node4</title>
<path fill="none" stroke="midnightblue" d="M146.04,-112.08C142.35,-104.69 136.98,-93.95 132.41,-84.81"/>
<polygon fill="midnightblue" stroke="midnightblue" points="135.48,-83.13 127.88,-75.75 129.22,-86.26 135.48,-83.13"/>
</g>
<!-- Node3&#45;&gt;Node5 -->
<g id="edge6" class="edge">
<title>Node3&#45;&gt;Node5</title>
<path fill="none" stroke="midnightblue" d="M109.59,-112.44C87.77,-105.9 62.07,-94.7 45.5,-76 34.18,-63.23 29.59,-44.03 27.73,-29.81"/>
<polygon fill="midnightblue" stroke="midnightblue" points="31.2,-29.31 26.76,-19.69 24.23,-29.98 31.2,-29.31"/>
</g>
<!-- Node3&#45;&gt;Node6 -->
<g id="edge7" class="edge">
<title>Node3&#45;&gt;Node6</title>
<path fill="none" stroke="midnightblue" d="M164.15,-112.25C175.7,-104.17 191.87,-91.15 201.5,-76 210.47,-61.89 215.33,-43.4 217.89,-29.75"/>
<polygon fill="midnightblue" stroke="midnightblue" points="221.39,-30.06 219.53,-19.63 214.48,-28.94 221.39,-30.06"/>
</g>
<!-- Node4&#45;&gt;Node5 -->
<g id="edge4" class="edge">
<title>Node4&#45;&gt;Node5</title>
<path fill="none" stroke="midnightblue" d="M107.92,-56.32C92.5,-47.74 68.69,-34.49 50.79,-24.52"/>
<polygon fill="midnightblue" stroke="midnightblue" points="52.49,-21.46 42.05,-19.65 49.08,-27.58 52.49,-21.46"/>
</g>
<!-- Node4&#45;&gt;Node6 -->
<g id="edge5" class="edge">
<title>Node4&#45;&gt;Node6</title>
<path fill="none" stroke="midnightblue" d="M139.08,-56.32C154.5,-47.74 178.31,-34.49 196.21,-24.52"/>
<polygon fill="midnightblue" stroke="midnightblue" points="197.92,-27.58 204.95,-19.65 194.51,-21.46 197.92,-27.58"/>
</g>
</g>
</svg>
