<?xml version="1.0" encoding="UTF-8" standalone="no"?>
<!DOCTYPE svg PUBLIC "-//W3C//DTD SVG 1.1//EN"
 "http://www.w3.org/Graphics/SVG/1.1/DTD/svg11.dtd">
<!-- Generated by graphviz version 2.43.0 (0)
 -->
<!-- Title: include/Queue/MLCL_Queue.h Pages: 1 -->
<svg width="294pt" height="106pt"
 viewBox="0.00 0.00 294.00 106.00" xmlns="http://www.w3.org/2000/svg" xmlns:xlink="http://www.w3.org/1999/xlink">
<g id="graph0" class="graph" transform="scale(1 1) rotate(0) translate(4 102)">
<title>include/Queue/MLCL_Queue.h</title>
<!-- Node1 -->
<g id="node1" class="node">
<title>Node1</title>
<g id="a_node1"><a xlink:title=" ">
<polygon fill="#bfbfbf" stroke="black" points="82,-67.5 82,-97.5 198,-97.5 198,-67.5 82,-67.5"/>
<text text-anchor="start" x="90" y="-85.5" font-family="Helvetica,sans-Serif" font-size="10.00">include/Queue/MLCL</text>
<text text-anchor="middle" x="140" y="-74.5" font-family="Helvetica,sans-Serif" font-size="10.00">_Queue.h</text>
</a>
</g>
</g>
<!-- Node2 -->
<g id="node2" class="node">
<title>Node2</title>
<g id="a_node2"><a xlink:href="_m_l_c_l___queue__test_8c.html" target="_top" xlink:title=" ">
<polygon fill="none" stroke="black" points="0,-0.5 0,-30.5 128,-30.5 128,-0.5 0,-0.5"/>
<text text-anchor="start" x="8" y="-18.5" font-family="Helvetica,sans-Serif" font-size="10.00">src/_Tests/Queue/MLCL</text>
<text text-anchor="middle" x="64" y="-7.5" font-family="Helvetica,sans-Serif" font-size="10.00">_Queue_test.c</text>
</a>
</g>
</g>
<!-- Node1&#45;&gt;Node2 -->
<g id="edge1" class="edge">
<title>Node1&#45;&gt;Node2</title>
<path fill="none" stroke="midnightblue" d="M115.89,-60.88C104.34,-51.01 90.81,-39.43 80.46,-30.58"/>
<polygon fill="midnightblue" stroke="midnightblue" points="113.63,-63.56 123.51,-67.4 118.18,-58.24 113.63,-63.56"/>
</g>
<!-- Node3 -->
<g id="node3" class="node">
<title>Node3</title>
<g id="a_node3"><a xlink:href="_m_l_c_l___queue_8c.html" target="_top" xlink:title=" ">
<polygon fill="none" stroke="black" points="146,-6 146,-25 286,-25 286,-6 146,-6"/>
<text text-anchor="middle" x="216" y="-13" font-family="Helvetica,sans-Serif" font-size="10.00">src/Queue/MLCL_Queue.c</text>
</a>
</g>
</g>
<!-- Node1&#45;&gt;Node3 -->
<g id="edge2" class="edge">
<title>Node1&#45;&gt;Node3</title>
<path fill="none" stroke="midnightblue" d="M164.35,-60.67C178.39,-48.67 195.28,-34.22 205.83,-25.19"/>
<polygon fill="midnightblue" stroke="midnightblue" points="161.82,-58.24 156.49,-67.4 166.37,-63.56 161.82,-58.24"/>
</g>
</g>
</svg>
