<?xml version="1.0" encoding="UTF-8" standalone="no"?>
<!DOCTYPE svg PUBLIC "-//W3C//DTD SVG 1.1//EN"
 "http://www.w3.org/Graphics/SVG/1.1/DTD/svg11.dtd">
<!-- Generated by graphviz version 2.43.0 (0)
 -->
<!-- Title: include/Trees/MLCL_BKTree.h Pages: 1 -->
<svg width="284pt" height="106pt"
 viewBox="0.00 0.00 283.50 106.00" xmlns="http://www.w3.org/2000/svg" xmlns:xlink="http://www.w3.org/1999/xlink">
<g id="graph0" class="graph" transform="scale(1 1) rotate(0) translate(4 102)">
<title>include/Trees/MLCL_BKTree.h</title>
<!-- Node1 -->
<g id="node1" class="node">
<title>Node1</title>
<g id="a_node1"><a xlink:title=" ">
<polygon fill="#bfbfbf" stroke="black" points="79,-67.5 79,-97.5 189,-97.5 189,-67.5 79,-67.5"/>
<text text-anchor="start" x="87" y="-85.5" font-family="Helvetica,sans-Serif" font-size="10.00">include/Trees/MLCL</text>
<text text-anchor="middle" x="134" y="-74.5" font-family="Helvetica,sans-Serif" font-size="10.00">_BKTree.h</text>
</a>
</g>
</g>
<!-- Node2 -->
<g id="node2" class="node">
<title>Node2</title>
<g id="a_node2"><a xlink:href="_m_l_c_l___b_k_tree__test_8c.html" target="_top" xlink:title=" ">
<polygon fill="none" stroke="black" points="0,-0.5 0,-30.5 122,-30.5 122,-0.5 0,-0.5"/>
<text text-anchor="start" x="8" y="-18.5" font-family="Helvetica,sans-Serif" font-size="10.00">src/_Tests/Trees/MLCL</text>
<text text-anchor="middle" x="61" y="-7.5" font-family="Helvetica,sans-Serif" font-size="10.00">_BKTree_test.c</text>
</a>
</g>
</g>
<!-- Node1&#45;&gt;Node2 -->
<g id="edge1" class="edge">
<title>Node1&#45;&gt;Node2</title>
<path fill="none" stroke="midnightblue" d="M110.53,-60.6C99.5,-50.78 86.66,-39.34 76.81,-30.58"/>
<polygon fill="midnightblue" stroke="midnightblue" points="108.36,-63.36 118.16,-67.4 113.02,-58.13 108.36,-63.36"/>
</g>
<!-- Node3 -->
<g id="node3" class="node">
<title>Node3</title>
<g id="a_node3"><a xlink:href="_m_l_c_l___b_k_tree_8c.html" target="_top" xlink:title=" ">
<polygon fill="none" stroke="black" points="140.5,-6 140.5,-25 275.5,-25 275.5,-6 140.5,-6"/>
<text text-anchor="middle" x="208" y="-13" font-family="Helvetica,sans-Serif" font-size="10.00">src/Trees/MLCL_BKTree.c</text>
</a>
</g>
</g>
<!-- Node1&#45;&gt;Node3 -->
<g id="edge2" class="edge">
<title>Node1&#45;&gt;Node3</title>
<path fill="none" stroke="midnightblue" d="M157.71,-60.67C171.37,-48.67 187.83,-34.22 198.1,-25.19"/>
<polygon fill="midnightblue" stroke="midnightblue" points="155.26,-58.17 150.06,-67.4 159.88,-63.43 155.26,-58.17"/>
</g>
</g>
</svg>
