<?xml version="1.0" encoding="UTF-8" standalone="no"?>
<!DOCTYPE svg PUBLIC "-//W3C//DTD SVG 1.1//EN"
 "http://www.w3.org/Graphics/SVG/1.1/DTD/svg11.dtd">
<!-- Generated by graphviz version 2.43.0 (0)
 -->
<!-- Title: include/MLCL_TypeDescriptor.h Pages: 1 -->
<svg width="2235pt" height="318pt"
 viewBox="0.00 0.00 2234.52 318.00" xmlns="http://www.w3.org/2000/svg" xmlns:xlink="http://www.w3.org/1999/xlink">
<g id="graph0" class="graph" transform="scale(1 1) rotate(0) translate(4 314)">
<title>include/MLCL_TypeDescriptor.h</title>
<!-- Node1 -->
<g id="node1" class="node">
<title>Node1</title>
<g id="a_node1"><a xlink:title=" ">
<polygon fill="#bfbfbf" stroke="black" points="920.02,-290.5 920.02,-309.5 1087.02,-309.5 1087.02,-290.5 920.02,-290.5"/>
<text text-anchor="middle" x="1003.52" y="-297.5" font-family="Helvetica,sans-Serif" font-size="10.00">include/MLCL_TypeDescriptor.h</text>
</a>
</g>
</g>
<!-- Node2 -->
<g id="node2" class="node">
<title>Node2</title>
<g id="a_node2"><a xlink:href="_m_l_c_l___array_list_8h.html" target="_top" xlink:title=" ">
<polygon fill="none" stroke="black" points="185.02,-223.5 185.02,-253.5 292.02,-253.5 292.02,-223.5 185.02,-223.5"/>
<text text-anchor="start" x="193.02" y="-241.5" font-family="Helvetica,sans-Serif" font-size="10.00">include/Lists/MLCL</text>
<text text-anchor="middle" x="238.52" y="-230.5" font-family="Helvetica,sans-Serif" font-size="10.00">_ArrayList.h</text>
</a>
</g>
</g>
<!-- Node1&#45;&gt;Node2 -->
<g id="edge1" class="edge">
<title>Node1&#45;&gt;Node2</title>
<path fill="none" stroke="midnightblue" d="M909.4,-291.68C747.41,-279.08 420.94,-253.69 292.33,-243.69"/>
<polygon fill="midnightblue" stroke="midnightblue" points="909.59,-295.2 919.83,-292.49 910.13,-288.23 909.59,-295.2"/>
</g>
<!-- Node5 -->
<g id="node5" class="node">
<title>Node5</title>
<g id="a_node5"><a xlink:href="_m_l_c_l__basic__types_8h.html" target="_top" xlink:title=" ">
<polygon fill="none" stroke="black" points="733.52,-223.5 733.52,-253.5 845.52,-253.5 845.52,-223.5 733.52,-223.5"/>
<text text-anchor="start" x="741.52" y="-241.5" font-family="Helvetica,sans-Serif" font-size="10.00">include/MLCL_basic</text>
<text text-anchor="middle" x="789.52" y="-230.5" font-family="Helvetica,sans-Serif" font-size="10.00">_types.h</text>
</a>
</g>
</g>
<!-- Node1&#45;&gt;Node5 -->
<g id="edge4" class="edge">
<title>Node1&#45;&gt;Node5</title>
<path fill="none" stroke="midnightblue" d="M963,-287.73C928.07,-278.02 877.49,-263.96 839.95,-253.52"/>
<polygon fill="midnightblue" stroke="midnightblue" points="962.28,-291.17 972.86,-290.48 964.16,-284.42 962.28,-291.17"/>
</g>
<!-- Node11 -->
<g id="node11" class="node">
<title>Node11</title>
<g id="a_node11"><a xlink:href="_m_l_c_l___a_v_l_tree__test_8c.html" target="_top" xlink:title=" ">
<polygon fill="none" stroke="black" points="265.52,-73 265.52,-103 387.52,-103 387.52,-73 265.52,-73"/>
<text text-anchor="start" x="273.52" y="-91" font-family="Helvetica,sans-Serif" font-size="10.00">src/_Tests/Trees/MLCL</text>
<text text-anchor="middle" x="326.52" y="-80" font-family="Helvetica,sans-Serif" font-size="10.00">_AVLTree_test.c</text>
</a>
</g>
</g>
<!-- Node1&#45;&gt;Node11 -->
<g id="edge27" class="edge">
<title>Node1&#45;&gt;Node11</title>
<path fill="none" stroke="midnightblue" d="M909.74,-297.75C723.46,-294.63 312.93,-284.43 175.52,-254 97.44,-236.71 53.32,-253.25 8.52,-187 -1.94,-171.54 -3.48,-159.3 8.52,-145 40.64,-106.73 182.2,-94.6 265.23,-90.77"/>
<polygon fill="midnightblue" stroke="midnightblue" points="909.74,-301.25 919.79,-297.91 909.85,-294.25 909.74,-301.25"/>
</g>
<!-- Node14 -->
<g id="node14" class="node">
<title>Node14</title>
<g id="a_node14"><a xlink:href="_m_l_c_l___double_linked_list_8h.html" target="_top" xlink:title=" ">
<polygon fill="none" stroke="black" points="1341.52,-223.5 1341.52,-253.5 1455.52,-253.5 1455.52,-223.5 1341.52,-223.5"/>
<text text-anchor="start" x="1349.52" y="-241.5" font-family="Helvetica,sans-Serif" font-size="10.00">include/Lists/MLCL</text>
<text text-anchor="middle" x="1398.52" y="-230.5" font-family="Helvetica,sans-Serif" font-size="10.00">_DoubleLinkedList.h</text>
</a>
</g>
</g>
<!-- Node1&#45;&gt;Node14 -->
<g id="edge14" class="edge">
<title>Node1&#45;&gt;Node14</title>
<path fill="none" stroke="midnightblue" d="M1070.07,-288.98C1146.16,-277.51 1269.47,-258.94 1341.39,-248.11"/>
<polygon fill="midnightblue" stroke="midnightblue" points="1069.48,-285.52 1060.11,-290.48 1070.52,-292.45 1069.48,-285.52"/>
</g>
<!-- Node18 -->
<g id="node18" class="node">
<title>Node18</title>
<g id="a_node18"><a xlink:href="_m_l_c_l___linked_list_8h.html" target="_top" xlink:title=" ">
<polygon fill="none" stroke="black" points="950.02,-223.5 950.02,-253.5 1057.02,-253.5 1057.02,-223.5 950.02,-223.5"/>
<text text-anchor="start" x="958.02" y="-241.5" font-family="Helvetica,sans-Serif" font-size="10.00">include/Lists/MLCL</text>
<text text-anchor="middle" x="1003.52" y="-230.5" font-family="Helvetica,sans-Serif" font-size="10.00">_LinkedList.h</text>
</a>
</g>
</g>
<!-- Node1&#45;&gt;Node18 -->
<g id="edge21" class="edge">
<title>Node1&#45;&gt;Node18</title>
<path fill="none" stroke="midnightblue" d="M1003.52,-280.23C1003.52,-271.59 1003.52,-261.5 1003.52,-253.52"/>
<polygon fill="midnightblue" stroke="midnightblue" points="1000.02,-280.48 1003.52,-290.48 1007.02,-280.48 1000.02,-280.48"/>
</g>
<!-- Node22 -->
<g id="node22" class="node">
<title>Node22</title>
<g id="a_node22"><a xlink:href="_m_l_c_l___type_descriptor_8c.html" target="_top" xlink:title=" ">
<polygon fill="none" stroke="black" points="1473.52,-229 1473.52,-248 1619.52,-248 1619.52,-229 1473.52,-229"/>
<text text-anchor="middle" x="1546.52" y="-236" font-family="Helvetica,sans-Serif" font-size="10.00">src/MLCL_TypeDescriptor.c</text>
</a>
</g>
</g>
<!-- Node1&#45;&gt;Node22 -->
<g id="edge28" class="edge">
<title>Node1&#45;&gt;Node22</title>
<path fill="none" stroke="midnightblue" d="M1097.01,-292.02C1190.32,-284.54 1337.68,-271.38 1464.52,-254 1476.69,-252.33 1489.82,-250.17 1501.93,-248.03"/>
<polygon fill="midnightblue" stroke="midnightblue" points="1096.72,-288.53 1087.03,-292.81 1097.27,-295.51 1096.72,-288.53"/>
</g>
<!-- Node23 -->
<g id="node23" class="node">
<title>Node23</title>
<g id="a_node23"><a xlink:href="_m_l_c_l___binary_search_tree_8h.html" target="_top" xlink:title=" ">
<polygon fill="none" stroke="black" points="1859.52,-223.5 1859.52,-253.5 1975.52,-253.5 1975.52,-223.5 1859.52,-223.5"/>
<text text-anchor="start" x="1867.52" y="-241.5" font-family="Helvetica,sans-Serif" font-size="10.00">include/Trees/MLCL</text>
<text text-anchor="middle" x="1917.52" y="-230.5" font-family="Helvetica,sans-Serif" font-size="10.00">_BinarySearchTree.h</text>
</a>
</g>
</g>
<!-- Node1&#45;&gt;Node23 -->
<g id="edge29" class="edge">
<title>Node1&#45;&gt;Node23</title>
<path fill="none" stroke="midnightblue" d="M1097.21,-292.9C1285.58,-280.64 1705.31,-253.31 1859.37,-243.29"/>
<polygon fill="midnightblue" stroke="midnightblue" points="1096.8,-289.42 1087.05,-293.56 1097.26,-296.4 1096.8,-289.42"/>
</g>
<!-- Node3 -->
<g id="node3" class="node">
<title>Node3</title>
<g id="a_node3"><a xlink:href="_m_l_c_l___array_list__test_8c.html" target="_top" xlink:title=" ">
<polygon fill="none" stroke="black" points="179.02,-151 179.02,-181 298.02,-181 298.02,-151 179.02,-151"/>
<text text-anchor="start" x="187.02" y="-169" font-family="Helvetica,sans-Serif" font-size="10.00">src/_Tests/Lists/MLCL</text>
<text text-anchor="middle" x="238.52" y="-158" font-family="Helvetica,sans-Serif" font-size="10.00">_ArrayList_test.c</text>
</a>
</g>
</g>
<!-- Node2&#45;&gt;Node3 -->
<g id="edge2" class="edge">
<title>Node2&#45;&gt;Node3</title>
<path fill="none" stroke="midnightblue" d="M238.52,-213.23C238.52,-202.57 238.52,-190.41 238.52,-181.25"/>
<polygon fill="midnightblue" stroke="midnightblue" points="235.02,-213.23 238.52,-223.23 242.02,-213.23 235.02,-213.23"/>
</g>
<!-- Node4 -->
<g id="node4" class="node">
<title>Node4</title>
<g id="a_node4"><a xlink:href="_m_l_c_l___array_list_8c.html" target="_top" xlink:title=" ">
<polygon fill="none" stroke="black" points="18.02,-156.5 18.02,-175.5 161.02,-175.5 161.02,-156.5 18.02,-156.5"/>
<text text-anchor="middle" x="89.52" y="-163.5" font-family="Helvetica,sans-Serif" font-size="10.00">src/Lists/MLCL_ArrayList.c</text>
</a>
</g>
</g>
<!-- Node2&#45;&gt;Node4 -->
<g id="edge3" class="edge">
<title>Node2&#45;&gt;Node4</title>
<path fill="none" stroke="midnightblue" d="M199.45,-219.02C169.74,-204.96 130.22,-186.26 107.55,-175.53"/>
<polygon fill="midnightblue" stroke="midnightblue" points="198.19,-222.29 208.72,-223.4 201.18,-215.96 198.19,-222.29"/>
</g>
<!-- Node5&#45;&gt;Node3 -->
<g id="edge5" class="edge">
<title>Node5&#45;&gt;Node3</title>
<path fill="none" stroke="midnightblue" d="M723.22,-233.81C630.65,-227.9 457.7,-214.13 312.52,-187 303.88,-185.39 294.78,-183.28 286.03,-181.03"/>
<polygon fill="midnightblue" stroke="midnightblue" points="723.09,-237.31 733.29,-234.44 723.53,-230.32 723.09,-237.31"/>
</g>
<!-- Node6 -->
<g id="node6" class="node">
<title>Node6</title>
<g id="a_node6"><a xlink:href="_m_l_c_l___circular_double_linked_list__test_8c.html" target="_top" xlink:title=" ">
<polygon fill="none" stroke="black" points="1191.02,-67.5 1191.02,-108.5 1334.02,-108.5 1334.02,-67.5 1191.02,-67.5"/>
<text text-anchor="start" x="1199.02" y="-96.5" font-family="Helvetica,sans-Serif" font-size="10.00">src/_Tests/Lists/MLCL</text>
<text text-anchor="start" x="1199.02" y="-85.5" font-family="Helvetica,sans-Serif" font-size="10.00">_CircularDoubleLinkedList</text>
<text text-anchor="middle" x="1262.52" y="-74.5" font-family="Helvetica,sans-Serif" font-size="10.00">_test.c</text>
</a>
</g>
</g>
<!-- Node5&#45;&gt;Node6 -->
<g id="edge6" class="edge">
<title>Node5&#45;&gt;Node6</title>
<path fill="none" stroke="midnightblue" d="M818.14,-217.45C830.52,-208.47 845,-197.55 857.52,-187 878.19,-169.57 877.27,-156.95 901.52,-145 951.08,-120.57 1100.42,-103.45 1190.75,-95.01"/>
<polygon fill="midnightblue" stroke="midnightblue" points="816.04,-214.65 809.95,-223.33 820.12,-220.34 816.04,-214.65"/>
</g>
<!-- Node7 -->
<g id="node7" class="node">
<title>Node7</title>
<g id="a_node7"><a xlink:href="_m_l_c_l___circular_linked_list__test_8c.html" target="_top" xlink:title=" ">
<polygon fill="none" stroke="black" points="633.52,-73 633.52,-103 773.52,-103 773.52,-73 633.52,-73"/>
<text text-anchor="start" x="641.52" y="-91" font-family="Helvetica,sans-Serif" font-size="10.00">src/_Tests/Lists/MLCL</text>
<text text-anchor="middle" x="703.52" y="-80" font-family="Helvetica,sans-Serif" font-size="10.00">_CircularLinkedList_test.c</text>
</a>
</g>
</g>
<!-- Node5&#45;&gt;Node7 -->
<g id="edge7" class="edge">
<title>Node5&#45;&gt;Node7</title>
<path fill="none" stroke="midnightblue" d="M754,-218C742.28,-209.89 730.28,-199.43 722.52,-187 706.09,-160.69 703.34,-123.26 703.18,-103.12"/>
<polygon fill="midnightblue" stroke="midnightblue" points="752.13,-220.96 762.42,-223.49 755.95,-215.1 752.13,-220.96"/>
</g>
<!-- Node8 -->
<g id="node8" class="node">
<title>Node8</title>
<g id="a_node8"><a xlink:href="_m_l_c_l___double_linked_list__test_8c.html" target="_top" xlink:title=" ">
<polygon fill="none" stroke="black" points="1248.02,-151 1248.02,-181 1385.02,-181 1385.02,-151 1248.02,-151"/>
<text text-anchor="start" x="1256.02" y="-169" font-family="Helvetica,sans-Serif" font-size="10.00">src/_Tests/Lists/MLCL</text>
<text text-anchor="middle" x="1316.52" y="-158" font-family="Helvetica,sans-Serif" font-size="10.00">_DoubleLinkedList_test.c</text>
</a>
</g>
</g>
<!-- Node5&#45;&gt;Node8 -->
<g id="edge8" class="edge">
<title>Node5&#45;&gt;Node8</title>
<path fill="none" stroke="midnightblue" d="M855.78,-231.19C962.25,-220.86 1166.76,-200.17 1238.52,-187 1247.46,-185.36 1256.88,-183.26 1265.98,-181.05"/>
<polygon fill="midnightblue" stroke="midnightblue" points="855.4,-227.71 845.79,-232.16 856.08,-234.68 855.4,-227.71"/>
</g>
<!-- Node9 -->
<g id="node9" class="node">
<title>Node9</title>
<g id="a_node9"><a xlink:href="_m_l_c_l___linked_list__test_8c.html" target="_top" xlink:title=" ">
<polygon fill="none" stroke="black" points="944.02,-151 944.02,-181 1063.02,-181 1063.02,-151 944.02,-151"/>
<text text-anchor="start" x="952.02" y="-169" font-family="Helvetica,sans-Serif" font-size="10.00">src/_Tests/Lists/MLCL</text>
<text text-anchor="middle" x="1003.52" y="-158" font-family="Helvetica,sans-Serif" font-size="10.00">_LinkedList_test.c</text>
</a>
</g>
</g>
<!-- Node5&#45;&gt;Node9 -->
<g id="edge9" class="edge">
<title>Node5&#45;&gt;Node9</title>
<path fill="none" stroke="midnightblue" d="M842.02,-220.2C878.5,-208.18 926.53,-192.36 960.7,-181.11"/>
<polygon fill="midnightblue" stroke="midnightblue" points="840.46,-217.03 832.05,-223.49 842.65,-223.68 840.46,-217.03"/>
</g>
<!-- Node10 -->
<g id="node10" class="node">
<title>Node10</title>
<g id="a_node10"><a xlink:href="_m_l_c_l___type_descriptor__test_8c.html" target="_top" xlink:title=" ">
<polygon fill="none" stroke="black" points="355.02,-151 355.02,-181 526.02,-181 526.02,-151 355.02,-151"/>
<text text-anchor="start" x="363.02" y="-169" font-family="Helvetica,sans-Serif" font-size="10.00">src/_Tests/MLCL_TypeDescriptor</text>
<text text-anchor="middle" x="440.52" y="-158" font-family="Helvetica,sans-Serif" font-size="10.00">_test.c</text>
</a>
</g>
</g>
<!-- Node5&#45;&gt;Node10 -->
<g id="edge10" class="edge">
<title>Node5&#45;&gt;Node10</title>
<path fill="none" stroke="midnightblue" d="M723.51,-224.69C671.99,-214.63 598.65,-200.17 534.52,-187 525.28,-185.1 515.55,-183.07 505.98,-181.05"/>
<polygon fill="midnightblue" stroke="midnightblue" points="723.02,-228.16 733.51,-226.64 724.36,-221.29 723.02,-228.16"/>
</g>
<!-- Node5&#45;&gt;Node11 -->
<g id="edge11" class="edge">
<title>Node5&#45;&gt;Node11</title>
<path fill="none" stroke="midnightblue" d="M722.97,-234.22C605.86,-227.84 372.68,-212.12 345.52,-187 322.23,-165.47 322.53,-124.64 324.59,-103.11"/>
<polygon fill="midnightblue" stroke="midnightblue" points="723.07,-237.74 733.25,-234.78 723.45,-230.75 723.07,-237.74"/>
</g>
<!-- Node12 -->
<g id="node12" class="node">
<title>Node12</title>
<g id="a_node12"><a xlink:href="_m_l_c_l___binary_search_tree__test_8c.html" target="_top" xlink:title=" ">
<polygon fill="none" stroke="black" points="1754.02,-73 1754.02,-103 1893.02,-103 1893.02,-73 1754.02,-73"/>
<text text-anchor="start" x="1762.02" y="-91" font-family="Helvetica,sans-Serif" font-size="10.00">src/_Tests/Trees/MLCL</text>
<text text-anchor="middle" x="1823.52" y="-80" font-family="Helvetica,sans-Serif" font-size="10.00">_BinarySearchTree_test.c</text>
</a>
</g>
</g>
<!-- Node5&#45;&gt;Node12 -->
<g id="edge12" class="edge">
<title>Node5&#45;&gt;Node12</title>
<path fill="none" stroke="midnightblue" d="M835.64,-219.24C854.42,-210.78 875.83,-199.75 893.52,-187 914.68,-171.74 910.71,-155.66 934.52,-145 1016.74,-108.19 1655.39,-122.12 1744.52,-109 1754.32,-107.56 1764.66,-105.41 1774.52,-103.05"/>
<polygon fill="midnightblue" stroke="midnightblue" points="834.13,-216.09 826.38,-223.31 836.94,-222.5 834.13,-216.09"/>
</g>
<!-- Node13 -->
<g id="node13" class="node">
<title>Node13</title>
<g id="a_node13"><a xlink:href="_m_l_c_l__basic__types_8c.html" target="_top" xlink:title=" ">
<polygon fill="none" stroke="black" points="544.02,-156.5 544.02,-175.5 675.02,-175.5 675.02,-156.5 544.02,-156.5"/>
<text text-anchor="middle" x="609.52" y="-163.5" font-family="Helvetica,sans-Serif" font-size="10.00">src/MLCL_basic_types.c</text>
</a>
</g>
</g>
<!-- Node5&#45;&gt;Node13 -->
<g id="edge13" class="edge">
<title>Node5&#45;&gt;Node13</title>
<path fill="none" stroke="midnightblue" d="M744.18,-219.74C708.09,-205.61 659.16,-186.44 631.31,-175.53"/>
<polygon fill="midnightblue" stroke="midnightblue" points="742.94,-223.01 753.52,-223.4 745.49,-216.5 742.94,-223.01"/>
</g>
<!-- Node14&#45;&gt;Node8 -->
<g id="edge18" class="edge">
<title>Node14&#45;&gt;Node8</title>
<path fill="none" stroke="midnightblue" d="M1374.05,-216.46C1360.72,-205 1344.59,-191.14 1332.81,-181"/>
<polygon fill="midnightblue" stroke="midnightblue" points="1372.06,-219.37 1381.92,-223.23 1376.62,-214.06 1372.06,-219.37"/>
</g>
<!-- Node15 -->
<g id="node15" class="node">
<title>Node15</title>
<g id="a_node15"><a xlink:href="_m_l_c_l___circular_double_linked_list_8h.html" target="_top" xlink:title=" ">
<polygon fill="none" stroke="black" points="1578.52,-151 1578.52,-181 1730.52,-181 1730.52,-151 1578.52,-151"/>
<text text-anchor="start" x="1586.52" y="-169" font-family="Helvetica,sans-Serif" font-size="10.00">include/Lists/MLCL</text>
<text text-anchor="middle" x="1654.52" y="-158" font-family="Helvetica,sans-Serif" font-size="10.00">_CircularDoubleLinkedList.h</text>
</a>
</g>
</g>
<!-- Node14&#45;&gt;Node15 -->
<g id="edge15" class="edge">
<title>Node14&#45;&gt;Node15</title>
<path fill="none" stroke="midnightblue" d="M1459.1,-220.82C1503,-208.73 1561.72,-192.56 1603.29,-181.11"/>
<polygon fill="midnightblue" stroke="midnightblue" points="1458.11,-217.46 1449.4,-223.49 1459.97,-224.21 1458.11,-217.46"/>
</g>
<!-- Node16 -->
<g id="node16" class="node">
<title>Node16</title>
<g id="a_node16"><a xlink:href="_m_l_c_l___circular_double_linked_list_8c.html" target="_top" xlink:title=" ">
<polygon fill="none" stroke="black" points="1573.02,-73 1573.02,-103 1736.02,-103 1736.02,-73 1573.02,-73"/>
<text text-anchor="start" x="1581.02" y="-91" font-family="Helvetica,sans-Serif" font-size="10.00">src/Lists/MLCL_CircularDouble</text>
<text text-anchor="middle" x="1654.52" y="-80" font-family="Helvetica,sans-Serif" font-size="10.00">LinkedList.c</text>
</a>
</g>
</g>
<!-- Node14&#45;&gt;Node16 -->
<g id="edge19" class="edge">
<title>Node14&#45;&gt;Node16</title>
<path fill="none" stroke="midnightblue" d="M1465.68,-223.16C1540.56,-214.12 1700.69,-231.24 1739.52,-187 1751.83,-172.97 1748.37,-161.43 1739.52,-145 1729.21,-125.86 1709.18,-112.19 1691.16,-103.14"/>
<polygon fill="midnightblue" stroke="midnightblue" points="1465.08,-219.71 1455.7,-224.62 1466.1,-226.64 1465.08,-219.71"/>
</g>
<!-- Node17 -->
<g id="node17" class="node">
<title>Node17</title>
<g id="a_node17"><a xlink:href="_m_l_c_l___double_linked_list_8c.html" target="_top" xlink:title=" ">
<polygon fill="none" stroke="black" points="1403.02,-151 1403.02,-181 1560.02,-181 1560.02,-151 1403.02,-151"/>
<text text-anchor="start" x="1411.02" y="-169" font-family="Helvetica,sans-Serif" font-size="10.00">src/Lists/MLCL_DoubleLinked</text>
<text text-anchor="middle" x="1481.52" y="-158" font-family="Helvetica,sans-Serif" font-size="10.00">List.c</text>
</a>
</g>
</g>
<!-- Node14&#45;&gt;Node17 -->
<g id="edge20" class="edge">
<title>Node14&#45;&gt;Node17</title>
<path fill="none" stroke="midnightblue" d="M1423.28,-216.46C1436.78,-205 1453.1,-191.14 1465.03,-181"/>
<polygon fill="midnightblue" stroke="midnightblue" points="1420.67,-214.09 1415.31,-223.23 1425.2,-219.43 1420.67,-214.09"/>
</g>
<!-- Node15&#45;&gt;Node6 -->
<g id="edge16" class="edge">
<title>Node15&#45;&gt;Node6</title>
<path fill="none" stroke="midnightblue" d="M1585.95,-148.75C1580.06,-147.44 1574.19,-146.18 1568.52,-145 1488.54,-128.39 1396.25,-111.86 1334.12,-101.11"/>
<polygon fill="midnightblue" stroke="midnightblue" points="1585.32,-152.19 1595.85,-150.96 1586.86,-145.36 1585.32,-152.19"/>
</g>
<!-- Node15&#45;&gt;Node16 -->
<g id="edge17" class="edge">
<title>Node15&#45;&gt;Node16</title>
<path fill="none" stroke="midnightblue" d="M1654.52,-140.59C1654.52,-128.26 1654.52,-113.72 1654.52,-103.23"/>
<polygon fill="midnightblue" stroke="midnightblue" points="1651.02,-140.7 1654.52,-150.7 1658.02,-140.71 1651.02,-140.7"/>
</g>
<!-- Node18&#45;&gt;Node9 -->
<g id="edge25" class="edge">
<title>Node18&#45;&gt;Node9</title>
<path fill="none" stroke="midnightblue" d="M1003.52,-213.23C1003.52,-202.57 1003.52,-190.41 1003.52,-181.25"/>
<polygon fill="midnightblue" stroke="midnightblue" points="1000.02,-213.23 1003.52,-223.23 1007.02,-213.23 1000.02,-213.23"/>
</g>
<!-- Node19 -->
<g id="node19" class="node">
<title>Node19</title>
<g id="a_node19"><a xlink:href="_m_l_c_l___circular_linked_list_8h.html" target="_top" xlink:title=" ">
<polygon fill="none" stroke="black" points="732.02,-151 732.02,-181 849.02,-181 849.02,-151 732.02,-151"/>
<text text-anchor="start" x="740.02" y="-169" font-family="Helvetica,sans-Serif" font-size="10.00">include/Lists/MLCL</text>
<text text-anchor="middle" x="790.52" y="-158" font-family="Helvetica,sans-Serif" font-size="10.00">_CircularLinkedList.h</text>
</a>
</g>
</g>
<!-- Node18&#45;&gt;Node19 -->
<g id="edge22" class="edge">
<title>Node18&#45;&gt;Node19</title>
<path fill="none" stroke="midnightblue" d="M951.26,-220.2C914.95,-208.18 867.15,-192.36 833.14,-181.11"/>
<polygon fill="midnightblue" stroke="midnightblue" points="950.59,-223.67 961.18,-223.49 952.79,-217.02 950.59,-223.67"/>
</g>
<!-- Node21 -->
<g id="node21" class="node">
<title>Node21</title>
<g id="a_node21"><a xlink:href="_m_l_c_l___linked_list_8c.html" target="_top" xlink:title=" ">
<polygon fill="none" stroke="black" points="1081.52,-156.5 1081.52,-175.5 1229.52,-175.5 1229.52,-156.5 1081.52,-156.5"/>
<text text-anchor="middle" x="1155.52" y="-163.5" font-family="Helvetica,sans-Serif" font-size="10.00">src/Lists/MLCL_LinkedList.c</text>
</a>
</g>
</g>
<!-- Node18&#45;&gt;Node21 -->
<g id="edge26" class="edge">
<title>Node18&#45;&gt;Node21</title>
<path fill="none" stroke="midnightblue" d="M1043.37,-219.02C1073.68,-204.96 1114,-186.26 1137.12,-175.53"/>
<polygon fill="midnightblue" stroke="midnightblue" points="1041.51,-216.02 1033.91,-223.4 1044.46,-222.37 1041.51,-216.02"/>
</g>
<!-- Node19&#45;&gt;Node7 -->
<g id="edge23" class="edge">
<title>Node19&#45;&gt;Node7</title>
<path fill="none" stroke="midnightblue" d="M766.36,-143.89C751.52,-130.93 732.91,-114.68 719.81,-103.23"/>
<polygon fill="midnightblue" stroke="midnightblue" points="764.32,-146.76 774.15,-150.7 768.93,-141.49 764.32,-146.76"/>
</g>
<!-- Node20 -->
<g id="node20" class="node">
<title>Node20</title>
<g id="a_node20"><a xlink:href="_m_l_c_l___circular_linked_list_8c.html" target="_top" xlink:title=" ">
<polygon fill="none" stroke="black" points="791.52,-73 791.52,-103 951.52,-103 951.52,-73 791.52,-73"/>
<text text-anchor="start" x="799.52" y="-91" font-family="Helvetica,sans-Serif" font-size="10.00">src/Lists/MLCL_CircularLinked</text>
<text text-anchor="middle" x="871.52" y="-80" font-family="Helvetica,sans-Serif" font-size="10.00">List.c</text>
</a>
</g>
</g>
<!-- Node19&#45;&gt;Node20 -->
<g id="edge24" class="edge">
<title>Node19&#45;&gt;Node20</title>
<path fill="none" stroke="midnightblue" d="M813.4,-143.53C827.15,-130.63 844.26,-114.57 856.35,-103.23"/>
<polygon fill="midnightblue" stroke="midnightblue" points="810.65,-141.31 805.75,-150.7 815.44,-146.41 810.65,-141.31"/>
</g>
<!-- Node24 -->
<g id="node24" class="node">
<title>Node24</title>
<g id="a_node24"><a xlink:href="_m_l_c_l___a_v_l_tree_8h.html" target="_top" xlink:title=" ">
<polygon fill="none" stroke="black" points="1786.52,-151 1786.52,-181 1896.52,-181 1896.52,-151 1786.52,-151"/>
<text text-anchor="start" x="1794.52" y="-169" font-family="Helvetica,sans-Serif" font-size="10.00">include/Trees/MLCL</text>
<text text-anchor="middle" x="1841.52" y="-158" font-family="Helvetica,sans-Serif" font-size="10.00">_AVLTree.h</text>
</a>
</g>
</g>
<!-- Node23&#45;&gt;Node24 -->
<g id="edge30" class="edge">
<title>Node23&#45;&gt;Node24</title>
<path fill="none" stroke="midnightblue" d="M1894.49,-216.14C1882.21,-204.74 1867.43,-191.04 1856.62,-181"/>
<polygon fill="midnightblue" stroke="midnightblue" points="1892.43,-219 1902.14,-223.23 1897.19,-213.87 1892.43,-219"/>
</g>
<!-- Node26 -->
<g id="node26" class="node">
<title>Node26</title>
<g id="a_node26"><a xlink:href="_m_l_c_l___binary_search_tree__test_8h.html" target="_top" xlink:title=" ">
<polygon fill="none" stroke="black" points="2090.52,-145.5 2090.52,-186.5 2226.52,-186.5 2226.52,-145.5 2090.52,-145.5"/>
<text text-anchor="start" x="2098.52" y="-174.5" font-family="Helvetica,sans-Serif" font-size="10.00">include/_Tests/Trees</text>
<text text-anchor="start" x="2098.52" y="-163.5" font-family="Helvetica,sans-Serif" font-size="10.00">/MLCL_BinarySearchTree</text>
<text text-anchor="middle" x="2158.52" y="-152.5" font-family="Helvetica,sans-Serif" font-size="10.00">_test.h</text>
</a>
</g>
</g>
<!-- Node23&#45;&gt;Node26 -->
<g id="edge33" class="edge">
<title>Node23&#45;&gt;Node26</title>
<path fill="none" stroke="midnightblue" d="M1975.02,-220.68C2010.04,-210.44 2054.93,-197.3 2091.54,-186.59"/>
<polygon fill="midnightblue" stroke="midnightblue" points="1974.04,-217.32 1965.42,-223.49 1976,-224.04 1974.04,-217.32"/>
</g>
<!-- Node29 -->
<g id="node29" class="node">
<title>Node29</title>
<g id="a_node29"><a xlink:href="_m_l_c_l___binary_search_tree_8c.html" target="_top" xlink:title=" ">
<polygon fill="none" stroke="black" points="1914.52,-151 1914.52,-181 2072.52,-181 2072.52,-151 1914.52,-151"/>
<text text-anchor="start" x="1922.52" y="-169" font-family="Helvetica,sans-Serif" font-size="10.00">src/Trees/MLCL_BinarySearch</text>
<text text-anchor="middle" x="1993.52" y="-158" font-family="Helvetica,sans-Serif" font-size="10.00">Tree.c</text>
</a>
</g>
</g>
<!-- Node23&#45;&gt;Node29 -->
<g id="edge37" class="edge">
<title>Node23&#45;&gt;Node29</title>
<path fill="none" stroke="midnightblue" d="M1940.55,-216.14C1952.83,-204.74 1967.6,-191.04 1978.42,-181"/>
<polygon fill="midnightblue" stroke="midnightblue" points="1937.85,-213.87 1932.9,-223.23 1942.61,-219 1937.85,-213.87"/>
</g>
<!-- Node24&#45;&gt;Node11 -->
<g id="edge31" class="edge">
<title>Node24&#45;&gt;Node11</title>
<path fill="none" stroke="midnightblue" d="M1776.35,-150.6C1764.17,-148.37 1751.5,-146.36 1739.52,-145 1246.86,-89.12 1119.72,-133.6 624.52,-109 542.43,-104.92 447.76,-98.23 387.55,-93.72"/>
<polygon fill="midnightblue" stroke="midnightblue" points="1775.97,-154.09 1786.45,-152.52 1777.28,-147.21 1775.97,-154.09"/>
</g>
<!-- Node25 -->
<g id="node25" class="node">
<title>Node25</title>
<g id="a_node25"><a xlink:href="_m_l_c_l___a_v_l_tree_8c.html" target="_top" xlink:title=" ">
<polygon fill="none" stroke="black" points="1911.52,-78.5 1911.52,-97.5 2051.52,-97.5 2051.52,-78.5 1911.52,-78.5"/>
<text text-anchor="middle" x="1981.52" y="-85.5" font-family="Helvetica,sans-Serif" font-size="10.00">src/Trees/MLCL_AVLTree.c</text>
</a>
</g>
</g>
<!-- Node24&#45;&gt;Node25 -->
<g id="edge32" class="edge">
<title>Node24&#45;&gt;Node25</title>
<path fill="none" stroke="midnightblue" d="M1876.4,-146.07C1904.98,-130.55 1944.11,-109.31 1965.66,-97.61"/>
<polygon fill="midnightblue" stroke="midnightblue" points="1874.64,-143.04 1867.52,-150.88 1877.98,-149.19 1874.64,-143.04"/>
</g>
<!-- Node26&#45;&gt;Node12 -->
<g id="edge36" class="edge">
<title>Node26&#45;&gt;Node12</title>
<path fill="none" stroke="midnightblue" d="M2080.15,-144.75C2000.73,-126.78 1978.56,-126.26 1902.52,-109 1894.38,-107.15 1885.79,-105.09 1877.4,-103.02"/>
<polygon fill="midnightblue" stroke="midnightblue" points="2079.6,-148.21 2090.13,-147.03 2081.16,-141.39 2079.6,-148.21"/>
</g>
<!-- Node27 -->
<g id="node27" class="node">
<title>Node27</title>
<g id="a_node27"><a xlink:href="_m_l_c_l__all__tests_8h.html" target="_top" xlink:title=" ">
<polygon fill="none" stroke="black" points="2101.52,-73 2101.52,-103 2215.52,-103 2215.52,-73 2101.52,-73"/>
<text text-anchor="start" x="2109.52" y="-91" font-family="Helvetica,sans-Serif" font-size="10.00">include/_Tests/MLCL</text>
<text text-anchor="middle" x="2158.52" y="-80" font-family="Helvetica,sans-Serif" font-size="10.00">_all_tests.h</text>
</a>
</g>
</g>
<!-- Node26&#45;&gt;Node27 -->
<g id="edge34" class="edge">
<title>Node26&#45;&gt;Node27</title>
<path fill="none" stroke="midnightblue" d="M2158.52,-135.28C2158.52,-124.25 2158.52,-112.25 2158.52,-103.23"/>
<polygon fill="midnightblue" stroke="midnightblue" points="2155.02,-135.43 2158.52,-145.43 2162.02,-135.43 2155.02,-135.43"/>
</g>
<!-- Node28 -->
<g id="node28" class="node">
<title>Node28</title>
<g id="a_node28"><a xlink:href="_m_l_c_l__all__tests_8c.html" target="_top" xlink:title=" ">
<polygon fill="none" stroke="black" points="2103.52,-0.5 2103.52,-30.5 2213.52,-30.5 2213.52,-0.5 2103.52,-0.5"/>
<text text-anchor="start" x="2111.52" y="-18.5" font-family="Helvetica,sans-Serif" font-size="10.00">src/_Tests/MLCL_all</text>
<text text-anchor="middle" x="2158.52" y="-7.5" font-family="Helvetica,sans-Serif" font-size="10.00">_tests.c</text>
</a>
</g>
</g>
<!-- Node27&#45;&gt;Node28 -->
<g id="edge35" class="edge">
<title>Node27&#45;&gt;Node28</title>
<path fill="none" stroke="midnightblue" d="M2158.52,-62.73C2158.52,-52.07 2158.52,-39.91 2158.52,-30.75"/>
<polygon fill="midnightblue" stroke="midnightblue" points="2155.02,-62.73 2158.52,-72.73 2162.02,-62.73 2155.02,-62.73"/>
</g>
</g>
</svg>
