<?xml version="1.0" encoding="UTF-8" standalone="no"?>
<!DOCTYPE svg PUBLIC "-//W3C//DTD SVG 1.1//EN"
 "http://www.w3.org/Graphics/SVG/1.1/DTD/svg11.dtd">
<!-- Generated by graphviz version 2.43.0 (0)
 -->
<!-- Title: include/Lists/MLCL_LinkedList.h Pages: 1 -->
<svg width="695pt" height="307pt"
 viewBox="0.00 0.00 695.00 307.00" xmlns="http://www.w3.org/2000/svg" xmlns:xlink="http://www.w3.org/1999/xlink">
<g id="graph0" class="graph" transform="scale(1 1) rotate(0) translate(4 303)">
<title>include/Lists/MLCL_LinkedList.h</title>
<!-- Node1 -->
<g id="node1" class="node">
<title>Node1</title>
<g id="a_node1"><a xlink:title=" ">
<polygon fill="#bfbfbf" stroke="black" points="363.5,-268.5 363.5,-298.5 470.5,-298.5 470.5,-268.5 363.5,-268.5"/>
<text text-anchor="start" x="371.5" y="-286.5" font-family="Helvetica,sans-Serif" font-size="10.00">include/Lists/MLCL</text>
<text text-anchor="middle" x="417" y="-275.5" font-family="Helvetica,sans-Serif" font-size="10.00">_LinkedList.h</text>
</a>
</g>
</g>
<!-- Node2 -->
<g id="node2" class="node">
<title>Node2</title>
<g id="a_node2"><a xlink:href="_m_l_c_l___circular_linked_list_8h.html" target="_top" xlink:title=" ">
<polygon fill="none" stroke="black" points="211.5,-201.5 211.5,-231.5 328.5,-231.5 328.5,-201.5 211.5,-201.5"/>
<text text-anchor="start" x="219.5" y="-219.5" font-family="Helvetica,sans-Serif" font-size="10.00">include/Lists/MLCL</text>
<text text-anchor="middle" x="270" y="-208.5" font-family="Helvetica,sans-Serif" font-size="10.00">_CircularLinkedList.h</text>
</a>
</g>
</g>
<!-- Node1&#45;&gt;Node2 -->
<g id="edge1" class="edge">
<title>Node1&#45;&gt;Node2</title>
<path fill="none" stroke="midnightblue" d="M375.77,-264.27C352.36,-253.92 323.49,-241.15 301.83,-231.58"/>
<polygon fill="midnightblue" stroke="midnightblue" points="374.54,-267.55 385.1,-268.4 377.37,-261.15 374.54,-267.55"/>
</g>
<!-- Node4 -->
<g id="node4" class="node">
<title>Node4</title>
<g id="a_node4"><a xlink:href="_m_l_c_l___list_8h.html" target="_top" xlink:title=" ">
<polygon fill="none" stroke="black" points="336.5,-134.5 336.5,-164.5 443.5,-164.5 443.5,-134.5 336.5,-134.5"/>
<text text-anchor="start" x="344.5" y="-152.5" font-family="Helvetica,sans-Serif" font-size="10.00">include/Lists/MLCL</text>
<text text-anchor="middle" x="390" y="-141.5" font-family="Helvetica,sans-Serif" font-size="10.00">_List.h</text>
</a>
</g>
</g>
<!-- Node1&#45;&gt;Node4 -->
<g id="edge14" class="edge">
<title>Node1&#45;&gt;Node4</title>
<path fill="none" stroke="midnightblue" d="M402.92,-259.38C398.57,-251.05 394.32,-241.38 392,-232 386.3,-208.92 387.22,-181.03 388.53,-164.59"/>
<polygon fill="midnightblue" stroke="midnightblue" points="399.86,-261.08 407.77,-268.13 405.98,-257.69 399.86,-261.08"/>
</g>
<!-- Node14 -->
<g id="node14" class="node">
<title>Node14</title>
<g id="a_node14"><a xlink:href="_m_l_c_l___linked_list__test_8c.html" target="_top" xlink:title=" ">
<polygon fill="none" stroke="black" points="401.5,-201.5 401.5,-231.5 520.5,-231.5 520.5,-201.5 401.5,-201.5"/>
<text text-anchor="start" x="409.5" y="-219.5" font-family="Helvetica,sans-Serif" font-size="10.00">src/_Tests/Lists/MLCL</text>
<text text-anchor="middle" x="461" y="-208.5" font-family="Helvetica,sans-Serif" font-size="10.00">_LinkedList_test.c</text>
</a>
</g>
</g>
<!-- Node1&#45;&gt;Node14 -->
<g id="edge13" class="edge">
<title>Node1&#45;&gt;Node14</title>
<path fill="none" stroke="midnightblue" d="M432.32,-259.87C438.69,-250.46 445.88,-239.83 451.47,-231.58"/>
<polygon fill="midnightblue" stroke="midnightblue" points="429.25,-258.15 426.55,-268.4 435.05,-262.08 429.25,-258.15"/>
</g>
<!-- Node15 -->
<g id="node15" class="node">
<title>Node15</title>
<g id="a_node15"><a xlink:href="_m_l_c_l___linked_list_8c.html" target="_top" xlink:title=" ">
<polygon fill="none" stroke="black" points="539,-207 539,-226 687,-226 687,-207 539,-207"/>
<text text-anchor="middle" x="613" y="-214" font-family="Helvetica,sans-Serif" font-size="10.00">src/Lists/MLCL_LinkedList.c</text>
</a>
</g>
</g>
<!-- Node1&#45;&gt;Node15 -->
<g id="edge15" class="edge">
<title>Node1&#45;&gt;Node15</title>
<path fill="none" stroke="midnightblue" d="M469.44,-265.11C507.58,-252.46 557.54,-235.89 587.35,-226.01"/>
<polygon fill="midnightblue" stroke="midnightblue" points="467.92,-261.93 459.53,-268.4 470.12,-268.57 467.92,-261.93"/>
</g>
<!-- Node3 -->
<g id="node3" class="node">
<title>Node3</title>
<g id="a_node3"><a xlink:href="_m_l_c_l___circular_linked_list__test_8c.html" target="_top" xlink:title=" ">
<polygon fill="none" stroke="black" points="0,-134.5 0,-164.5 140,-164.5 140,-134.5 0,-134.5"/>
<text text-anchor="start" x="8" y="-152.5" font-family="Helvetica,sans-Serif" font-size="10.00">src/_Tests/Lists/MLCL</text>
<text text-anchor="middle" x="70" y="-141.5" font-family="Helvetica,sans-Serif" font-size="10.00">_CircularLinkedList_test.c</text>
</a>
</g>
</g>
<!-- Node2&#45;&gt;Node3 -->
<g id="edge2" class="edge">
<title>Node2&#45;&gt;Node3</title>
<path fill="none" stroke="midnightblue" d="M216.85,-198.23C184.5,-187.71 143.69,-174.45 113.31,-164.58"/>
<polygon fill="midnightblue" stroke="midnightblue" points="216.01,-201.63 226.6,-201.4 218.17,-194.98 216.01,-201.63"/>
</g>
<!-- Node2&#45;&gt;Node4 -->
<g id="edge3" class="edge">
<title>Node2&#45;&gt;Node4</title>
<path fill="none" stroke="midnightblue" d="M304.94,-196.57C323.82,-186.35 346.73,-173.94 364.01,-164.58"/>
<polygon fill="midnightblue" stroke="midnightblue" points="303.16,-193.56 296.04,-201.4 306.5,-199.71 303.16,-193.56"/>
</g>
<!-- Node13 -->
<g id="node13" class="node">
<title>Node13</title>
<g id="a_node13"><a xlink:href="_m_l_c_l___circular_linked_list_8c.html" target="_top" xlink:title=" ">
<polygon fill="none" stroke="black" points="158,-134.5 158,-164.5 318,-164.5 318,-134.5 158,-134.5"/>
<text text-anchor="start" x="166" y="-152.5" font-family="Helvetica,sans-Serif" font-size="10.00">src/Lists/MLCL_CircularLinked</text>
<text text-anchor="middle" x="238" y="-141.5" font-family="Helvetica,sans-Serif" font-size="10.00">List.c</text>
</a>
</g>
</g>
<!-- Node2&#45;&gt;Node13 -->
<g id="edge12" class="edge">
<title>Node2&#45;&gt;Node13</title>
<path fill="none" stroke="midnightblue" d="M258.57,-192.28C254.01,-183.02 248.91,-172.66 244.93,-164.58"/>
<polygon fill="midnightblue" stroke="midnightblue" points="255.5,-193.97 263.06,-201.4 261.78,-190.88 255.5,-193.97"/>
</g>
<!-- Node5 -->
<g id="node5" class="node">
<title>Node5</title>
<g id="a_node5"><a xlink:href="_m_l_c_l___list__test_8c.html" target="_top" xlink:title=" ">
<polygon fill="none" stroke="black" points="124.5,-67.5 124.5,-97.5 243.5,-97.5 243.5,-67.5 124.5,-67.5"/>
<text text-anchor="start" x="132.5" y="-85.5" font-family="Helvetica,sans-Serif" font-size="10.00">src/_Tests/Lists/MLCL</text>
<text text-anchor="middle" x="184" y="-74.5" font-family="Helvetica,sans-Serif" font-size="10.00">_List_test.c</text>
</a>
</g>
</g>
<!-- Node4&#45;&gt;Node5 -->
<g id="edge4" class="edge">
<title>Node4&#45;&gt;Node5</title>
<path fill="none" stroke="midnightblue" d="M335.95,-131.44C302.55,-120.91 260.22,-107.55 228.72,-97.61"/>
<polygon fill="midnightblue" stroke="midnightblue" points="334.96,-134.8 345.55,-134.48 337.07,-128.13 334.96,-134.8"/>
</g>
<!-- Node6 -->
<g id="node6" class="node">
<title>Node6</title>
<g id="a_node6"><a xlink:href="_m_l_c_l___queue_8h.html" target="_top" xlink:title=" ">
<polygon fill="none" stroke="black" points="262,-67.5 262,-97.5 378,-97.5 378,-67.5 262,-67.5"/>
<text text-anchor="start" x="270" y="-85.5" font-family="Helvetica,sans-Serif" font-size="10.00">include/Queue/MLCL</text>
<text text-anchor="middle" x="320" y="-74.5" font-family="Helvetica,sans-Serif" font-size="10.00">_Queue.h</text>
</a>
</g>
</g>
<!-- Node4&#45;&gt;Node6 -->
<g id="edge5" class="edge">
<title>Node4&#45;&gt;Node6</title>
<path fill="none" stroke="midnightblue" d="M367.18,-127.31C356.68,-117.56 344.51,-106.26 335.16,-97.58"/>
<polygon fill="midnightblue" stroke="midnightblue" points="365.1,-130.16 374.81,-134.4 369.86,-125.03 365.1,-130.16"/>
</g>
<!-- Node9 -->
<g id="node9" class="node">
<title>Node9</title>
<g id="a_node9"><a xlink:href="_m_l_c_l___stack_8h.html" target="_top" xlink:title=" ">
<polygon fill="none" stroke="black" points="405.5,-67.5 405.5,-97.5 516.5,-97.5 516.5,-67.5 405.5,-67.5"/>
<text text-anchor="start" x="413.5" y="-85.5" font-family="Helvetica,sans-Serif" font-size="10.00">include/Stack/MLCL</text>
<text text-anchor="middle" x="461" y="-74.5" font-family="Helvetica,sans-Serif" font-size="10.00">_Stack.h</text>
</a>
</g>
</g>
<!-- Node4&#45;&gt;Node9 -->
<g id="edge8" class="edge">
<title>Node4&#45;&gt;Node9</title>
<path fill="none" stroke="midnightblue" d="M412.83,-127.6C423.55,-117.78 436.05,-106.34 445.62,-97.58"/>
<polygon fill="midnightblue" stroke="midnightblue" points="410.42,-125.06 405.41,-134.4 415.15,-130.22 410.42,-125.06"/>
</g>
<!-- Node12 -->
<g id="node12" class="node">
<title>Node12</title>
<g id="a_node12"><a xlink:href="_m_l_c_l___list_8c.html" target="_top" xlink:title=" ">
<polygon fill="none" stroke="black" points="535,-73 535,-92 651,-92 651,-73 535,-73"/>
<text text-anchor="middle" x="593" y="-80" font-family="Helvetica,sans-Serif" font-size="10.00">src/Lists/MLCL_List.c</text>
</a>
</g>
</g>
<!-- Node4&#45;&gt;Node12 -->
<g id="edge11" class="edge">
<title>Node4&#45;&gt;Node12</title>
<path fill="none" stroke="midnightblue" d="M443.81,-131.27C483.37,-118.6 535.43,-101.93 566.43,-92.01"/>
<polygon fill="midnightblue" stroke="midnightblue" points="442.5,-128.01 434.05,-134.4 444.64,-134.68 442.5,-128.01"/>
</g>
<!-- Node7 -->
<g id="node7" class="node">
<title>Node7</title>
<g id="a_node7"><a xlink:href="_m_l_c_l___queue__test_8c.html" target="_top" xlink:title=" ">
<polygon fill="none" stroke="black" points="100,-0.5 100,-30.5 228,-30.5 228,-0.5 100,-0.5"/>
<text text-anchor="start" x="108" y="-18.5" font-family="Helvetica,sans-Serif" font-size="10.00">src/_Tests/Queue/MLCL</text>
<text text-anchor="middle" x="164" y="-7.5" font-family="Helvetica,sans-Serif" font-size="10.00">_Queue_test.c</text>
</a>
</g>
</g>
<!-- Node6&#45;&gt;Node7 -->
<g id="edge6" class="edge">
<title>Node6&#45;&gt;Node7</title>
<path fill="none" stroke="midnightblue" d="M276.91,-63.54C251.94,-53.14 220.97,-40.24 197.78,-30.58"/>
<polygon fill="midnightblue" stroke="midnightblue" points="275.57,-66.78 286.15,-67.4 278.27,-60.32 275.57,-66.78"/>
</g>
<!-- Node8 -->
<g id="node8" class="node">
<title>Node8</title>
<g id="a_node8"><a xlink:href="_m_l_c_l___queue_8c.html" target="_top" xlink:title=" ">
<polygon fill="none" stroke="black" points="246,-6 246,-25 386,-25 386,-6 246,-6"/>
<text text-anchor="middle" x="316" y="-13" font-family="Helvetica,sans-Serif" font-size="10.00">src/Queue/MLCL_Queue.c</text>
</a>
</g>
</g>
<!-- Node6&#45;&gt;Node8 -->
<g id="edge7" class="edge">
<title>Node6&#45;&gt;Node8</title>
<path fill="none" stroke="midnightblue" d="M318.51,-57.25C317.82,-46.02 317.04,-33.38 316.54,-25.19"/>
<polygon fill="midnightblue" stroke="midnightblue" points="315.02,-57.63 319.13,-67.4 322.01,-57.2 315.02,-57.63"/>
</g>
<!-- Node10 -->
<g id="node10" class="node">
<title>Node10</title>
<g id="a_node10"><a xlink:href="_m_l_c_l___stack__test_8c.html" target="_top" xlink:title=" ">
<polygon fill="none" stroke="black" points="404.5,-0.5 404.5,-30.5 527.5,-30.5 527.5,-0.5 404.5,-0.5"/>
<text text-anchor="start" x="412.5" y="-18.5" font-family="Helvetica,sans-Serif" font-size="10.00">src/_Tests/Stack/MLCL</text>
<text text-anchor="middle" x="466" y="-7.5" font-family="Helvetica,sans-Serif" font-size="10.00">_Stack_test.c</text>
</a>
</g>
</g>
<!-- Node9&#45;&gt;Node10 -->
<g id="edge9" class="edge">
<title>Node9&#45;&gt;Node10</title>
<path fill="none" stroke="midnightblue" d="M462.85,-57.4C463.55,-48.37 464.31,-38.41 464.92,-30.58"/>
<polygon fill="midnightblue" stroke="midnightblue" points="459.36,-57.16 462.08,-67.4 466.34,-57.69 459.36,-57.16"/>
</g>
<!-- Node11 -->
<g id="node11" class="node">
<title>Node11</title>
<g id="a_node11"><a xlink:href="_m_l_c_l___stack_8c.html" target="_top" xlink:title=" ">
<polygon fill="none" stroke="black" points="545.5,-6 545.5,-25 676.5,-25 676.5,-6 545.5,-6"/>
<text text-anchor="middle" x="611" y="-13" font-family="Helvetica,sans-Serif" font-size="10.00">src/Stack/MLCL_Stack.c</text>
</a>
</g>
</g>
<!-- Node9&#45;&gt;Node11 -->
<g id="edge10" class="edge">
<title>Node9&#45;&gt;Node11</title>
<path fill="none" stroke="midnightblue" d="M503.01,-63.3C531.94,-50.76 569.04,-34.68 591.37,-25.01"/>
<polygon fill="midnightblue" stroke="midnightblue" points="501.33,-60.21 493.55,-67.4 504.11,-66.63 501.33,-60.21"/>
</g>
</g>
</svg>
