<?xml version="1.0" encoding="UTF-8" standalone="no"?>
<!DOCTYPE svg PUBLIC "-//W3C//DTD SVG 1.1//EN"
 "http://www.w3.org/Graphics/SVG/1.1/DTD/svg11.dtd">
<!-- Generated by graphviz version 2.43.0 (0)
 -->
<!-- Title: include/Lists/MLCL_CircularLinkedList.h Pages: 1 -->
<svg width="452pt" height="173pt"
 viewBox="0.00 0.00 452.00 173.00" xmlns="http://www.w3.org/2000/svg" xmlns:xlink="http://www.w3.org/1999/xlink">
<g id="graph0" class="graph" transform="scale(1 1) rotate(0) translate(4 169)">
<title>include/Lists/MLCL_CircularLinkedList.h</title>
<!-- Node1 -->
<g id="node1" class="node">
<title>Node1</title>
<g id="a_node1"><a xlink:title=" ">
<polygon fill="#bfbfbf" stroke="black" points="153.5,-134.5 153.5,-164.5 270.5,-164.5 270.5,-134.5 153.5,-134.5"/>
<text text-anchor="start" x="161.5" y="-152.5" font-family="Helvetica,sans-Serif" font-size="10.00">include/Lists/MLCL</text>
<text text-anchor="middle" x="212" y="-141.5" font-family="Helvetica,sans-Serif" font-size="10.00">_CircularLinkedList.h</text>
</a>
</g>
</g>
<!-- Node2 -->
<g id="node2" class="node">
<title>Node2</title>
<g id="a_node2"><a xlink:href="_m_l_c_l___circular_linked_list__test_8c.html" target="_top" xlink:title=" ">
<polygon fill="none" stroke="black" points="0,-67.5 0,-97.5 140,-97.5 140,-67.5 0,-67.5"/>
<text text-anchor="start" x="8" y="-85.5" font-family="Helvetica,sans-Serif" font-size="10.00">src/_Tests/Lists/MLCL</text>
<text text-anchor="middle" x="70" y="-74.5" font-family="Helvetica,sans-Serif" font-size="10.00">_CircularLinkedList_test.c</text>
</a>
</g>
</g>
<!-- Node1&#45;&gt;Node2 -->
<g id="edge1" class="edge">
<title>Node1&#45;&gt;Node2</title>
<path fill="none" stroke="midnightblue" d="M171.87,-130.13C149.31,-119.8 121.58,-107.11 100.75,-97.58"/>
<polygon fill="midnightblue" stroke="midnightblue" points="170.64,-133.42 181.19,-134.4 173.55,-127.05 170.64,-133.42"/>
</g>
<!-- Node3 -->
<g id="node3" class="node">
<title>Node3</title>
<g id="a_node3"><a xlink:href="_m_l_c_l___list_8h.html" target="_top" xlink:title=" ">
<polygon fill="none" stroke="black" points="158.5,-67.5 158.5,-97.5 265.5,-97.5 265.5,-67.5 158.5,-67.5"/>
<text text-anchor="start" x="166.5" y="-85.5" font-family="Helvetica,sans-Serif" font-size="10.00">include/Lists/MLCL</text>
<text text-anchor="middle" x="212" y="-74.5" font-family="Helvetica,sans-Serif" font-size="10.00">_List.h</text>
</a>
</g>
</g>
<!-- Node1&#45;&gt;Node3 -->
<g id="edge2" class="edge">
<title>Node1&#45;&gt;Node3</title>
<path fill="none" stroke="midnightblue" d="M212,-124.11C212,-115.15 212,-105.32 212,-97.58"/>
<polygon fill="midnightblue" stroke="midnightblue" points="208.5,-124.4 212,-134.4 215.5,-124.4 208.5,-124.4"/>
</g>
<!-- Node6 -->
<g id="node6" class="node">
<title>Node6</title>
<g id="a_node6"><a xlink:href="_m_l_c_l___circular_linked_list_8c.html" target="_top" xlink:title=" ">
<polygon fill="none" stroke="black" points="284,-67.5 284,-97.5 444,-97.5 444,-67.5 284,-67.5"/>
<text text-anchor="start" x="292" y="-85.5" font-family="Helvetica,sans-Serif" font-size="10.00">src/Lists/MLCL_CircularLinked</text>
<text text-anchor="middle" x="364" y="-74.5" font-family="Helvetica,sans-Serif" font-size="10.00">List.c</text>
</a>
</g>
</g>
<!-- Node1&#45;&gt;Node6 -->
<g id="edge5" class="edge">
<title>Node1&#45;&gt;Node6</title>
<path fill="none" stroke="midnightblue" d="M254.31,-130.41C278.58,-120.03 308.59,-107.2 331.08,-97.58"/>
<polygon fill="midnightblue" stroke="midnightblue" points="252.8,-127.25 244.98,-134.4 255.55,-133.68 252.8,-127.25"/>
</g>
<!-- Node4 -->
<g id="node4" class="node">
<title>Node4</title>
<g id="a_node4"><a xlink:href="_m_l_c_l___list__test_8c.html" target="_top" xlink:title=" ">
<polygon fill="none" stroke="black" points="84.5,-0.5 84.5,-30.5 203.5,-30.5 203.5,-0.5 84.5,-0.5"/>
<text text-anchor="start" x="92.5" y="-18.5" font-family="Helvetica,sans-Serif" font-size="10.00">src/_Tests/Lists/MLCL</text>
<text text-anchor="middle" x="144" y="-7.5" font-family="Helvetica,sans-Serif" font-size="10.00">_List_test.c</text>
</a>
</g>
</g>
<!-- Node3&#45;&gt;Node4 -->
<g id="edge3" class="edge">
<title>Node3&#45;&gt;Node4</title>
<path fill="none" stroke="midnightblue" d="M189.83,-60.31C179.63,-50.56 167.81,-39.26 158.73,-30.58"/>
<polygon fill="midnightblue" stroke="midnightblue" points="187.6,-63.02 197.25,-67.4 192.43,-57.96 187.6,-63.02"/>
</g>
<!-- Node5 -->
<g id="node5" class="node">
<title>Node5</title>
<g id="a_node5"><a xlink:href="_m_l_c_l___list_8c.html" target="_top" xlink:title=" ">
<polygon fill="none" stroke="black" points="222,-6 222,-25 338,-25 338,-6 222,-6"/>
<text text-anchor="middle" x="280" y="-13" font-family="Helvetica,sans-Serif" font-size="10.00">src/Lists/MLCL_List.c</text>
</a>
</g>
</g>
<!-- Node3&#45;&gt;Node5 -->
<g id="edge4" class="edge">
<title>Node3&#45;&gt;Node5</title>
<path fill="none" stroke="midnightblue" d="M234.14,-60.34C246.63,-48.4 261.55,-34.14 270.9,-25.19"/>
<polygon fill="midnightblue" stroke="midnightblue" points="231.57,-57.96 226.75,-67.4 236.4,-63.02 231.57,-57.96"/>
</g>
</g>
</svg>
