<?xml version="1.0" encoding="UTF-8" standalone="no"?>
<!DOCTYPE svg PUBLIC "-//W3C//DTD SVG 1.1//EN"
 "http://www.w3.org/Graphics/SVG/1.1/DTD/svg11.dtd">
<!-- Generated by graphviz version 2.43.0 (0)
 -->
<!-- Title: include/MLCL_TypeDescriptor.h Pages: 1 -->
<svg width="1748pt" height="296pt"
 viewBox="0.00 0.00 1747.50 296.00" xmlns="http://www.w3.org/2000/svg" xmlns:xlink="http://www.w3.org/1999/xlink">
<g id="graph0" class="graph" transform="scale(1 1) rotate(0) translate(4 292)">
<title>include/MLCL_TypeDescriptor.h</title>
<!-- Node1 -->
<g id="node1" class="node">
<title>Node1</title>
<g id="a_node1"><a xlink:title=" ">
<polygon fill="#bfbfbf" stroke="black" points="838,-268.5 838,-287.5 1005,-287.5 1005,-268.5 838,-268.5"/>
<text text-anchor="middle" x="921.5" y="-275.5" font-family="Helvetica,sans-Serif" font-size="10.00">include/MLCL_TypeDescriptor.h</text>
</a>
</g>
</g>
<!-- Node2 -->
<g id="node2" class="node">
<title>Node2</title>
<g id="a_node2"><a xlink:href="_m_l_c_l__basic__types_8h.html" target="_top" xlink:title=" ">
<polygon fill="none" stroke="black" points="865.5,-201.5 865.5,-231.5 977.5,-231.5 977.5,-201.5 865.5,-201.5"/>
<text text-anchor="start" x="873.5" y="-219.5" font-family="Helvetica,sans-Serif" font-size="10.00">include/MLCL_basic</text>
<text text-anchor="middle" x="921.5" y="-208.5" font-family="Helvetica,sans-Serif" font-size="10.00">_types.h</text>
</a>
</g>
</g>
<!-- Node1&#45;&gt;Node2 -->
<g id="edge1" class="edge">
<title>Node1&#45;&gt;Node2</title>
<path fill="none" stroke="midnightblue" d="M921.5,-258.23C921.5,-249.59 921.5,-239.5 921.5,-231.52"/>
<polygon fill="midnightblue" stroke="midnightblue" points="918,-258.48 921.5,-268.48 925,-258.48 918,-258.48"/>
</g>
<!-- Node10 -->
<g id="node10" class="node">
<title>Node10</title>
<g id="a_node10"><a xlink:href="_m_l_c_l___binary_tree_8h.html" target="_top" xlink:title=" ">
<polygon fill="none" stroke="black" points="124,-207 124,-226 271,-226 271,-207 124,-207"/>
<text text-anchor="middle" x="197.5" y="-214" font-family="Helvetica,sans-Serif" font-size="10.00">include/MLCL_BinaryTree.h</text>
</a>
</g>
</g>
<!-- Node1&#45;&gt;Node10 -->
<g id="edge9" class="edge">
<title>Node1&#45;&gt;Node10</title>
<path fill="none" stroke="midnightblue" d="M827.46,-269.27C681.47,-257.27 403.34,-234.42 271,-223.54"/>
<polygon fill="midnightblue" stroke="midnightblue" points="827.49,-272.79 837.74,-270.12 828.06,-265.81 827.49,-272.79"/>
</g>
<!-- Node15 -->
<g id="node15" class="node">
<title>Node15</title>
<g id="a_node15"><a xlink:href="_m_l_c_l___double_linked_list_8h.html" target="_top" xlink:title=" ">
<polygon fill="none" stroke="black" points="486.5,-201.5 486.5,-231.5 638.5,-231.5 638.5,-201.5 486.5,-201.5"/>
<text text-anchor="start" x="494.5" y="-219.5" font-family="Helvetica,sans-Serif" font-size="10.00">include/MLCL_DoubleLinked</text>
<text text-anchor="middle" x="562.5" y="-208.5" font-family="Helvetica,sans-Serif" font-size="10.00">List.h</text>
</a>
</g>
</g>
<!-- Node1&#45;&gt;Node15 -->
<g id="edge15" class="edge">
<title>Node1&#45;&gt;Node15</title>
<path fill="none" stroke="midnightblue" d="M860.15,-266.83C798.89,-256.68 704.6,-241.05 638.6,-230.11"/>
<polygon fill="midnightblue" stroke="midnightblue" points="859.63,-270.29 870.06,-268.48 860.77,-263.39 859.63,-270.29"/>
</g>
<!-- Node19 -->
<g id="node19" class="node">
<title>Node19</title>
<g id="a_node19"><a xlink:href="_m_l_c_l___linked_list_8h.html" target="_top" xlink:title=" ">
<polygon fill="none" stroke="black" points="1282.5,-207 1282.5,-226 1426.5,-226 1426.5,-207 1282.5,-207"/>
<text text-anchor="middle" x="1354.5" y="-214" font-family="Helvetica,sans-Serif" font-size="10.00">include/MLCL_LinkedList.h</text>
</a>
</g>
</g>
<!-- Node1&#45;&gt;Node19 -->
<g id="edge22" class="edge">
<title>Node1&#45;&gt;Node19</title>
<path fill="none" stroke="midnightblue" d="M993.46,-267.11C1077.04,-255.63 1213.53,-236.87 1292.58,-226.01"/>
<polygon fill="midnightblue" stroke="midnightblue" points="992.97,-263.65 983.54,-268.48 993.92,-270.58 992.97,-263.65"/>
</g>
<!-- Node23 -->
<g id="node23" class="node">
<title>Node23</title>
<g id="a_node23"><a xlink:href="_m_l_c_l___type_descriptor_8c.html" target="_top" xlink:title=" ">
<polygon fill="none" stroke="black" points="1444.5,-207 1444.5,-226 1590.5,-226 1590.5,-207 1444.5,-207"/>
<text text-anchor="middle" x="1517.5" y="-214" font-family="Helvetica,sans-Serif" font-size="10.00">src/MLCL_TypeDescriptor.c</text>
</a>
</g>
</g>
<!-- Node1&#45;&gt;Node23 -->
<g id="edge28" class="edge">
<title>Node1&#45;&gt;Node23</title>
<path fill="none" stroke="midnightblue" d="M1015.52,-271.25C1118.79,-264.36 1289.39,-251.28 1435.5,-232 1447.83,-230.37 1461.12,-228.2 1473.35,-226.04"/>
<polygon fill="midnightblue" stroke="midnightblue" points="1015.18,-267.77 1005.43,-271.92 1015.64,-274.75 1015.18,-267.77"/>
</g>
<!-- Node3 -->
<g id="node3" class="node">
<title>Node3</title>
<g id="a_node3"><a xlink:href="_m_l_c_l__basic__types_8c.html" target="_top" xlink:title=" ">
<polygon fill="none" stroke="black" points="1134,-140 1134,-159 1265,-159 1265,-140 1134,-140"/>
<text text-anchor="middle" x="1199.5" y="-147" font-family="Helvetica,sans-Serif" font-size="10.00">src/MLCL_basic_types.c</text>
</a>
</g>
</g>
<!-- Node2&#45;&gt;Node3 -->
<g id="edge2" class="edge">
<title>Node2&#45;&gt;Node3</title>
<path fill="none" stroke="midnightblue" d="M987.73,-200.01C1042.53,-187.2 1118.34,-169.48 1162.82,-159.08"/>
<polygon fill="midnightblue" stroke="midnightblue" points="986.7,-196.66 977.76,-202.35 988.29,-203.48 986.7,-196.66"/>
</g>
<!-- Node4 -->
<g id="node4" class="node">
<title>Node4</title>
<g id="a_node4"><a xlink:href="_m_l_c_l___binary_tree__test_8c.html" target="_top" xlink:title=" ">
<polygon fill="none" stroke="black" points="342,-67.5 342,-97.5 487,-97.5 487,-67.5 342,-67.5"/>
<text text-anchor="start" x="350" y="-85.5" font-family="Helvetica,sans-Serif" font-size="10.00">src/Tests/MLCL_BinaryTree</text>
<text text-anchor="middle" x="414.5" y="-74.5" font-family="Helvetica,sans-Serif" font-size="10.00">_test.c</text>
</a>
</g>
</g>
<!-- Node2&#45;&gt;Node4 -->
<g id="edge3" class="edge">
<title>Node2&#45;&gt;Node4</title>
<path fill="none" stroke="midnightblue" d="M855.44,-209.54C807.26,-203.24 741.42,-190.49 688.5,-165 668.86,-155.54 670.15,-143.43 650.5,-134 622.08,-120.36 545.51,-105.3 487.22,-95.21"/>
<polygon fill="midnightblue" stroke="midnightblue" points="855.09,-213.02 865.45,-210.79 855.96,-206.07 855.09,-213.02"/>
</g>
<!-- Node5 -->
<g id="node5" class="node">
<title>Node5</title>
<g id="a_node5"><a xlink:href="_m_l_c_l___circular_double_linked_list__test_8c.html" target="_top" xlink:title=" ">
<polygon fill="none" stroke="black" points="747,-67.5 747,-97.5 912,-97.5 912,-67.5 747,-67.5"/>
<text text-anchor="start" x="755" y="-85.5" font-family="Helvetica,sans-Serif" font-size="10.00">src/Tests/MLCL_CircularDouble</text>
<text text-anchor="middle" x="829.5" y="-74.5" font-family="Helvetica,sans-Serif" font-size="10.00">LinkedList_test.c</text>
</a>
</g>
</g>
<!-- Node2&#45;&gt;Node5 -->
<g id="edge4" class="edge">
<title>Node2&#45;&gt;Node5</title>
<path fill="none" stroke="midnightblue" d="M905.7,-192.83C886.63,-165.47 855.14,-120.28 839.27,-97.52"/>
<polygon fill="midnightblue" stroke="midnightblue" points="903.07,-195.17 911.65,-201.37 908.81,-191.17 903.07,-195.17"/>
</g>
<!-- Node6 -->
<g id="node6" class="node">
<title>Node6</title>
<g id="a_node6"><a xlink:href="_m_l_c_l___circular_linked_list__test_8c.html" target="_top" xlink:title=" ">
<polygon fill="none" stroke="black" points="1069.5,-67.5 1069.5,-97.5 1231.5,-97.5 1231.5,-67.5 1069.5,-67.5"/>
<text text-anchor="start" x="1077.5" y="-85.5" font-family="Helvetica,sans-Serif" font-size="10.00">src/Tests/MLCL_CircularLinked</text>
<text text-anchor="middle" x="1150.5" y="-74.5" font-family="Helvetica,sans-Serif" font-size="10.00">List_test.c</text>
</a>
</g>
</g>
<!-- Node2&#45;&gt;Node6 -->
<g id="edge5" class="edge">
<title>Node2&#45;&gt;Node6</title>
<path fill="none" stroke="midnightblue" d="M920.75,-191.17C921.54,-173.03 925.68,-148.92 940.5,-134 958.73,-115.64 1018.33,-102.4 1069.4,-94.1"/>
<polygon fill="midnightblue" stroke="midnightblue" points="917.25,-191.25 920.62,-201.29 924.25,-191.34 917.25,-191.25"/>
</g>
<!-- Node7 -->
<g id="node7" class="node">
<title>Node7</title>
<g id="a_node7"><a xlink:href="_m_l_c_l___double_linked_list__test_8c.html" target="_top" xlink:title=" ">
<polygon fill="none" stroke="black" points="483,-134.5 483,-164.5 642,-164.5 642,-134.5 483,-134.5"/>
<text text-anchor="start" x="491" y="-152.5" font-family="Helvetica,sans-Serif" font-size="10.00">src/Tests/MLCL_DoubleLinked</text>
<text text-anchor="middle" x="562.5" y="-141.5" font-family="Helvetica,sans-Serif" font-size="10.00">List_test.c</text>
</a>
</g>
</g>
<!-- Node2&#45;&gt;Node7 -->
<g id="edge6" class="edge">
<title>Node2&#45;&gt;Node7</title>
<path fill="none" stroke="midnightblue" d="M855.52,-203.55C794.61,-192.53 704.13,-176.14 639.85,-164.5"/>
<polygon fill="midnightblue" stroke="midnightblue" points="854.94,-207.01 865.41,-205.34 856.19,-200.12 854.94,-207.01"/>
</g>
<!-- Node8 -->
<g id="node8" class="node">
<title>Node8</title>
<g id="a_node8"><a xlink:href="_m_l_c_l___linked_list__test_8c.html" target="_top" xlink:title=" ">
<polygon fill="none" stroke="black" points="1283.5,-134.5 1283.5,-164.5 1425.5,-164.5 1425.5,-134.5 1283.5,-134.5"/>
<text text-anchor="start" x="1291.5" y="-152.5" font-family="Helvetica,sans-Serif" font-size="10.00">src/Tests/MLCL_LinkedList</text>
<text text-anchor="middle" x="1354.5" y="-141.5" font-family="Helvetica,sans-Serif" font-size="10.00">_test.c</text>
</a>
</g>
</g>
<!-- Node2&#45;&gt;Node8 -->
<g id="edge7" class="edge">
<title>Node2&#45;&gt;Node8</title>
<path fill="none" stroke="midnightblue" d="M987.8,-206.69C1058.63,-197.11 1174.16,-181.01 1273.5,-165 1276.74,-164.48 1280.06,-163.93 1283.41,-163.37"/>
<polygon fill="midnightblue" stroke="midnightblue" points="987.12,-203.25 977.68,-208.05 988.06,-210.18 987.12,-203.25"/>
</g>
<!-- Node9 -->
<g id="node9" class="node">
<title>Node9</title>
<g id="a_node9"><a xlink:href="_m_l_c_l___type_descriptor__test_8c.html" target="_top" xlink:title=" ">
<polygon fill="none" stroke="black" points="949.5,-134.5 949.5,-164.5 1115.5,-164.5 1115.5,-134.5 949.5,-134.5"/>
<text text-anchor="start" x="957.5" y="-152.5" font-family="Helvetica,sans-Serif" font-size="10.00">src/Tests/MLCL_TypeDescriptor</text>
<text text-anchor="middle" x="1032.5" y="-141.5" font-family="Helvetica,sans-Serif" font-size="10.00">_test.c</text>
</a>
</g>
</g>
<!-- Node2&#45;&gt;Node9 -->
<g id="edge8" class="edge">
<title>Node2&#45;&gt;Node9</title>
<path fill="none" stroke="midnightblue" d="M954.3,-196.3C971.66,-186.12 992.62,-173.85 1008.46,-164.58"/>
<polygon fill="midnightblue" stroke="midnightblue" points="952.45,-193.32 945.59,-201.4 955.98,-199.36 952.45,-193.32"/>
</g>
<!-- Node11 -->
<g id="node11" class="node">
<title>Node11</title>
<g id="a_node11"><a xlink:href="_m_l_c_l___binary_tree_8c.html" target="_top" xlink:title=" ">
<polygon fill="none" stroke="black" points="0,-140 0,-159 125,-159 125,-140 0,-140"/>
<text text-anchor="middle" x="62.5" y="-147" font-family="Helvetica,sans-Serif" font-size="10.00">src/MLCL_BinaryTree.c</text>
</a>
</g>
</g>
<!-- Node10&#45;&gt;Node11 -->
<g id="edge10" class="edge">
<title>Node10&#45;&gt;Node11</title>
<path fill="none" stroke="midnightblue" d="M170.38,-202.44C143.64,-189.57 103.53,-170.26 80.5,-159.17"/>
<polygon fill="midnightblue" stroke="midnightblue" points="169.04,-205.68 179.57,-206.87 172.08,-199.38 169.04,-205.68"/>
</g>
<!-- Node12 -->
<g id="node12" class="node">
<title>Node12</title>
<g id="a_node12"><a xlink:href="_m_l_c_l___binary_tree__test_8h.html" target="_top" xlink:title=" ">
<polygon fill="none" stroke="black" points="143,-134.5 143,-164.5 252,-164.5 252,-134.5 143,-134.5"/>
<text text-anchor="start" x="151" y="-152.5" font-family="Helvetica,sans-Serif" font-size="10.00">include/Tests/MLCL</text>
<text text-anchor="middle" x="197.5" y="-141.5" font-family="Helvetica,sans-Serif" font-size="10.00">_BinaryTree_test.h</text>
</a>
</g>
</g>
<!-- Node10&#45;&gt;Node12 -->
<g id="edge11" class="edge">
<title>Node10&#45;&gt;Node12</title>
<path fill="none" stroke="midnightblue" d="M197.5,-196.41C197.5,-186.22 197.5,-173.9 197.5,-164.59"/>
<polygon fill="midnightblue" stroke="midnightblue" points="194,-196.73 197.5,-206.73 201,-196.73 194,-196.73"/>
</g>
<!-- Node12&#45;&gt;Node4 -->
<g id="edge14" class="edge">
<title>Node12&#45;&gt;Node4</title>
<path fill="none" stroke="midnightblue" d="M253.99,-131.58C289.23,-121.02 334.07,-107.59 367.39,-97.61"/>
<polygon fill="midnightblue" stroke="midnightblue" points="252.89,-128.25 244.32,-134.48 254.9,-134.96 252.89,-128.25"/>
</g>
<!-- Node13 -->
<g id="node13" class="node">
<title>Node13</title>
<g id="a_node13"><a xlink:href="_m_l_c_l__all__tests_8h.html" target="_top" xlink:title=" ">
<polygon fill="none" stroke="black" points="143,-67.5 143,-97.5 252,-97.5 252,-67.5 143,-67.5"/>
<text text-anchor="start" x="151" y="-85.5" font-family="Helvetica,sans-Serif" font-size="10.00">include/Tests/MLCL</text>
<text text-anchor="middle" x="197.5" y="-74.5" font-family="Helvetica,sans-Serif" font-size="10.00">_all_tests.h</text>
</a>
</g>
</g>
<!-- Node12&#45;&gt;Node13 -->
<g id="edge12" class="edge">
<title>Node12&#45;&gt;Node13</title>
<path fill="none" stroke="midnightblue" d="M197.5,-124.11C197.5,-115.15 197.5,-105.32 197.5,-97.58"/>
<polygon fill="midnightblue" stroke="midnightblue" points="194,-124.4 197.5,-134.4 201,-124.4 194,-124.4"/>
</g>
<!-- Node14 -->
<g id="node14" class="node">
<title>Node14</title>
<g id="a_node14"><a xlink:href="_m_l_c_l__all__tests_8c.html" target="_top" xlink:title=" ">
<polygon fill="none" stroke="black" points="145,-0.5 145,-30.5 250,-30.5 250,-0.5 145,-0.5"/>
<text text-anchor="start" x="153" y="-18.5" font-family="Helvetica,sans-Serif" font-size="10.00">src/Tests/MLCL_all</text>
<text text-anchor="middle" x="197.5" y="-7.5" font-family="Helvetica,sans-Serif" font-size="10.00">_tests.c</text>
</a>
</g>
</g>
<!-- Node13&#45;&gt;Node14 -->
<g id="edge13" class="edge">
<title>Node13&#45;&gt;Node14</title>
<path fill="none" stroke="midnightblue" d="M197.5,-57.11C197.5,-48.15 197.5,-38.32 197.5,-30.58"/>
<polygon fill="midnightblue" stroke="midnightblue" points="194,-57.4 197.5,-67.4 201,-57.4 194,-57.4"/>
</g>
<!-- Node15&#45;&gt;Node7 -->
<g id="edge21" class="edge">
<title>Node15&#45;&gt;Node7</title>
<path fill="none" stroke="midnightblue" d="M562.5,-191.11C562.5,-182.15 562.5,-172.32 562.5,-164.58"/>
<polygon fill="midnightblue" stroke="midnightblue" points="559,-191.4 562.5,-201.4 566,-191.4 559,-191.4"/>
</g>
<!-- Node16 -->
<g id="node16" class="node">
<title>Node16</title>
<g id="a_node16"><a xlink:href="_m_l_c_l___circular_double_linked_list_8c.html" target="_top" xlink:title=" ">
<polygon fill="none" stroke="black" points="542,-67.5 542,-97.5 711,-97.5 711,-67.5 542,-67.5"/>
<text text-anchor="start" x="550" y="-85.5" font-family="Helvetica,sans-Serif" font-size="10.00">src/MLCL_CircularDoubleLinked</text>
<text text-anchor="middle" x="626.5" y="-74.5" font-family="Helvetica,sans-Serif" font-size="10.00">List.c</text>
</a>
</g>
</g>
<!-- Node15&#45;&gt;Node16 -->
<g id="edge16" class="edge">
<title>Node15&#45;&gt;Node16</title>
<path fill="none" stroke="midnightblue" d="M509.02,-196.82C495,-189.21 481.57,-178.85 473.5,-165 466.57,-153.09 465.43,-145.17 473.5,-134 489.56,-111.79 515.75,-99.18 541.95,-92.08"/>
<polygon fill="midnightblue" stroke="midnightblue" points="507.76,-200.1 518.27,-201.44 510.89,-193.84 507.76,-200.1"/>
</g>
<!-- Node17 -->
<g id="node17" class="node">
<title>Node17</title>
<g id="a_node17"><a xlink:href="_m_l_c_l___circular_double_linked_list_8h.html" target="_top" xlink:title=" ">
<polygon fill="none" stroke="black" points="697.5,-134.5 697.5,-164.5 855.5,-164.5 855.5,-134.5 697.5,-134.5"/>
<text text-anchor="start" x="705.5" y="-152.5" font-family="Helvetica,sans-Serif" font-size="10.00">include/MLCL_CircularDouble</text>
<text text-anchor="middle" x="776.5" y="-141.5" font-family="Helvetica,sans-Serif" font-size="10.00">LinkedList.h</text>
</a>
</g>
</g>
<!-- Node15&#45;&gt;Node17 -->
<g id="edge17" class="edge">
<title>Node15&#45;&gt;Node17</title>
<path fill="none" stroke="midnightblue" d="M618.65,-198.44C653.34,-187.91 697.32,-174.55 730.04,-164.61"/>
<polygon fill="midnightblue" stroke="midnightblue" points="617.22,-195.22 608.67,-201.48 619.26,-201.92 617.22,-195.22"/>
</g>
<!-- Node18 -->
<g id="node18" class="node">
<title>Node18</title>
<g id="a_node18"><a xlink:href="_m_l_c_l___double_linked_list_8c.html" target="_top" xlink:title=" ">
<polygon fill="none" stroke="black" points="270,-140 270,-159 427,-159 427,-140 270,-140"/>
<text text-anchor="middle" x="348.5" y="-147" font-family="Helvetica,sans-Serif" font-size="10.00">src/MLCL_DoubleLinkedList.c</text>
</a>
</g>
</g>
<!-- Node15&#45;&gt;Node18 -->
<g id="edge20" class="edge">
<title>Node15&#45;&gt;Node18</title>
<path fill="none" stroke="midnightblue" d="M506.56,-198.51C464.8,-185.83 409.48,-169.02 376.58,-159.03"/>
<polygon fill="midnightblue" stroke="midnightblue" points="505.74,-201.92 516.33,-201.48 507.78,-195.22 505.74,-201.92"/>
</g>
<!-- Node17&#45;&gt;Node5 -->
<g id="edge19" class="edge">
<title>Node17&#45;&gt;Node5</title>
<path fill="none" stroke="midnightblue" d="M794.48,-126.45C802.27,-116.9 811.15,-106 818.02,-97.58"/>
<polygon fill="midnightblue" stroke="midnightblue" points="791.61,-124.43 788,-134.4 797.03,-128.86 791.61,-124.43"/>
</g>
<!-- Node17&#45;&gt;Node16 -->
<g id="edge18" class="edge">
<title>Node17&#45;&gt;Node16</title>
<path fill="none" stroke="midnightblue" d="M734.75,-130.41C710.8,-120.03 681.18,-107.2 658.98,-97.58"/>
<polygon fill="midnightblue" stroke="midnightblue" points="733.39,-133.63 743.95,-134.4 736.17,-127.21 733.39,-133.63"/>
</g>
<!-- Node19&#45;&gt;Node8 -->
<g id="edge27" class="edge">
<title>Node19&#45;&gt;Node8</title>
<path fill="none" stroke="midnightblue" d="M1354.5,-196.41C1354.5,-186.22 1354.5,-173.9 1354.5,-164.59"/>
<polygon fill="midnightblue" stroke="midnightblue" points="1351,-196.73 1354.5,-206.73 1358,-196.73 1351,-196.73"/>
</g>
<!-- Node20 -->
<g id="node20" class="node">
<title>Node20</title>
<g id="a_node20"><a xlink:href="_m_l_c_l___circular_linked_list_8h.html" target="_top" xlink:title=" ">
<polygon fill="none" stroke="black" points="1444,-134.5 1444,-164.5 1599,-164.5 1599,-134.5 1444,-134.5"/>
<text text-anchor="start" x="1452" y="-152.5" font-family="Helvetica,sans-Serif" font-size="10.00">include/MLCL_CircularLinked</text>
<text text-anchor="middle" x="1521.5" y="-141.5" font-family="Helvetica,sans-Serif" font-size="10.00">List.h</text>
</a>
</g>
</g>
<!-- Node19&#45;&gt;Node20 -->
<g id="edge23" class="edge">
<title>Node19&#45;&gt;Node20</title>
<path fill="none" stroke="midnightblue" d="M1386.1,-203.2C1414.39,-192.19 1455.88,-176.04 1485.46,-164.53"/>
<polygon fill="midnightblue" stroke="midnightblue" points="1384.73,-199.98 1376.68,-206.87 1387.26,-206.5 1384.73,-199.98"/>
</g>
<!-- Node22 -->
<g id="node22" class="node">
<title>Node22</title>
<g id="a_node22"><a xlink:href="_m_l_c_l___linked_list_8c.html" target="_top" xlink:title=" ">
<polygon fill="none" stroke="black" points="1617.5,-140 1617.5,-159 1739.5,-159 1739.5,-140 1617.5,-140"/>
<text text-anchor="middle" x="1678.5" y="-147" font-family="Helvetica,sans-Serif" font-size="10.00">src/MLCL_LinkedList.c</text>
</a>
</g>
</g>
<!-- Node19&#45;&gt;Node22 -->
<g id="edge26" class="edge">
<title>Node19&#45;&gt;Node22</title>
<path fill="none" stroke="midnightblue" d="M1408.01,-204.99C1459.43,-194.86 1539.31,-179.04 1608.5,-165 1617.87,-163.1 1627.93,-161.03 1637.43,-159.07"/>
<polygon fill="midnightblue" stroke="midnightblue" points="1407.25,-201.57 1398.12,-206.94 1408.61,-208.44 1407.25,-201.57"/>
</g>
<!-- Node20&#45;&gt;Node6 -->
<g id="edge25" class="edge">
<title>Node20&#45;&gt;Node6</title>
<path fill="none" stroke="midnightblue" d="M1433.63,-133.1C1371.98,-122.3 1290.22,-107.98 1230.41,-97.5"/>
<polygon fill="midnightblue" stroke="midnightblue" points="1433.27,-136.6 1443.73,-134.87 1434.48,-129.7 1433.27,-136.6"/>
</g>
<!-- Node21 -->
<g id="node21" class="node">
<title>Node21</title>
<g id="a_node21"><a xlink:href="_m_l_c_l___circular_linked_list_8c.html" target="_top" xlink:title=" ">
<polygon fill="none" stroke="black" points="1441.5,-73 1441.5,-92 1601.5,-92 1601.5,-73 1441.5,-73"/>
<text text-anchor="middle" x="1521.5" y="-80" font-family="Helvetica,sans-Serif" font-size="10.00">src/MLCL_CircularLinkedList.c</text>
</a>
</g>
</g>
<!-- Node20&#45;&gt;Node21 -->
<g id="edge24" class="edge">
<title>Node20&#45;&gt;Node21</title>
<path fill="none" stroke="midnightblue" d="M1521.5,-124.25C1521.5,-113.02 1521.5,-100.38 1521.5,-92.19"/>
<polygon fill="midnightblue" stroke="midnightblue" points="1518,-124.4 1521.5,-134.4 1525,-124.4 1518,-124.4"/>
</g>
</g>
</svg>
