<?xml version="1.0" encoding="UTF-8" standalone="no"?>
<!DOCTYPE svg PUBLIC "-//W3C//DTD SVG 1.1//EN"
 "http://www.w3.org/Graphics/SVG/1.1/DTD/svg11.dtd">
<!-- Generated by graphviz version 2.43.0 (0)
 -->
<!-- Title: include/Lists/MLCL_ArrayList.h Pages: 1 -->
<svg width="1517pt" height="307pt"
 viewBox="0.00 0.00 1516.50 307.00" xmlns="http://www.w3.org/2000/svg" xmlns:xlink="http://www.w3.org/1999/xlink">
<g id="graph0" class="graph" transform="scale(1 1) rotate(0) translate(4 303)">
<title>include/Lists/MLCL_ArrayList.h</title>
<!-- Node1 -->
<g id="node1" class="node">
<title>Node1</title>
<g id="a_node1"><a xlink:title=" ">
<polygon fill="#bfbfbf" stroke="black" points="971.5,-268.5 971.5,-298.5 1078.5,-298.5 1078.5,-268.5 971.5,-268.5"/>
<text text-anchor="start" x="979.5" y="-286.5" font-family="Helvetica,sans-Serif" font-size="10.00">include/Lists/MLCL</text>
<text text-anchor="middle" x="1025" y="-275.5" font-family="Helvetica,sans-Serif" font-size="10.00">_ArrayList.h</text>
</a>
</g>
</g>
<!-- Node2 -->
<g id="node2" class="node">
<title>Node2</title>
<g id="a_node2"><a xlink:href="_m_l_c_l___array_list__test_8c.html" target="_top" xlink:title=" ">
<polygon fill="none" stroke="black" points="684.5,-201.5 684.5,-231.5 803.5,-231.5 803.5,-201.5 684.5,-201.5"/>
<text text-anchor="start" x="692.5" y="-219.5" font-family="Helvetica,sans-Serif" font-size="10.00">src/_Tests/Lists/MLCL</text>
<text text-anchor="middle" x="744" y="-208.5" font-family="Helvetica,sans-Serif" font-size="10.00">_ArrayList_test.c</text>
</a>
</g>
</g>
<!-- Node1&#45;&gt;Node2 -->
<g id="edge1" class="edge">
<title>Node1&#45;&gt;Node2</title>
<path fill="none" stroke="midnightblue" d="M961.65,-267.85C914.32,-256.9 850.06,-242.03 803.64,-231.3"/>
<polygon fill="midnightblue" stroke="midnightblue" points="960.95,-271.28 971.48,-270.12 962.53,-264.46 960.95,-271.28"/>
</g>
<!-- Node3 -->
<g id="node3" class="node">
<title>Node3</title>
<g id="a_node3"><a xlink:href="_m_l_c_l___list_8h.html" target="_top" xlink:title=" ">
<polygon fill="none" stroke="black" points="821.5,-201.5 821.5,-231.5 928.5,-231.5 928.5,-201.5 821.5,-201.5"/>
<text text-anchor="start" x="829.5" y="-219.5" font-family="Helvetica,sans-Serif" font-size="10.00">include/Lists/MLCL</text>
<text text-anchor="middle" x="875" y="-208.5" font-family="Helvetica,sans-Serif" font-size="10.00">_List.h</text>
</a>
</g>
</g>
<!-- Node1&#45;&gt;Node3 -->
<g id="edge2" class="edge">
<title>Node1&#45;&gt;Node3</title>
<path fill="none" stroke="midnightblue" d="M983.25,-264.41C959.3,-254.03 929.68,-241.2 907.48,-231.58"/>
<polygon fill="midnightblue" stroke="midnightblue" points="981.89,-267.63 992.45,-268.4 984.67,-261.21 981.89,-267.63"/>
</g>
<!-- Node18 -->
<g id="node18" class="node">
<title>Node18</title>
<g id="a_node18"><a xlink:href="_m_l_c_l___binary_heap_8h.html" target="_top" xlink:title=" ">
<polygon fill="none" stroke="black" points="1103,-201.5 1103,-231.5 1249,-231.5 1249,-201.5 1103,-201.5"/>
<text text-anchor="start" x="1111" y="-219.5" font-family="Helvetica,sans-Serif" font-size="10.00">include/Heap/MLCL_Binary</text>
<text text-anchor="middle" x="1176" y="-208.5" font-family="Helvetica,sans-Serif" font-size="10.00">Heap.h</text>
</a>
</g>
</g>
<!-- Node1&#45;&gt;Node18 -->
<g id="edge17" class="edge">
<title>Node1&#45;&gt;Node18</title>
<path fill="none" stroke="midnightblue" d="M1067.03,-264.41C1091.14,-254.03 1120.95,-241.2 1143.3,-231.58"/>
<polygon fill="midnightblue" stroke="midnightblue" points="1065.57,-261.23 1057.76,-268.4 1068.33,-267.66 1065.57,-261.23"/>
</g>
<!-- Node24 -->
<g id="node24" class="node">
<title>Node24</title>
<g id="a_node24"><a xlink:href="_m_l_c_l___array_list_8c.html" target="_top" xlink:title=" ">
<polygon fill="none" stroke="black" points="1267.5,-207 1267.5,-226 1410.5,-226 1410.5,-207 1267.5,-207"/>
<text text-anchor="middle" x="1339" y="-214" font-family="Helvetica,sans-Serif" font-size="10.00">src/Lists/MLCL_ArrayList.c</text>
</a>
</g>
</g>
<!-- Node1&#45;&gt;Node24 -->
<g id="edge23" class="edge">
<title>Node1&#45;&gt;Node24</title>
<path fill="none" stroke="midnightblue" d="M1088.74,-269.3C1151.13,-256.39 1244.33,-237.1 1297.63,-226.06"/>
<polygon fill="midnightblue" stroke="midnightblue" points="1087.7,-265.95 1078.62,-271.4 1089.12,-272.8 1087.7,-265.95"/>
</g>
<!-- Node4 -->
<g id="node4" class="node">
<title>Node4</title>
<g id="a_node4"><a xlink:href="_m_l_c_l___list__test_8c.html" target="_top" xlink:title=" ">
<polygon fill="none" stroke="black" points="102.5,-134.5 102.5,-164.5 221.5,-164.5 221.5,-134.5 102.5,-134.5"/>
<text text-anchor="start" x="110.5" y="-152.5" font-family="Helvetica,sans-Serif" font-size="10.00">src/_Tests/Lists/MLCL</text>
<text text-anchor="middle" x="162" y="-141.5" font-family="Helvetica,sans-Serif" font-size="10.00">_List_test.c</text>
</a>
</g>
</g>
<!-- Node3&#45;&gt;Node4 -->
<g id="edge3" class="edge">
<title>Node3&#45;&gt;Node4</title>
<path fill="none" stroke="midnightblue" d="M811.35,-200.92C554.81,-164.27 484.56,-199.3 231,-165 227.97,-164.59 224.87,-164.12 221.75,-163.61"/>
<polygon fill="midnightblue" stroke="midnightblue" points="810.94,-204.4 821.34,-202.37 811.94,-197.47 810.94,-204.4"/>
</g>
<!-- Node5 -->
<g id="node5" class="node">
<title>Node5</title>
<g id="a_node5"><a xlink:href="_m_l_c_l___queue_8h.html" target="_top" xlink:title=" ">
<polygon fill="none" stroke="black" points="240,-134.5 240,-164.5 356,-164.5 356,-134.5 240,-134.5"/>
<text text-anchor="start" x="248" y="-152.5" font-family="Helvetica,sans-Serif" font-size="10.00">include/Queue/MLCL</text>
<text text-anchor="middle" x="298" y="-141.5" font-family="Helvetica,sans-Serif" font-size="10.00">_Queue.h</text>
</a>
</g>
</g>
<!-- Node3&#45;&gt;Node5 -->
<g id="edge4" class="edge">
<title>Node3&#45;&gt;Node5</title>
<path fill="none" stroke="midnightblue" d="M811.33,-201.33C754.93,-195.26 478.89,-168.22 356.48,-156.23"/>
<polygon fill="midnightblue" stroke="midnightblue" points="810.98,-204.81 821.32,-202.49 811.79,-197.86 810.98,-204.81"/>
</g>
<!-- Node8 -->
<g id="node8" class="node">
<title>Node8</title>
<g id="a_node8"><a xlink:href="_m_l_c_l___stack_8h.html" target="_top" xlink:title=" ">
<polygon fill="none" stroke="black" points="455.5,-134.5 455.5,-164.5 566.5,-164.5 566.5,-134.5 455.5,-134.5"/>
<text text-anchor="start" x="463.5" y="-152.5" font-family="Helvetica,sans-Serif" font-size="10.00">include/Stack/MLCL</text>
<text text-anchor="middle" x="511" y="-141.5" font-family="Helvetica,sans-Serif" font-size="10.00">_Stack.h</text>
</a>
</g>
</g>
<!-- Node3&#45;&gt;Node8 -->
<g id="edge7" class="edge">
<title>Node3&#45;&gt;Node8</title>
<path fill="none" stroke="midnightblue" d="M811.35,-200.74C720.4,-182.74 625.18,-167.59 566.58,-158.7"/>
<polygon fill="midnightblue" stroke="midnightblue" points="810.79,-204.19 821.28,-202.71 812.15,-197.33 810.79,-204.19"/>
</g>
<!-- Node11 -->
<g id="node11" class="node">
<title>Node11</title>
<g id="a_node11"><a xlink:href="_m_l_c_l___b_k_tree_8h.html" target="_top" xlink:title=" ">
<polygon fill="none" stroke="black" points="748,-134.5 748,-164.5 858,-164.5 858,-134.5 748,-134.5"/>
<text text-anchor="start" x="756" y="-152.5" font-family="Helvetica,sans-Serif" font-size="10.00">include/Trees/MLCL</text>
<text text-anchor="middle" x="803" y="-141.5" font-family="Helvetica,sans-Serif" font-size="10.00">_BKTree.h</text>
</a>
</g>
</g>
<!-- Node3&#45;&gt;Node11 -->
<g id="edge10" class="edge">
<title>Node3&#45;&gt;Node11</title>
<path fill="none" stroke="midnightblue" d="M851.85,-194.6C840.98,-184.78 828.3,-173.34 818.59,-164.58"/>
<polygon fill="midnightblue" stroke="midnightblue" points="849.61,-197.29 859.38,-201.4 854.3,-192.1 849.61,-197.29"/>
</g>
<!-- Node14 -->
<g id="node14" class="node">
<title>Node14</title>
<g id="a_node14"><a xlink:href="_m_l_c_l___ternary_search_tree_8h.html" target="_top" xlink:title=" ">
<polygon fill="none" stroke="black" points="888,-134.5 888,-164.5 1008,-164.5 1008,-134.5 888,-134.5"/>
<text text-anchor="start" x="896" y="-152.5" font-family="Helvetica,sans-Serif" font-size="10.00">include/Trees/MLCL</text>
<text text-anchor="middle" x="948" y="-141.5" font-family="Helvetica,sans-Serif" font-size="10.00">_TernarySearchTree.h</text>
</a>
</g>
</g>
<!-- Node3&#45;&gt;Node14 -->
<g id="edge13" class="edge">
<title>Node3&#45;&gt;Node14</title>
<path fill="none" stroke="midnightblue" d="M898.47,-194.6C909.5,-184.78 922.34,-173.34 932.19,-164.58"/>
<polygon fill="midnightblue" stroke="midnightblue" points="895.98,-192.13 890.84,-201.4 900.64,-197.36 895.98,-192.13"/>
</g>
<!-- Node17 -->
<g id="node17" class="node">
<title>Node17</title>
<g id="a_node17"><a xlink:href="_m_l_c_l___list_8c.html" target="_top" xlink:title=" ">
<polygon fill="none" stroke="black" points="1026,-140 1026,-159 1142,-159 1142,-140 1026,-140"/>
<text text-anchor="middle" x="1084" y="-147" font-family="Helvetica,sans-Serif" font-size="10.00">src/Lists/MLCL_List.c</text>
</a>
</g>
</g>
<!-- Node3&#45;&gt;Node17 -->
<g id="edge16" class="edge">
<title>Node3&#45;&gt;Node17</title>
<path fill="none" stroke="midnightblue" d="M929.89,-198.43C970.64,-185.75 1024.51,-169 1056.58,-159.03"/>
<polygon fill="midnightblue" stroke="midnightblue" points="928.6,-195.16 920.09,-201.48 930.68,-201.85 928.6,-195.16"/>
</g>
<!-- Node6 -->
<g id="node6" class="node">
<title>Node6</title>
<g id="a_node6"><a xlink:href="_m_l_c_l___queue__test_8c.html" target="_top" xlink:title=" ">
<polygon fill="none" stroke="black" points="0,-67.5 0,-97.5 128,-97.5 128,-67.5 0,-67.5"/>
<text text-anchor="start" x="8" y="-85.5" font-family="Helvetica,sans-Serif" font-size="10.00">src/_Tests/Queue/MLCL</text>
<text text-anchor="middle" x="64" y="-74.5" font-family="Helvetica,sans-Serif" font-size="10.00">_Queue_test.c</text>
</a>
</g>
</g>
<!-- Node5&#45;&gt;Node6 -->
<g id="edge5" class="edge">
<title>Node5&#45;&gt;Node6</title>
<path fill="none" stroke="midnightblue" d="M237.57,-131.71C199.49,-121.14 150.89,-107.63 114.8,-97.61"/>
<polygon fill="midnightblue" stroke="midnightblue" points="236.94,-135.17 247.51,-134.48 238.82,-128.43 236.94,-135.17"/>
</g>
<!-- Node7 -->
<g id="node7" class="node">
<title>Node7</title>
<g id="a_node7"><a xlink:href="_m_l_c_l___queue_8c.html" target="_top" xlink:title=" ">
<polygon fill="none" stroke="black" points="146,-73 146,-92 286,-92 286,-73 146,-73"/>
<text text-anchor="middle" x="216" y="-80" font-family="Helvetica,sans-Serif" font-size="10.00">src/Queue/MLCL_Queue.c</text>
</a>
</g>
</g>
<!-- Node5&#45;&gt;Node7 -->
<g id="edge6" class="edge">
<title>Node5&#45;&gt;Node7</title>
<path fill="none" stroke="midnightblue" d="M272.15,-128.01C256.93,-115.94 238.46,-101.3 226.97,-92.19"/>
<polygon fill="midnightblue" stroke="midnightblue" points="270.2,-130.93 280.21,-134.4 274.54,-125.44 270.2,-130.93"/>
</g>
<!-- Node9 -->
<g id="node9" class="node">
<title>Node9</title>
<g id="a_node9"><a xlink:href="_m_l_c_l___stack__test_8c.html" target="_top" xlink:title=" ">
<polygon fill="none" stroke="black" points="304.5,-67.5 304.5,-97.5 427.5,-97.5 427.5,-67.5 304.5,-67.5"/>
<text text-anchor="start" x="312.5" y="-85.5" font-family="Helvetica,sans-Serif" font-size="10.00">src/_Tests/Stack/MLCL</text>
<text text-anchor="middle" x="366" y="-74.5" font-family="Helvetica,sans-Serif" font-size="10.00">_Stack_test.c</text>
</a>
</g>
</g>
<!-- Node8&#45;&gt;Node9 -->
<g id="edge8" class="edge">
<title>Node8&#45;&gt;Node9</title>
<path fill="none" stroke="midnightblue" d="M470.33,-130.27C447.24,-119.92 418.76,-107.15 397.4,-97.58"/>
<polygon fill="midnightblue" stroke="midnightblue" points="468.98,-133.5 479.54,-134.4 471.84,-127.11 468.98,-133.5"/>
</g>
<!-- Node10 -->
<g id="node10" class="node">
<title>Node10</title>
<g id="a_node10"><a xlink:href="_m_l_c_l___stack_8c.html" target="_top" xlink:title=" ">
<polygon fill="none" stroke="black" points="445.5,-73 445.5,-92 576.5,-92 576.5,-73 445.5,-73"/>
<text text-anchor="middle" x="511" y="-80" font-family="Helvetica,sans-Serif" font-size="10.00">src/Stack/MLCL_Stack.c</text>
</a>
</g>
</g>
<!-- Node8&#45;&gt;Node10 -->
<g id="edge9" class="edge">
<title>Node8&#45;&gt;Node10</title>
<path fill="none" stroke="midnightblue" d="M511,-124.25C511,-113.02 511,-100.38 511,-92.19"/>
<polygon fill="midnightblue" stroke="midnightblue" points="507.5,-124.4 511,-134.4 514.5,-124.4 507.5,-124.4"/>
</g>
<!-- Node12 -->
<g id="node12" class="node">
<title>Node12</title>
<g id="a_node12"><a xlink:href="_m_l_c_l___b_k_tree__test_8c.html" target="_top" xlink:title=" ">
<polygon fill="none" stroke="black" points="595,-67.5 595,-97.5 717,-97.5 717,-67.5 595,-67.5"/>
<text text-anchor="start" x="603" y="-85.5" font-family="Helvetica,sans-Serif" font-size="10.00">src/_Tests/Trees/MLCL</text>
<text text-anchor="middle" x="656" y="-74.5" font-family="Helvetica,sans-Serif" font-size="10.00">_BKTree_test.c</text>
</a>
</g>
</g>
<!-- Node11&#45;&gt;Node12 -->
<g id="edge11" class="edge">
<title>Node11&#45;&gt;Node12</title>
<path fill="none" stroke="midnightblue" d="M761.77,-130.27C738.36,-119.92 709.49,-107.15 687.83,-97.58"/>
<polygon fill="midnightblue" stroke="midnightblue" points="760.54,-133.55 771.1,-134.4 763.37,-127.15 760.54,-133.55"/>
</g>
<!-- Node13 -->
<g id="node13" class="node">
<title>Node13</title>
<g id="a_node13"><a xlink:href="_m_l_c_l___b_k_tree_8c.html" target="_top" xlink:title=" ">
<polygon fill="none" stroke="black" points="735.5,-73 735.5,-92 870.5,-92 870.5,-73 735.5,-73"/>
<text text-anchor="middle" x="803" y="-80" font-family="Helvetica,sans-Serif" font-size="10.00">src/Trees/MLCL_BKTree.c</text>
</a>
</g>
</g>
<!-- Node11&#45;&gt;Node13 -->
<g id="edge12" class="edge">
<title>Node11&#45;&gt;Node13</title>
<path fill="none" stroke="midnightblue" d="M803,-124.25C803,-113.02 803,-100.38 803,-92.19"/>
<polygon fill="midnightblue" stroke="midnightblue" points="799.5,-124.4 803,-134.4 806.5,-124.4 799.5,-124.4"/>
</g>
<!-- Node15 -->
<g id="node15" class="node">
<title>Node15</title>
<g id="a_node15"><a xlink:href="_m_l_c_l___ternary_search_tree__test_8c.html" target="_top" xlink:title=" ">
<polygon fill="none" stroke="black" points="888.5,-67.5 888.5,-97.5 1031.5,-97.5 1031.5,-67.5 888.5,-67.5"/>
<text text-anchor="start" x="896.5" y="-85.5" font-family="Helvetica,sans-Serif" font-size="10.00">src/_Tests/Trees/MLCL</text>
<text text-anchor="middle" x="960" y="-74.5" font-family="Helvetica,sans-Serif" font-size="10.00">_TernarySearchTree_test.c</text>
</a>
</g>
</g>
<!-- Node14&#45;&gt;Node15 -->
<g id="edge14" class="edge">
<title>Node14&#45;&gt;Node15</title>
<path fill="none" stroke="midnightblue" d="M952.45,-124.4C954.12,-115.37 955.96,-105.41 957.4,-97.58"/>
<polygon fill="midnightblue" stroke="midnightblue" points="948.98,-123.93 950.6,-134.4 955.86,-125.2 948.98,-123.93"/>
</g>
<!-- Node16 -->
<g id="node16" class="node">
<title>Node16</title>
<g id="a_node16"><a xlink:href="_m_l_c_l___ternary_search_tree_8c.html" target="_top" xlink:title=" ">
<polygon fill="none" stroke="black" points="1049.5,-67.5 1049.5,-97.5 1212.5,-97.5 1212.5,-67.5 1049.5,-67.5"/>
<text text-anchor="start" x="1057.5" y="-85.5" font-family="Helvetica,sans-Serif" font-size="10.00">src/Trees/MLCL_TernarySearch</text>
<text text-anchor="middle" x="1131" y="-74.5" font-family="Helvetica,sans-Serif" font-size="10.00">Tree.c</text>
</a>
</g>
</g>
<!-- Node14&#45;&gt;Node16 -->
<g id="edge15" class="edge">
<title>Node14&#45;&gt;Node16</title>
<path fill="none" stroke="midnightblue" d="M997.4,-130.96C1026.87,-120.48 1063.81,-107.37 1091.37,-97.58"/>
<polygon fill="midnightblue" stroke="midnightblue" points="995.96,-127.75 987.71,-134.4 998.3,-134.35 995.96,-127.75"/>
</g>
<!-- Node19 -->
<g id="node19" class="node">
<title>Node19</title>
<g id="a_node19"><a xlink:href="_m_l_c_l___binary_heap__test_8h.html" target="_top" xlink:title=" ">
<polygon fill="none" stroke="black" points="1190.5,-134.5 1190.5,-164.5 1331.5,-164.5 1331.5,-134.5 1190.5,-134.5"/>
<text text-anchor="start" x="1198.5" y="-152.5" font-family="Helvetica,sans-Serif" font-size="10.00">include/_Tests/Heap</text>
<text text-anchor="middle" x="1261" y="-141.5" font-family="Helvetica,sans-Serif" font-size="10.00">/MLCL_BinaryHeap_test.h</text>
</a>
</g>
</g>
<!-- Node18&#45;&gt;Node19 -->
<g id="edge18" class="edge">
<title>Node18&#45;&gt;Node19</title>
<path fill="none" stroke="midnightblue" d="M1202.59,-195.17C1215.59,-185.23 1230.9,-173.51 1242.59,-164.58"/>
<polygon fill="midnightblue" stroke="midnightblue" points="1200.26,-192.54 1194.44,-201.4 1204.51,-198.1 1200.26,-192.54"/>
</g>
<!-- Node23 -->
<g id="node23" class="node">
<title>Node23</title>
<g id="a_node23"><a xlink:href="_m_l_c_l___binary_heap_8c.html" target="_top" xlink:title=" ">
<polygon fill="none" stroke="black" points="1349.5,-140 1349.5,-159 1508.5,-159 1508.5,-140 1349.5,-140"/>
<text text-anchor="middle" x="1429" y="-147" font-family="Helvetica,sans-Serif" font-size="10.00">src/Heap/MLCL_BinaryHeap.c</text>
</a>
</g>
</g>
<!-- Node18&#45;&gt;Node23 -->
<g id="edge22" class="edge">
<title>Node18&#45;&gt;Node23</title>
<path fill="none" stroke="midnightblue" d="M1240.57,-198.91C1290.12,-186.18 1356.5,-169.13 1395.8,-159.03"/>
<polygon fill="midnightblue" stroke="midnightblue" points="1239.4,-195.6 1230.59,-201.48 1241.14,-202.38 1239.4,-195.6"/>
</g>
<!-- Node20 -->
<g id="node20" class="node">
<title>Node20</title>
<g id="a_node20"><a xlink:href="_m_l_c_l___binary_heap__test_8c.html" target="_top" xlink:title=" ">
<polygon fill="none" stroke="black" points="1231,-67.5 1231,-97.5 1353,-97.5 1353,-67.5 1231,-67.5"/>
<text text-anchor="start" x="1239" y="-85.5" font-family="Helvetica,sans-Serif" font-size="10.00">src/_Tests/Heap/MLCL</text>
<text text-anchor="middle" x="1292" y="-74.5" font-family="Helvetica,sans-Serif" font-size="10.00">_BinaryHeap_test.c</text>
</a>
</g>
</g>
<!-- Node19&#45;&gt;Node20 -->
<g id="edge19" class="edge">
<title>Node19&#45;&gt;Node20</title>
<path fill="none" stroke="midnightblue" d="M1272.07,-125.28C1276.49,-116.02 1281.43,-105.66 1285.29,-97.58"/>
<polygon fill="midnightblue" stroke="midnightblue" points="1268.87,-123.86 1267.73,-134.4 1275.19,-126.88 1268.87,-123.86"/>
</g>
<!-- Node21 -->
<g id="node21" class="node">
<title>Node21</title>
<g id="a_node21"><a xlink:href="_m_l_c_l__all__tests_8h.html" target="_top" xlink:title=" ">
<polygon fill="none" stroke="black" points="1371,-67.5 1371,-97.5 1485,-97.5 1485,-67.5 1371,-67.5"/>
<text text-anchor="start" x="1379" y="-85.5" font-family="Helvetica,sans-Serif" font-size="10.00">include/_Tests/MLCL</text>
<text text-anchor="middle" x="1428" y="-74.5" font-family="Helvetica,sans-Serif" font-size="10.00">_all_tests.h</text>
</a>
</g>
</g>
<!-- Node19&#45;&gt;Node21 -->
<g id="edge20" class="edge">
<title>Node19&#45;&gt;Node21</title>
<path fill="none" stroke="midnightblue" d="M1306.78,-130.68C1333.56,-120.26 1366.9,-107.28 1391.83,-97.58"/>
<polygon fill="midnightblue" stroke="midnightblue" points="1305.29,-127.51 1297.24,-134.4 1307.83,-134.03 1305.29,-127.51"/>
</g>
<!-- Node22 -->
<g id="node22" class="node">
<title>Node22</title>
<g id="a_node22"><a xlink:href="_m_l_c_l__all__tests_8c.html" target="_top" xlink:title=" ">
<polygon fill="none" stroke="black" points="1373,-0.5 1373,-30.5 1483,-30.5 1483,-0.5 1373,-0.5"/>
<text text-anchor="start" x="1381" y="-18.5" font-family="Helvetica,sans-Serif" font-size="10.00">src/_Tests/MLCL_all</text>
<text text-anchor="middle" x="1428" y="-7.5" font-family="Helvetica,sans-Serif" font-size="10.00">_tests.c</text>
</a>
</g>
</g>
<!-- Node21&#45;&gt;Node22 -->
<g id="edge21" class="edge">
<title>Node21&#45;&gt;Node22</title>
<path fill="none" stroke="midnightblue" d="M1428,-57.11C1428,-48.15 1428,-38.32 1428,-30.58"/>
<polygon fill="midnightblue" stroke="midnightblue" points="1424.5,-57.4 1428,-67.4 1431.5,-57.4 1424.5,-57.4"/>
</g>
</g>
</svg>
