<?xml version="1.0" encoding="UTF-8" standalone="no"?>
<!DOCTYPE svg PUBLIC "-//W3C//DTD SVG 1.1//EN"
 "http://www.w3.org/Graphics/SVG/1.1/DTD/svg11.dtd">
<!-- Generated by graphviz version 2.43.0 (0)
 -->
<!-- Title: include/MLCL_CircularDoubleLinkedList.h Pages: 1 -->
<svg width="233pt" height="207pt"
 viewBox="0.00 0.00 233.00 207.00" xmlns="http://www.w3.org/2000/svg" xmlns:xlink="http://www.w3.org/1999/xlink">
<g id="graph0" class="graph" transform="scale(1 1) rotate(0) translate(4 203)">
<title>include/MLCL_CircularDoubleLinkedList.h</title>
<!-- Node1 -->
<g id="node1" class="node">
<title>Node1</title>
<g id="a_node1"><a xlink:title=" ">
<polygon fill="#bfbfbf" stroke="black" points="0,-168.5 0,-198.5 158,-198.5 158,-168.5 0,-168.5"/>
<text text-anchor="start" x="8" y="-186.5" font-family="Helvetica,sans-Serif" font-size="10.00">include/MLCL_CircularDouble</text>
<text text-anchor="middle" x="79" y="-175.5" font-family="Helvetica,sans-Serif" font-size="10.00">LinkedList.h</text>
</a>
</g>
</g>
<!-- Node2 -->
<g id="node2" class="node">
<title>Node2</title>
<g id="a_node2"><a xlink:href="_m_l_c_l___double_linked_list_8h.html" target="_top" xlink:title=" ">
<polygon fill="none" stroke="black" points="9,-112.5 9,-131.5 149,-131.5 149,-112.5 9,-112.5"/>
<text text-anchor="middle" x="79" y="-119.5" font-family="Helvetica,sans-Serif" font-size="10.00">MLCL_DoubleLinkedList.h</text>
</a>
</g>
</g>
<!-- Node1&#45;&gt;Node2 -->
<g id="edge1" class="edge">
<title>Node1&#45;&gt;Node2</title>
<path fill="none" stroke="midnightblue" d="M79,-168.4C79,-160.47 79,-150.46 79,-141.86"/>
<polygon fill="midnightblue" stroke="midnightblue" points="82.5,-141.66 79,-131.66 75.5,-141.66 82.5,-141.66"/>
</g>
<!-- Node3 -->
<g id="node3" class="node">
<title>Node3</title>
<g id="a_node3"><a xlink:title=" ">
<polygon fill="none" stroke="#bfbfbf" points="17.5,-0.5 17.5,-19.5 70.5,-19.5 70.5,-0.5 17.5,-0.5"/>
<text text-anchor="middle" x="44" y="-7.5" font-family="Helvetica,sans-Serif" font-size="10.00">stdlib.h</text>
</a>
</g>
</g>
<!-- Node2&#45;&gt;Node3 -->
<g id="edge2" class="edge">
<title>Node2&#45;&gt;Node3</title>
<path fill="none" stroke="midnightblue" d="M68.01,-112.37C58.55,-104.17 45.56,-90.92 40,-76 34.44,-61.1 36.2,-42.96 38.91,-29.63"/>
<polygon fill="midnightblue" stroke="midnightblue" points="42.35,-30.28 41.27,-19.74 35.54,-28.66 42.35,-30.28"/>
</g>
<!-- Node4 -->
<g id="node4" class="node">
<title>Node4</title>
<g id="a_node4"><a xlink:href="_m_l_c_l___type_descriptor_8h.html" target="_top" xlink:title=" ">
<polygon fill="none" stroke="black" points="49,-56.5 49,-75.5 225,-75.5 225,-56.5 49,-56.5"/>
<text text-anchor="middle" x="137" y="-63.5" font-family="Helvetica,sans-Serif" font-size="10.00">../include/MLCL_TypeDescriptor.h</text>
</a>
</g>
</g>
<!-- Node2&#45;&gt;Node4 -->
<g id="edge3" class="edge">
<title>Node2&#45;&gt;Node4</title>
<path fill="none" stroke="midnightblue" d="M88.32,-112.32C96.89,-104.34 109.81,-92.31 120.19,-82.65"/>
<polygon fill="midnightblue" stroke="midnightblue" points="122.58,-85.21 127.51,-75.83 117.81,-80.09 122.58,-85.21"/>
</g>
<!-- Node4&#45;&gt;Node3 -->
<g id="edge4" class="edge">
<title>Node4&#45;&gt;Node3</title>
<path fill="none" stroke="midnightblue" d="M122.06,-56.32C107.41,-47.82 84.87,-34.73 67.76,-24.8"/>
<polygon fill="midnightblue" stroke="midnightblue" points="69.31,-21.65 58.9,-19.65 65.8,-27.7 69.31,-21.65"/>
</g>
<!-- Node5 -->
<g id="node5" class="node">
<title>Node5</title>
<g id="a_node5"><a xlink:title=" ">
<polygon fill="none" stroke="#bfbfbf" points="112,-0.5 112,-19.5 162,-19.5 162,-0.5 112,-0.5"/>
<text text-anchor="middle" x="137" y="-7.5" font-family="Helvetica,sans-Serif" font-size="10.00">stdio.h</text>
</a>
</g>
</g>
<!-- Node4&#45;&gt;Node5 -->
<g id="edge5" class="edge">
<title>Node4&#45;&gt;Node5</title>
<path fill="none" stroke="midnightblue" d="M137,-56.08C137,-49.01 137,-38.86 137,-29.99"/>
<polygon fill="midnightblue" stroke="midnightblue" points="140.5,-29.75 137,-19.75 133.5,-29.75 140.5,-29.75"/>
</g>
</g>
</svg>
