<?xml version="1.0" encoding="UTF-8" standalone="no"?>
<!DOCTYPE svg PUBLIC "-//W3C//DTD SVG 1.1//EN"
 "http://www.w3.org/Graphics/SVG/1.1/DTD/svg11.dtd">
<!-- Generated by graphviz version 2.43.0 (0)
 -->
<!-- Title: include/MLCL_CircularLinkedList.h Pages: 1 -->
<svg width="348pt" height="106pt"
 viewBox="0.00 0.00 348.00 106.00" xmlns="http://www.w3.org/2000/svg" xmlns:xlink="http://www.w3.org/1999/xlink">
<g id="graph0" class="graph" transform="scale(1 1) rotate(0) translate(4 102)">
<title>include/MLCL_CircularLinkedList.h</title>
<!-- Node1 -->
<g id="node1" class="node">
<title>Node1</title>
<g id="a_node1"><a xlink:title=" ">
<polygon fill="#bfbfbf" stroke="black" points="91.5,-67.5 91.5,-97.5 246.5,-97.5 246.5,-67.5 91.5,-67.5"/>
<text text-anchor="start" x="99.5" y="-85.5" font-family="Helvetica,sans-Serif" font-size="10.00">include/MLCL_CircularLinked</text>
<text text-anchor="middle" x="169" y="-74.5" font-family="Helvetica,sans-Serif" font-size="10.00">List.h</text>
</a>
</g>
</g>
<!-- Node2 -->
<g id="node2" class="node">
<title>Node2</title>
<g id="a_node2"><a xlink:href="_m_l_c_l___circular_linked_list_8c.html" target="_top" xlink:title=" ">
<polygon fill="none" stroke="black" points="0,-6 0,-25 160,-25 160,-6 0,-6"/>
<text text-anchor="middle" x="80" y="-13" font-family="Helvetica,sans-Serif" font-size="10.00">src/MLCL_CircularLinkedList.c</text>
</a>
</g>
</g>
<!-- Node1&#45;&gt;Node2 -->
<g id="edge1" class="edge">
<title>Node1&#45;&gt;Node2</title>
<path fill="none" stroke="midnightblue" d="M141.35,-61.31C124.64,-49.1 104.2,-34.18 91.65,-25.01"/>
<polygon fill="midnightblue" stroke="midnightblue" points="139.55,-64.32 149.69,-67.4 143.68,-58.67 139.55,-64.32"/>
</g>
<!-- Node3 -->
<g id="node3" class="node">
<title>Node3</title>
<g id="a_node3"><a xlink:href="_m_l_c_l___circular_linked_list__test_8c.html" target="_top" xlink:title=" ">
<polygon fill="none" stroke="black" points="178,-0.5 178,-30.5 340,-30.5 340,-0.5 178,-0.5"/>
<text text-anchor="start" x="186" y="-18.5" font-family="Helvetica,sans-Serif" font-size="10.00">src/Tests/MLCL_CircularLinked</text>
<text text-anchor="middle" x="259" y="-7.5" font-family="Helvetica,sans-Serif" font-size="10.00">List_test.c</text>
</a>
</g>
</g>
<!-- Node1&#45;&gt;Node3 -->
<g id="edge2" class="edge">
<title>Node1&#45;&gt;Node3</title>
<path fill="none" stroke="midnightblue" d="M196.76,-61.45C210.61,-51.45 227.02,-39.6 239.51,-30.58"/>
<polygon fill="midnightblue" stroke="midnightblue" points="194.59,-58.7 188.53,-67.4 198.68,-64.38 194.59,-58.7"/>
</g>
</g>
</svg>
