<?xml version="1.0" encoding="UTF-8" standalone="no"?>
<!DOCTYPE svg PUBLIC "-//W3C//DTD SVG 1.1//EN"
 "http://www.w3.org/Graphics/SVG/1.1/DTD/svg11.dtd">
<!-- Generated by graphviz version 2.43.0 (0)
 -->
<!-- Title: include/MLCL_TypeDescriptor.h Pages: 1 -->
<svg width="2049pt" height="318pt"
 viewBox="0.00 0.00 2048.50 318.00" xmlns="http://www.w3.org/2000/svg" xmlns:xlink="http://www.w3.org/1999/xlink">
<g id="graph0" class="graph" transform="scale(1 1) rotate(0) translate(4 314)">
<title>include/MLCL_TypeDescriptor.h</title>
<!-- Node1 -->
<g id="node1" class="node">
<title>Node1</title>
<g id="a_node1"><a xlink:title=" ">
<polygon fill="#bfbfbf" stroke="black" points="1318.5,-290.5 1318.5,-309.5 1485.5,-309.5 1485.5,-290.5 1318.5,-290.5"/>
<text text-anchor="middle" x="1402" y="-297.5" font-family="Helvetica,sans-Serif" font-size="10.00">include/MLCL_TypeDescriptor.h</text>
</a>
</g>
</g>
<!-- Node2 -->
<g id="node2" class="node">
<title>Node2</title>
<g id="a_node2"><a xlink:href="_m_l_c_l__basic__types_8h.html" target="_top" xlink:title=" ">
<polygon fill="none" stroke="black" points="863,-151 863,-181 975,-181 975,-151 863,-151"/>
<text text-anchor="start" x="871" y="-169" font-family="Helvetica,sans-Serif" font-size="10.00">include/MLCL_basic</text>
<text text-anchor="middle" x="919" y="-158" font-family="Helvetica,sans-Serif" font-size="10.00">_types.h</text>
</a>
</g>
</g>
<!-- Node1&#45;&gt;Node2 -->
<g id="edge1" class="edge">
<title>Node1&#45;&gt;Node2</title>
<path fill="none" stroke="midnightblue" d="M1308.46,-290.49C1251.93,-283.82 1178.89,-272.49 1116,-254 1052.15,-235.23 981.85,-200.5 944.94,-181.08"/>
<polygon fill="midnightblue" stroke="midnightblue" points="1308.12,-293.97 1318.45,-291.64 1308.92,-287.02 1308.12,-293.97"/>
</g>
<!-- Node8 -->
<g id="node8" class="node">
<title>Node8</title>
<g id="a_node8"><a xlink:href="_m_l_c_l___a_v_l_tree__test_8c.html" target="_top" xlink:title=" ">
<polygon fill="none" stroke="black" points="1615,-73 1615,-103 1731,-103 1731,-73 1615,-73"/>
<text text-anchor="start" x="1623" y="-91" font-family="Helvetica,sans-Serif" font-size="10.00">src/_Tests/Tree/MLCL</text>
<text text-anchor="middle" x="1673" y="-80" font-family="Helvetica,sans-Serif" font-size="10.00">_AVLTree_test.c</text>
</a>
</g>
</g>
<!-- Node1&#45;&gt;Node8 -->
<g id="edge23" class="edge">
<title>Node1&#45;&gt;Node8</title>
<path fill="none" stroke="midnightblue" d="M1418.17,-283.38C1440.3,-261.92 1481.12,-222 1515,-187 1532.72,-168.7 1533.43,-160.03 1554,-145 1578.43,-127.15 1609.45,-112.77 1633.69,-103.06"/>
<polygon fill="midnightblue" stroke="midnightblue" points="1415.67,-280.94 1410.92,-290.41 1420.53,-285.97 1415.67,-280.94"/>
</g>
<!-- Node11 -->
<g id="node11" class="node">
<title>Node11</title>
<g id="a_node11"><a xlink:href="_m_l_c_l___double_linked_list_8h.html" target="_top" xlink:title=" ">
<polygon fill="none" stroke="black" points="209.5,-223.5 209.5,-253.5 350.5,-253.5 350.5,-223.5 209.5,-223.5"/>
<text text-anchor="start" x="217.5" y="-241.5" font-family="Helvetica,sans-Serif" font-size="10.00">include/List/MLCL_Double</text>
<text text-anchor="middle" x="280" y="-230.5" font-family="Helvetica,sans-Serif" font-size="10.00">LinkedList.h</text>
</a>
</g>
</g>
<!-- Node1&#45;&gt;Node11 -->
<g id="edge10" class="edge">
<title>Node1&#45;&gt;Node11</title>
<path fill="none" stroke="midnightblue" d="M1307.91,-294.01C1088.14,-282.36 545.02,-253.55 350.62,-243.25"/>
<polygon fill="midnightblue" stroke="midnightblue" points="1307.96,-297.52 1318.13,-294.55 1308.33,-290.53 1307.96,-297.52"/>
</g>
<!-- Node15 -->
<g id="node15" class="node">
<title>Node15</title>
<g id="a_node15"><a xlink:href="_m_l_c_l___linked_list_8h.html" target="_top" xlink:title=" ">
<polygon fill="none" stroke="black" points="1125,-223.5 1125,-253.5 1263,-253.5 1263,-223.5 1125,-223.5"/>
<text text-anchor="start" x="1133" y="-241.5" font-family="Helvetica,sans-Serif" font-size="10.00">include/List/MLCL_Linked</text>
<text text-anchor="middle" x="1194" y="-230.5" font-family="Helvetica,sans-Serif" font-size="10.00">List.h</text>
</a>
</g>
</g>
<!-- Node1&#45;&gt;Node15 -->
<g id="edge17" class="edge">
<title>Node1&#45;&gt;Node15</title>
<path fill="none" stroke="midnightblue" d="M1362.18,-287.61C1328.25,-277.9 1279.35,-263.92 1243.02,-253.52"/>
<polygon fill="midnightblue" stroke="midnightblue" points="1361.62,-291.09 1372.2,-290.48 1363.55,-284.36 1361.62,-291.09"/>
</g>
<!-- Node19 -->
<g id="node19" class="node">
<title>Node19</title>
<g id="a_node19"><a xlink:href="_m_l_c_l___type_descriptor_8c.html" target="_top" xlink:title=" ">
<polygon fill="none" stroke="black" points="1725,-229 1725,-248 1871,-248 1871,-229 1725,-229"/>
<text text-anchor="middle" x="1798" y="-236" font-family="Helvetica,sans-Serif" font-size="10.00">src/MLCL_TypeDescriptor.c</text>
</a>
</g>
</g>
<!-- Node1&#45;&gt;Node19 -->
<g id="edge24" class="edge">
<title>Node1&#45;&gt;Node19</title>
<path fill="none" stroke="midnightblue" d="M1475.79,-289.12C1539.49,-280.42 1633.93,-267.13 1716,-254 1727.42,-252.17 1739.71,-250.07 1751.21,-248.05"/>
<polygon fill="midnightblue" stroke="midnightblue" points="1475.28,-285.66 1465.84,-290.47 1476.22,-292.59 1475.28,-285.66"/>
</g>
<!-- Node20 -->
<g id="node20" class="node">
<title>Node20</title>
<g id="a_node20"><a xlink:href="_m_l_c_l___binary_search_tree_8h.html" target="_top" xlink:title=" ">
<polygon fill="none" stroke="black" points="1565.5,-223.5 1565.5,-253.5 1706.5,-253.5 1706.5,-223.5 1565.5,-223.5"/>
<text text-anchor="start" x="1573.5" y="-241.5" font-family="Helvetica,sans-Serif" font-size="10.00">include/Tree/MLCL_Binary</text>
<text text-anchor="middle" x="1636" y="-230.5" font-family="Helvetica,sans-Serif" font-size="10.00">SearchTree.h</text>
</a>
</g>
</g>
<!-- Node1&#45;&gt;Node20 -->
<g id="edge25" class="edge">
<title>Node1&#45;&gt;Node20</title>
<path fill="none" stroke="midnightblue" d="M1445.33,-287.98C1483.55,-278.27 1539.45,-264.05 1580.85,-253.52"/>
<polygon fill="midnightblue" stroke="midnightblue" points="1444.36,-284.62 1435.53,-290.48 1446.08,-291.4 1444.36,-284.62"/>
</g>
<!-- Node3 -->
<g id="node3" class="node">
<title>Node3</title>
<g id="a_node3"><a xlink:href="_m_l_c_l___circular_double_linked_list__test_8c.html" target="_top" xlink:title=" ">
<polygon fill="none" stroke="black" points="208.5,-67.5 208.5,-108.5 351.5,-108.5 351.5,-67.5 208.5,-67.5"/>
<text text-anchor="start" x="216.5" y="-96.5" font-family="Helvetica,sans-Serif" font-size="10.00">src/_Tests/List/MLCL</text>
<text text-anchor="start" x="216.5" y="-85.5" font-family="Helvetica,sans-Serif" font-size="10.00">_CircularDoubleLinkedList</text>
<text text-anchor="middle" x="280" y="-74.5" font-family="Helvetica,sans-Serif" font-size="10.00">_test.c</text>
</a>
</g>
</g>
<!-- Node2&#45;&gt;Node3 -->
<g id="edge2" class="edge">
<title>Node2&#45;&gt;Node3</title>
<path fill="none" stroke="midnightblue" d="M852.55,-161.47C747.39,-155.19 536.45,-139.73 360,-109 357.32,-108.53 354.6,-108.03 351.85,-107.49"/>
<polygon fill="midnightblue" stroke="midnightblue" points="852.51,-164.98 862.7,-162.07 852.92,-157.99 852.51,-164.98"/>
</g>
<!-- Node4 -->
<g id="node4" class="node">
<title>Node4</title>
<g id="a_node4"><a xlink:href="_m_l_c_l___circular_linked_list__test_8c.html" target="_top" xlink:title=" ">
<polygon fill="none" stroke="black" points="994,-73 994,-103 1134,-103 1134,-73 994,-73"/>
<text text-anchor="start" x="1002" y="-91" font-family="Helvetica,sans-Serif" font-size="10.00">src/_Tests/List/MLCL</text>
<text text-anchor="middle" x="1064" y="-80" font-family="Helvetica,sans-Serif" font-size="10.00">_CircularLinkedList_test.c</text>
</a>
</g>
</g>
<!-- Node2&#45;&gt;Node4 -->
<g id="edge3" class="edge">
<title>Node2&#45;&gt;Node4</title>
<path fill="none" stroke="midnightblue" d="M954.92,-146.17C980.4,-132.82 1014.06,-115.18 1037.21,-103.04"/>
<polygon fill="midnightblue" stroke="midnightblue" points="953.17,-143.14 945.93,-150.88 956.42,-149.34 953.17,-143.14"/>
</g>
<!-- Node5 -->
<g id="node5" class="node">
<title>Node5</title>
<g id="a_node5"><a xlink:href="_m_l_c_l___double_linked_list__test_8c.html" target="_top" xlink:title=" ">
<polygon fill="none" stroke="black" points="369.5,-73 369.5,-103 506.5,-103 506.5,-73 369.5,-73"/>
<text text-anchor="start" x="377.5" y="-91" font-family="Helvetica,sans-Serif" font-size="10.00">src/_Tests/List/MLCL</text>
<text text-anchor="middle" x="438" y="-80" font-family="Helvetica,sans-Serif" font-size="10.00">_DoubleLinkedList_test.c</text>
</a>
</g>
</g>
<!-- Node2&#45;&gt;Node5 -->
<g id="edge4" class="edge">
<title>Node2&#45;&gt;Node5</title>
<path fill="none" stroke="midnightblue" d="M852.8,-158.22C772.45,-149.44 633.06,-132.43 515,-109 506.47,-107.31 497.47,-105.23 488.75,-103.07"/>
<polygon fill="midnightblue" stroke="midnightblue" points="852.46,-161.7 862.78,-159.3 853.21,-154.74 852.46,-161.7"/>
</g>
<!-- Node6 -->
<g id="node6" class="node">
<title>Node6</title>
<g id="a_node6"><a xlink:href="_m_l_c_l___linked_list__test_8c.html" target="_top" xlink:title=" ">
<polygon fill="none" stroke="black" points="862.5,-73 862.5,-103 975.5,-103 975.5,-73 862.5,-73"/>
<text text-anchor="start" x="870.5" y="-91" font-family="Helvetica,sans-Serif" font-size="10.00">src/_Tests/List/MLCL</text>
<text text-anchor="middle" x="919" y="-80" font-family="Helvetica,sans-Serif" font-size="10.00">_LinkedList_test.c</text>
</a>
</g>
</g>
<!-- Node2&#45;&gt;Node6 -->
<g id="edge5" class="edge">
<title>Node2&#45;&gt;Node6</title>
<path fill="none" stroke="midnightblue" d="M919,-140.59C919,-128.26 919,-113.72 919,-103.23"/>
<polygon fill="midnightblue" stroke="midnightblue" points="915.5,-140.7 919,-150.7 922.5,-140.71 915.5,-140.7"/>
</g>
<!-- Node7 -->
<g id="node7" class="node">
<title>Node7</title>
<g id="a_node7"><a xlink:href="_m_l_c_l___type_descriptor__test_8c.html" target="_top" xlink:title=" ">
<polygon fill="none" stroke="black" points="673.5,-73 673.5,-103 844.5,-103 844.5,-73 673.5,-73"/>
<text text-anchor="start" x="681.5" y="-91" font-family="Helvetica,sans-Serif" font-size="10.00">src/_Tests/MLCL_TypeDescriptor</text>
<text text-anchor="middle" x="759" y="-80" font-family="Helvetica,sans-Serif" font-size="10.00">_test.c</text>
</a>
</g>
</g>
<!-- Node2&#45;&gt;Node7 -->
<g id="edge6" class="edge">
<title>Node2&#45;&gt;Node7</title>
<path fill="none" stroke="midnightblue" d="M880.1,-146.52C851.9,-133.13 814.33,-115.28 788.56,-103.04"/>
<polygon fill="midnightblue" stroke="midnightblue" points="878.75,-149.75 889.28,-150.88 881.75,-143.43 878.75,-149.75"/>
</g>
<!-- Node2&#45;&gt;Node8 -->
<g id="edge7" class="edge">
<title>Node2&#45;&gt;Node8</title>
<path fill="none" stroke="midnightblue" d="M985.07,-152.02C1000.43,-149.36 1016.75,-146.82 1032,-145 1285.81,-114.68 1354.35,-153.85 1606,-109 1614.25,-107.53 1622.91,-105.4 1631.18,-103.07"/>
<polygon fill="midnightblue" stroke="midnightblue" points="984.38,-148.59 975.14,-153.78 985.6,-155.48 984.38,-148.59"/>
</g>
<!-- Node9 -->
<g id="node9" class="node">
<title>Node9</title>
<g id="a_node9"><a xlink:href="_m_l_c_l___binary_search_tree__test_8c.html" target="_top" xlink:title=" ">
<polygon fill="none" stroke="black" points="1325.5,-73 1325.5,-103 1464.5,-103 1464.5,-73 1325.5,-73"/>
<text text-anchor="start" x="1333.5" y="-91" font-family="Helvetica,sans-Serif" font-size="10.00">src/_Tests/Tree/MLCL</text>
<text text-anchor="middle" x="1395" y="-80" font-family="Helvetica,sans-Serif" font-size="10.00">_BinarySearchTree_test.c</text>
</a>
</g>
</g>
<!-- Node2&#45;&gt;Node9 -->
<g id="edge8" class="edge">
<title>Node2&#45;&gt;Node9</title>
<path fill="none" stroke="midnightblue" d="M985.17,-152.72C1000.52,-150.03 1016.81,-147.3 1032,-145 1158.23,-125.87 1191.58,-132.9 1317,-109 1325.79,-107.32 1335.06,-105.24 1344.02,-103.05"/>
<polygon fill="midnightblue" stroke="midnightblue" points="984.47,-149.29 975.24,-154.48 985.69,-156.18 984.47,-149.29"/>
</g>
<!-- Node10 -->
<g id="node10" class="node">
<title>Node10</title>
<g id="a_node10"><a xlink:href="_m_l_c_l__basic__types_8c.html" target="_top" xlink:title=" ">
<polygon fill="none" stroke="black" points="524.5,-78.5 524.5,-97.5 655.5,-97.5 655.5,-78.5 524.5,-78.5"/>
<text text-anchor="middle" x="590" y="-85.5" font-family="Helvetica,sans-Serif" font-size="10.00">src/MLCL_basic_types.c</text>
</a>
</g>
</g>
<!-- Node2&#45;&gt;Node10 -->
<g id="edge9" class="edge">
<title>Node2&#45;&gt;Node10</title>
<path fill="none" stroke="midnightblue" d="M852.84,-151.38C801.25,-140.53 727.87,-124.64 664,-109 649.52,-105.46 633.55,-101.18 620.16,-97.5"/>
<polygon fill="midnightblue" stroke="midnightblue" points="852.35,-154.85 862.86,-153.48 853.79,-148 852.35,-154.85"/>
</g>
<!-- Node11&#45;&gt;Node5 -->
<g id="edge14" class="edge">
<title>Node11&#45;&gt;Node5</title>
<path fill="none" stroke="midnightblue" d="M316.7,-218.28C331.28,-209.74 347.72,-198.91 361,-187 389.83,-161.14 415.99,-123.53 429.12,-103.25"/>
<polygon fill="midnightblue" stroke="midnightblue" points="314.85,-215.3 307.9,-223.3 318.32,-221.39 314.85,-215.3"/>
</g>
<!-- Node12 -->
<g id="node12" class="node">
<title>Node12</title>
<g id="a_node12"><a xlink:href="_m_l_c_l___circular_double_linked_list_8h.html" target="_top" xlink:title=" ">
<polygon fill="none" stroke="black" points="208,-151 208,-181 352,-181 352,-151 208,-151"/>
<text text-anchor="start" x="216" y="-169" font-family="Helvetica,sans-Serif" font-size="10.00">include/List/MLCL_Circular</text>
<text text-anchor="middle" x="280" y="-158" font-family="Helvetica,sans-Serif" font-size="10.00">DoubleLinkedList.h</text>
</a>
</g>
</g>
<!-- Node11&#45;&gt;Node12 -->
<g id="edge11" class="edge">
<title>Node11&#45;&gt;Node12</title>
<path fill="none" stroke="midnightblue" d="M280,-213.23C280,-202.57 280,-190.41 280,-181.25"/>
<polygon fill="midnightblue" stroke="midnightblue" points="276.5,-213.23 280,-223.23 283.5,-213.23 276.5,-213.23"/>
</g>
<!-- Node13 -->
<g id="node13" class="node">
<title>Node13</title>
<g id="a_node13"><a xlink:href="_m_l_c_l___circular_double_linked_list_8c.html" target="_top" xlink:title=" ">
<polygon fill="none" stroke="black" points="32,-73 32,-103 190,-103 190,-73 32,-73"/>
<text text-anchor="start" x="40" y="-91" font-family="Helvetica,sans-Serif" font-size="10.00">src/List/MLCL_CircularDouble</text>
<text text-anchor="middle" x="111" y="-80" font-family="Helvetica,sans-Serif" font-size="10.00">LinkedList.c</text>
</a>
</g>
</g>
<!-- Node11&#45;&gt;Node13 -->
<g id="edge15" class="edge">
<title>Node11&#45;&gt;Node13</title>
<path fill="none" stroke="midnightblue" d="M244.36,-218.23C229.67,-209.55 212.87,-198.65 199,-187 196.88,-185.22 147.43,-129.86 123.61,-103.15"/>
<polygon fill="midnightblue" stroke="midnightblue" points="242.78,-221.36 253.19,-223.33 246.28,-215.3 242.78,-221.36"/>
</g>
<!-- Node14 -->
<g id="node14" class="node">
<title>Node14</title>
<g id="a_node14"><a xlink:href="_m_l_c_l___double_linked_list_8c.html" target="_top" xlink:title=" ">
<polygon fill="none" stroke="black" points="0,-151 0,-181 152,-181 152,-151 0,-151"/>
<text text-anchor="start" x="8" y="-169" font-family="Helvetica,sans-Serif" font-size="10.00">src/List/MLCL_DoubleLinked</text>
<text text-anchor="middle" x="76" y="-158" font-family="Helvetica,sans-Serif" font-size="10.00">List.c</text>
</a>
</g>
</g>
<!-- Node11&#45;&gt;Node14 -->
<g id="edge16" class="edge">
<title>Node11&#45;&gt;Node14</title>
<path fill="none" stroke="midnightblue" d="M229.71,-220.12C194.92,-208.1 149.22,-192.31 116.72,-181.07"/>
<polygon fill="midnightblue" stroke="midnightblue" points="228.61,-223.44 239.21,-223.4 230.9,-216.83 228.61,-223.44"/>
</g>
<!-- Node12&#45;&gt;Node3 -->
<g id="edge12" class="edge">
<title>Node12&#45;&gt;Node3</title>
<path fill="none" stroke="midnightblue" d="M280,-140.66C280,-130.33 280,-118.44 280,-108.68"/>
<polygon fill="midnightblue" stroke="midnightblue" points="276.5,-140.7 280,-150.7 283.5,-140.71 276.5,-140.7"/>
</g>
<!-- Node12&#45;&gt;Node13 -->
<g id="edge13" class="edge">
<title>Node12&#45;&gt;Node13</title>
<path fill="none" stroke="midnightblue" d="M239.3,-146.7C209.47,-133.28 169.56,-115.34 142.22,-103.04"/>
<polygon fill="midnightblue" stroke="midnightblue" points="238.05,-149.97 248.61,-150.88 240.92,-143.59 238.05,-149.97"/>
</g>
<!-- Node15&#45;&gt;Node6 -->
<g id="edge21" class="edge">
<title>Node15&#45;&gt;Node6</title>
<path fill="none" stroke="midnightblue" d="M1117.84,-220.8C1089.79,-212.87 1058.44,-201.81 1032,-187 1007.27,-173.15 1005.4,-163.58 984,-145 967.47,-130.64 948.49,-114.31 935.32,-103"/>
<polygon fill="midnightblue" stroke="midnightblue" points="1117.03,-224.21 1127.6,-223.48 1118.88,-217.46 1117.03,-224.21"/>
</g>
<!-- Node16 -->
<g id="node16" class="node">
<title>Node16</title>
<g id="a_node16"><a xlink:href="_m_l_c_l___circular_linked_list_8h.html" target="_top" xlink:title=" ">
<polygon fill="none" stroke="black" points="1041,-151 1041,-181 1185,-181 1185,-151 1041,-151"/>
<text text-anchor="start" x="1049" y="-169" font-family="Helvetica,sans-Serif" font-size="10.00">include/List/MLCL_Circular</text>
<text text-anchor="middle" x="1113" y="-158" font-family="Helvetica,sans-Serif" font-size="10.00">LinkedList.h</text>
</a>
</g>
</g>
<!-- Node15&#45;&gt;Node16 -->
<g id="edge18" class="edge">
<title>Node15&#45;&gt;Node16</title>
<path fill="none" stroke="midnightblue" d="M1169.83,-216.46C1156.66,-205 1140.73,-191.14 1129.09,-181"/>
<polygon fill="midnightblue" stroke="midnightblue" points="1167.77,-219.31 1177.61,-223.23 1172.36,-214.03 1167.77,-219.31"/>
</g>
<!-- Node18 -->
<g id="node18" class="node">
<title>Node18</title>
<g id="a_node18"><a xlink:href="_m_l_c_l___linked_list_8c.html" target="_top" xlink:title=" ">
<polygon fill="none" stroke="black" points="1203.5,-156.5 1203.5,-175.5 1346.5,-175.5 1346.5,-156.5 1203.5,-156.5"/>
<text text-anchor="middle" x="1275" y="-163.5" font-family="Helvetica,sans-Serif" font-size="10.00">src/List/MLCL_LinkedList.c</text>
</a>
</g>
</g>
<!-- Node15&#45;&gt;Node18 -->
<g id="edge22" class="edge">
<title>Node15&#45;&gt;Node18</title>
<path fill="none" stroke="midnightblue" d="M1218.12,-216.51C1233.68,-202.96 1253.13,-186.03 1264.78,-175.89"/>
<polygon fill="midnightblue" stroke="midnightblue" points="1215.64,-214.03 1210.39,-223.23 1220.23,-219.31 1215.64,-214.03"/>
</g>
<!-- Node16&#45;&gt;Node4 -->
<g id="edge19" class="edge">
<title>Node16&#45;&gt;Node4</title>
<path fill="none" stroke="midnightblue" d="M1098.22,-142.07C1090.07,-129.44 1080.21,-114.15 1073.18,-103.23"/>
<polygon fill="midnightblue" stroke="midnightblue" points="1095.42,-144.2 1103.78,-150.7 1101.31,-140.4 1095.42,-144.2"/>
</g>
<!-- Node17 -->
<g id="node17" class="node">
<title>Node17</title>
<g id="a_node17"><a xlink:href="_m_l_c_l___circular_linked_list_8c.html" target="_top" xlink:title=" ">
<polygon fill="none" stroke="black" points="1152.5,-73 1152.5,-103 1307.5,-103 1307.5,-73 1152.5,-73"/>
<text text-anchor="start" x="1160.5" y="-91" font-family="Helvetica,sans-Serif" font-size="10.00">src/List/MLCL_CircularLinked</text>
<text text-anchor="middle" x="1230" y="-80" font-family="Helvetica,sans-Serif" font-size="10.00">List.c</text>
</a>
</g>
</g>
<!-- Node16&#45;&gt;Node17 -->
<g id="edge20" class="edge">
<title>Node16&#45;&gt;Node17</title>
<path fill="none" stroke="midnightblue" d="M1143.34,-145.29C1163.73,-132.05 1190.11,-114.91 1208.38,-103.04"/>
<polygon fill="midnightblue" stroke="midnightblue" points="1141.21,-142.5 1134.73,-150.88 1145.03,-148.37 1141.21,-142.5"/>
</g>
<!-- Node21 -->
<g id="node21" class="node">
<title>Node21</title>
<g id="a_node21"><a xlink:href="_m_l_c_l___a_v_l_tree_8h.html" target="_top" xlink:title=" ">
<polygon fill="none" stroke="black" points="1736,-156.5 1736,-175.5 1892,-175.5 1892,-156.5 1736,-156.5"/>
<text text-anchor="middle" x="1814" y="-163.5" font-family="Helvetica,sans-Serif" font-size="10.00">include/Tree/MLCL_AVLTree.h</text>
</a>
</g>
</g>
<!-- Node20&#45;&gt;Node21 -->
<g id="edge26" class="edge">
<title>Node20&#45;&gt;Node21</title>
<path fill="none" stroke="midnightblue" d="M1681.29,-219.56C1716.94,-205.44 1765.03,-186.4 1792.45,-175.53"/>
<polygon fill="midnightblue" stroke="midnightblue" points="1679.6,-216.47 1671.59,-223.4 1682.18,-222.97 1679.6,-216.47"/>
</g>
<!-- Node23 -->
<g id="node23" class="node">
<title>Node23</title>
<g id="a_node23"><a xlink:href="_m_l_c_l___tree_8h.html" target="_top" xlink:title=" ">
<polygon fill="none" stroke="black" points="1901.5,-78.5 1901.5,-97.5 2040.5,-97.5 2040.5,-78.5 1901.5,-78.5"/>
<text text-anchor="middle" x="1971" y="-85.5" font-family="Helvetica,sans-Serif" font-size="10.00">include/Tree/MLCL_Tree.h</text>
</a>
</g>
</g>
<!-- Node20&#45;&gt;Node23 -->
<g id="edge36" class="edge">
<title>Node20&#45;&gt;Node23</title>
<path fill="none" stroke="midnightblue" d="M1716.73,-222.85C1793.21,-208.86 1897.03,-189.54 1901,-187 1936.22,-164.45 1959.13,-117.32 1967.47,-97.78"/>
<polygon fill="midnightblue" stroke="midnightblue" points="1715.81,-219.46 1706.6,-224.7 1717.07,-226.35 1715.81,-219.46"/>
</g>
<!-- Node25 -->
<g id="node25" class="node">
<title>Node25</title>
<g id="a_node25"><a xlink:href="_m_l_c_l___binary_search_tree__test_8h.html" target="_top" xlink:title=" ">
<polygon fill="none" stroke="black" points="1370,-145.5 1370,-186.5 1506,-186.5 1506,-145.5 1370,-145.5"/>
<text text-anchor="start" x="1378" y="-174.5" font-family="Helvetica,sans-Serif" font-size="10.00">include/_Tests/Tree</text>
<text text-anchor="start" x="1378" y="-163.5" font-family="Helvetica,sans-Serif" font-size="10.00">/MLCL_BinarySearchTree</text>
<text text-anchor="middle" x="1438" y="-152.5" font-family="Helvetica,sans-Serif" font-size="10.00">_test.h</text>
</a>
</g>
</g>
<!-- Node20&#45;&gt;Node25 -->
<g id="edge31" class="edge">
<title>Node20&#45;&gt;Node25</title>
<path fill="none" stroke="midnightblue" d="M1586.66,-219.93C1558.17,-209.79 1522.28,-197.01 1492.9,-186.55"/>
<polygon fill="midnightblue" stroke="midnightblue" points="1585.81,-223.35 1596.41,-223.4 1588.16,-216.75 1585.81,-223.35"/>
</g>
<!-- Node28 -->
<g id="node28" class="node">
<title>Node28</title>
<g id="a_node28"><a xlink:href="_m_l_c_l___binary_search_tree_8c.html" target="_top" xlink:title=" ">
<polygon fill="none" stroke="black" points="1562.5,-151 1562.5,-181 1715.5,-181 1715.5,-151 1562.5,-151"/>
<text text-anchor="start" x="1570.5" y="-169" font-family="Helvetica,sans-Serif" font-size="10.00">src/Tree/MLCL_BinarySearch</text>
<text text-anchor="middle" x="1639" y="-158" font-family="Helvetica,sans-Serif" font-size="10.00">Tree.c</text>
</a>
</g>
</g>
<!-- Node20&#45;&gt;Node28 -->
<g id="edge35" class="edge">
<title>Node20&#45;&gt;Node28</title>
<path fill="none" stroke="midnightblue" d="M1637.03,-213.23C1637.49,-202.57 1638,-190.41 1638.39,-181.25"/>
<polygon fill="midnightblue" stroke="midnightblue" points="1633.54,-213.09 1636.61,-223.23 1640.53,-213.39 1633.54,-213.09"/>
</g>
<!-- Node21&#45;&gt;Node8 -->
<g id="edge27" class="edge">
<title>Node21&#45;&gt;Node8</title>
<path fill="none" stroke="midnightblue" d="M1789.14,-151.6C1763.86,-137.97 1724.85,-116.95 1699.12,-103.08"/>
<polygon fill="midnightblue" stroke="midnightblue" points="1787.64,-154.77 1798.1,-156.43 1790.96,-148.6 1787.64,-154.77"/>
</g>
<!-- Node22 -->
<g id="node22" class="node">
<title>Node22</title>
<g id="a_node22"><a xlink:href="_m_l_c_l___a_v_l_tree_8c.html" target="_top" xlink:title=" ">
<polygon fill="none" stroke="black" points="1749,-78.5 1749,-97.5 1883,-97.5 1883,-78.5 1749,-78.5"/>
<text text-anchor="middle" x="1816" y="-85.5" font-family="Helvetica,sans-Serif" font-size="10.00">src/Tree/MLCL_AVLTree.c</text>
</a>
</g>
</g>
<!-- Node21&#45;&gt;Node22 -->
<g id="edge28" class="edge">
<title>Node21&#45;&gt;Node22</title>
<path fill="none" stroke="midnightblue" d="M1814.49,-146.22C1814.9,-130.7 1815.46,-109.36 1815.77,-97.62"/>
<polygon fill="midnightblue" stroke="midnightblue" points="1810.99,-146.19 1814.23,-156.28 1817.99,-146.38 1810.99,-146.19"/>
</g>
<!-- Node21&#45;&gt;Node23 -->
<g id="edge29" class="edge">
<title>Node21&#45;&gt;Node23</title>
<path fill="none" stroke="midnightblue" d="M1840.95,-151.96C1873.02,-136.43 1925.68,-110.94 1953.12,-97.66"/>
<polygon fill="midnightblue" stroke="midnightblue" points="1839.18,-148.92 1831.7,-156.43 1842.23,-155.22 1839.18,-148.92"/>
</g>
<!-- Node24 -->
<g id="node24" class="node">
<title>Node24</title>
<g id="a_node24"><a xlink:href="_m_l_c_l___tree_8c.html" target="_top" xlink:title=" ">
<polygon fill="none" stroke="black" points="1912.5,-6 1912.5,-25 2029.5,-25 2029.5,-6 1912.5,-6"/>
<text text-anchor="middle" x="1971" y="-13" font-family="Helvetica,sans-Serif" font-size="10.00">src/Tree/MLCL_Tree.c</text>
</a>
</g>
</g>
<!-- Node23&#45;&gt;Node24 -->
<g id="edge30" class="edge">
<title>Node23&#45;&gt;Node24</title>
<path fill="none" stroke="midnightblue" d="M1971,-67.94C1971,-54.03 1971,-35.82 1971,-25.22"/>
<polygon fill="midnightblue" stroke="midnightblue" points="1967.5,-68.36 1971,-78.36 1974.5,-68.36 1967.5,-68.36"/>
</g>
<!-- Node25&#45;&gt;Node9 -->
<g id="edge34" class="edge">
<title>Node25&#45;&gt;Node9</title>
<path fill="none" stroke="midnightblue" d="M1421.96,-136.64C1415.51,-125.25 1408.36,-112.62 1403.05,-103.23"/>
<polygon fill="midnightblue" stroke="midnightblue" points="1418.96,-138.45 1426.93,-145.43 1425.05,-135 1418.96,-138.45"/>
</g>
<!-- Node26 -->
<g id="node26" class="node">
<title>Node26</title>
<g id="a_node26"><a xlink:href="_m_l_c_l__all__tests_8h.html" target="_top" xlink:title=" ">
<polygon fill="none" stroke="black" points="1483,-73 1483,-103 1597,-103 1597,-73 1483,-73"/>
<text text-anchor="start" x="1491" y="-91" font-family="Helvetica,sans-Serif" font-size="10.00">include/_Tests/MLCL</text>
<text text-anchor="middle" x="1540" y="-80" font-family="Helvetica,sans-Serif" font-size="10.00">_all_tests.h</text>
</a>
</g>
</g>
<!-- Node25&#45;&gt;Node26 -->
<g id="edge32" class="edge">
<title>Node25&#45;&gt;Node26</title>
<path fill="none" stroke="midnightblue" d="M1472.46,-139.32C1488.64,-127.27 1507.3,-113.36 1520.91,-103.23"/>
<polygon fill="midnightblue" stroke="midnightblue" points="1470.2,-136.65 1464.27,-145.43 1474.38,-142.26 1470.2,-136.65"/>
</g>
<!-- Node27 -->
<g id="node27" class="node">
<title>Node27</title>
<g id="a_node27"><a xlink:href="_m_l_c_l__all__tests_8c.html" target="_top" xlink:title=" ">
<polygon fill="none" stroke="black" points="1485,-0.5 1485,-30.5 1595,-30.5 1595,-0.5 1485,-0.5"/>
<text text-anchor="start" x="1493" y="-18.5" font-family="Helvetica,sans-Serif" font-size="10.00">src/_Tests/MLCL_all</text>
<text text-anchor="middle" x="1540" y="-7.5" font-family="Helvetica,sans-Serif" font-size="10.00">_tests.c</text>
</a>
</g>
</g>
<!-- Node26&#45;&gt;Node27 -->
<g id="edge33" class="edge">
<title>Node26&#45;&gt;Node27</title>
<path fill="none" stroke="midnightblue" d="M1540,-62.73C1540,-52.07 1540,-39.91 1540,-30.75"/>
<polygon fill="midnightblue" stroke="midnightblue" points="1536.5,-62.73 1540,-72.73 1543.5,-62.73 1536.5,-62.73"/>
</g>
</g>
</svg>
