<?xml version="1.0" encoding="UTF-8" standalone="no"?>
<!DOCTYPE svg PUBLIC "-//W3C//DTD SVG 1.1//EN"
 "http://www.w3.org/Graphics/SVG/1.1/DTD/svg11.dtd">
<!-- Generated by graphviz version 2.43.0 (0)
 -->
<!-- Title: include/Lists/MLCL_ArrayList.h Pages: 1 -->
<svg width="1229pt" height="307pt"
 viewBox="0.00 0.00 1228.50 307.00" xmlns="http://www.w3.org/2000/svg" xmlns:xlink="http://www.w3.org/1999/xlink">
<g id="graph0" class="graph" transform="scale(1 1) rotate(0) translate(4 303)">
<title>include/Lists/MLCL_ArrayList.h</title>
<!-- Node1 -->
<g id="node1" class="node">
<title>Node1</title>
<g id="a_node1"><a xlink:title=" ">
<polygon fill="#bfbfbf" stroke="black" points="725.5,-268.5 725.5,-298.5 832.5,-298.5 832.5,-268.5 725.5,-268.5"/>
<text text-anchor="start" x="733.5" y="-286.5" font-family="Helvetica,sans-Serif" font-size="10.00">include/Lists/MLCL</text>
<text text-anchor="middle" x="779" y="-275.5" font-family="Helvetica,sans-Serif" font-size="10.00">_ArrayList.h</text>
</a>
</g>
</g>
<!-- Node2 -->
<g id="node2" class="node">
<title>Node2</title>
<g id="a_node2"><a xlink:href="_m_l_c_l___array_list__test_8c.html" target="_top" xlink:title=" ">
<polygon fill="none" stroke="black" points="475.5,-201.5 475.5,-231.5 594.5,-231.5 594.5,-201.5 475.5,-201.5"/>
<text text-anchor="start" x="483.5" y="-219.5" font-family="Helvetica,sans-Serif" font-size="10.00">src/_Tests/Lists/MLCL</text>
<text text-anchor="middle" x="535" y="-208.5" font-family="Helvetica,sans-Serif" font-size="10.00">_ArrayList_test.c</text>
</a>
</g>
</g>
<!-- Node1&#45;&gt;Node2 -->
<g id="edge1" class="edge">
<title>Node1&#45;&gt;Node2</title>
<path fill="none" stroke="midnightblue" d="M716.5,-265.85C676.72,-255.25 625.76,-241.68 587.97,-231.61"/>
<polygon fill="midnightblue" stroke="midnightblue" points="715.79,-269.28 726.36,-268.48 717.59,-262.52 715.79,-269.28"/>
</g>
<!-- Node3 -->
<g id="node3" class="node">
<title>Node3</title>
<g id="a_node3"><a xlink:href="_m_l_c_l___list_8h.html" target="_top" xlink:title=" ">
<polygon fill="none" stroke="black" points="612.5,-201.5 612.5,-231.5 719.5,-231.5 719.5,-201.5 612.5,-201.5"/>
<text text-anchor="start" x="620.5" y="-219.5" font-family="Helvetica,sans-Serif" font-size="10.00">include/Lists/MLCL</text>
<text text-anchor="middle" x="666" y="-208.5" font-family="Helvetica,sans-Serif" font-size="10.00">_List.h</text>
</a>
</g>
</g>
<!-- Node1&#45;&gt;Node3 -->
<g id="edge2" class="edge">
<title>Node1&#45;&gt;Node3</title>
<path fill="none" stroke="midnightblue" d="M745.61,-263.3C727.93,-253.12 706.6,-240.85 690.47,-231.58"/>
<polygon fill="midnightblue" stroke="midnightblue" points="744.07,-266.44 754.48,-268.4 747.56,-260.38 744.07,-266.44"/>
</g>
<!-- Node15 -->
<g id="node15" class="node">
<title>Node15</title>
<g id="a_node15"><a xlink:href="_m_l_c_l___binary_heap_8h.html" target="_top" xlink:title=" ">
<polygon fill="none" stroke="black" points="819,-201.5 819,-231.5 965,-231.5 965,-201.5 819,-201.5"/>
<text text-anchor="start" x="827" y="-219.5" font-family="Helvetica,sans-Serif" font-size="10.00">include/Heap/MLCL_Binary</text>
<text text-anchor="middle" x="892" y="-208.5" font-family="Helvetica,sans-Serif" font-size="10.00">Heap.h</text>
</a>
</g>
</g>
<!-- Node1&#45;&gt;Node15 -->
<g id="edge14" class="edge">
<title>Node1&#45;&gt;Node15</title>
<path fill="none" stroke="midnightblue" d="M812.39,-263.3C830.07,-253.12 851.4,-240.85 867.53,-231.58"/>
<polygon fill="midnightblue" stroke="midnightblue" points="810.44,-260.38 803.52,-268.4 813.93,-266.44 810.44,-260.38"/>
</g>
<!-- Node21 -->
<g id="node21" class="node">
<title>Node21</title>
<g id="a_node21"><a xlink:href="_m_l_c_l___array_list_8c.html" target="_top" xlink:title=" ">
<polygon fill="none" stroke="black" points="983.5,-207 983.5,-226 1126.5,-226 1126.5,-207 983.5,-207"/>
<text text-anchor="middle" x="1055" y="-214" font-family="Helvetica,sans-Serif" font-size="10.00">src/Lists/MLCL_ArrayList.c</text>
</a>
</g>
</g>
<!-- Node1&#45;&gt;Node21 -->
<g id="edge20" class="edge">
<title>Node1&#45;&gt;Node21</title>
<path fill="none" stroke="midnightblue" d="M842.47,-267.55C897.11,-254.69 974,-236.58 1018.76,-226.03"/>
<polygon fill="midnightblue" stroke="midnightblue" points="841.47,-264.19 832.54,-269.89 843.08,-271 841.47,-264.19"/>
</g>
<!-- Node4 -->
<g id="node4" class="node">
<title>Node4</title>
<g id="a_node4"><a xlink:href="_m_l_c_l___list__test_8c.html" target="_top" xlink:title=" ">
<polygon fill="none" stroke="black" points="102.5,-134.5 102.5,-164.5 221.5,-164.5 221.5,-134.5 102.5,-134.5"/>
<text text-anchor="start" x="110.5" y="-152.5" font-family="Helvetica,sans-Serif" font-size="10.00">src/_Tests/Lists/MLCL</text>
<text text-anchor="middle" x="162" y="-141.5" font-family="Helvetica,sans-Serif" font-size="10.00">_List_test.c</text>
</a>
</g>
</g>
<!-- Node3&#45;&gt;Node4 -->
<g id="edge3" class="edge">
<title>Node3&#45;&gt;Node4</title>
<path fill="none" stroke="midnightblue" d="M602.46,-201.07C437.29,-174.92 391.99,-189.63 231,-165 227.97,-164.54 224.88,-164.03 221.77,-163.48"/>
<polygon fill="midnightblue" stroke="midnightblue" points="602.05,-204.55 612.48,-202.68 603.16,-197.64 602.05,-204.55"/>
</g>
<!-- Node5 -->
<g id="node5" class="node">
<title>Node5</title>
<g id="a_node5"><a xlink:href="_m_l_c_l___queue_8h.html" target="_top" xlink:title=" ">
<polygon fill="none" stroke="black" points="240,-134.5 240,-164.5 356,-164.5 356,-134.5 240,-134.5"/>
<text text-anchor="start" x="248" y="-152.5" font-family="Helvetica,sans-Serif" font-size="10.00">include/Queue/MLCL</text>
<text text-anchor="middle" x="298" y="-141.5" font-family="Helvetica,sans-Serif" font-size="10.00">_Queue.h</text>
</a>
</g>
</g>
<!-- Node3&#45;&gt;Node5 -->
<g id="edge4" class="edge">
<title>Node3&#45;&gt;Node5</title>
<path fill="none" stroke="midnightblue" d="M602.4,-200.96C510.47,-182.99 415.44,-167.97 356.1,-159.02"/>
<polygon fill="midnightblue" stroke="midnightblue" points="601.94,-204.43 612.43,-202.93 603.3,-197.57 601.94,-204.43"/>
</g>
<!-- Node8 -->
<g id="node8" class="node">
<title>Node8</title>
<g id="a_node8"><a xlink:href="_m_l_c_l___stack_8h.html" target="_top" xlink:title=" ">
<polygon fill="none" stroke="black" points="455.5,-134.5 455.5,-164.5 566.5,-164.5 566.5,-134.5 455.5,-134.5"/>
<text text-anchor="start" x="463.5" y="-152.5" font-family="Helvetica,sans-Serif" font-size="10.00">include/Stack/MLCL</text>
<text text-anchor="middle" x="511" y="-141.5" font-family="Helvetica,sans-Serif" font-size="10.00">_Stack.h</text>
</a>
</g>
</g>
<!-- Node3&#45;&gt;Node8 -->
<g id="edge7" class="edge">
<title>Node3&#45;&gt;Node8</title>
<path fill="none" stroke="midnightblue" d="M622.85,-197.41C598.11,-187.03 567.5,-174.2 544.57,-164.58"/>
<polygon fill="midnightblue" stroke="midnightblue" points="621.79,-200.76 632.37,-201.4 624.5,-194.3 621.79,-200.76"/>
</g>
<!-- Node11 -->
<g id="node11" class="node">
<title>Node11</title>
<g id="a_node11"><a xlink:href="_m_l_c_l___ternary_search_tree_8h.html" target="_top" xlink:title=" ">
<polygon fill="none" stroke="black" points="606,-134.5 606,-164.5 726,-164.5 726,-134.5 606,-134.5"/>
<text text-anchor="start" x="614" y="-152.5" font-family="Helvetica,sans-Serif" font-size="10.00">include/Trees/MLCL</text>
<text text-anchor="middle" x="666" y="-141.5" font-family="Helvetica,sans-Serif" font-size="10.00">_TernarySearchTree.h</text>
</a>
</g>
</g>
<!-- Node3&#45;&gt;Node11 -->
<g id="edge10" class="edge">
<title>Node3&#45;&gt;Node11</title>
<path fill="none" stroke="midnightblue" d="M666,-191.11C666,-182.15 666,-172.32 666,-164.58"/>
<polygon fill="midnightblue" stroke="midnightblue" points="662.5,-191.4 666,-201.4 669.5,-191.4 662.5,-191.4"/>
</g>
<!-- Node14 -->
<g id="node14" class="node">
<title>Node14</title>
<g id="a_node14"><a xlink:href="_m_l_c_l___list_8c.html" target="_top" xlink:title=" ">
<polygon fill="none" stroke="black" points="744,-140 744,-159 860,-159 860,-140 744,-140"/>
<text text-anchor="middle" x="802" y="-147" font-family="Helvetica,sans-Serif" font-size="10.00">src/Lists/MLCL_List.c</text>
</a>
</g>
</g>
<!-- Node3&#45;&gt;Node14 -->
<g id="edge13" class="edge">
<title>Node3&#45;&gt;Node14</title>
<path fill="none" stroke="midnightblue" d="M704.78,-196.97C730.9,-184.48 764.13,-168.6 784.2,-159.01"/>
<polygon fill="midnightblue" stroke="midnightblue" points="703.02,-193.93 695.51,-201.4 706.04,-200.24 703.02,-193.93"/>
</g>
<!-- Node6 -->
<g id="node6" class="node">
<title>Node6</title>
<g id="a_node6"><a xlink:href="_m_l_c_l___queue__test_8c.html" target="_top" xlink:title=" ">
<polygon fill="none" stroke="black" points="0,-67.5 0,-97.5 128,-97.5 128,-67.5 0,-67.5"/>
<text text-anchor="start" x="8" y="-85.5" font-family="Helvetica,sans-Serif" font-size="10.00">src/_Tests/Queue/MLCL</text>
<text text-anchor="middle" x="64" y="-74.5" font-family="Helvetica,sans-Serif" font-size="10.00">_Queue_test.c</text>
</a>
</g>
</g>
<!-- Node5&#45;&gt;Node6 -->
<g id="edge5" class="edge">
<title>Node5&#45;&gt;Node6</title>
<path fill="none" stroke="midnightblue" d="M237.57,-131.71C199.49,-121.14 150.89,-107.63 114.8,-97.61"/>
<polygon fill="midnightblue" stroke="midnightblue" points="236.94,-135.17 247.51,-134.48 238.82,-128.43 236.94,-135.17"/>
</g>
<!-- Node7 -->
<g id="node7" class="node">
<title>Node7</title>
<g id="a_node7"><a xlink:href="_m_l_c_l___queue_8c.html" target="_top" xlink:title=" ">
<polygon fill="none" stroke="black" points="146,-73 146,-92 286,-92 286,-73 146,-73"/>
<text text-anchor="middle" x="216" y="-80" font-family="Helvetica,sans-Serif" font-size="10.00">src/Queue/MLCL_Queue.c</text>
</a>
</g>
</g>
<!-- Node5&#45;&gt;Node7 -->
<g id="edge6" class="edge">
<title>Node5&#45;&gt;Node7</title>
<path fill="none" stroke="midnightblue" d="M272.15,-128.01C256.93,-115.94 238.46,-101.3 226.97,-92.19"/>
<polygon fill="midnightblue" stroke="midnightblue" points="270.2,-130.93 280.21,-134.4 274.54,-125.44 270.2,-130.93"/>
</g>
<!-- Node9 -->
<g id="node9" class="node">
<title>Node9</title>
<g id="a_node9"><a xlink:href="_m_l_c_l___stack__test_8c.html" target="_top" xlink:title=" ">
<polygon fill="none" stroke="black" points="304.5,-67.5 304.5,-97.5 427.5,-97.5 427.5,-67.5 304.5,-67.5"/>
<text text-anchor="start" x="312.5" y="-85.5" font-family="Helvetica,sans-Serif" font-size="10.00">src/_Tests/Stack/MLCL</text>
<text text-anchor="middle" x="366" y="-74.5" font-family="Helvetica,sans-Serif" font-size="10.00">_Stack_test.c</text>
</a>
</g>
</g>
<!-- Node8&#45;&gt;Node9 -->
<g id="edge8" class="edge">
<title>Node8&#45;&gt;Node9</title>
<path fill="none" stroke="midnightblue" d="M470.33,-130.27C447.24,-119.92 418.76,-107.15 397.4,-97.58"/>
<polygon fill="midnightblue" stroke="midnightblue" points="468.98,-133.5 479.54,-134.4 471.84,-127.11 468.98,-133.5"/>
</g>
<!-- Node10 -->
<g id="node10" class="node">
<title>Node10</title>
<g id="a_node10"><a xlink:href="_m_l_c_l___stack_8c.html" target="_top" xlink:title=" ">
<polygon fill="none" stroke="black" points="445.5,-73 445.5,-92 576.5,-92 576.5,-73 445.5,-73"/>
<text text-anchor="middle" x="511" y="-80" font-family="Helvetica,sans-Serif" font-size="10.00">src/Stack/MLCL_Stack.c</text>
</a>
</g>
</g>
<!-- Node8&#45;&gt;Node10 -->
<g id="edge9" class="edge">
<title>Node8&#45;&gt;Node10</title>
<path fill="none" stroke="midnightblue" d="M511,-124.25C511,-113.02 511,-100.38 511,-92.19"/>
<polygon fill="midnightblue" stroke="midnightblue" points="507.5,-124.4 511,-134.4 514.5,-124.4 507.5,-124.4"/>
</g>
<!-- Node12 -->
<g id="node12" class="node">
<title>Node12</title>
<g id="a_node12"><a xlink:href="_m_l_c_l___ternary_search_tree__test_8c.html" target="_top" xlink:title=" ">
<polygon fill="none" stroke="black" points="594.5,-67.5 594.5,-97.5 737.5,-97.5 737.5,-67.5 594.5,-67.5"/>
<text text-anchor="start" x="602.5" y="-85.5" font-family="Helvetica,sans-Serif" font-size="10.00">src/_Tests/Trees/MLCL</text>
<text text-anchor="middle" x="666" y="-74.5" font-family="Helvetica,sans-Serif" font-size="10.00">_TernarySearchTree_test.c</text>
</a>
</g>
</g>
<!-- Node11&#45;&gt;Node12 -->
<g id="edge11" class="edge">
<title>Node11&#45;&gt;Node12</title>
<path fill="none" stroke="midnightblue" d="M666,-124.11C666,-115.15 666,-105.32 666,-97.58"/>
<polygon fill="midnightblue" stroke="midnightblue" points="662.5,-124.4 666,-134.4 669.5,-124.4 662.5,-124.4"/>
</g>
<!-- Node13 -->
<g id="node13" class="node">
<title>Node13</title>
<g id="a_node13"><a xlink:href="_m_l_c_l___ternary_search_tree_8c.html" target="_top" xlink:title=" ">
<polygon fill="none" stroke="black" points="755.5,-67.5 755.5,-97.5 918.5,-97.5 918.5,-67.5 755.5,-67.5"/>
<text text-anchor="start" x="763.5" y="-85.5" font-family="Helvetica,sans-Serif" font-size="10.00">src/Trees/MLCL_TernarySearch</text>
<text text-anchor="middle" x="837" y="-74.5" font-family="Helvetica,sans-Serif" font-size="10.00">Tree.c</text>
</a>
</g>
</g>
<!-- Node11&#45;&gt;Node13 -->
<g id="edge12" class="edge">
<title>Node11&#45;&gt;Node13</title>
<path fill="none" stroke="midnightblue" d="M712.52,-130.82C740,-120.37 774.33,-107.32 799.97,-97.58"/>
<polygon fill="midnightblue" stroke="midnightblue" points="711.21,-127.57 703.1,-134.4 713.7,-134.11 711.21,-127.57"/>
</g>
<!-- Node16 -->
<g id="node16" class="node">
<title>Node16</title>
<g id="a_node16"><a xlink:href="_m_l_c_l___binary_heap__test_8h.html" target="_top" xlink:title=" ">
<polygon fill="none" stroke="black" points="902.5,-134.5 902.5,-164.5 1043.5,-164.5 1043.5,-134.5 902.5,-134.5"/>
<text text-anchor="start" x="910.5" y="-152.5" font-family="Helvetica,sans-Serif" font-size="10.00">include/_Tests/Heap</text>
<text text-anchor="middle" x="973" y="-141.5" font-family="Helvetica,sans-Serif" font-size="10.00">/MLCL_BinaryHeap_test.h</text>
</a>
</g>
</g>
<!-- Node15&#45;&gt;Node16 -->
<g id="edge15" class="edge">
<title>Node15&#45;&gt;Node16</title>
<path fill="none" stroke="midnightblue" d="M917.69,-194.88C930,-185.01 944.43,-173.43 955.46,-164.58"/>
<polygon fill="midnightblue" stroke="midnightblue" points="915.18,-192.41 909.58,-201.4 919.57,-197.87 915.18,-192.41"/>
</g>
<!-- Node20 -->
<g id="node20" class="node">
<title>Node20</title>
<g id="a_node20"><a xlink:href="_m_l_c_l___binary_heap_8c.html" target="_top" xlink:title=" ">
<polygon fill="none" stroke="black" points="1061.5,-140 1061.5,-159 1220.5,-159 1220.5,-140 1061.5,-140"/>
<text text-anchor="middle" x="1141" y="-147" font-family="Helvetica,sans-Serif" font-size="10.00">src/Heap/MLCL_BinaryHeap.c</text>
</a>
</g>
</g>
<!-- Node15&#45;&gt;Node20 -->
<g id="edge19" class="edge">
<title>Node15&#45;&gt;Node20</title>
<path fill="none" stroke="midnightblue" d="M955.55,-198.91C1004.32,-186.18 1069.64,-169.13 1108.33,-159.03"/>
<polygon fill="midnightblue" stroke="midnightblue" points="954.51,-195.56 945.72,-201.48 956.28,-202.34 954.51,-195.56"/>
</g>
<!-- Node17 -->
<g id="node17" class="node">
<title>Node17</title>
<g id="a_node17"><a xlink:href="_m_l_c_l___binary_heap__test_8c.html" target="_top" xlink:title=" ">
<polygon fill="none" stroke="black" points="937,-67.5 937,-97.5 1059,-97.5 1059,-67.5 937,-67.5"/>
<text text-anchor="start" x="945" y="-85.5" font-family="Helvetica,sans-Serif" font-size="10.00">src/_Tests/Heap/MLCL</text>
<text text-anchor="middle" x="998" y="-74.5" font-family="Helvetica,sans-Serif" font-size="10.00">_BinaryHeap_test.c</text>
</a>
</g>
</g>
<!-- Node16&#45;&gt;Node17 -->
<g id="edge16" class="edge">
<title>Node16&#45;&gt;Node17</title>
<path fill="none" stroke="midnightblue" d="M982.04,-124.99C985.58,-115.8 989.51,-105.58 992.59,-97.58"/>
<polygon fill="midnightblue" stroke="midnightblue" points="978.75,-123.81 978.42,-134.4 985.28,-126.32 978.75,-123.81"/>
</g>
<!-- Node18 -->
<g id="node18" class="node">
<title>Node18</title>
<g id="a_node18"><a xlink:href="_m_l_c_l__all__tests_8h.html" target="_top" xlink:title=" ">
<polygon fill="none" stroke="black" points="1077,-67.5 1077,-97.5 1191,-97.5 1191,-67.5 1077,-67.5"/>
<text text-anchor="start" x="1085" y="-85.5" font-family="Helvetica,sans-Serif" font-size="10.00">include/_Tests/MLCL</text>
<text text-anchor="middle" x="1134" y="-74.5" font-family="Helvetica,sans-Serif" font-size="10.00">_all_tests.h</text>
</a>
</g>
</g>
<!-- Node16&#45;&gt;Node18 -->
<g id="edge17" class="edge">
<title>Node16&#45;&gt;Node18</title>
<path fill="none" stroke="midnightblue" d="M1017.48,-130.54C1043.24,-120.14 1075.2,-107.24 1099.13,-97.58"/>
<polygon fill="midnightblue" stroke="midnightblue" points="1015.9,-127.41 1007.93,-134.4 1018.52,-133.9 1015.9,-127.41"/>
</g>
<!-- Node19 -->
<g id="node19" class="node">
<title>Node19</title>
<g id="a_node19"><a xlink:href="_m_l_c_l__all__tests_8c.html" target="_top" xlink:title=" ">
<polygon fill="none" stroke="black" points="1079,-0.5 1079,-30.5 1189,-30.5 1189,-0.5 1079,-0.5"/>
<text text-anchor="start" x="1087" y="-18.5" font-family="Helvetica,sans-Serif" font-size="10.00">src/_Tests/MLCL_all</text>
<text text-anchor="middle" x="1134" y="-7.5" font-family="Helvetica,sans-Serif" font-size="10.00">_tests.c</text>
</a>
</g>
</g>
<!-- Node18&#45;&gt;Node19 -->
<g id="edge18" class="edge">
<title>Node18&#45;&gt;Node19</title>
<path fill="none" stroke="midnightblue" d="M1134,-57.11C1134,-48.15 1134,-38.32 1134,-30.58"/>
<polygon fill="midnightblue" stroke="midnightblue" points="1130.5,-57.4 1134,-67.4 1137.5,-57.4 1130.5,-57.4"/>
</g>
</g>
</svg>
