<?xml version="1.0" encoding="UTF-8" standalone="no"?>
<!DOCTYPE svg PUBLIC "-//W3C//DTD SVG 1.1//EN"
 "http://www.w3.org/Graphics/SVG/1.1/DTD/svg11.dtd">
<!-- Generated by graphviz version 2.43.0 (0)
 -->
<!-- Title: include/MLCL_basic_types.h Pages: 1 -->
<svg width="1188pt" height="106pt"
 viewBox="0.00 0.00 1187.50 106.00" xmlns="http://www.w3.org/2000/svg" xmlns:xlink="http://www.w3.org/1999/xlink">
<g id="graph0" class="graph" transform="scale(1 1) rotate(0) translate(4 102)">
<title>include/MLCL_basic_types.h</title>
<!-- Node1 -->
<g id="node1" class="node">
<title>Node1</title>
<g id="a_node1"><a xlink:title=" ">
<polygon fill="#bfbfbf" stroke="black" points="520.5,-67.5 520.5,-97.5 632.5,-97.5 632.5,-67.5 520.5,-67.5"/>
<text text-anchor="start" x="528.5" y="-85.5" font-family="Helvetica,sans-Serif" font-size="10.00">include/MLCL_basic</text>
<text text-anchor="middle" x="576.5" y="-74.5" font-family="Helvetica,sans-Serif" font-size="10.00">_types.h</text>
</a>
</g>
</g>
<!-- Node2 -->
<g id="node2" class="node">
<title>Node2</title>
<g id="a_node2"><a xlink:href="_m_l_c_l__basic__types_8c.html" target="_top" xlink:title=" ">
<polygon fill="none" stroke="black" points="0,-6 0,-25 131,-25 131,-6 0,-6"/>
<text text-anchor="middle" x="65.5" y="-13" font-family="Helvetica,sans-Serif" font-size="10.00">src/MLCL_basic_types.c</text>
</a>
</g>
</g>
<!-- Node1&#45;&gt;Node2 -->
<g id="edge1" class="edge">
<title>Node1&#45;&gt;Node2</title>
<path fill="none" stroke="midnightblue" d="M510.32,-75.48C424.52,-67.31 270.4,-51.36 139.5,-31 128.63,-29.31 116.93,-27.17 106.11,-25.05"/>
<polygon fill="midnightblue" stroke="midnightblue" points="510.15,-78.98 520.43,-76.44 510.81,-72.01 510.15,-78.98"/>
</g>
<!-- Node3 -->
<g id="node3" class="node">
<title>Node3</title>
<g id="a_node3"><a xlink:href="_m_l_c_l___binary_tree__test_8c.html" target="_top" xlink:title=" ">
<polygon fill="none" stroke="black" points="149,-0.5 149,-30.5 294,-30.5 294,-0.5 149,-0.5"/>
<text text-anchor="start" x="157" y="-18.5" font-family="Helvetica,sans-Serif" font-size="10.00">src/Tests/MLCL_BinaryTree</text>
<text text-anchor="middle" x="221.5" y="-7.5" font-family="Helvetica,sans-Serif" font-size="10.00">_test.c</text>
</a>
</g>
</g>
<!-- Node1&#45;&gt;Node3 -->
<g id="edge2" class="edge">
<title>Node1&#45;&gt;Node3</title>
<path fill="none" stroke="midnightblue" d="M510.27,-69.37C448.8,-58.12 357.5,-41.4 294.08,-29.79"/>
<polygon fill="midnightblue" stroke="midnightblue" points="509.78,-72.84 520.25,-71.2 511.04,-65.96 509.78,-72.84"/>
</g>
<!-- Node4 -->
<g id="node4" class="node">
<title>Node4</title>
<g id="a_node4"><a xlink:href="_m_l_c_l___circular_double_linked_list__test_8c.html" target="_top" xlink:title=" ">
<polygon fill="none" stroke="black" points="312,-0.5 312,-30.5 477,-30.5 477,-0.5 312,-0.5"/>
<text text-anchor="start" x="320" y="-18.5" font-family="Helvetica,sans-Serif" font-size="10.00">src/Tests/MLCL_CircularDouble</text>
<text text-anchor="middle" x="394.5" y="-7.5" font-family="Helvetica,sans-Serif" font-size="10.00">LinkedList_test.c</text>
</a>
</g>
</g>
<!-- Node1&#45;&gt;Node4 -->
<g id="edge3" class="edge">
<title>Node1&#45;&gt;Node4</title>
<path fill="none" stroke="midnightblue" d="M527.37,-63.96C498.06,-53.48 461.32,-40.37 433.91,-30.58"/>
<polygon fill="midnightblue" stroke="midnightblue" points="526.41,-67.33 537.01,-67.4 528.77,-60.74 526.41,-67.33"/>
</g>
<!-- Node5 -->
<g id="node5" class="node">
<title>Node5</title>
<g id="a_node5"><a xlink:href="_m_l_c_l___circular_linked_list__test_8c.html" target="_top" xlink:title=" ">
<polygon fill="none" stroke="black" points="495.5,-0.5 495.5,-30.5 657.5,-30.5 657.5,-0.5 495.5,-0.5"/>
<text text-anchor="start" x="503.5" y="-18.5" font-family="Helvetica,sans-Serif" font-size="10.00">src/Tests/MLCL_CircularLinked</text>
<text text-anchor="middle" x="576.5" y="-7.5" font-family="Helvetica,sans-Serif" font-size="10.00">List_test.c</text>
</a>
</g>
</g>
<!-- Node1&#45;&gt;Node5 -->
<g id="edge4" class="edge">
<title>Node1&#45;&gt;Node5</title>
<path fill="none" stroke="midnightblue" d="M576.5,-57.11C576.5,-48.15 576.5,-38.32 576.5,-30.58"/>
<polygon fill="midnightblue" stroke="midnightblue" points="573,-57.4 576.5,-67.4 580,-57.4 573,-57.4"/>
</g>
<!-- Node6 -->
<g id="node6" class="node">
<title>Node6</title>
<g id="a_node6"><a xlink:href="_m_l_c_l___double_linked_list__test_8c.html" target="_top" xlink:title=" ">
<polygon fill="none" stroke="black" points="676,-0.5 676,-30.5 835,-30.5 835,-0.5 676,-0.5"/>
<text text-anchor="start" x="684" y="-18.5" font-family="Helvetica,sans-Serif" font-size="10.00">src/Tests/MLCL_DoubleLinked</text>
<text text-anchor="middle" x="755.5" y="-7.5" font-family="Helvetica,sans-Serif" font-size="10.00">List_test.c</text>
</a>
</g>
</g>
<!-- Node1&#45;&gt;Node6 -->
<g id="edge5" class="edge">
<title>Node1&#45;&gt;Node6</title>
<path fill="none" stroke="midnightblue" d="M624.82,-63.96C653.65,-53.48 689.78,-40.37 716.74,-30.58"/>
<polygon fill="midnightblue" stroke="midnightblue" points="623.55,-60.69 615.34,-67.4 625.93,-67.27 623.55,-60.69"/>
</g>
<!-- Node7 -->
<g id="node7" class="node">
<title>Node7</title>
<g id="a_node7"><a xlink:href="_m_l_c_l___linked_list__test_8c.html" target="_top" xlink:title=" ">
<polygon fill="none" stroke="black" points="853.5,-0.5 853.5,-30.5 995.5,-30.5 995.5,-0.5 853.5,-0.5"/>
<text text-anchor="start" x="861.5" y="-18.5" font-family="Helvetica,sans-Serif" font-size="10.00">src/Tests/MLCL_LinkedList</text>
<text text-anchor="middle" x="924.5" y="-7.5" font-family="Helvetica,sans-Serif" font-size="10.00">_test.c</text>
</a>
</g>
</g>
<!-- Node1&#45;&gt;Node7 -->
<g id="edge6" class="edge">
<title>Node1&#45;&gt;Node7</title>
<path fill="none" stroke="midnightblue" d="M642.95,-69.09C703.14,-57.85 791.57,-41.33 853.22,-29.81"/>
<polygon fill="midnightblue" stroke="midnightblue" points="641.99,-65.71 632.8,-70.98 643.27,-72.59 641.99,-65.71"/>
</g>
<!-- Node8 -->
<g id="node8" class="node">
<title>Node8</title>
<g id="a_node8"><a xlink:href="_m_l_c_l___type_descriptor__test_8c.html" target="_top" xlink:title=" ">
<polygon fill="none" stroke="black" points="1013.5,-0.5 1013.5,-30.5 1179.5,-30.5 1179.5,-0.5 1013.5,-0.5"/>
<text text-anchor="start" x="1021.5" y="-18.5" font-family="Helvetica,sans-Serif" font-size="10.00">src/Tests/MLCL_TypeDescriptor</text>
<text text-anchor="middle" x="1096.5" y="-7.5" font-family="Helvetica,sans-Serif" font-size="10.00">_test.c</text>
</a>
</g>
</g>
<!-- Node1&#45;&gt;Node8 -->
<g id="edge7" class="edge">
<title>Node1&#45;&gt;Node8</title>
<path fill="none" stroke="midnightblue" d="M642.86,-74.48C727.09,-65.38 876.78,-48.59 1004.5,-31 1007.38,-30.6 1010.32,-30.19 1013.28,-29.77"/>
<polygon fill="midnightblue" stroke="midnightblue" points="642.24,-71.03 632.67,-75.58 642.99,-77.99 642.24,-71.03"/>
</g>
</g>
</svg>
