<?xml version="1.0" encoding="UTF-8" standalone="no"?>
<!DOCTYPE svg PUBLIC "-//W3C//DTD SVG 1.1//EN"
 "http://www.w3.org/Graphics/SVG/1.1/DTD/svg11.dtd">
<!-- Generated by graphviz version 2.43.0 (0)
 -->
<!-- Title: include/_Tests/MLCL_exceptions.h Pages: 1 -->
<svg width="1953pt" height="117pt"
 viewBox="0.00 0.00 1952.50 117.00" xmlns="http://www.w3.org/2000/svg" xmlns:xlink="http://www.w3.org/1999/xlink">
<g id="graph0" class="graph" transform="scale(1 1) rotate(0) translate(4 113)">
<title>include/_Tests/MLCL_exceptions.h</title>
<!-- Node1 -->
<g id="node1" class="node">
<title>Node1</title>
<g id="a_node1"><a xlink:title=" ">
<polygon fill="#bfbfbf" stroke="black" points="892,-78.5 892,-108.5 1006,-108.5 1006,-78.5 892,-78.5"/>
<text text-anchor="start" x="900" y="-96.5" font-family="Helvetica,sans-Serif" font-size="10.00">include/_Tests/MLCL</text>
<text text-anchor="middle" x="949" y="-85.5" font-family="Helvetica,sans-Serif" font-size="10.00">_exceptions.h</text>
</a>
</g>
</g>
<!-- Node2 -->
<g id="node2" class="node">
<title>Node2</title>
<g id="a_node2"><a xlink:href="_m_l_c_l___binary_heap__test_8c.html" target="_top" xlink:title=" ">
<polygon fill="none" stroke="black" points="0,-6 0,-36 122,-36 122,-6 0,-6"/>
<text text-anchor="start" x="8" y="-24" font-family="Helvetica,sans-Serif" font-size="10.00">src/_Tests/Heap/MLCL</text>
<text text-anchor="middle" x="61" y="-13" font-family="Helvetica,sans-Serif" font-size="10.00">_BinaryHeap_test.c</text>
</a>
</g>
</g>
<!-- Node1&#45;&gt;Node2 -->
<g id="edge1" class="edge">
<title>Node1&#45;&gt;Node2</title>
<path fill="none" stroke="midnightblue" d="M881.81,-93.25C741.31,-93.74 406.67,-89.31 131,-42 122.4,-40.52 113.36,-38.39 104.73,-36.06"/>
<polygon fill="midnightblue" stroke="midnightblue" points="882,-96.75 891.98,-93.2 881.97,-89.75 882,-96.75"/>
</g>
<!-- Node3 -->
<g id="node3" class="node">
<title>Node3</title>
<g id="a_node3"><a xlink:href="_m_l_c_l___array_list__test_8c.html" target="_top" xlink:title=" ">
<polygon fill="none" stroke="black" points="140.5,-6 140.5,-36 259.5,-36 259.5,-6 140.5,-6"/>
<text text-anchor="start" x="148.5" y="-24" font-family="Helvetica,sans-Serif" font-size="10.00">src/_Tests/Lists/MLCL</text>
<text text-anchor="middle" x="200" y="-13" font-family="Helvetica,sans-Serif" font-size="10.00">_ArrayList_test.c</text>
</a>
</g>
</g>
<!-- Node1&#45;&gt;Node3 -->
<g id="edge2" class="edge">
<title>Node1&#45;&gt;Node3</title>
<path fill="none" stroke="midnightblue" d="M881.98,-92.22C759.2,-90.67 490.36,-82.47 268,-42 259.77,-40.5 251.11,-38.39 242.84,-36.09"/>
<polygon fill="midnightblue" stroke="midnightblue" points="881.94,-95.72 891.98,-92.34 882.02,-88.72 881.94,-95.72"/>
</g>
<!-- Node4 -->
<g id="node4" class="node">
<title>Node4</title>
<g id="a_node4"><a xlink:href="_m_l_c_l___circular_double_linked_list__test_8c.html" target="_top" xlink:title=" ">
<polygon fill="none" stroke="black" points="277.5,-0.5 277.5,-41.5 420.5,-41.5 420.5,-0.5 277.5,-0.5"/>
<text text-anchor="start" x="285.5" y="-29.5" font-family="Helvetica,sans-Serif" font-size="10.00">src/_Tests/Lists/MLCL</text>
<text text-anchor="start" x="285.5" y="-18.5" font-family="Helvetica,sans-Serif" font-size="10.00">_CircularDoubleLinkedList</text>
<text text-anchor="middle" x="349" y="-7.5" font-family="Helvetica,sans-Serif" font-size="10.00">_test.c</text>
</a>
</g>
</g>
<!-- Node1&#45;&gt;Node4 -->
<g id="edge3" class="edge">
<title>Node1&#45;&gt;Node4</title>
<path fill="none" stroke="midnightblue" d="M881.61,-89.07C782.22,-83.31 590.73,-69.51 430,-42 427,-41.49 423.95,-40.92 420.87,-40.32"/>
<polygon fill="midnightblue" stroke="midnightblue" points="881.63,-92.58 891.81,-89.65 882.03,-85.59 881.63,-92.58"/>
</g>
<!-- Node5 -->
<g id="node5" class="node">
<title>Node5</title>
<g id="a_node5"><a xlink:href="_m_l_c_l___circular_linked_list__test_8c.html" target="_top" xlink:title=" ">
<polygon fill="none" stroke="black" points="439,-6 439,-36 579,-36 579,-6 439,-6"/>
<text text-anchor="start" x="447" y="-24" font-family="Helvetica,sans-Serif" font-size="10.00">src/_Tests/Lists/MLCL</text>
<text text-anchor="middle" x="509" y="-13" font-family="Helvetica,sans-Serif" font-size="10.00">_CircularLinkedList_test.c</text>
</a>
</g>
</g>
<!-- Node1&#45;&gt;Node5 -->
<g id="edge4" class="edge">
<title>Node1&#45;&gt;Node5</title>
<path fill="none" stroke="midnightblue" d="M881.83,-85.32C809.06,-77.03 689.72,-61.93 588,-42 579.25,-40.29 570.03,-38.2 561.09,-36.04"/>
<polygon fill="midnightblue" stroke="midnightblue" points="881.45,-88.8 891.78,-86.45 882.24,-81.85 881.45,-88.8"/>
</g>
<!-- Node6 -->
<g id="node6" class="node">
<title>Node6</title>
<g id="a_node6"><a xlink:href="_m_l_c_l___double_linked_list__test_8c.html" target="_top" xlink:title=" ">
<polygon fill="none" stroke="black" points="597.5,-6 597.5,-36 734.5,-36 734.5,-6 597.5,-6"/>
<text text-anchor="start" x="605.5" y="-24" font-family="Helvetica,sans-Serif" font-size="10.00">src/_Tests/Lists/MLCL</text>
<text text-anchor="middle" x="666" y="-13" font-family="Helvetica,sans-Serif" font-size="10.00">_DoubleLinkedList_test.c</text>
</a>
</g>
</g>
<!-- Node1&#45;&gt;Node6 -->
<g id="edge5" class="edge">
<title>Node1&#45;&gt;Node6</title>
<path fill="none" stroke="midnightblue" d="M881.7,-76.25C841.43,-66.46 789.24,-53.67 743,-42 735.5,-40.11 727.6,-38.09 719.83,-36.08"/>
<polygon fill="midnightblue" stroke="midnightblue" points="881.13,-79.71 891.67,-78.67 882.78,-72.91 881.13,-79.71"/>
</g>
<!-- Node7 -->
<g id="node7" class="node">
<title>Node7</title>
<g id="a_node7"><a xlink:href="_m_l_c_l___linked_list__test_8c.html" target="_top" xlink:title=" ">
<polygon fill="none" stroke="black" points="752.5,-6 752.5,-36 871.5,-36 871.5,-6 752.5,-6"/>
<text text-anchor="start" x="760.5" y="-24" font-family="Helvetica,sans-Serif" font-size="10.00">src/_Tests/Lists/MLCL</text>
<text text-anchor="middle" x="812" y="-13" font-family="Helvetica,sans-Serif" font-size="10.00">_LinkedList_test.c</text>
</a>
</g>
</g>
<!-- Node1&#45;&gt;Node7 -->
<g id="edge6" class="edge">
<title>Node1&#45;&gt;Node7</title>
<path fill="none" stroke="midnightblue" d="M912.5,-73.72C889.51,-61.89 860.34,-46.87 839.35,-36.07"/>
<polygon fill="midnightblue" stroke="midnightblue" points="911.11,-76.94 921.61,-78.4 914.32,-70.71 911.11,-76.94"/>
</g>
<!-- Node8 -->
<g id="node8" class="node">
<title>Node8</title>
<g id="a_node8"><a xlink:href="_m_l_c_l___list__test_8c.html" target="_top" xlink:title=" ">
<polygon fill="none" stroke="black" points="889.5,-6 889.5,-36 1008.5,-36 1008.5,-6 889.5,-6"/>
<text text-anchor="start" x="897.5" y="-24" font-family="Helvetica,sans-Serif" font-size="10.00">src/_Tests/Lists/MLCL</text>
<text text-anchor="middle" x="949" y="-13" font-family="Helvetica,sans-Serif" font-size="10.00">_List_test.c</text>
</a>
</g>
</g>
<!-- Node1&#45;&gt;Node8 -->
<g id="edge7" class="edge">
<title>Node1&#45;&gt;Node8</title>
<path fill="none" stroke="midnightblue" d="M949,-68.23C949,-57.57 949,-45.41 949,-36.25"/>
<polygon fill="midnightblue" stroke="midnightblue" points="945.5,-68.23 949,-78.23 952.5,-68.23 945.5,-68.23"/>
</g>
<!-- Node9 -->
<g id="node9" class="node">
<title>Node9</title>
<g id="a_node9"><a xlink:href="_m_l_c_l___type_descriptor__test_8c.html" target="_top" xlink:title=" ">
<polygon fill="none" stroke="black" points="1026.5,-6 1026.5,-36 1197.5,-36 1197.5,-6 1026.5,-6"/>
<text text-anchor="start" x="1034.5" y="-24" font-family="Helvetica,sans-Serif" font-size="10.00">src/_Tests/MLCL_TypeDescriptor</text>
<text text-anchor="middle" x="1112" y="-13" font-family="Helvetica,sans-Serif" font-size="10.00">_test.c</text>
</a>
</g>
</g>
<!-- Node1&#45;&gt;Node9 -->
<g id="edge8" class="edge">
<title>Node1&#45;&gt;Node9</title>
<path fill="none" stroke="midnightblue" d="M990.98,-74.34C1018.54,-62.42 1054.05,-47.07 1079.46,-36.07"/>
<polygon fill="midnightblue" stroke="midnightblue" points="989.38,-71.22 981.59,-78.4 992.16,-77.65 989.38,-71.22"/>
</g>
<!-- Node10 -->
<g id="node10" class="node">
<title>Node10</title>
<g id="a_node10"><a xlink:href="_m_l_c_l___queue__test_8c.html" target="_top" xlink:title=" ">
<polygon fill="none" stroke="black" points="1216,-6 1216,-36 1344,-36 1344,-6 1216,-6"/>
<text text-anchor="start" x="1224" y="-24" font-family="Helvetica,sans-Serif" font-size="10.00">src/_Tests/Queue/MLCL</text>
<text text-anchor="middle" x="1280" y="-13" font-family="Helvetica,sans-Serif" font-size="10.00">_Queue_test.c</text>
</a>
</g>
</g>
<!-- Node1&#45;&gt;Node10 -->
<g id="edge9" class="edge">
<title>Node1&#45;&gt;Node10</title>
<path fill="none" stroke="midnightblue" d="M1016.28,-80.74C1068.51,-71.27 1142.64,-57.09 1207,-42 1214.68,-40.2 1222.76,-38.14 1230.65,-36.05"/>
<polygon fill="midnightblue" stroke="midnightblue" points="1015.35,-77.35 1006.13,-82.57 1016.6,-84.24 1015.35,-77.35"/>
</g>
<!-- Node11 -->
<g id="node11" class="node">
<title>Node11</title>
<g id="a_node11"><a xlink:href="_m_l_c_l___stack__test_8c.html" target="_top" xlink:title=" ">
<polygon fill="none" stroke="black" points="1362.5,-6 1362.5,-36 1485.5,-36 1485.5,-6 1362.5,-6"/>
<text text-anchor="start" x="1370.5" y="-24" font-family="Helvetica,sans-Serif" font-size="10.00">src/_Tests/Stack/MLCL</text>
<text text-anchor="middle" x="1424" y="-13" font-family="Helvetica,sans-Serif" font-size="10.00">_Stack_test.c</text>
</a>
</g>
</g>
<!-- Node1&#45;&gt;Node11 -->
<g id="edge10" class="edge">
<title>Node1&#45;&gt;Node11</title>
<path fill="none" stroke="midnightblue" d="M1016.32,-87.2C1096.92,-80.14 1235.73,-65.71 1353,-42 1361.16,-40.35 1369.75,-38.25 1378.03,-36.03"/>
<polygon fill="midnightblue" stroke="midnightblue" points="1015.97,-83.72 1006.31,-88.07 1016.57,-90.69 1015.97,-83.72"/>
</g>
<!-- Node12 -->
<g id="node12" class="node">
<title>Node12</title>
<g id="a_node12"><a xlink:href="_m_l_c_l___a_v_l_tree__test_8c.html" target="_top" xlink:title=" ">
<polygon fill="none" stroke="black" points="1504,-6 1504,-36 1626,-36 1626,-6 1504,-6"/>
<text text-anchor="start" x="1512" y="-24" font-family="Helvetica,sans-Serif" font-size="10.00">src/_Tests/Trees/MLCL</text>
<text text-anchor="middle" x="1565" y="-13" font-family="Helvetica,sans-Serif" font-size="10.00">_AVLTree_test.c</text>
</a>
</g>
</g>
<!-- Node1&#45;&gt;Node12 -->
<g id="edge11" class="edge">
<title>Node1&#45;&gt;Node12</title>
<path fill="none" stroke="midnightblue" d="M1016.08,-90.31C1119.63,-86.03 1324.31,-73.99 1495,-42 1503.32,-40.44 1512.08,-38.33 1520.48,-36.06"/>
<polygon fill="midnightblue" stroke="midnightblue" points="1015.93,-86.81 1006.07,-90.71 1016.21,-93.81 1015.93,-86.81"/>
</g>
<!-- Node13 -->
<g id="node13" class="node">
<title>Node13</title>
<g id="a_node13"><a xlink:href="_m_l_c_l___binary_search_tree__test_8c.html" target="_top" xlink:title=" ">
<polygon fill="none" stroke="black" points="1644.5,-6 1644.5,-36 1783.5,-36 1783.5,-6 1644.5,-6"/>
<text text-anchor="start" x="1652.5" y="-24" font-family="Helvetica,sans-Serif" font-size="10.00">src/_Tests/Trees/MLCL</text>
<text text-anchor="middle" x="1714" y="-13" font-family="Helvetica,sans-Serif" font-size="10.00">_BinarySearchTree_test.c</text>
</a>
</g>
</g>
<!-- Node1&#45;&gt;Node13 -->
<g id="edge12" class="edge">
<title>Node1&#45;&gt;Node13</title>
<path fill="none" stroke="midnightblue" d="M1016.37,-91.43C1139.82,-88.61 1410.27,-78.43 1635,-42 1644.5,-40.46 1654.52,-38.33 1664.13,-36.03"/>
<polygon fill="midnightblue" stroke="midnightblue" points="1016.23,-87.93 1006.31,-91.65 1016.38,-94.93 1016.23,-87.93"/>
</g>
<!-- Node14 -->
<g id="node14" class="node">
<title>Node14</title>
<g id="a_node14"><a xlink:href="_m_l_c_l___ternary_search_tree__test_8c.html" target="_top" xlink:title=" ">
<polygon fill="none" stroke="black" points="1801.5,-6 1801.5,-36 1944.5,-36 1944.5,-6 1801.5,-6"/>
<text text-anchor="start" x="1809.5" y="-24" font-family="Helvetica,sans-Serif" font-size="10.00">src/_Tests/Trees/MLCL</text>
<text text-anchor="middle" x="1873" y="-13" font-family="Helvetica,sans-Serif" font-size="10.00">_TernarySearchTree_test.c</text>
</a>
</g>
</g>
<!-- Node1&#45;&gt;Node14 -->
<g id="edge13" class="edge">
<title>Node1&#45;&gt;Node14</title>
<path fill="none" stroke="midnightblue" d="M1016.6,-92.69C1160.36,-92.16 1506.72,-85.96 1793,-42 1802.76,-40.5 1813.08,-38.36 1822.93,-36.02"/>
<polygon fill="midnightblue" stroke="midnightblue" points="1016.18,-89.19 1006.19,-92.72 1016.2,-96.19 1016.18,-89.19"/>
</g>
</g>
</svg>
