<?xml version="1.0" encoding="UTF-8" standalone="no"?>
<!DOCTYPE svg PUBLIC "-//W3C//DTD SVG 1.1//EN"
 "http://www.w3.org/Graphics/SVG/1.1/DTD/svg11.dtd">
<!-- Generated by graphviz version 2.43.0 (0)
 -->
<!-- Title: src/Lists/MLCL_List.c Pages: 1 -->
<svg width="534pt" height="330pt"
 viewBox="0.00 0.00 533.69 330.00" xmlns="http://www.w3.org/2000/svg" xmlns:xlink="http://www.w3.org/1999/xlink">
<g id="graph0" class="graph" transform="scale(1 1) rotate(0) translate(4 326)">
<title>src/Lists/MLCL_List.c</title>
<!-- Node1 -->
<g id="node1" class="node">
<title>Node1</title>
<g id="a_node1"><a xlink:title=" ">
<polygon fill="#bfbfbf" stroke="black" points="199.69,-302.5 199.69,-321.5 315.69,-321.5 315.69,-302.5 199.69,-302.5"/>
<text text-anchor="middle" x="257.69" y="-309.5" font-family="Helvetica,sans-Serif" font-size="10.00">src/Lists/MLCL_List.c</text>
</a>
</g>
</g>
<!-- Node2 -->
<g id="node2" class="node">
<title>Node2</title>
<g id="a_node2"><a xlink:href="_m_l_c_l___list_8h.html" target="_top" xlink:title=" ">
<polygon fill="none" stroke="black" points="210.19,-235.5 210.19,-265.5 305.19,-265.5 305.19,-235.5 210.19,-235.5"/>
<text text-anchor="start" x="218.19" y="-253.5" font-family="Helvetica,sans-Serif" font-size="10.00">../../include/Lists</text>
<text text-anchor="middle" x="257.69" y="-242.5" font-family="Helvetica,sans-Serif" font-size="10.00">/MLCL_List.h</text>
</a>
</g>
</g>
<!-- Node1&#45;&gt;Node2 -->
<g id="edge1" class="edge">
<title>Node1&#45;&gt;Node2</title>
<path fill="none" stroke="midnightblue" d="M257.69,-302.48C257.69,-295.47 257.69,-285.19 257.69,-275.7"/>
<polygon fill="midnightblue" stroke="midnightblue" points="261.19,-275.52 257.69,-265.52 254.19,-275.52 261.19,-275.52"/>
</g>
<!-- Node4 -->
<g id="node4" class="node">
<title>Node4</title>
<g id="a_node4"><a xlink:href="_m_l_c_l___type_descriptor_8h.html" target="_top" xlink:title=" ">
<polygon fill="none" stroke="black" points="56.69,-56.5 56.69,-75.5 194.69,-75.5 194.69,-56.5 56.69,-56.5"/>
<text text-anchor="middle" x="125.69" y="-63.5" font-family="Helvetica,sans-Serif" font-size="10.00">../MLCL_TypeDescriptor.h</text>
</a>
</g>
</g>
<!-- Node1&#45;&gt;Node4 -->
<g id="edge18" class="edge">
<title>Node1&#45;&gt;Node4</title>
<path fill="none" stroke="midnightblue" d="M199.65,-303.21C139.94,-291.76 49.9,-264.16 7.69,-199 -23.52,-150.81 53.64,-102.67 97.64,-80.16"/>
<polygon fill="midnightblue" stroke="midnightblue" points="99.35,-83.22 106.74,-75.63 96.22,-76.95 99.35,-83.22"/>
</g>
<!-- Node12 -->
<g id="node12" class="node">
<title>Node12</title>
<g id="a_node12"><a xlink:title=" ">
<polygon fill="none" stroke="#bfbfbf" points="323.19,-241 323.19,-260 376.19,-260 376.19,-241 323.19,-241"/>
<text text-anchor="middle" x="349.69" y="-248" font-family="Helvetica,sans-Serif" font-size="10.00">string.h</text>
</a>
</g>
</g>
<!-- Node1&#45;&gt;Node12 -->
<g id="edge19" class="edge">
<title>Node1&#45;&gt;Node12</title>
<path fill="none" stroke="midnightblue" d="M270.88,-302.48C285.77,-292.84 310.24,-277.02 327.97,-265.55"/>
<polygon fill="midnightblue" stroke="midnightblue" points="330.04,-268.38 336.54,-260.01 326.24,-262.5 330.04,-268.38"/>
</g>
<!-- Node3 -->
<g id="node3" class="node">
<title>Node3</title>
<g id="a_node3"><a xlink:href="_m_l_c_l___array_list_8h.html" target="_top" xlink:title=" ">
<polygon fill="none" stroke="black" points="17.19,-174 17.19,-193 118.19,-193 118.19,-174 17.19,-174"/>
<text text-anchor="middle" x="67.69" y="-181" font-family="Helvetica,sans-Serif" font-size="10.00">MLCL_ArrayList.h</text>
</a>
</g>
</g>
<!-- Node2&#45;&gt;Node3 -->
<g id="edge2" class="edge">
<title>Node2&#45;&gt;Node3</title>
<path fill="none" stroke="midnightblue" d="M216.47,-235.4C182.39,-223.74 134.55,-207.37 102.41,-196.38"/>
<polygon fill="midnightblue" stroke="midnightblue" points="103.16,-192.93 92.56,-193.01 100.89,-199.56 103.16,-192.93"/>
</g>
<!-- Node7 -->
<g id="node7" class="node">
<title>Node7</title>
<g id="a_node7"><a xlink:href="_m_l_c_l___linked_list_8h.html" target="_top" xlink:title=" ">
<polygon fill="none" stroke="black" points="169.69,-112.5 169.69,-131.5 275.69,-131.5 275.69,-112.5 169.69,-112.5"/>
<text text-anchor="middle" x="222.69" y="-119.5" font-family="Helvetica,sans-Serif" font-size="10.00">MLCL_LinkedList.h</text>
</a>
</g>
</g>
<!-- Node2&#45;&gt;Node7 -->
<g id="edge6" class="edge">
<title>Node2&#45;&gt;Node7</title>
<path fill="none" stroke="midnightblue" d="M269.83,-235.48C282.66,-218.86 299.52,-190.57 287.69,-168 280.42,-154.11 266.68,-143.65 253.71,-136.33"/>
<polygon fill="midnightblue" stroke="midnightblue" points="254.99,-133.05 244.5,-131.55 251.77,-139.27 254.99,-133.05"/>
</g>
<!-- Node8 -->
<g id="node8" class="node">
<title>Node8</title>
<g id="a_node8"><a xlink:href="_m_l_c_l___circular_linked_list_8h.html" target="_top" xlink:title=" ">
<polygon fill="none" stroke="black" points="136.19,-174 136.19,-193 279.19,-193 279.19,-174 136.19,-174"/>
<text text-anchor="middle" x="207.69" y="-181" font-family="Helvetica,sans-Serif" font-size="10.00">MLCL_CircularLinkedList.h</text>
</a>
</g>
</g>
<!-- Node2&#45;&gt;Node8 -->
<g id="edge10" class="edge">
<title>Node2&#45;&gt;Node8</title>
<path fill="none" stroke="midnightblue" d="M246.84,-235.4C239.13,-225.36 228.72,-211.84 220.58,-201.25"/>
<polygon fill="midnightblue" stroke="midnightblue" points="223.25,-198.99 214.38,-193.19 217.7,-203.25 223.25,-198.99"/>
</g>
<!-- Node10 -->
<g id="node10" class="node">
<title>Node10</title>
<g id="a_node10"><a xlink:href="_m_l_c_l___double_linked_list_8h.html" target="_top" xlink:title=" ">
<polygon fill="none" stroke="black" points="293.69,-112.5 293.69,-131.5 433.69,-131.5 433.69,-112.5 293.69,-112.5"/>
<text text-anchor="middle" x="363.69" y="-119.5" font-family="Helvetica,sans-Serif" font-size="10.00">MLCL_DoubleLinkedList.h</text>
</a>
</g>
</g>
<!-- Node2&#45;&gt;Node10 -->
<g id="edge13" class="edge">
<title>Node2&#45;&gt;Node10</title>
<path fill="none" stroke="midnightblue" d="M271.62,-235.23C281.16,-225.28 293.99,-211.59 304.69,-199 321.52,-179.22 339.67,-155.43 351.33,-139.8"/>
<polygon fill="midnightblue" stroke="midnightblue" points="354.24,-141.75 357.39,-131.63 348.62,-137.58 354.24,-141.75"/>
</g>
<!-- Node11 -->
<g id="node11" class="node">
<title>Node11</title>
<g id="a_node11"><a xlink:href="_m_l_c_l___circular_double_linked_list_8h.html" target="_top" xlink:title=" ">
<polygon fill="none" stroke="black" points="373.69,-168.5 373.69,-198.5 525.69,-198.5 525.69,-168.5 373.69,-168.5"/>
<text text-anchor="start" x="381.69" y="-186.5" font-family="Helvetica,sans-Serif" font-size="10.00">MLCL_CircularDoubleLinked</text>
<text text-anchor="middle" x="449.69" y="-175.5" font-family="Helvetica,sans-Serif" font-size="10.00">List.h</text>
</a>
</g>
</g>
<!-- Node2&#45;&gt;Node11 -->
<g id="edge16" class="edge">
<title>Node2&#45;&gt;Node11</title>
<path fill="none" stroke="midnightblue" d="M299.36,-235.4C328.41,-225.56 367.38,-212.37 398.36,-201.88"/>
<polygon fill="midnightblue" stroke="midnightblue" points="399.76,-205.1 408.11,-198.58 397.52,-198.47 399.76,-205.1"/>
</g>
<!-- Node3&#45;&gt;Node4 -->
<g id="edge3" class="edge">
<title>Node3&#45;&gt;Node4</title>
<path fill="none" stroke="midnightblue" d="M68.76,-173.79C70.72,-160 75.74,-132.59 86.69,-112 92.37,-101.32 101.01,-91 108.71,-82.95"/>
<polygon fill="midnightblue" stroke="midnightblue" points="111.35,-85.26 115.96,-75.72 106.4,-80.3 111.35,-85.26"/>
</g>
<!-- Node5 -->
<g id="node5" class="node">
<title>Node5</title>
<g id="a_node5"><a xlink:title=" ">
<polygon fill="none" stroke="#bfbfbf" points="234.19,-0.5 234.19,-19.5 287.19,-19.5 287.19,-0.5 234.19,-0.5"/>
<text text-anchor="middle" x="260.69" y="-7.5" font-family="Helvetica,sans-Serif" font-size="10.00">stdlib.h</text>
</a>
</g>
</g>
<!-- Node4&#45;&gt;Node5 -->
<g id="edge4" class="edge">
<title>Node4&#45;&gt;Node5</title>
<path fill="none" stroke="midnightblue" d="M147.09,-56.44C169.4,-47.52 204.6,-33.44 229.9,-23.32"/>
<polygon fill="midnightblue" stroke="midnightblue" points="231.42,-26.48 239.4,-19.52 228.82,-19.98 231.42,-26.48"/>
</g>
<!-- Node6 -->
<g id="node6" class="node">
<title>Node6</title>
<g id="a_node6"><a xlink:title=" ">
<polygon fill="none" stroke="#bfbfbf" points="133.69,-0.5 133.69,-19.5 183.69,-19.5 183.69,-0.5 133.69,-0.5"/>
<text text-anchor="middle" x="158.69" y="-7.5" font-family="Helvetica,sans-Serif" font-size="10.00">stdio.h</text>
</a>
</g>
</g>
<!-- Node4&#45;&gt;Node6 -->
<g id="edge5" class="edge">
<title>Node4&#45;&gt;Node6</title>
<path fill="none" stroke="midnightblue" d="M131.14,-56.08C135.71,-48.61 142.36,-37.72 147.99,-28.52"/>
<polygon fill="midnightblue" stroke="midnightblue" points="151.12,-30.11 153.35,-19.75 145.14,-26.46 151.12,-30.11"/>
</g>
<!-- Node7&#45;&gt;Node4 -->
<g id="edge7" class="edge">
<title>Node7&#45;&gt;Node4</title>
<path fill="none" stroke="midnightblue" d="M207.11,-112.32C191.69,-103.74 167.88,-90.49 149.98,-80.52"/>
<polygon fill="midnightblue" stroke="midnightblue" points="151.68,-77.46 141.24,-75.65 148.27,-83.58 151.68,-77.46"/>
</g>
<!-- Node7&#45;&gt;Node5 -->
<g id="edge8" class="edge">
<title>Node7&#45;&gt;Node5</title>
<path fill="none" stroke="midnightblue" d="M225.68,-112.37C231.84,-94.54 246.08,-53.3 254.38,-29.27"/>
<polygon fill="midnightblue" stroke="midnightblue" points="257.77,-30.19 257.73,-19.59 251.15,-27.9 257.77,-30.19"/>
</g>
<!-- Node7&#45;&gt;Node6 -->
<g id="edge9" class="edge">
<title>Node7&#45;&gt;Node6</title>
<path fill="none" stroke="midnightblue" d="M221.58,-112.46C219.6,-99.5 214.6,-74.41 203.69,-56 197.05,-44.79 186.98,-34.36 178.05,-26.37"/>
<polygon fill="midnightblue" stroke="midnightblue" points="180.18,-23.59 170.3,-19.77 175.64,-28.92 180.18,-23.59"/>
</g>
<!-- Node8&#45;&gt;Node7 -->
<g id="edge11" class="edge">
<title>Node8&#45;&gt;Node7</title>
<path fill="none" stroke="midnightblue" d="M209.84,-173.98C211.98,-165.49 215.33,-152.2 218.07,-141.32"/>
<polygon fill="midnightblue" stroke="midnightblue" points="221.5,-142.06 220.55,-131.51 214.71,-140.35 221.5,-142.06"/>
</g>
<!-- Node9 -->
<g id="node9" class="node">
<title>Node9</title>
<g id="a_node9"><a xlink:title=" ">
<polygon fill="none" stroke="#bfbfbf" points="95.69,-112.5 95.69,-131.5 151.69,-131.5 151.69,-112.5 95.69,-112.5"/>
<text text-anchor="middle" x="123.69" y="-119.5" font-family="Helvetica,sans-Serif" font-size="10.00">assert.h</text>
</a>
</g>
</g>
<!-- Node8&#45;&gt;Node9 -->
<g id="edge12" class="edge">
<title>Node8&#45;&gt;Node9</title>
<path fill="none" stroke="midnightblue" d="M195.66,-173.98C182.19,-164.43 160.13,-148.81 143.98,-137.37"/>
<polygon fill="midnightblue" stroke="midnightblue" points="145.89,-134.43 135.71,-131.51 141.84,-140.15 145.89,-134.43"/>
</g>
<!-- Node10&#45;&gt;Node4 -->
<g id="edge15" class="edge">
<title>Node10&#45;&gt;Node4</title>
<path fill="none" stroke="midnightblue" d="M325.98,-112.44C284.55,-103.04 217.94,-87.93 173.03,-77.74"/>
<polygon fill="midnightblue" stroke="midnightblue" points="173.76,-74.32 163.23,-75.52 172.21,-81.14 173.76,-74.32"/>
</g>
<!-- Node10&#45;&gt;Node5 -->
<g id="edge14" class="edge">
<title>Node10&#45;&gt;Node5</title>
<path fill="none" stroke="midnightblue" d="M355.61,-112.37C338.39,-93.97 297.84,-50.67 275.72,-27.05"/>
<polygon fill="midnightblue" stroke="midnightblue" points="278.13,-24.5 268.74,-19.59 273.02,-29.28 278.13,-24.5"/>
</g>
<!-- Node11&#45;&gt;Node10 -->
<g id="edge17" class="edge">
<title>Node11&#45;&gt;Node10</title>
<path fill="none" stroke="midnightblue" d="M429.31,-168.4C415.79,-159.04 398.08,-146.79 384.47,-137.38"/>
<polygon fill="midnightblue" stroke="midnightblue" points="386.42,-134.47 376.21,-131.66 382.44,-140.23 386.42,-134.47"/>
</g>
</g>
</svg>
