<?xml version="1.0" encoding="UTF-8" standalone="no"?>
<!DOCTYPE svg PUBLIC "-//W3C//DTD SVG 1.1//EN"
 "http://www.w3.org/Graphics/SVG/1.1/DTD/svg11.dtd">
<!-- Generated by graphviz version 2.43.0 (0)
 -->
<!-- Title: include/MLCL_TypeDescriptor.h Pages: 1 -->
<svg width="2468pt" height="385pt"
 viewBox="0.00 0.00 2468.08 385.00" xmlns="http://www.w3.org/2000/svg" xmlns:xlink="http://www.w3.org/1999/xlink">
<g id="graph0" class="graph" transform="scale(1 1) rotate(0) translate(4 381)">
<title>include/MLCL_TypeDescriptor.h</title>
<!-- Node1 -->
<g id="node1" class="node">
<title>Node1</title>
<g id="a_node1"><a xlink:title=" ">
<polygon fill="#bfbfbf" stroke="black" points="1403.69,-357.5 1403.69,-376.5 1570.69,-376.5 1570.69,-357.5 1403.69,-357.5"/>
<text text-anchor="middle" x="1487.19" y="-364.5" font-family="Helvetica,sans-Serif" font-size="10.00">include/MLCL_TypeDescriptor.h</text>
</a>
</g>
</g>
<!-- Node2 -->
<g id="node2" class="node">
<title>Node2</title>
<g id="a_node2"><a xlink:href="_m_l_c_l___binary_heap__test_8c.html" target="_top" xlink:title=" ">
<polygon fill="none" stroke="black" points="26.19,-67.5 26.19,-97.5 148.19,-97.5 148.19,-67.5 26.19,-67.5"/>
<text text-anchor="start" x="34.19" y="-85.5" font-family="Helvetica,sans-Serif" font-size="10.00">src/_Tests/Heap/MLCL</text>
<text text-anchor="middle" x="87.19" y="-74.5" font-family="Helvetica,sans-Serif" font-size="10.00">_BinaryHeap_test.c</text>
</a>
</g>
</g>
<!-- Node1&#45;&gt;Node2 -->
<g id="edge1" class="edge">
<title>Node1&#45;&gt;Node2</title>
<path fill="none" stroke="midnightblue" d="M1393.21,-364.2C1174,-359.62 633.9,-346.1 454.19,-321 247.35,-292.1 119.16,-352.31 7.19,-176 -2.81,-160.24 -1.82,-150.35 7.19,-134 16.31,-117.46 33.38,-105.59 49.42,-97.53"/>
<polygon fill="midnightblue" stroke="midnightblue" points="1393.33,-367.7 1403.4,-364.41 1393.47,-360.7 1393.33,-367.7"/>
</g>
<!-- Node3 -->
<g id="node3" class="node">
<title>Node3</title>
<g id="a_node3"><a xlink:href="_m_l_c_l__basic__types_8h.html" target="_top" xlink:title=" ">
<polygon fill="none" stroke="black" points="1340.19,-218 1340.19,-248 1452.19,-248 1452.19,-218 1340.19,-218"/>
<text text-anchor="start" x="1348.19" y="-236" font-family="Helvetica,sans-Serif" font-size="10.00">include/MLCL_basic</text>
<text text-anchor="middle" x="1396.19" y="-225" font-family="Helvetica,sans-Serif" font-size="10.00">_types.h</text>
</a>
</g>
</g>
<!-- Node1&#45;&gt;Node3 -->
<g id="edge2" class="edge">
<title>Node1&#45;&gt;Node3</title>
<path fill="none" stroke="midnightblue" d="M1475.33,-348.8C1457.19,-322.48 1422.89,-272.73 1406.04,-248.28"/>
<polygon fill="midnightblue" stroke="midnightblue" points="1472.67,-351.09 1481.22,-357.34 1478.43,-347.12 1472.67,-351.09"/>
</g>
<!-- Node11 -->
<g id="node11" class="node">
<title>Node11</title>
<g id="a_node11"><a xlink:href="_m_l_c_l___a_v_l_tree__test_8c.html" target="_top" xlink:title=" ">
<polygon fill="none" stroke="black" points="2001.19,-140 2001.19,-170 2123.19,-170 2123.19,-140 2001.19,-140"/>
<text text-anchor="start" x="2009.19" y="-158" font-family="Helvetica,sans-Serif" font-size="10.00">src/_Tests/Trees/MLCL</text>
<text text-anchor="middle" x="2062.19" y="-147" font-family="Helvetica,sans-Serif" font-size="10.00">_AVLTree_test.c</text>
</a>
</g>
</g>
<!-- Node1&#45;&gt;Node11 -->
<g id="edge47" class="edge">
<title>Node1&#45;&gt;Node11</title>
<path fill="none" stroke="midnightblue" d="M1538.01,-355.19C1602.34,-339.88 1714.81,-307.63 1798.19,-254 1820.13,-239.89 1816.48,-224.83 1839.19,-212 1900.02,-177.64 1924.59,-193.6 1992.19,-176 1999.29,-174.15 2006.76,-172.12 2014.08,-170.07"/>
<polygon fill="midnightblue" stroke="midnightblue" points="1537.05,-351.82 1528.11,-357.5 1538.64,-358.63 1537.05,-351.82"/>
</g>
<!-- Node14 -->
<g id="node14" class="node">
<title>Node14</title>
<g id="a_node14"><a xlink:href="_m_l_c_l___array_list_8h.html" target="_top" xlink:title=" ">
<polygon fill="none" stroke="black" points="463.69,-290.5 463.69,-320.5 570.69,-320.5 570.69,-290.5 463.69,-290.5"/>
<text text-anchor="start" x="471.69" y="-308.5" font-family="Helvetica,sans-Serif" font-size="10.00">include/Lists/MLCL</text>
<text text-anchor="middle" x="517.19" y="-297.5" font-family="Helvetica,sans-Serif" font-size="10.00">_ArrayList.h</text>
</a>
</g>
</g>
<!-- Node1&#45;&gt;Node14 -->
<g id="edge14" class="edge">
<title>Node1&#45;&gt;Node14</title>
<path fill="none" stroke="midnightblue" d="M1393.45,-360.25C1193.14,-347.96 728.83,-319.48 570.9,-309.79"/>
<polygon fill="midnightblue" stroke="midnightblue" points="1393.46,-363.76 1403.65,-360.88 1393.89,-356.77 1393.46,-363.76"/>
</g>
<!-- Node27 -->
<g id="node27" class="node">
<title>Node27</title>
<g id="a_node27"><a xlink:href="_m_l_c_l___double_linked_list_8h.html" target="_top" xlink:title=" ">
<polygon fill="none" stroke="black" points="823.19,-290.5 823.19,-320.5 937.19,-320.5 937.19,-290.5 823.19,-290.5"/>
<text text-anchor="start" x="831.19" y="-308.5" font-family="Helvetica,sans-Serif" font-size="10.00">include/Lists/MLCL</text>
<text text-anchor="middle" x="880.19" y="-297.5" font-family="Helvetica,sans-Serif" font-size="10.00">_DoubleLinkedList.h</text>
</a>
</g>
</g>
<!-- Node1&#45;&gt;Node27 -->
<g id="edge30" class="edge">
<title>Node1&#45;&gt;Node27</title>
<path fill="none" stroke="midnightblue" d="M1393.29,-356.8C1265.85,-344.3 1042.02,-322.36 937.27,-312.09"/>
<polygon fill="midnightblue" stroke="midnightblue" points="1393.14,-360.3 1403.43,-357.79 1393.82,-353.33 1393.14,-360.3"/>
</g>
<!-- Node31 -->
<g id="node31" class="node">
<title>Node31</title>
<g id="a_node31"><a xlink:href="_m_l_c_l___linked_list_8h.html" target="_top" xlink:title=" ">
<polygon fill="none" stroke="black" points="1475.69,-290.5 1475.69,-320.5 1582.69,-320.5 1582.69,-290.5 1475.69,-290.5"/>
<text text-anchor="start" x="1483.69" y="-308.5" font-family="Helvetica,sans-Serif" font-size="10.00">include/Lists/MLCL</text>
<text text-anchor="middle" x="1529.19" y="-297.5" font-family="Helvetica,sans-Serif" font-size="10.00">_LinkedList.h</text>
</a>
</g>
</g>
<!-- Node1&#45;&gt;Node31 -->
<g id="edge39" class="edge">
<title>Node1&#45;&gt;Node31</title>
<path fill="none" stroke="midnightblue" d="M1499.02,-349.25C1505.42,-340.19 1513.22,-329.12 1519.3,-320.52"/>
<polygon fill="midnightblue" stroke="midnightblue" points="1496.12,-347.29 1493.21,-357.48 1501.84,-351.32 1496.12,-347.29"/>
</g>
<!-- Node35 -->
<g id="node35" class="node">
<title>Node35</title>
<g id="a_node35"><a xlink:href="_m_l_c_l___type_descriptor_8c.html" target="_top" xlink:title=" ">
<polygon fill="none" stroke="black" points="2003.19,-296 2003.19,-315 2149.19,-315 2149.19,-296 2003.19,-296"/>
<text text-anchor="middle" x="2076.19" y="-303" font-family="Helvetica,sans-Serif" font-size="10.00">src/MLCL_TypeDescriptor.c</text>
</a>
</g>
</g>
<!-- Node1&#45;&gt;Node35 -->
<g id="edge48" class="edge">
<title>Node1&#45;&gt;Node35</title>
<path fill="none" stroke="midnightblue" d="M1581.14,-360.1C1683.12,-353.13 1850.64,-340.03 1994.19,-321 2006.52,-319.37 2019.82,-317.19 2032.04,-315.03"/>
<polygon fill="midnightblue" stroke="midnightblue" points="1580.61,-356.63 1570.87,-360.8 1581.09,-363.62 1580.61,-356.63"/>
</g>
<!-- Node36 -->
<g id="node36" class="node">
<title>Node36</title>
<g id="a_node36"><a xlink:href="_m_l_c_l___binary_search_tree_8h.html" target="_top" xlink:title=" ">
<polygon fill="none" stroke="black" points="1869.19,-290.5 1869.19,-320.5 1985.19,-320.5 1985.19,-290.5 1869.19,-290.5"/>
<text text-anchor="start" x="1877.19" y="-308.5" font-family="Helvetica,sans-Serif" font-size="10.00">include/Trees/MLCL</text>
<text text-anchor="middle" x="1927.19" y="-297.5" font-family="Helvetica,sans-Serif" font-size="10.00">_BinarySearchTree.h</text>
</a>
</g>
</g>
<!-- Node1&#45;&gt;Node36 -->
<g id="edge49" class="edge">
<title>Node1&#45;&gt;Node36</title>
<path fill="none" stroke="midnightblue" d="M1567.18,-356.22C1637.56,-347.47 1742.77,-334.05 1834.19,-321 1845.52,-319.38 1857.6,-317.57 1869.19,-315.78"/>
<polygon fill="midnightblue" stroke="midnightblue" points="1566.55,-352.77 1557.05,-357.48 1567.41,-359.72 1566.55,-352.77"/>
</g>
<!-- Node3&#45;&gt;Node2 -->
<g id="edge3" class="edge">
<title>Node3&#45;&gt;Node2</title>
<path fill="none" stroke="midnightblue" d="M1370.55,-211.44C1358.07,-201.14 1343.02,-188.27 1330.19,-176 1311.78,-158.4 1314.33,-144.67 1291.19,-134 1265,-121.92 389.71,-93.15 148.31,-85.43"/>
<polygon fill="midnightblue" stroke="midnightblue" points="1368.37,-214.19 1378.33,-217.81 1372.81,-208.77 1368.37,-214.19"/>
</g>
<!-- Node4 -->
<g id="node4" class="node">
<title>Node4</title>
<g id="a_node4"><a xlink:href="_m_l_c_l___array_list__test_8c.html" target="_top" xlink:title=" ">
<polygon fill="none" stroke="black" points="352.69,-140 352.69,-170 471.69,-170 471.69,-140 352.69,-140"/>
<text text-anchor="start" x="360.69" y="-158" font-family="Helvetica,sans-Serif" font-size="10.00">src/_Tests/Lists/MLCL</text>
<text text-anchor="middle" x="412.19" y="-147" font-family="Helvetica,sans-Serif" font-size="10.00">_ArrayList_test.c</text>
</a>
</g>
</g>
<!-- Node3&#45;&gt;Node4 -->
<g id="edge4" class="edge">
<title>Node3&#45;&gt;Node4</title>
<path fill="none" stroke="midnightblue" d="M1329.86,-226.75C1275.22,-222.5 1195.71,-216.51 1126.19,-212 839.24,-193.38 763.56,-224.89 480.19,-176 471.71,-174.54 462.78,-172.38 454.28,-170.01"/>
<polygon fill="midnightblue" stroke="midnightblue" points="1329.87,-230.26 1340.11,-227.55 1330.41,-223.28 1329.87,-230.26"/>
</g>
<!-- Node5 -->
<g id="node5" class="node">
<title>Node5</title>
<g id="a_node5"><a xlink:href="_m_l_c_l___circular_double_linked_list__test_8c.html" target="_top" xlink:title=" ">
<polygon fill="none" stroke="black" points="795.69,-134.5 795.69,-175.5 938.69,-175.5 938.69,-134.5 795.69,-134.5"/>
<text text-anchor="start" x="803.69" y="-163.5" font-family="Helvetica,sans-Serif" font-size="10.00">src/_Tests/Lists/MLCL</text>
<text text-anchor="start" x="803.69" y="-152.5" font-family="Helvetica,sans-Serif" font-size="10.00">_CircularDoubleLinkedList</text>
<text text-anchor="middle" x="867.19" y="-141.5" font-family="Helvetica,sans-Serif" font-size="10.00">_test.c</text>
</a>
</g>
</g>
<!-- Node3&#45;&gt;Node5 -->
<g id="edge5" class="edge">
<title>Node3&#45;&gt;Node5</title>
<path fill="none" stroke="midnightblue" d="M1330.04,-222.84C1304.48,-219.36 1274.99,-215.41 1248.19,-212 1114.54,-194.98 1079.7,-200.39 947.19,-176 944.52,-175.51 941.8,-174.98 939.06,-174.42"/>
<polygon fill="midnightblue" stroke="midnightblue" points="1329.62,-226.31 1340,-224.2 1330.56,-219.38 1329.62,-226.31"/>
</g>
<!-- Node6 -->
<g id="node6" class="node">
<title>Node6</title>
<g id="a_node6"><a xlink:href="_m_l_c_l___circular_linked_list__test_8c.html" target="_top" xlink:title=" ">
<polygon fill="none" stroke="black" points="1527.19,-140 1527.19,-170 1667.19,-170 1667.19,-140 1527.19,-140"/>
<text text-anchor="start" x="1535.19" y="-158" font-family="Helvetica,sans-Serif" font-size="10.00">src/_Tests/Lists/MLCL</text>
<text text-anchor="middle" x="1597.19" y="-147" font-family="Helvetica,sans-Serif" font-size="10.00">_CircularLinkedList_test.c</text>
</a>
</g>
</g>
<!-- Node3&#45;&gt;Node6 -->
<g id="edge6" class="edge">
<title>Node3&#45;&gt;Node6</title>
<path fill="none" stroke="midnightblue" d="M1443.22,-214.22C1478.85,-200.75 1527.12,-182.5 1560.06,-170.04"/>
<polygon fill="midnightblue" stroke="midnightblue" points="1441.65,-211.07 1433.53,-217.88 1444.12,-217.62 1441.65,-211.07"/>
</g>
<!-- Node7 -->
<g id="node7" class="node">
<title>Node7</title>
<g id="a_node7"><a xlink:href="_m_l_c_l___double_linked_list__test_8c.html" target="_top" xlink:title=" ">
<polygon fill="none" stroke="black" points="956.69,-140 956.69,-170 1093.69,-170 1093.69,-140 956.69,-140"/>
<text text-anchor="start" x="964.69" y="-158" font-family="Helvetica,sans-Serif" font-size="10.00">src/_Tests/Lists/MLCL</text>
<text text-anchor="middle" x="1025.19" y="-147" font-family="Helvetica,sans-Serif" font-size="10.00">_DoubleLinkedList_test.c</text>
</a>
</g>
</g>
<!-- Node3&#45;&gt;Node7 -->
<g id="edge7" class="edge">
<title>Node3&#45;&gt;Node7</title>
<path fill="none" stroke="midnightblue" d="M1330.1,-220.69C1270.34,-210.17 1180.07,-193.51 1102.19,-176 1094.11,-174.18 1085.58,-172.12 1077.27,-170.02"/>
<polygon fill="midnightblue" stroke="midnightblue" points="1329.7,-224.18 1340.15,-222.46 1330.91,-217.28 1329.7,-224.18"/>
</g>
<!-- Node8 -->
<g id="node8" class="node">
<title>Node8</title>
<g id="a_node8"><a xlink:href="_m_l_c_l___linked_list__test_8c.html" target="_top" xlink:title=" ">
<polygon fill="none" stroke="black" points="1863.69,-140 1863.69,-170 1982.69,-170 1982.69,-140 1863.69,-140"/>
<text text-anchor="start" x="1871.69" y="-158" font-family="Helvetica,sans-Serif" font-size="10.00">src/_Tests/Lists/MLCL</text>
<text text-anchor="middle" x="1923.19" y="-147" font-family="Helvetica,sans-Serif" font-size="10.00">_LinkedList_test.c</text>
</a>
</g>
</g>
<!-- Node3&#45;&gt;Node8 -->
<g id="edge8" class="edge">
<title>Node3&#45;&gt;Node8</title>
<path fill="none" stroke="midnightblue" d="M1446.9,-215.3C1451.7,-214.05 1456.52,-212.92 1461.19,-212 1633.27,-178.03 1681.85,-208.56 1854.19,-176 1862.41,-174.45 1871.04,-172.34 1879.33,-170.07"/>
<polygon fill="midnightblue" stroke="midnightblue" points="1445.84,-211.96 1437.13,-218 1447.7,-218.71 1445.84,-211.96"/>
</g>
<!-- Node9 -->
<g id="node9" class="node">
<title>Node9</title>
<g id="a_node9"><a xlink:href="_m_l_c_l___list__test_8c.html" target="_top" xlink:title=" ">
<polygon fill="none" stroke="black" points="1186.69,-67.5 1186.69,-97.5 1305.69,-97.5 1305.69,-67.5 1186.69,-67.5"/>
<text text-anchor="start" x="1194.69" y="-85.5" font-family="Helvetica,sans-Serif" font-size="10.00">src/_Tests/Lists/MLCL</text>
<text text-anchor="middle" x="1246.19" y="-74.5" font-family="Helvetica,sans-Serif" font-size="10.00">_List_test.c</text>
</a>
</g>
</g>
<!-- Node3&#45;&gt;Node9 -->
<g id="edge9" class="edge">
<title>Node3&#45;&gt;Node9</title>
<path fill="none" stroke="midnightblue" d="M1440.4,-213.01C1455.52,-204.12 1470.74,-191.91 1479.19,-176 1487.96,-159.52 1490.91,-148.53 1479.19,-134 1457.79,-107.46 1367.44,-94.16 1305.74,-88.06"/>
<polygon fill="midnightblue" stroke="midnightblue" points="1438.65,-209.98 1431.57,-217.87 1442.02,-216.12 1438.65,-209.98"/>
</g>
<!-- Node10 -->
<g id="node10" class="node">
<title>Node10</title>
<g id="a_node10"><a xlink:href="_m_l_c_l___type_descriptor__test_8c.html" target="_top" xlink:title=" ">
<polygon fill="none" stroke="black" points="1111.69,-140 1111.69,-170 1282.69,-170 1282.69,-140 1111.69,-140"/>
<text text-anchor="start" x="1119.69" y="-158" font-family="Helvetica,sans-Serif" font-size="10.00">src/_Tests/MLCL_TypeDescriptor</text>
<text text-anchor="middle" x="1197.19" y="-147" font-family="Helvetica,sans-Serif" font-size="10.00">_test.c</text>
</a>
</g>
</g>
<!-- Node3&#45;&gt;Node10 -->
<g id="edge10" class="edge">
<title>Node3&#45;&gt;Node10</title>
<path fill="none" stroke="midnightblue" d="M1349.64,-214.22C1314.37,-200.75 1266.57,-182.5 1233.96,-170.04"/>
<polygon fill="midnightblue" stroke="midnightblue" points="1348.64,-217.58 1359.23,-217.88 1351.14,-211.05 1348.64,-217.58"/>
</g>
<!-- Node3&#45;&gt;Node11 -->
<g id="edge11" class="edge">
<title>Node3&#45;&gt;Node11</title>
<path fill="none" stroke="midnightblue" d="M1446.67,-215.24C1451.54,-213.99 1456.44,-212.88 1461.19,-212 1693.78,-168.93 1759.18,-216.72 1992.19,-176 2000.79,-174.5 2009.83,-172.35 2018.46,-170.02"/>
<polygon fill="midnightblue" stroke="midnightblue" points="1445.47,-211.93 1436.75,-217.95 1447.32,-218.69 1445.47,-211.93"/>
</g>
<!-- Node12 -->
<g id="node12" class="node">
<title>Node12</title>
<g id="a_node12"><a xlink:href="_m_l_c_l___binary_search_tree__test_8c.html" target="_top" xlink:title=" ">
<polygon fill="none" stroke="black" points="2141.69,-140 2141.69,-170 2280.69,-170 2280.69,-140 2141.69,-140"/>
<text text-anchor="start" x="2149.69" y="-158" font-family="Helvetica,sans-Serif" font-size="10.00">src/_Tests/Trees/MLCL</text>
<text text-anchor="middle" x="2211.19" y="-147" font-family="Helvetica,sans-Serif" font-size="10.00">_BinarySearchTree_test.c</text>
</a>
</g>
</g>
<!-- Node3&#45;&gt;Node12 -->
<g id="edge12" class="edge">
<title>Node3&#45;&gt;Node12</title>
<path fill="none" stroke="midnightblue" d="M1446.05,-215.32C1451.12,-214.03 1456.24,-212.88 1461.19,-212 1755.23,-159.69 1836.93,-220.86 2132.19,-176 2141.85,-174.53 2152.03,-172.4 2161.77,-170.08"/>
<polygon fill="midnightblue" stroke="midnightblue" points="1445.11,-211.95 1436.39,-217.96 1446.95,-218.7 1445.11,-211.95"/>
</g>
<!-- Node13 -->
<g id="node13" class="node">
<title>Node13</title>
<g id="a_node13"><a xlink:href="_m_l_c_l__basic__types_8c.html" target="_top" xlink:title=" ">
<polygon fill="none" stroke="black" points="1339.69,-145.5 1339.69,-164.5 1470.69,-164.5 1470.69,-145.5 1339.69,-145.5"/>
<text text-anchor="middle" x="1405.19" y="-152.5" font-family="Helvetica,sans-Serif" font-size="10.00">src/MLCL_basic_types.c</text>
</a>
</g>
</g>
<!-- Node3&#45;&gt;Node13 -->
<g id="edge13" class="edge">
<title>Node3&#45;&gt;Node13</title>
<path fill="none" stroke="midnightblue" d="M1399.08,-207.67C1400.83,-192.9 1402.95,-174.95 1404.18,-164.56"/>
<polygon fill="midnightblue" stroke="midnightblue" points="1395.59,-207.36 1397.89,-217.7 1402.54,-208.19 1395.59,-207.36"/>
</g>
<!-- Node14&#45;&gt;Node4 -->
<g id="edge15" class="edge">
<title>Node14&#45;&gt;Node4</title>
<path fill="none" stroke="midnightblue" d="M473.44,-285.47C459.71,-277.56 445.68,-267.1 436.19,-254 417.7,-228.46 413.35,-190.39 412.39,-170.03"/>
<polygon fill="midnightblue" stroke="midnightblue" points="471.91,-288.62 482.37,-290.31 475.24,-282.47 471.91,-288.62"/>
</g>
<!-- Node15 -->
<g id="node15" class="node">
<title>Node15</title>
<g id="a_node15"><a xlink:href="_m_l_c_l___list_8h.html" target="_top" xlink:title=" ">
<polygon fill="none" stroke="black" points="670.69,-140 670.69,-170 777.69,-170 777.69,-140 670.69,-140"/>
<text text-anchor="start" x="678.69" y="-158" font-family="Helvetica,sans-Serif" font-size="10.00">include/Lists/MLCL</text>
<text text-anchor="middle" x="724.19" y="-147" font-family="Helvetica,sans-Serif" font-size="10.00">_List.h</text>
</a>
</g>
</g>
<!-- Node14&#45;&gt;Node15 -->
<g id="edge16" class="edge">
<title>Node14&#45;&gt;Node15</title>
<path fill="none" stroke="midnightblue" d="M549.46,-285.09C564.22,-275.97 581.81,-264.76 597.19,-254 637.59,-225.75 682.84,-189.72 706.92,-170.17"/>
<polygon fill="midnightblue" stroke="midnightblue" points="547.37,-282.27 540.68,-290.48 551.03,-288.24 547.37,-282.27"/>
</g>
<!-- Node21 -->
<g id="node21" class="node">
<title>Node21</title>
<g id="a_node21"><a xlink:href="_m_l_c_l___binary_heap_8h.html" target="_top" xlink:title=" ">
<polygon fill="none" stroke="black" points="182.19,-218 182.19,-248 328.19,-248 328.19,-218 182.19,-218"/>
<text text-anchor="start" x="190.19" y="-236" font-family="Helvetica,sans-Serif" font-size="10.00">include/Heap/MLCL_Binary</text>
<text text-anchor="middle" x="255.19" y="-225" font-family="Helvetica,sans-Serif" font-size="10.00">Heap.h</text>
</a>
</g>
</g>
<!-- Node14&#45;&gt;Node21 -->
<g id="edge23" class="edge">
<title>Node14&#45;&gt;Node21</title>
<path fill="none" stroke="midnightblue" d="M455.2,-287.82C410.26,-275.73 350.17,-259.56 307.62,-248.11"/>
<polygon fill="midnightblue" stroke="midnightblue" points="454.55,-291.27 465.12,-290.49 456.37,-284.51 454.55,-291.27"/>
</g>
<!-- Node26 -->
<g id="node26" class="node">
<title>Node26</title>
<g id="a_node26"><a xlink:href="_m_l_c_l___array_list_8c.html" target="_top" xlink:title=" ">
<polygon fill="none" stroke="black" points="445.69,-223.5 445.69,-242.5 588.69,-242.5 588.69,-223.5 445.69,-223.5"/>
<text text-anchor="middle" x="517.19" y="-230.5" font-family="Helvetica,sans-Serif" font-size="10.00">src/Lists/MLCL_ArrayList.c</text>
</a>
</g>
</g>
<!-- Node14&#45;&gt;Node26 -->
<g id="edge29" class="edge">
<title>Node14&#45;&gt;Node26</title>
<path fill="none" stroke="midnightblue" d="M517.19,-280.09C517.19,-267.21 517.19,-252.2 517.19,-242.89"/>
<polygon fill="midnightblue" stroke="midnightblue" points="513.69,-280.23 517.19,-290.23 520.69,-280.23 513.69,-280.23"/>
</g>
<!-- Node15&#45;&gt;Node9 -->
<g id="edge17" class="edge">
<title>Node15&#45;&gt;Node9</title>
<path fill="none" stroke="midnightblue" d="M773.46,-137.12C777.74,-135.95 782.03,-134.89 786.19,-134 927.81,-103.71 1098.05,-91.04 1186.4,-86.19"/>
<polygon fill="midnightblue" stroke="midnightblue" points="772.19,-133.84 763.56,-139.98 774.14,-140.57 772.19,-133.84"/>
</g>
<!-- Node16 -->
<g id="node16" class="node">
<title>Node16</title>
<g id="a_node16"><a xlink:href="_m_l_c_l___list_8c.html" target="_top" xlink:title=" ">
<polygon fill="none" stroke="black" points="666.19,-73 666.19,-92 782.19,-92 782.19,-73 666.19,-73"/>
<text text-anchor="middle" x="724.19" y="-80" font-family="Helvetica,sans-Serif" font-size="10.00">src/Lists/MLCL_List.c</text>
</a>
</g>
</g>
<!-- Node15&#45;&gt;Node16 -->
<g id="edge18" class="edge">
<title>Node15&#45;&gt;Node16</title>
<path fill="none" stroke="midnightblue" d="M724.19,-129.59C724.19,-116.71 724.19,-101.7 724.19,-92.39"/>
<polygon fill="midnightblue" stroke="midnightblue" points="720.69,-129.73 724.19,-139.73 727.69,-129.73 720.69,-129.73"/>
</g>
<!-- Node17 -->
<g id="node17" class="node">
<title>Node17</title>
<g id="a_node17"><a xlink:href="_m_l_c_l___queue_8h.html" target="_top" xlink:title=" ">
<polygon fill="none" stroke="black" points="800.19,-67.5 800.19,-97.5 916.19,-97.5 916.19,-67.5 800.19,-67.5"/>
<text text-anchor="start" x="808.19" y="-85.5" font-family="Helvetica,sans-Serif" font-size="10.00">include/Queue/MLCL</text>
<text text-anchor="middle" x="858.19" y="-74.5" font-family="Helvetica,sans-Serif" font-size="10.00">_Queue.h</text>
</a>
</g>
</g>
<!-- Node15&#45;&gt;Node17 -->
<g id="edge19" class="edge">
<title>Node15&#45;&gt;Node17</title>
<path fill="none" stroke="midnightblue" d="M759.9,-135.22C782.38,-123.39 810.92,-108.37 831.45,-97.57"/>
<polygon fill="midnightblue" stroke="midnightblue" points="758.21,-132.15 750.99,-139.9 761.47,-138.34 758.21,-132.15"/>
</g>
<!-- Node19 -->
<g id="node19" class="node">
<title>Node19</title>
<g id="a_node19"><a xlink:href="_m_l_c_l___stack_8h.html" target="_top" xlink:title=" ">
<polygon fill="none" stroke="black" points="536.69,-67.5 536.69,-97.5 647.69,-97.5 647.69,-67.5 536.69,-67.5"/>
<text text-anchor="start" x="544.69" y="-85.5" font-family="Helvetica,sans-Serif" font-size="10.00">include/Stack/MLCL</text>
<text text-anchor="middle" x="592.19" y="-74.5" font-family="Helvetica,sans-Serif" font-size="10.00">_Stack.h</text>
</a>
</g>
</g>
<!-- Node15&#45;&gt;Node19 -->
<g id="edge21" class="edge">
<title>Node15&#45;&gt;Node19</title>
<path fill="none" stroke="midnightblue" d="M688.73,-135.06C666.63,-123.26 638.68,-108.33 618.54,-97.57"/>
<polygon fill="midnightblue" stroke="midnightblue" points="687.33,-138.28 697.8,-139.9 690.63,-132.1 687.33,-138.28"/>
</g>
<!-- Node18 -->
<g id="node18" class="node">
<title>Node18</title>
<g id="a_node18"><a xlink:href="_m_l_c_l___queue_8c.html" target="_top" xlink:title=" ">
<polygon fill="none" stroke="black" points="788.19,-6 788.19,-25 928.19,-25 928.19,-6 788.19,-6"/>
<text text-anchor="middle" x="858.19" y="-13" font-family="Helvetica,sans-Serif" font-size="10.00">src/Queue/MLCL_Queue.c</text>
</a>
</g>
</g>
<!-- Node17&#45;&gt;Node18 -->
<g id="edge20" class="edge">
<title>Node17&#45;&gt;Node18</title>
<path fill="none" stroke="midnightblue" d="M858.19,-57.25C858.19,-46.02 858.19,-33.38 858.19,-25.19"/>
<polygon fill="midnightblue" stroke="midnightblue" points="854.69,-57.4 858.19,-67.4 861.69,-57.4 854.69,-57.4"/>
</g>
<!-- Node20 -->
<g id="node20" class="node">
<title>Node20</title>
<g id="a_node20"><a xlink:href="_m_l_c_l___stack_8c.html" target="_top" xlink:title=" ">
<polygon fill="none" stroke="black" points="526.69,-6 526.69,-25 657.69,-25 657.69,-6 526.69,-6"/>
<text text-anchor="middle" x="592.19" y="-13" font-family="Helvetica,sans-Serif" font-size="10.00">src/Stack/MLCL_Stack.c</text>
</a>
</g>
</g>
<!-- Node19&#45;&gt;Node20 -->
<g id="edge22" class="edge">
<title>Node19&#45;&gt;Node20</title>
<path fill="none" stroke="midnightblue" d="M592.19,-57.25C592.19,-46.02 592.19,-33.38 592.19,-25.19"/>
<polygon fill="midnightblue" stroke="midnightblue" points="588.69,-57.4 592.19,-67.4 595.69,-57.4 588.69,-57.4"/>
</g>
<!-- Node22 -->
<g id="node22" class="node">
<title>Node22</title>
<g id="a_node22"><a xlink:href="_m_l_c_l___binary_heap__test_8h.html" target="_top" xlink:title=" ">
<polygon fill="none" stroke="black" points="16.69,-140 16.69,-170 157.69,-170 157.69,-140 16.69,-140"/>
<text text-anchor="start" x="24.69" y="-158" font-family="Helvetica,sans-Serif" font-size="10.00">include/_Tests/Heap</text>
<text text-anchor="middle" x="87.19" y="-147" font-family="Helvetica,sans-Serif" font-size="10.00">/MLCL_BinaryHeap_test.h</text>
</a>
</g>
</g>
<!-- Node21&#45;&gt;Node22 -->
<g id="edge24" class="edge">
<title>Node21&#45;&gt;Node22</title>
<path fill="none" stroke="midnightblue" d="M214.74,-213.7C185.08,-200.28 145.41,-182.34 118.23,-170.04"/>
<polygon fill="midnightblue" stroke="midnightblue" points="213.43,-216.95 223.99,-217.88 216.32,-210.57 213.43,-216.95"/>
</g>
<!-- Node25 -->
<g id="node25" class="node">
<title>Node25</title>
<g id="a_node25"><a xlink:href="_m_l_c_l___binary_heap_8c.html" target="_top" xlink:title=" ">
<polygon fill="none" stroke="black" points="175.69,-145.5 175.69,-164.5 334.69,-164.5 334.69,-145.5 175.69,-145.5"/>
<text text-anchor="middle" x="255.19" y="-152.5" font-family="Helvetica,sans-Serif" font-size="10.00">src/Heap/MLCL_BinaryHeap.c</text>
</a>
</g>
</g>
<!-- Node21&#45;&gt;Node25 -->
<g id="edge28" class="edge">
<title>Node21&#45;&gt;Node25</title>
<path fill="none" stroke="midnightblue" d="M255.19,-207.67C255.19,-192.9 255.19,-174.95 255.19,-164.56"/>
<polygon fill="midnightblue" stroke="midnightblue" points="251.69,-207.7 255.19,-217.7 258.69,-207.71 251.69,-207.7"/>
</g>
<!-- Node22&#45;&gt;Node2 -->
<g id="edge25" class="edge">
<title>Node22&#45;&gt;Node2</title>
<path fill="none" stroke="midnightblue" d="M87.19,-129.73C87.19,-119.07 87.19,-106.91 87.19,-97.75"/>
<polygon fill="midnightblue" stroke="midnightblue" points="83.69,-129.73 87.19,-139.73 90.69,-129.73 83.69,-129.73"/>
</g>
<!-- Node23 -->
<g id="node23" class="node">
<title>Node23</title>
<g id="a_node23"><a xlink:href="_m_l_c_l__all__tests_8h.html" target="_top" xlink:title=" ">
<polygon fill="none" stroke="black" points="1867.19,-67.5 1867.19,-97.5 1981.19,-97.5 1981.19,-67.5 1867.19,-67.5"/>
<text text-anchor="start" x="1875.19" y="-85.5" font-family="Helvetica,sans-Serif" font-size="10.00">include/_Tests/MLCL</text>
<text text-anchor="middle" x="1924.19" y="-74.5" font-family="Helvetica,sans-Serif" font-size="10.00">_all_tests.h</text>
</a>
</g>
</g>
<!-- Node22&#45;&gt;Node23 -->
<g id="edge26" class="edge">
<title>Node22&#45;&gt;Node23</title>
<path fill="none" stroke="midnightblue" d="M145.71,-137.67C152.57,-136.21 159.51,-134.93 166.19,-134 209.27,-128 1568.6,-92.67 1866.76,-84.98"/>
<polygon fill="midnightblue" stroke="midnightblue" points="144.73,-134.31 135.75,-139.93 146.27,-141.13 144.73,-134.31"/>
</g>
<!-- Node24 -->
<g id="node24" class="node">
<title>Node24</title>
<g id="a_node24"><a xlink:href="_m_l_c_l__all__tests_8c.html" target="_top" xlink:title=" ">
<polygon fill="none" stroke="black" points="1869.19,-0.5 1869.19,-30.5 1979.19,-30.5 1979.19,-0.5 1869.19,-0.5"/>
<text text-anchor="start" x="1877.19" y="-18.5" font-family="Helvetica,sans-Serif" font-size="10.00">src/_Tests/MLCL_all</text>
<text text-anchor="middle" x="1924.19" y="-7.5" font-family="Helvetica,sans-Serif" font-size="10.00">_tests.c</text>
</a>
</g>
</g>
<!-- Node23&#45;&gt;Node24 -->
<g id="edge27" class="edge">
<title>Node23&#45;&gt;Node24</title>
<path fill="none" stroke="midnightblue" d="M1924.19,-57.11C1924.19,-48.15 1924.19,-38.32 1924.19,-30.58"/>
<polygon fill="midnightblue" stroke="midnightblue" points="1920.69,-57.4 1924.19,-67.4 1927.69,-57.4 1920.69,-57.4"/>
</g>
<!-- Node27&#45;&gt;Node7 -->
<g id="edge35" class="edge">
<title>Node27&#45;&gt;Node7</title>
<path fill="none" stroke="midnightblue" d="M894.85,-282.08C908.25,-262.46 929.27,-233.77 951.19,-212 967.31,-195.99 988.12,-180.63 1003.57,-170.06"/>
<polygon fill="midnightblue" stroke="midnightblue" points="891.93,-280.15 889.26,-290.4 897.74,-284.06 891.93,-280.15"/>
</g>
<!-- Node27&#45;&gt;Node15 -->
<g id="edge36" class="edge">
<title>Node27&#45;&gt;Node15</title>
<path fill="none" stroke="midnightblue" d="M813.03,-294.15C787.71,-286.94 760.81,-274.72 743.19,-254 722.88,-230.1 721.79,-191.01 722.9,-170.15"/>
<polygon fill="midnightblue" stroke="midnightblue" points="812.44,-297.61 823,-296.76 814.21,-290.84 812.44,-297.61"/>
</g>
<!-- Node28 -->
<g id="node28" class="node">
<title>Node28</title>
<g id="a_node28"><a xlink:href="_m_l_c_l___circular_double_linked_list_8h.html" target="_top" xlink:title=" ">
<polygon fill="none" stroke="black" points="752.19,-218 752.19,-248 904.19,-248 904.19,-218 752.19,-218"/>
<text text-anchor="start" x="760.19" y="-236" font-family="Helvetica,sans-Serif" font-size="10.00">include/Lists/MLCL</text>
<text text-anchor="middle" x="828.19" y="-225" font-family="Helvetica,sans-Serif" font-size="10.00">_CircularDoubleLinkedList.h</text>
</a>
</g>
</g>
<!-- Node27&#45;&gt;Node28 -->
<g id="edge31" class="edge">
<title>Node27&#45;&gt;Node28</title>
<path fill="none" stroke="midnightblue" d="M863.51,-281.89C855.37,-270.84 845.82,-257.89 838.7,-248.25"/>
<polygon fill="midnightblue" stroke="midnightblue" points="860.92,-284.26 869.67,-290.23 866.55,-280.11 860.92,-284.26"/>
</g>
<!-- Node29 -->
<g id="node29" class="node">
<title>Node29</title>
<g id="a_node29"><a xlink:href="_m_l_c_l___circular_double_linked_list_8c.html" target="_top" xlink:title=" ">
<polygon fill="none" stroke="black" points="489.69,-140 489.69,-170 652.69,-170 652.69,-140 489.69,-140"/>
<text text-anchor="start" x="497.69" y="-158" font-family="Helvetica,sans-Serif" font-size="10.00">src/Lists/MLCL_CircularDouble</text>
<text text-anchor="middle" x="571.19" y="-147" font-family="Helvetica,sans-Serif" font-size="10.00">LinkedList.c</text>
</a>
</g>
</g>
<!-- Node27&#45;&gt;Node29 -->
<g id="edge37" class="edge">
<title>Node27&#45;&gt;Node29</title>
<path fill="none" stroke="midnightblue" d="M813.98,-287.61C785.12,-279.17 751.29,-267.79 722.19,-254 671.08,-229.78 616.76,-190.82 589.32,-170.07"/>
<polygon fill="midnightblue" stroke="midnightblue" points="813.39,-291.08 823.97,-290.47 815.32,-284.35 813.39,-291.08"/>
</g>
<!-- Node30 -->
<g id="node30" class="node">
<title>Node30</title>
<g id="a_node30"><a xlink:href="_m_l_c_l___double_linked_list_8c.html" target="_top" xlink:title=" ">
<polygon fill="none" stroke="black" points="960.69,-218 960.69,-248 1117.69,-248 1117.69,-218 960.69,-218"/>
<text text-anchor="start" x="968.69" y="-236" font-family="Helvetica,sans-Serif" font-size="10.00">src/Lists/MLCL_DoubleLinked</text>
<text text-anchor="middle" x="1039.19" y="-225" font-family="Helvetica,sans-Serif" font-size="10.00">List.c</text>
</a>
</g>
</g>
<!-- Node27&#45;&gt;Node30 -->
<g id="edge38" class="edge">
<title>Node27&#45;&gt;Node30</title>
<path fill="none" stroke="midnightblue" d="M921.14,-286.34C948.02,-274.42 982.66,-259.07 1007.46,-248.07"/>
<polygon fill="midnightblue" stroke="midnightblue" points="919.71,-283.15 911.99,-290.4 922.55,-289.55 919.71,-283.15"/>
</g>
<!-- Node28&#45;&gt;Node5 -->
<g id="edge32" class="edge">
<title>Node28&#45;&gt;Node5</title>
<path fill="none" stroke="midnightblue" d="M840.19,-208.63C845.6,-198.08 851.93,-185.75 857.1,-175.68"/>
<polygon fill="midnightblue" stroke="midnightblue" points="836.98,-207.21 835.53,-217.7 843.21,-210.41 836.98,-207.21"/>
</g>
<!-- Node28&#45;&gt;Node15 -->
<g id="edge33" class="edge">
<title>Node28&#45;&gt;Node15</title>
<path fill="none" stroke="midnightblue" d="M800.29,-211.61C782.4,-198.54 759.62,-181.89 743.67,-170.23"/>
<polygon fill="midnightblue" stroke="midnightblue" points="798.49,-214.63 808.63,-217.7 802.62,-208.98 798.49,-214.63"/>
</g>
<!-- Node28&#45;&gt;Node29 -->
<g id="edge34" class="edge">
<title>Node28&#45;&gt;Node29</title>
<path fill="none" stroke="midnightblue" d="M770.98,-215.08C725.22,-201.55 661.81,-182.8 618.79,-170.07"/>
<polygon fill="midnightblue" stroke="midnightblue" points="770.17,-218.49 780.76,-217.97 772.16,-211.78 770.17,-218.49"/>
</g>
<!-- Node31&#45;&gt;Node8 -->
<g id="edge44" class="edge">
<title>Node31&#45;&gt;Node8</title>
<path fill="none" stroke="midnightblue" d="M1592.91,-300.36C1641.93,-294.97 1710.05,-282.56 1763.19,-254 1786.73,-241.35 1784.3,-227.3 1806.19,-212 1831.11,-194.58 1862.29,-179.96 1886.19,-170.03"/>
<polygon fill="midnightblue" stroke="midnightblue" points="1592.34,-296.9 1582.75,-301.41 1593.05,-303.86 1592.34,-296.9"/>
</g>
<!-- Node31&#45;&gt;Node15 -->
<g id="edge45" class="edge">
<title>Node31&#45;&gt;Node15</title>
<path fill="none" stroke="midnightblue" d="M1467.35,-287.87C1388.65,-267.26 1248.24,-232.39 1126.19,-212 976.32,-186.96 934.85,-207.49 786.19,-176 778.78,-174.43 771,-172.31 763.55,-170.04"/>
<polygon fill="midnightblue" stroke="midnightblue" points="1466.55,-291.27 1477.11,-290.43 1468.33,-284.5 1466.55,-291.27"/>
</g>
<!-- Node32 -->
<g id="node32" class="node">
<title>Node32</title>
<g id="a_node32"><a xlink:href="_m_l_c_l___circular_linked_list_8h.html" target="_top" xlink:title=" ">
<polygon fill="none" stroke="black" points="1470.69,-218 1470.69,-248 1587.69,-248 1587.69,-218 1470.69,-218"/>
<text text-anchor="start" x="1478.69" y="-236" font-family="Helvetica,sans-Serif" font-size="10.00">include/Lists/MLCL</text>
<text text-anchor="middle" x="1529.19" y="-225" font-family="Helvetica,sans-Serif" font-size="10.00">_CircularLinkedList.h</text>
</a>
</g>
</g>
<!-- Node31&#45;&gt;Node32 -->
<g id="edge40" class="edge">
<title>Node31&#45;&gt;Node32</title>
<path fill="none" stroke="midnightblue" d="M1529.19,-280.23C1529.19,-269.57 1529.19,-257.41 1529.19,-248.25"/>
<polygon fill="midnightblue" stroke="midnightblue" points="1525.69,-280.23 1529.19,-290.23 1532.69,-280.23 1525.69,-280.23"/>
</g>
<!-- Node34 -->
<g id="node34" class="node">
<title>Node34</title>
<g id="a_node34"><a xlink:href="_m_l_c_l___linked_list_8c.html" target="_top" xlink:title=" ">
<polygon fill="none" stroke="black" points="1606.19,-223.5 1606.19,-242.5 1754.19,-242.5 1754.19,-223.5 1606.19,-223.5"/>
<text text-anchor="middle" x="1680.19" y="-230.5" font-family="Helvetica,sans-Serif" font-size="10.00">src/Lists/MLCL_LinkedList.c</text>
</a>
</g>
</g>
<!-- Node31&#45;&gt;Node34 -->
<g id="edge46" class="edge">
<title>Node31&#45;&gt;Node34</title>
<path fill="none" stroke="midnightblue" d="M1568.78,-286.02C1598.9,-271.96 1638.95,-253.26 1661.92,-242.53"/>
<polygon fill="midnightblue" stroke="midnightblue" points="1566.97,-283 1559.39,-290.4 1569.93,-289.34 1566.97,-283"/>
</g>
<!-- Node32&#45;&gt;Node6 -->
<g id="edge41" class="edge">
<title>Node32&#45;&gt;Node6</title>
<path fill="none" stroke="midnightblue" d="M1548.73,-210.17C1560.21,-197.33 1574.41,-181.47 1584.46,-170.23"/>
<polygon fill="midnightblue" stroke="midnightblue" points="1546.04,-207.92 1541.98,-217.7 1551.26,-212.59 1546.04,-207.92"/>
</g>
<!-- Node32&#45;&gt;Node15 -->
<g id="edge42" class="edge">
<title>Node32&#45;&gt;Node15</title>
<path fill="none" stroke="midnightblue" d="M1477.42,-215.43C1471.98,-214.09 1466.5,-212.91 1461.19,-212 1165.08,-161.27 1081.62,-230.57 786.19,-176 778.41,-174.56 770.25,-172.41 762.49,-170.05"/>
<polygon fill="midnightblue" stroke="midnightblue" points="1476.55,-218.82 1487.11,-217.97 1478.33,-212.05 1476.55,-218.82"/>
</g>
<!-- Node33 -->
<g id="node33" class="node">
<title>Node33</title>
<g id="a_node33"><a xlink:href="_m_l_c_l___circular_linked_list_8c.html" target="_top" xlink:title=" ">
<polygon fill="none" stroke="black" points="1685.19,-140 1685.19,-170 1845.19,-170 1845.19,-140 1685.19,-140"/>
<text text-anchor="start" x="1693.19" y="-158" font-family="Helvetica,sans-Serif" font-size="10.00">src/Lists/MLCL_CircularLinked</text>
<text text-anchor="middle" x="1765.19" y="-147" font-family="Helvetica,sans-Serif" font-size="10.00">List.c</text>
</a>
</g>
</g>
<!-- Node32&#45;&gt;Node33 -->
<g id="edge43" class="edge">
<title>Node32&#45;&gt;Node33</title>
<path fill="none" stroke="midnightblue" d="M1582.53,-214.83C1624.49,-201.31 1682.23,-182.72 1721.49,-170.07"/>
<polygon fill="midnightblue" stroke="midnightblue" points="1581.2,-211.57 1572.76,-217.97 1583.35,-218.24 1581.2,-211.57"/>
</g>
<!-- Node37 -->
<g id="node37" class="node">
<title>Node37</title>
<g id="a_node37"><a xlink:href="_m_l_c_l___a_v_l_tree_8h.html" target="_top" xlink:title=" ">
<polygon fill="none" stroke="black" points="2024.19,-218 2024.19,-248 2134.19,-248 2134.19,-218 2024.19,-218"/>
<text text-anchor="start" x="2032.19" y="-236" font-family="Helvetica,sans-Serif" font-size="10.00">include/Trees/MLCL</text>
<text text-anchor="middle" x="2079.19" y="-225" font-family="Helvetica,sans-Serif" font-size="10.00">_AVLTree.h</text>
</a>
</g>
</g>
<!-- Node36&#45;&gt;Node37 -->
<g id="edge50" class="edge">
<title>Node36&#45;&gt;Node37</title>
<path fill="none" stroke="midnightblue" d="M1966.68,-286.19C1992.33,-274.29 2025.26,-259.02 2048.85,-248.07"/>
<polygon fill="midnightblue" stroke="midnightblue" points="1965.19,-283.02 1957.59,-290.4 1968.13,-289.37 1965.19,-283.02"/>
</g>
<!-- Node39 -->
<g id="node39" class="node">
<title>Node39</title>
<g id="a_node39"><a xlink:href="_m_l_c_l___binary_search_tree__test_8h.html" target="_top" xlink:title=" ">
<polygon fill="none" stroke="black" points="2152.19,-212.5 2152.19,-253.5 2288.19,-253.5 2288.19,-212.5 2152.19,-212.5"/>
<text text-anchor="start" x="2160.19" y="-241.5" font-family="Helvetica,sans-Serif" font-size="10.00">include/_Tests/Trees</text>
<text text-anchor="start" x="2160.19" y="-230.5" font-family="Helvetica,sans-Serif" font-size="10.00">/MLCL_BinarySearchTree</text>
<text text-anchor="middle" x="2220.19" y="-219.5" font-family="Helvetica,sans-Serif" font-size="10.00">_test.h</text>
</a>
</g>
</g>
<!-- Node36&#45;&gt;Node39 -->
<g id="edge53" class="edge">
<title>Node36&#45;&gt;Node39</title>
<path fill="none" stroke="midnightblue" d="M1995.47,-288.99C2038.02,-279.21 2093.87,-266.17 2143.19,-254 2146.01,-253.31 2148.88,-252.59 2151.78,-251.86"/>
<polygon fill="midnightblue" stroke="midnightblue" points="1994.47,-285.63 1985.5,-291.27 1996.03,-292.45 1994.47,-285.63"/>
</g>
<!-- Node40 -->
<g id="node40" class="node">
<title>Node40</title>
<g id="a_node40"><a xlink:href="_m_l_c_l___binary_search_tree_8c.html" target="_top" xlink:title=" ">
<polygon fill="none" stroke="black" points="1848.19,-218 1848.19,-248 2006.19,-248 2006.19,-218 1848.19,-218"/>
<text text-anchor="start" x="1856.19" y="-236" font-family="Helvetica,sans-Serif" font-size="10.00">src/Trees/MLCL_BinarySearch</text>
<text text-anchor="middle" x="1927.19" y="-225" font-family="Helvetica,sans-Serif" font-size="10.00">Tree.c</text>
</a>
</g>
</g>
<!-- Node36&#45;&gt;Node40 -->
<g id="edge56" class="edge">
<title>Node36&#45;&gt;Node40</title>
<path fill="none" stroke="midnightblue" d="M1927.19,-280.23C1927.19,-269.57 1927.19,-257.41 1927.19,-248.25"/>
<polygon fill="midnightblue" stroke="midnightblue" points="1923.69,-280.23 1927.19,-290.23 1930.69,-280.23 1923.69,-280.23"/>
</g>
<!-- Node37&#45;&gt;Node11 -->
<g id="edge51" class="edge">
<title>Node37&#45;&gt;Node11</title>
<path fill="none" stroke="midnightblue" d="M2073.73,-207.59C2070.98,-195.26 2067.72,-180.72 2065.38,-170.23"/>
<polygon fill="midnightblue" stroke="midnightblue" points="2070.4,-208.71 2076,-217.7 2077.23,-207.18 2070.4,-208.71"/>
</g>
<!-- Node38 -->
<g id="node38" class="node">
<title>Node38</title>
<g id="a_node38"><a xlink:href="_m_l_c_l___a_v_l_tree_8c.html" target="_top" xlink:title=" ">
<polygon fill="none" stroke="black" points="2299.19,-145.5 2299.19,-164.5 2439.19,-164.5 2439.19,-145.5 2299.19,-145.5"/>
<text text-anchor="middle" x="2369.19" y="-152.5" font-family="Helvetica,sans-Serif" font-size="10.00">src/Trees/MLCL_AVLTree.c</text>
</a>
</g>
</g>
<!-- Node37&#45;&gt;Node38 -->
<g id="edge52" class="edge">
<title>Node37&#45;&gt;Node38</title>
<path fill="none" stroke="midnightblue" d="M2132.43,-215.09C2136.07,-214.02 2139.68,-212.98 2143.19,-212 2207.99,-193.96 2224.92,-192.25 2290.19,-176 2305.16,-172.27 2321.7,-168.09 2335.77,-164.52"/>
<polygon fill="midnightblue" stroke="midnightblue" points="2131.38,-211.75 2122.81,-217.97 2133.39,-218.45 2131.38,-211.75"/>
</g>
<!-- Node39&#45;&gt;Node12 -->
<g id="edge55" class="edge">
<title>Node39&#45;&gt;Node12</title>
<path fill="none" stroke="midnightblue" d="M2216.68,-202.28C2215.37,-191.25 2213.95,-179.25 2212.88,-170.23"/>
<polygon fill="midnightblue" stroke="midnightblue" points="2213.22,-202.91 2217.88,-212.43 2220.18,-202.09 2213.22,-202.91"/>
</g>
<!-- Node39&#45;&gt;Node23 -->
<g id="edge54" class="edge">
<title>Node39&#45;&gt;Node23</title>
<path fill="none" stroke="midnightblue" d="M2298.43,-224.39C2382.26,-213.31 2497.12,-187.86 2448.19,-134 2417.28,-99.96 2111.14,-88.23 1981.6,-84.77"/>
<polygon fill="midnightblue" stroke="midnightblue" points="2297.85,-220.94 2288.37,-225.67 2298.73,-227.88 2297.85,-220.94"/>
</g>
</g>
</svg>
