<?xml version="1.0" encoding="UTF-8" standalone="no"?>
<!DOCTYPE svg PUBLIC "-//W3C//DTD SVG 1.1//EN"
 "http://www.w3.org/Graphics/SVG/1.1/DTD/svg11.dtd">
<!-- Generated by graphviz version 2.43.0 (0)
 -->
<!-- Title: include/MLCL_TypeDescriptor.h Pages: 1 -->
<svg width="2024pt" height="318pt"
 viewBox="0.00 0.00 2024.00 318.00" xmlns="http://www.w3.org/2000/svg" xmlns:xlink="http://www.w3.org/1999/xlink">
<g id="graph0" class="graph" transform="scale(1 1) rotate(0) translate(4 314)">
<title>include/MLCL_TypeDescriptor.h</title>
<!-- Node1 -->
<g id="node1" class="node">
<title>Node1</title>
<g id="a_node1"><a xlink:title=" ">
<polygon fill="#bfbfbf" stroke="black" points="1242.5,-290.5 1242.5,-309.5 1409.5,-309.5 1409.5,-290.5 1242.5,-290.5"/>
<text text-anchor="middle" x="1326" y="-297.5" font-family="Helvetica,sans-Serif" font-size="10.00">include/MLCL_TypeDescriptor.h</text>
</a>
</g>
</g>
<!-- Node2 -->
<g id="node2" class="node">
<title>Node2</title>
<g id="a_node2"><a xlink:href="_m_l_c_l__basic__types_8h.html" target="_top" xlink:title=" ">
<polygon fill="none" stroke="black" points="824,-151 824,-181 936,-181 936,-151 824,-151"/>
<text text-anchor="start" x="832" y="-169" font-family="Helvetica,sans-Serif" font-size="10.00">include/MLCL_basic</text>
<text text-anchor="middle" x="880" y="-158" font-family="Helvetica,sans-Serif" font-size="10.00">_types.h</text>
</a>
</g>
</g>
<!-- Node1&#45;&gt;Node2 -->
<g id="edge1" class="edge">
<title>Node1&#45;&gt;Node2</title>
<path fill="none" stroke="midnightblue" d="M1234.59,-289.1C1184.36,-282.17 1121.39,-271.05 1067,-254 1006.35,-234.99 939.91,-200.52 904.86,-181.16"/>
<polygon fill="midnightblue" stroke="midnightblue" points="1234.4,-292.6 1244.78,-290.47 1235.34,-285.66 1234.4,-292.6"/>
</g>
<!-- Node8 -->
<g id="node8" class="node">
<title>Node8</title>
<g id="a_node8"><a xlink:href="_m_l_c_l___a_v_l_tree__test_8c.html" target="_top" xlink:title=" ">
<polygon fill="none" stroke="black" points="1483,-73 1483,-103 1599,-103 1599,-73 1483,-73"/>
<text text-anchor="start" x="1491" y="-91" font-family="Helvetica,sans-Serif" font-size="10.00">src/_Tests/Tree/MLCL</text>
<text text-anchor="middle" x="1541" y="-80" font-family="Helvetica,sans-Serif" font-size="10.00">_AVLTree_test.c</text>
</a>
</g>
</g>
<!-- Node1&#45;&gt;Node8 -->
<g id="edge23" class="edge">
<title>Node1&#45;&gt;Node8</title>
<path fill="none" stroke="midnightblue" d="M1322.32,-280.27C1317.22,-248.41 1312.01,-183.4 1345,-145 1383.51,-100.17 1416.21,-125.34 1473,-109 1479.62,-107.09 1486.6,-105.07 1493.46,-103.06"/>
<polygon fill="midnightblue" stroke="midnightblue" points="1318.92,-281.16 1324.12,-290.39 1325.81,-279.94 1318.92,-281.16"/>
</g>
<!-- Node11 -->
<g id="node11" class="node">
<title>Node11</title>
<g id="a_node11"><a xlink:href="_m_l_c_l___double_linked_list_8h.html" target="_top" xlink:title=" ">
<polygon fill="none" stroke="black" points="209.5,-223.5 209.5,-253.5 350.5,-253.5 350.5,-223.5 209.5,-223.5"/>
<text text-anchor="start" x="217.5" y="-241.5" font-family="Helvetica,sans-Serif" font-size="10.00">include/List/MLCL_Double</text>
<text text-anchor="middle" x="280" y="-230.5" font-family="Helvetica,sans-Serif" font-size="10.00">LinkedList.h</text>
</a>
</g>
</g>
<!-- Node1&#45;&gt;Node11 -->
<g id="edge10" class="edge">
<title>Node1&#45;&gt;Node11</title>
<path fill="none" stroke="midnightblue" d="M1231.93,-293.65C1024.92,-281.87 533.77,-253.94 350.54,-243.51"/>
<polygon fill="midnightblue" stroke="midnightblue" points="1231.99,-297.16 1242.17,-294.23 1232.38,-290.17 1231.99,-297.16"/>
</g>
<!-- Node15 -->
<g id="node15" class="node">
<title>Node15</title>
<g id="a_node15"><a xlink:href="_m_l_c_l___linked_list_8h.html" target="_top" xlink:title=" ">
<polygon fill="none" stroke="black" points="1076,-223.5 1076,-253.5 1214,-253.5 1214,-223.5 1076,-223.5"/>
<text text-anchor="start" x="1084" y="-241.5" font-family="Helvetica,sans-Serif" font-size="10.00">include/List/MLCL_Linked</text>
<text text-anchor="middle" x="1145" y="-230.5" font-family="Helvetica,sans-Serif" font-size="10.00">List.h</text>
</a>
</g>
</g>
<!-- Node1&#45;&gt;Node15 -->
<g id="edge17" class="edge">
<title>Node1&#45;&gt;Node15</title>
<path fill="none" stroke="midnightblue" d="M1290.2,-287.23C1260.72,-277.54 1218.86,-263.78 1187.66,-253.52"/>
<polygon fill="midnightblue" stroke="midnightblue" points="1289.47,-290.68 1300.07,-290.48 1291.66,-284.03 1289.47,-290.68"/>
</g>
<!-- Node19 -->
<g id="node19" class="node">
<title>Node19</title>
<g id="a_node19"><a xlink:href="_m_l_c_l___dynamic_array_8h.html" target="_top" xlink:title=" ">
<polygon fill="none" stroke="black" points="1514,-223.5 1514,-253.5 1664,-253.5 1664,-223.5 1514,-223.5"/>
<text text-anchor="start" x="1522" y="-241.5" font-family="Helvetica,sans-Serif" font-size="10.00">include/List/MLCL_Dynamic</text>
<text text-anchor="middle" x="1589" y="-230.5" font-family="Helvetica,sans-Serif" font-size="10.00">Array.h</text>
</a>
</g>
</g>
<!-- Node1&#45;&gt;Node19 -->
<g id="edge24" class="edge">
<title>Node1&#45;&gt;Node19</title>
<path fill="none" stroke="midnightblue" d="M1373.6,-288.23C1416.58,-278.51 1480.09,-264.14 1527.02,-253.52"/>
<polygon fill="midnightblue" stroke="midnightblue" points="1372.66,-284.85 1363.68,-290.48 1374.21,-291.68 1372.66,-284.85"/>
</g>
<!-- Node21 -->
<g id="node21" class="node">
<title>Node21</title>
<g id="a_node21"><a xlink:href="_m_l_c_l___type_descriptor_8c.html" target="_top" xlink:title=" ">
<polygon fill="none" stroke="black" points="1682,-229 1682,-248 1828,-248 1828,-229 1682,-229"/>
<text text-anchor="middle" x="1755" y="-236" font-family="Helvetica,sans-Serif" font-size="10.00">src/MLCL_TypeDescriptor.c</text>
</a>
</g>
</g>
<!-- Node1&#45;&gt;Node21 -->
<g id="edge26" class="edge">
<title>Node1&#45;&gt;Node21</title>
<path fill="none" stroke="midnightblue" d="M1409.39,-289.28C1479.77,-280.81 1583.15,-267.76 1673,-254 1684.72,-252.21 1697.34,-250.07 1709.09,-248"/>
<polygon fill="midnightblue" stroke="midnightblue" points="1408.76,-285.83 1399.25,-290.49 1409.6,-292.78 1408.76,-285.83"/>
</g>
<!-- Node22 -->
<g id="node22" class="node">
<title>Node22</title>
<g id="a_node22"><a xlink:href="_m_l_c_l___binary_search_tree_8h.html" target="_top" xlink:title=" ">
<polygon fill="none" stroke="black" points="1354.5,-223.5 1354.5,-253.5 1495.5,-253.5 1495.5,-223.5 1354.5,-223.5"/>
<text text-anchor="start" x="1362.5" y="-241.5" font-family="Helvetica,sans-Serif" font-size="10.00">include/Tree/MLCL_Binary</text>
<text text-anchor="middle" x="1425" y="-230.5" font-family="Helvetica,sans-Serif" font-size="10.00">SearchTree.h</text>
</a>
</g>
</g>
<!-- Node1&#45;&gt;Node22 -->
<g id="edge27" class="edge">
<title>Node1&#45;&gt;Node22</title>
<path fill="none" stroke="midnightblue" d="M1348.83,-285.28C1364.68,-275.75 1385.72,-263.11 1401.67,-253.52"/>
<polygon fill="midnightblue" stroke="midnightblue" points="1346.95,-282.32 1340.18,-290.48 1350.56,-288.32 1346.95,-282.32"/>
</g>
<!-- Node3 -->
<g id="node3" class="node">
<title>Node3</title>
<g id="a_node3"><a xlink:href="_m_l_c_l___circular_double_linked_list__test_8c.html" target="_top" xlink:title=" ">
<polygon fill="none" stroke="black" points="208.5,-67.5 208.5,-108.5 351.5,-108.5 351.5,-67.5 208.5,-67.5"/>
<text text-anchor="start" x="216.5" y="-96.5" font-family="Helvetica,sans-Serif" font-size="10.00">src/_Tests/List/MLCL</text>
<text text-anchor="start" x="216.5" y="-85.5" font-family="Helvetica,sans-Serif" font-size="10.00">_CircularDoubleLinkedList</text>
<text text-anchor="middle" x="280" y="-74.5" font-family="Helvetica,sans-Serif" font-size="10.00">_test.c</text>
</a>
</g>
</g>
<!-- Node2&#45;&gt;Node3 -->
<g id="edge2" class="edge">
<title>Node2&#45;&gt;Node3</title>
<path fill="none" stroke="midnightblue" d="M813.67,-160.79C714.43,-153.84 521.67,-137.77 360,-109 357.32,-108.52 354.6,-108.01 351.86,-107.46"/>
<polygon fill="midnightblue" stroke="midnightblue" points="813.63,-164.3 823.85,-161.5 814.12,-157.32 813.63,-164.3"/>
</g>
<!-- Node4 -->
<g id="node4" class="node">
<title>Node4</title>
<g id="a_node4"><a xlink:href="_m_l_c_l___circular_linked_list__test_8c.html" target="_top" xlink:title=" ">
<polygon fill="none" stroke="black" points="994,-73 994,-103 1134,-103 1134,-73 994,-73"/>
<text text-anchor="start" x="1002" y="-91" font-family="Helvetica,sans-Serif" font-size="10.00">src/_Tests/List/MLCL</text>
<text text-anchor="middle" x="1064" y="-80" font-family="Helvetica,sans-Serif" font-size="10.00">_CircularLinkedList_test.c</text>
</a>
</g>
</g>
<!-- Node2&#45;&gt;Node4 -->
<g id="edge3" class="edge">
<title>Node2&#45;&gt;Node4</title>
<path fill="none" stroke="midnightblue" d="M923.47,-147.05C956.04,-133.59 999.98,-115.44 1030.01,-103.04"/>
<polygon fill="midnightblue" stroke="midnightblue" points="922.08,-143.83 914.18,-150.88 924.76,-150.3 922.08,-143.83"/>
</g>
<!-- Node5 -->
<g id="node5" class="node">
<title>Node5</title>
<g id="a_node5"><a xlink:href="_m_l_c_l___double_linked_list__test_8c.html" target="_top" xlink:title=" ">
<polygon fill="none" stroke="black" points="369.5,-73 369.5,-103 506.5,-103 506.5,-73 369.5,-73"/>
<text text-anchor="start" x="377.5" y="-91" font-family="Helvetica,sans-Serif" font-size="10.00">src/_Tests/List/MLCL</text>
<text text-anchor="middle" x="438" y="-80" font-family="Helvetica,sans-Serif" font-size="10.00">_DoubleLinkedList_test.c</text>
</a>
</g>
</g>
<!-- Node2&#45;&gt;Node5 -->
<g id="edge4" class="edge">
<title>Node2&#45;&gt;Node5</title>
<path fill="none" stroke="midnightblue" d="M813.69,-156.89C740.27,-147.44 618.6,-130.34 515,-109 506.61,-107.27 497.77,-105.21 489.19,-103.07"/>
<polygon fill="midnightblue" stroke="midnightblue" points="813.36,-160.38 823.72,-158.18 814.24,-153.43 813.36,-160.38"/>
</g>
<!-- Node6 -->
<g id="node6" class="node">
<title>Node6</title>
<g id="a_node6"><a xlink:href="_m_l_c_l___linked_list__test_8c.html" target="_top" xlink:title=" ">
<polygon fill="none" stroke="black" points="862.5,-73 862.5,-103 975.5,-103 975.5,-73 862.5,-73"/>
<text text-anchor="start" x="870.5" y="-91" font-family="Helvetica,sans-Serif" font-size="10.00">src/_Tests/List/MLCL</text>
<text text-anchor="middle" x="919" y="-80" font-family="Helvetica,sans-Serif" font-size="10.00">_LinkedList_test.c</text>
</a>
</g>
</g>
<!-- Node2&#45;&gt;Node6 -->
<g id="edge5" class="edge">
<title>Node2&#45;&gt;Node6</title>
<path fill="none" stroke="midnightblue" d="M891.95,-141.7C898.4,-129.14 906.15,-114.04 911.7,-103.23"/>
<polygon fill="midnightblue" stroke="midnightblue" points="888.79,-140.21 887.34,-150.7 895.02,-143.41 888.79,-140.21"/>
</g>
<!-- Node7 -->
<g id="node7" class="node">
<title>Node7</title>
<g id="a_node7"><a xlink:href="_m_l_c_l___type_descriptor__test_8c.html" target="_top" xlink:title=" ">
<polygon fill="none" stroke="black" points="524.5,-73 524.5,-103 695.5,-103 695.5,-73 524.5,-73"/>
<text text-anchor="start" x="532.5" y="-91" font-family="Helvetica,sans-Serif" font-size="10.00">src/_Tests/MLCL_TypeDescriptor</text>
<text text-anchor="middle" x="610" y="-80" font-family="Helvetica,sans-Serif" font-size="10.00">_test.c</text>
</a>
</g>
</g>
<!-- Node2&#45;&gt;Node7 -->
<g id="edge6" class="edge">
<title>Node2&#45;&gt;Node7</title>
<path fill="none" stroke="midnightblue" d="M820.5,-148.25C772.38,-134.71 705.39,-115.85 660,-103.07"/>
<polygon fill="midnightblue" stroke="midnightblue" points="819.59,-151.63 830.16,-150.97 821.49,-144.89 819.59,-151.63"/>
</g>
<!-- Node2&#45;&gt;Node8 -->
<g id="edge7" class="edge">
<title>Node2&#45;&gt;Node8</title>
<path fill="none" stroke="midnightblue" d="M946.29,-150.93C958.46,-148.69 971.08,-146.59 983,-145 1199.45,-116.14 1258.15,-148.03 1473,-109 1481.23,-107.5 1489.89,-105.39 1498.17,-103.1"/>
<polygon fill="midnightblue" stroke="midnightblue" points="945.38,-147.54 936.2,-152.84 946.68,-154.42 945.38,-147.54"/>
</g>
<!-- Node9 -->
<g id="node9" class="node">
<title>Node9</title>
<g id="a_node9"><a xlink:href="_m_l_c_l___binary_search_tree__test_8c.html" target="_top" xlink:title=" ">
<polygon fill="none" stroke="black" points="1152.5,-73 1152.5,-103 1291.5,-103 1291.5,-73 1152.5,-73"/>
<text text-anchor="start" x="1160.5" y="-91" font-family="Helvetica,sans-Serif" font-size="10.00">src/_Tests/Tree/MLCL</text>
<text text-anchor="middle" x="1222" y="-80" font-family="Helvetica,sans-Serif" font-size="10.00">_BinarySearchTree_test.c</text>
</a>
</g>
</g>
<!-- Node2&#45;&gt;Node9 -->
<g id="edge8" class="edge">
<title>Node2&#45;&gt;Node9</title>
<path fill="none" stroke="midnightblue" d="M946.06,-151.66C999.34,-140.73 1076.15,-124.57 1143,-109 1150.99,-107.14 1159.42,-105.09 1167.67,-103.04"/>
<polygon fill="midnightblue" stroke="midnightblue" points="945.15,-148.27 936.06,-153.71 946.56,-155.13 945.15,-148.27"/>
</g>
<!-- Node10 -->
<g id="node10" class="node">
<title>Node10</title>
<g id="a_node10"><a xlink:href="_m_l_c_l__basic__types_8c.html" target="_top" xlink:title=" ">
<polygon fill="none" stroke="black" points="713.5,-78.5 713.5,-97.5 844.5,-97.5 844.5,-78.5 713.5,-78.5"/>
<text text-anchor="middle" x="779" y="-85.5" font-family="Helvetica,sans-Serif" font-size="10.00">src/MLCL_basic_types.c</text>
</a>
</g>
</g>
<!-- Node2&#45;&gt;Node10 -->
<g id="edge9" class="edge">
<title>Node2&#45;&gt;Node10</title>
<path fill="none" stroke="midnightblue" d="M852.97,-144.66C832.52,-129.27 805.45,-108.91 790.38,-97.56"/>
<polygon fill="midnightblue" stroke="midnightblue" points="850.91,-147.49 861,-150.7 855.12,-141.9 850.91,-147.49"/>
</g>
<!-- Node11&#45;&gt;Node5 -->
<g id="edge14" class="edge">
<title>Node11&#45;&gt;Node5</title>
<path fill="none" stroke="midnightblue" d="M316.7,-218.28C331.28,-209.74 347.72,-198.91 361,-187 389.83,-161.14 415.99,-123.53 429.12,-103.25"/>
<polygon fill="midnightblue" stroke="midnightblue" points="314.85,-215.3 307.9,-223.3 318.32,-221.39 314.85,-215.3"/>
</g>
<!-- Node12 -->
<g id="node12" class="node">
<title>Node12</title>
<g id="a_node12"><a xlink:href="_m_l_c_l___circular_double_linked_list_8h.html" target="_top" xlink:title=" ">
<polygon fill="none" stroke="black" points="208,-151 208,-181 352,-181 352,-151 208,-151"/>
<text text-anchor="start" x="216" y="-169" font-family="Helvetica,sans-Serif" font-size="10.00">include/List/MLCL_Circular</text>
<text text-anchor="middle" x="280" y="-158" font-family="Helvetica,sans-Serif" font-size="10.00">DoubleLinkedList.h</text>
</a>
</g>
</g>
<!-- Node11&#45;&gt;Node12 -->
<g id="edge11" class="edge">
<title>Node11&#45;&gt;Node12</title>
<path fill="none" stroke="midnightblue" d="M280,-213.23C280,-202.57 280,-190.41 280,-181.25"/>
<polygon fill="midnightblue" stroke="midnightblue" points="276.5,-213.23 280,-223.23 283.5,-213.23 276.5,-213.23"/>
</g>
<!-- Node13 -->
<g id="node13" class="node">
<title>Node13</title>
<g id="a_node13"><a xlink:href="_m_l_c_l___circular_double_linked_list_8c.html" target="_top" xlink:title=" ">
<polygon fill="none" stroke="black" points="32,-73 32,-103 190,-103 190,-73 32,-73"/>
<text text-anchor="start" x="40" y="-91" font-family="Helvetica,sans-Serif" font-size="10.00">src/List/MLCL_CircularDouble</text>
<text text-anchor="middle" x="111" y="-80" font-family="Helvetica,sans-Serif" font-size="10.00">LinkedList.c</text>
</a>
</g>
</g>
<!-- Node11&#45;&gt;Node13 -->
<g id="edge15" class="edge">
<title>Node11&#45;&gt;Node13</title>
<path fill="none" stroke="midnightblue" d="M244.36,-218.23C229.67,-209.55 212.87,-198.65 199,-187 196.88,-185.22 147.43,-129.86 123.61,-103.15"/>
<polygon fill="midnightblue" stroke="midnightblue" points="242.78,-221.36 253.19,-223.33 246.28,-215.3 242.78,-221.36"/>
</g>
<!-- Node14 -->
<g id="node14" class="node">
<title>Node14</title>
<g id="a_node14"><a xlink:href="_m_l_c_l___double_linked_list_8c.html" target="_top" xlink:title=" ">
<polygon fill="none" stroke="black" points="0,-151 0,-181 152,-181 152,-151 0,-151"/>
<text text-anchor="start" x="8" y="-169" font-family="Helvetica,sans-Serif" font-size="10.00">src/List/MLCL_DoubleLinked</text>
<text text-anchor="middle" x="76" y="-158" font-family="Helvetica,sans-Serif" font-size="10.00">List.c</text>
</a>
</g>
</g>
<!-- Node11&#45;&gt;Node14 -->
<g id="edge16" class="edge">
<title>Node11&#45;&gt;Node14</title>
<path fill="none" stroke="midnightblue" d="M229.71,-220.12C194.92,-208.1 149.22,-192.31 116.72,-181.07"/>
<polygon fill="midnightblue" stroke="midnightblue" points="228.61,-223.44 239.21,-223.4 230.9,-216.83 228.61,-223.44"/>
</g>
<!-- Node12&#45;&gt;Node3 -->
<g id="edge12" class="edge">
<title>Node12&#45;&gt;Node3</title>
<path fill="none" stroke="midnightblue" d="M280,-140.66C280,-130.33 280,-118.44 280,-108.68"/>
<polygon fill="midnightblue" stroke="midnightblue" points="276.5,-140.7 280,-150.7 283.5,-140.71 276.5,-140.7"/>
</g>
<!-- Node12&#45;&gt;Node13 -->
<g id="edge13" class="edge">
<title>Node12&#45;&gt;Node13</title>
<path fill="none" stroke="midnightblue" d="M239.3,-146.7C209.47,-133.28 169.56,-115.34 142.22,-103.04"/>
<polygon fill="midnightblue" stroke="midnightblue" points="238.05,-149.97 248.61,-150.88 240.92,-143.59 238.05,-149.97"/>
</g>
<!-- Node15&#45;&gt;Node6 -->
<g id="edge21" class="edge">
<title>Node15&#45;&gt;Node6</title>
<path fill="none" stroke="midnightblue" d="M1066.03,-224.43C1037.81,-216.91 1007.07,-205.19 983,-187 953.5,-164.7 933.6,-124.58 924.56,-103.24"/>
<polygon fill="midnightblue" stroke="midnightblue" points="1065.34,-227.86 1075.9,-226.91 1067.06,-221.07 1065.34,-227.86"/>
</g>
<!-- Node16 -->
<g id="node16" class="node">
<title>Node16</title>
<g id="a_node16"><a xlink:href="_m_l_c_l___circular_linked_list_8h.html" target="_top" xlink:title=" ">
<polygon fill="none" stroke="black" points="992,-151 992,-181 1136,-181 1136,-151 992,-151"/>
<text text-anchor="start" x="1000" y="-169" font-family="Helvetica,sans-Serif" font-size="10.00">include/List/MLCL_Circular</text>
<text text-anchor="middle" x="1064" y="-158" font-family="Helvetica,sans-Serif" font-size="10.00">LinkedList.h</text>
</a>
</g>
</g>
<!-- Node15&#45;&gt;Node16 -->
<g id="edge18" class="edge">
<title>Node15&#45;&gt;Node16</title>
<path fill="none" stroke="midnightblue" d="M1120.83,-216.46C1107.66,-205 1091.73,-191.14 1080.09,-181"/>
<polygon fill="midnightblue" stroke="midnightblue" points="1118.77,-219.31 1128.61,-223.23 1123.36,-214.03 1118.77,-219.31"/>
</g>
<!-- Node18 -->
<g id="node18" class="node">
<title>Node18</title>
<g id="a_node18"><a xlink:href="_m_l_c_l___linked_list_8c.html" target="_top" xlink:title=" ">
<polygon fill="none" stroke="black" points="1154.5,-156.5 1154.5,-175.5 1297.5,-175.5 1297.5,-156.5 1154.5,-156.5"/>
<text text-anchor="middle" x="1226" y="-163.5" font-family="Helvetica,sans-Serif" font-size="10.00">src/List/MLCL_LinkedList.c</text>
</a>
</g>
</g>
<!-- Node15&#45;&gt;Node18 -->
<g id="edge22" class="edge">
<title>Node15&#45;&gt;Node18</title>
<path fill="none" stroke="midnightblue" d="M1169.12,-216.51C1184.68,-202.96 1204.13,-186.03 1215.78,-175.89"/>
<polygon fill="midnightblue" stroke="midnightblue" points="1166.64,-214.03 1161.39,-223.23 1171.23,-219.31 1166.64,-214.03"/>
</g>
<!-- Node16&#45;&gt;Node4 -->
<g id="edge19" class="edge">
<title>Node16&#45;&gt;Node4</title>
<path fill="none" stroke="midnightblue" d="M1064,-140.59C1064,-128.26 1064,-113.72 1064,-103.23"/>
<polygon fill="midnightblue" stroke="midnightblue" points="1060.5,-140.7 1064,-150.7 1067.5,-140.71 1060.5,-140.7"/>
</g>
<!-- Node17 -->
<g id="node17" class="node">
<title>Node17</title>
<g id="a_node17"><a xlink:href="_m_l_c_l___circular_linked_list_8c.html" target="_top" xlink:title=" ">
<polygon fill="none" stroke="black" points="1309.5,-73 1309.5,-103 1464.5,-103 1464.5,-73 1309.5,-73"/>
<text text-anchor="start" x="1317.5" y="-91" font-family="Helvetica,sans-Serif" font-size="10.00">src/List/MLCL_CircularLinked</text>
<text text-anchor="middle" x="1387" y="-80" font-family="Helvetica,sans-Serif" font-size="10.00">List.c</text>
</a>
</g>
</g>
<!-- Node16&#45;&gt;Node17 -->
<g id="edge20" class="edge">
<title>Node16&#45;&gt;Node17</title>
<path fill="none" stroke="midnightblue" d="M1130.62,-148.47C1135.48,-147.29 1140.32,-146.12 1145,-145 1162.54,-140.81 1260.45,-118.19 1326.23,-103.01"/>
<polygon fill="midnightblue" stroke="midnightblue" points="1129.51,-145.14 1120.62,-150.91 1131.17,-151.94 1129.51,-145.14"/>
</g>
<!-- Node20 -->
<g id="node20" class="node">
<title>Node20</title>
<g id="a_node20"><a xlink:href="_m_l_c_l___dynamic_array_8c.html" target="_top" xlink:title=" ">
<polygon fill="none" stroke="black" points="1854,-156.5 1854,-175.5 2016,-175.5 2016,-156.5 1854,-156.5"/>
<text text-anchor="middle" x="1935" y="-163.5" font-family="Helvetica,sans-Serif" font-size="10.00">src/List/MLCL_DynamicArray.c</text>
</a>
</g>
</g>
<!-- Node19&#45;&gt;Node20 -->
<g id="edge25" class="edge">
<title>Node19&#45;&gt;Node20</title>
<path fill="none" stroke="midnightblue" d="M1672,-221.52C1721.9,-211.79 1786.65,-198.98 1844,-187 1861.42,-183.36 1880.67,-179.16 1896.96,-175.55"/>
<polygon fill="midnightblue" stroke="midnightblue" points="1671.05,-218.14 1661.9,-223.48 1672.39,-225.01 1671.05,-218.14"/>
</g>
<!-- Node23 -->
<g id="node23" class="node">
<title>Node23</title>
<g id="a_node23"><a xlink:href="_m_l_c_l___a_v_l_tree_8h.html" target="_top" xlink:title=" ">
<polygon fill="none" stroke="black" points="1508,-156.5 1508,-175.5 1664,-175.5 1664,-156.5 1508,-156.5"/>
<text text-anchor="middle" x="1586" y="-163.5" font-family="Helvetica,sans-Serif" font-size="10.00">include/Tree/MLCL_AVLTree.h</text>
</a>
</g>
</g>
<!-- Node22&#45;&gt;Node23 -->
<g id="edge28" class="edge">
<title>Node22&#45;&gt;Node23</title>
<path fill="none" stroke="midnightblue" d="M1466.38,-219.38C1498.58,-205.28 1541.81,-186.35 1566.51,-175.53"/>
<polygon fill="midnightblue" stroke="midnightblue" points="1464.95,-216.19 1457.19,-223.4 1467.76,-222.6 1464.95,-216.19"/>
</g>
<!-- Node25 -->
<g id="node25" class="node">
<title>Node25</title>
<g id="a_node25"><a xlink:href="_m_l_c_l___binary_search_tree__test_8h.html" target="_top" xlink:title=" ">
<polygon fill="none" stroke="black" points="1354,-145.5 1354,-186.5 1490,-186.5 1490,-145.5 1354,-145.5"/>
<text text-anchor="start" x="1362" y="-174.5" font-family="Helvetica,sans-Serif" font-size="10.00">include/_Tests/Tree</text>
<text text-anchor="start" x="1362" y="-163.5" font-family="Helvetica,sans-Serif" font-size="10.00">/MLCL_BinarySearchTree</text>
<text text-anchor="middle" x="1422" y="-152.5" font-family="Helvetica,sans-Serif" font-size="10.00">_test.h</text>
</a>
</g>
</g>
<!-- Node22&#45;&gt;Node25 -->
<g id="edge31" class="edge">
<title>Node22&#45;&gt;Node25</title>
<path fill="none" stroke="midnightblue" d="M1423.96,-212.98C1423.59,-204.35 1423.18,-194.76 1422.83,-186.59"/>
<polygon fill="midnightblue" stroke="midnightblue" points="1420.47,-213.39 1424.39,-223.23 1427.46,-213.09 1420.47,-213.39"/>
</g>
<!-- Node28 -->
<g id="node28" class="node">
<title>Node28</title>
<g id="a_node28"><a xlink:href="_m_l_c_l___binary_search_tree_8c.html" target="_top" xlink:title=" ">
<polygon fill="none" stroke="black" points="1682.5,-151 1682.5,-181 1835.5,-181 1835.5,-151 1682.5,-151"/>
<text text-anchor="start" x="1690.5" y="-169" font-family="Helvetica,sans-Serif" font-size="10.00">src/Tree/MLCL_BinarySearch</text>
<text text-anchor="middle" x="1759" y="-158" font-family="Helvetica,sans-Serif" font-size="10.00">Tree.c</text>
</a>
</g>
</g>
<!-- Node22&#45;&gt;Node28 -->
<g id="edge35" class="edge">
<title>Node22&#45;&gt;Node28</title>
<path fill="none" stroke="midnightblue" d="M1505.49,-221.69C1554.07,-212.01 1617.17,-199.17 1673,-187 1681.54,-185.14 1690.54,-183.11 1699.37,-181.09"/>
<polygon fill="midnightblue" stroke="midnightblue" points="1504.79,-218.27 1495.66,-223.65 1506.15,-225.13 1504.79,-218.27"/>
</g>
<!-- Node23&#45;&gt;Node8 -->
<g id="edge29" class="edge">
<title>Node23&#45;&gt;Node8</title>
<path fill="none" stroke="midnightblue" d="M1575.62,-147.47C1567.63,-133.97 1556.72,-115.55 1549.3,-103.02"/>
<polygon fill="midnightblue" stroke="midnightblue" points="1572.73,-149.46 1580.84,-156.28 1578.75,-145.89 1572.73,-149.46"/>
</g>
<!-- Node24 -->
<g id="node24" class="node">
<title>Node24</title>
<g id="a_node24"><a xlink:href="_m_l_c_l___a_v_l_tree_8c.html" target="_top" xlink:title=" ">
<polygon fill="none" stroke="black" points="1749,-78.5 1749,-97.5 1883,-97.5 1883,-78.5 1749,-78.5"/>
<text text-anchor="middle" x="1816" y="-85.5" font-family="Helvetica,sans-Serif" font-size="10.00">src/Tree/MLCL_AVLTree.c</text>
</a>
</g>
</g>
<!-- Node23&#45;&gt;Node24 -->
<g id="edge30" class="edge">
<title>Node23&#45;&gt;Node24</title>
<path fill="none" stroke="midnightblue" d="M1621.63,-153.23C1668.28,-137.81 1748.96,-111.15 1790.16,-97.54"/>
<polygon fill="midnightblue" stroke="midnightblue" points="1620.33,-149.97 1611.94,-156.43 1622.53,-156.62 1620.33,-149.97"/>
</g>
<!-- Node25&#45;&gt;Node9 -->
<g id="edge34" class="edge">
<title>Node25&#45;&gt;Node9</title>
<path fill="none" stroke="midnightblue" d="M1360.87,-141.77C1327.65,-129.15 1287.64,-113.94 1259.12,-103.11"/>
<polygon fill="midnightblue" stroke="midnightblue" points="1359.9,-145.15 1370.5,-145.43 1362.39,-138.6 1359.9,-145.15"/>
</g>
<!-- Node26 -->
<g id="node26" class="node">
<title>Node26</title>
<g id="a_node26"><a xlink:href="_m_l_c_l__all__tests_8h.html" target="_top" xlink:title=" ">
<polygon fill="none" stroke="black" points="1617,-73 1617,-103 1731,-103 1731,-73 1617,-73"/>
<text text-anchor="start" x="1625" y="-91" font-family="Helvetica,sans-Serif" font-size="10.00">include/_Tests/MLCL</text>
<text text-anchor="middle" x="1674" y="-80" font-family="Helvetica,sans-Serif" font-size="10.00">_all_tests.h</text>
</a>
</g>
</g>
<!-- Node25&#45;&gt;Node26 -->
<g id="edge32" class="edge">
<title>Node25&#45;&gt;Node26</title>
<path fill="none" stroke="midnightblue" d="M1496.84,-142.5C1530.78,-132.29 1571.42,-120.05 1608,-109 1614.3,-107.1 1620.95,-105.09 1627.49,-103.11"/>
<polygon fill="midnightblue" stroke="midnightblue" points="1495.57,-139.23 1487,-145.46 1497.58,-145.93 1495.57,-139.23"/>
</g>
<!-- Node27 -->
<g id="node27" class="node">
<title>Node27</title>
<g id="a_node27"><a xlink:href="_m_l_c_l__all__tests_8c.html" target="_top" xlink:title=" ">
<polygon fill="none" stroke="black" points="1619,-0.5 1619,-30.5 1729,-30.5 1729,-0.5 1619,-0.5"/>
<text text-anchor="start" x="1627" y="-18.5" font-family="Helvetica,sans-Serif" font-size="10.00">src/_Tests/MLCL_all</text>
<text text-anchor="middle" x="1674" y="-7.5" font-family="Helvetica,sans-Serif" font-size="10.00">_tests.c</text>
</a>
</g>
</g>
<!-- Node26&#45;&gt;Node27 -->
<g id="edge33" class="edge">
<title>Node26&#45;&gt;Node27</title>
<path fill="none" stroke="midnightblue" d="M1674,-62.73C1674,-52.07 1674,-39.91 1674,-30.75"/>
<polygon fill="midnightblue" stroke="midnightblue" points="1670.5,-62.73 1674,-72.73 1677.5,-62.73 1670.5,-62.73"/>
</g>
</g>
</svg>
