<?xml version="1.0" encoding="UTF-8" standalone="no"?>
<!DOCTYPE svg PUBLIC "-//W3C//DTD SVG 1.1//EN"
 "http://www.w3.org/Graphics/SVG/1.1/DTD/svg11.dtd">
<!-- Generated by graphviz version 2.43.0 (0)
 -->
<!-- Title: include/List/MLCL_DoubleLinkedList.h Pages: 1 -->
<svg width="585pt" height="184pt"
 viewBox="0.00 0.00 584.50 184.00" xmlns="http://www.w3.org/2000/svg" xmlns:xlink="http://www.w3.org/1999/xlink">
<g id="graph0" class="graph" transform="scale(1 1) rotate(0) translate(4 180)">
<title>include/List/MLCL_DoubleLinkedList.h</title>
<!-- Node1 -->
<g id="node1" class="node">
<title>Node1</title>
<g id="a_node1"><a xlink:title=" ">
<polygon fill="#bfbfbf" stroke="black" points="218,-145.5 218,-175.5 359,-175.5 359,-145.5 218,-145.5"/>
<text text-anchor="start" x="226" y="-163.5" font-family="Helvetica,sans-Serif" font-size="10.00">include/List/MLCL_Double</text>
<text text-anchor="middle" x="288.5" y="-152.5" font-family="Helvetica,sans-Serif" font-size="10.00">LinkedList.h</text>
</a>
</g>
</g>
<!-- Node2 -->
<g id="node2" class="node">
<title>Node2</title>
<g id="a_node2"><a xlink:href="_m_l_c_l___circular_double_linked_list_8h.html" target="_top" xlink:title=" ">
<polygon fill="none" stroke="black" points="68.5,-78.5 68.5,-108.5 212.5,-108.5 212.5,-78.5 68.5,-78.5"/>
<text text-anchor="start" x="76.5" y="-96.5" font-family="Helvetica,sans-Serif" font-size="10.00">include/List/MLCL_Circular</text>
<text text-anchor="middle" x="140.5" y="-85.5" font-family="Helvetica,sans-Serif" font-size="10.00">DoubleLinkedList.h</text>
</a>
</g>
</g>
<!-- Node1&#45;&gt;Node2 -->
<g id="edge1" class="edge">
<title>Node1&#45;&gt;Node2</title>
<path fill="none" stroke="midnightblue" d="M246.99,-141.27C223.42,-130.92 194.36,-118.15 172.55,-108.58"/>
<polygon fill="midnightblue" stroke="midnightblue" points="245.82,-144.58 256.39,-145.4 248.64,-138.17 245.82,-144.58"/>
</g>
<!-- Node4 -->
<g id="node4" class="node">
<title>Node4</title>
<g id="a_node4"><a xlink:href="_m_l_c_l___circular_double_linked_list_8c.html" target="_top" xlink:title=" ">
<polygon fill="none" stroke="black" points="161.5,-6 161.5,-36 319.5,-36 319.5,-6 161.5,-6"/>
<text text-anchor="start" x="169.5" y="-24" font-family="Helvetica,sans-Serif" font-size="10.00">src/List/MLCL_CircularDouble</text>
<text text-anchor="middle" x="240.5" y="-13" font-family="Helvetica,sans-Serif" font-size="10.00">LinkedList.c</text>
</a>
</g>
</g>
<!-- Node1&#45;&gt;Node4 -->
<g id="edge5" class="edge">
<title>Node1&#45;&gt;Node4</title>
<path fill="none" stroke="midnightblue" d="M274.02,-136.59C269.17,-128.17 264.1,-118.39 260.5,-109 251.01,-84.25 245.28,-53.75 242.51,-36.22"/>
<polygon fill="midnightblue" stroke="midnightblue" points="271.16,-138.64 279.29,-145.44 277.18,-135.06 271.16,-138.64"/>
</g>
<!-- Node5 -->
<g id="node5" class="node">
<title>Node5</title>
<g id="a_node5"><a xlink:href="_m_l_c_l___double_linked_list__test_8c.html" target="_top" xlink:title=" ">
<polygon fill="none" stroke="black" points="269,-78.5 269,-108.5 406,-108.5 406,-78.5 269,-78.5"/>
<text text-anchor="start" x="277" y="-96.5" font-family="Helvetica,sans-Serif" font-size="10.00">src/_Tests/List/MLCL</text>
<text text-anchor="middle" x="337.5" y="-85.5" font-family="Helvetica,sans-Serif" font-size="10.00">_DoubleLinkedList_test.c</text>
</a>
</g>
</g>
<!-- Node1&#45;&gt;Node5 -->
<g id="edge4" class="edge">
<title>Node1&#45;&gt;Node5</title>
<path fill="none" stroke="midnightblue" d="M305.34,-137.16C312.49,-127.68 320.6,-116.92 326.89,-108.58"/>
<polygon fill="midnightblue" stroke="midnightblue" points="302.36,-135.3 299.13,-145.4 307.95,-139.52 302.36,-135.3"/>
</g>
<!-- Node6 -->
<g id="node6" class="node">
<title>Node6</title>
<g id="a_node6"><a xlink:href="_m_l_c_l___double_linked_list_8c.html" target="_top" xlink:title=" ">
<polygon fill="none" stroke="black" points="424.5,-78.5 424.5,-108.5 576.5,-108.5 576.5,-78.5 424.5,-78.5"/>
<text text-anchor="start" x="432.5" y="-96.5" font-family="Helvetica,sans-Serif" font-size="10.00">src/List/MLCL_DoubleLinked</text>
<text text-anchor="middle" x="500.5" y="-85.5" font-family="Helvetica,sans-Serif" font-size="10.00">List.c</text>
</a>
</g>
</g>
<!-- Node1&#45;&gt;Node6 -->
<g id="edge6" class="edge">
<title>Node1&#45;&gt;Node6</title>
<path fill="none" stroke="midnightblue" d="M344.13,-142.44C378.49,-131.91 422.06,-118.55 454.48,-108.61"/>
<polygon fill="midnightblue" stroke="midnightblue" points="342.77,-139.2 334.24,-145.48 344.83,-145.89 342.77,-139.2"/>
</g>
<!-- Node3 -->
<g id="node3" class="node">
<title>Node3</title>
<g id="a_node3"><a xlink:href="_m_l_c_l___circular_double_linked_list__test_8c.html" target="_top" xlink:title=" ">
<polygon fill="none" stroke="black" points="0,-0.5 0,-41.5 143,-41.5 143,-0.5 0,-0.5"/>
<text text-anchor="start" x="8" y="-29.5" font-family="Helvetica,sans-Serif" font-size="10.00">src/_Tests/List/MLCL</text>
<text text-anchor="start" x="8" y="-18.5" font-family="Helvetica,sans-Serif" font-size="10.00">_CircularDoubleLinkedList</text>
<text text-anchor="middle" x="71.5" y="-7.5" font-family="Helvetica,sans-Serif" font-size="10.00">_test.c</text>
</a>
</g>
</g>
<!-- Node2&#45;&gt;Node3 -->
<g id="edge2" class="edge">
<title>Node2&#45;&gt;Node3</title>
<path fill="none" stroke="midnightblue" d="M119.28,-70.82C110.15,-61.49 99.56,-50.67 90.67,-41.59"/>
<polygon fill="midnightblue" stroke="midnightblue" points="117.04,-73.53 126.54,-78.23 122.04,-68.64 117.04,-73.53"/>
</g>
<!-- Node2&#45;&gt;Node4 -->
<g id="edge3" class="edge">
<title>Node2&#45;&gt;Node4</title>
<path fill="none" stroke="midnightblue" d="M168.97,-72.43C185.48,-60.79 205.86,-46.42 220.63,-36"/>
<polygon fill="midnightblue" stroke="midnightblue" points="166.89,-69.61 160.74,-78.23 170.93,-75.33 166.89,-69.61"/>
</g>
</g>
</svg>
