<?xml version="1.0" encoding="UTF-8" standalone="no"?>
<!DOCTYPE svg PUBLIC "-//W3C//DTD SVG 1.1//EN"
 "http://www.w3.org/Graphics/SVG/1.1/DTD/svg11.dtd">
<!-- Generated by graphviz version 2.43.0 (0)
 -->
<!-- Title: include/MLCL_TypeDescriptor.h Pages: 1 -->
<svg width="2265pt" height="318pt"
 viewBox="0.00 0.00 2265.28 318.00" xmlns="http://www.w3.org/2000/svg" xmlns:xlink="http://www.w3.org/1999/xlink">
<g id="graph0" class="graph" transform="scale(1 1) rotate(0) translate(4 314)">
<title>include/MLCL_TypeDescriptor.h</title>
<!-- Node1 -->
<g id="node1" class="node">
<title>Node1</title>
<g id="a_node1"><a xlink:title=" ">
<polygon fill="#bfbfbf" stroke="black" points="930.78,-290.5 930.78,-309.5 1097.78,-309.5 1097.78,-290.5 930.78,-290.5"/>
<text text-anchor="middle" x="1014.28" y="-297.5" font-family="Helvetica,sans-Serif" font-size="10.00">include/MLCL_TypeDescriptor.h</text>
</a>
</g>
</g>
<!-- Node2 -->
<g id="node2" class="node">
<title>Node2</title>
<g id="a_node2"><a xlink:href="_m_l_c_l___array_list_8h.html" target="_top" xlink:title=" ">
<polygon fill="none" stroke="black" points="149.78,-229 149.78,-248 308.78,-248 308.78,-229 149.78,-229"/>
<text text-anchor="middle" x="229.28" y="-236" font-family="Helvetica,sans-Serif" font-size="10.00">include/List/MLCL_ArrayList.h</text>
</a>
</g>
</g>
<!-- Node1&#45;&gt;Node2 -->
<g id="edge1" class="edge">
<title>Node1&#45;&gt;Node2</title>
<path fill="none" stroke="midnightblue" d="M920.61,-291.9C764.77,-280.09 454.99,-256.61 308.97,-245.54"/>
<polygon fill="midnightblue" stroke="midnightblue" points="920.41,-295.39 930.64,-292.66 920.94,-288.41 920.41,-295.39"/>
</g>
<!-- Node5 -->
<g id="node5" class="node">
<title>Node5</title>
<g id="a_node5"><a xlink:href="_m_l_c_l__basic__types_8h.html" target="_top" xlink:title=" ">
<polygon fill="none" stroke="black" points="725.28,-223.5 725.28,-253.5 837.28,-253.5 837.28,-223.5 725.28,-223.5"/>
<text text-anchor="start" x="733.28" y="-241.5" font-family="Helvetica,sans-Serif" font-size="10.00">include/MLCL_basic</text>
<text text-anchor="middle" x="781.28" y="-230.5" font-family="Helvetica,sans-Serif" font-size="10.00">_types.h</text>
</a>
</g>
</g>
<!-- Node1&#45;&gt;Node5 -->
<g id="edge4" class="edge">
<title>Node1&#45;&gt;Node5</title>
<path fill="none" stroke="midnightblue" d="M971.14,-287.98C933.08,-278.27 877.42,-264.05 836.19,-253.52"/>
<polygon fill="midnightblue" stroke="midnightblue" points="970.34,-291.39 980.9,-290.48 972.07,-284.61 970.34,-291.39"/>
</g>
<!-- Node11 -->
<g id="node11" class="node">
<title>Node11</title>
<g id="a_node11"><a xlink:href="_m_l_c_l___a_v_l_tree__test_8c.html" target="_top" xlink:title=" ">
<polygon fill="none" stroke="black" points="256.28,-73 256.28,-103 372.28,-103 372.28,-73 256.28,-73"/>
<text text-anchor="start" x="264.28" y="-91" font-family="Helvetica,sans-Serif" font-size="10.00">src/_Tests/Tree/MLCL</text>
<text text-anchor="middle" x="314.28" y="-80" font-family="Helvetica,sans-Serif" font-size="10.00">_AVLTree_test.c</text>
</a>
</g>
</g>
<!-- Node1&#45;&gt;Node11 -->
<g id="edge27" class="edge">
<title>Node1&#45;&gt;Node11</title>
<path fill="none" stroke="midnightblue" d="M920.47,-299.08C726.04,-298.44 285.14,-292.62 140.28,-254 76.71,-237.05 42.7,-243.07 8.28,-187 -1.48,-171.09 -3.67,-159.34 8.28,-145 39.19,-107.92 176.12,-95.32 255.95,-91.09"/>
<polygon fill="midnightblue" stroke="midnightblue" points="920.66,-302.58 930.67,-299.11 920.68,-295.58 920.66,-302.58"/>
</g>
<!-- Node14 -->
<g id="node14" class="node">
<title>Node14</title>
<g id="a_node14"><a xlink:href="_m_l_c_l___double_linked_list_8h.html" target="_top" xlink:title=" ">
<polygon fill="none" stroke="black" points="1328.78,-223.5 1328.78,-253.5 1469.78,-253.5 1469.78,-223.5 1328.78,-223.5"/>
<text text-anchor="start" x="1336.78" y="-241.5" font-family="Helvetica,sans-Serif" font-size="10.00">include/List/MLCL_Double</text>
<text text-anchor="middle" x="1399.28" y="-230.5" font-family="Helvetica,sans-Serif" font-size="10.00">LinkedList.h</text>
</a>
</g>
</g>
<!-- Node1&#45;&gt;Node14 -->
<g id="edge14" class="edge">
<title>Node1&#45;&gt;Node14</title>
<path fill="none" stroke="midnightblue" d="M1079.34,-288.95C1148.44,-278.27 1257.33,-261.44 1328.53,-250.43"/>
<polygon fill="midnightblue" stroke="midnightblue" points="1078.79,-285.49 1069.44,-290.48 1079.86,-292.41 1078.79,-285.49"/>
</g>
<!-- Node18 -->
<g id="node18" class="node">
<title>Node18</title>
<g id="a_node18"><a xlink:href="_m_l_c_l___linked_list_8h.html" target="_top" xlink:title=" ">
<polygon fill="none" stroke="black" points="945.28,-223.5 945.28,-253.5 1083.28,-253.5 1083.28,-223.5 945.28,-223.5"/>
<text text-anchor="start" x="953.28" y="-241.5" font-family="Helvetica,sans-Serif" font-size="10.00">include/List/MLCL_Linked</text>
<text text-anchor="middle" x="1014.28" y="-230.5" font-family="Helvetica,sans-Serif" font-size="10.00">List.h</text>
</a>
</g>
</g>
<!-- Node1&#45;&gt;Node18 -->
<g id="edge21" class="edge">
<title>Node1&#45;&gt;Node18</title>
<path fill="none" stroke="midnightblue" d="M1014.28,-280.23C1014.28,-271.59 1014.28,-261.5 1014.28,-253.52"/>
<polygon fill="midnightblue" stroke="midnightblue" points="1010.78,-280.48 1014.28,-290.48 1017.78,-280.48 1010.78,-280.48"/>
</g>
<!-- Node22 -->
<g id="node22" class="node">
<title>Node22</title>
<g id="a_node22"><a xlink:href="_m_l_c_l___type_descriptor_8c.html" target="_top" xlink:title=" ">
<polygon fill="none" stroke="black" points="1488.28,-229 1488.28,-248 1634.28,-248 1634.28,-229 1488.28,-229"/>
<text text-anchor="middle" x="1561.28" y="-236" font-family="Helvetica,sans-Serif" font-size="10.00">src/MLCL_TypeDescriptor.c</text>
</a>
</g>
</g>
<!-- Node1&#45;&gt;Node22 -->
<g id="edge28" class="edge">
<title>Node1&#45;&gt;Node22</title>
<path fill="none" stroke="midnightblue" d="M1107.95,-292.03C1201.84,-284.54 1350.41,-271.34 1478.28,-254 1490.6,-252.33 1503.89,-250.17 1516.15,-248.03"/>
<polygon fill="midnightblue" stroke="midnightblue" points="1107.6,-288.54 1097.9,-292.82 1108.15,-295.52 1107.6,-288.54"/>
</g>
<!-- Node23 -->
<g id="node23" class="node">
<title>Node23</title>
<g id="a_node23"><a xlink:href="_m_l_c_l___binary_search_tree_8h.html" target="_top" xlink:title=" ">
<polygon fill="none" stroke="black" points="1868.78,-223.5 1868.78,-253.5 2009.78,-253.5 2009.78,-223.5 1868.78,-223.5"/>
<text text-anchor="start" x="1876.78" y="-241.5" font-family="Helvetica,sans-Serif" font-size="10.00">include/Tree/MLCL_Binary</text>
<text text-anchor="middle" x="1939.28" y="-230.5" font-family="Helvetica,sans-Serif" font-size="10.00">SearchTree.h</text>
</a>
</g>
</g>
<!-- Node1&#45;&gt;Node23 -->
<g id="edge29" class="edge">
<title>Node1&#45;&gt;Node23</title>
<path fill="none" stroke="midnightblue" d="M1108.01,-292.97C1293.51,-281.04 1703.75,-254.65 1868.63,-244.04"/>
<polygon fill="midnightblue" stroke="midnightblue" points="1107.75,-289.48 1098,-293.61 1108.2,-296.47 1107.75,-289.48"/>
</g>
<!-- Node3 -->
<g id="node3" class="node">
<title>Node3</title>
<g id="a_node3"><a xlink:href="_m_l_c_l___array_list__test_8c.html" target="_top" xlink:title=" ">
<polygon fill="none" stroke="black" points="172.78,-151 172.78,-181 285.78,-181 285.78,-151 172.78,-151"/>
<text text-anchor="start" x="180.78" y="-169" font-family="Helvetica,sans-Serif" font-size="10.00">src/_Tests/List/MLCL</text>
<text text-anchor="middle" x="229.28" y="-158" font-family="Helvetica,sans-Serif" font-size="10.00">_ArrayList_test.c</text>
</a>
</g>
</g>
<!-- Node2&#45;&gt;Node3 -->
<g id="edge2" class="edge">
<title>Node2&#45;&gt;Node3</title>
<path fill="none" stroke="midnightblue" d="M229.28,-218.74C229.28,-206.91 229.28,-191.88 229.28,-181.08"/>
<polygon fill="midnightblue" stroke="midnightblue" points="225.78,-218.86 229.28,-228.86 232.78,-218.86 225.78,-218.86"/>
</g>
<!-- Node4 -->
<g id="node4" class="node">
<title>Node4</title>
<g id="a_node4"><a xlink:href="_m_l_c_l___array_list_8c.html" target="_top" xlink:title=" ">
<polygon fill="none" stroke="black" points="17.78,-156.5 17.78,-175.5 154.78,-175.5 154.78,-156.5 17.78,-156.5"/>
<text text-anchor="middle" x="86.28" y="-163.5" font-family="Helvetica,sans-Serif" font-size="10.00">src/List/MLCL_ArrayList.c</text>
</a>
</g>
</g>
<!-- Node2&#45;&gt;Node4 -->
<g id="edge3" class="edge">
<title>Node2&#45;&gt;Node4</title>
<path fill="none" stroke="midnightblue" d="M202.91,-224.5C173.96,-210.23 128.32,-187.73 103.59,-175.53"/>
<polygon fill="midnightblue" stroke="midnightblue" points="201.51,-227.71 212.03,-229 204.61,-221.43 201.51,-227.71"/>
</g>
<!-- Node5&#45;&gt;Node3 -->
<g id="edge5" class="edge">
<title>Node5&#45;&gt;Node3</title>
<path fill="none" stroke="midnightblue" d="M715.15,-234.12C621.94,-228.55 446.92,-215.14 300.28,-187 291.98,-185.41 283.24,-183.31 274.84,-181.07"/>
<polygon fill="midnightblue" stroke="midnightblue" points="715.09,-237.62 725.28,-234.71 715.5,-230.64 715.09,-237.62"/>
</g>
<!-- Node6 -->
<g id="node6" class="node">
<title>Node6</title>
<g id="a_node6"><a xlink:href="_m_l_c_l___circular_double_linked_list__test_8c.html" target="_top" xlink:title=" ">
<polygon fill="none" stroke="black" points="1179.78,-67.5 1179.78,-108.5 1322.78,-108.5 1322.78,-67.5 1179.78,-67.5"/>
<text text-anchor="start" x="1187.78" y="-96.5" font-family="Helvetica,sans-Serif" font-size="10.00">src/_Tests/List/MLCL</text>
<text text-anchor="start" x="1187.78" y="-85.5" font-family="Helvetica,sans-Serif" font-size="10.00">_CircularDoubleLinkedList</text>
<text text-anchor="middle" x="1251.28" y="-74.5" font-family="Helvetica,sans-Serif" font-size="10.00">_test.c</text>
</a>
</g>
</g>
<!-- Node5&#45;&gt;Node6 -->
<g id="edge6" class="edge">
<title>Node5&#45;&gt;Node6</title>
<path fill="none" stroke="midnightblue" d="M820.14,-218.87C836.82,-210.14 856.14,-199.02 872.28,-187 893.71,-171.04 891.46,-157.08 915.28,-145 999.27,-102.4 1108.79,-91.13 1179.57,-88.7"/>
<polygon fill="midnightblue" stroke="midnightblue" points="818.49,-215.78 811.19,-223.46 821.68,-222.01 818.49,-215.78"/>
</g>
<!-- Node7 -->
<g id="node7" class="node">
<title>Node7</title>
<g id="a_node7"><a xlink:href="_m_l_c_l___circular_linked_list__test_8c.html" target="_top" xlink:title=" ">
<polygon fill="none" stroke="black" points="621.28,-73 621.28,-103 761.28,-103 761.28,-73 621.28,-73"/>
<text text-anchor="start" x="629.28" y="-91" font-family="Helvetica,sans-Serif" font-size="10.00">src/_Tests/List/MLCL</text>
<text text-anchor="middle" x="691.28" y="-80" font-family="Helvetica,sans-Serif" font-size="10.00">_CircularLinkedList_test.c</text>
</a>
</g>
</g>
<!-- Node5&#45;&gt;Node7 -->
<g id="edge7" class="edge">
<title>Node5&#45;&gt;Node7</title>
<path fill="none" stroke="midnightblue" d="M743.06,-218.02C730.84,-209.99 718.39,-199.59 710.28,-187 693.49,-160.92 690.89,-123.4 690.85,-103.19"/>
<polygon fill="midnightblue" stroke="midnightblue" points="741.51,-221.17 751.86,-223.44 745.18,-215.21 741.51,-221.17"/>
</g>
<!-- Node8 -->
<g id="node8" class="node">
<title>Node8</title>
<g id="a_node8"><a xlink:href="_m_l_c_l___double_linked_list__test_8c.html" target="_top" xlink:title=" ">
<polygon fill="none" stroke="black" points="1249.78,-151 1249.78,-181 1386.78,-181 1386.78,-151 1249.78,-151"/>
<text text-anchor="start" x="1257.78" y="-169" font-family="Helvetica,sans-Serif" font-size="10.00">src/_Tests/List/MLCL</text>
<text text-anchor="middle" x="1318.28" y="-158" font-family="Helvetica,sans-Serif" font-size="10.00">_DoubleLinkedList_test.c</text>
</a>
</g>
</g>
<!-- Node5&#45;&gt;Node8 -->
<g id="edge8" class="edge">
<title>Node5&#45;&gt;Node8</title>
<path fill="none" stroke="midnightblue" d="M847.75,-231.36C956.23,-221.13 1166.65,-200.42 1240.28,-187 1249.22,-185.37 1258.65,-183.28 1267.74,-181.07"/>
<polygon fill="midnightblue" stroke="midnightblue" points="847.2,-227.89 837.57,-232.31 847.86,-234.86 847.2,-227.89"/>
</g>
<!-- Node9 -->
<g id="node9" class="node">
<title>Node9</title>
<g id="a_node9"><a xlink:href="_m_l_c_l___linked_list__test_8c.html" target="_top" xlink:title=" ">
<polygon fill="none" stroke="black" points="957.78,-151 957.78,-181 1070.78,-181 1070.78,-151 957.78,-151"/>
<text text-anchor="start" x="965.78" y="-169" font-family="Helvetica,sans-Serif" font-size="10.00">src/_Tests/List/MLCL</text>
<text text-anchor="middle" x="1014.28" y="-158" font-family="Helvetica,sans-Serif" font-size="10.00">_LinkedList_test.c</text>
</a>
</g>
</g>
<!-- Node5&#45;&gt;Node9 -->
<g id="edge9" class="edge">
<title>Node5&#45;&gt;Node9</title>
<path fill="none" stroke="midnightblue" d="M837.17,-220.59C877.05,-208.52 930.06,-192.48 967.66,-181.11"/>
<polygon fill="midnightblue" stroke="midnightblue" points="836.15,-217.24 827.59,-223.49 838.18,-223.94 836.15,-217.24"/>
</g>
<!-- Node10 -->
<g id="node10" class="node">
<title>Node10</title>
<g id="a_node10"><a xlink:href="_m_l_c_l___type_descriptor__test_8c.html" target="_top" xlink:title=" ">
<polygon fill="none" stroke="black" points="342.78,-151 342.78,-181 513.78,-181 513.78,-151 342.78,-151"/>
<text text-anchor="start" x="350.78" y="-169" font-family="Helvetica,sans-Serif" font-size="10.00">src/_Tests/MLCL_TypeDescriptor</text>
<text text-anchor="middle" x="428.28" y="-158" font-family="Helvetica,sans-Serif" font-size="10.00">_test.c</text>
</a>
</g>
</g>
<!-- Node5&#45;&gt;Node10 -->
<g id="edge10" class="edge">
<title>Node5&#45;&gt;Node10</title>
<path fill="none" stroke="midnightblue" d="M715.31,-224.96C662.93,-214.92 587.86,-200.37 522.28,-187 512.96,-185.1 503.13,-183.06 493.48,-181.02"/>
<polygon fill="midnightblue" stroke="midnightblue" points="714.67,-228.4 725.15,-226.84 715.98,-221.52 714.67,-228.4"/>
</g>
<!-- Node5&#45;&gt;Node11 -->
<g id="edge11" class="edge">
<title>Node5&#45;&gt;Node11</title>
<path fill="none" stroke="midnightblue" d="M714.94,-234.31C597.04,-228.02 360.76,-212.38 333.28,-187 309.98,-165.48 310.29,-124.65 312.35,-103.11"/>
<polygon fill="midnightblue" stroke="midnightblue" points="714.77,-237.8 724.94,-234.83 715.14,-230.81 714.77,-237.8"/>
</g>
<!-- Node12 -->
<g id="node12" class="node">
<title>Node12</title>
<g id="a_node12"><a xlink:href="_m_l_c_l___binary_search_tree__test_8c.html" target="_top" xlink:title=" ">
<polygon fill="none" stroke="black" points="1744.78,-73 1744.78,-103 1883.78,-103 1883.78,-73 1744.78,-73"/>
<text text-anchor="start" x="1752.78" y="-91" font-family="Helvetica,sans-Serif" font-size="10.00">src/_Tests/Tree/MLCL</text>
<text text-anchor="middle" x="1814.28" y="-80" font-family="Helvetica,sans-Serif" font-size="10.00">_BinarySearchTree_test.c</text>
</a>
</g>
</g>
<!-- Node5&#45;&gt;Node12 -->
<g id="edge12" class="edge">
<title>Node5&#45;&gt;Node12</title>
<path fill="none" stroke="midnightblue" d="M839.88,-220.18C862.35,-212.04 887.55,-201 908.28,-187 929.64,-172.57 924.83,-155.69 948.28,-145 1027.93,-108.69 1648.69,-121.81 1735.28,-109 1745.08,-107.55 1755.42,-105.4 1765.29,-103.04"/>
<polygon fill="midnightblue" stroke="midnightblue" points="838.72,-216.87 830.44,-223.49 841.04,-223.48 838.72,-216.87"/>
</g>
<!-- Node13 -->
<g id="node13" class="node">
<title>Node13</title>
<g id="a_node13"><a xlink:href="_m_l_c_l__basic__types_8c.html" target="_top" xlink:title=" ">
<polygon fill="none" stroke="black" points="531.78,-156.5 531.78,-175.5 662.78,-175.5 662.78,-156.5 531.78,-156.5"/>
<text text-anchor="middle" x="597.28" y="-163.5" font-family="Helvetica,sans-Serif" font-size="10.00">src/MLCL_basic_types.c</text>
</a>
</g>
</g>
<!-- Node5&#45;&gt;Node13 -->
<g id="edge13" class="edge">
<title>Node5&#45;&gt;Node13</title>
<path fill="none" stroke="midnightblue" d="M734.94,-219.74C698.04,-205.61 648.02,-186.44 619.55,-175.53"/>
<polygon fill="midnightblue" stroke="midnightblue" points="733.9,-223.09 744.49,-223.4 736.4,-216.56 733.9,-223.09"/>
</g>
<!-- Node14&#45;&gt;Node8 -->
<g id="edge18" class="edge">
<title>Node14&#45;&gt;Node8</title>
<path fill="none" stroke="midnightblue" d="M1375.11,-216.46C1361.95,-205 1346.01,-191.14 1334.37,-181"/>
<polygon fill="midnightblue" stroke="midnightblue" points="1373.05,-219.31 1382.89,-223.23 1377.64,-214.03 1373.05,-219.31"/>
</g>
<!-- Node15 -->
<g id="node15" class="node">
<title>Node15</title>
<g id="a_node15"><a xlink:href="_m_l_c_l___circular_double_linked_list_8h.html" target="_top" xlink:title=" ">
<polygon fill="none" stroke="black" points="1575.28,-151 1575.28,-181 1719.28,-181 1719.28,-151 1575.28,-151"/>
<text text-anchor="start" x="1583.28" y="-169" font-family="Helvetica,sans-Serif" font-size="10.00">include/List/MLCL_Circular</text>
<text text-anchor="middle" x="1647.28" y="-158" font-family="Helvetica,sans-Serif" font-size="10.00">DoubleLinkedList.h</text>
</a>
</g>
</g>
<!-- Node14&#45;&gt;Node15 -->
<g id="edge15" class="edge">
<title>Node14&#45;&gt;Node15</title>
<path fill="none" stroke="midnightblue" d="M1458.23,-220.74C1500.74,-208.66 1557.46,-192.53 1597.66,-181.11"/>
<polygon fill="midnightblue" stroke="midnightblue" points="1457.24,-217.39 1448.57,-223.49 1459.15,-224.12 1457.24,-217.39"/>
</g>
<!-- Node16 -->
<g id="node16" class="node">
<title>Node16</title>
<g id="a_node16"><a xlink:href="_m_l_c_l___circular_double_linked_list_8c.html" target="_top" xlink:title=" ">
<polygon fill="none" stroke="black" points="1568.28,-73 1568.28,-103 1726.28,-103 1726.28,-73 1568.28,-73"/>
<text text-anchor="start" x="1576.28" y="-91" font-family="Helvetica,sans-Serif" font-size="10.00">src/List/MLCL_CircularDouble</text>
<text text-anchor="middle" x="1647.28" y="-80" font-family="Helvetica,sans-Serif" font-size="10.00">LinkedList.c</text>
</a>
</g>
</g>
<!-- Node14&#45;&gt;Node16 -->
<g id="edge19" class="edge">
<title>Node14&#45;&gt;Node16</title>
<path fill="none" stroke="midnightblue" d="M1480.02,-223.18C1549.53,-215.37 1693.47,-227.2 1728.28,-187 1740.5,-172.89 1736.95,-161.53 1728.28,-145 1718.36,-126.07 1698.81,-112.28 1681.41,-103.12"/>
<polygon fill="midnightblue" stroke="midnightblue" points="1479.37,-219.74 1469.93,-224.55 1480.31,-226.68 1479.37,-219.74"/>
</g>
<!-- Node17 -->
<g id="node17" class="node">
<title>Node17</title>
<g id="a_node17"><a xlink:href="_m_l_c_l___double_linked_list_8c.html" target="_top" xlink:title=" ">
<polygon fill="none" stroke="black" points="1405.28,-151 1405.28,-181 1557.28,-181 1557.28,-151 1405.28,-151"/>
<text text-anchor="start" x="1413.28" y="-169" font-family="Helvetica,sans-Serif" font-size="10.00">src/List/MLCL_DoubleLinked</text>
<text text-anchor="middle" x="1481.28" y="-158" font-family="Helvetica,sans-Serif" font-size="10.00">List.c</text>
</a>
</g>
</g>
<!-- Node14&#45;&gt;Node17 -->
<g id="edge20" class="edge">
<title>Node14&#45;&gt;Node17</title>
<path fill="none" stroke="midnightblue" d="M1423.75,-216.46C1437.08,-205 1453.21,-191.14 1464.99,-181"/>
<polygon fill="midnightblue" stroke="midnightblue" points="1421.18,-214.06 1415.87,-223.23 1425.74,-219.37 1421.18,-214.06"/>
</g>
<!-- Node15&#45;&gt;Node6 -->
<g id="edge16" class="edge">
<title>Node15&#45;&gt;Node6</title>
<path fill="none" stroke="midnightblue" d="M1582.6,-148.62C1577.09,-147.35 1571.59,-146.13 1566.28,-145 1483.15,-127.37 1386.87,-110.81 1322.85,-100.34"/>
<polygon fill="midnightblue" stroke="midnightblue" points="1581.96,-152.07 1592.49,-150.95 1583.56,-145.26 1581.96,-152.07"/>
</g>
<!-- Node15&#45;&gt;Node16 -->
<g id="edge17" class="edge">
<title>Node15&#45;&gt;Node16</title>
<path fill="none" stroke="midnightblue" d="M1647.28,-140.59C1647.28,-128.26 1647.28,-113.72 1647.28,-103.23"/>
<polygon fill="midnightblue" stroke="midnightblue" points="1643.78,-140.7 1647.28,-150.7 1650.78,-140.71 1643.78,-140.7"/>
</g>
<!-- Node18&#45;&gt;Node9 -->
<g id="edge25" class="edge">
<title>Node18&#45;&gt;Node9</title>
<path fill="none" stroke="midnightblue" d="M1014.28,-213.23C1014.28,-202.57 1014.28,-190.41 1014.28,-181.25"/>
<polygon fill="midnightblue" stroke="midnightblue" points="1010.78,-213.23 1014.28,-223.23 1017.78,-213.23 1010.78,-213.23"/>
</g>
<!-- Node19 -->
<g id="node19" class="node">
<title>Node19</title>
<g id="a_node19"><a xlink:href="_m_l_c_l___circular_linked_list_8h.html" target="_top" xlink:title=" ">
<polygon fill="none" stroke="black" points="719.28,-151 719.28,-181 863.28,-181 863.28,-151 719.28,-151"/>
<text text-anchor="start" x="727.28" y="-169" font-family="Helvetica,sans-Serif" font-size="10.00">include/List/MLCL_Circular</text>
<text text-anchor="middle" x="791.28" y="-158" font-family="Helvetica,sans-Serif" font-size="10.00">LinkedList.h</text>
</a>
</g>
</g>
<!-- Node18&#45;&gt;Node19 -->
<g id="edge22" class="edge">
<title>Node18&#45;&gt;Node19</title>
<path fill="none" stroke="midnightblue" d="M960.06,-220.36C921.98,-208.32 871.66,-192.41 835.9,-181.11"/>
<polygon fill="midnightblue" stroke="midnightblue" points="959.37,-223.81 969.96,-223.49 961.48,-217.14 959.37,-223.81"/>
</g>
<!-- Node21 -->
<g id="node21" class="node">
<title>Node21</title>
<g id="a_node21"><a xlink:href="_m_l_c_l___linked_list_8c.html" target="_top" xlink:title=" ">
<polygon fill="none" stroke="black" points="1088.78,-156.5 1088.78,-175.5 1231.78,-175.5 1231.78,-156.5 1088.78,-156.5"/>
<text text-anchor="middle" x="1160.28" y="-163.5" font-family="Helvetica,sans-Serif" font-size="10.00">src/List/MLCL_LinkedList.c</text>
</a>
</g>
</g>
<!-- Node18&#45;&gt;Node21 -->
<g id="edge26" class="edge">
<title>Node18&#45;&gt;Node21</title>
<path fill="none" stroke="midnightblue" d="M1052.56,-219.02C1081.68,-204.96 1120.4,-186.26 1142.61,-175.53"/>
<polygon fill="midnightblue" stroke="midnightblue" points="1050.96,-215.9 1043.48,-223.4 1054,-222.21 1050.96,-215.9"/>
</g>
<!-- Node19&#45;&gt;Node7 -->
<g id="edge23" class="edge">
<title>Node19&#45;&gt;Node7</title>
<path fill="none" stroke="midnightblue" d="M764.45,-144.61C747.25,-131.54 725.35,-114.89 710.01,-103.23"/>
<polygon fill="midnightblue" stroke="midnightblue" points="762.39,-147.44 772.47,-150.7 766.63,-141.87 762.39,-147.44"/>
</g>
<!-- Node20 -->
<g id="node20" class="node">
<title>Node20</title>
<g id="a_node20"><a xlink:href="_m_l_c_l___circular_linked_list_8c.html" target="_top" xlink:title=" ">
<polygon fill="none" stroke="black" points="779.78,-73 779.78,-103 934.78,-103 934.78,-73 779.78,-73"/>
<text text-anchor="start" x="787.78" y="-91" font-family="Helvetica,sans-Serif" font-size="10.00">src/List/MLCL_CircularLinked</text>
<text text-anchor="middle" x="857.28" y="-80" font-family="Helvetica,sans-Serif" font-size="10.00">List.c</text>
</a>
</g>
</g>
<!-- Node19&#45;&gt;Node20 -->
<g id="edge24" class="edge">
<title>Node19&#45;&gt;Node20</title>
<path fill="none" stroke="midnightblue" d="M810.55,-142.81C821.65,-130.03 835.26,-114.36 844.92,-103.23"/>
<polygon fill="midnightblue" stroke="midnightblue" points="807.61,-140.86 803.7,-150.7 812.89,-145.45 807.61,-140.86"/>
</g>
<!-- Node24 -->
<g id="node24" class="node">
<title>Node24</title>
<g id="a_node24"><a xlink:href="_m_l_c_l___a_v_l_tree_8h.html" target="_top" xlink:title=" ">
<polygon fill="none" stroke="black" points="1775.28,-156.5 1775.28,-175.5 1931.28,-175.5 1931.28,-156.5 1775.28,-156.5"/>
<text text-anchor="middle" x="1853.28" y="-163.5" font-family="Helvetica,sans-Serif" font-size="10.00">include/Tree/MLCL_AVLTree.h</text>
</a>
</g>
</g>
<!-- Node23&#45;&gt;Node24 -->
<g id="edge30" class="edge">
<title>Node23&#45;&gt;Node24</title>
<path fill="none" stroke="midnightblue" d="M1914.13,-216.88C1897.53,-203.27 1876.61,-186.13 1864.13,-175.89"/>
<polygon fill="midnightblue" stroke="midnightblue" points="1911.93,-219.6 1921.88,-223.23 1916.36,-214.19 1911.93,-219.6"/>
</g>
<!-- Node26 -->
<g id="node26" class="node">
<title>Node26</title>
<g id="a_node26"><a xlink:href="_m_l_c_l___binary_search_tree__test_8h.html" target="_top" xlink:title=" ">
<polygon fill="none" stroke="black" points="2121.28,-145.5 2121.28,-186.5 2257.28,-186.5 2257.28,-145.5 2121.28,-145.5"/>
<text text-anchor="start" x="2129.28" y="-174.5" font-family="Helvetica,sans-Serif" font-size="10.00">include/_Tests/Tree</text>
<text text-anchor="start" x="2129.28" y="-163.5" font-family="Helvetica,sans-Serif" font-size="10.00">/MLCL_BinarySearchTree</text>
<text text-anchor="middle" x="2189.28" y="-152.5" font-family="Helvetica,sans-Serif" font-size="10.00">_test.h</text>
</a>
</g>
</g>
<!-- Node23&#45;&gt;Node26 -->
<g id="edge33" class="edge">
<title>Node23&#45;&gt;Node26</title>
<path fill="none" stroke="midnightblue" d="M1999.05,-220.65C2035.81,-210.28 2083.03,-196.96 2121.22,-186.19"/>
<polygon fill="midnightblue" stroke="midnightblue" points="1997.65,-217.4 1988.97,-223.49 1999.55,-224.14 1997.65,-217.4"/>
</g>
<!-- Node29 -->
<g id="node29" class="node">
<title>Node29</title>
<g id="a_node29"><a xlink:href="_m_l_c_l___binary_search_tree_8c.html" target="_top" xlink:title=" ">
<polygon fill="none" stroke="black" points="1949.78,-151 1949.78,-181 2102.78,-181 2102.78,-151 1949.78,-151"/>
<text text-anchor="start" x="1957.78" y="-169" font-family="Helvetica,sans-Serif" font-size="10.00">src/Tree/MLCL_BinarySearch</text>
<text text-anchor="middle" x="2026.28" y="-158" font-family="Helvetica,sans-Serif" font-size="10.00">Tree.c</text>
</a>
</g>
</g>
<!-- Node23&#45;&gt;Node29 -->
<g id="edge37" class="edge">
<title>Node23&#45;&gt;Node29</title>
<path fill="none" stroke="midnightblue" d="M1964.84,-216.79C1979.06,-205.27 1996.38,-191.23 2009,-181"/>
<polygon fill="midnightblue" stroke="midnightblue" points="1962.45,-214.22 1956.89,-223.23 1966.86,-219.66 1962.45,-214.22"/>
</g>
<!-- Node24&#45;&gt;Node11 -->
<g id="edge31" class="edge">
<title>Node24&#45;&gt;Node11</title>
<path fill="none" stroke="midnightblue" d="M1798.56,-154.71C1776.77,-151.01 1751.42,-147.22 1728.28,-145 1234.28,-97.7 1107.93,-133.62 612.28,-109 528.9,-104.86 432.53,-98.02 372.49,-93.51"/>
<polygon fill="midnightblue" stroke="midnightblue" points="1798.17,-158.19 1808.62,-156.45 1799.36,-151.3 1798.17,-158.19"/>
</g>
<!-- Node25 -->
<g id="node25" class="node">
<title>Node25</title>
<g id="a_node25"><a xlink:href="_m_l_c_l___a_v_l_tree_8c.html" target="_top" xlink:title=" ">
<polygon fill="none" stroke="black" points="1902.28,-78.5 1902.28,-97.5 2036.28,-97.5 2036.28,-78.5 1902.28,-78.5"/>
<text text-anchor="middle" x="1969.28" y="-85.5" font-family="Helvetica,sans-Serif" font-size="10.00">src/Tree/MLCL_AVLTree.c</text>
</a>
</g>
</g>
<!-- Node24&#45;&gt;Node25 -->
<g id="edge32" class="edge">
<title>Node24&#45;&gt;Node25</title>
<path fill="none" stroke="midnightblue" d="M1874.99,-150.77C1898.84,-135.15 1936.38,-110.56 1956.13,-97.62"/>
<polygon fill="midnightblue" stroke="midnightblue" points="1873.03,-147.87 1866.59,-156.28 1876.87,-153.73 1873.03,-147.87"/>
</g>
<!-- Node26&#45;&gt;Node12 -->
<g id="edge36" class="edge">
<title>Node26&#45;&gt;Node12</title>
<path fill="none" stroke="midnightblue" d="M2111,-144.82C2014.03,-124.85 1986.73,-128.47 1893.28,-109 1884.83,-107.24 1875.92,-105.18 1867.26,-103.07"/>
<polygon fill="midnightblue" stroke="midnightblue" points="2110.42,-148.28 2120.92,-146.9 2111.85,-141.43 2110.42,-148.28"/>
</g>
<!-- Node27 -->
<g id="node27" class="node">
<title>Node27</title>
<g id="a_node27"><a xlink:href="_m_l_c_l__all__tests_8h.html" target="_top" xlink:title=" ">
<polygon fill="none" stroke="black" points="2132.28,-73 2132.28,-103 2246.28,-103 2246.28,-73 2132.28,-73"/>
<text text-anchor="start" x="2140.28" y="-91" font-family="Helvetica,sans-Serif" font-size="10.00">include/_Tests/MLCL</text>
<text text-anchor="middle" x="2189.28" y="-80" font-family="Helvetica,sans-Serif" font-size="10.00">_all_tests.h</text>
</a>
</g>
</g>
<!-- Node26&#45;&gt;Node27 -->
<g id="edge34" class="edge">
<title>Node26&#45;&gt;Node27</title>
<path fill="none" stroke="midnightblue" d="M2189.28,-135.28C2189.28,-124.25 2189.28,-112.25 2189.28,-103.23"/>
<polygon fill="midnightblue" stroke="midnightblue" points="2185.78,-135.43 2189.28,-145.43 2192.78,-135.43 2185.78,-135.43"/>
</g>
<!-- Node28 -->
<g id="node28" class="node">
<title>Node28</title>
<g id="a_node28"><a xlink:href="_m_l_c_l__all__tests_8c.html" target="_top" xlink:title=" ">
<polygon fill="none" stroke="black" points="2134.28,-0.5 2134.28,-30.5 2244.28,-30.5 2244.28,-0.5 2134.28,-0.5"/>
<text text-anchor="start" x="2142.28" y="-18.5" font-family="Helvetica,sans-Serif" font-size="10.00">src/_Tests/MLCL_all</text>
<text text-anchor="middle" x="2189.28" y="-7.5" font-family="Helvetica,sans-Serif" font-size="10.00">_tests.c</text>
</a>
</g>
</g>
<!-- Node27&#45;&gt;Node28 -->
<g id="edge35" class="edge">
<title>Node27&#45;&gt;Node28</title>
<path fill="none" stroke="midnightblue" d="M2189.28,-62.73C2189.28,-52.07 2189.28,-39.91 2189.28,-30.75"/>
<polygon fill="midnightblue" stroke="midnightblue" points="2185.78,-62.73 2189.28,-72.73 2192.78,-62.73 2185.78,-62.73"/>
</g>
</g>
</svg>
