<?xml version="1.0" encoding="UTF-8" standalone="no"?>
<!DOCTYPE svg PUBLIC "-//W3C//DTD SVG 1.1//EN"
 "http://www.w3.org/Graphics/SVG/1.1/DTD/svg11.dtd">
<!-- Generated by graphviz version 2.43.0 (0)
 -->
<!-- Title: include/Lists/MLCL_ArrayList.h Pages: 1 -->
<svg width="861pt" height="307pt"
 viewBox="0.00 0.00 861.00 307.00" xmlns="http://www.w3.org/2000/svg" xmlns:xlink="http://www.w3.org/1999/xlink">
<g id="graph0" class="graph" transform="scale(1 1) rotate(0) translate(4 303)">
<title>include/Lists/MLCL_ArrayList.h</title>
<!-- Node1 -->
<g id="node1" class="node">
<title>Node1</title>
<g id="a_node1"><a xlink:title=" ">
<polygon fill="#bfbfbf" stroke="black" points="414,-268.5 414,-298.5 521,-298.5 521,-268.5 414,-268.5"/>
<text text-anchor="start" x="422" y="-286.5" font-family="Helvetica,sans-Serif" font-size="10.00">include/Lists/MLCL</text>
<text text-anchor="middle" x="467.5" y="-275.5" font-family="Helvetica,sans-Serif" font-size="10.00">_ArrayList.h</text>
</a>
</g>
</g>
<!-- Node2 -->
<g id="node2" class="node">
<title>Node2</title>
<g id="a_node2"><a xlink:href="_m_l_c_l___array_list__test_8c.html" target="_top" xlink:title=" ">
<polygon fill="none" stroke="black" points="172,-201.5 172,-231.5 291,-231.5 291,-201.5 172,-201.5"/>
<text text-anchor="start" x="180" y="-219.5" font-family="Helvetica,sans-Serif" font-size="10.00">src/_Tests/Lists/MLCL</text>
<text text-anchor="middle" x="231.5" y="-208.5" font-family="Helvetica,sans-Serif" font-size="10.00">_ArrayList_test.c</text>
</a>
</g>
</g>
<!-- Node1&#45;&gt;Node2 -->
<g id="edge1" class="edge">
<title>Node1&#45;&gt;Node2</title>
<path fill="none" stroke="midnightblue" d="M406.56,-265.71C368.15,-255.14 319.13,-241.63 282.73,-231.61"/>
<polygon fill="midnightblue" stroke="midnightblue" points="406.01,-269.19 416.58,-268.48 407.87,-262.45 406.01,-269.19"/>
</g>
<!-- Node3 -->
<g id="node3" class="node">
<title>Node3</title>
<g id="a_node3"><a xlink:href="_m_l_c_l___list_8h.html" target="_top" xlink:title=" ">
<polygon fill="none" stroke="black" points="309,-201.5 309,-231.5 416,-231.5 416,-201.5 309,-201.5"/>
<text text-anchor="start" x="317" y="-219.5" font-family="Helvetica,sans-Serif" font-size="10.00">include/Lists/MLCL</text>
<text text-anchor="middle" x="362.5" y="-208.5" font-family="Helvetica,sans-Serif" font-size="10.00">_List.h</text>
</a>
</g>
</g>
<!-- Node1&#45;&gt;Node3 -->
<g id="edge2" class="edge">
<title>Node1&#45;&gt;Node3</title>
<path fill="none" stroke="midnightblue" d="M436.02,-263.02C419.68,-252.9 400.09,-240.77 385.24,-231.58"/>
<polygon fill="midnightblue" stroke="midnightblue" points="434.37,-266.11 444.72,-268.4 438.06,-260.16 434.37,-266.11"/>
</g>
<!-- Node10 -->
<g id="node10" class="node">
<title>Node10</title>
<g id="a_node10"><a xlink:href="_m_l_c_l___binary_heap_8h.html" target="_top" xlink:title=" ">
<polygon fill="none" stroke="black" points="499.5,-201.5 499.5,-231.5 645.5,-231.5 645.5,-201.5 499.5,-201.5"/>
<text text-anchor="start" x="507.5" y="-219.5" font-family="Helvetica,sans-Serif" font-size="10.00">include/Heap/MLCL_Binary</text>
<text text-anchor="middle" x="572.5" y="-208.5" font-family="Helvetica,sans-Serif" font-size="10.00">Heap.h</text>
</a>
</g>
</g>
<!-- Node1&#45;&gt;Node10 -->
<g id="edge9" class="edge">
<title>Node1&#45;&gt;Node10</title>
<path fill="none" stroke="midnightblue" d="M498.98,-263.02C515.32,-252.9 534.91,-240.77 549.76,-231.58"/>
<polygon fill="midnightblue" stroke="midnightblue" points="496.94,-260.16 490.28,-268.4 500.63,-266.11 496.94,-260.16"/>
</g>
<!-- Node16 -->
<g id="node16" class="node">
<title>Node16</title>
<g id="a_node16"><a xlink:href="_m_l_c_l___array_list_8c.html" target="_top" xlink:title=" ">
<polygon fill="none" stroke="black" points="664,-207 664,-226 807,-226 807,-207 664,-207"/>
<text text-anchor="middle" x="735.5" y="-214" font-family="Helvetica,sans-Serif" font-size="10.00">src/Lists/MLCL_ArrayList.c</text>
</a>
</g>
</g>
<!-- Node1&#45;&gt;Node16 -->
<g id="edge15" class="edge">
<title>Node1&#45;&gt;Node16</title>
<path fill="none" stroke="midnightblue" d="M531.06,-267.09C583.99,-254.25 657.42,-236.44 700.35,-226.02"/>
<polygon fill="midnightblue" stroke="midnightblue" points="529.98,-263.74 521.09,-269.5 531.63,-270.55 529.98,-263.74"/>
</g>
<!-- Node4 -->
<g id="node4" class="node">
<title>Node4</title>
<g id="a_node4"><a xlink:href="_m_l_c_l___list__test_8c.html" target="_top" xlink:title=" ">
<polygon fill="none" stroke="black" points="0,-134.5 0,-164.5 119,-164.5 119,-134.5 0,-134.5"/>
<text text-anchor="start" x="8" y="-152.5" font-family="Helvetica,sans-Serif" font-size="10.00">src/_Tests/Lists/MLCL</text>
<text text-anchor="middle" x="59.5" y="-141.5" font-family="Helvetica,sans-Serif" font-size="10.00">_List_test.c</text>
</a>
</g>
</g>
<!-- Node3&#45;&gt;Node4 -->
<g id="edge3" class="edge">
<title>Node3&#45;&gt;Node4</title>
<path fill="none" stroke="midnightblue" d="M298.79,-200.91C267.48,-194.22 179.6,-175.74 119.23,-163.05"/>
<polygon fill="midnightblue" stroke="midnightblue" points="298.39,-204.4 308.9,-203.09 299.86,-197.56 298.39,-204.4"/>
</g>
<!-- Node5 -->
<g id="node5" class="node">
<title>Node5</title>
<g id="a_node5"><a xlink:href="_m_l_c_l___list_8c.html" target="_top" xlink:title=" ">
<polygon fill="none" stroke="black" points="137.5,-140 137.5,-159 253.5,-159 253.5,-140 137.5,-140"/>
<text text-anchor="middle" x="195.5" y="-147" font-family="Helvetica,sans-Serif" font-size="10.00">src/Lists/MLCL_List.c</text>
</a>
</g>
</g>
<!-- Node3&#45;&gt;Node5 -->
<g id="edge4" class="edge">
<title>Node3&#45;&gt;Node5</title>
<path fill="none" stroke="midnightblue" d="M316.57,-197.62C284.24,-185.04 242.43,-168.77 217.36,-159.01"/>
<polygon fill="midnightblue" stroke="midnightblue" points="315.67,-201.03 326.26,-201.4 318.21,-194.51 315.67,-201.03"/>
</g>
<!-- Node6 -->
<g id="node6" class="node">
<title>Node6</title>
<g id="a_node6"><a xlink:href="_m_l_c_l___queue_8h.html" target="_top" xlink:title=" ">
<polygon fill="none" stroke="black" points="271.5,-134.5 271.5,-164.5 387.5,-164.5 387.5,-134.5 271.5,-134.5"/>
<text text-anchor="start" x="279.5" y="-152.5" font-family="Helvetica,sans-Serif" font-size="10.00">include/Queue/MLCL</text>
<text text-anchor="middle" x="329.5" y="-141.5" font-family="Helvetica,sans-Serif" font-size="10.00">_Queue.h</text>
</a>
</g>
</g>
<!-- Node3&#45;&gt;Node6 -->
<g id="edge5" class="edge">
<title>Node3&#45;&gt;Node6</title>
<path fill="none" stroke="midnightblue" d="M350.71,-192.28C346.01,-183.02 340.75,-172.66 336.65,-164.58"/>
<polygon fill="midnightblue" stroke="midnightblue" points="347.69,-194.06 355.34,-201.4 353.93,-190.89 347.69,-194.06"/>
</g>
<!-- Node8 -->
<g id="node8" class="node">
<title>Node8</title>
<g id="a_node8"><a xlink:href="_m_l_c_l___stack_8h.html" target="_top" xlink:title=" ">
<polygon fill="none" stroke="black" points="406,-134.5 406,-164.5 517,-164.5 517,-134.5 406,-134.5"/>
<text text-anchor="start" x="414" y="-152.5" font-family="Helvetica,sans-Serif" font-size="10.00">include/Stack/MLCL</text>
<text text-anchor="middle" x="461.5" y="-141.5" font-family="Helvetica,sans-Serif" font-size="10.00">_Stack.h</text>
</a>
</g>
</g>
<!-- Node3&#45;&gt;Node8 -->
<g id="edge7" class="edge">
<title>Node3&#45;&gt;Node8</title>
<path fill="none" stroke="midnightblue" d="M392.61,-195.73C407.92,-185.68 426.19,-173.68 440.06,-164.58"/>
<polygon fill="midnightblue" stroke="midnightblue" points="390.42,-192.98 383.98,-201.4 394.26,-198.83 390.42,-192.98"/>
</g>
<!-- Node7 -->
<g id="node7" class="node">
<title>Node7</title>
<g id="a_node7"><a xlink:href="_m_l_c_l___queue_8c.html" target="_top" xlink:title=" ">
<polygon fill="none" stroke="black" points="237.5,-73 237.5,-92 377.5,-92 377.5,-73 237.5,-73"/>
<text text-anchor="middle" x="307.5" y="-80" font-family="Helvetica,sans-Serif" font-size="10.00">src/Queue/MLCL_Queue.c</text>
</a>
</g>
</g>
<!-- Node6&#45;&gt;Node7 -->
<g id="edge6" class="edge">
<title>Node6&#45;&gt;Node7</title>
<path fill="none" stroke="midnightblue" d="M321.41,-124.6C317.58,-113.28 313.24,-100.46 310.44,-92.19"/>
<polygon fill="midnightblue" stroke="midnightblue" points="318.21,-126.05 324.73,-134.4 324.84,-123.8 318.21,-126.05"/>
</g>
<!-- Node9 -->
<g id="node9" class="node">
<title>Node9</title>
<g id="a_node9"><a xlink:href="_m_l_c_l___stack_8c.html" target="_top" xlink:title=" ">
<polygon fill="none" stroke="black" points="396,-73 396,-92 527,-92 527,-73 396,-73"/>
<text text-anchor="middle" x="461.5" y="-80" font-family="Helvetica,sans-Serif" font-size="10.00">src/Stack/MLCL_Stack.c</text>
</a>
</g>
</g>
<!-- Node8&#45;&gt;Node9 -->
<g id="edge8" class="edge">
<title>Node8&#45;&gt;Node9</title>
<path fill="none" stroke="midnightblue" d="M461.5,-124.25C461.5,-113.02 461.5,-100.38 461.5,-92.19"/>
<polygon fill="midnightblue" stroke="midnightblue" points="458,-124.4 461.5,-134.4 465,-124.4 458,-124.4"/>
</g>
<!-- Node11 -->
<g id="node11" class="node">
<title>Node11</title>
<g id="a_node11"><a xlink:href="_m_l_c_l___binary_heap__test_8h.html" target="_top" xlink:title=" ">
<polygon fill="none" stroke="black" points="535,-134.5 535,-164.5 676,-164.5 676,-134.5 535,-134.5"/>
<text text-anchor="start" x="543" y="-152.5" font-family="Helvetica,sans-Serif" font-size="10.00">include/_Tests/Heap</text>
<text text-anchor="middle" x="605.5" y="-141.5" font-family="Helvetica,sans-Serif" font-size="10.00">/MLCL_BinaryHeap_test.h</text>
</a>
</g>
</g>
<!-- Node10&#45;&gt;Node11 -->
<g id="edge10" class="edge">
<title>Node10&#45;&gt;Node11</title>
<path fill="none" stroke="midnightblue" d="M584.29,-192.28C588.99,-183.02 594.25,-172.66 598.35,-164.58"/>
<polygon fill="midnightblue" stroke="midnightblue" points="581.07,-190.89 579.66,-201.4 587.31,-194.06 581.07,-190.89"/>
</g>
<!-- Node15 -->
<g id="node15" class="node">
<title>Node15</title>
<g id="a_node15"><a xlink:href="_m_l_c_l___binary_heap_8c.html" target="_top" xlink:title=" ">
<polygon fill="none" stroke="black" points="694,-140 694,-159 853,-159 853,-140 694,-140"/>
<text text-anchor="middle" x="773.5" y="-147" font-family="Helvetica,sans-Serif" font-size="10.00">src/Heap/MLCL_BinaryHeap.c</text>
</a>
</g>
</g>
<!-- Node10&#45;&gt;Node15 -->
<g id="edge14" class="edge">
<title>Node10&#45;&gt;Node15</title>
<path fill="none" stroke="midnightblue" d="M625.78,-198.27C664.95,-185.6 716.5,-168.93 747.19,-159.01"/>
<polygon fill="midnightblue" stroke="midnightblue" points="624.55,-194.99 616.11,-201.4 626.71,-201.65 624.55,-194.99"/>
</g>
<!-- Node12 -->
<g id="node12" class="node">
<title>Node12</title>
<g id="a_node12"><a xlink:href="_m_l_c_l___binary_heap__test_8c.html" target="_top" xlink:title=" ">
<polygon fill="none" stroke="black" points="545.5,-67.5 545.5,-97.5 667.5,-97.5 667.5,-67.5 545.5,-67.5"/>
<text text-anchor="start" x="553.5" y="-85.5" font-family="Helvetica,sans-Serif" font-size="10.00">src/_Tests/Heap/MLCL</text>
<text text-anchor="middle" x="606.5" y="-74.5" font-family="Helvetica,sans-Serif" font-size="10.00">_BinaryHeap_test.c</text>
</a>
</g>
</g>
<!-- Node11&#45;&gt;Node12 -->
<g id="edge11" class="edge">
<title>Node11&#45;&gt;Node12</title>
<path fill="none" stroke="midnightblue" d="M605.88,-124.11C606.01,-115.15 606.16,-105.32 606.28,-97.58"/>
<polygon fill="midnightblue" stroke="midnightblue" points="602.37,-124.34 605.72,-134.4 609.37,-124.45 602.37,-124.34"/>
</g>
<!-- Node13 -->
<g id="node13" class="node">
<title>Node13</title>
<g id="a_node13"><a xlink:href="_m_l_c_l__all__tests_8h.html" target="_top" xlink:title=" ">
<polygon fill="none" stroke="black" points="685.5,-67.5 685.5,-97.5 799.5,-97.5 799.5,-67.5 685.5,-67.5"/>
<text text-anchor="start" x="693.5" y="-85.5" font-family="Helvetica,sans-Serif" font-size="10.00">include/_Tests/MLCL</text>
<text text-anchor="middle" x="742.5" y="-74.5" font-family="Helvetica,sans-Serif" font-size="10.00">_all_tests.h</text>
</a>
</g>
</g>
<!-- Node11&#45;&gt;Node13 -->
<g id="edge12" class="edge">
<title>Node11&#45;&gt;Node13</title>
<path fill="none" stroke="midnightblue" d="M644.51,-129.99C666.22,-119.69 692.83,-107.07 712.83,-97.58"/>
<polygon fill="midnightblue" stroke="midnightblue" points="642.76,-126.95 635.23,-134.4 645.76,-133.27 642.76,-126.95"/>
</g>
<!-- Node14 -->
<g id="node14" class="node">
<title>Node14</title>
<g id="a_node14"><a xlink:href="_m_l_c_l__all__tests_8c.html" target="_top" xlink:title=" ">
<polygon fill="none" stroke="black" points="687.5,-0.5 687.5,-30.5 797.5,-30.5 797.5,-0.5 687.5,-0.5"/>
<text text-anchor="start" x="695.5" y="-18.5" font-family="Helvetica,sans-Serif" font-size="10.00">src/_Tests/MLCL_all</text>
<text text-anchor="middle" x="742.5" y="-7.5" font-family="Helvetica,sans-Serif" font-size="10.00">_tests.c</text>
</a>
</g>
</g>
<!-- Node13&#45;&gt;Node14 -->
<g id="edge13" class="edge">
<title>Node13&#45;&gt;Node14</title>
<path fill="none" stroke="midnightblue" d="M742.5,-57.11C742.5,-48.15 742.5,-38.32 742.5,-30.58"/>
<polygon fill="midnightblue" stroke="midnightblue" points="739,-57.4 742.5,-67.4 746,-57.4 739,-57.4"/>
</g>
</g>
</svg>
