<?xml version="1.0" encoding="UTF-8" standalone="no"?>
<!DOCTYPE svg PUBLIC "-//W3C//DTD SVG 1.1//EN"
 "http://www.w3.org/Graphics/SVG/1.1/DTD/svg11.dtd">
<!-- Generated by graphviz version 2.43.0 (0)
 -->
<!-- Title: include/_Tests/MLCL_exceptions.h Pages: 1 -->
<svg width="1208pt" height="117pt"
 viewBox="0.00 0.00 1208.00 117.00" xmlns="http://www.w3.org/2000/svg" xmlns:xlink="http://www.w3.org/1999/xlink">
<g id="graph0" class="graph" transform="scale(1 1) rotate(0) translate(4 113)">
<title>include/_Tests/MLCL_exceptions.h</title>
<!-- Node1 -->
<g id="node1" class="node">
<title>Node1</title>
<g id="a_node1"><a xlink:title=" ">
<polygon fill="#bfbfbf" stroke="black" points="533.5,-78.5 533.5,-108.5 647.5,-108.5 647.5,-78.5 533.5,-78.5"/>
<text text-anchor="start" x="541.5" y="-96.5" font-family="Helvetica,sans-Serif" font-size="10.00">include/_Tests/MLCL</text>
<text text-anchor="middle" x="590.5" y="-85.5" font-family="Helvetica,sans-Serif" font-size="10.00">_exceptions.h</text>
</a>
</g>
</g>
<!-- Node2 -->
<g id="node2" class="node">
<title>Node2</title>
<g id="a_node2"><a xlink:href="_m_l_c_l___array_list__test_8c.html" target="_top" xlink:title=" ">
<polygon fill="none" stroke="black" points="0,-6 0,-36 113,-36 113,-6 0,-6"/>
<text text-anchor="start" x="8" y="-24" font-family="Helvetica,sans-Serif" font-size="10.00">src/_Tests/List/MLCL</text>
<text text-anchor="middle" x="56.5" y="-13" font-family="Helvetica,sans-Serif" font-size="10.00">_ArrayList_test.c</text>
</a>
</g>
</g>
<!-- Node1&#45;&gt;Node2 -->
<g id="edge1" class="edge">
<title>Node1&#45;&gt;Node2</title>
<path fill="none" stroke="midnightblue" d="M523.03,-89.29C431.35,-84.02 262.65,-71.04 121.5,-42 113.75,-40.41 105.61,-38.28 97.8,-36"/>
<polygon fill="midnightblue" stroke="midnightblue" points="523.1,-92.8 533.29,-89.87 523.5,-85.81 523.1,-92.8"/>
</g>
<!-- Node3 -->
<g id="node3" class="node">
<title>Node3</title>
<g id="a_node3"><a xlink:href="_m_l_c_l___circular_double_linked_list__test_8c.html" target="_top" xlink:title=" ">
<polygon fill="none" stroke="black" points="131,-0.5 131,-41.5 274,-41.5 274,-0.5 131,-0.5"/>
<text text-anchor="start" x="139" y="-29.5" font-family="Helvetica,sans-Serif" font-size="10.00">src/_Tests/List/MLCL</text>
<text text-anchor="start" x="139" y="-18.5" font-family="Helvetica,sans-Serif" font-size="10.00">_CircularDoubleLinkedList</text>
<text text-anchor="middle" x="202.5" y="-7.5" font-family="Helvetica,sans-Serif" font-size="10.00">_test.c</text>
</a>
</g>
</g>
<!-- Node1&#45;&gt;Node3 -->
<g id="edge2" class="edge">
<title>Node1&#45;&gt;Node3</title>
<path fill="none" stroke="midnightblue" d="M523.28,-83.01C460.9,-73.82 365.57,-58.86 283.5,-42 280.52,-41.39 277.48,-40.74 274.42,-40.07"/>
<polygon fill="midnightblue" stroke="midnightblue" points="522.99,-86.5 533.39,-84.48 524,-79.57 522.99,-86.5"/>
</g>
<!-- Node4 -->
<g id="node4" class="node">
<title>Node4</title>
<g id="a_node4"><a xlink:href="_m_l_c_l___circular_linked_list__test_8c.html" target="_top" xlink:title=" ">
<polygon fill="none" stroke="black" points="292.5,-6 292.5,-36 432.5,-36 432.5,-6 292.5,-6"/>
<text text-anchor="start" x="300.5" y="-24" font-family="Helvetica,sans-Serif" font-size="10.00">src/_Tests/List/MLCL</text>
<text text-anchor="middle" x="362.5" y="-13" font-family="Helvetica,sans-Serif" font-size="10.00">_CircularLinkedList_test.c</text>
</a>
</g>
</g>
<!-- Node1&#45;&gt;Node4 -->
<g id="edge3" class="edge">
<title>Node1&#45;&gt;Node4</title>
<path fill="none" stroke="midnightblue" d="M535.56,-75.51C496.57,-63.46 444.84,-47.46 408.12,-36.11"/>
<polygon fill="midnightblue" stroke="midnightblue" points="534.59,-78.88 545.18,-78.49 536.66,-72.19 534.59,-78.88"/>
</g>
<!-- Node5 -->
<g id="node5" class="node">
<title>Node5</title>
<g id="a_node5"><a xlink:href="_m_l_c_l___double_linked_list__test_8c.html" target="_top" xlink:title=" ">
<polygon fill="none" stroke="black" points="451,-6 451,-36 588,-36 588,-6 451,-6"/>
<text text-anchor="start" x="459" y="-24" font-family="Helvetica,sans-Serif" font-size="10.00">src/_Tests/List/MLCL</text>
<text text-anchor="middle" x="519.5" y="-13" font-family="Helvetica,sans-Serif" font-size="10.00">_DoubleLinkedList_test.c</text>
</a>
</g>
</g>
<!-- Node1&#45;&gt;Node5 -->
<g id="edge4" class="edge">
<title>Node1&#45;&gt;Node5</title>
<path fill="none" stroke="midnightblue" d="M568.71,-70.86C557.38,-59.61 543.85,-46.18 533.85,-36.25"/>
<polygon fill="midnightblue" stroke="midnightblue" points="566.57,-73.67 576.13,-78.23 571.5,-68.7 566.57,-73.67"/>
</g>
<!-- Node6 -->
<g id="node6" class="node">
<title>Node6</title>
<g id="a_node6"><a xlink:href="_m_l_c_l___linked_list__test_8c.html" target="_top" xlink:title=" ">
<polygon fill="none" stroke="black" points="606,-6 606,-36 719,-36 719,-6 606,-6"/>
<text text-anchor="start" x="614" y="-24" font-family="Helvetica,sans-Serif" font-size="10.00">src/_Tests/List/MLCL</text>
<text text-anchor="middle" x="662.5" y="-13" font-family="Helvetica,sans-Serif" font-size="10.00">_LinkedList_test.c</text>
</a>
</g>
</g>
<!-- Node1&#45;&gt;Node6 -->
<g id="edge5" class="edge">
<title>Node1&#45;&gt;Node6</title>
<path fill="none" stroke="midnightblue" d="M612.27,-71.19C623.82,-59.87 637.71,-46.27 647.95,-36.25"/>
<polygon fill="midnightblue" stroke="midnightblue" points="609.77,-68.74 605.07,-78.23 614.66,-73.74 609.77,-68.74"/>
</g>
<!-- Node7 -->
<g id="node7" class="node">
<title>Node7</title>
<g id="a_node7"><a xlink:href="_m_l_c_l___type_descriptor__test_8c.html" target="_top" xlink:title=" ">
<polygon fill="none" stroke="black" points="737,-6 737,-36 908,-36 908,-6 737,-6"/>
<text text-anchor="start" x="745" y="-24" font-family="Helvetica,sans-Serif" font-size="10.00">src/_Tests/MLCL_TypeDescriptor</text>
<text text-anchor="middle" x="822.5" y="-13" font-family="Helvetica,sans-Serif" font-size="10.00">_test.c</text>
</a>
</g>
</g>
<!-- Node1&#45;&gt;Node7 -->
<g id="edge6" class="edge">
<title>Node1&#45;&gt;Node7</title>
<path fill="none" stroke="midnightblue" d="M646.4,-75.51C686.08,-63.46 738.72,-47.46 776.08,-36.11"/>
<polygon fill="midnightblue" stroke="midnightblue" points="645.16,-72.23 636.61,-78.49 647.2,-78.93 645.16,-72.23"/>
</g>
<!-- Node8 -->
<g id="node8" class="node">
<title>Node8</title>
<g id="a_node8"><a xlink:href="_m_l_c_l___a_v_l_tree__test_8c.html" target="_top" xlink:title=" ">
<polygon fill="none" stroke="black" points="926.5,-6 926.5,-36 1042.5,-36 1042.5,-6 926.5,-6"/>
<text text-anchor="start" x="934.5" y="-24" font-family="Helvetica,sans-Serif" font-size="10.00">src/_Tests/Tree/MLCL</text>
<text text-anchor="middle" x="984.5" y="-13" font-family="Helvetica,sans-Serif" font-size="10.00">_AVLTree_test.c</text>
</a>
</g>
</g>
<!-- Node1&#45;&gt;Node8 -->
<g id="edge7" class="edge">
<title>Node1&#45;&gt;Node8</title>
<path fill="none" stroke="midnightblue" d="M657.58,-84.87C724.04,-76.67 828.49,-62.06 917.5,-42 924.96,-40.32 932.81,-38.25 940.4,-36.1"/>
<polygon fill="midnightblue" stroke="midnightblue" points="657.16,-81.39 647.65,-86.08 658.01,-88.34 657.16,-81.39"/>
</g>
<!-- Node9 -->
<g id="node9" class="node">
<title>Node9</title>
<g id="a_node9"><a xlink:href="_m_l_c_l___binary_search_tree__test_8c.html" target="_top" xlink:title=" ">
<polygon fill="none" stroke="black" points="1061,-6 1061,-36 1200,-36 1200,-6 1061,-6"/>
<text text-anchor="start" x="1069" y="-24" font-family="Helvetica,sans-Serif" font-size="10.00">src/_Tests/Tree/MLCL</text>
<text text-anchor="middle" x="1130.5" y="-13" font-family="Helvetica,sans-Serif" font-size="10.00">_BinarySearchTree_test.c</text>
</a>
</g>
</g>
<!-- Node1&#45;&gt;Node9 -->
<g id="edge8" class="edge">
<title>Node1&#45;&gt;Node9</title>
<path fill="none" stroke="midnightblue" d="M657.73,-88.07C747.87,-81.47 912.65,-67.06 1051.5,-42 1060.55,-40.37 1070.1,-38.27 1079.31,-36.06"/>
<polygon fill="midnightblue" stroke="midnightblue" points="657.36,-84.59 647.64,-88.8 657.87,-91.57 657.36,-84.59"/>
</g>
</g>
</svg>
