<?xml version="1.0" encoding="UTF-8" standalone="no"?>
<!DOCTYPE svg PUBLIC "-//W3C//DTD SVG 1.1//EN"
 "http://www.w3.org/Graphics/SVG/1.1/DTD/svg11.dtd">
<!-- Generated by graphviz version 2.43.0 (0)
 -->
<!-- Title: include/_Tests/MLCL_exceptions.h Pages: 1 -->
<svg width="1077pt" height="117pt"
 viewBox="0.00 0.00 1077.00 117.00" xmlns="http://www.w3.org/2000/svg" xmlns:xlink="http://www.w3.org/1999/xlink">
<g id="graph0" class="graph" transform="scale(1 1) rotate(0) translate(4 113)">
<title>include/_Tests/MLCL_exceptions.h</title>
<!-- Node1 -->
<g id="node1" class="node">
<title>Node1</title>
<g id="a_node1"><a xlink:title=" ">
<polygon fill="#bfbfbf" stroke="black" points="474.5,-78.5 474.5,-108.5 588.5,-108.5 588.5,-78.5 474.5,-78.5"/>
<text text-anchor="start" x="482.5" y="-96.5" font-family="Helvetica,sans-Serif" font-size="10.00">include/_Tests/MLCL</text>
<text text-anchor="middle" x="531.5" y="-85.5" font-family="Helvetica,sans-Serif" font-size="10.00">_exceptions.h</text>
</a>
</g>
</g>
<!-- Node2 -->
<g id="node2" class="node">
<title>Node2</title>
<g id="a_node2"><a xlink:href="_m_l_c_l___circular_double_linked_list__test_8c.html" target="_top" xlink:title=" ">
<polygon fill="none" stroke="black" points="0,-0.5 0,-41.5 143,-41.5 143,-0.5 0,-0.5"/>
<text text-anchor="start" x="8" y="-29.5" font-family="Helvetica,sans-Serif" font-size="10.00">src/_Tests/List/MLCL</text>
<text text-anchor="start" x="8" y="-18.5" font-family="Helvetica,sans-Serif" font-size="10.00">_CircularDoubleLinkedList</text>
<text text-anchor="middle" x="71.5" y="-7.5" font-family="Helvetica,sans-Serif" font-size="10.00">_test.c</text>
</a>
</g>
</g>
<!-- Node1&#45;&gt;Node2 -->
<g id="edge1" class="edge">
<title>Node1&#45;&gt;Node2</title>
<path fill="none" stroke="midnightblue" d="M463.97,-85.76C387.9,-77.65 260.73,-62.51 152.5,-42 149.51,-41.43 146.47,-40.83 143.4,-40.19"/>
<polygon fill="midnightblue" stroke="midnightblue" points="464.05,-89.29 474.36,-86.86 464.79,-82.33 464.05,-89.29"/>
</g>
<!-- Node3 -->
<g id="node3" class="node">
<title>Node3</title>
<g id="a_node3"><a xlink:href="_m_l_c_l___circular_linked_list__test_8c.html" target="_top" xlink:title=" ">
<polygon fill="none" stroke="black" points="161.5,-6 161.5,-36 301.5,-36 301.5,-6 161.5,-6"/>
<text text-anchor="start" x="169.5" y="-24" font-family="Helvetica,sans-Serif" font-size="10.00">src/_Tests/List/MLCL</text>
<text text-anchor="middle" x="231.5" y="-13" font-family="Helvetica,sans-Serif" font-size="10.00">_CircularLinkedList_test.c</text>
</a>
</g>
</g>
<!-- Node1&#45;&gt;Node3 -->
<g id="edge2" class="edge">
<title>Node1&#45;&gt;Node3</title>
<path fill="none" stroke="midnightblue" d="M464.21,-77.55C420.37,-67.71 361.97,-54.39 310.5,-42 302.66,-40.11 294.39,-38.07 286.28,-36.04"/>
<polygon fill="midnightblue" stroke="midnightblue" points="463.65,-81.01 474.18,-79.79 465.18,-74.18 463.65,-81.01"/>
</g>
<!-- Node4 -->
<g id="node4" class="node">
<title>Node4</title>
<g id="a_node4"><a xlink:href="_m_l_c_l___double_linked_list__test_8c.html" target="_top" xlink:title=" ">
<polygon fill="none" stroke="black" points="320,-6 320,-36 457,-36 457,-6 320,-6"/>
<text text-anchor="start" x="328" y="-24" font-family="Helvetica,sans-Serif" font-size="10.00">src/_Tests/List/MLCL</text>
<text text-anchor="middle" x="388.5" y="-13" font-family="Helvetica,sans-Serif" font-size="10.00">_DoubleLinkedList_test.c</text>
</a>
</g>
</g>
<!-- Node1&#45;&gt;Node4 -->
<g id="edge3" class="edge">
<title>Node1&#45;&gt;Node4</title>
<path fill="none" stroke="midnightblue" d="M493.72,-73.87C469.68,-62.02 439.05,-46.92 417.04,-36.07"/>
<polygon fill="midnightblue" stroke="midnightblue" points="492.39,-77.12 502.91,-78.4 495.48,-70.84 492.39,-77.12"/>
</g>
<!-- Node5 -->
<g id="node5" class="node">
<title>Node5</title>
<g id="a_node5"><a xlink:href="_m_l_c_l___linked_list__test_8c.html" target="_top" xlink:title=" ">
<polygon fill="none" stroke="black" points="475,-6 475,-36 588,-36 588,-6 475,-6"/>
<text text-anchor="start" x="483" y="-24" font-family="Helvetica,sans-Serif" font-size="10.00">src/_Tests/List/MLCL</text>
<text text-anchor="middle" x="531.5" y="-13" font-family="Helvetica,sans-Serif" font-size="10.00">_LinkedList_test.c</text>
</a>
</g>
</g>
<!-- Node1&#45;&gt;Node5 -->
<g id="edge4" class="edge">
<title>Node1&#45;&gt;Node5</title>
<path fill="none" stroke="midnightblue" d="M531.5,-68.23C531.5,-57.57 531.5,-45.41 531.5,-36.25"/>
<polygon fill="midnightblue" stroke="midnightblue" points="528,-68.23 531.5,-78.23 535,-68.23 528,-68.23"/>
</g>
<!-- Node6 -->
<g id="node6" class="node">
<title>Node6</title>
<g id="a_node6"><a xlink:href="_m_l_c_l___type_descriptor__test_8c.html" target="_top" xlink:title=" ">
<polygon fill="none" stroke="black" points="606,-6 606,-36 777,-36 777,-6 606,-6"/>
<text text-anchor="start" x="614" y="-24" font-family="Helvetica,sans-Serif" font-size="10.00">src/_Tests/MLCL_TypeDescriptor</text>
<text text-anchor="middle" x="691.5" y="-13" font-family="Helvetica,sans-Serif" font-size="10.00">_test.c</text>
</a>
</g>
</g>
<!-- Node1&#45;&gt;Node6 -->
<g id="edge5" class="edge">
<title>Node1&#45;&gt;Node6</title>
<path fill="none" stroke="midnightblue" d="M572.71,-74.34C599.76,-62.42 634.61,-47.07 659.56,-36.07"/>
<polygon fill="midnightblue" stroke="midnightblue" points="571.23,-71.17 563.49,-78.4 574.06,-77.57 571.23,-71.17"/>
</g>
<!-- Node7 -->
<g id="node7" class="node">
<title>Node7</title>
<g id="a_node7"><a xlink:href="_m_l_c_l___a_v_l_tree__test_8c.html" target="_top" xlink:title=" ">
<polygon fill="none" stroke="black" points="795.5,-6 795.5,-36 911.5,-36 911.5,-6 795.5,-6"/>
<text text-anchor="start" x="803.5" y="-24" font-family="Helvetica,sans-Serif" font-size="10.00">src/_Tests/Tree/MLCL</text>
<text text-anchor="middle" x="853.5" y="-13" font-family="Helvetica,sans-Serif" font-size="10.00">_AVLTree_test.c</text>
</a>
</g>
</g>
<!-- Node1&#45;&gt;Node7 -->
<g id="edge6" class="edge">
<title>Node1&#45;&gt;Node7</title>
<path fill="none" stroke="midnightblue" d="M598.59,-81C650.24,-71.72 723.25,-57.67 786.5,-42 793.69,-40.22 801.25,-38.15 808.61,-36.04"/>
<polygon fill="midnightblue" stroke="midnightblue" points="597.79,-77.59 588.56,-82.8 599.02,-84.48 597.79,-77.59"/>
</g>
<!-- Node8 -->
<g id="node8" class="node">
<title>Node8</title>
<g id="a_node8"><a xlink:href="_m_l_c_l___binary_search_tree__test_8c.html" target="_top" xlink:title=" ">
<polygon fill="none" stroke="black" points="930,-6 930,-36 1069,-36 1069,-6 930,-6"/>
<text text-anchor="start" x="938" y="-24" font-family="Helvetica,sans-Serif" font-size="10.00">src/_Tests/Tree/MLCL</text>
<text text-anchor="middle" x="999.5" y="-13" font-family="Helvetica,sans-Serif" font-size="10.00">_BinarySearchTree_test.c</text>
</a>
</g>
</g>
<!-- Node1&#45;&gt;Node8 -->
<g id="edge7" class="edge">
<title>Node1&#45;&gt;Node8</title>
<path fill="none" stroke="midnightblue" d="M598.68,-86.23C676.53,-78.4 808.46,-63.38 920.5,-42 929.39,-40.3 938.78,-38.2 947.85,-36.01"/>
<polygon fill="midnightblue" stroke="midnightblue" points="598.13,-82.77 588.53,-87.24 598.83,-89.73 598.13,-82.77"/>
</g>
</g>
</svg>
