<?xml version="1.0" encoding="UTF-8" standalone="no"?>
<!DOCTYPE svg PUBLIC "-//W3C//DTD SVG 1.1//EN"
 "http://www.w3.org/Graphics/SVG/1.1/DTD/svg11.dtd">
<!-- Generated by graphviz version 2.43.0 (0)
 -->
<!-- Title: include/Lists/MLCL_List.h Pages: 1 -->
<svg width="585pt" height="173pt"
 viewBox="0.00 0.00 584.50 173.00" xmlns="http://www.w3.org/2000/svg" xmlns:xlink="http://www.w3.org/1999/xlink">
<g id="graph0" class="graph" transform="scale(1 1) rotate(0) translate(4 169)">
<title>include/Lists/MLCL_List.h</title>
<!-- Node1 -->
<g id="node1" class="node">
<title>Node1</title>
<g id="a_node1"><a xlink:title=" ">
<polygon fill="#bfbfbf" stroke="black" points="236.5,-134.5 236.5,-164.5 343.5,-164.5 343.5,-134.5 236.5,-134.5"/>
<text text-anchor="start" x="244.5" y="-152.5" font-family="Helvetica,sans-Serif" font-size="10.00">include/Lists/MLCL</text>
<text text-anchor="middle" x="290" y="-141.5" font-family="Helvetica,sans-Serif" font-size="10.00">_List.h</text>
</a>
</g>
</g>
<!-- Node2 -->
<g id="node2" class="node">
<title>Node2</title>
<g id="a_node2"><a xlink:href="_m_l_c_l___list__test_8c.html" target="_top" xlink:title=" ">
<polygon fill="none" stroke="black" points="24.5,-67.5 24.5,-97.5 143.5,-97.5 143.5,-67.5 24.5,-67.5"/>
<text text-anchor="start" x="32.5" y="-85.5" font-family="Helvetica,sans-Serif" font-size="10.00">src/_Tests/Lists/MLCL</text>
<text text-anchor="middle" x="84" y="-74.5" font-family="Helvetica,sans-Serif" font-size="10.00">_List_test.c</text>
</a>
</g>
</g>
<!-- Node1&#45;&gt;Node2 -->
<g id="edge1" class="edge">
<title>Node1&#45;&gt;Node2</title>
<path fill="none" stroke="midnightblue" d="M235.95,-131.44C202.55,-120.91 160.22,-107.55 128.72,-97.61"/>
<polygon fill="midnightblue" stroke="midnightblue" points="234.96,-134.8 245.55,-134.48 237.07,-128.13 234.96,-134.8"/>
</g>
<!-- Node3 -->
<g id="node3" class="node">
<title>Node3</title>
<g id="a_node3"><a xlink:href="_m_l_c_l___queue_8h.html" target="_top" xlink:title=" ">
<polygon fill="none" stroke="black" points="162,-67.5 162,-97.5 278,-97.5 278,-67.5 162,-67.5"/>
<text text-anchor="start" x="170" y="-85.5" font-family="Helvetica,sans-Serif" font-size="10.00">include/Queue/MLCL</text>
<text text-anchor="middle" x="220" y="-74.5" font-family="Helvetica,sans-Serif" font-size="10.00">_Queue.h</text>
</a>
</g>
</g>
<!-- Node1&#45;&gt;Node3 -->
<g id="edge2" class="edge">
<title>Node1&#45;&gt;Node3</title>
<path fill="none" stroke="midnightblue" d="M267.18,-127.31C256.68,-117.56 244.51,-106.26 235.16,-97.58"/>
<polygon fill="midnightblue" stroke="midnightblue" points="265.1,-130.16 274.81,-134.4 269.86,-125.03 265.1,-130.16"/>
</g>
<!-- Node6 -->
<g id="node6" class="node">
<title>Node6</title>
<g id="a_node6"><a xlink:href="_m_l_c_l___stack_8h.html" target="_top" xlink:title=" ">
<polygon fill="none" stroke="black" points="305.5,-67.5 305.5,-97.5 416.5,-97.5 416.5,-67.5 305.5,-67.5"/>
<text text-anchor="start" x="313.5" y="-85.5" font-family="Helvetica,sans-Serif" font-size="10.00">include/Stack/MLCL</text>
<text text-anchor="middle" x="361" y="-74.5" font-family="Helvetica,sans-Serif" font-size="10.00">_Stack.h</text>
</a>
</g>
</g>
<!-- Node1&#45;&gt;Node6 -->
<g id="edge5" class="edge">
<title>Node1&#45;&gt;Node6</title>
<path fill="none" stroke="midnightblue" d="M312.83,-127.6C323.55,-117.78 336.05,-106.34 345.62,-97.58"/>
<polygon fill="midnightblue" stroke="midnightblue" points="310.42,-125.06 305.41,-134.4 315.15,-130.22 310.42,-125.06"/>
</g>
<!-- Node9 -->
<g id="node9" class="node">
<title>Node9</title>
<g id="a_node9"><a xlink:href="_m_l_c_l___list_8c.html" target="_top" xlink:title=" ">
<polygon fill="none" stroke="black" points="435,-73 435,-92 551,-92 551,-73 435,-73"/>
<text text-anchor="middle" x="493" y="-80" font-family="Helvetica,sans-Serif" font-size="10.00">src/Lists/MLCL_List.c</text>
</a>
</g>
</g>
<!-- Node1&#45;&gt;Node9 -->
<g id="edge8" class="edge">
<title>Node1&#45;&gt;Node9</title>
<path fill="none" stroke="midnightblue" d="M343.81,-131.27C383.37,-118.6 435.43,-101.93 466.43,-92.01"/>
<polygon fill="midnightblue" stroke="midnightblue" points="342.5,-128.01 334.05,-134.4 344.64,-134.68 342.5,-128.01"/>
</g>
<!-- Node4 -->
<g id="node4" class="node">
<title>Node4</title>
<g id="a_node4"><a xlink:href="_m_l_c_l___queue__test_8c.html" target="_top" xlink:title=" ">
<polygon fill="none" stroke="black" points="0,-0.5 0,-30.5 128,-30.5 128,-0.5 0,-0.5"/>
<text text-anchor="start" x="8" y="-18.5" font-family="Helvetica,sans-Serif" font-size="10.00">src/_Tests/Queue/MLCL</text>
<text text-anchor="middle" x="64" y="-7.5" font-family="Helvetica,sans-Serif" font-size="10.00">_Queue_test.c</text>
</a>
</g>
</g>
<!-- Node3&#45;&gt;Node4 -->
<g id="edge3" class="edge">
<title>Node3&#45;&gt;Node4</title>
<path fill="none" stroke="midnightblue" d="M176.91,-63.54C151.94,-53.14 120.97,-40.24 97.78,-30.58"/>
<polygon fill="midnightblue" stroke="midnightblue" points="175.57,-66.78 186.15,-67.4 178.27,-60.32 175.57,-66.78"/>
</g>
<!-- Node5 -->
<g id="node5" class="node">
<title>Node5</title>
<g id="a_node5"><a xlink:href="_m_l_c_l___queue_8c.html" target="_top" xlink:title=" ">
<polygon fill="none" stroke="black" points="146,-6 146,-25 286,-25 286,-6 146,-6"/>
<text text-anchor="middle" x="216" y="-13" font-family="Helvetica,sans-Serif" font-size="10.00">src/Queue/MLCL_Queue.c</text>
</a>
</g>
</g>
<!-- Node3&#45;&gt;Node5 -->
<g id="edge4" class="edge">
<title>Node3&#45;&gt;Node5</title>
<path fill="none" stroke="midnightblue" d="M218.51,-57.25C217.82,-46.02 217.04,-33.38 216.54,-25.19"/>
<polygon fill="midnightblue" stroke="midnightblue" points="215.02,-57.63 219.13,-67.4 222.01,-57.2 215.02,-57.63"/>
</g>
<!-- Node7 -->
<g id="node7" class="node">
<title>Node7</title>
<g id="a_node7"><a xlink:href="_m_l_c_l___stack__test_8c.html" target="_top" xlink:title=" ">
<polygon fill="none" stroke="black" points="304.5,-0.5 304.5,-30.5 427.5,-30.5 427.5,-0.5 304.5,-0.5"/>
<text text-anchor="start" x="312.5" y="-18.5" font-family="Helvetica,sans-Serif" font-size="10.00">src/_Tests/Stack/MLCL</text>
<text text-anchor="middle" x="366" y="-7.5" font-family="Helvetica,sans-Serif" font-size="10.00">_Stack_test.c</text>
</a>
</g>
</g>
<!-- Node6&#45;&gt;Node7 -->
<g id="edge6" class="edge">
<title>Node6&#45;&gt;Node7</title>
<path fill="none" stroke="midnightblue" d="M362.85,-57.4C363.55,-48.37 364.31,-38.41 364.92,-30.58"/>
<polygon fill="midnightblue" stroke="midnightblue" points="359.36,-57.16 362.08,-67.4 366.34,-57.69 359.36,-57.16"/>
</g>
<!-- Node8 -->
<g id="node8" class="node">
<title>Node8</title>
<g id="a_node8"><a xlink:href="_m_l_c_l___stack_8c.html" target="_top" xlink:title=" ">
<polygon fill="none" stroke="black" points="445.5,-6 445.5,-25 576.5,-25 576.5,-6 445.5,-6"/>
<text text-anchor="middle" x="511" y="-13" font-family="Helvetica,sans-Serif" font-size="10.00">src/Stack/MLCL_Stack.c</text>
</a>
</g>
</g>
<!-- Node6&#45;&gt;Node8 -->
<g id="edge7" class="edge">
<title>Node6&#45;&gt;Node8</title>
<path fill="none" stroke="midnightblue" d="M403.01,-63.3C431.94,-50.76 469.04,-34.68 491.37,-25.01"/>
<polygon fill="midnightblue" stroke="midnightblue" points="401.33,-60.21 393.55,-67.4 404.11,-66.63 401.33,-60.21"/>
</g>
</g>
</svg>
