<?xml version="1.0" encoding="UTF-8" standalone="no"?>
<!DOCTYPE svg PUBLIC "-//W3C//DTD SVG 1.1//EN"
 "http://www.w3.org/Graphics/SVG/1.1/DTD/svg11.dtd">
<!-- Generated by graphviz version 2.43.0 (0)
 -->
<!-- Title: include/MLCL_TypeDescriptor.h Pages: 1 -->
<svg width="1464pt" height="229pt"
 viewBox="0.00 0.00 1463.50 229.00" xmlns="http://www.w3.org/2000/svg" xmlns:xlink="http://www.w3.org/1999/xlink">
<g id="graph0" class="graph" transform="scale(1 1) rotate(0) translate(4 225)">
<title>include/MLCL_TypeDescriptor.h</title>
<!-- Node1 -->
<g id="node1" class="node">
<title>Node1</title>
<g id="a_node1"><a xlink:title=" ">
<polygon fill="#bfbfbf" stroke="black" points="916,-201.5 916,-220.5 1083,-220.5 1083,-201.5 916,-201.5"/>
<text text-anchor="middle" x="999.5" y="-208.5" font-family="Helvetica,sans-Serif" font-size="10.00">include/MLCL_TypeDescriptor.h</text>
</a>
</g>
</g>
<!-- Node2 -->
<g id="node2" class="node">
<title>Node2</title>
<g id="a_node2"><a xlink:href="_m_l_c_l__basic__types_8h.html" target="_top" xlink:title=" ">
<polygon fill="none" stroke="black" points="870.5,-134.5 870.5,-164.5 982.5,-164.5 982.5,-134.5 870.5,-134.5"/>
<text text-anchor="start" x="878.5" y="-152.5" font-family="Helvetica,sans-Serif" font-size="10.00">include/MLCL_basic</text>
<text text-anchor="middle" x="926.5" y="-141.5" font-family="Helvetica,sans-Serif" font-size="10.00">_types.h</text>
</a>
</g>
</g>
<!-- Node1&#45;&gt;Node2 -->
<g id="edge1" class="edge">
<title>Node1&#45;&gt;Node2</title>
<path fill="none" stroke="midnightblue" d="M981,-194.92C969.54,-185.58 954.92,-173.66 943.7,-164.52"/>
<polygon fill="midnightblue" stroke="midnightblue" points="979.08,-197.87 989.04,-201.48 983.5,-192.44 979.08,-197.87"/>
</g>
<!-- Node9 -->
<g id="node9" class="node">
<title>Node9</title>
<g id="a_node9"><a xlink:href="_m_l_c_l___double_linked_list_8h.html" target="_top" xlink:title=" ">
<polygon fill="none" stroke="black" points="237.5,-134.5 237.5,-164.5 389.5,-164.5 389.5,-134.5 237.5,-134.5"/>
<text text-anchor="start" x="245.5" y="-152.5" font-family="Helvetica,sans-Serif" font-size="10.00">include/MLCL_DoubleLinked</text>
<text text-anchor="middle" x="313.5" y="-141.5" font-family="Helvetica,sans-Serif" font-size="10.00">List.h</text>
</a>
</g>
</g>
<!-- Node1&#45;&gt;Node9 -->
<g id="edge8" class="edge">
<title>Node1&#45;&gt;Node9</title>
<path fill="none" stroke="midnightblue" d="M905.65,-201.86C768.53,-189.97 516.04,-168.07 389.69,-157.11"/>
<polygon fill="midnightblue" stroke="midnightblue" points="905.46,-205.36 915.73,-202.73 906.07,-198.38 905.46,-205.36"/>
</g>
<!-- Node13 -->
<g id="node13" class="node">
<title>Node13</title>
<g id="a_node13"><a xlink:href="_m_l_c_l___linked_list_8h.html" target="_top" xlink:title=" ">
<polygon fill="none" stroke="black" points="1000.5,-140 1000.5,-159 1144.5,-159 1144.5,-140 1000.5,-140"/>
<text text-anchor="middle" x="1072.5" y="-147" font-family="Helvetica,sans-Serif" font-size="10.00">include/MLCL_LinkedList.h</text>
</a>
</g>
</g>
<!-- Node1&#45;&gt;Node13 -->
<g id="edge15" class="edge">
<title>Node1&#45;&gt;Node13</title>
<path fill="none" stroke="midnightblue" d="M1017.94,-194.97C1031.9,-183.59 1050.58,-168.37 1062.06,-159.01"/>
<polygon fill="midnightblue" stroke="midnightblue" points="1015.5,-192.44 1009.96,-201.48 1019.92,-197.87 1015.5,-192.44"/>
</g>
<!-- Node17 -->
<g id="node17" class="node">
<title>Node17</title>
<g id="a_node17"><a xlink:href="_m_l_c_l___type_descriptor_8c.html" target="_top" xlink:title=" ">
<polygon fill="none" stroke="black" points="1162.5,-140 1162.5,-159 1308.5,-159 1308.5,-140 1162.5,-140"/>
<text text-anchor="middle" x="1235.5" y="-147" font-family="Helvetica,sans-Serif" font-size="10.00">src/MLCL_TypeDescriptor.c</text>
</a>
</g>
</g>
<!-- Node1&#45;&gt;Node17 -->
<g id="edge21" class="edge">
<title>Node1&#45;&gt;Node17</title>
<path fill="none" stroke="midnightblue" d="M1043.26,-198.97C1089.08,-187.41 1160.07,-169.52 1201.75,-159.01"/>
<polygon fill="midnightblue" stroke="midnightblue" points="1042.15,-195.64 1033.31,-201.48 1043.87,-202.42 1042.15,-195.64"/>
</g>
<!-- Node3 -->
<g id="node3" class="node">
<title>Node3</title>
<g id="a_node3"><a xlink:href="_m_l_c_l__basic__types_8c.html" target="_top" xlink:title=" ">
<polygon fill="none" stroke="black" points="772,-73 772,-92 903,-92 903,-73 772,-73"/>
<text text-anchor="middle" x="837.5" y="-80" font-family="Helvetica,sans-Serif" font-size="10.00">src/MLCL_basic_types.c</text>
</a>
</g>
</g>
<!-- Node2&#45;&gt;Node3 -->
<g id="edge2" class="edge">
<title>Node2&#45;&gt;Node3</title>
<path fill="none" stroke="midnightblue" d="M898.85,-128.31C882.14,-116.1 861.7,-101.18 849.15,-92.01"/>
<polygon fill="midnightblue" stroke="midnightblue" points="897.05,-131.32 907.19,-134.4 901.18,-125.67 897.05,-131.32"/>
</g>
<!-- Node4 -->
<g id="node4" class="node">
<title>Node4</title>
<g id="a_node4"><a xlink:href="_m_l_c_l___circular_double_linked_list__test_8c.html" target="_top" xlink:title=" ">
<polygon fill="none" stroke="black" points="559,-0.5 559,-30.5 724,-30.5 724,-0.5 559,-0.5"/>
<text text-anchor="start" x="567" y="-18.5" font-family="Helvetica,sans-Serif" font-size="10.00">src/Tests/MLCL_CircularDouble</text>
<text text-anchor="middle" x="641.5" y="-7.5" font-family="Helvetica,sans-Serif" font-size="10.00">LinkedList_test.c</text>
</a>
</g>
</g>
<!-- Node2&#45;&gt;Node4 -->
<g id="edge3" class="edge">
<title>Node2&#45;&gt;Node4</title>
<path fill="none" stroke="midnightblue" d="M928.79,-124.07C929.08,-105.88 926.21,-81.75 911.5,-67 885.66,-41.08 793.73,-28.09 724.26,-21.84"/>
<polygon fill="midnightblue" stroke="midnightblue" points="925.29,-124.07 928.31,-134.23 932.28,-124.41 925.29,-124.07"/>
</g>
<!-- Node5 -->
<g id="node5" class="node">
<title>Node5</title>
<g id="a_node5"><a xlink:href="_m_l_c_l___circular_linked_list__test_8c.html" target="_top" xlink:title=" ">
<polygon fill="none" stroke="black" points="1001.5,-0.5 1001.5,-30.5 1163.5,-30.5 1163.5,-0.5 1001.5,-0.5"/>
<text text-anchor="start" x="1009.5" y="-18.5" font-family="Helvetica,sans-Serif" font-size="10.00">src/Tests/MLCL_CircularLinked</text>
<text text-anchor="middle" x="1082.5" y="-7.5" font-family="Helvetica,sans-Serif" font-size="10.00">List_test.c</text>
</a>
</g>
</g>
<!-- Node2&#45;&gt;Node5 -->
<g id="edge4" class="edge">
<title>Node2&#45;&gt;Node5</title>
<path fill="none" stroke="midnightblue" d="M939.96,-125.79C951.26,-108.15 968.7,-83.91 988.5,-67 1006.25,-51.84 1029.3,-39.37 1048.13,-30.62"/>
<polygon fill="midnightblue" stroke="midnightblue" points="936.95,-124.01 934.63,-134.35 942.89,-127.71 936.95,-124.01"/>
</g>
<!-- Node6 -->
<g id="node6" class="node">
<title>Node6</title>
<g id="a_node6"><a xlink:href="_m_l_c_l___double_linked_list__test_8c.html" target="_top" xlink:title=" ">
<polygon fill="none" stroke="black" points="410,-67.5 410,-97.5 569,-97.5 569,-67.5 410,-67.5"/>
<text text-anchor="start" x="418" y="-85.5" font-family="Helvetica,sans-Serif" font-size="10.00">src/Tests/MLCL_DoubleLinked</text>
<text text-anchor="middle" x="489.5" y="-74.5" font-family="Helvetica,sans-Serif" font-size="10.00">List_test.c</text>
</a>
</g>
</g>
<!-- Node2&#45;&gt;Node6 -->
<g id="edge5" class="edge">
<title>Node2&#45;&gt;Node6</title>
<path fill="none" stroke="midnightblue" d="M860.39,-139.26C790.35,-129.38 676.55,-113.1 578.5,-98 575.41,-97.52 572.25,-97.03 569.07,-96.53"/>
<polygon fill="midnightblue" stroke="midnightblue" points="860.01,-142.74 870.4,-140.67 860.99,-135.8 860.01,-142.74"/>
</g>
<!-- Node7 -->
<g id="node7" class="node">
<title>Node7</title>
<g id="a_node7"><a xlink:href="_m_l_c_l___linked_list__test_8c.html" target="_top" xlink:title=" ">
<polygon fill="none" stroke="black" points="997.5,-67.5 997.5,-97.5 1139.5,-97.5 1139.5,-67.5 997.5,-67.5"/>
<text text-anchor="start" x="1005.5" y="-85.5" font-family="Helvetica,sans-Serif" font-size="10.00">src/Tests/MLCL_LinkedList</text>
<text text-anchor="middle" x="1068.5" y="-74.5" font-family="Helvetica,sans-Serif" font-size="10.00">_test.c</text>
</a>
</g>
</g>
<!-- Node2&#45;&gt;Node7 -->
<g id="edge6" class="edge">
<title>Node2&#45;&gt;Node7</title>
<path fill="none" stroke="midnightblue" d="M966.63,-130.13C989.19,-119.8 1016.92,-107.11 1037.75,-97.58"/>
<polygon fill="midnightblue" stroke="midnightblue" points="964.95,-127.05 957.31,-134.4 967.86,-133.42 964.95,-127.05"/>
</g>
<!-- Node8 -->
<g id="node8" class="node">
<title>Node8</title>
<g id="a_node8"><a xlink:href="_m_l_c_l___type_descriptor__test_8c.html" target="_top" xlink:title=" ">
<polygon fill="none" stroke="black" points="587.5,-67.5 587.5,-97.5 753.5,-97.5 753.5,-67.5 587.5,-67.5"/>
<text text-anchor="start" x="595.5" y="-85.5" font-family="Helvetica,sans-Serif" font-size="10.00">src/Tests/MLCL_TypeDescriptor</text>
<text text-anchor="middle" x="670.5" y="-74.5" font-family="Helvetica,sans-Serif" font-size="10.00">_test.c</text>
</a>
</g>
</g>
<!-- Node2&#45;&gt;Node8 -->
<g id="edge7" class="edge">
<title>Node2&#45;&gt;Node8</title>
<path fill="none" stroke="midnightblue" d="M861.45,-131.98C819.64,-121.37 765.89,-107.72 726.08,-97.61"/>
<polygon fill="midnightblue" stroke="midnightblue" points="860.71,-135.41 871.27,-134.48 862.44,-128.62 860.71,-135.41"/>
</g>
<!-- Node9&#45;&gt;Node6 -->
<g id="edge14" class="edge">
<title>Node9&#45;&gt;Node6</title>
<path fill="none" stroke="midnightblue" d="M361.38,-130.82C389.67,-120.37 424.99,-107.32 451.39,-97.58"/>
<polygon fill="midnightblue" stroke="midnightblue" points="359.86,-127.65 351.69,-134.4 362.28,-134.21 359.86,-127.65"/>
</g>
<!-- Node10 -->
<g id="node10" class="node">
<title>Node10</title>
<g id="a_node10"><a xlink:href="_m_l_c_l___circular_double_linked_list_8c.html" target="_top" xlink:title=" ">
<polygon fill="none" stroke="black" points="0,-0.5 0,-30.5 169,-30.5 169,-0.5 0,-0.5"/>
<text text-anchor="start" x="8" y="-18.5" font-family="Helvetica,sans-Serif" font-size="10.00">src/MLCL_CircularDoubleLinked</text>
<text text-anchor="middle" x="84.5" y="-7.5" font-family="Helvetica,sans-Serif" font-size="10.00">List.c</text>
</a>
</g>
</g>
<!-- Node9&#45;&gt;Node10 -->
<g id="edge9" class="edge">
<title>Node9&#45;&gt;Node10</title>
<path fill="none" stroke="midnightblue" d="M227.05,-143.6C158.94,-137.72 71.84,-125.02 49.5,-98 32.72,-77.71 53.97,-48.16 69.94,-30.78"/>
<polygon fill="midnightblue" stroke="midnightblue" points="227.13,-147.12 237.38,-144.45 227.71,-140.14 227.13,-147.12"/>
</g>
<!-- Node11 -->
<g id="node11" class="node">
<title>Node11</title>
<g id="a_node11"><a xlink:href="_m_l_c_l___circular_double_linked_list_8h.html" target="_top" xlink:title=" ">
<polygon fill="none" stroke="black" points="58.5,-67.5 58.5,-97.5 216.5,-97.5 216.5,-67.5 58.5,-67.5"/>
<text text-anchor="start" x="66.5" y="-85.5" font-family="Helvetica,sans-Serif" font-size="10.00">include/MLCL_CircularDouble</text>
<text text-anchor="middle" x="137.5" y="-74.5" font-family="Helvetica,sans-Serif" font-size="10.00">LinkedList.h</text>
</a>
</g>
</g>
<!-- Node9&#45;&gt;Node11 -->
<g id="edge10" class="edge">
<title>Node9&#45;&gt;Node11</title>
<path fill="none" stroke="midnightblue" d="M265.62,-130.82C237.33,-120.37 202.01,-107.32 175.61,-97.58"/>
<polygon fill="midnightblue" stroke="midnightblue" points="264.72,-134.21 275.31,-134.4 267.14,-127.65 264.72,-134.21"/>
</g>
<!-- Node12 -->
<g id="node12" class="node">
<title>Node12</title>
<g id="a_node12"><a xlink:href="_m_l_c_l___double_linked_list_8c.html" target="_top" xlink:title=" ">
<polygon fill="none" stroke="black" points="235,-73 235,-92 392,-92 392,-73 235,-73"/>
<text text-anchor="middle" x="313.5" y="-80" font-family="Helvetica,sans-Serif" font-size="10.00">src/MLCL_DoubleLinkedList.c</text>
</a>
</g>
</g>
<!-- Node9&#45;&gt;Node12 -->
<g id="edge13" class="edge">
<title>Node9&#45;&gt;Node12</title>
<path fill="none" stroke="midnightblue" d="M313.5,-124.25C313.5,-113.02 313.5,-100.38 313.5,-92.19"/>
<polygon fill="midnightblue" stroke="midnightblue" points="310,-124.4 313.5,-134.4 317,-124.4 310,-124.4"/>
</g>
<!-- Node11&#45;&gt;Node4 -->
<g id="edge12" class="edge">
<title>Node11&#45;&gt;Node4</title>
<path fill="none" stroke="midnightblue" d="M226.85,-66.84C348.2,-49.64 477.14,-34.61 558.88,-25.48"/>
<polygon fill="midnightblue" stroke="midnightblue" points="226.04,-63.42 216.63,-68.3 227.02,-70.35 226.04,-63.42"/>
</g>
<!-- Node11&#45;&gt;Node10 -->
<g id="edge11" class="edge">
<title>Node11&#45;&gt;Node10</title>
<path fill="none" stroke="midnightblue" d="M119.52,-59.45C111.73,-49.9 102.85,-39 95.98,-30.58"/>
<polygon fill="midnightblue" stroke="midnightblue" points="116.97,-61.86 126,-67.4 122.39,-57.43 116.97,-61.86"/>
</g>
<!-- Node13&#45;&gt;Node7 -->
<g id="edge20" class="edge">
<title>Node13&#45;&gt;Node7</title>
<path fill="none" stroke="midnightblue" d="M1071.35,-129.74C1070.71,-119.49 1069.95,-107 1069.37,-97.59"/>
<polygon fill="midnightblue" stroke="midnightblue" points="1067.85,-129.97 1071.96,-139.73 1074.84,-129.54 1067.85,-129.97"/>
</g>
<!-- Node14 -->
<g id="node14" class="node">
<title>Node14</title>
<g id="a_node14"><a xlink:href="_m_l_c_l___circular_linked_list_8h.html" target="_top" xlink:title=" ">
<polygon fill="none" stroke="black" points="1298,-67.5 1298,-97.5 1453,-97.5 1453,-67.5 1298,-67.5"/>
<text text-anchor="start" x="1306" y="-85.5" font-family="Helvetica,sans-Serif" font-size="10.00">include/MLCL_CircularLinked</text>
<text text-anchor="middle" x="1375.5" y="-74.5" font-family="Helvetica,sans-Serif" font-size="10.00">List.h</text>
</a>
</g>
</g>
<!-- Node13&#45;&gt;Node14 -->
<g id="edge16" class="edge">
<title>Node13&#45;&gt;Node14</title>
<path fill="none" stroke="midnightblue" d="M1122.27,-137.82C1173.51,-126.83 1253.6,-109.65 1309.96,-97.56"/>
<polygon fill="midnightblue" stroke="midnightblue" points="1121.47,-134.42 1112.42,-139.94 1122.94,-141.26 1121.47,-134.42"/>
</g>
<!-- Node16 -->
<g id="node16" class="node">
<title>Node16</title>
<g id="a_node16"><a xlink:href="_m_l_c_l___linked_list_8c.html" target="_top" xlink:title=" ">
<polygon fill="none" stroke="black" points="1157.5,-73 1157.5,-92 1279.5,-92 1279.5,-73 1157.5,-73"/>
<text text-anchor="middle" x="1218.5" y="-80" font-family="Helvetica,sans-Serif" font-size="10.00">src/MLCL_LinkedList.c</text>
</a>
</g>
</g>
<!-- Node13&#45;&gt;Node16 -->
<g id="edge19" class="edge">
<title>Node13&#45;&gt;Node16</title>
<path fill="none" stroke="midnightblue" d="M1101.07,-135.78C1129.98,-122.91 1173.9,-103.35 1199.03,-92.17"/>
<polygon fill="midnightblue" stroke="midnightblue" points="1099.6,-132.6 1091.89,-139.87 1102.45,-139 1099.6,-132.6"/>
</g>
<!-- Node14&#45;&gt;Node5 -->
<g id="edge18" class="edge">
<title>Node14&#45;&gt;Node5</title>
<path fill="none" stroke="midnightblue" d="M1302.24,-65.25C1254.13,-54.58 1191.83,-40.75 1145.85,-30.55"/>
<polygon fill="midnightblue" stroke="midnightblue" points="1301.76,-68.73 1312.28,-67.48 1303.28,-61.89 1301.76,-68.73"/>
</g>
<!-- Node15 -->
<g id="node15" class="node">
<title>Node15</title>
<g id="a_node15"><a xlink:href="_m_l_c_l___circular_linked_list_8c.html" target="_top" xlink:title=" ">
<polygon fill="none" stroke="black" points="1295.5,-6 1295.5,-25 1455.5,-25 1455.5,-6 1295.5,-6"/>
<text text-anchor="middle" x="1375.5" y="-13" font-family="Helvetica,sans-Serif" font-size="10.00">src/MLCL_CircularLinkedList.c</text>
</a>
</g>
</g>
<!-- Node14&#45;&gt;Node15 -->
<g id="edge17" class="edge">
<title>Node14&#45;&gt;Node15</title>
<path fill="none" stroke="midnightblue" d="M1375.5,-57.25C1375.5,-46.02 1375.5,-33.38 1375.5,-25.19"/>
<polygon fill="midnightblue" stroke="midnightblue" points="1372,-57.4 1375.5,-67.4 1379,-57.4 1372,-57.4"/>
</g>
</g>
</svg>
