<?xml version="1.0" encoding="UTF-8" standalone="no"?>
<!DOCTYPE svg PUBLIC "-//W3C//DTD SVG 1.1//EN"
 "http://www.w3.org/Graphics/SVG/1.1/DTD/svg11.dtd">
<!-- Generated by graphviz version 2.43.0 (0)
 -->
<!-- Title: include/_Tests/MLCL_exceptions.h Pages: 1 -->
<svg width="2094pt" height="117pt"
 viewBox="0.00 0.00 2093.50 117.00" xmlns="http://www.w3.org/2000/svg" xmlns:xlink="http://www.w3.org/1999/xlink">
<g id="graph0" class="graph" transform="scale(1 1) rotate(0) translate(4 113)">
<title>include/_Tests/MLCL_exceptions.h</title>
<!-- Node1 -->
<g id="node1" class="node">
<title>Node1</title>
<g id="a_node1"><a xlink:title=" ">
<polygon fill="#bfbfbf" stroke="black" points="973,-78.5 973,-108.5 1087,-108.5 1087,-78.5 973,-78.5"/>
<text text-anchor="start" x="981" y="-96.5" font-family="Helvetica,sans-Serif" font-size="10.00">include/_Tests/MLCL</text>
<text text-anchor="middle" x="1030" y="-85.5" font-family="Helvetica,sans-Serif" font-size="10.00">_exceptions.h</text>
</a>
</g>
</g>
<!-- Node2 -->
<g id="node2" class="node">
<title>Node2</title>
<g id="a_node2"><a xlink:href="_m_l_c_l___binary_heap__test_8c.html" target="_top" xlink:title=" ">
<polygon fill="none" stroke="black" points="0,-6 0,-36 122,-36 122,-6 0,-6"/>
<text text-anchor="start" x="8" y="-24" font-family="Helvetica,sans-Serif" font-size="10.00">src/_Tests/Heap/MLCL</text>
<text text-anchor="middle" x="61" y="-13" font-family="Helvetica,sans-Serif" font-size="10.00">_BinaryHeap_test.c</text>
</a>
</g>
</g>
<!-- Node1&#45;&gt;Node2 -->
<g id="edge1" class="edge">
<title>Node1&#45;&gt;Node2</title>
<path fill="none" stroke="midnightblue" d="M962.57,-90.65C782.1,-85.4 290.9,-68.99 131,-42 122.4,-40.55 113.35,-38.43 104.72,-36.1"/>
<polygon fill="midnightblue" stroke="midnightblue" points="962.63,-94.16 972.73,-90.95 962.83,-87.16 962.63,-94.16"/>
</g>
<!-- Node3 -->
<g id="node3" class="node">
<title>Node3</title>
<g id="a_node3"><a xlink:href="_m_l_c_l___array_list__test_8c.html" target="_top" xlink:title=" ">
<polygon fill="none" stroke="black" points="140.5,-6 140.5,-36 259.5,-36 259.5,-6 140.5,-6"/>
<text text-anchor="start" x="148.5" y="-24" font-family="Helvetica,sans-Serif" font-size="10.00">src/_Tests/Lists/MLCL</text>
<text text-anchor="middle" x="200" y="-13" font-family="Helvetica,sans-Serif" font-size="10.00">_ArrayList_test.c</text>
</a>
</g>
</g>
<!-- Node1&#45;&gt;Node3 -->
<g id="edge2" class="edge">
<title>Node1&#45;&gt;Node3</title>
<path fill="none" stroke="midnightblue" d="M962.52,-92.98C828.86,-92.84 521.48,-87.11 268,-42 259.64,-40.51 250.85,-38.37 242.46,-36.04"/>
<polygon fill="midnightblue" stroke="midnightblue" points="962.61,-96.48 972.61,-92.98 962.61,-89.48 962.61,-96.48"/>
</g>
<!-- Node4 -->
<g id="node4" class="node">
<title>Node4</title>
<g id="a_node4"><a xlink:href="_m_l_c_l___circular_double_linked_list__test_8c.html" target="_top" xlink:title=" ">
<polygon fill="none" stroke="black" points="277.5,-0.5 277.5,-41.5 420.5,-41.5 420.5,-0.5 277.5,-0.5"/>
<text text-anchor="start" x="285.5" y="-29.5" font-family="Helvetica,sans-Serif" font-size="10.00">src/_Tests/Lists/MLCL</text>
<text text-anchor="start" x="285.5" y="-18.5" font-family="Helvetica,sans-Serif" font-size="10.00">_CircularDoubleLinkedList</text>
<text text-anchor="middle" x="349" y="-7.5" font-family="Helvetica,sans-Serif" font-size="10.00">_test.c</text>
</a>
</g>
</g>
<!-- Node1&#45;&gt;Node4 -->
<g id="edge3" class="edge">
<title>Node1&#45;&gt;Node4</title>
<path fill="none" stroke="midnightblue" d="M962.89,-90.31C851.52,-85.91 621.8,-73.55 430,-42 427,-41.51 423.94,-40.96 420.87,-40.37"/>
<polygon fill="midnightblue" stroke="midnightblue" points="962.84,-93.81 972.97,-90.7 963.11,-86.82 962.84,-93.81"/>
</g>
<!-- Node5 -->
<g id="node5" class="node">
<title>Node5</title>
<g id="a_node5"><a xlink:href="_m_l_c_l___circular_linked_list__test_8c.html" target="_top" xlink:title=" ">
<polygon fill="none" stroke="black" points="439,-6 439,-36 579,-36 579,-6 439,-6"/>
<text text-anchor="start" x="447" y="-24" font-family="Helvetica,sans-Serif" font-size="10.00">src/_Tests/Lists/MLCL</text>
<text text-anchor="middle" x="509" y="-13" font-family="Helvetica,sans-Serif" font-size="10.00">_CircularLinkedList_test.c</text>
</a>
</g>
</g>
<!-- Node1&#45;&gt;Node5 -->
<g id="edge4" class="edge">
<title>Node1&#45;&gt;Node5</title>
<path fill="none" stroke="midnightblue" d="M962.77,-87.64C875.77,-80.71 719.73,-66.09 588,-42 578.95,-40.35 569.41,-38.24 560.2,-36.02"/>
<polygon fill="midnightblue" stroke="midnightblue" points="962.53,-91.13 972.77,-88.43 963.08,-84.16 962.53,-91.13"/>
</g>
<!-- Node6 -->
<g id="node6" class="node">
<title>Node6</title>
<g id="a_node6"><a xlink:href="_m_l_c_l___double_linked_list__test_8c.html" target="_top" xlink:title=" ">
<polygon fill="none" stroke="black" points="597.5,-6 597.5,-36 734.5,-36 734.5,-6 597.5,-6"/>
<text text-anchor="start" x="605.5" y="-24" font-family="Helvetica,sans-Serif" font-size="10.00">src/_Tests/Lists/MLCL</text>
<text text-anchor="middle" x="666" y="-13" font-family="Helvetica,sans-Serif" font-size="10.00">_DoubleLinkedList_test.c</text>
</a>
</g>
</g>
<!-- Node1&#45;&gt;Node6 -->
<g id="edge5" class="edge">
<title>Node1&#45;&gt;Node6</title>
<path fill="none" stroke="midnightblue" d="M962.64,-82.21C904.29,-72.92 817.73,-58.25 743,-42 734.77,-40.21 726.09,-38.14 717.64,-36.02"/>
<polygon fill="midnightblue" stroke="midnightblue" points="962.41,-85.72 972.83,-83.82 963.5,-78.8 962.41,-85.72"/>
</g>
<!-- Node7 -->
<g id="node7" class="node">
<title>Node7</title>
<g id="a_node7"><a xlink:href="_m_l_c_l___linked_list__test_8c.html" target="_top" xlink:title=" ">
<polygon fill="none" stroke="black" points="752.5,-6 752.5,-36 871.5,-36 871.5,-6 752.5,-6"/>
<text text-anchor="start" x="760.5" y="-24" font-family="Helvetica,sans-Serif" font-size="10.00">src/_Tests/Lists/MLCL</text>
<text text-anchor="middle" x="812" y="-13" font-family="Helvetica,sans-Serif" font-size="10.00">_LinkedList_test.c</text>
</a>
</g>
</g>
<!-- Node1&#45;&gt;Node7 -->
<g id="edge6" class="edge">
<title>Node1&#45;&gt;Node7</title>
<path fill="none" stroke="midnightblue" d="M976.99,-75.36C939.77,-63.32 890.58,-47.41 855.62,-36.11"/>
<polygon fill="midnightblue" stroke="midnightblue" points="976.08,-78.74 986.67,-78.49 978.23,-72.08 976.08,-78.74"/>
</g>
<!-- Node8 -->
<g id="node8" class="node">
<title>Node8</title>
<g id="a_node8"><a xlink:href="_m_l_c_l___list__test_8c.html" target="_top" xlink:title=" ">
<polygon fill="none" stroke="black" points="889.5,-6 889.5,-36 1008.5,-36 1008.5,-6 889.5,-6"/>
<text text-anchor="start" x="897.5" y="-24" font-family="Helvetica,sans-Serif" font-size="10.00">src/_Tests/Lists/MLCL</text>
<text text-anchor="middle" x="949" y="-13" font-family="Helvetica,sans-Serif" font-size="10.00">_List_test.c</text>
</a>
</g>
</g>
<!-- Node1&#45;&gt;Node8 -->
<g id="edge7" class="edge">
<title>Node1&#45;&gt;Node8</title>
<path fill="none" stroke="midnightblue" d="M1005.83,-71.46C992.66,-60 976.73,-46.14 965.09,-36"/>
<polygon fill="midnightblue" stroke="midnightblue" points="1003.77,-74.31 1013.61,-78.23 1008.36,-69.03 1003.77,-74.31"/>
</g>
<!-- Node9 -->
<g id="node9" class="node">
<title>Node9</title>
<g id="a_node9"><a xlink:href="_m_l_c_l___type_descriptor__test_8c.html" target="_top" xlink:title=" ">
<polygon fill="none" stroke="black" points="1026.5,-6 1026.5,-36 1197.5,-36 1197.5,-6 1026.5,-6"/>
<text text-anchor="start" x="1034.5" y="-24" font-family="Helvetica,sans-Serif" font-size="10.00">src/_Tests/MLCL_TypeDescriptor</text>
<text text-anchor="middle" x="1112" y="-13" font-family="Helvetica,sans-Serif" font-size="10.00">_test.c</text>
</a>
</g>
</g>
<!-- Node1&#45;&gt;Node9 -->
<g id="edge8" class="edge">
<title>Node1&#45;&gt;Node9</title>
<path fill="none" stroke="midnightblue" d="M1054.47,-71.46C1067.8,-60 1083.93,-46.14 1095.71,-36"/>
<polygon fill="midnightblue" stroke="midnightblue" points="1051.89,-69.06 1046.59,-78.23 1056.46,-74.37 1051.89,-69.06"/>
</g>
<!-- Node10 -->
<g id="node10" class="node">
<title>Node10</title>
<g id="a_node10"><a xlink:href="_m_l_c_l___queue__test_8c.html" target="_top" xlink:title=" ">
<polygon fill="none" stroke="black" points="1216,-6 1216,-36 1344,-36 1344,-6 1216,-6"/>
<text text-anchor="start" x="1224" y="-24" font-family="Helvetica,sans-Serif" font-size="10.00">src/_Tests/Queue/MLCL</text>
<text text-anchor="middle" x="1280" y="-13" font-family="Helvetica,sans-Serif" font-size="10.00">_Queue_test.c</text>
</a>
</g>
</g>
<!-- Node1&#45;&gt;Node10 -->
<g id="edge9" class="edge">
<title>Node1&#45;&gt;Node10</title>
<path fill="none" stroke="midnightblue" d="M1089.43,-75.74C1132.27,-63.66 1189.46,-47.53 1229.98,-36.11"/>
<polygon fill="midnightblue" stroke="midnightblue" points="1088.37,-72.4 1079.69,-78.49 1090.27,-79.14 1088.37,-72.4"/>
</g>
<!-- Node11 -->
<g id="node11" class="node">
<title>Node11</title>
<g id="a_node11"><a xlink:href="_m_l_c_l___stack__test_8c.html" target="_top" xlink:title=" ">
<polygon fill="none" stroke="black" points="1362.5,-6 1362.5,-36 1485.5,-36 1485.5,-6 1362.5,-6"/>
<text text-anchor="start" x="1370.5" y="-24" font-family="Helvetica,sans-Serif" font-size="10.00">src/_Tests/Stack/MLCL</text>
<text text-anchor="middle" x="1424" y="-13" font-family="Helvetica,sans-Serif" font-size="10.00">_Stack_test.c</text>
</a>
</g>
</g>
<!-- Node1&#45;&gt;Node11 -->
<g id="edge10" class="edge">
<title>Node1&#45;&gt;Node11</title>
<path fill="none" stroke="midnightblue" d="M1097.48,-84.34C1163.13,-75.84 1265.49,-61.09 1353,-42 1360.88,-40.28 1369.19,-38.2 1377.22,-36.03"/>
<polygon fill="midnightblue" stroke="midnightblue" points="1096.74,-80.9 1087.27,-85.65 1097.63,-87.85 1096.74,-80.9"/>
</g>
<!-- Node12 -->
<g id="node12" class="node">
<title>Node12</title>
<g id="a_node12"><a xlink:href="_m_l_c_l___a_v_l_tree__test_8c.html" target="_top" xlink:title=" ">
<polygon fill="none" stroke="black" points="1504,-6 1504,-36 1626,-36 1626,-6 1504,-6"/>
<text text-anchor="start" x="1512" y="-24" font-family="Helvetica,sans-Serif" font-size="10.00">src/_Tests/Trees/MLCL</text>
<text text-anchor="middle" x="1565" y="-13" font-family="Helvetica,sans-Serif" font-size="10.00">_AVLTree_test.c</text>
</a>
</g>
</g>
<!-- Node1&#45;&gt;Node12 -->
<g id="edge11" class="edge">
<title>Node1&#45;&gt;Node12</title>
<path fill="none" stroke="midnightblue" d="M1097.18,-88.8C1188.07,-82.98 1354.96,-69.4 1495,-42 1503.19,-40.4 1511.8,-38.29 1520.09,-36.05"/>
<polygon fill="midnightblue" stroke="midnightblue" points="1096.78,-85.32 1087.02,-89.44 1097.22,-92.31 1096.78,-85.32"/>
</g>
<!-- Node13 -->
<g id="node13" class="node">
<title>Node13</title>
<g id="a_node13"><a xlink:href="_m_l_c_l___binary_search_tree__test_8c.html" target="_top" xlink:title=" ">
<polygon fill="none" stroke="black" points="1644.5,-6 1644.5,-36 1783.5,-36 1783.5,-6 1644.5,-6"/>
<text text-anchor="start" x="1652.5" y="-24" font-family="Helvetica,sans-Serif" font-size="10.00">src/_Tests/Trees/MLCL</text>
<text text-anchor="middle" x="1714" y="-13" font-family="Helvetica,sans-Serif" font-size="10.00">_BinarySearchTree_test.c</text>
</a>
</g>
</g>
<!-- Node1&#45;&gt;Node13 -->
<g id="edge12" class="edge">
<title>Node1&#45;&gt;Node13</title>
<path fill="none" stroke="midnightblue" d="M1097.26,-90.5C1209.41,-86.36 1441.44,-74.35 1635,-42 1644.35,-40.44 1654.22,-38.32 1663.69,-36.05"/>
<polygon fill="midnightblue" stroke="midnightblue" points="1096.97,-87.01 1087.11,-90.86 1097.23,-94 1096.97,-87.01"/>
</g>
<!-- Node14 -->
<g id="node14" class="node">
<title>Node14</title>
<g id="a_node14"><a xlink:href="_m_l_c_l___b_k_tree__test_8c.html" target="_top" xlink:title=" ">
<polygon fill="none" stroke="black" points="1802,-6 1802,-36 1924,-36 1924,-6 1802,-6"/>
<text text-anchor="start" x="1810" y="-24" font-family="Helvetica,sans-Serif" font-size="10.00">src/_Tests/Trees/MLCL</text>
<text text-anchor="middle" x="1863" y="-13" font-family="Helvetica,sans-Serif" font-size="10.00">_BKTree_test.c</text>
</a>
</g>
</g>
<!-- Node1&#45;&gt;Node14 -->
<g id="edge13" class="edge">
<title>Node1&#45;&gt;Node14</title>
<path fill="none" stroke="midnightblue" d="M1097.54,-92.81C1231.32,-92.39 1539.01,-86.17 1793,-42 1801.59,-40.51 1810.64,-38.36 1819.27,-36.03"/>
<polygon fill="midnightblue" stroke="midnightblue" points="1097.43,-89.32 1087.44,-92.84 1097.45,-96.32 1097.43,-89.32"/>
</g>
<!-- Node15 -->
<g id="node15" class="node">
<title>Node15</title>
<g id="a_node15"><a xlink:href="_m_l_c_l___ternary_search_tree__test_8c.html" target="_top" xlink:title=" ">
<polygon fill="none" stroke="black" points="1942.5,-6 1942.5,-36 2085.5,-36 2085.5,-6 1942.5,-6"/>
<text text-anchor="start" x="1950.5" y="-24" font-family="Helvetica,sans-Serif" font-size="10.00">src/_Tests/Trees/MLCL</text>
<text text-anchor="middle" x="2014" y="-13" font-family="Helvetica,sans-Serif" font-size="10.00">_TernarySearchTree_test.c</text>
</a>
</g>
</g>
<!-- Node1&#45;&gt;Node15 -->
<g id="edge14" class="edge">
<title>Node1&#45;&gt;Node15</title>
<path fill="none" stroke="midnightblue" d="M1097.18,-93C1247.72,-93.19 1623.16,-88.5 1933,-42 1942.88,-40.52 1953.32,-38.38 1963.3,-36.05"/>
<polygon fill="midnightblue" stroke="midnightblue" points="1097.17,-89.5 1087.16,-92.98 1097.16,-96.5 1097.17,-89.5"/>
</g>
</g>
</svg>
