<?xml version="1.0" encoding="UTF-8" standalone="no"?>
<!DOCTYPE svg PUBLIC "-//W3C//DTD SVG 1.1//EN"
 "http://www.w3.org/Graphics/SVG/1.1/DTD/svg11.dtd">
<!-- Generated by graphviz version 2.43.0 (0)
 -->
<!-- Title: include/Tree/MLCL_BinarySearchTree.h Pages: 1 -->
<svg width="736pt" height="251pt"
 viewBox="0.00 0.00 735.50 251.00" xmlns="http://www.w3.org/2000/svg" xmlns:xlink="http://www.w3.org/1999/xlink">
<g id="graph0" class="graph" transform="scale(1 1) rotate(0) translate(4 247)">
<title>include/Tree/MLCL_BinarySearchTree.h</title>
<!-- Node1 -->
<g id="node1" class="node">
<title>Node1</title>
<g id="a_node1"><a xlink:title=" ">
<polygon fill="#bfbfbf" stroke="black" points="345.5,-212.5 345.5,-242.5 486.5,-242.5 486.5,-212.5 345.5,-212.5"/>
<text text-anchor="start" x="353.5" y="-230.5" font-family="Helvetica,sans-Serif" font-size="10.00">include/Tree/MLCL_Binary</text>
<text text-anchor="middle" x="416" y="-219.5" font-family="Helvetica,sans-Serif" font-size="10.00">SearchTree.h</text>
</a>
</g>
</g>
<!-- Node2 -->
<g id="node2" class="node">
<title>Node2</title>
<g id="a_node2"><a xlink:href="_m_l_c_l___a_v_l_tree_8h.html" target="_top" xlink:title=" ">
<polygon fill="none" stroke="black" points="160,-145.5 160,-164.5 316,-164.5 316,-145.5 160,-145.5"/>
<text text-anchor="middle" x="238" y="-152.5" font-family="Helvetica,sans-Serif" font-size="10.00">include/Tree/MLCL_AVLTree.h</text>
</a>
</g>
</g>
<!-- Node1&#45;&gt;Node2 -->
<g id="edge1" class="edge">
<title>Node1&#45;&gt;Node2</title>
<path fill="none" stroke="midnightblue" d="M370.71,-208.56C335.06,-194.44 286.97,-175.4 259.55,-164.53"/>
<polygon fill="midnightblue" stroke="midnightblue" points="369.82,-211.97 380.41,-212.4 372.4,-205.47 369.82,-211.97"/>
</g>
<!-- Node5 -->
<g id="node5" class="node">
<title>Node5</title>
<g id="a_node5"><a xlink:href="_m_l_c_l___tree_8h.html" target="_top" xlink:title=" ">
<polygon fill="none" stroke="black" points="286.5,-73 286.5,-92 425.5,-92 425.5,-73 286.5,-73"/>
<text text-anchor="middle" x="356" y="-80" font-family="Helvetica,sans-Serif" font-size="10.00">include/Tree/MLCL_Tree.h</text>
</a>
</g>
</g>
<!-- Node1&#45;&gt;Node5 -->
<g id="edge11" class="edge">
<title>Node1&#45;&gt;Node5</title>
<path fill="none" stroke="midnightblue" d="M406,-202.66C392.41,-170.27 368.76,-113.9 359.69,-92.28"/>
<polygon fill="midnightblue" stroke="midnightblue" points="402.93,-204.4 410.03,-212.27 409.39,-201.69 402.93,-204.4"/>
</g>
<!-- Node7 -->
<g id="node7" class="node">
<title>Node7</title>
<g id="a_node7"><a xlink:href="_m_l_c_l___binary_search_tree__test_8h.html" target="_top" xlink:title=" ">
<polygon fill="none" stroke="black" points="420,-134.5 420,-175.5 556,-175.5 556,-134.5 420,-134.5"/>
<text text-anchor="start" x="428" y="-163.5" font-family="Helvetica,sans-Serif" font-size="10.00">include/_Tests/Tree</text>
<text text-anchor="start" x="428" y="-152.5" font-family="Helvetica,sans-Serif" font-size="10.00">/MLCL_BinarySearchTree</text>
<text text-anchor="middle" x="488" y="-141.5" font-family="Helvetica,sans-Serif" font-size="10.00">_test.h</text>
</a>
</g>
</g>
<!-- Node1&#45;&gt;Node7 -->
<g id="edge6" class="edge">
<title>Node1&#45;&gt;Node7</title>
<path fill="none" stroke="midnightblue" d="M437.85,-205.1C447.44,-195.71 458.63,-184.76 467.99,-175.59"/>
<polygon fill="midnightblue" stroke="midnightblue" points="435.27,-202.74 430.57,-212.23 440.16,-207.74 435.27,-202.74"/>
</g>
<!-- Node11 -->
<g id="node11" class="node">
<title>Node11</title>
<g id="a_node11"><a xlink:href="_m_l_c_l___binary_search_tree_8c.html" target="_top" xlink:title=" ">
<polygon fill="none" stroke="black" points="574.5,-140 574.5,-170 727.5,-170 727.5,-140 574.5,-140"/>
<text text-anchor="start" x="582.5" y="-158" font-family="Helvetica,sans-Serif" font-size="10.00">src/Tree/MLCL_BinarySearch</text>
<text text-anchor="middle" x="651" y="-147" font-family="Helvetica,sans-Serif" font-size="10.00">Tree.c</text>
</a>
</g>
</g>
<!-- Node1&#45;&gt;Node11 -->
<g id="edge10" class="edge">
<title>Node1&#45;&gt;Node11</title>
<path fill="none" stroke="midnightblue" d="M472.37,-209.59C512.59,-197.52 566.05,-181.48 603.98,-170.11"/>
<polygon fill="midnightblue" stroke="midnightblue" points="471.28,-206.26 462.71,-212.49 473.29,-212.97 471.28,-206.26"/>
</g>
<!-- Node3 -->
<g id="node3" class="node">
<title>Node3</title>
<g id="a_node3"><a xlink:href="_m_l_c_l___a_v_l_tree__test_8c.html" target="_top" xlink:title=" ">
<polygon fill="none" stroke="black" points="0,-67.5 0,-97.5 116,-97.5 116,-67.5 0,-67.5"/>
<text text-anchor="start" x="8" y="-85.5" font-family="Helvetica,sans-Serif" font-size="10.00">src/_Tests/Tree/MLCL</text>
<text text-anchor="middle" x="58" y="-74.5" font-family="Helvetica,sans-Serif" font-size="10.00">_AVLTree_test.c</text>
</a>
</g>
</g>
<!-- Node2&#45;&gt;Node3 -->
<g id="edge2" class="edge">
<title>Node2&#45;&gt;Node3</title>
<path fill="none" stroke="midnightblue" d="M206.7,-141.74C175.22,-129.41 126.74,-110.42 93.76,-97.51"/>
<polygon fill="midnightblue" stroke="midnightblue" points="205.7,-145.11 216.29,-145.5 208.25,-138.59 205.7,-145.11"/>
</g>
<!-- Node4 -->
<g id="node4" class="node">
<title>Node4</title>
<g id="a_node4"><a xlink:href="_m_l_c_l___a_v_l_tree_8c.html" target="_top" xlink:title=" ">
<polygon fill="none" stroke="black" points="134,-73 134,-92 268,-92 268,-73 134,-73"/>
<text text-anchor="middle" x="201" y="-80" font-family="Helvetica,sans-Serif" font-size="10.00">src/Tree/MLCL_AVLTree.c</text>
</a>
</g>
</g>
<!-- Node2&#45;&gt;Node4 -->
<g id="edge3" class="edge">
<title>Node2&#45;&gt;Node4</title>
<path fill="none" stroke="midnightblue" d="M228.65,-136.18C221.27,-122.13 211.31,-103.14 205.57,-92.22"/>
<polygon fill="midnightblue" stroke="midnightblue" points="225.72,-138.13 233.46,-145.36 231.92,-134.87 225.72,-138.13"/>
</g>
<!-- Node2&#45;&gt;Node5 -->
<g id="edge4" class="edge">
<title>Node2&#45;&gt;Node5</title>
<path fill="none" stroke="midnightblue" d="M261.23,-140.12C285.04,-125.89 321.35,-104.2 341.41,-92.22"/>
<polygon fill="midnightblue" stroke="midnightblue" points="259.26,-137.22 252.47,-145.36 262.85,-143.23 259.26,-137.22"/>
</g>
<!-- Node6 -->
<g id="node6" class="node">
<title>Node6</title>
<g id="a_node6"><a xlink:href="_m_l_c_l___tree_8c.html" target="_top" xlink:title=" ">
<polygon fill="none" stroke="black" points="297.5,-6 297.5,-25 414.5,-25 414.5,-6 297.5,-6"/>
<text text-anchor="middle" x="356" y="-13" font-family="Helvetica,sans-Serif" font-size="10.00">src/Tree/MLCL_Tree.c</text>
</a>
</g>
</g>
<!-- Node5&#45;&gt;Node6 -->
<g id="edge5" class="edge">
<title>Node5&#45;&gt;Node6</title>
<path fill="none" stroke="midnightblue" d="M356,-62.54C356,-50.17 356,-34.62 356,-25.13"/>
<polygon fill="midnightblue" stroke="midnightblue" points="352.5,-62.73 356,-72.73 359.5,-62.73 352.5,-62.73"/>
</g>
<!-- Node8 -->
<g id="node8" class="node">
<title>Node8</title>
<g id="a_node8"><a xlink:href="_m_l_c_l__all__tests_8h.html" target="_top" xlink:title=" ">
<polygon fill="none" stroke="black" points="444,-67.5 444,-97.5 558,-97.5 558,-67.5 444,-67.5"/>
<text text-anchor="start" x="452" y="-85.5" font-family="Helvetica,sans-Serif" font-size="10.00">include/_Tests/MLCL</text>
<text text-anchor="middle" x="501" y="-74.5" font-family="Helvetica,sans-Serif" font-size="10.00">_all_tests.h</text>
</a>
</g>
</g>
<!-- Node7&#45;&gt;Node8 -->
<g id="edge7" class="edge">
<title>Node7&#45;&gt;Node8</title>
<path fill="none" stroke="midnightblue" d="M493.46,-124.38C495.15,-115.21 496.94,-105.53 498.35,-97.89"/>
<polygon fill="midnightblue" stroke="midnightblue" points="489.99,-123.89 491.62,-134.36 496.88,-125.16 489.99,-123.89"/>
</g>
<!-- Node10 -->
<g id="node10" class="node">
<title>Node10</title>
<g id="a_node10"><a xlink:href="_m_l_c_l___binary_search_tree__test_8c.html" target="_top" xlink:title=" ">
<polygon fill="none" stroke="black" points="576.5,-67.5 576.5,-97.5 715.5,-97.5 715.5,-67.5 576.5,-67.5"/>
<text text-anchor="start" x="584.5" y="-85.5" font-family="Helvetica,sans-Serif" font-size="10.00">src/_Tests/Tree/MLCL</text>
<text text-anchor="middle" x="646" y="-74.5" font-family="Helvetica,sans-Serif" font-size="10.00">_BinarySearchTree_test.c</text>
</a>
</g>
</g>
<!-- Node7&#45;&gt;Node10 -->
<g id="edge9" class="edge">
<title>Node7&#45;&gt;Node10</title>
<path fill="none" stroke="midnightblue" d="M541.43,-130.16C565.62,-119.36 593.4,-106.97 614.24,-97.67"/>
<polygon fill="midnightblue" stroke="midnightblue" points="539.72,-127.09 532.01,-134.36 542.57,-133.48 539.72,-127.09"/>
</g>
<!-- Node9 -->
<g id="node9" class="node">
<title>Node9</title>
<g id="a_node9"><a xlink:href="_m_l_c_l__all__tests_8c.html" target="_top" xlink:title=" ">
<polygon fill="none" stroke="black" points="446,-0.5 446,-30.5 556,-30.5 556,-0.5 446,-0.5"/>
<text text-anchor="start" x="454" y="-18.5" font-family="Helvetica,sans-Serif" font-size="10.00">src/_Tests/MLCL_all</text>
<text text-anchor="middle" x="501" y="-7.5" font-family="Helvetica,sans-Serif" font-size="10.00">_tests.c</text>
</a>
</g>
</g>
<!-- Node8&#45;&gt;Node9 -->
<g id="edge8" class="edge">
<title>Node8&#45;&gt;Node9</title>
<path fill="none" stroke="midnightblue" d="M501,-57.11C501,-48.15 501,-38.32 501,-30.58"/>
<polygon fill="midnightblue" stroke="midnightblue" points="497.5,-57.4 501,-67.4 504.5,-57.4 497.5,-57.4"/>
</g>
</g>
</svg>
