<?xml version="1.0" encoding="UTF-8" standalone="no"?>
<!DOCTYPE svg PUBLIC "-//W3C//DTD SVG 1.1//EN"
 "http://www.w3.org/Graphics/SVG/1.1/DTD/svg11.dtd">
<!-- Generated by graphviz version 2.43.0 (0)
 -->
<!-- Title: include/MLCL_TypeDescriptor.h Pages: 1 -->
<svg width="1750pt" height="318pt"
 viewBox="0.00 0.00 1749.50 318.00" xmlns="http://www.w3.org/2000/svg" xmlns:xlink="http://www.w3.org/1999/xlink">
<g id="graph0" class="graph" transform="scale(1 1) rotate(0) translate(4 314)">
<title>include/MLCL_TypeDescriptor.h</title>
<!-- Node1 -->
<g id="node1" class="node">
<title>Node1</title>
<g id="a_node1"><a xlink:title=" ">
<polygon fill="#bfbfbf" stroke="black" points="1060.5,-290.5 1060.5,-309.5 1227.5,-309.5 1227.5,-290.5 1060.5,-290.5"/>
<text text-anchor="middle" x="1144" y="-297.5" font-family="Helvetica,sans-Serif" font-size="10.00">include/MLCL_TypeDescriptor.h</text>
</a>
</g>
</g>
<!-- Node2 -->
<g id="node2" class="node">
<title>Node2</title>
<g id="a_node2"><a xlink:href="_m_l_c_l__basic__types_8h.html" target="_top" xlink:title=" ">
<polygon fill="none" stroke="black" points="697,-223.5 697,-253.5 809,-253.5 809,-223.5 697,-223.5"/>
<text text-anchor="start" x="705" y="-241.5" font-family="Helvetica,sans-Serif" font-size="10.00">include/MLCL_basic</text>
<text text-anchor="middle" x="753" y="-230.5" font-family="Helvetica,sans-Serif" font-size="10.00">_types.h</text>
</a>
</g>
</g>
<!-- Node1&#45;&gt;Node2 -->
<g id="edge1" class="edge">
<title>Node1&#45;&gt;Node2</title>
<path fill="none" stroke="midnightblue" d="M1077.65,-288.9C1002.17,-277.42 880.22,-258.86 809.23,-248.06"/>
<polygon fill="midnightblue" stroke="midnightblue" points="1077.57,-292.43 1087.98,-290.48 1078.62,-285.51 1077.57,-292.43"/>
</g>
<!-- Node10 -->
<g id="node10" class="node">
<title>Node10</title>
<g id="a_node10"><a xlink:href="_m_l_c_l___double_linked_list_8h.html" target="_top" xlink:title=" ">
<polygon fill="none" stroke="black" points="209.5,-223.5 209.5,-253.5 350.5,-253.5 350.5,-223.5 209.5,-223.5"/>
<text text-anchor="start" x="217.5" y="-241.5" font-family="Helvetica,sans-Serif" font-size="10.00">include/List/MLCL_Double</text>
<text text-anchor="middle" x="280" y="-230.5" font-family="Helvetica,sans-Serif" font-size="10.00">LinkedList.h</text>
</a>
</g>
</g>
<!-- Node1&#45;&gt;Node10 -->
<g id="edge9" class="edge">
<title>Node1&#45;&gt;Node10</title>
<path fill="none" stroke="midnightblue" d="M1050.19,-292.54C875.93,-280.54 505.91,-255.06 350.78,-244.37"/>
<polygon fill="midnightblue" stroke="midnightblue" points="1050.15,-296.05 1060.37,-293.24 1050.64,-289.06 1050.15,-296.05"/>
</g>
<!-- Node14 -->
<g id="node14" class="node">
<title>Node14</title>
<g id="a_node14"><a xlink:href="_m_l_c_l___linked_list_8h.html" target="_top" xlink:title=" ">
<polygon fill="none" stroke="black" points="1075,-223.5 1075,-253.5 1213,-253.5 1213,-223.5 1075,-223.5"/>
<text text-anchor="start" x="1083" y="-241.5" font-family="Helvetica,sans-Serif" font-size="10.00">include/List/MLCL_Linked</text>
<text text-anchor="middle" x="1144" y="-230.5" font-family="Helvetica,sans-Serif" font-size="10.00">List.h</text>
</a>
</g>
</g>
<!-- Node1&#45;&gt;Node14 -->
<g id="edge16" class="edge">
<title>Node1&#45;&gt;Node14</title>
<path fill="none" stroke="midnightblue" d="M1144,-280.23C1144,-271.59 1144,-261.5 1144,-253.52"/>
<polygon fill="midnightblue" stroke="midnightblue" points="1140.5,-280.48 1144,-290.48 1147.5,-280.48 1140.5,-280.48"/>
</g>
<!-- Node18 -->
<g id="node18" class="node">
<title>Node18</title>
<g id="a_node18"><a xlink:href="_m_l_c_l___type_descriptor_8c.html" target="_top" xlink:title=" ">
<polygon fill="none" stroke="black" points="1491,-229 1491,-248 1637,-248 1637,-229 1491,-229"/>
<text text-anchor="middle" x="1564" y="-236" font-family="Helvetica,sans-Serif" font-size="10.00">src/MLCL_TypeDescriptor.c</text>
</a>
</g>
</g>
<!-- Node1&#45;&gt;Node18 -->
<g id="edge22" class="edge">
<title>Node1&#45;&gt;Node18</title>
<path fill="none" stroke="midnightblue" d="M1224.99,-289.2C1293.54,-280.67 1394.36,-267.58 1482,-254 1493.57,-252.21 1506.03,-250.1 1517.66,-248.05"/>
<polygon fill="midnightblue" stroke="midnightblue" points="1224.18,-285.78 1214.69,-290.48 1225.04,-292.72 1224.18,-285.78"/>
</g>
<!-- Node19 -->
<g id="node19" class="node">
<title>Node19</title>
<g id="a_node19"><a xlink:href="_m_l_c_l___binary_search_tree_8h.html" target="_top" xlink:title=" ">
<polygon fill="none" stroke="black" points="1331.5,-223.5 1331.5,-253.5 1472.5,-253.5 1472.5,-223.5 1331.5,-223.5"/>
<text text-anchor="start" x="1339.5" y="-241.5" font-family="Helvetica,sans-Serif" font-size="10.00">include/Tree/MLCL_Binary</text>
<text text-anchor="middle" x="1402" y="-230.5" font-family="Helvetica,sans-Serif" font-size="10.00">SearchTree.h</text>
</a>
</g>
</g>
<!-- Node1&#45;&gt;Node19 -->
<g id="edge23" class="edge">
<title>Node1&#45;&gt;Node19</title>
<path fill="none" stroke="midnightblue" d="M1190.97,-288.17C1233.12,-278.45 1295.26,-264.12 1341.19,-253.52"/>
<polygon fill="midnightblue" stroke="midnightblue" points="1189.92,-284.82 1180.97,-290.48 1191.5,-291.64 1189.92,-284.82"/>
</g>
<!-- Node3 -->
<g id="node3" class="node">
<title>Node3</title>
<g id="a_node3"><a xlink:href="_m_l_c_l___circular_double_linked_list__test_8c.html" target="_top" xlink:title=" ">
<polygon fill="none" stroke="black" points="367.5,-67.5 367.5,-108.5 510.5,-108.5 510.5,-67.5 367.5,-67.5"/>
<text text-anchor="start" x="375.5" y="-96.5" font-family="Helvetica,sans-Serif" font-size="10.00">src/_Tests/List/MLCL</text>
<text text-anchor="start" x="375.5" y="-85.5" font-family="Helvetica,sans-Serif" font-size="10.00">_CircularDoubleLinkedList</text>
<text text-anchor="middle" x="439" y="-74.5" font-family="Helvetica,sans-Serif" font-size="10.00">_test.c</text>
</a>
</g>
</g>
<!-- Node2&#45;&gt;Node3 -->
<g id="edge2" class="edge">
<title>Node2&#45;&gt;Node3</title>
<path fill="none" stroke="midnightblue" d="M686.85,-223.13C654.37,-214.79 615.19,-202.79 582,-187 558.15,-175.66 499.79,-133.81 465.45,-108.61"/>
<polygon fill="midnightblue" stroke="midnightblue" points="686.15,-226.56 696.7,-225.6 687.85,-219.77 686.15,-226.56"/>
</g>
<!-- Node4 -->
<g id="node4" class="node">
<title>Node4</title>
<g id="a_node4"><a xlink:href="_m_l_c_l___circular_linked_list__test_8c.html" target="_top" xlink:title=" ">
<polygon fill="none" stroke="black" points="545,-73 545,-103 685,-103 685,-73 545,-73"/>
<text text-anchor="start" x="553" y="-91" font-family="Helvetica,sans-Serif" font-size="10.00">src/_Tests/List/MLCL</text>
<text text-anchor="middle" x="615" y="-80" font-family="Helvetica,sans-Serif" font-size="10.00">_CircularLinkedList_test.c</text>
</a>
</g>
</g>
<!-- Node2&#45;&gt;Node4 -->
<g id="edge3" class="edge">
<title>Node2&#45;&gt;Node4</title>
<path fill="none" stroke="midnightblue" d="M686.41,-234.32C652.66,-228.92 614.38,-216.17 593,-187 574.44,-161.69 592.86,-123.52 605.43,-103.09"/>
<polygon fill="midnightblue" stroke="midnightblue" points="686.33,-237.85 696.72,-235.77 687.3,-230.91 686.33,-237.85"/>
</g>
<!-- Node5 -->
<g id="node5" class="node">
<title>Node5</title>
<g id="a_node5"><a xlink:href="_m_l_c_l___double_linked_list__test_8c.html" target="_top" xlink:title=" ">
<polygon fill="none" stroke="black" points="370.5,-151 370.5,-181 507.5,-181 507.5,-151 370.5,-151"/>
<text text-anchor="start" x="378.5" y="-169" font-family="Helvetica,sans-Serif" font-size="10.00">src/_Tests/List/MLCL</text>
<text text-anchor="middle" x="439" y="-158" font-family="Helvetica,sans-Serif" font-size="10.00">_DoubleLinkedList_test.c</text>
</a>
</g>
</g>
<!-- Node2&#45;&gt;Node5 -->
<g id="edge4" class="edge">
<title>Node2&#45;&gt;Node5</title>
<path fill="none" stroke="midnightblue" d="M687.02,-223.46C640.77,-213.53 577.54,-199.76 522,-187 513.77,-185.11 505.08,-183.07 496.56,-181.04"/>
<polygon fill="midnightblue" stroke="midnightblue" points="686.4,-226.91 696.91,-225.59 687.87,-220.07 686.4,-226.91"/>
</g>
<!-- Node6 -->
<g id="node6" class="node">
<title>Node6</title>
<g id="a_node6"><a xlink:href="_m_l_c_l___linked_list__test_8c.html" target="_top" xlink:title=" ">
<polygon fill="none" stroke="black" points="940.5,-151 940.5,-181 1053.5,-181 1053.5,-151 940.5,-151"/>
<text text-anchor="start" x="948.5" y="-169" font-family="Helvetica,sans-Serif" font-size="10.00">src/_Tests/List/MLCL</text>
<text text-anchor="middle" x="997" y="-158" font-family="Helvetica,sans-Serif" font-size="10.00">_LinkedList_test.c</text>
</a>
</g>
</g>
<!-- Node2&#45;&gt;Node6 -->
<g id="edge5" class="edge">
<title>Node2&#45;&gt;Node6</title>
<path fill="none" stroke="midnightblue" d="M813.25,-220.69C847.76,-210.99 891.86,-198.48 931,-187 937.43,-185.11 944.21,-183.09 950.87,-181.09"/>
<polygon fill="midnightblue" stroke="midnightblue" points="812.01,-217.41 803.32,-223.48 813.9,-224.15 812.01,-217.41"/>
</g>
<!-- Node7 -->
<g id="node7" class="node">
<title>Node7</title>
<g id="a_node7"><a xlink:href="_m_l_c_l___type_descriptor__test_8c.html" target="_top" xlink:title=" ">
<polygon fill="none" stroke="black" points="751.5,-151 751.5,-181 922.5,-181 922.5,-151 751.5,-151"/>
<text text-anchor="start" x="759.5" y="-169" font-family="Helvetica,sans-Serif" font-size="10.00">src/_Tests/MLCL_TypeDescriptor</text>
<text text-anchor="middle" x="837" y="-158" font-family="Helvetica,sans-Serif" font-size="10.00">_test.c</text>
</a>
</g>
</g>
<!-- Node2&#45;&gt;Node7 -->
<g id="edge6" class="edge">
<title>Node2&#45;&gt;Node7</title>
<path fill="none" stroke="midnightblue" d="M777.68,-216.79C791.41,-205.27 808.13,-191.23 820.31,-181"/>
<polygon fill="midnightblue" stroke="midnightblue" points="775.41,-214.12 770,-223.23 779.91,-219.49 775.41,-214.12"/>
</g>
<!-- Node8 -->
<g id="node8" class="node">
<title>Node8</title>
<g id="a_node8"><a xlink:href="_m_l_c_l___binary_search_tree__test_8c.html" target="_top" xlink:title=" ">
<polygon fill="none" stroke="black" points="1263.5,-73 1263.5,-103 1402.5,-103 1402.5,-73 1263.5,-73"/>
<text text-anchor="start" x="1271.5" y="-91" font-family="Helvetica,sans-Serif" font-size="10.00">src/_Tests/Tree/MLCL</text>
<text text-anchor="middle" x="1333" y="-80" font-family="Helvetica,sans-Serif" font-size="10.00">_BinarySearchTree_test.c</text>
</a>
</g>
</g>
<!-- Node2&#45;&gt;Node8 -->
<g id="edge7" class="edge">
<title>Node2&#45;&gt;Node8</title>
<path fill="none" stroke="midnightblue" d="M819.5,-236.18C932.33,-232.98 1155.74,-222.27 1225,-187 1247.43,-175.58 1244.67,-162.25 1263,-145 1279.21,-129.75 1299.15,-114.06 1313.6,-103.19"/>
<polygon fill="midnightblue" stroke="midnightblue" points="819.17,-232.68 809.27,-236.45 819.36,-239.68 819.17,-232.68"/>
</g>
<!-- Node9 -->
<g id="node9" class="node">
<title>Node9</title>
<g id="a_node9"><a xlink:href="_m_l_c_l__basic__types_8c.html" target="_top" xlink:title=" ">
<polygon fill="none" stroke="black" points="602.5,-156.5 602.5,-175.5 733.5,-175.5 733.5,-156.5 602.5,-156.5"/>
<text text-anchor="middle" x="668" y="-163.5" font-family="Helvetica,sans-Serif" font-size="10.00">src/MLCL_basic_types.c</text>
</a>
</g>
</g>
<!-- Node2&#45;&gt;Node9 -->
<g id="edge8" class="edge">
<title>Node2&#45;&gt;Node9</title>
<path fill="none" stroke="midnightblue" d="M727.69,-216.51C711.36,-202.96 690.95,-186.03 678.72,-175.89"/>
<polygon fill="midnightblue" stroke="midnightblue" points="725.87,-219.54 735.8,-223.23 730.34,-214.16 725.87,-219.54"/>
</g>
<!-- Node10&#45;&gt;Node5 -->
<g id="edge13" class="edge">
<title>Node10&#45;&gt;Node5</title>
<path fill="none" stroke="midnightblue" d="M320.95,-219.34C347.83,-207.42 382.47,-192.07 407.26,-181.07"/>
<polygon fill="midnightblue" stroke="midnightblue" points="319.52,-216.15 311.79,-223.4 322.35,-222.55 319.52,-216.15"/>
</g>
<!-- Node11 -->
<g id="node11" class="node">
<title>Node11</title>
<g id="a_node11"><a xlink:href="_m_l_c_l___circular_double_linked_list_8h.html" target="_top" xlink:title=" ">
<polygon fill="none" stroke="black" points="208,-151 208,-181 352,-181 352,-151 208,-151"/>
<text text-anchor="start" x="216" y="-169" font-family="Helvetica,sans-Serif" font-size="10.00">include/List/MLCL_Circular</text>
<text text-anchor="middle" x="280" y="-158" font-family="Helvetica,sans-Serif" font-size="10.00">DoubleLinkedList.h</text>
</a>
</g>
</g>
<!-- Node10&#45;&gt;Node11 -->
<g id="edge10" class="edge">
<title>Node10&#45;&gt;Node11</title>
<path fill="none" stroke="midnightblue" d="M280,-213.23C280,-202.57 280,-190.41 280,-181.25"/>
<polygon fill="midnightblue" stroke="midnightblue" points="276.5,-213.23 280,-223.23 283.5,-213.23 276.5,-213.23"/>
</g>
<!-- Node12 -->
<g id="node12" class="node">
<title>Node12</title>
<g id="a_node12"><a xlink:href="_m_l_c_l___circular_double_linked_list_8c.html" target="_top" xlink:title=" ">
<polygon fill="none" stroke="black" points="159,-73 159,-103 317,-103 317,-73 159,-73"/>
<text text-anchor="start" x="167" y="-91" font-family="Helvetica,sans-Serif" font-size="10.00">src/List/MLCL_CircularDouble</text>
<text text-anchor="middle" x="238" y="-80" font-family="Helvetica,sans-Serif" font-size="10.00">LinkedList.c</text>
</a>
</g>
</g>
<!-- Node10&#45;&gt;Node12 -->
<g id="edge14" class="edge">
<title>Node10&#45;&gt;Node12</title>
<path fill="none" stroke="midnightblue" d="M232.24,-218.45C219.11,-210.74 206.45,-200.42 199,-187 183.27,-158.66 207.94,-122.66 224.66,-103.14"/>
<polygon fill="midnightblue" stroke="midnightblue" points="230.88,-221.69 241.34,-223.37 234.21,-215.54 230.88,-221.69"/>
</g>
<!-- Node13 -->
<g id="node13" class="node">
<title>Node13</title>
<g id="a_node13"><a xlink:href="_m_l_c_l___double_linked_list_8c.html" target="_top" xlink:title=" ">
<polygon fill="none" stroke="black" points="0,-151 0,-181 152,-181 152,-151 0,-151"/>
<text text-anchor="start" x="8" y="-169" font-family="Helvetica,sans-Serif" font-size="10.00">src/List/MLCL_DoubleLinked</text>
<text text-anchor="middle" x="76" y="-158" font-family="Helvetica,sans-Serif" font-size="10.00">List.c</text>
</a>
</g>
</g>
<!-- Node10&#45;&gt;Node13 -->
<g id="edge15" class="edge">
<title>Node10&#45;&gt;Node13</title>
<path fill="none" stroke="midnightblue" d="M229.71,-220.12C194.92,-208.1 149.22,-192.31 116.72,-181.07"/>
<polygon fill="midnightblue" stroke="midnightblue" points="228.61,-223.44 239.21,-223.4 230.9,-216.83 228.61,-223.44"/>
</g>
<!-- Node11&#45;&gt;Node3 -->
<g id="edge11" class="edge">
<title>Node11&#45;&gt;Node3</title>
<path fill="none" stroke="midnightblue" d="M318.7,-146.5C342.7,-135.03 373.51,-120.3 397.94,-108.63"/>
<polygon fill="midnightblue" stroke="midnightblue" points="317.05,-143.41 309.53,-150.88 320.07,-149.73 317.05,-143.41"/>
</g>
<!-- Node11&#45;&gt;Node12 -->
<g id="edge12" class="edge">
<title>Node11&#45;&gt;Node12</title>
<path fill="none" stroke="midnightblue" d="M267.13,-141.7C260.18,-129.14 251.84,-114.04 245.86,-103.23"/>
<polygon fill="midnightblue" stroke="midnightblue" points="264.2,-143.65 272.1,-150.7 270.33,-140.26 264.2,-143.65"/>
</g>
<!-- Node14&#45;&gt;Node6 -->
<g id="edge20" class="edge">
<title>Node14&#45;&gt;Node6</title>
<path fill="none" stroke="midnightblue" d="M1105.49,-219.03C1080.73,-207.16 1049.06,-191.97 1026.34,-181.07"/>
<polygon fill="midnightblue" stroke="midnightblue" points="1104.08,-222.23 1114.61,-223.4 1107.1,-215.92 1104.08,-222.23"/>
</g>
<!-- Node15 -->
<g id="node15" class="node">
<title>Node15</title>
<g id="a_node15"><a xlink:href="_m_l_c_l___circular_linked_list_8h.html" target="_top" xlink:title=" ">
<polygon fill="none" stroke="black" points="1072,-151 1072,-181 1216,-181 1216,-151 1072,-151"/>
<text text-anchor="start" x="1080" y="-169" font-family="Helvetica,sans-Serif" font-size="10.00">include/List/MLCL_Circular</text>
<text text-anchor="middle" x="1144" y="-158" font-family="Helvetica,sans-Serif" font-size="10.00">LinkedList.h</text>
</a>
</g>
</g>
<!-- Node14&#45;&gt;Node15 -->
<g id="edge17" class="edge">
<title>Node14&#45;&gt;Node15</title>
<path fill="none" stroke="midnightblue" d="M1144,-213.23C1144,-202.57 1144,-190.41 1144,-181.25"/>
<polygon fill="midnightblue" stroke="midnightblue" points="1140.5,-213.23 1144,-223.23 1147.5,-213.23 1140.5,-213.23"/>
</g>
<!-- Node17 -->
<g id="node17" class="node">
<title>Node17</title>
<g id="a_node17"><a xlink:href="_m_l_c_l___linked_list_8c.html" target="_top" xlink:title=" ">
<polygon fill="none" stroke="black" points="1272.5,-156.5 1272.5,-175.5 1415.5,-175.5 1415.5,-156.5 1272.5,-156.5"/>
<text text-anchor="middle" x="1344" y="-163.5" font-family="Helvetica,sans-Serif" font-size="10.00">src/List/MLCL_LinkedList.c</text>
</a>
</g>
</g>
<!-- Node14&#45;&gt;Node17 -->
<g id="edge21" class="edge">
<title>Node14&#45;&gt;Node17</title>
<path fill="none" stroke="midnightblue" d="M1193.61,-220.01C1233.78,-205.85 1288.65,-186.51 1319.79,-175.53"/>
<polygon fill="midnightblue" stroke="midnightblue" points="1192.26,-216.78 1183.99,-223.4 1194.59,-223.38 1192.26,-216.78"/>
</g>
<!-- Node15&#45;&gt;Node4 -->
<g id="edge18" class="edge">
<title>Node15&#45;&gt;Node4</title>
<path fill="none" stroke="midnightblue" d="M1080.59,-148.77C1074.33,-147.4 1068.05,-146.11 1062,-145 929.7,-120.66 773.39,-103.75 685.06,-95.27"/>
<polygon fill="midnightblue" stroke="midnightblue" points="1079.85,-152.19 1090.38,-150.99 1081.4,-145.37 1079.85,-152.19"/>
</g>
<!-- Node16 -->
<g id="node16" class="node">
<title>Node16</title>
<g id="a_node16"><a xlink:href="_m_l_c_l___circular_linked_list_8c.html" target="_top" xlink:title=" ">
<polygon fill="none" stroke="black" points="1066.5,-73 1066.5,-103 1221.5,-103 1221.5,-73 1066.5,-73"/>
<text text-anchor="start" x="1074.5" y="-91" font-family="Helvetica,sans-Serif" font-size="10.00">src/List/MLCL_CircularLinked</text>
<text text-anchor="middle" x="1144" y="-80" font-family="Helvetica,sans-Serif" font-size="10.00">List.c</text>
</a>
</g>
</g>
<!-- Node15&#45;&gt;Node16 -->
<g id="edge19" class="edge">
<title>Node15&#45;&gt;Node16</title>
<path fill="none" stroke="midnightblue" d="M1144,-140.59C1144,-128.26 1144,-113.72 1144,-103.23"/>
<polygon fill="midnightblue" stroke="midnightblue" points="1140.5,-140.7 1144,-150.7 1147.5,-140.71 1140.5,-140.7"/>
</g>
<!-- Node20 -->
<g id="node20" class="node">
<title>Node20</title>
<g id="a_node20"><a xlink:href="_m_l_c_l___binary_search_tree__test_8h.html" target="_top" xlink:title=" ">
<polygon fill="none" stroke="black" points="1434,-145.5 1434,-186.5 1570,-186.5 1570,-145.5 1434,-145.5"/>
<text text-anchor="start" x="1442" y="-174.5" font-family="Helvetica,sans-Serif" font-size="10.00">include/_Tests/Tree</text>
<text text-anchor="start" x="1442" y="-163.5" font-family="Helvetica,sans-Serif" font-size="10.00">/MLCL_BinarySearchTree</text>
<text text-anchor="middle" x="1502" y="-152.5" font-family="Helvetica,sans-Serif" font-size="10.00">_test.h</text>
</a>
</g>
</g>
<!-- Node19&#45;&gt;Node20 -->
<g id="edge24" class="edge">
<title>Node19&#45;&gt;Node20</title>
<path fill="none" stroke="midnightblue" d="M1430.78,-217.21C1444.44,-207.58 1460.69,-196.12 1474.21,-186.59"/>
<polygon fill="midnightblue" stroke="midnightblue" points="1428.39,-214.61 1422.24,-223.23 1432.43,-220.33 1428.39,-214.61"/>
</g>
<!-- Node23 -->
<g id="node23" class="node">
<title>Node23</title>
<g id="a_node23"><a xlink:href="_m_l_c_l___binary_search_tree_8c.html" target="_top" xlink:title=" ">
<polygon fill="none" stroke="black" points="1588.5,-151 1588.5,-181 1741.5,-181 1741.5,-151 1588.5,-151"/>
<text text-anchor="start" x="1596.5" y="-169" font-family="Helvetica,sans-Serif" font-size="10.00">src/Tree/MLCL_BinarySearch</text>
<text text-anchor="middle" x="1665" y="-158" font-family="Helvetica,sans-Serif" font-size="10.00">Tree.c</text>
</a>
</g>
</g>
<!-- Node19&#45;&gt;Node23 -->
<g id="edge28" class="edge">
<title>Node19&#45;&gt;Node23</title>
<path fill="none" stroke="midnightblue" d="M1463.95,-220.89C1509.09,-208.79 1569.57,-192.58 1612.37,-181.11"/>
<polygon fill="midnightblue" stroke="midnightblue" points="1463.03,-217.52 1454.27,-223.49 1464.84,-224.28 1463.03,-217.52"/>
</g>
<!-- Node20&#45;&gt;Node8 -->
<g id="edge27" class="edge">
<title>Node20&#45;&gt;Node8</title>
<path fill="none" stroke="midnightblue" d="M1449.26,-141.28C1421.4,-128.76 1388.16,-113.81 1364.37,-103.11"/>
<polygon fill="midnightblue" stroke="midnightblue" points="1447.92,-144.52 1458.48,-145.43 1450.79,-138.13 1447.92,-144.52"/>
</g>
<!-- Node21 -->
<g id="node21" class="node">
<title>Node21</title>
<g id="a_node21"><a xlink:href="_m_l_c_l__all__tests_8h.html" target="_top" xlink:title=" ">
<polygon fill="none" stroke="black" points="1445,-73 1445,-103 1559,-103 1559,-73 1445,-73"/>
<text text-anchor="start" x="1453" y="-91" font-family="Helvetica,sans-Serif" font-size="10.00">include/_Tests/MLCL</text>
<text text-anchor="middle" x="1502" y="-80" font-family="Helvetica,sans-Serif" font-size="10.00">_all_tests.h</text>
</a>
</g>
</g>
<!-- Node20&#45;&gt;Node21 -->
<g id="edge25" class="edge">
<title>Node20&#45;&gt;Node21</title>
<path fill="none" stroke="midnightblue" d="M1502,-135.28C1502,-124.25 1502,-112.25 1502,-103.23"/>
<polygon fill="midnightblue" stroke="midnightblue" points="1498.5,-135.43 1502,-145.43 1505.5,-135.43 1498.5,-135.43"/>
</g>
<!-- Node22 -->
<g id="node22" class="node">
<title>Node22</title>
<g id="a_node22"><a xlink:href="_m_l_c_l__all__tests_8c.html" target="_top" xlink:title=" ">
<polygon fill="none" stroke="black" points="1447,-0.5 1447,-30.5 1557,-30.5 1557,-0.5 1447,-0.5"/>
<text text-anchor="start" x="1455" y="-18.5" font-family="Helvetica,sans-Serif" font-size="10.00">src/_Tests/MLCL_all</text>
<text text-anchor="middle" x="1502" y="-7.5" font-family="Helvetica,sans-Serif" font-size="10.00">_tests.c</text>
</a>
</g>
</g>
<!-- Node21&#45;&gt;Node22 -->
<g id="edge26" class="edge">
<title>Node21&#45;&gt;Node22</title>
<path fill="none" stroke="midnightblue" d="M1502,-62.73C1502,-52.07 1502,-39.91 1502,-30.75"/>
<polygon fill="midnightblue" stroke="midnightblue" points="1498.5,-62.73 1502,-72.73 1505.5,-62.73 1498.5,-62.73"/>
</g>
</g>
</svg>
