<?xml version="1.0" encoding="UTF-8" standalone="no"?>
<!DOCTYPE svg PUBLIC "-//W3C//DTD SVG 1.1//EN"
 "http://www.w3.org/Graphics/SVG/1.1/DTD/svg11.dtd">
<!-- Generated by graphviz version 2.43.0 (0)
 -->
<!-- Title: include/Lists/MLCL_ArrayList.h Pages: 1 -->
<svg width="861pt" height="307pt"
 viewBox="0.00 0.00 861.00 307.00" xmlns="http://www.w3.org/2000/svg" xmlns:xlink="http://www.w3.org/1999/xlink">
<g id="graph0" class="graph" transform="scale(1 1) rotate(0) translate(4 303)">
<title>include/Lists/MLCL_ArrayList.h</title>
<!-- Node1 -->
<g id="node1" class="node">
<title>Node1</title>
<g id="a_node1"><a xlink:title=" ">
<polygon fill="#bfbfbf" stroke="black" points="414,-268.5 414,-298.5 521,-298.5 521,-268.5 414,-268.5"/>
<text text-anchor="start" x="422" y="-286.5" font-family="Helvetica,sans-Serif" font-size="10.00">include/Lists/MLCL</text>
<text text-anchor="middle" x="467.5" y="-275.5" font-family="Helvetica,sans-Serif" font-size="10.00">_ArrayList.h</text>
</a>
</g>
</g>
<!-- Node2 -->
<g id="node2" class="node">
<title>Node2</title>
<g id="a_node2"><a xlink:href="_m_l_c_l___array_list__test_8c.html" target="_top" xlink:title=" ">
<polygon fill="none" stroke="black" points="172,-201.5 172,-231.5 291,-231.5 291,-201.5 172,-201.5"/>
<text text-anchor="start" x="180" y="-219.5" font-family="Helvetica,sans-Serif" font-size="10.00">src/_Tests/Lists/MLCL</text>
<text text-anchor="middle" x="231.5" y="-208.5" font-family="Helvetica,sans-Serif" font-size="10.00">_ArrayList_test.c</text>
</a>
</g>
</g>
<!-- Node1&#45;&gt;Node2 -->
<g id="edge1" class="edge">
<title>Node1&#45;&gt;Node2</title>
<path fill="none" stroke="midnightblue" d="M406.56,-265.71C368.15,-255.14 319.13,-241.63 282.73,-231.61"/>
<polygon fill="midnightblue" stroke="midnightblue" points="406.01,-269.19 416.58,-268.48 407.87,-262.45 406.01,-269.19"/>
</g>
<!-- Node3 -->
<g id="node3" class="node">
<title>Node3</title>
<g id="a_node3"><a xlink:href="_m_l_c_l___list_8h.html" target="_top" xlink:title=" ">
<polygon fill="none" stroke="black" points="309,-201.5 309,-231.5 416,-231.5 416,-201.5 309,-201.5"/>
<text text-anchor="start" x="317" y="-219.5" font-family="Helvetica,sans-Serif" font-size="10.00">include/Lists/MLCL</text>
<text text-anchor="middle" x="362.5" y="-208.5" font-family="Helvetica,sans-Serif" font-size="10.00">_List.h</text>
</a>
</g>
</g>
<!-- Node1&#45;&gt;Node3 -->
<g id="edge2" class="edge">
<title>Node1&#45;&gt;Node3</title>
<path fill="none" stroke="midnightblue" d="M436.02,-263.02C419.68,-252.9 400.09,-240.77 385.24,-231.58"/>
<polygon fill="midnightblue" stroke="midnightblue" points="434.37,-266.11 444.72,-268.4 438.06,-260.16 434.37,-266.11"/>
</g>
<!-- Node11 -->
<g id="node11" class="node">
<title>Node11</title>
<g id="a_node11"><a xlink:href="_m_l_c_l___binary_heap_8h.html" target="_top" xlink:title=" ">
<polygon fill="none" stroke="black" points="499.5,-201.5 499.5,-231.5 645.5,-231.5 645.5,-201.5 499.5,-201.5"/>
<text text-anchor="start" x="507.5" y="-219.5" font-family="Helvetica,sans-Serif" font-size="10.00">include/Heap/MLCL_Binary</text>
<text text-anchor="middle" x="572.5" y="-208.5" font-family="Helvetica,sans-Serif" font-size="10.00">Heap.h</text>
</a>
</g>
</g>
<!-- Node1&#45;&gt;Node11 -->
<g id="edge10" class="edge">
<title>Node1&#45;&gt;Node11</title>
<path fill="none" stroke="midnightblue" d="M498.98,-263.02C515.32,-252.9 534.91,-240.77 549.76,-231.58"/>
<polygon fill="midnightblue" stroke="midnightblue" points="496.94,-260.16 490.28,-268.4 500.63,-266.11 496.94,-260.16"/>
</g>
<!-- Node17 -->
<g id="node17" class="node">
<title>Node17</title>
<g id="a_node17"><a xlink:href="_m_l_c_l___array_list_8c.html" target="_top" xlink:title=" ">
<polygon fill="none" stroke="black" points="664,-207 664,-226 807,-226 807,-207 664,-207"/>
<text text-anchor="middle" x="735.5" y="-214" font-family="Helvetica,sans-Serif" font-size="10.00">src/Lists/MLCL_ArrayList.c</text>
</a>
</g>
</g>
<!-- Node1&#45;&gt;Node17 -->
<g id="edge16" class="edge">
<title>Node1&#45;&gt;Node17</title>
<path fill="none" stroke="midnightblue" d="M531.06,-267.09C583.99,-254.25 657.42,-236.44 700.35,-226.02"/>
<polygon fill="midnightblue" stroke="midnightblue" points="529.98,-263.74 521.09,-269.5 531.63,-270.55 529.98,-263.74"/>
</g>
<!-- Node4 -->
<g id="node4" class="node">
<title>Node4</title>
<g id="a_node4"><a xlink:href="_m_l_c_l___list__test_8c.html" target="_top" xlink:title=" ">
<polygon fill="none" stroke="black" points="0,-134.5 0,-164.5 119,-164.5 119,-134.5 0,-134.5"/>
<text text-anchor="start" x="8" y="-152.5" font-family="Helvetica,sans-Serif" font-size="10.00">src/_Tests/Lists/MLCL</text>
<text text-anchor="middle" x="59.5" y="-141.5" font-family="Helvetica,sans-Serif" font-size="10.00">_List_test.c</text>
</a>
</g>
</g>
<!-- Node3&#45;&gt;Node4 -->
<g id="edge3" class="edge">
<title>Node3&#45;&gt;Node4</title>
<path fill="none" stroke="midnightblue" d="M298.79,-200.91C267.48,-194.22 179.6,-175.74 119.23,-163.05"/>
<polygon fill="midnightblue" stroke="midnightblue" points="298.39,-204.4 308.9,-203.09 299.86,-197.56 298.39,-204.4"/>
</g>
<!-- Node5 -->
<g id="node5" class="node">
<title>Node5</title>
<g id="a_node5"><a xlink:href="_m_l_c_l___queue_8h.html" target="_top" xlink:title=" ">
<polygon fill="none" stroke="black" points="137.5,-134.5 137.5,-164.5 253.5,-164.5 253.5,-134.5 137.5,-134.5"/>
<text text-anchor="start" x="145.5" y="-152.5" font-family="Helvetica,sans-Serif" font-size="10.00">include/Queue/MLCL</text>
<text text-anchor="middle" x="195.5" y="-141.5" font-family="Helvetica,sans-Serif" font-size="10.00">_Queue.h</text>
</a>
</g>
</g>
<!-- Node3&#45;&gt;Node5 -->
<g id="edge4" class="edge">
<title>Node3&#45;&gt;Node5</title>
<path fill="none" stroke="midnightblue" d="M316.72,-197.68C289.94,-187.26 256.6,-174.28 231.67,-164.58"/>
<polygon fill="midnightblue" stroke="midnightblue" points="315.67,-201.03 326.26,-201.4 318.21,-194.51 315.67,-201.03"/>
</g>
<!-- Node8 -->
<g id="node8" class="node">
<title>Node8</title>
<g id="a_node8"><a xlink:href="_m_l_c_l___list_8c.html" target="_top" xlink:title=" ">
<polygon fill="none" stroke="black" points="271.5,-140 271.5,-159 387.5,-159 387.5,-140 271.5,-140"/>
<text text-anchor="middle" x="329.5" y="-147" font-family="Helvetica,sans-Serif" font-size="10.00">src/Lists/MLCL_List.c</text>
</a>
</g>
</g>
<!-- Node3&#45;&gt;Node8 -->
<g id="edge7" class="edge">
<title>Node3&#45;&gt;Node8</title>
<path fill="none" stroke="midnightblue" d="M350.72,-192.29C344.88,-180.8 338.2,-167.63 333.91,-159.19"/>
<polygon fill="midnightblue" stroke="midnightblue" points="347.69,-194.06 355.34,-201.4 353.93,-190.89 347.69,-194.06"/>
</g>
<!-- Node9 -->
<g id="node9" class="node">
<title>Node9</title>
<g id="a_node9"><a xlink:href="_m_l_c_l___stack_8h.html" target="_top" xlink:title=" ">
<polygon fill="none" stroke="black" points="406,-134.5 406,-164.5 517,-164.5 517,-134.5 406,-134.5"/>
<text text-anchor="start" x="414" y="-152.5" font-family="Helvetica,sans-Serif" font-size="10.00">include/Stack/MLCL</text>
<text text-anchor="middle" x="461.5" y="-141.5" font-family="Helvetica,sans-Serif" font-size="10.00">_Stack.h</text>
</a>
</g>
</g>
<!-- Node3&#45;&gt;Node9 -->
<g id="edge8" class="edge">
<title>Node3&#45;&gt;Node9</title>
<path fill="none" stroke="midnightblue" d="M392.61,-195.73C407.92,-185.68 426.19,-173.68 440.06,-164.58"/>
<polygon fill="midnightblue" stroke="midnightblue" points="390.42,-192.98 383.98,-201.4 394.26,-198.83 390.42,-192.98"/>
</g>
<!-- Node6 -->
<g id="node6" class="node">
<title>Node6</title>
<g id="a_node6"><a xlink:href="_m_l_c_l___queue__test_8c.html" target="_top" xlink:title=" ">
<polygon fill="none" stroke="black" points="35.5,-67.5 35.5,-97.5 163.5,-97.5 163.5,-67.5 35.5,-67.5"/>
<text text-anchor="start" x="43.5" y="-85.5" font-family="Helvetica,sans-Serif" font-size="10.00">src/_Tests/Queue/MLCL</text>
<text text-anchor="middle" x="99.5" y="-74.5" font-family="Helvetica,sans-Serif" font-size="10.00">_Queue_test.c</text>
</a>
</g>
</g>
<!-- Node5&#45;&gt;Node6 -->
<g id="edge5" class="edge">
<title>Node5&#45;&gt;Node6</title>
<path fill="none" stroke="midnightblue" d="M166.31,-128.73C151.45,-118.68 133.74,-106.68 120.29,-97.58"/>
<polygon fill="midnightblue" stroke="midnightblue" points="164.43,-131.69 174.67,-134.4 168.35,-125.89 164.43,-131.69"/>
</g>
<!-- Node7 -->
<g id="node7" class="node">
<title>Node7</title>
<g id="a_node7"><a xlink:href="_m_l_c_l___queue_8c.html" target="_top" xlink:title=" ">
<polygon fill="none" stroke="black" points="181.5,-73 181.5,-92 321.5,-92 321.5,-73 181.5,-73"/>
<text text-anchor="middle" x="251.5" y="-80" font-family="Helvetica,sans-Serif" font-size="10.00">src/Queue/MLCL_Queue.c</text>
</a>
</g>
</g>
<!-- Node5&#45;&gt;Node7 -->
<g id="edge6" class="edge">
<title>Node5&#45;&gt;Node7</title>
<path fill="none" stroke="midnightblue" d="M214.32,-126.66C224.48,-114.86 236.45,-100.97 244.01,-92.19"/>
<polygon fill="midnightblue" stroke="midnightblue" points="211.53,-124.54 207.65,-134.4 216.83,-129.1 211.53,-124.54"/>
</g>
<!-- Node10 -->
<g id="node10" class="node">
<title>Node10</title>
<g id="a_node10"><a xlink:href="_m_l_c_l___stack_8c.html" target="_top" xlink:title=" ">
<polygon fill="none" stroke="black" points="395,-73 395,-92 526,-92 526,-73 395,-73"/>
<text text-anchor="middle" x="460.5" y="-80" font-family="Helvetica,sans-Serif" font-size="10.00">src/Stack/MLCL_Stack.c</text>
</a>
</g>
</g>
<!-- Node9&#45;&gt;Node10 -->
<g id="edge9" class="edge">
<title>Node9&#45;&gt;Node10</title>
<path fill="none" stroke="midnightblue" d="M461.13,-124.25C460.95,-113.02 460.76,-100.38 460.63,-92.19"/>
<polygon fill="midnightblue" stroke="midnightblue" points="457.63,-124.45 461.28,-134.4 464.63,-124.34 457.63,-124.45"/>
</g>
<!-- Node12 -->
<g id="node12" class="node">
<title>Node12</title>
<g id="a_node12"><a xlink:href="_m_l_c_l___binary_heap__test_8h.html" target="_top" xlink:title=" ">
<polygon fill="none" stroke="black" points="535,-134.5 535,-164.5 676,-164.5 676,-134.5 535,-134.5"/>
<text text-anchor="start" x="543" y="-152.5" font-family="Helvetica,sans-Serif" font-size="10.00">include/_Tests/Heap</text>
<text text-anchor="middle" x="605.5" y="-141.5" font-family="Helvetica,sans-Serif" font-size="10.00">/MLCL_BinaryHeap_test.h</text>
</a>
</g>
</g>
<!-- Node11&#45;&gt;Node12 -->
<g id="edge11" class="edge">
<title>Node11&#45;&gt;Node12</title>
<path fill="none" stroke="midnightblue" d="M584.29,-192.28C588.99,-183.02 594.25,-172.66 598.35,-164.58"/>
<polygon fill="midnightblue" stroke="midnightblue" points="581.07,-190.89 579.66,-201.4 587.31,-194.06 581.07,-190.89"/>
</g>
<!-- Node16 -->
<g id="node16" class="node">
<title>Node16</title>
<g id="a_node16"><a xlink:href="_m_l_c_l___binary_heap_8c.html" target="_top" xlink:title=" ">
<polygon fill="none" stroke="black" points="694,-140 694,-159 853,-159 853,-140 694,-140"/>
<text text-anchor="middle" x="773.5" y="-147" font-family="Helvetica,sans-Serif" font-size="10.00">src/Heap/MLCL_BinaryHeap.c</text>
</a>
</g>
</g>
<!-- Node11&#45;&gt;Node16 -->
<g id="edge15" class="edge">
<title>Node11&#45;&gt;Node16</title>
<path fill="none" stroke="midnightblue" d="M625.78,-198.27C664.95,-185.6 716.5,-168.93 747.19,-159.01"/>
<polygon fill="midnightblue" stroke="midnightblue" points="624.55,-194.99 616.11,-201.4 626.71,-201.65 624.55,-194.99"/>
</g>
<!-- Node13 -->
<g id="node13" class="node">
<title>Node13</title>
<g id="a_node13"><a xlink:href="_m_l_c_l___binary_heap__test_8c.html" target="_top" xlink:title=" ">
<polygon fill="none" stroke="black" points="544.5,-67.5 544.5,-97.5 666.5,-97.5 666.5,-67.5 544.5,-67.5"/>
<text text-anchor="start" x="552.5" y="-85.5" font-family="Helvetica,sans-Serif" font-size="10.00">src/_Tests/Heap/MLCL</text>
<text text-anchor="middle" x="605.5" y="-74.5" font-family="Helvetica,sans-Serif" font-size="10.00">_BinaryHeap_test.c</text>
</a>
</g>
</g>
<!-- Node12&#45;&gt;Node13 -->
<g id="edge12" class="edge">
<title>Node12&#45;&gt;Node13</title>
<path fill="none" stroke="midnightblue" d="M605.5,-124.11C605.5,-115.15 605.5,-105.32 605.5,-97.58"/>
<polygon fill="midnightblue" stroke="midnightblue" points="602,-124.4 605.5,-134.4 609,-124.4 602,-124.4"/>
</g>
<!-- Node14 -->
<g id="node14" class="node">
<title>Node14</title>
<g id="a_node14"><a xlink:href="_m_l_c_l__all__tests_8h.html" target="_top" xlink:title=" ">
<polygon fill="none" stroke="black" points="684.5,-67.5 684.5,-97.5 798.5,-97.5 798.5,-67.5 684.5,-67.5"/>
<text text-anchor="start" x="692.5" y="-85.5" font-family="Helvetica,sans-Serif" font-size="10.00">include/_Tests/MLCL</text>
<text text-anchor="middle" x="741.5" y="-74.5" font-family="Helvetica,sans-Serif" font-size="10.00">_all_tests.h</text>
</a>
</g>
</g>
<!-- Node12&#45;&gt;Node14 -->
<g id="edge13" class="edge">
<title>Node12&#45;&gt;Node14</title>
<path fill="none" stroke="midnightblue" d="M644.22,-129.99C665.78,-119.69 692.19,-107.07 712.05,-97.58"/>
<polygon fill="midnightblue" stroke="midnightblue" points="642.52,-126.93 635.01,-134.4 645.54,-133.24 642.52,-126.93"/>
</g>
<!-- Node15 -->
<g id="node15" class="node">
<title>Node15</title>
<g id="a_node15"><a xlink:href="_m_l_c_l__all__tests_8c.html" target="_top" xlink:title=" ">
<polygon fill="none" stroke="black" points="686.5,-0.5 686.5,-30.5 796.5,-30.5 796.5,-0.5 686.5,-0.5"/>
<text text-anchor="start" x="694.5" y="-18.5" font-family="Helvetica,sans-Serif" font-size="10.00">src/_Tests/MLCL_all</text>
<text text-anchor="middle" x="741.5" y="-7.5" font-family="Helvetica,sans-Serif" font-size="10.00">_tests.c</text>
</a>
</g>
</g>
<!-- Node14&#45;&gt;Node15 -->
<g id="edge14" class="edge">
<title>Node14&#45;&gt;Node15</title>
<path fill="none" stroke="midnightblue" d="M741.5,-57.11C741.5,-48.15 741.5,-38.32 741.5,-30.58"/>
<polygon fill="midnightblue" stroke="midnightblue" points="738,-57.4 741.5,-67.4 745,-57.4 738,-57.4"/>
</g>
</g>
</svg>
