<?xml version="1.0" encoding="UTF-8" standalone="no"?>
<!DOCTYPE svg PUBLIC "-//W3C//DTD SVG 1.1//EN"
 "http://www.w3.org/Graphics/SVG/1.1/DTD/svg11.dtd">
<!-- Generated by graphviz version 2.43.0 (0)
 -->
<!-- Title: include/List/MLCL_ArrayList.h Pages: 1 -->
<svg width="167pt" height="140pt"
 viewBox="0.00 0.00 167.00 140.00" xmlns="http://www.w3.org/2000/svg" xmlns:xlink="http://www.w3.org/1999/xlink">
<g id="graph0" class="graph" transform="scale(1 1) rotate(0) translate(4 136)">
<title>include/List/MLCL_ArrayList.h</title>
<!-- Node1 -->
<g id="node1" class="node">
<title>Node1</title>
<g id="a_node1"><a xlink:title=" ">
<polygon fill="#bfbfbf" stroke="black" points="0,-112.5 0,-131.5 159,-131.5 159,-112.5 0,-112.5"/>
<text text-anchor="middle" x="79.5" y="-119.5" font-family="Helvetica,sans-Serif" font-size="10.00">include/List/MLCL_ArrayList.h</text>
</a>
</g>
</g>
<!-- Node2 -->
<g id="node2" class="node">
<title>Node2</title>
<g id="a_node2"><a xlink:href="_m_l_c_l___type_descriptor_8h.html" target="_top" xlink:title=" ">
<polygon fill="none" stroke="black" points="10.5,-56.5 10.5,-75.5 148.5,-75.5 148.5,-56.5 10.5,-56.5"/>
<text text-anchor="middle" x="79.5" y="-63.5" font-family="Helvetica,sans-Serif" font-size="10.00">../MLCL_TypeDescriptor.h</text>
</a>
</g>
</g>
<!-- Node1&#45;&gt;Node2 -->
<g id="edge1" class="edge">
<title>Node1&#45;&gt;Node2</title>
<path fill="none" stroke="midnightblue" d="M79.5,-112.08C79.5,-105.01 79.5,-94.86 79.5,-85.99"/>
<polygon fill="midnightblue" stroke="midnightblue" points="83,-85.75 79.5,-75.75 76,-85.75 83,-85.75"/>
</g>
<!-- Node3 -->
<g id="node3" class="node">
<title>Node3</title>
<g id="a_node3"><a xlink:title=" ">
<polygon fill="none" stroke="#bfbfbf" points="18,-0.5 18,-19.5 71,-19.5 71,-0.5 18,-0.5"/>
<text text-anchor="middle" x="44.5" y="-7.5" font-family="Helvetica,sans-Serif" font-size="10.00">stdlib.h</text>
</a>
</g>
</g>
<!-- Node2&#45;&gt;Node3 -->
<g id="edge2" class="edge">
<title>Node2&#45;&gt;Node3</title>
<path fill="none" stroke="midnightblue" d="M73.72,-56.08C68.83,-48.53 61.67,-37.49 55.67,-28.23"/>
<polygon fill="midnightblue" stroke="midnightblue" points="58.55,-26.24 50.17,-19.75 52.67,-30.05 58.55,-26.24"/>
</g>
<!-- Node4 -->
<g id="node4" class="node">
<title>Node4</title>
<g id="a_node4"><a xlink:title=" ">
<polygon fill="none" stroke="#bfbfbf" points="89.5,-0.5 89.5,-19.5 139.5,-19.5 139.5,-0.5 89.5,-0.5"/>
<text text-anchor="middle" x="114.5" y="-7.5" font-family="Helvetica,sans-Serif" font-size="10.00">stdio.h</text>
</a>
</g>
</g>
<!-- Node2&#45;&gt;Node4 -->
<g id="edge3" class="edge">
<title>Node2&#45;&gt;Node4</title>
<path fill="none" stroke="midnightblue" d="M85.28,-56.08C90.17,-48.53 97.33,-37.49 103.33,-28.23"/>
<polygon fill="midnightblue" stroke="midnightblue" points="106.33,-30.05 108.83,-19.75 100.45,-26.24 106.33,-30.05"/>
</g>
</g>
</svg>
