<?xml version="1.0" encoding="UTF-8" standalone="no"?>
<!DOCTYPE svg PUBLIC "-//W3C//DTD SVG 1.1//EN"
 "http://www.w3.org/Graphics/SVG/1.1/DTD/svg11.dtd">
<!-- Generated by graphviz version 2.43.0 (0)
 -->
<!-- Title: src/MLCL_CircularLinkedList.c Pages: 1 -->
<svg width="386pt" height="263pt"
 viewBox="0.00 0.00 386.00 263.00" xmlns="http://www.w3.org/2000/svg" xmlns:xlink="http://www.w3.org/1999/xlink">
<g id="graph0" class="graph" transform="scale(1 1) rotate(0) translate(4 259)">
<title>src/MLCL_CircularLinkedList.c</title>
<!-- Node1 -->
<g id="node1" class="node">
<title>Node1</title>
<g id="a_node1"><a xlink:title=" ">
<polygon fill="#bfbfbf" stroke="black" points="168.5,-235.5 168.5,-254.5 328.5,-254.5 328.5,-235.5 168.5,-235.5"/>
<text text-anchor="middle" x="248.5" y="-242.5" font-family="Helvetica,sans-Serif" font-size="10.00">src/MLCL_CircularLinkedList.c</text>
</a>
</g>
</g>
<!-- Node2 -->
<g id="node2" class="node">
<title>Node2</title>
<g id="a_node2"><a xlink:href="_m_l_c_l___circular_linked_list_8h.html" target="_top" xlink:title=" ">
<polygon fill="none" stroke="black" points="106,-168.5 106,-198.5 239,-198.5 239,-168.5 106,-168.5"/>
<text text-anchor="start" x="114" y="-186.5" font-family="Helvetica,sans-Serif" font-size="10.00">../include/MLCL_Circular</text>
<text text-anchor="middle" x="172.5" y="-175.5" font-family="Helvetica,sans-Serif" font-size="10.00">LinkedList.h</text>
</a>
</g>
</g>
<!-- Node1&#45;&gt;Node2 -->
<g id="edge1" class="edge">
<title>Node1&#45;&gt;Node2</title>
<path fill="none" stroke="midnightblue" d="M237.61,-235.48C227.41,-227.49 211.78,-215.25 198.39,-204.77"/>
<polygon fill="midnightblue" stroke="midnightblue" points="200.44,-201.93 190.41,-198.52 196.13,-207.44 200.44,-201.93"/>
</g>
<!-- Node5 -->
<g id="node5" class="node">
<title>Node5</title>
<g id="a_node5"><a xlink:title=" ">
<polygon fill="none" stroke="#bfbfbf" points="0,-0.5 0,-19.5 53,-19.5 53,-0.5 0,-0.5"/>
<text text-anchor="middle" x="26.5" y="-7.5" font-family="Helvetica,sans-Serif" font-size="10.00">stdlib.h</text>
</a>
</g>
</g>
<!-- Node1&#45;&gt;Node5 -->
<g id="edge10" class="edge">
<title>Node1&#45;&gt;Node5</title>
<path fill="none" stroke="midnightblue" d="M194.11,-235.47C163.68,-228.91 126.04,-217.69 96.5,-199 62.72,-177.63 52.75,-168.52 36.5,-132 21.56,-98.42 22.33,-54.44 24.35,-29.81"/>
<polygon fill="midnightblue" stroke="midnightblue" points="27.85,-29.98 25.34,-19.69 20.88,-29.3 27.85,-29.98"/>
</g>
<!-- Node6 -->
<g id="node6" class="node">
<title>Node6</title>
<g id="a_node6"><a xlink:title=" ">
<polygon fill="none" stroke="#bfbfbf" points="233.5,-0.5 233.5,-19.5 283.5,-19.5 283.5,-0.5 233.5,-0.5"/>
<text text-anchor="middle" x="258.5" y="-7.5" font-family="Helvetica,sans-Serif" font-size="10.00">stdio.h</text>
</a>
</g>
</g>
<!-- Node1&#45;&gt;Node6 -->
<g id="edge9" class="edge">
<title>Node1&#45;&gt;Node6</title>
<path fill="none" stroke="midnightblue" d="M249.27,-235.27C251.44,-210.39 257.5,-137.06 259.5,-76 259.79,-67.12 259.6,-64.89 259.5,-56 259.4,-47.4 259.21,-37.87 259.01,-29.8"/>
<polygon fill="midnightblue" stroke="midnightblue" points="262.51,-29.53 258.75,-19.63 255.51,-29.71 262.51,-29.53"/>
</g>
<!-- Node8 -->
<g id="node8" class="node">
<title>Node8</title>
<g id="a_node8"><a xlink:title=" ">
<polygon fill="none" stroke="#bfbfbf" points="325,-174 325,-193 378,-193 378,-174 325,-174"/>
<text text-anchor="middle" x="351.5" y="-181" font-family="Helvetica,sans-Serif" font-size="10.00">string.h</text>
</a>
</g>
</g>
<!-- Node1&#45;&gt;Node8 -->
<g id="edge11" class="edge">
<title>Node1&#45;&gt;Node8</title>
<path fill="none" stroke="midnightblue" d="M263.26,-235.48C280.16,-225.71 308.08,-209.58 327.99,-198.08"/>
<polygon fill="midnightblue" stroke="midnightblue" points="329.86,-201.04 336.77,-193.01 326.36,-194.98 329.86,-201.04"/>
</g>
<!-- Node3 -->
<g id="node3" class="node">
<title>Node3</title>
<g id="a_node3"><a xlink:href="_m_l_c_l___linked_list_8h.html" target="_top" xlink:title=" ">
<polygon fill="none" stroke="black" points="119.5,-112.5 119.5,-131.5 225.5,-131.5 225.5,-112.5 119.5,-112.5"/>
<text text-anchor="middle" x="172.5" y="-119.5" font-family="Helvetica,sans-Serif" font-size="10.00">MLCL_LinkedList.h</text>
</a>
</g>
</g>
<!-- Node2&#45;&gt;Node3 -->
<g id="edge2" class="edge">
<title>Node2&#45;&gt;Node3</title>
<path fill="none" stroke="midnightblue" d="M172.5,-168.4C172.5,-160.47 172.5,-150.46 172.5,-141.86"/>
<polygon fill="midnightblue" stroke="midnightblue" points="176,-141.66 172.5,-131.66 169,-141.66 176,-141.66"/>
</g>
<!-- Node7 -->
<g id="node7" class="node">
<title>Node7</title>
<g id="a_node7"><a xlink:title=" ">
<polygon fill="none" stroke="#bfbfbf" points="45.5,-112.5 45.5,-131.5 101.5,-131.5 101.5,-112.5 45.5,-112.5"/>
<text text-anchor="middle" x="73.5" y="-119.5" font-family="Helvetica,sans-Serif" font-size="10.00">assert.h</text>
</a>
</g>
</g>
<!-- Node2&#45;&gt;Node7 -->
<g id="edge8" class="edge">
<title>Node2&#45;&gt;Node7</title>
<path fill="none" stroke="midnightblue" d="M149.04,-168.4C133.17,-158.86 112.31,-146.32 96.53,-136.84"/>
<polygon fill="midnightblue" stroke="midnightblue" points="98.28,-133.81 87.91,-131.66 94.67,-139.81 98.28,-133.81"/>
</g>
<!-- Node4 -->
<g id="node4" class="node">
<title>Node4</title>
<g id="a_node4"><a xlink:href="_m_l_c_l___type_descriptor_8h.html" target="_top" xlink:title=" ">
<polygon fill="none" stroke="black" points="54.5,-56.5 54.5,-75.5 230.5,-75.5 230.5,-56.5 54.5,-56.5"/>
<text text-anchor="middle" x="142.5" y="-63.5" font-family="Helvetica,sans-Serif" font-size="10.00">../include/MLCL_TypeDescriptor.h</text>
</a>
</g>
</g>
<!-- Node3&#45;&gt;Node4 -->
<g id="edge3" class="edge">
<title>Node3&#45;&gt;Node4</title>
<path fill="none" stroke="midnightblue" d="M167.55,-112.08C163.4,-104.61 157.35,-93.72 152.23,-84.52"/>
<polygon fill="midnightblue" stroke="midnightblue" points="155.28,-82.79 147.36,-75.75 149.16,-86.19 155.28,-82.79"/>
</g>
<!-- Node3&#45;&gt;Node5 -->
<g id="edge6" class="edge">
<title>Node3&#45;&gt;Node5</title>
<path fill="none" stroke="midnightblue" d="M119.38,-113.66C93.89,-107.56 64.78,-96.4 45.5,-76 33.77,-63.6 29.24,-44.35 27.51,-30.02"/>
<polygon fill="midnightblue" stroke="midnightblue" points="30.97,-29.47 26.64,-19.8 24,-30.06 30.97,-29.47"/>
</g>
<!-- Node3&#45;&gt;Node6 -->
<g id="edge7" class="edge">
<title>Node3&#45;&gt;Node6</title>
<path fill="none" stroke="midnightblue" d="M192.29,-112.36C207.32,-104.82 227.42,-92.51 239.5,-76 249.37,-62.51 254.14,-43.95 256.43,-30.12"/>
<polygon fill="midnightblue" stroke="midnightblue" points="259.95,-30.21 257.82,-19.83 253.01,-29.26 259.95,-30.21"/>
</g>
<!-- Node4&#45;&gt;Node5 -->
<g id="edge4" class="edge">
<title>Node4&#45;&gt;Node5</title>
<path fill="none" stroke="midnightblue" d="M124.12,-56.44C105.28,-47.68 75.77,-33.94 54.12,-23.86"/>
<polygon fill="midnightblue" stroke="midnightblue" points="55.34,-20.56 44.79,-19.52 52.38,-26.91 55.34,-20.56"/>
</g>
<!-- Node4&#45;&gt;Node6 -->
<g id="edge5" class="edge">
<title>Node4&#45;&gt;Node6</title>
<path fill="none" stroke="midnightblue" d="M160.88,-56.44C179.72,-47.68 209.23,-33.94 230.88,-23.86"/>
<polygon fill="midnightblue" stroke="midnightblue" points="232.62,-26.91 240.21,-19.52 229.66,-20.56 232.62,-26.91"/>
</g>
</g>
</svg>
