<?xml version="1.0" encoding="UTF-8" standalone="no"?>
<!DOCTYPE svg PUBLIC "-//W3C//DTD SVG 1.1//EN"
 "http://www.w3.org/Graphics/SVG/1.1/DTD/svg11.dtd">
<!-- Generated by graphviz version 2.43.0 (0)
 -->
<!-- Title: include/Lists/MLCL_CircularDoubleLinkedList.h Pages: 1 -->
<svg width="585pt" height="251pt"
 viewBox="0.00 0.00 584.50 251.00" xmlns="http://www.w3.org/2000/svg" xmlns:xlink="http://www.w3.org/1999/xlink">
<g id="graph0" class="graph" transform="scale(1 1) rotate(0) translate(4 247)">
<title>include/Lists/MLCL_CircularDoubleLinkedList.h</title>
<!-- Node1 -->
<g id="node1" class="node">
<title>Node1</title>
<g id="a_node1"><a xlink:title=" ">
<polygon fill="#bfbfbf" stroke="black" points="214,-212.5 214,-242.5 366,-242.5 366,-212.5 214,-212.5"/>
<text text-anchor="start" x="222" y="-230.5" font-family="Helvetica,sans-Serif" font-size="10.00">include/Lists/MLCL</text>
<text text-anchor="middle" x="290" y="-219.5" font-family="Helvetica,sans-Serif" font-size="10.00">_CircularDoubleLinkedList.h</text>
</a>
</g>
</g>
<!-- Node2 -->
<g id="node2" class="node">
<title>Node2</title>
<g id="a_node2"><a xlink:href="_m_l_c_l___circular_double_linked_list__test_8c.html" target="_top" xlink:title=" ">
<polygon fill="none" stroke="black" points="75.5,-134.5 75.5,-175.5 218.5,-175.5 218.5,-134.5 75.5,-134.5"/>
<text text-anchor="start" x="83.5" y="-163.5" font-family="Helvetica,sans-Serif" font-size="10.00">src/_Tests/Lists/MLCL</text>
<text text-anchor="start" x="83.5" y="-152.5" font-family="Helvetica,sans-Serif" font-size="10.00">_CircularDoubleLinkedList</text>
<text text-anchor="middle" x="147" y="-141.5" font-family="Helvetica,sans-Serif" font-size="10.00">_test.c</text>
</a>
</g>
</g>
<!-- Node1&#45;&gt;Node2 -->
<g id="edge1" class="edge">
<title>Node1&#45;&gt;Node2</title>
<path fill="none" stroke="midnightblue" d="M252.19,-207.86C231.99,-197.9 207.13,-185.64 186.65,-175.55"/>
<polygon fill="midnightblue" stroke="midnightblue" points="250.89,-211.12 261.41,-212.4 253.98,-204.84 250.89,-211.12"/>
</g>
<!-- Node3 -->
<g id="node3" class="node">
<title>Node3</title>
<g id="a_node3"><a xlink:href="_m_l_c_l___list_8h.html" target="_top" xlink:title=" ">
<polygon fill="none" stroke="black" points="236.5,-140 236.5,-170 343.5,-170 343.5,-140 236.5,-140"/>
<text text-anchor="start" x="244.5" y="-158" font-family="Helvetica,sans-Serif" font-size="10.00">include/Lists/MLCL</text>
<text text-anchor="middle" x="290" y="-147" font-family="Helvetica,sans-Serif" font-size="10.00">_List.h</text>
</a>
</g>
</g>
<!-- Node1&#45;&gt;Node3 -->
<g id="edge2" class="edge">
<title>Node1&#45;&gt;Node3</title>
<path fill="none" stroke="midnightblue" d="M290,-202.23C290,-191.57 290,-179.41 290,-170.25"/>
<polygon fill="midnightblue" stroke="midnightblue" points="286.5,-202.23 290,-212.23 293.5,-202.23 286.5,-202.23"/>
</g>
<!-- Node12 -->
<g id="node12" class="node">
<title>Node12</title>
<g id="a_node12"><a xlink:href="_m_l_c_l___circular_double_linked_list_8c.html" target="_top" xlink:title=" ">
<polygon fill="none" stroke="black" points="361.5,-140 361.5,-170 524.5,-170 524.5,-140 361.5,-140"/>
<text text-anchor="start" x="369.5" y="-158" font-family="Helvetica,sans-Serif" font-size="10.00">src/Lists/MLCL_CircularDouble</text>
<text text-anchor="middle" x="443" y="-147" font-family="Helvetica,sans-Serif" font-size="10.00">LinkedList.c</text>
</a>
</g>
</g>
<!-- Node1&#45;&gt;Node12 -->
<g id="edge11" class="edge">
<title>Node1&#45;&gt;Node12</title>
<path fill="none" stroke="midnightblue" d="M329.74,-208.19C355.56,-196.29 388.71,-181.02 412.46,-170.07"/>
<polygon fill="midnightblue" stroke="midnightblue" points="328.21,-205.04 320.59,-212.4 331.14,-211.4 328.21,-205.04"/>
</g>
<!-- Node4 -->
<g id="node4" class="node">
<title>Node4</title>
<g id="a_node4"><a xlink:href="_m_l_c_l___list__test_8c.html" target="_top" xlink:title=" ">
<polygon fill="none" stroke="black" points="24.5,-67.5 24.5,-97.5 143.5,-97.5 143.5,-67.5 24.5,-67.5"/>
<text text-anchor="start" x="32.5" y="-85.5" font-family="Helvetica,sans-Serif" font-size="10.00">src/_Tests/Lists/MLCL</text>
<text text-anchor="middle" x="84" y="-74.5" font-family="Helvetica,sans-Serif" font-size="10.00">_List_test.c</text>
</a>
</g>
</g>
<!-- Node3&#45;&gt;Node4 -->
<g id="edge3" class="edge">
<title>Node3&#45;&gt;Node4</title>
<path fill="none" stroke="midnightblue" d="M239.21,-136.62C204.09,-124.6 157.94,-108.81 125.12,-97.57"/>
<polygon fill="midnightblue" stroke="midnightblue" points="238.21,-139.98 248.81,-139.9 240.48,-133.35 238.21,-139.98"/>
</g>
<!-- Node5 -->
<g id="node5" class="node">
<title>Node5</title>
<g id="a_node5"><a xlink:href="_m_l_c_l___queue_8h.html" target="_top" xlink:title=" ">
<polygon fill="none" stroke="black" points="162,-67.5 162,-97.5 278,-97.5 278,-67.5 162,-67.5"/>
<text text-anchor="start" x="170" y="-85.5" font-family="Helvetica,sans-Serif" font-size="10.00">include/Queue/MLCL</text>
<text text-anchor="middle" x="220" y="-74.5" font-family="Helvetica,sans-Serif" font-size="10.00">_Queue.h</text>
</a>
</g>
</g>
<!-- Node3&#45;&gt;Node5 -->
<g id="edge4" class="edge">
<title>Node3&#45;&gt;Node5</title>
<path fill="none" stroke="midnightblue" d="M268.52,-132.36C257.35,-121.11 244.01,-107.68 234.14,-97.75"/>
<polygon fill="midnightblue" stroke="midnightblue" points="266.3,-135.1 275.83,-139.73 271.27,-130.17 266.3,-135.1"/>
</g>
<!-- Node8 -->
<g id="node8" class="node">
<title>Node8</title>
<g id="a_node8"><a xlink:href="_m_l_c_l___stack_8h.html" target="_top" xlink:title=" ">
<polygon fill="none" stroke="black" points="305.5,-67.5 305.5,-97.5 416.5,-97.5 416.5,-67.5 305.5,-67.5"/>
<text text-anchor="start" x="313.5" y="-85.5" font-family="Helvetica,sans-Serif" font-size="10.00">include/Stack/MLCL</text>
<text text-anchor="middle" x="361" y="-74.5" font-family="Helvetica,sans-Serif" font-size="10.00">_Stack.h</text>
</a>
</g>
</g>
<!-- Node3&#45;&gt;Node8 -->
<g id="edge7" class="edge">
<title>Node3&#45;&gt;Node8</title>
<path fill="none" stroke="midnightblue" d="M311.79,-132.36C323.12,-121.11 336.65,-107.68 346.65,-97.75"/>
<polygon fill="midnightblue" stroke="midnightblue" points="309,-130.2 304.37,-139.73 313.93,-135.17 309,-130.2"/>
</g>
<!-- Node11 -->
<g id="node11" class="node">
<title>Node11</title>
<g id="a_node11"><a xlink:href="_m_l_c_l___list_8c.html" target="_top" xlink:title=" ">
<polygon fill="none" stroke="black" points="435,-73 435,-92 551,-92 551,-73 435,-73"/>
<text text-anchor="middle" x="493" y="-80" font-family="Helvetica,sans-Serif" font-size="10.00">src/Lists/MLCL_List.c</text>
</a>
</g>
</g>
<!-- Node3&#45;&gt;Node11 -->
<g id="edge10" class="edge">
<title>Node3&#45;&gt;Node11</title>
<path fill="none" stroke="midnightblue" d="M340.09,-136.6C380.89,-122.43 436.75,-103.04 468.43,-92.03"/>
<polygon fill="midnightblue" stroke="midnightblue" points="338.89,-133.32 330.59,-139.9 341.19,-139.93 338.89,-133.32"/>
</g>
<!-- Node6 -->
<g id="node6" class="node">
<title>Node6</title>
<g id="a_node6"><a xlink:href="_m_l_c_l___queue__test_8c.html" target="_top" xlink:title=" ">
<polygon fill="none" stroke="black" points="0,-0.5 0,-30.5 128,-30.5 128,-0.5 0,-0.5"/>
<text text-anchor="start" x="8" y="-18.5" font-family="Helvetica,sans-Serif" font-size="10.00">src/_Tests/Queue/MLCL</text>
<text text-anchor="middle" x="64" y="-7.5" font-family="Helvetica,sans-Serif" font-size="10.00">_Queue_test.c</text>
</a>
</g>
</g>
<!-- Node5&#45;&gt;Node6 -->
<g id="edge5" class="edge">
<title>Node5&#45;&gt;Node6</title>
<path fill="none" stroke="midnightblue" d="M176.91,-63.54C151.94,-53.14 120.97,-40.24 97.78,-30.58"/>
<polygon fill="midnightblue" stroke="midnightblue" points="175.57,-66.78 186.15,-67.4 178.27,-60.32 175.57,-66.78"/>
</g>
<!-- Node7 -->
<g id="node7" class="node">
<title>Node7</title>
<g id="a_node7"><a xlink:href="_m_l_c_l___queue_8c.html" target="_top" xlink:title=" ">
<polygon fill="none" stroke="black" points="146,-6 146,-25 286,-25 286,-6 146,-6"/>
<text text-anchor="middle" x="216" y="-13" font-family="Helvetica,sans-Serif" font-size="10.00">src/Queue/MLCL_Queue.c</text>
</a>
</g>
</g>
<!-- Node5&#45;&gt;Node7 -->
<g id="edge6" class="edge">
<title>Node5&#45;&gt;Node7</title>
<path fill="none" stroke="midnightblue" d="M218.51,-57.25C217.82,-46.02 217.04,-33.38 216.54,-25.19"/>
<polygon fill="midnightblue" stroke="midnightblue" points="215.02,-57.63 219.13,-67.4 222.01,-57.2 215.02,-57.63"/>
</g>
<!-- Node9 -->
<g id="node9" class="node">
<title>Node9</title>
<g id="a_node9"><a xlink:href="_m_l_c_l___stack__test_8c.html" target="_top" xlink:title=" ">
<polygon fill="none" stroke="black" points="304.5,-0.5 304.5,-30.5 427.5,-30.5 427.5,-0.5 304.5,-0.5"/>
<text text-anchor="start" x="312.5" y="-18.5" font-family="Helvetica,sans-Serif" font-size="10.00">src/_Tests/Stack/MLCL</text>
<text text-anchor="middle" x="366" y="-7.5" font-family="Helvetica,sans-Serif" font-size="10.00">_Stack_test.c</text>
</a>
</g>
</g>
<!-- Node8&#45;&gt;Node9 -->
<g id="edge8" class="edge">
<title>Node8&#45;&gt;Node9</title>
<path fill="none" stroke="midnightblue" d="M362.85,-57.4C363.55,-48.37 364.31,-38.41 364.92,-30.58"/>
<polygon fill="midnightblue" stroke="midnightblue" points="359.36,-57.16 362.08,-67.4 366.34,-57.69 359.36,-57.16"/>
</g>
<!-- Node10 -->
<g id="node10" class="node">
<title>Node10</title>
<g id="a_node10"><a xlink:href="_m_l_c_l___stack_8c.html" target="_top" xlink:title=" ">
<polygon fill="none" stroke="black" points="445.5,-6 445.5,-25 576.5,-25 576.5,-6 445.5,-6"/>
<text text-anchor="middle" x="511" y="-13" font-family="Helvetica,sans-Serif" font-size="10.00">src/Stack/MLCL_Stack.c</text>
</a>
</g>
</g>
<!-- Node8&#45;&gt;Node10 -->
<g id="edge9" class="edge">
<title>Node8&#45;&gt;Node10</title>
<path fill="none" stroke="midnightblue" d="M403.01,-63.3C431.94,-50.76 469.04,-34.68 491.37,-25.01"/>
<polygon fill="midnightblue" stroke="midnightblue" points="401.33,-60.21 393.55,-67.4 404.11,-66.63 401.33,-60.21"/>
</g>
</g>
</svg>
