<?xml version="1.0" encoding="UTF-8" standalone="no"?>
<!DOCTYPE svg PUBLIC "-//W3C//DTD SVG 1.1//EN"
 "http://www.w3.org/Graphics/SVG/1.1/DTD/svg11.dtd">
<!-- Generated by graphviz version 2.43.0 (0)
 -->
<!-- Title: include/MLCL_TypeDescriptor.h Pages: 1 -->
<svg width="2810pt" height="385pt"
 viewBox="0.00 0.00 2810.12 385.00" xmlns="http://www.w3.org/2000/svg" xmlns:xlink="http://www.w3.org/1999/xlink">
<g id="graph0" class="graph" transform="scale(1 1) rotate(0) translate(4 381)">
<title>include/MLCL_TypeDescriptor.h</title>
<!-- Node1 -->
<g id="node1" class="node">
<title>Node1</title>
<g id="a_node1"><a xlink:title=" ">
<polygon fill="#bfbfbf" stroke="black" points="1933.62,-357.5 1933.62,-376.5 2100.62,-376.5 2100.62,-357.5 1933.62,-357.5"/>
<text text-anchor="middle" x="2017.12" y="-364.5" font-family="Helvetica,sans-Serif" font-size="10.00">include/MLCL_TypeDescriptor.h</text>
</a>
</g>
</g>
<!-- Node2 -->
<g id="node2" class="node">
<title>Node2</title>
<g id="a_node2"><a xlink:href="_m_l_c_l___binary_heap__test_8c.html" target="_top" xlink:title=" ">
<polygon fill="none" stroke="black" points="212.12,-67.5 212.12,-97.5 334.12,-97.5 334.12,-67.5 212.12,-67.5"/>
<text text-anchor="start" x="220.12" y="-85.5" font-family="Helvetica,sans-Serif" font-size="10.00">src/_Tests/Heap/MLCL</text>
<text text-anchor="middle" x="273.12" y="-74.5" font-family="Helvetica,sans-Serif" font-size="10.00">_BinaryHeap_test.c</text>
</a>
</g>
</g>
<!-- Node1&#45;&gt;Node2 -->
<g id="edge1" class="edge">
<title>Node1&#45;&gt;Node2</title>
<path fill="none" stroke="midnightblue" d="M1923.34,-365.79C1619.54,-364.74 664.41,-358.45 358.12,-321 220.36,-304.15 161.73,-340.41 53.12,-254 9.45,-219.25 -19.33,-177.1 16.12,-134 40.46,-104.41 144.1,-91.9 212.1,-86.8"/>
<polygon fill="midnightblue" stroke="midnightblue" points="1923.43,-369.29 1933.44,-365.82 1923.45,-362.29 1923.43,-369.29"/>
</g>
<!-- Node3 -->
<g id="node3" class="node">
<title>Node3</title>
<g id="a_node3"><a xlink:href="_m_l_c_l__basic__types_8h.html" target="_top" xlink:title=" ">
<polygon fill="none" stroke="black" points="944.12,-218 944.12,-248 1056.12,-248 1056.12,-218 944.12,-218"/>
<text text-anchor="start" x="952.12" y="-236" font-family="Helvetica,sans-Serif" font-size="10.00">include/MLCL_basic</text>
<text text-anchor="middle" x="1000.12" y="-225" font-family="Helvetica,sans-Serif" font-size="10.00">_types.h</text>
</a>
</g>
</g>
<!-- Node1&#45;&gt;Node3 -->
<g id="edge2" class="edge">
<title>Node1&#45;&gt;Node3</title>
<path fill="none" stroke="midnightblue" d="M1923.27,-360.89C1815.67,-354.41 1634.17,-341.52 1479.12,-321 1325.16,-300.63 1145.44,-264.68 1056.25,-246.01"/>
<polygon fill="midnightblue" stroke="midnightblue" points="1923.25,-364.4 1933.45,-361.5 1923.67,-357.41 1923.25,-364.4"/>
</g>
<!-- Node13 -->
<g id="node13" class="node">
<title>Node13</title>
<g id="a_node13"><a xlink:href="_m_l_c_l___a_v_l_tree__test_8c.html" target="_top" xlink:title=" ">
<polygon fill="none" stroke="black" points="2320.12,-140 2320.12,-170 2442.12,-170 2442.12,-140 2320.12,-140"/>
<text text-anchor="start" x="2328.12" y="-158" font-family="Helvetica,sans-Serif" font-size="10.00">src/_Tests/Trees/MLCL</text>
<text text-anchor="middle" x="2381.12" y="-147" font-family="Helvetica,sans-Serif" font-size="10.00">_AVLTree_test.c</text>
</a>
</g>
</g>
<!-- Node1&#45;&gt;Node13 -->
<g id="edge55" class="edge">
<title>Node1&#45;&gt;Node13</title>
<path fill="none" stroke="midnightblue" d="M2047.27,-353.55C2091.29,-334.78 2175.02,-296.85 2240.12,-254 2264.36,-238.05 2266.59,-228.98 2290.12,-212 2311.63,-196.48 2337.51,-180.82 2356.16,-170.03"/>
<polygon fill="midnightblue" stroke="midnightblue" points="2045.83,-350.36 2037.98,-357.47 2048.56,-356.8 2045.83,-350.36"/>
</g>
<!-- Node17 -->
<g id="node17" class="node">
<title>Node17</title>
<g id="a_node17"><a xlink:href="_m_l_c_l___array_list_8h.html" target="_top" xlink:title=" ">
<polygon fill="none" stroke="black" points="367.62,-290.5 367.62,-320.5 474.62,-320.5 474.62,-290.5 367.62,-290.5"/>
<text text-anchor="start" x="375.62" y="-308.5" font-family="Helvetica,sans-Serif" font-size="10.00">include/Lists/MLCL</text>
<text text-anchor="middle" x="421.12" y="-297.5" font-family="Helvetica,sans-Serif" font-size="10.00">_ArrayList.h</text>
</a>
</g>
</g>
<!-- Node1&#45;&gt;Node17 -->
<g id="edge17" class="edge">
<title>Node1&#45;&gt;Node17</title>
<path fill="none" stroke="midnightblue" d="M1923.23,-362.5C1625.31,-351.39 707.31,-317.17 474.99,-308.51"/>
<polygon fill="midnightblue" stroke="midnightblue" points="1923.44,-366.01 1933.56,-362.88 1923.7,-359.01 1923.44,-366.01"/>
</g>
<!-- Node23 -->
<g id="node23" class="node">
<title>Node23</title>
<g id="a_node23"><a xlink:href="_m_l_c_l___ternary_search_tree_8h.html" target="_top" xlink:title=" ">
<polygon fill="none" stroke="black" points="2307.12,-67.5 2307.12,-97.5 2427.12,-97.5 2427.12,-67.5 2307.12,-67.5"/>
<text text-anchor="start" x="2315.12" y="-85.5" font-family="Helvetica,sans-Serif" font-size="10.00">include/Trees/MLCL</text>
<text text-anchor="middle" x="2367.12" y="-74.5" font-family="Helvetica,sans-Serif" font-size="10.00">_TernarySearchTree.h</text>
</a>
</g>
</g>
<!-- Node1&#45;&gt;Node23 -->
<g id="edge56" class="edge">
<title>Node1&#45;&gt;Node23</title>
<path fill="none" stroke="midnightblue" d="M2111.21,-361.9C2258.93,-353.25 2534.6,-327.46 2594.12,-254 2627.96,-212.24 2643.02,-175.71 2609.12,-134 2586.62,-106.32 2491.28,-93.29 2427.2,-87.56"/>
<polygon fill="midnightblue" stroke="midnightblue" points="2110.59,-358.43 2100.8,-362.49 2110.99,-365.42 2110.59,-358.43"/>
</g>
<!-- Node32 -->
<g id="node32" class="node">
<title>Node32</title>
<g id="a_node32"><a xlink:href="_m_l_c_l___double_linked_list_8h.html" target="_top" xlink:title=" ">
<polygon fill="none" stroke="black" points="1488.12,-290.5 1488.12,-320.5 1602.12,-320.5 1602.12,-290.5 1488.12,-290.5"/>
<text text-anchor="start" x="1496.12" y="-308.5" font-family="Helvetica,sans-Serif" font-size="10.00">include/Lists/MLCL</text>
<text text-anchor="middle" x="1545.12" y="-297.5" font-family="Helvetica,sans-Serif" font-size="10.00">_DoubleLinkedList.h</text>
</a>
</g>
</g>
<!-- Node1&#45;&gt;Node32 -->
<g id="edge38" class="edge">
<title>Node1&#45;&gt;Node32</title>
<path fill="none" stroke="midnightblue" d="M1939.39,-356.2C1844.59,-344.25 1686.58,-324.33 1602.25,-313.7"/>
<polygon fill="midnightblue" stroke="midnightblue" points="1939.14,-359.7 1949.5,-357.48 1940.01,-352.75 1939.14,-359.7"/>
</g>
<!-- Node36 -->
<g id="node36" class="node">
<title>Node36</title>
<g id="a_node36"><a xlink:href="_m_l_c_l___linked_list_8h.html" target="_top" xlink:title=" ">
<polygon fill="none" stroke="black" points="1963.62,-290.5 1963.62,-320.5 2070.62,-320.5 2070.62,-290.5 1963.62,-290.5"/>
<text text-anchor="start" x="1971.62" y="-308.5" font-family="Helvetica,sans-Serif" font-size="10.00">include/Lists/MLCL</text>
<text text-anchor="middle" x="2017.12" y="-297.5" font-family="Helvetica,sans-Serif" font-size="10.00">_LinkedList.h</text>
</a>
</g>
</g>
<!-- Node1&#45;&gt;Node36 -->
<g id="edge47" class="edge">
<title>Node1&#45;&gt;Node36</title>
<path fill="none" stroke="midnightblue" d="M2017.12,-347.23C2017.12,-338.59 2017.12,-328.5 2017.12,-320.52"/>
<polygon fill="midnightblue" stroke="midnightblue" points="2013.62,-347.48 2017.12,-357.48 2020.62,-347.48 2013.62,-347.48"/>
</g>
<!-- Node40 -->
<g id="node40" class="node">
<title>Node40</title>
<g id="a_node40"><a xlink:href="_m_l_c_l___type_descriptor_8c.html" target="_top" xlink:title=" ">
<polygon fill="none" stroke="black" points="2656.12,-296 2656.12,-315 2802.12,-315 2802.12,-296 2656.12,-296"/>
<text text-anchor="middle" x="2729.12" y="-303" font-family="Helvetica,sans-Serif" font-size="10.00">src/MLCL_TypeDescriptor.c</text>
</a>
</g>
</g>
<!-- Node1&#45;&gt;Node40 -->
<g id="edge57" class="edge">
<title>Node1&#45;&gt;Node40</title>
<path fill="none" stroke="midnightblue" d="M2110.85,-361.98C2233.32,-356.11 2454.31,-343.36 2642.12,-321 2655.35,-319.42 2669.63,-317.25 2682.73,-315.05"/>
<polygon fill="midnightblue" stroke="midnightblue" points="2110.58,-358.49 2100.76,-362.46 2110.91,-365.48 2110.58,-358.49"/>
</g>
<!-- Node41 -->
<g id="node41" class="node">
<title>Node41</title>
<g id="a_node41"><a xlink:href="_m_l_c_l___binary_search_tree_8h.html" target="_top" xlink:title=" ">
<polygon fill="none" stroke="black" points="2310.12,-290.5 2310.12,-320.5 2426.12,-320.5 2426.12,-290.5 2310.12,-290.5"/>
<text text-anchor="start" x="2318.12" y="-308.5" font-family="Helvetica,sans-Serif" font-size="10.00">include/Trees/MLCL</text>
<text text-anchor="middle" x="2368.12" y="-297.5" font-family="Helvetica,sans-Serif" font-size="10.00">_BinarySearchTree.h</text>
</a>
</g>
</g>
<!-- Node1&#45;&gt;Node41 -->
<g id="edge58" class="edge">
<title>Node1&#45;&gt;Node41</title>
<path fill="none" stroke="midnightblue" d="M2078.67,-355.78C2133.01,-346.74 2214.35,-333.12 2285.12,-321 2293.2,-319.62 2301.71,-318.15 2310.08,-316.69"/>
<polygon fill="midnightblue" stroke="midnightblue" points="2077.81,-352.38 2068.52,-357.47 2078.95,-359.28 2077.81,-352.38"/>
</g>
<!-- Node3&#45;&gt;Node2 -->
<g id="edge3" class="edge">
<title>Node3&#45;&gt;Node2</title>
<path fill="none" stroke="midnightblue" d="M933.7,-229.19C822.15,-223.62 602.59,-208.77 533.12,-176 508.67,-164.47 512.9,-146.86 489.12,-134 475.47,-126.61 393.32,-108.5 334.37,-96.1"/>
<polygon fill="midnightblue" stroke="midnightblue" points="933.66,-232.69 943.82,-229.68 934,-225.7 933.66,-232.69"/>
</g>
<!-- Node4 -->
<g id="node4" class="node">
<title>Node4</title>
<g id="a_node4"><a xlink:href="_m_l_c_l___array_list__test_8c.html" target="_top" xlink:title=" ">
<polygon fill="none" stroke="black" points="361.62,-140 361.62,-170 480.62,-170 480.62,-140 361.62,-140"/>
<text text-anchor="start" x="369.62" y="-158" font-family="Helvetica,sans-Serif" font-size="10.00">src/_Tests/Lists/MLCL</text>
<text text-anchor="middle" x="421.12" y="-147" font-family="Helvetica,sans-Serif" font-size="10.00">_ArrayList_test.c</text>
</a>
</g>
</g>
<!-- Node3&#45;&gt;Node4 -->
<g id="edge4" class="edge">
<title>Node3&#45;&gt;Node4</title>
<path fill="none" stroke="midnightblue" d="M933.79,-227.9C836.8,-221.18 650.87,-205.5 495.12,-176 486.62,-174.39 477.67,-172.31 469.04,-170.1"/>
<polygon fill="midnightblue" stroke="midnightblue" points="933.82,-231.41 944.03,-228.6 934.3,-224.43 933.82,-231.41"/>
</g>
<!-- Node5 -->
<g id="node5" class="node">
<title>Node5</title>
<g id="a_node5"><a xlink:href="_m_l_c_l___circular_double_linked_list__test_8c.html" target="_top" xlink:title=" ">
<polygon fill="none" stroke="black" points="1320.62,-134.5 1320.62,-175.5 1463.62,-175.5 1463.62,-134.5 1320.62,-134.5"/>
<text text-anchor="start" x="1328.62" y="-163.5" font-family="Helvetica,sans-Serif" font-size="10.00">src/_Tests/Lists/MLCL</text>
<text text-anchor="start" x="1328.62" y="-152.5" font-family="Helvetica,sans-Serif" font-size="10.00">_CircularDoubleLinkedList</text>
<text text-anchor="middle" x="1392.12" y="-141.5" font-family="Helvetica,sans-Serif" font-size="10.00">_test.c</text>
</a>
</g>
</g>
<!-- Node3&#45;&gt;Node5 -->
<g id="edge5" class="edge">
<title>Node3&#45;&gt;Node5</title>
<path fill="none" stroke="midnightblue" d="M1066.39,-221.44C1129.72,-211.03 1227.76,-194.09 1312.12,-176 1314.78,-175.43 1317.49,-174.83 1320.22,-174.22"/>
<polygon fill="midnightblue" stroke="midnightblue" points="1065.44,-218.04 1056.14,-223.11 1066.57,-224.95 1065.44,-218.04"/>
</g>
<!-- Node6 -->
<g id="node6" class="node">
<title>Node6</title>
<g id="a_node6"><a xlink:href="_m_l_c_l___circular_linked_list__test_8c.html" target="_top" xlink:title=" ">
<polygon fill="none" stroke="black" points="1820.12,-140 1820.12,-170 1960.12,-170 1960.12,-140 1820.12,-140"/>
<text text-anchor="start" x="1828.12" y="-158" font-family="Helvetica,sans-Serif" font-size="10.00">src/_Tests/Lists/MLCL</text>
<text text-anchor="middle" x="1890.12" y="-147" font-family="Helvetica,sans-Serif" font-size="10.00">_CircularLinkedList_test.c</text>
</a>
</g>
</g>
<!-- Node3&#45;&gt;Node6 -->
<g id="edge6" class="edge">
<title>Node3&#45;&gt;Node6</title>
<path fill="none" stroke="midnightblue" d="M1066.34,-226.69C1118.88,-222.54 1194.18,-216.69 1260.12,-212 1504.91,-194.59 1568.71,-214.27 1811.12,-176 1820.62,-174.5 1830.65,-172.39 1840.26,-170.09"/>
<polygon fill="midnightblue" stroke="midnightblue" points="1065.84,-223.22 1056.15,-227.5 1066.4,-230.2 1065.84,-223.22"/>
</g>
<!-- Node7 -->
<g id="node7" class="node">
<title>Node7</title>
<g id="a_node7"><a xlink:href="_m_l_c_l___double_linked_list__test_8c.html" target="_top" xlink:title=" ">
<polygon fill="none" stroke="black" points="1028.62,-140 1028.62,-170 1165.62,-170 1165.62,-140 1028.62,-140"/>
<text text-anchor="start" x="1036.62" y="-158" font-family="Helvetica,sans-Serif" font-size="10.00">src/_Tests/Lists/MLCL</text>
<text text-anchor="middle" x="1097.12" y="-147" font-family="Helvetica,sans-Serif" font-size="10.00">_DoubleLinkedList_test.c</text>
</a>
</g>
</g>
<!-- Node3&#45;&gt;Node7 -->
<g id="edge7" class="edge">
<title>Node3&#45;&gt;Node7</title>
<path fill="none" stroke="midnightblue" d="M1026.6,-211.25C1043.22,-198.23 1064.21,-181.78 1078.96,-170.23"/>
<polygon fill="midnightblue" stroke="midnightblue" points="1024.08,-208.78 1018.37,-217.7 1028.4,-214.29 1024.08,-208.78"/>
</g>
<!-- Node8 -->
<g id="node8" class="node">
<title>Node8</title>
<g id="a_node8"><a xlink:href="_m_l_c_l___linked_list__test_8c.html" target="_top" xlink:title=" ">
<polygon fill="none" stroke="black" points="1183.62,-140 1183.62,-170 1302.62,-170 1302.62,-140 1183.62,-140"/>
<text text-anchor="start" x="1191.62" y="-158" font-family="Helvetica,sans-Serif" font-size="10.00">src/_Tests/Lists/MLCL</text>
<text text-anchor="middle" x="1243.12" y="-147" font-family="Helvetica,sans-Serif" font-size="10.00">_LinkedList_test.c</text>
</a>
</g>
</g>
<!-- Node3&#45;&gt;Node8 -->
<g id="edge8" class="edge">
<title>Node3&#45;&gt;Node8</title>
<path fill="none" stroke="midnightblue" d="M1054.76,-214.91C1097.99,-201.39 1157.61,-182.74 1198.12,-170.07"/>
<polygon fill="midnightblue" stroke="midnightblue" points="1053.47,-211.65 1044.97,-217.97 1055.56,-218.33 1053.47,-211.65"/>
</g>
<!-- Node9 -->
<g id="node9" class="node">
<title>Node9</title>
<g id="a_node9"><a xlink:href="_m_l_c_l___list__test_8c.html" target="_top" xlink:title=" ">
<polygon fill="none" stroke="black" points="685.62,-67.5 685.62,-97.5 804.62,-97.5 804.62,-67.5 685.62,-67.5"/>
<text text-anchor="start" x="693.62" y="-85.5" font-family="Helvetica,sans-Serif" font-size="10.00">src/_Tests/Lists/MLCL</text>
<text text-anchor="middle" x="745.12" y="-74.5" font-family="Helvetica,sans-Serif" font-size="10.00">_List_test.c</text>
</a>
</g>
</g>
<!-- Node3&#45;&gt;Node9 -->
<g id="edge9" class="edge">
<title>Node3&#45;&gt;Node9</title>
<path fill="none" stroke="midnightblue" d="M979.93,-210.3C954.48,-183.13 912.98,-139.45 904.12,-134 886.24,-123 837.6,-108.26 798.79,-97.54"/>
<polygon fill="midnightblue" stroke="midnightblue" points="977.56,-212.89 986.95,-217.81 982.68,-208.11 977.56,-212.89"/>
</g>
<!-- Node10 -->
<g id="node10" class="node">
<title>Node10</title>
<g id="a_node10"><a xlink:href="_m_l_c_l___type_descriptor__test_8c.html" target="_top" xlink:title=" ">
<polygon fill="none" stroke="black" points="575.62,-140 575.62,-170 746.62,-170 746.62,-140 575.62,-140"/>
<text text-anchor="start" x="583.62" y="-158" font-family="Helvetica,sans-Serif" font-size="10.00">src/_Tests/MLCL_TypeDescriptor</text>
<text text-anchor="middle" x="661.12" y="-147" font-family="Helvetica,sans-Serif" font-size="10.00">_test.c</text>
</a>
</g>
</g>
<!-- Node3&#45;&gt;Node10 -->
<g id="edge10" class="edge">
<title>Node3&#45;&gt;Node10</title>
<path fill="none" stroke="midnightblue" d="M933.87,-217.15C872.97,-203.49 783.35,-183.4 723.66,-170.02"/>
<polygon fill="midnightblue" stroke="midnightblue" points="933.24,-220.59 943.76,-219.36 934.77,-213.76 933.24,-220.59"/>
</g>
<!-- Node11 -->
<g id="node11" class="node">
<title>Node11</title>
<g id="a_node11"><a xlink:href="_m_l_c_l___queue__test_8c.html" target="_top" xlink:title=" ">
<polygon fill="none" stroke="black" points="1497.12,-0.5 1497.12,-30.5 1625.12,-30.5 1625.12,-0.5 1497.12,-0.5"/>
<text text-anchor="start" x="1505.12" y="-18.5" font-family="Helvetica,sans-Serif" font-size="10.00">src/_Tests/Queue/MLCL</text>
<text text-anchor="middle" x="1561.12" y="-7.5" font-family="Helvetica,sans-Serif" font-size="10.00">_Queue_test.c</text>
</a>
</g>
</g>
<!-- Node3&#45;&gt;Node11 -->
<g id="edge11" class="edge">
<title>Node3&#45;&gt;Node11</title>
<path fill="none" stroke="midnightblue" d="M988.64,-208.76C972.96,-173.3 950.62,-105.75 986.12,-67 1020.09,-29.91 1354.37,-19.94 1497.08,-17.36"/>
<polygon fill="midnightblue" stroke="midnightblue" points="985.47,-210.24 992.83,-217.85 991.82,-207.31 985.47,-210.24"/>
</g>
<!-- Node12 -->
<g id="node12" class="node">
<title>Node12</title>
<g id="a_node12"><a xlink:href="_m_l_c_l___stack__test_8c.html" target="_top" xlink:title=" ">
<polygon fill="none" stroke="black" points="578.62,-0.5 578.62,-30.5 701.62,-30.5 701.62,-0.5 578.62,-0.5"/>
<text text-anchor="start" x="586.62" y="-18.5" font-family="Helvetica,sans-Serif" font-size="10.00">src/_Tests/Stack/MLCL</text>
<text text-anchor="middle" x="640.12" y="-7.5" font-family="Helvetica,sans-Serif" font-size="10.00">_Stack_test.c</text>
</a>
</g>
</g>
<!-- Node3&#45;&gt;Node12 -->
<g id="edge12" class="edge">
<title>Node3&#45;&gt;Node12</title>
<path fill="none" stroke="midnightblue" d="M933.68,-228.19C818.09,-220.87 589.98,-203.14 566.12,-176 526.41,-130.84 591.64,-60.73 623.81,-30.81"/>
<polygon fill="midnightblue" stroke="midnightblue" points="933.63,-231.69 943.83,-228.82 934.06,-224.7 933.63,-231.69"/>
</g>
<!-- Node3&#45;&gt;Node13 -->
<g id="edge13" class="edge">
<title>Node3&#45;&gt;Node13</title>
<path fill="none" stroke="midnightblue" d="M1066.56,-226.11C1119.07,-221.64 1194.22,-215.66 1260.12,-212 1493.45,-199.04 2080.28,-212.37 2311.12,-176 2319.99,-174.6 2329.32,-172.44 2338.18,-170.05"/>
<polygon fill="midnightblue" stroke="midnightblue" points="1066.04,-222.64 1056.37,-226.98 1066.63,-229.61 1066.04,-222.64"/>
</g>
<!-- Node14 -->
<g id="node14" class="node">
<title>Node14</title>
<g id="a_node14"><a xlink:href="_m_l_c_l___binary_search_tree__test_8c.html" target="_top" xlink:title=" ">
<polygon fill="none" stroke="black" points="1662.62,-140 1662.62,-170 1801.62,-170 1801.62,-140 1662.62,-140"/>
<text text-anchor="start" x="1670.62" y="-158" font-family="Helvetica,sans-Serif" font-size="10.00">src/_Tests/Trees/MLCL</text>
<text text-anchor="middle" x="1732.12" y="-147" font-family="Helvetica,sans-Serif" font-size="10.00">_BinarySearchTree_test.c</text>
</a>
</g>
</g>
<!-- Node3&#45;&gt;Node14 -->
<g id="edge14" class="edge">
<title>Node3&#45;&gt;Node14</title>
<path fill="none" stroke="midnightblue" d="M1066.48,-226.95C1221.24,-215.07 1597.25,-185.66 1654.12,-176 1663.36,-174.43 1673.1,-172.31 1682.45,-170.04"/>
<polygon fill="midnightblue" stroke="midnightblue" points="1065.87,-223.48 1056.17,-227.74 1066.41,-230.46 1065.87,-223.48"/>
</g>
<!-- Node15 -->
<g id="node15" class="node">
<title>Node15</title>
<g id="a_node15"><a xlink:href="_m_l_c_l__basic__types_8c.html" target="_top" xlink:title=" ">
<polygon fill="none" stroke="black" points="764.62,-145.5 764.62,-164.5 895.62,-164.5 895.62,-145.5 764.62,-145.5"/>
<text text-anchor="middle" x="830.12" y="-152.5" font-family="Helvetica,sans-Serif" font-size="10.00">src/MLCL_basic_types.c</text>
</a>
</g>
</g>
<!-- Node3&#45;&gt;Node15 -->
<g id="edge15" class="edge">
<title>Node3&#45;&gt;Node15</title>
<path fill="none" stroke="midnightblue" d="M959.11,-213.67C924.3,-198.1 875.88,-176.46 849.37,-164.61"/>
<polygon fill="midnightblue" stroke="midnightblue" points="957.99,-217 968.54,-217.88 960.84,-210.61 957.99,-217"/>
</g>
<!-- Node16 -->
<g id="node16" class="node">
<title>Node16</title>
<g id="a_node16"><a xlink:href="_m_l_c_l___ternary_search_tree_8c.html" target="_top" xlink:title=" ">
<polygon fill="none" stroke="black" points="2165.62,-0.5 2165.62,-30.5 2328.62,-30.5 2328.62,-0.5 2165.62,-0.5"/>
<text text-anchor="start" x="2173.62" y="-18.5" font-family="Helvetica,sans-Serif" font-size="10.00">src/Trees/MLCL_TernarySearch</text>
<text text-anchor="middle" x="2247.12" y="-7.5" font-family="Helvetica,sans-Serif" font-size="10.00">Tree.c</text>
</a>
</g>
</g>
<!-- Node3&#45;&gt;Node16 -->
<g id="edge16" class="edge">
<title>Node3&#45;&gt;Node16</title>
<path fill="none" stroke="midnightblue" d="M997.4,-207.67C996.35,-185.08 998.9,-152.27 1019.12,-134 1113.24,-48.95 2030.25,-46.71 2156.12,-31 2159.14,-30.62 2162.21,-30.22 2165.31,-29.8"/>
<polygon fill="midnightblue" stroke="midnightblue" points="993.92,-208.11 998.13,-217.83 1000.9,-207.6 993.92,-208.11"/>
</g>
<!-- Node17&#45;&gt;Node4 -->
<g id="edge18" class="edge">
<title>Node17&#45;&gt;Node4</title>
<path fill="none" stroke="midnightblue" d="M421.12,-280.22C421.12,-249.03 421.12,-195.87 421.12,-170.41"/>
<polygon fill="midnightblue" stroke="midnightblue" points="417.62,-280.26 421.12,-290.26 424.62,-280.26 417.62,-280.26"/>
</g>
<!-- Node18 -->
<g id="node18" class="node">
<title>Node18</title>
<g id="a_node18"><a xlink:href="_m_l_c_l___list_8h.html" target="_top" xlink:title=" ">
<polygon fill="none" stroke="black" points="2194.62,-140 2194.62,-170 2301.62,-170 2301.62,-140 2194.62,-140"/>
<text text-anchor="start" x="2202.62" y="-158" font-family="Helvetica,sans-Serif" font-size="10.00">include/Lists/MLCL</text>
<text text-anchor="middle" x="2248.12" y="-147" font-family="Helvetica,sans-Serif" font-size="10.00">_List.h</text>
</a>
</g>
</g>
<!-- Node17&#45;&gt;Node18 -->
<g id="edge19" class="edge">
<title>Node17&#45;&gt;Node18</title>
<path fill="none" stroke="midnightblue" d="M485.15,-303.92C769.25,-301.17 1904.86,-288.05 1972.12,-254 1993.3,-243.28 1984.9,-224.43 2005.12,-212 2074.63,-169.28 2106.12,-196.37 2185.12,-176 2191.9,-174.25 2199.02,-172.2 2205.95,-170.09"/>
<polygon fill="midnightblue" stroke="midnightblue" points="484.98,-300.42 475.01,-304.02 485.04,-307.42 484.98,-300.42"/>
</g>
<!-- Node26 -->
<g id="node26" class="node">
<title>Node26</title>
<g id="a_node26"><a xlink:href="_m_l_c_l___binary_heap_8h.html" target="_top" xlink:title=" ">
<polygon fill="none" stroke="black" points="224.12,-218 224.12,-248 370.12,-248 370.12,-218 224.12,-218"/>
<text text-anchor="start" x="232.12" y="-236" font-family="Helvetica,sans-Serif" font-size="10.00">include/Heap/MLCL_Binary</text>
<text text-anchor="middle" x="297.12" y="-225" font-family="Helvetica,sans-Serif" font-size="10.00">Heap.h</text>
</a>
</g>
</g>
<!-- Node17&#45;&gt;Node26 -->
<g id="edge31" class="edge">
<title>Node17&#45;&gt;Node26</title>
<path fill="none" stroke="midnightblue" d="M387.53,-285.4C366.81,-273.62 340.7,-258.78 321.87,-248.07"/>
<polygon fill="midnightblue" stroke="midnightblue" points="385.9,-288.5 396.33,-290.4 389.36,-282.42 385.9,-288.5"/>
</g>
<!-- Node31 -->
<g id="node31" class="node">
<title>Node31</title>
<g id="a_node31"><a xlink:href="_m_l_c_l___array_list_8c.html" target="_top" xlink:title=" ">
<polygon fill="none" stroke="black" points="62.62,-223.5 62.62,-242.5 205.62,-242.5 205.62,-223.5 62.62,-223.5"/>
<text text-anchor="middle" x="134.12" y="-230.5" font-family="Helvetica,sans-Serif" font-size="10.00">src/Lists/MLCL_ArrayList.c</text>
</a>
</g>
</g>
<!-- Node17&#45;&gt;Node31 -->
<g id="edge37" class="edge">
<title>Node17&#45;&gt;Node31</title>
<path fill="none" stroke="midnightblue" d="M357.54,-288.94C316.82,-278.97 262.85,-265.74 215.12,-254 199.93,-250.26 183.14,-246.12 168.8,-242.58"/>
<polygon fill="midnightblue" stroke="midnightblue" points="356.79,-292.36 367.33,-291.34 358.45,-285.56 356.79,-292.36"/>
</g>
<!-- Node18&#45;&gt;Node9 -->
<g id="edge20" class="edge">
<title>Node18&#45;&gt;Node9</title>
<path fill="none" stroke="midnightblue" d="M2200.27,-137.28C2195.2,-135.97 2190.09,-134.84 2185.12,-134 1884.36,-83.36 1115.99,-133.95 813.12,-98 810.36,-97.67 807.55,-97.29 804.72,-96.86"/>
<polygon fill="midnightblue" stroke="midnightblue" points="2199.32,-140.65 2209.9,-139.98 2201.21,-133.91 2199.32,-140.65"/>
</g>
<!-- Node19 -->
<g id="node19" class="node">
<title>Node19</title>
<g id="a_node19"><a xlink:href="_m_l_c_l___queue_8h.html" target="_top" xlink:title=" ">
<polygon fill="none" stroke="black" points="2071.12,-67.5 2071.12,-97.5 2187.12,-97.5 2187.12,-67.5 2071.12,-67.5"/>
<text text-anchor="start" x="2079.12" y="-85.5" font-family="Helvetica,sans-Serif" font-size="10.00">include/Queue/MLCL</text>
<text text-anchor="middle" x="2129.12" y="-74.5" font-family="Helvetica,sans-Serif" font-size="10.00">_Queue.h</text>
</a>
</g>
</g>
<!-- Node18&#45;&gt;Node19 -->
<g id="edge21" class="edge">
<title>Node18&#45;&gt;Node19</title>
<path fill="none" stroke="midnightblue" d="M2215.61,-134.74C2195.78,-122.99 2170.86,-108.23 2152.88,-97.57"/>
<polygon fill="midnightblue" stroke="midnightblue" points="2213.94,-137.82 2224.33,-139.9 2217.51,-131.79 2213.94,-137.82"/>
</g>
<!-- Node21 -->
<g id="node21" class="node">
<title>Node21</title>
<g id="a_node21"><a xlink:href="_m_l_c_l___stack_8h.html" target="_top" xlink:title=" ">
<polygon fill="none" stroke="black" points="822.62,-67.5 822.62,-97.5 933.62,-97.5 933.62,-67.5 822.62,-67.5"/>
<text text-anchor="start" x="830.62" y="-85.5" font-family="Helvetica,sans-Serif" font-size="10.00">include/Stack/MLCL</text>
<text text-anchor="middle" x="878.12" y="-74.5" font-family="Helvetica,sans-Serif" font-size="10.00">_Stack.h</text>
</a>
</g>
</g>
<!-- Node18&#45;&gt;Node21 -->
<g id="edge24" class="edge">
<title>Node18&#45;&gt;Node21</title>
<path fill="none" stroke="midnightblue" d="M2199.66,-137.19C2194.79,-135.93 2189.89,-134.83 2185.12,-134 1939.06,-91 1150.66,-84.61 933.79,-83.66"/>
<polygon fill="midnightblue" stroke="midnightblue" points="2198.97,-140.63 2209.55,-139.96 2200.86,-133.89 2198.97,-140.63"/>
</g>
<!-- Node18&#45;&gt;Node23 -->
<g id="edge27" class="edge">
<title>Node18&#45;&gt;Node23</title>
<path fill="none" stroke="midnightblue" d="M2280.63,-134.74C2300.47,-122.99 2325.38,-108.23 2343.37,-97.57"/>
<polygon fill="midnightblue" stroke="midnightblue" points="2278.74,-131.79 2271.92,-139.9 2282.3,-137.82 2278.74,-131.79"/>
</g>
<!-- Node25 -->
<g id="node25" class="node">
<title>Node25</title>
<g id="a_node25"><a xlink:href="_m_l_c_l___list_8c.html" target="_top" xlink:title=" ">
<polygon fill="none" stroke="black" points="1937.12,-73 1937.12,-92 2053.12,-92 2053.12,-73 1937.12,-73"/>
<text text-anchor="middle" x="1995.12" y="-80" font-family="Helvetica,sans-Serif" font-size="10.00">src/Lists/MLCL_List.c</text>
</a>
</g>
</g>
<!-- Node18&#45;&gt;Node25 -->
<g id="edge30" class="edge">
<title>Node18&#45;&gt;Node25</title>
<path fill="none" stroke="midnightblue" d="M2195.21,-137C2191.8,-135.97 2188.42,-134.96 2185.12,-134 2130.89,-118.19 2067.37,-101.72 2029.24,-92.05"/>
<polygon fill="midnightblue" stroke="midnightblue" points="2194.24,-140.36 2204.82,-139.96 2196.29,-133.67 2194.24,-140.36"/>
</g>
<!-- Node19&#45;&gt;Node11 -->
<g id="edge22" class="edge">
<title>Node19&#45;&gt;Node11</title>
<path fill="none" stroke="midnightblue" d="M2060.93,-66.93C1898.71,-41.75 1719.16,-27.22 1625.48,-20.66"/>
<polygon fill="midnightblue" stroke="midnightblue" points="2060.67,-70.43 2071.09,-68.52 2061.76,-63.51 2060.67,-70.43"/>
</g>
<!-- Node20 -->
<g id="node20" class="node">
<title>Node20</title>
<g id="a_node20"><a xlink:href="_m_l_c_l___queue_8c.html" target="_top" xlink:title=" ">
<polygon fill="none" stroke="black" points="2007.12,-6 2007.12,-25 2147.12,-25 2147.12,-6 2007.12,-6"/>
<text text-anchor="middle" x="2077.12" y="-13" font-family="Helvetica,sans-Serif" font-size="10.00">src/Queue/MLCL_Queue.c</text>
</a>
</g>
</g>
<!-- Node19&#45;&gt;Node20 -->
<g id="edge23" class="edge">
<title>Node19&#45;&gt;Node20</title>
<path fill="none" stroke="midnightblue" d="M2111.37,-59.32C2102,-47.6 2091.03,-33.88 2084.08,-25.19"/>
<polygon fill="midnightblue" stroke="midnightblue" points="2108.86,-61.77 2117.84,-67.4 2114.32,-57.4 2108.86,-61.77"/>
</g>
<!-- Node21&#45;&gt;Node12 -->
<g id="edge25" class="edge">
<title>Node21&#45;&gt;Node12</title>
<path fill="none" stroke="midnightblue" d="M816.66,-64.71C777.93,-54.14 728.49,-40.63 691.79,-30.61"/>
<polygon fill="midnightblue" stroke="midnightblue" points="816.2,-68.22 826.77,-67.48 818.05,-61.46 816.2,-68.22"/>
</g>
<!-- Node22 -->
<g id="node22" class="node">
<title>Node22</title>
<g id="a_node22"><a xlink:href="_m_l_c_l___stack_8c.html" target="_top" xlink:title=" ">
<polygon fill="none" stroke="black" points="812.62,-6 812.62,-25 943.62,-25 943.62,-6 812.62,-6"/>
<text text-anchor="middle" x="878.12" y="-13" font-family="Helvetica,sans-Serif" font-size="10.00">src/Stack/MLCL_Stack.c</text>
</a>
</g>
</g>
<!-- Node21&#45;&gt;Node22 -->
<g id="edge26" class="edge">
<title>Node21&#45;&gt;Node22</title>
<path fill="none" stroke="midnightblue" d="M878.12,-57.25C878.12,-46.02 878.12,-33.38 878.12,-25.19"/>
<polygon fill="midnightblue" stroke="midnightblue" points="874.62,-57.4 878.12,-67.4 881.62,-57.4 874.62,-57.4"/>
</g>
<!-- Node23&#45;&gt;Node16 -->
<g id="edge29" class="edge">
<title>Node23&#45;&gt;Node16</title>
<path fill="none" stroke="midnightblue" d="M2332.18,-62.57C2313.31,-52.35 2290.4,-39.94 2273.11,-30.58"/>
<polygon fill="midnightblue" stroke="midnightblue" points="2330.62,-65.71 2341.08,-67.4 2333.96,-59.56 2330.62,-65.71"/>
</g>
<!-- Node24 -->
<g id="node24" class="node">
<title>Node24</title>
<g id="a_node24"><a xlink:href="_m_l_c_l___ternary_search_tree__test_8c.html" target="_top" xlink:title=" ">
<polygon fill="none" stroke="black" points="2346.62,-0.5 2346.62,-30.5 2489.62,-30.5 2489.62,-0.5 2346.62,-0.5"/>
<text text-anchor="start" x="2354.62" y="-18.5" font-family="Helvetica,sans-Serif" font-size="10.00">src/_Tests/Trees/MLCL</text>
<text text-anchor="middle" x="2418.12" y="-7.5" font-family="Helvetica,sans-Serif" font-size="10.00">_TernarySearchTree_test.c</text>
</a>
</g>
</g>
<!-- Node23&#45;&gt;Node24 -->
<g id="edge28" class="edge">
<title>Node23&#45;&gt;Node24</title>
<path fill="none" stroke="midnightblue" d="M2384.42,-59.45C2391.92,-49.9 2400.46,-39 2407.08,-30.58"/>
<polygon fill="midnightblue" stroke="midnightblue" points="2381.61,-57.37 2378.19,-67.4 2387.11,-61.69 2381.61,-57.37"/>
</g>
<!-- Node27 -->
<g id="node27" class="node">
<title>Node27</title>
<g id="a_node27"><a xlink:href="_m_l_c_l___binary_heap__test_8h.html" target="_top" xlink:title=" ">
<polygon fill="none" stroke="black" points="202.62,-140 202.62,-170 343.62,-170 343.62,-140 202.62,-140"/>
<text text-anchor="start" x="210.62" y="-158" font-family="Helvetica,sans-Serif" font-size="10.00">include/_Tests/Heap</text>
<text text-anchor="middle" x="273.12" y="-147" font-family="Helvetica,sans-Serif" font-size="10.00">/MLCL_BinaryHeap_test.h</text>
</a>
</g>
</g>
<!-- Node26&#45;&gt;Node27 -->
<g id="edge32" class="edge">
<title>Node26&#45;&gt;Node27</title>
<path fill="none" stroke="midnightblue" d="M289.53,-207.96C285.61,-195.55 280.96,-180.83 277.62,-170.23"/>
<polygon fill="midnightblue" stroke="midnightblue" points="286.26,-209.22 292.61,-217.7 292.93,-207.12 286.26,-209.22"/>
</g>
<!-- Node30 -->
<g id="node30" class="node">
<title>Node30</title>
<g id="a_node30"><a xlink:href="_m_l_c_l___binary_heap_8c.html" target="_top" xlink:title=" ">
<polygon fill="none" stroke="black" points="25.62,-145.5 25.62,-164.5 184.62,-164.5 184.62,-145.5 25.62,-145.5"/>
<text text-anchor="middle" x="105.12" y="-152.5" font-family="Helvetica,sans-Serif" font-size="10.00">src/Heap/MLCL_BinaryHeap.c</text>
</a>
</g>
</g>
<!-- Node26&#45;&gt;Node30 -->
<g id="edge36" class="edge">
<title>Node26&#45;&gt;Node30</title>
<path fill="none" stroke="midnightblue" d="M251.81,-214.06C212.42,-198.47 157.06,-176.56 126.86,-164.61"/>
<polygon fill="midnightblue" stroke="midnightblue" points="250.87,-217.46 261.46,-217.88 253.45,-210.95 250.87,-217.46"/>
</g>
<!-- Node27&#45;&gt;Node2 -->
<g id="edge33" class="edge">
<title>Node27&#45;&gt;Node2</title>
<path fill="none" stroke="midnightblue" d="M273.12,-129.73C273.12,-119.07 273.12,-106.91 273.12,-97.75"/>
<polygon fill="midnightblue" stroke="midnightblue" points="269.62,-129.73 273.12,-139.73 276.62,-129.73 269.62,-129.73"/>
</g>
<!-- Node28 -->
<g id="node28" class="node">
<title>Node28</title>
<g id="a_node28"><a xlink:href="_m_l_c_l__all__tests_8h.html" target="_top" xlink:title=" ">
<polygon fill="none" stroke="black" points="353.12,-67.5 353.12,-97.5 467.12,-97.5 467.12,-67.5 353.12,-67.5"/>
<text text-anchor="start" x="361.12" y="-85.5" font-family="Helvetica,sans-Serif" font-size="10.00">include/_Tests/MLCL</text>
<text text-anchor="middle" x="410.12" y="-74.5" font-family="Helvetica,sans-Serif" font-size="10.00">_all_tests.h</text>
</a>
</g>
</g>
<!-- Node27&#45;&gt;Node28 -->
<g id="edge34" class="edge">
<title>Node27&#45;&gt;Node28</title>
<path fill="none" stroke="midnightblue" d="M309.62,-135.22C332.61,-123.39 361.79,-108.37 382.77,-97.57"/>
<polygon fill="midnightblue" stroke="midnightblue" points="307.81,-132.21 300.52,-139.9 311.01,-138.44 307.81,-132.21"/>
</g>
<!-- Node29 -->
<g id="node29" class="node">
<title>Node29</title>
<g id="a_node29"><a xlink:href="_m_l_c_l__all__tests_8c.html" target="_top" xlink:title=" ">
<polygon fill="none" stroke="black" points="355.12,-0.5 355.12,-30.5 465.12,-30.5 465.12,-0.5 355.12,-0.5"/>
<text text-anchor="start" x="363.12" y="-18.5" font-family="Helvetica,sans-Serif" font-size="10.00">src/_Tests/MLCL_all</text>
<text text-anchor="middle" x="410.12" y="-7.5" font-family="Helvetica,sans-Serif" font-size="10.00">_tests.c</text>
</a>
</g>
</g>
<!-- Node28&#45;&gt;Node29 -->
<g id="edge35" class="edge">
<title>Node28&#45;&gt;Node29</title>
<path fill="none" stroke="midnightblue" d="M410.12,-57.11C410.12,-48.15 410.12,-38.32 410.12,-30.58"/>
<polygon fill="midnightblue" stroke="midnightblue" points="406.62,-57.4 410.12,-67.4 413.62,-57.4 406.62,-57.4"/>
</g>
<!-- Node32&#45;&gt;Node7 -->
<g id="edge43" class="edge">
<title>Node32&#45;&gt;Node7</title>
<path fill="none" stroke="midnightblue" d="M1477.78,-299.55C1418.85,-293.59 1331.7,-280.81 1260.12,-254 1203.53,-232.81 1144.56,-191.84 1115.52,-170.19"/>
<polygon fill="midnightblue" stroke="midnightblue" points="1477.79,-303.06 1488.08,-300.55 1478.47,-296.1 1477.79,-303.06"/>
</g>
<!-- Node32&#45;&gt;Node18 -->
<g id="edge44" class="edge">
<title>Node32&#45;&gt;Node18</title>
<path fill="none" stroke="midnightblue" d="M1612.28,-302.48C1722.7,-298.27 1937.15,-286.12 2005.12,-254 2029.27,-242.59 2024.88,-225.16 2048.12,-212 2102.9,-180.98 2124.66,-193.53 2185.12,-176 2191.51,-174.15 2198.24,-172.11 2204.83,-170.06"/>
<polygon fill="midnightblue" stroke="midnightblue" points="1612.11,-298.98 1602.25,-302.85 1612.37,-305.98 1612.11,-298.98"/>
</g>
<!-- Node33 -->
<g id="node33" class="node">
<title>Node33</title>
<g id="a_node33"><a xlink:href="_m_l_c_l___circular_double_linked_list_8h.html" target="_top" xlink:title=" ">
<polygon fill="none" stroke="black" points="1521.12,-218 1521.12,-248 1673.12,-248 1673.12,-218 1521.12,-218"/>
<text text-anchor="start" x="1529.12" y="-236" font-family="Helvetica,sans-Serif" font-size="10.00">include/Lists/MLCL</text>
<text text-anchor="middle" x="1597.12" y="-225" font-family="Helvetica,sans-Serif" font-size="10.00">_CircularDoubleLinkedList.h</text>
</a>
</g>
</g>
<!-- Node32&#45;&gt;Node33 -->
<g id="edge39" class="edge">
<title>Node32&#45;&gt;Node33</title>
<path fill="none" stroke="midnightblue" d="M1561.8,-281.89C1569.95,-270.84 1579.5,-257.89 1586.61,-248.25"/>
<polygon fill="midnightblue" stroke="midnightblue" points="1558.76,-280.11 1555.64,-290.23 1564.4,-284.26 1558.76,-280.11"/>
</g>
<!-- Node34 -->
<g id="node34" class="node">
<title>Node34</title>
<g id="a_node34"><a xlink:href="_m_l_c_l___circular_double_linked_list_8c.html" target="_top" xlink:title=" ">
<polygon fill="none" stroke="black" points="1481.62,-140 1481.62,-170 1644.62,-170 1644.62,-140 1481.62,-140"/>
<text text-anchor="start" x="1489.62" y="-158" font-family="Helvetica,sans-Serif" font-size="10.00">src/Lists/MLCL_CircularDouble</text>
<text text-anchor="middle" x="1563.12" y="-147" font-family="Helvetica,sans-Serif" font-size="10.00">LinkedList.c</text>
</a>
</g>
</g>
<!-- Node32&#45;&gt;Node34 -->
<g id="edge45" class="edge">
<title>Node32&#45;&gt;Node34</title>
<path fill="none" stroke="midnightblue" d="M1526.53,-282.14C1520.74,-273.83 1515.09,-263.98 1512.12,-254 1506.79,-236.11 1505.38,-229.41 1512.12,-212 1518.62,-195.2 1532.77,-180.34 1544.52,-170.16"/>
<polygon fill="midnightblue" stroke="midnightblue" points="1523.73,-284.25 1532.51,-290.19 1529.35,-280.07 1523.73,-284.25"/>
</g>
<!-- Node35 -->
<g id="node35" class="node">
<title>Node35</title>
<g id="a_node35"><a xlink:href="_m_l_c_l___double_linked_list_8c.html" target="_top" xlink:title=" ">
<polygon fill="none" stroke="black" points="1269.62,-218 1269.62,-248 1426.62,-248 1426.62,-218 1269.62,-218"/>
<text text-anchor="start" x="1277.62" y="-236" font-family="Helvetica,sans-Serif" font-size="10.00">src/Lists/MLCL_DoubleLinked</text>
<text text-anchor="middle" x="1348.12" y="-225" font-family="Helvetica,sans-Serif" font-size="10.00">List.c</text>
</a>
</g>
</g>
<!-- Node32&#45;&gt;Node35 -->
<g id="edge46" class="edge">
<title>Node32&#45;&gt;Node35</title>
<path fill="none" stroke="midnightblue" d="M1496.12,-286.96C1462.58,-274.96 1418.7,-259.26 1387.45,-248.07"/>
<polygon fill="midnightblue" stroke="midnightblue" points="1495.13,-290.33 1505.73,-290.4 1497.49,-283.74 1495.13,-290.33"/>
</g>
<!-- Node33&#45;&gt;Node5 -->
<g id="edge40" class="edge">
<title>Node33&#45;&gt;Node5</title>
<path fill="none" stroke="midnightblue" d="M1549.26,-214.26C1518.04,-202.68 1477.26,-187.56 1445.06,-175.63"/>
<polygon fill="midnightblue" stroke="midnightblue" points="1548.45,-217.69 1559.04,-217.88 1550.88,-211.13 1548.45,-217.69"/>
</g>
<!-- Node33&#45;&gt;Node18 -->
<g id="edge41" class="edge">
<title>Node33&#45;&gt;Node18</title>
<path fill="none" stroke="midnightblue" d="M1660.61,-215.9C1667.83,-214.41 1675.11,-213.07 1682.12,-212 1903.69,-178.23 1965,-218.2 2185.12,-176 2192.9,-174.51 2201.06,-172.37 2208.83,-170.04"/>
<polygon fill="midnightblue" stroke="midnightblue" points="1659.87,-212.48 1650.83,-218 1661.34,-219.32 1659.87,-212.48"/>
</g>
<!-- Node33&#45;&gt;Node34 -->
<g id="edge42" class="edge">
<title>Node33&#45;&gt;Node34</title>
<path fill="none" stroke="midnightblue" d="M1586.53,-208.33C1580.95,-195.85 1574.28,-180.94 1569.49,-170.23"/>
<polygon fill="midnightblue" stroke="midnightblue" points="1583.45,-210.01 1590.73,-217.7 1589.84,-207.15 1583.45,-210.01"/>
</g>
<!-- Node36&#45;&gt;Node8 -->
<g id="edge52" class="edge">
<title>Node36&#45;&gt;Node8</title>
<path fill="none" stroke="midnightblue" d="M1953.28,-301.33C1836.45,-294.99 1592.85,-279.17 1512.12,-254 1475.28,-242.51 1471.76,-226.8 1436.12,-212 1435.69,-211.82 1348.71,-186.6 1291.68,-170.07"/>
<polygon fill="midnightblue" stroke="midnightblue" points="1953.33,-304.83 1963.5,-301.87 1953.7,-297.84 1953.33,-304.83"/>
</g>
<!-- Node36&#45;&gt;Node18 -->
<g id="edge53" class="edge">
<title>Node36&#45;&gt;Node18</title>
<path fill="none" stroke="midnightblue" d="M2080.88,-303.27C2123.5,-299.16 2178.16,-287.09 2214.12,-254 2238.24,-231.81 2245.25,-191.64 2247.29,-170.27"/>
<polygon fill="midnightblue" stroke="midnightblue" points="2080.54,-299.78 2070.87,-304.11 2081.13,-306.76 2080.54,-299.78"/>
</g>
<!-- Node37 -->
<g id="node37" class="node">
<title>Node37</title>
<g id="a_node37"><a xlink:href="_m_l_c_l___circular_linked_list_8h.html" target="_top" xlink:title=" ">
<polygon fill="none" stroke="black" points="1845.62,-218 1845.62,-248 1962.62,-248 1962.62,-218 1845.62,-218"/>
<text text-anchor="start" x="1853.62" y="-236" font-family="Helvetica,sans-Serif" font-size="10.00">include/Lists/MLCL</text>
<text text-anchor="middle" x="1904.12" y="-225" font-family="Helvetica,sans-Serif" font-size="10.00">_CircularLinkedList.h</text>
</a>
</g>
</g>
<!-- Node36&#45;&gt;Node37 -->
<g id="edge48" class="edge">
<title>Node36&#45;&gt;Node37</title>
<path fill="none" stroke="midnightblue" d="M1986,-285.08C1967.2,-273.36 1943.68,-258.68 1926.68,-248.07"/>
<polygon fill="midnightblue" stroke="midnightblue" points="1984.19,-288.08 1994.53,-290.4 1987.89,-282.14 1984.19,-288.08"/>
</g>
<!-- Node39 -->
<g id="node39" class="node">
<title>Node39</title>
<g id="a_node39"><a xlink:href="_m_l_c_l___linked_list_8c.html" target="_top" xlink:title=" ">
<polygon fill="none" stroke="black" points="2057.12,-223.5 2057.12,-242.5 2205.12,-242.5 2205.12,-223.5 2057.12,-223.5"/>
<text text-anchor="middle" x="2131.12" y="-230.5" font-family="Helvetica,sans-Serif" font-size="10.00">src/Lists/MLCL_LinkedList.c</text>
</a>
</g>
</g>
<!-- Node36&#45;&gt;Node39 -->
<g id="edge54" class="edge">
<title>Node36&#45;&gt;Node39</title>
<path fill="none" stroke="midnightblue" d="M2048.5,-285.1C2071.05,-271.15 2100.36,-253.02 2117.32,-242.53"/>
<polygon fill="midnightblue" stroke="midnightblue" points="2046.58,-282.17 2039.92,-290.4 2050.26,-288.12 2046.58,-282.17"/>
</g>
<!-- Node37&#45;&gt;Node6 -->
<g id="edge49" class="edge">
<title>Node37&#45;&gt;Node6</title>
<path fill="none" stroke="midnightblue" d="M1899.62,-207.59C1897.35,-195.26 1894.68,-180.72 1892.74,-170.23"/>
<polygon fill="midnightblue" stroke="midnightblue" points="1896.23,-208.5 1901.49,-217.7 1903.12,-207.24 1896.23,-208.5"/>
</g>
<!-- Node37&#45;&gt;Node18 -->
<g id="edge50" class="edge">
<title>Node37&#45;&gt;Node18</title>
<path fill="none" stroke="midnightblue" d="M1962.88,-215.38C1967.68,-214.18 1972.48,-213.04 1977.12,-212 2068.69,-191.58 2093.98,-198.25 2185.12,-176 2192.14,-174.29 2199.53,-172.2 2206.67,-170.04"/>
<polygon fill="midnightblue" stroke="midnightblue" points="1961.86,-212.03 1953.04,-217.9 1963.6,-218.81 1961.86,-212.03"/>
</g>
<!-- Node38 -->
<g id="node38" class="node">
<title>Node38</title>
<g id="a_node38"><a xlink:href="_m_l_c_l___circular_linked_list_8c.html" target="_top" xlink:title=" ">
<polygon fill="none" stroke="black" points="2016.12,-140 2016.12,-170 2176.12,-170 2176.12,-140 2016.12,-140"/>
<text text-anchor="start" x="2024.12" y="-158" font-family="Helvetica,sans-Serif" font-size="10.00">src/Lists/MLCL_CircularLinked</text>
<text text-anchor="middle" x="2096.12" y="-147" font-family="Helvetica,sans-Serif" font-size="10.00">List.c</text>
</a>
</g>
</g>
<!-- Node37&#45;&gt;Node38 -->
<g id="edge51" class="edge">
<title>Node37&#45;&gt;Node38</title>
<path fill="none" stroke="midnightblue" d="M1949.48,-214.05C1983.47,-200.59 2029.32,-182.44 2060.65,-170.04"/>
<polygon fill="midnightblue" stroke="midnightblue" points="1947.79,-210.95 1939.78,-217.88 1950.37,-217.46 1947.79,-210.95"/>
</g>
<!-- Node42 -->
<g id="node42" class="node">
<title>Node42</title>
<g id="a_node42"><a xlink:href="_m_l_c_l___a_v_l_tree_8h.html" target="_top" xlink:title=" ">
<polygon fill="none" stroke="black" points="2475.12,-218 2475.12,-248 2585.12,-248 2585.12,-218 2475.12,-218"/>
<text text-anchor="start" x="2483.12" y="-236" font-family="Helvetica,sans-Serif" font-size="10.00">include/Trees/MLCL</text>
<text text-anchor="middle" x="2530.12" y="-225" font-family="Helvetica,sans-Serif" font-size="10.00">_AVLTree.h</text>
</a>
</g>
</g>
<!-- Node41&#45;&gt;Node42 -->
<g id="edge59" class="edge">
<title>Node41&#45;&gt;Node42</title>
<path fill="none" stroke="midnightblue" d="M2409.84,-286.34C2437.23,-274.42 2472.52,-259.07 2497.78,-248.07"/>
<polygon fill="midnightblue" stroke="midnightblue" points="2408.29,-283.2 2400.51,-290.4 2411.08,-289.62 2408.29,-283.2"/>
</g>
<!-- Node44 -->
<g id="node44" class="node">
<title>Node44</title>
<g id="a_node44"><a xlink:href="_m_l_c_l___binary_search_tree__test_8h.html" target="_top" xlink:title=" ">
<polygon fill="none" stroke="black" points="1691.12,-212.5 1691.12,-253.5 1827.12,-253.5 1827.12,-212.5 1691.12,-212.5"/>
<text text-anchor="start" x="1699.12" y="-241.5" font-family="Helvetica,sans-Serif" font-size="10.00">include/_Tests/Trees</text>
<text text-anchor="start" x="1699.12" y="-230.5" font-family="Helvetica,sans-Serif" font-size="10.00">/MLCL_BinarySearchTree</text>
<text text-anchor="middle" x="1759.12" y="-219.5" font-family="Helvetica,sans-Serif" font-size="10.00">_test.h</text>
</a>
</g>
</g>
<!-- Node41&#45;&gt;Node44 -->
<g id="edge62" class="edge">
<title>Node41&#45;&gt;Node44</title>
<path fill="none" stroke="midnightblue" d="M2299.85,-301.42C2198.33,-296.08 2001.82,-282.77 1837.12,-254 1833.95,-253.45 1830.73,-252.83 1827.47,-252.17"/>
<polygon fill="midnightblue" stroke="midnightblue" points="2299.81,-304.92 2309.97,-301.94 2300.17,-297.93 2299.81,-304.92"/>
</g>
<!-- Node45 -->
<g id="node45" class="node">
<title>Node45</title>
<g id="a_node45"><a xlink:href="_m_l_c_l___binary_search_tree_8c.html" target="_top" xlink:title=" ">
<polygon fill="none" stroke="black" points="2299.12,-218 2299.12,-248 2457.12,-248 2457.12,-218 2299.12,-218"/>
<text text-anchor="start" x="2307.12" y="-236" font-family="Helvetica,sans-Serif" font-size="10.00">src/Trees/MLCL_BinarySearch</text>
<text text-anchor="middle" x="2378.12" y="-225" font-family="Helvetica,sans-Serif" font-size="10.00">Tree.c</text>
</a>
</g>
</g>
<!-- Node41&#45;&gt;Node45 -->
<g id="edge65" class="edge">
<title>Node41&#45;&gt;Node45</title>
<path fill="none" stroke="midnightblue" d="M2371.56,-280.23C2373.08,-269.57 2374.8,-257.41 2376.1,-248.25"/>
<polygon fill="midnightblue" stroke="midnightblue" points="2368.08,-279.84 2370.14,-290.23 2375.01,-280.82 2368.08,-279.84"/>
</g>
<!-- Node42&#45;&gt;Node13 -->
<g id="edge60" class="edge">
<title>Node42&#45;&gt;Node13</title>
<path fill="none" stroke="midnightblue" d="M2493.21,-213.17C2467.02,-199.82 2432.44,-182.18 2408.65,-170.04"/>
<polygon fill="midnightblue" stroke="midnightblue" points="2491.95,-216.46 2502.44,-217.88 2495.13,-210.22 2491.95,-216.46"/>
</g>
<!-- Node43 -->
<g id="node43" class="node">
<title>Node43</title>
<g id="a_node43"><a xlink:href="_m_l_c_l___a_v_l_tree_8c.html" target="_top" xlink:title=" ">
<polygon fill="none" stroke="black" points="2460.12,-145.5 2460.12,-164.5 2600.12,-164.5 2600.12,-145.5 2460.12,-145.5"/>
<text text-anchor="middle" x="2530.12" y="-152.5" font-family="Helvetica,sans-Serif" font-size="10.00">src/Trees/MLCL_AVLTree.c</text>
</a>
</g>
</g>
<!-- Node42&#45;&gt;Node43 -->
<g id="edge61" class="edge">
<title>Node42&#45;&gt;Node43</title>
<path fill="none" stroke="midnightblue" d="M2530.12,-207.67C2530.12,-192.9 2530.12,-174.95 2530.12,-164.56"/>
<polygon fill="midnightblue" stroke="midnightblue" points="2526.62,-207.7 2530.12,-217.7 2533.62,-207.71 2526.62,-207.7"/>
</g>
<!-- Node44&#45;&gt;Node14 -->
<g id="edge64" class="edge">
<title>Node44&#45;&gt;Node14</title>
<path fill="none" stroke="midnightblue" d="M1748.81,-202.96C1744.82,-191.75 1740.45,-179.43 1737.17,-170.23"/>
<polygon fill="midnightblue" stroke="midnightblue" points="1745.52,-204.18 1752.17,-212.43 1752.12,-201.83 1745.52,-204.18"/>
</g>
<!-- Node44&#45;&gt;Node28 -->
<g id="edge63" class="edge">
<title>Node44&#45;&gt;Node28</title>
<path fill="none" stroke="midnightblue" d="M1837.16,-211.77C1896.45,-196.3 1968.05,-177.4 1969.12,-176 1980.49,-161.2 1982.14,-147.38 1969.12,-134 1944.07,-108.24 712.02,-99.48 676.12,-98 604.03,-95.03 521.03,-90.3 467.18,-87.05"/>
<polygon fill="midnightblue" stroke="midnightblue" points="1836.18,-208.4 1827.38,-214.31 1837.94,-215.18 1836.18,-208.4"/>
</g>
</g>
</svg>
