<?xml version="1.0" encoding="UTF-8" standalone="no"?>
<!DOCTYPE svg PUBLIC "-//W3C//DTD SVG 1.1//EN"
 "http://www.w3.org/Graphics/SVG/1.1/DTD/svg11.dtd">
<!-- Generated by graphviz version 2.43.0 (0)
 -->
<!-- Title: /home/antoine/Documents/Developpement/C/MyLittleCLibrary/include/MLCL_basic_types.h Pages: 1 -->
<svg width="1567pt" height="206pt"
 viewBox="0.00 0.00 1567.00 206.00" xmlns="http://www.w3.org/2000/svg" xmlns:xlink="http://www.w3.org/1999/xlink">
<g id="graph0" class="graph" transform="scale(1 1) rotate(0) translate(4 202)">
<title>/home/antoine/Documents/Developpement/C/MyLittleCLibrary/include/MLCL_basic_types.h</title>
<!-- Node1 -->
<g id="node1" class="node">
<title>Node1</title>
<g id="a_node1"><a xlink:title=" ">
<polygon fill="#bfbfbf" stroke="black" points="720,-156.5 720,-197.5 911,-197.5 911,-156.5 720,-156.5"/>
<text text-anchor="start" x="728" y="-185.5" font-family="Helvetica,sans-Serif" font-size="10.00">/home/antoine/Documents</text>
<text text-anchor="start" x="728" y="-174.5" font-family="Helvetica,sans-Serif" font-size="10.00">/Developpement/C/MyLittleCLibrary</text>
<text text-anchor="middle" x="815.5" y="-163.5" font-family="Helvetica,sans-Serif" font-size="10.00">/include/MLCL_basic_types.h</text>
</a>
</g>
</g>
<!-- Node2 -->
<g id="node2" class="node">
<title>Node2</title>
<g id="a_node2"><a xlink:href="_m_l_c_l__basic__types_8c.html" target="_top" xlink:title=" ">
<polygon fill="none" stroke="black" points="0,-78.5 0,-119.5 191,-119.5 191,-78.5 0,-78.5"/>
<text text-anchor="start" x="8" y="-107.5" font-family="Helvetica,sans-Serif" font-size="10.00">/home/antoine/Documents</text>
<text text-anchor="start" x="8" y="-96.5" font-family="Helvetica,sans-Serif" font-size="10.00">/Developpement/C/MyLittleCLibrary</text>
<text text-anchor="middle" x="95.5" y="-85.5" font-family="Helvetica,sans-Serif" font-size="10.00">/src/MLCL_basic_types.c</text>
</a>
</g>
</g>
<!-- Node1&#45;&gt;Node2 -->
<g id="edge1" class="edge">
<title>Node1&#45;&gt;Node2</title>
<path fill="none" stroke="midnightblue" d="M709.67,-169.51C586.84,-161.25 378.38,-144.98 200.5,-120 197.38,-119.56 194.2,-119.09 191,-118.6"/>
<polygon fill="midnightblue" stroke="midnightblue" points="709.61,-173.01 719.82,-170.19 710.08,-166.03 709.61,-173.01"/>
</g>
<!-- Node3 -->
<g id="node3" class="node">
<title>Node3</title>
<g id="a_node3"><a xlink:href="_m_l_c_l___circular_double_linked_list__test_8c.html" target="_top" xlink:title=" ">
<polygon fill="none" stroke="black" points="209,-78.5 209,-119.5 458,-119.5 458,-78.5 209,-78.5"/>
<text text-anchor="start" x="217" y="-107.5" font-family="Helvetica,sans-Serif" font-size="10.00">/home/antoine/Documents</text>
<text text-anchor="start" x="217" y="-96.5" font-family="Helvetica,sans-Serif" font-size="10.00">/Developpement/C/MyLittleCLibrary</text>
<text text-anchor="middle" x="333.5" y="-85.5" font-family="Helvetica,sans-Serif" font-size="10.00">/src/Tests/MLCL_CircularDoubleLinkedList_test.c</text>
</a>
</g>
</g>
<!-- Node1&#45;&gt;Node3 -->
<g id="edge2" class="edge">
<title>Node1&#45;&gt;Node3</title>
<path fill="none" stroke="midnightblue" d="M709.65,-159.31C635.2,-147.57 535.33,-131.82 457.2,-119.5"/>
<polygon fill="midnightblue" stroke="midnightblue" points="709.56,-162.84 719.98,-160.94 710.65,-155.92 709.56,-162.84"/>
</g>
<!-- Node4 -->
<g id="node4" class="node">
<title>Node4</title>
<g id="a_node4"><a xlink:href="_m_l_c_l___circular_linked_list__test_8c.html" target="_top" xlink:title=" ">
<polygon fill="none" stroke="black" points="476,-78.5 476,-119.5 691,-119.5 691,-78.5 476,-78.5"/>
<text text-anchor="start" x="484" y="-107.5" font-family="Helvetica,sans-Serif" font-size="10.00">/home/antoine/Documents</text>
<text text-anchor="start" x="484" y="-96.5" font-family="Helvetica,sans-Serif" font-size="10.00">/Developpement/C/MyLittleCLibrary</text>
<text text-anchor="middle" x="583.5" y="-85.5" font-family="Helvetica,sans-Serif" font-size="10.00">/src/Tests/MLCL_CircularLinkedList_test.c</text>
</a>
</g>
</g>
<!-- Node1&#45;&gt;Node4 -->
<g id="edge3" class="edge">
<title>Node1&#45;&gt;Node4</title>
<path fill="none" stroke="midnightblue" d="M746.22,-153.3C713.38,-142.55 674.54,-129.82 643.04,-119.51"/>
<polygon fill="midnightblue" stroke="midnightblue" points="745.16,-156.64 755.75,-156.43 747.34,-149.99 745.16,-156.64"/>
</g>
<!-- Node5 -->
<g id="node5" class="node">
<title>Node5</title>
<g id="a_node5"><a xlink:href="_m_l_c_l___double_linked_list__test_8c.html" target="_top" xlink:title=" ">
<polygon fill="none" stroke="black" points="709.5,-78.5 709.5,-119.5 921.5,-119.5 921.5,-78.5 709.5,-78.5"/>
<text text-anchor="start" x="717.5" y="-107.5" font-family="Helvetica,sans-Serif" font-size="10.00">/home/antoine/Documents</text>
<text text-anchor="start" x="717.5" y="-96.5" font-family="Helvetica,sans-Serif" font-size="10.00">/Developpement/C/MyLittleCLibrary</text>
<text text-anchor="middle" x="815.5" y="-85.5" font-family="Helvetica,sans-Serif" font-size="10.00">/src/Tests/MLCL_DoubleLinkedList_test.c</text>
</a>
</g>
</g>
<!-- Node1&#45;&gt;Node5 -->
<g id="edge4" class="edge">
<title>Node1&#45;&gt;Node5</title>
<path fill="none" stroke="midnightblue" d="M815.5,-146.3C815.5,-137.3 815.5,-127.65 815.5,-119.51"/>
<polygon fill="midnightblue" stroke="midnightblue" points="812,-146.43 815.5,-156.43 819,-146.43 812,-146.43"/>
</g>
<!-- Node6 -->
<g id="node6" class="node">
<title>Node6</title>
<g id="a_node6"><a xlink:href="_m_l_c_l___linked_list__test_8c.html" target="_top" xlink:title=" ">
<polygon fill="none" stroke="black" points="940,-78.5 940,-119.5 1131,-119.5 1131,-78.5 940,-78.5"/>
<text text-anchor="start" x="948" y="-107.5" font-family="Helvetica,sans-Serif" font-size="10.00">/home/antoine/Documents</text>
<text text-anchor="start" x="948" y="-96.5" font-family="Helvetica,sans-Serif" font-size="10.00">/Developpement/C/MyLittleCLibrary</text>
<text text-anchor="middle" x="1035.5" y="-85.5" font-family="Helvetica,sans-Serif" font-size="10.00">/src/Tests/MLCL_LinkedList_test.c</text>
</a>
</g>
</g>
<!-- Node1&#45;&gt;Node6 -->
<g id="edge5" class="edge">
<title>Node1&#45;&gt;Node6</title>
<path fill="none" stroke="midnightblue" d="M882,-153.03C912.97,-142.33 949.43,-129.73 979.04,-119.51"/>
<polygon fill="midnightblue" stroke="midnightblue" points="880.46,-149.85 872.16,-156.43 882.75,-156.47 880.46,-149.85"/>
</g>
<!-- Node7 -->
<g id="node7" class="node">
<title>Node7</title>
<g id="a_node7"><a xlink:href="_m_l_c_l___type_descriptor__test_8c.html" target="_top" xlink:title=" ">
<polygon fill="none" stroke="black" points="1149,-78.5 1149,-119.5 1350,-119.5 1350,-78.5 1149,-78.5"/>
<text text-anchor="start" x="1157" y="-107.5" font-family="Helvetica,sans-Serif" font-size="10.00">/home/antoine/Documents</text>
<text text-anchor="start" x="1157" y="-96.5" font-family="Helvetica,sans-Serif" font-size="10.00">/Developpement/C/MyLittleCLibrary</text>
<text text-anchor="middle" x="1249.5" y="-85.5" font-family="Helvetica,sans-Serif" font-size="10.00">/src/Tests/MLCL_TypeDescriptor_test.c</text>
</a>
</g>
</g>
<!-- Node1&#45;&gt;Node7 -->
<g id="edge6" class="edge">
<title>Node1&#45;&gt;Node7</title>
<path fill="none" stroke="midnightblue" d="M921.22,-158.08C984.8,-147.23 1067.33,-133.02 1140.5,-120 1143.25,-119.51 1146.03,-119.01 1148.84,-118.51"/>
<polygon fill="midnightblue" stroke="midnightblue" points="920.45,-154.66 911.18,-159.79 921.63,-161.56 920.45,-154.66"/>
</g>
<!-- Node8 -->
<g id="node8" class="node">
<title>Node8</title>
<g id="a_node8"><a xlink:href="_m_l_c_l_8h.html" target="_top" xlink:title=" ">
<polygon fill="none" stroke="black" points="1368,-78.5 1368,-119.5 1559,-119.5 1559,-78.5 1368,-78.5"/>
<text text-anchor="start" x="1376" y="-107.5" font-family="Helvetica,sans-Serif" font-size="10.00">/home/antoine/Documents</text>
<text text-anchor="start" x="1376" y="-96.5" font-family="Helvetica,sans-Serif" font-size="10.00">/Developpement/C/MyLittleCLibrary</text>
<text text-anchor="middle" x="1463.5" y="-85.5" font-family="Helvetica,sans-Serif" font-size="10.00">/MLCL.h</text>
</a>
</g>
</g>
<!-- Node1&#45;&gt;Node8 -->
<g id="edge7" class="edge">
<title>Node1&#45;&gt;Node8</title>
<path fill="none" stroke="midnightblue" d="M921.23,-167.87C1031.09,-158.78 1207.84,-142.34 1359.5,-120 1362.23,-119.6 1364.99,-119.17 1367.78,-118.73"/>
<polygon fill="midnightblue" stroke="midnightblue" points="920.82,-164.39 911.14,-168.7 921.39,-171.37 920.82,-164.39"/>
</g>
<!-- Node9 -->
<g id="node9" class="node">
<title>Node9</title>
<g id="a_node9"><a xlink:href="test_8c.html" target="_top" xlink:title=" ">
<polygon fill="none" stroke="black" points="1368,-0.5 1368,-41.5 1559,-41.5 1559,-0.5 1368,-0.5"/>
<text text-anchor="start" x="1376" y="-29.5" font-family="Helvetica,sans-Serif" font-size="10.00">/home/antoine/Documents</text>
<text text-anchor="start" x="1376" y="-18.5" font-family="Helvetica,sans-Serif" font-size="10.00">/Developpement/C/MyLittleCLibrary</text>
<text text-anchor="middle" x="1463.5" y="-7.5" font-family="Helvetica,sans-Serif" font-size="10.00">/test.c</text>
</a>
</g>
</g>
<!-- Node8&#45;&gt;Node9 -->
<g id="edge8" class="edge">
<title>Node8&#45;&gt;Node9</title>
<path fill="none" stroke="midnightblue" d="M1463.5,-68.3C1463.5,-59.3 1463.5,-49.65 1463.5,-41.51"/>
<polygon fill="midnightblue" stroke="midnightblue" points="1460,-68.43 1463.5,-78.43 1467,-68.43 1460,-68.43"/>
</g>
</g>
</svg>
