<?xml version="1.0" encoding="UTF-8" standalone="no"?>
<!DOCTYPE svg PUBLIC "-//W3C//DTD SVG 1.1//EN"
 "http://www.w3.org/Graphics/SVG/1.1/DTD/svg11.dtd">
<!-- Generated by graphviz version 2.43.0 (0)
 -->
<!-- Title: src/Trees/MLCL_BinarySearchTree.c Pages: 1 -->
<svg width="353pt" height="218pt"
 viewBox="0.00 0.00 353.16 218.00" xmlns="http://www.w3.org/2000/svg" xmlns:xlink="http://www.w3.org/1999/xlink">
<g id="graph0" class="graph" transform="scale(1 1) rotate(0) translate(4 214)">
<title>src/Trees/MLCL_BinarySearchTree.c</title>
<!-- Node1 -->
<g id="node1" class="node">
<title>Node1</title>
<g id="a_node1"><a xlink:title=" ">
<polygon fill="#bfbfbf" stroke="black" points="142.16,-179.5 142.16,-209.5 300.16,-209.5 300.16,-179.5 142.16,-179.5"/>
<text text-anchor="start" x="150.16" y="-197.5" font-family="Helvetica,sans-Serif" font-size="10.00">src/Trees/MLCL_BinarySearch</text>
<text text-anchor="middle" x="221.16" y="-186.5" font-family="Helvetica,sans-Serif" font-size="10.00">Tree.c</text>
</a>
</g>
</g>
<!-- Node2 -->
<g id="node2" class="node">
<title>Node2</title>
<g id="a_node2"><a xlink:href="_m_l_c_l___binary_search_tree_8h.html" target="_top" xlink:title=" ">
<polygon fill="none" stroke="black" points="8.66,-112.5 8.66,-142.5 153.66,-142.5 153.66,-112.5 8.66,-112.5"/>
<text text-anchor="start" x="16.66" y="-130.5" font-family="Helvetica,sans-Serif" font-size="10.00">../../include/Trees</text>
<text text-anchor="middle" x="81.16" y="-119.5" font-family="Helvetica,sans-Serif" font-size="10.00">/MLCL_BinarySearchTree.h</text>
</a>
</g>
</g>
<!-- Node1&#45;&gt;Node2 -->
<g id="edge1" class="edge">
<title>Node1&#45;&gt;Node2</title>
<path fill="none" stroke="midnightblue" d="M190.78,-179.4C170.23,-169.86 142.89,-157.16 120.66,-146.84"/>
<polygon fill="midnightblue" stroke="midnightblue" points="122.02,-143.61 111.48,-142.58 119.07,-149.96 122.02,-143.61"/>
</g>
<!-- Node6 -->
<g id="node6" class="node">
<title>Node6</title>
<g id="a_node6"><a xlink:href="_m_l_c_l__utils_8h.html" target="_top" xlink:title=" ">
<polygon fill="none" stroke="black" points="171.66,-112.5 171.66,-142.5 270.66,-142.5 270.66,-112.5 171.66,-112.5"/>
<text text-anchor="start" x="179.66" y="-130.5" font-family="Helvetica,sans-Serif" font-size="10.00">../../include/MLCL</text>
<text text-anchor="middle" x="221.16" y="-119.5" font-family="Helvetica,sans-Serif" font-size="10.00">_utils.h</text>
</a>
</g>
</g>
<!-- Node1&#45;&gt;Node6 -->
<g id="edge7" class="edge">
<title>Node1&#45;&gt;Node6</title>
<path fill="none" stroke="midnightblue" d="M221.16,-179.4C221.16,-171.64 221.16,-161.81 221.16,-152.86"/>
<polygon fill="midnightblue" stroke="midnightblue" points="224.66,-152.58 221.16,-142.58 217.66,-152.58 224.66,-152.58"/>
</g>
<!-- Node7 -->
<g id="node7" class="node">
<title>Node7</title>
<g id="a_node7"><a xlink:title=" ">
<polygon fill="none" stroke="#bfbfbf" points="289.16,-118 289.16,-137 345.16,-137 345.16,-118 289.16,-118"/>
<text text-anchor="middle" x="317.16" y="-125" font-family="Helvetica,sans-Serif" font-size="10.00">assert.h</text>
</a>
</g>
</g>
<!-- Node1&#45;&gt;Node7 -->
<g id="edge8" class="edge">
<title>Node1&#45;&gt;Node7</title>
<path fill="none" stroke="midnightblue" d="M241.99,-179.4C257.94,-168.6 279.86,-153.76 295.91,-142.89"/>
<polygon fill="midnightblue" stroke="midnightblue" points="298.28,-145.51 304.59,-137.01 294.35,-139.72 298.28,-145.51"/>
</g>
<!-- Node3 -->
<g id="node3" class="node">
<title>Node3</title>
<g id="a_node3"><a xlink:href="_m_l_c_l___type_descriptor_8h.html" target="_top" xlink:title=" ">
<polygon fill="none" stroke="black" points="12.16,-56.5 12.16,-75.5 150.16,-75.5 150.16,-56.5 12.16,-56.5"/>
<text text-anchor="middle" x="81.16" y="-63.5" font-family="Helvetica,sans-Serif" font-size="10.00">../MLCL_TypeDescriptor.h</text>
</a>
</g>
</g>
<!-- Node2&#45;&gt;Node3 -->
<g id="edge2" class="edge">
<title>Node2&#45;&gt;Node3</title>
<path fill="none" stroke="midnightblue" d="M81.16,-112.4C81.16,-104.47 81.16,-94.46 81.16,-85.86"/>
<polygon fill="midnightblue" stroke="midnightblue" points="84.66,-85.66 81.16,-75.66 77.66,-85.66 84.66,-85.66"/>
</g>
<!-- Node4 -->
<g id="node4" class="node">
<title>Node4</title>
<g id="a_node4"><a xlink:title=" ">
<polygon fill="none" stroke="#bfbfbf" points="12.66,-0.5 12.66,-19.5 65.66,-19.5 65.66,-0.5 12.66,-0.5"/>
<text text-anchor="middle" x="39.16" y="-7.5" font-family="Helvetica,sans-Serif" font-size="10.00">stdlib.h</text>
</a>
</g>
</g>
<!-- Node2&#45;&gt;Node4 -->
<g id="edge5" class="edge">
<title>Node2&#45;&gt;Node4</title>
<path fill="none" stroke="midnightblue" d="M44.71,-112.46C28.95,-104.35 12.1,-92.44 3.16,-76 -6.01,-59.14 7.64,-39.92 20.68,-26.78"/>
<polygon fill="midnightblue" stroke="midnightblue" points="23.21,-29.2 28.11,-19.81 18.43,-24.1 23.21,-29.2"/>
</g>
<!-- Node5 -->
<g id="node5" class="node">
<title>Node5</title>
<g id="a_node5"><a xlink:title=" ">
<polygon fill="none" stroke="#bfbfbf" points="97.16,-0.5 97.16,-19.5 147.16,-19.5 147.16,-0.5 97.16,-0.5"/>
<text text-anchor="middle" x="122.16" y="-7.5" font-family="Helvetica,sans-Serif" font-size="10.00">stdio.h</text>
</a>
</g>
</g>
<!-- Node2&#45;&gt;Node5 -->
<g id="edge6" class="edge">
<title>Node2&#45;&gt;Node5</title>
<path fill="none" stroke="midnightblue" d="M117.61,-112.46C133.36,-104.35 150.22,-92.44 159.16,-76 168.39,-59.03 154.39,-39.82 141.05,-26.72"/>
<polygon fill="midnightblue" stroke="midnightblue" points="143.19,-23.94 133.45,-19.77 138.46,-29.1 143.19,-23.94"/>
</g>
<!-- Node3&#45;&gt;Node4 -->
<g id="edge3" class="edge">
<title>Node3&#45;&gt;Node4</title>
<path fill="none" stroke="midnightblue" d="M74.22,-56.08C68.23,-48.38 59.41,-37.03 52.11,-27.65"/>
<polygon fill="midnightblue" stroke="midnightblue" points="54.87,-25.5 45.97,-19.75 49.34,-29.79 54.87,-25.5"/>
</g>
<!-- Node3&#45;&gt;Node5 -->
<g id="edge4" class="edge">
<title>Node3&#45;&gt;Node5</title>
<path fill="none" stroke="midnightblue" d="M87.93,-56.08C93.72,-48.46 102.22,-37.26 109.3,-27.94"/>
<polygon fill="midnightblue" stroke="midnightblue" points="112.25,-29.83 115.51,-19.75 106.68,-25.6 112.25,-29.83"/>
</g>
</g>
</svg>
