<?xml version="1.0" encoding="UTF-8" standalone="no"?>
<!DOCTYPE svg PUBLIC "-//W3C//DTD SVG 1.1//EN"
 "http://www.w3.org/Graphics/SVG/1.1/DTD/svg11.dtd">
<!-- Generated by graphviz version 2.43.0 (0)
 -->
<!-- Title: src/Heap/MLCL_BinaryHeap.c Pages: 1 -->
<svg width="210pt" height="263pt"
 viewBox="0.00 0.00 210.00 263.00" xmlns="http://www.w3.org/2000/svg" xmlns:xlink="http://www.w3.org/1999/xlink">
<g id="graph0" class="graph" transform="scale(1 1) rotate(0) translate(4 259)">
<title>src/Heap/MLCL_BinaryHeap.c</title>
<!-- Node1 -->
<g id="node1" class="node">
<title>Node1</title>
<g id="a_node1"><a xlink:title=" ">
<polygon fill="#bfbfbf" stroke="black" points="41.5,-235.5 41.5,-254.5 200.5,-254.5 200.5,-235.5 41.5,-235.5"/>
<text text-anchor="middle" x="121" y="-242.5" font-family="Helvetica,sans-Serif" font-size="10.00">src/Heap/MLCL_BinaryHeap.c</text>
</a>
</g>
</g>
<!-- Node2 -->
<g id="node2" class="node">
<title>Node2</title>
<g id="a_node2"><a xlink:href="_m_l_c_l___binary_heap_8h.html" target="_top" xlink:title=" ">
<polygon fill="none" stroke="black" points="10.5,-168.5 10.5,-198.5 127.5,-198.5 127.5,-168.5 10.5,-168.5"/>
<text text-anchor="start" x="18.5" y="-186.5" font-family="Helvetica,sans-Serif" font-size="10.00">../../include/Heap</text>
<text text-anchor="middle" x="69" y="-175.5" font-family="Helvetica,sans-Serif" font-size="10.00">/MLCL_BinaryHeap.h</text>
</a>
</g>
</g>
<!-- Node1&#45;&gt;Node2 -->
<g id="edge1" class="edge">
<title>Node1&#45;&gt;Node2</title>
<path fill="none" stroke="midnightblue" d="M113.55,-235.48C106.9,-227.87 96.88,-216.4 88.02,-206.26"/>
<polygon fill="midnightblue" stroke="midnightblue" points="90.47,-203.75 81.26,-198.52 85.2,-208.36 90.47,-203.75"/>
</g>
<!-- Node7 -->
<g id="node7" class="node">
<title>Node7</title>
<g id="a_node7"><a xlink:title=" ">
<polygon fill="none" stroke="#bfbfbf" points="146,-174 146,-193 202,-193 202,-174 146,-174"/>
<text text-anchor="middle" x="174" y="-181" font-family="Helvetica,sans-Serif" font-size="10.00">assert.h</text>
</a>
</g>
</g>
<!-- Node1&#45;&gt;Node7 -->
<g id="edge6" class="edge">
<title>Node1&#45;&gt;Node7</title>
<path fill="none" stroke="midnightblue" d="M128.59,-235.48C136.7,-226.37 149.73,-211.74 159.76,-200.48"/>
<polygon fill="midnightblue" stroke="midnightblue" points="162.38,-202.8 166.42,-193.01 157.16,-198.15 162.38,-202.8"/>
</g>
<!-- Node3 -->
<g id="node3" class="node">
<title>Node3</title>
<g id="a_node3"><a xlink:href="_m_l_c_l___array_list_8h.html" target="_top" xlink:title=" ">
<polygon fill="none" stroke="black" points="1.5,-112.5 1.5,-131.5 136.5,-131.5 136.5,-112.5 1.5,-112.5"/>
<text text-anchor="middle" x="69" y="-119.5" font-family="Helvetica,sans-Serif" font-size="10.00">../Lists/MLCL_ArrayList.h</text>
</a>
</g>
</g>
<!-- Node2&#45;&gt;Node3 -->
<g id="edge2" class="edge">
<title>Node2&#45;&gt;Node3</title>
<path fill="none" stroke="midnightblue" d="M69,-168.4C69,-160.47 69,-150.46 69,-141.86"/>
<polygon fill="midnightblue" stroke="midnightblue" points="72.5,-141.66 69,-131.66 65.5,-141.66 72.5,-141.66"/>
</g>
<!-- Node4 -->
<g id="node4" class="node">
<title>Node4</title>
<g id="a_node4"><a xlink:href="_m_l_c_l___type_descriptor_8h.html" target="_top" xlink:title=" ">
<polygon fill="none" stroke="black" points="0,-56.5 0,-75.5 138,-75.5 138,-56.5 0,-56.5"/>
<text text-anchor="middle" x="69" y="-63.5" font-family="Helvetica,sans-Serif" font-size="10.00">../MLCL_TypeDescriptor.h</text>
</a>
</g>
</g>
<!-- Node3&#45;&gt;Node4 -->
<g id="edge3" class="edge">
<title>Node3&#45;&gt;Node4</title>
<path fill="none" stroke="midnightblue" d="M69,-112.08C69,-105.01 69,-94.86 69,-85.99"/>
<polygon fill="midnightblue" stroke="midnightblue" points="72.5,-85.75 69,-75.75 65.5,-85.75 72.5,-85.75"/>
</g>
<!-- Node5 -->
<g id="node5" class="node">
<title>Node5</title>
<g id="a_node5"><a xlink:title=" ">
<polygon fill="none" stroke="#bfbfbf" points="7.5,-0.5 7.5,-19.5 60.5,-19.5 60.5,-0.5 7.5,-0.5"/>
<text text-anchor="middle" x="34" y="-7.5" font-family="Helvetica,sans-Serif" font-size="10.00">stdlib.h</text>
</a>
</g>
</g>
<!-- Node4&#45;&gt;Node5 -->
<g id="edge4" class="edge">
<title>Node4&#45;&gt;Node5</title>
<path fill="none" stroke="midnightblue" d="M63.22,-56.08C58.33,-48.53 51.17,-37.49 45.17,-28.23"/>
<polygon fill="midnightblue" stroke="midnightblue" points="48.05,-26.24 39.67,-19.75 42.17,-30.05 48.05,-26.24"/>
</g>
<!-- Node6 -->
<g id="node6" class="node">
<title>Node6</title>
<g id="a_node6"><a xlink:title=" ">
<polygon fill="none" stroke="#bfbfbf" points="79,-0.5 79,-19.5 129,-19.5 129,-0.5 79,-0.5"/>
<text text-anchor="middle" x="104" y="-7.5" font-family="Helvetica,sans-Serif" font-size="10.00">stdio.h</text>
</a>
</g>
</g>
<!-- Node4&#45;&gt;Node6 -->
<g id="edge5" class="edge">
<title>Node4&#45;&gt;Node6</title>
<path fill="none" stroke="midnightblue" d="M74.78,-56.08C79.67,-48.53 86.83,-37.49 92.83,-28.23"/>
<polygon fill="midnightblue" stroke="midnightblue" points="95.83,-30.05 98.33,-19.75 89.95,-26.24 95.83,-30.05"/>
</g>
</g>
</svg>
