<?xml version="1.0" encoding="UTF-8" standalone="no"?>
<!DOCTYPE svg PUBLIC "-//W3C//DTD SVG 1.1//EN"
 "http://www.w3.org/Graphics/SVG/1.1/DTD/svg11.dtd">
<!-- Generated by graphviz version 2.43.0 (0)
 -->
<!-- Title: include/Lists/MLCL_LinkedList.h Pages: 1 -->
<svg width="695pt" height="296pt"
 viewBox="0.00 0.00 695.00 296.00" xmlns="http://www.w3.org/2000/svg" xmlns:xlink="http://www.w3.org/1999/xlink">
<g id="graph0" class="graph" transform="scale(1 1) rotate(0) translate(4 292)">
<title>include/Lists/MLCL_LinkedList.h</title>
<!-- Node1 -->
<g id="node1" class="node">
<title>Node1</title>
<g id="a_node1"><a xlink:title=" ">
<polygon fill="#bfbfbf" stroke="black" points="363.5,-257.5 363.5,-287.5 470.5,-287.5 470.5,-257.5 363.5,-257.5"/>
<text text-anchor="start" x="371.5" y="-275.5" font-family="Helvetica,sans-Serif" font-size="10.00">include/Lists/MLCL</text>
<text text-anchor="middle" x="417" y="-264.5" font-family="Helvetica,sans-Serif" font-size="10.00">_LinkedList.h</text>
</a>
</g>
</g>
<!-- Node2 -->
<g id="node2" class="node">
<title>Node2</title>
<g id="a_node2"><a xlink:href="_m_l_c_l___circular_linked_list_8h.html" target="_top" xlink:title=" ">
<polygon fill="none" stroke="black" points="211.5,-190.5 211.5,-220.5 328.5,-220.5 328.5,-190.5 211.5,-190.5"/>
<text text-anchor="start" x="219.5" y="-208.5" font-family="Helvetica,sans-Serif" font-size="10.00">include/Lists/MLCL</text>
<text text-anchor="middle" x="270" y="-197.5" font-family="Helvetica,sans-Serif" font-size="10.00">_CircularLinkedList.h</text>
</a>
</g>
</g>
<!-- Node1&#45;&gt;Node2 -->
<g id="edge1" class="edge">
<title>Node1&#45;&gt;Node2</title>
<path fill="none" stroke="midnightblue" d="M375.77,-253.27C352.36,-242.92 323.49,-230.15 301.83,-220.58"/>
<polygon fill="midnightblue" stroke="midnightblue" points="374.54,-256.55 385.1,-257.4 377.37,-250.15 374.54,-256.55"/>
</g>
<!-- Node4 -->
<g id="node4" class="node">
<title>Node4</title>
<g id="a_node4"><a xlink:href="_m_l_c_l___list_8h.html" target="_top" xlink:title=" ">
<polygon fill="none" stroke="black" points="336.5,-123.5 336.5,-153.5 443.5,-153.5 443.5,-123.5 336.5,-123.5"/>
<text text-anchor="start" x="344.5" y="-141.5" font-family="Helvetica,sans-Serif" font-size="10.00">include/Lists/MLCL</text>
<text text-anchor="middle" x="390" y="-130.5" font-family="Helvetica,sans-Serif" font-size="10.00">_List.h</text>
</a>
</g>
</g>
<!-- Node1&#45;&gt;Node4 -->
<g id="edge12" class="edge">
<title>Node1&#45;&gt;Node4</title>
<path fill="none" stroke="midnightblue" d="M402.92,-248.38C398.57,-240.05 394.32,-230.38 392,-221 386.3,-197.92 387.22,-170.03 388.53,-153.59"/>
<polygon fill="midnightblue" stroke="midnightblue" points="399.86,-250.08 407.77,-257.13 405.98,-246.69 399.86,-250.08"/>
</g>
<!-- Node12 -->
<g id="node12" class="node">
<title>Node12</title>
<g id="a_node12"><a xlink:href="_m_l_c_l___linked_list__test_8c.html" target="_top" xlink:title=" ">
<polygon fill="none" stroke="black" points="401.5,-190.5 401.5,-220.5 520.5,-220.5 520.5,-190.5 401.5,-190.5"/>
<text text-anchor="start" x="409.5" y="-208.5" font-family="Helvetica,sans-Serif" font-size="10.00">src/_Tests/Lists/MLCL</text>
<text text-anchor="middle" x="461" y="-197.5" font-family="Helvetica,sans-Serif" font-size="10.00">_LinkedList_test.c</text>
</a>
</g>
</g>
<!-- Node1&#45;&gt;Node12 -->
<g id="edge11" class="edge">
<title>Node1&#45;&gt;Node12</title>
<path fill="none" stroke="midnightblue" d="M432.32,-248.87C438.69,-239.46 445.88,-228.83 451.47,-220.58"/>
<polygon fill="midnightblue" stroke="midnightblue" points="429.25,-247.15 426.55,-257.4 435.05,-251.08 429.25,-247.15"/>
</g>
<!-- Node13 -->
<g id="node13" class="node">
<title>Node13</title>
<g id="a_node13"><a xlink:href="_m_l_c_l___linked_list_8c.html" target="_top" xlink:title=" ">
<polygon fill="none" stroke="black" points="539,-196 539,-215 687,-215 687,-196 539,-196"/>
<text text-anchor="middle" x="613" y="-203" font-family="Helvetica,sans-Serif" font-size="10.00">src/Lists/MLCL_LinkedList.c</text>
</a>
</g>
</g>
<!-- Node1&#45;&gt;Node13 -->
<g id="edge13" class="edge">
<title>Node1&#45;&gt;Node13</title>
<path fill="none" stroke="midnightblue" d="M469.44,-254.11C507.58,-241.46 557.54,-224.89 587.35,-215.01"/>
<polygon fill="midnightblue" stroke="midnightblue" points="467.92,-250.93 459.53,-257.4 470.12,-257.57 467.92,-250.93"/>
</g>
<!-- Node3 -->
<g id="node3" class="node">
<title>Node3</title>
<g id="a_node3"><a xlink:href="_m_l_c_l___circular_linked_list__test_8c.html" target="_top" xlink:title=" ">
<polygon fill="none" stroke="black" points="0,-123.5 0,-153.5 140,-153.5 140,-123.5 0,-123.5"/>
<text text-anchor="start" x="8" y="-141.5" font-family="Helvetica,sans-Serif" font-size="10.00">src/_Tests/Lists/MLCL</text>
<text text-anchor="middle" x="70" y="-130.5" font-family="Helvetica,sans-Serif" font-size="10.00">_CircularLinkedList_test.c</text>
</a>
</g>
</g>
<!-- Node2&#45;&gt;Node3 -->
<g id="edge2" class="edge">
<title>Node2&#45;&gt;Node3</title>
<path fill="none" stroke="midnightblue" d="M216.85,-187.23C184.5,-176.71 143.69,-163.45 113.31,-153.58"/>
<polygon fill="midnightblue" stroke="midnightblue" points="216.01,-190.63 226.6,-190.4 218.17,-183.98 216.01,-190.63"/>
</g>
<!-- Node2&#45;&gt;Node4 -->
<g id="edge3" class="edge">
<title>Node2&#45;&gt;Node4</title>
<path fill="none" stroke="midnightblue" d="M304.94,-185.57C323.82,-175.35 346.73,-162.94 364.01,-153.58"/>
<polygon fill="midnightblue" stroke="midnightblue" points="303.16,-182.56 296.04,-190.4 306.5,-188.71 303.16,-182.56"/>
</g>
<!-- Node11 -->
<g id="node11" class="node">
<title>Node11</title>
<g id="a_node11"><a xlink:href="_m_l_c_l___circular_linked_list_8c.html" target="_top" xlink:title=" ">
<polygon fill="none" stroke="black" points="158,-123.5 158,-153.5 318,-153.5 318,-123.5 158,-123.5"/>
<text text-anchor="start" x="166" y="-141.5" font-family="Helvetica,sans-Serif" font-size="10.00">src/Lists/MLCL_CircularLinked</text>
<text text-anchor="middle" x="238" y="-130.5" font-family="Helvetica,sans-Serif" font-size="10.00">List.c</text>
</a>
</g>
</g>
<!-- Node2&#45;&gt;Node11 -->
<g id="edge10" class="edge">
<title>Node2&#45;&gt;Node11</title>
<path fill="none" stroke="midnightblue" d="M258.57,-181.28C254.01,-172.02 248.91,-161.66 244.93,-153.58"/>
<polygon fill="midnightblue" stroke="midnightblue" points="255.5,-182.97 263.06,-190.4 261.78,-179.88 255.5,-182.97"/>
</g>
<!-- Node5 -->
<g id="node5" class="node">
<title>Node5</title>
<g id="a_node5"><a xlink:href="_m_l_c_l___list__test_8c.html" target="_top" xlink:title=" ">
<polygon fill="none" stroke="black" points="127.5,-56.5 127.5,-86.5 246.5,-86.5 246.5,-56.5 127.5,-56.5"/>
<text text-anchor="start" x="135.5" y="-74.5" font-family="Helvetica,sans-Serif" font-size="10.00">src/_Tests/Lists/MLCL</text>
<text text-anchor="middle" x="187" y="-63.5" font-family="Helvetica,sans-Serif" font-size="10.00">_List_test.c</text>
</a>
</g>
</g>
<!-- Node4&#45;&gt;Node5 -->
<g id="edge4" class="edge">
<title>Node4&#45;&gt;Node5</title>
<path fill="none" stroke="midnightblue" d="M336.06,-120.23C303.22,-109.71 261.8,-96.45 230.96,-86.58"/>
<polygon fill="midnightblue" stroke="midnightblue" points="335.36,-123.68 345.95,-123.4 337.5,-117.01 335.36,-123.68"/>
</g>
<!-- Node6 -->
<g id="node6" class="node">
<title>Node6</title>
<g id="a_node6"><a xlink:href="_m_l_c_l___list_8c.html" target="_top" xlink:title=" ">
<polygon fill="none" stroke="black" points="265,-62 265,-81 381,-81 381,-62 265,-62"/>
<text text-anchor="middle" x="323" y="-69" font-family="Helvetica,sans-Serif" font-size="10.00">src/Lists/MLCL_List.c</text>
</a>
</g>
</g>
<!-- Node4&#45;&gt;Node6 -->
<g id="edge5" class="edge">
<title>Node4&#45;&gt;Node6</title>
<path fill="none" stroke="midnightblue" d="M368.18,-116.34C355.88,-104.4 341.18,-90.14 331.96,-81.19"/>
<polygon fill="midnightblue" stroke="midnightblue" points="365.85,-118.94 375.46,-123.4 370.72,-113.92 365.85,-118.94"/>
</g>
<!-- Node7 -->
<g id="node7" class="node">
<title>Node7</title>
<g id="a_node7"><a xlink:href="_m_l_c_l___queue_8h.html" target="_top" xlink:title=" ">
<polygon fill="none" stroke="black" points="399,-56.5 399,-86.5 515,-86.5 515,-56.5 399,-56.5"/>
<text text-anchor="start" x="407" y="-74.5" font-family="Helvetica,sans-Serif" font-size="10.00">include/Queue/MLCL</text>
<text text-anchor="middle" x="457" y="-63.5" font-family="Helvetica,sans-Serif" font-size="10.00">_Queue.h</text>
</a>
</g>
</g>
<!-- Node4&#45;&gt;Node7 -->
<g id="edge6" class="edge">
<title>Node4&#45;&gt;Node7</title>
<path fill="none" stroke="midnightblue" d="M411.84,-116.31C421.89,-106.56 433.54,-95.26 442.49,-86.58"/>
<polygon fill="midnightblue" stroke="midnightblue" points="409.28,-113.92 404.54,-123.4 414.15,-118.94 409.28,-113.92"/>
</g>
<!-- Node9 -->
<g id="node9" class="node">
<title>Node9</title>
<g id="a_node9"><a xlink:href="_m_l_c_l___stack_8h.html" target="_top" xlink:title=" ">
<polygon fill="none" stroke="black" points="544.5,-56.5 544.5,-86.5 655.5,-86.5 655.5,-56.5 544.5,-56.5"/>
<text text-anchor="start" x="552.5" y="-74.5" font-family="Helvetica,sans-Serif" font-size="10.00">include/Stack/MLCL</text>
<text text-anchor="middle" x="600" y="-63.5" font-family="Helvetica,sans-Serif" font-size="10.00">_Stack.h</text>
</a>
</g>
</g>
<!-- Node4&#45;&gt;Node9 -->
<g id="edge8" class="edge">
<title>Node4&#45;&gt;Node9</title>
<path fill="none" stroke="midnightblue" d="M445.1,-120.44C479.14,-109.91 522.3,-96.55 554.41,-86.61"/>
<polygon fill="midnightblue" stroke="midnightblue" points="443.83,-117.18 435.31,-123.48 445.9,-123.86 443.83,-117.18"/>
</g>
<!-- Node8 -->
<g id="node8" class="node">
<title>Node8</title>
<g id="a_node8"><a xlink:href="_m_l_c_l___queue_8c.html" target="_top" xlink:title=" ">
<polygon fill="none" stroke="black" points="382,-0.5 382,-19.5 522,-19.5 522,-0.5 382,-0.5"/>
<text text-anchor="middle" x="452" y="-7.5" font-family="Helvetica,sans-Serif" font-size="10.00">src/Queue/MLCL_Queue.c</text>
</a>
</g>
</g>
<!-- Node7&#45;&gt;Node8 -->
<g id="edge7" class="edge">
<title>Node7&#45;&gt;Node8</title>
<path fill="none" stroke="midnightblue" d="M454.97,-46.29C454.17,-36.86 453.32,-26.65 452.73,-19.66"/>
<polygon fill="midnightblue" stroke="midnightblue" points="451.49,-46.73 455.82,-56.4 458.47,-46.14 451.49,-46.73"/>
</g>
<!-- Node10 -->
<g id="node10" class="node">
<title>Node10</title>
<g id="a_node10"><a xlink:href="_m_l_c_l___stack_8c.html" target="_top" xlink:title=" ">
<polygon fill="none" stroke="black" points="540.5,-0.5 540.5,-19.5 671.5,-19.5 671.5,-0.5 540.5,-0.5"/>
<text text-anchor="middle" x="606" y="-7.5" font-family="Helvetica,sans-Serif" font-size="10.00">src/Stack/MLCL_Stack.c</text>
</a>
</g>
</g>
<!-- Node9&#45;&gt;Node10 -->
<g id="edge9" class="edge">
<title>Node9&#45;&gt;Node10</title>
<path fill="none" stroke="midnightblue" d="M602.44,-46.29C603.39,-36.86 604.42,-26.65 605.13,-19.66"/>
<polygon fill="midnightblue" stroke="midnightblue" points="598.94,-46.1 601.42,-56.4 605.91,-46.8 598.94,-46.1"/>
</g>
</g>
</svg>
