<?xml version="1.0" encoding="UTF-8" standalone="no"?>
<!DOCTYPE svg PUBLIC "-//W3C//DTD SVG 1.1//EN"
 "http://www.w3.org/Graphics/SVG/1.1/DTD/svg11.dtd">
<!-- Generated by graphviz version 2.43.0 (0)
 -->
<!-- Title: include/MLCL_TypeDescriptor.h Pages: 1 -->
<svg width="2563pt" height="385pt"
 viewBox="0.00 0.00 2562.54 385.00" xmlns="http://www.w3.org/2000/svg" xmlns:xlink="http://www.w3.org/1999/xlink">
<g id="graph0" class="graph" transform="scale(1 1) rotate(0) translate(4 381)">
<title>include/MLCL_TypeDescriptor.h</title>
<!-- Node1 -->
<g id="node1" class="node">
<title>Node1</title>
<g id="a_node1"><a xlink:title=" ">
<polygon fill="#bfbfbf" stroke="black" points="1155.54,-357.5 1155.54,-376.5 1322.54,-376.5 1322.54,-357.5 1155.54,-357.5"/>
<text text-anchor="middle" x="1239.04" y="-364.5" font-family="Helvetica,sans-Serif" font-size="10.00">include/MLCL_TypeDescriptor.h</text>
</a>
</g>
</g>
<!-- Node2 -->
<g id="node2" class="node">
<title>Node2</title>
<g id="a_node2"><a xlink:href="_m_l_c_l___binary_heap__test_8c.html" target="_top" xlink:title=" ">
<polygon fill="none" stroke="black" points="167.04,-67.5 167.04,-97.5 289.04,-97.5 289.04,-67.5 167.04,-67.5"/>
<text text-anchor="start" x="175.04" y="-85.5" font-family="Helvetica,sans-Serif" font-size="10.00">src/_Tests/Heap/MLCL</text>
<text text-anchor="middle" x="228.04" y="-74.5" font-family="Helvetica,sans-Serif" font-size="10.00">_BinaryHeap_test.c</text>
</a>
</g>
</g>
<!-- Node1&#45;&gt;Node2 -->
<g id="edge1" class="edge">
<title>Node1&#45;&gt;Node2</title>
<path fill="none" stroke="midnightblue" d="M1145.37,-365.05C1002.96,-362.55 723.73,-353.53 489.04,-321 351.14,-301.88 315.31,-297.45 183.04,-254 102.14,-227.42 54.4,-247.43 8.04,-176 -31.89,-114.49 88.56,-93.82 166.71,-86.92"/>
<polygon fill="midnightblue" stroke="midnightblue" points="1145.33,-368.55 1155.38,-365.22 1145.44,-361.55 1145.33,-368.55"/>
</g>
<!-- Node3 -->
<g id="node3" class="node">
<title>Node3</title>
<g id="a_node3"><a xlink:href="_m_l_c_l__basic__types_8h.html" target="_top" xlink:title=" ">
<polygon fill="none" stroke="black" points="1056.04,-218 1056.04,-248 1168.04,-248 1168.04,-218 1056.04,-218"/>
<text text-anchor="start" x="1064.04" y="-236" font-family="Helvetica,sans-Serif" font-size="10.00">include/MLCL_basic</text>
<text text-anchor="middle" x="1112.04" y="-225" font-family="Helvetica,sans-Serif" font-size="10.00">_types.h</text>
</a>
</g>
</g>
<!-- Node1&#45;&gt;Node3 -->
<g id="edge2" class="edge">
<title>Node1&#45;&gt;Node3</title>
<path fill="none" stroke="midnightblue" d="M1218.24,-351.36C1207.01,-343.02 1193.21,-332.06 1182.04,-321 1158.21,-297.39 1134.62,-265.96 1121.83,-248.06"/>
<polygon fill="midnightblue" stroke="midnightblue" points="1216.45,-354.38 1226.6,-357.43 1220.57,-348.72 1216.45,-354.38"/>
</g>
<!-- Node13 -->
<g id="node13" class="node">
<title>Node13</title>
<g id="a_node13"><a xlink:href="_m_l_c_l___a_v_l_tree__test_8c.html" target="_top" xlink:title=" ">
<polygon fill="none" stroke="black" points="1178.04,-140 1178.04,-170 1300.04,-170 1300.04,-140 1178.04,-140"/>
<text text-anchor="start" x="1186.04" y="-158" font-family="Helvetica,sans-Serif" font-size="10.00">src/_Tests/Trees/MLCL</text>
<text text-anchor="middle" x="1239.04" y="-147" font-family="Helvetica,sans-Serif" font-size="10.00">_AVLTree_test.c</text>
</a>
</g>
</g>
<!-- Node1&#45;&gt;Node13 -->
<g id="edge51" class="edge">
<title>Node1&#45;&gt;Node13</title>
<path fill="none" stroke="midnightblue" d="M1227.28,-348.77C1222.48,-340.71 1217.48,-330.75 1215.04,-321 1203.29,-274 1205.3,-259.46 1215.04,-212 1218.1,-197.08 1225.31,-181.23 1231.04,-170.21"/>
<polygon fill="midnightblue" stroke="midnightblue" points="1224.35,-350.68 1232.67,-357.23 1230.25,-346.92 1224.35,-350.68"/>
</g>
<!-- Node16 -->
<g id="node16" class="node">
<title>Node16</title>
<g id="a_node16"><a xlink:href="_m_l_c_l___array_list_8h.html" target="_top" xlink:title=" ">
<polygon fill="none" stroke="black" points="498.54,-290.5 498.54,-320.5 605.54,-320.5 605.54,-290.5 498.54,-290.5"/>
<text text-anchor="start" x="506.54" y="-308.5" font-family="Helvetica,sans-Serif" font-size="10.00">include/Lists/MLCL</text>
<text text-anchor="middle" x="552.04" y="-297.5" font-family="Helvetica,sans-Serif" font-size="10.00">_ArrayList.h</text>
</a>
</g>
</g>
<!-- Node1&#45;&gt;Node16 -->
<g id="edge16" class="edge">
<title>Node1&#45;&gt;Node16</title>
<path fill="none" stroke="midnightblue" d="M1145.21,-357.87C999.25,-345.23 722.51,-321.26 605.95,-311.17"/>
<polygon fill="midnightblue" stroke="midnightblue" points="1145.22,-361.39 1155.49,-358.76 1145.83,-354.41 1145.22,-361.39"/>
</g>
<!-- Node29 -->
<g id="node29" class="node">
<title>Node29</title>
<g id="a_node29"><a xlink:href="_m_l_c_l___double_linked_list_8h.html" target="_top" xlink:title=" ">
<polygon fill="none" stroke="black" points="2154.04,-290.5 2154.04,-320.5 2268.04,-320.5 2268.04,-290.5 2154.04,-290.5"/>
<text text-anchor="start" x="2162.04" y="-308.5" font-family="Helvetica,sans-Serif" font-size="10.00">include/Lists/MLCL</text>
<text text-anchor="middle" x="2211.04" y="-297.5" font-family="Helvetica,sans-Serif" font-size="10.00">_DoubleLinkedList.h</text>
</a>
</g>
</g>
<!-- Node1&#45;&gt;Node29 -->
<g id="edge34" class="edge">
<title>Node1&#45;&gt;Node29</title>
<path fill="none" stroke="midnightblue" d="M1332.91,-360.25C1532.26,-348.05 1992.8,-319.86 2154.04,-309.99"/>
<polygon fill="midnightblue" stroke="midnightblue" points="1332.52,-356.77 1322.75,-360.88 1332.95,-363.76 1332.52,-356.77"/>
</g>
<!-- Node33 -->
<g id="node33" class="node">
<title>Node33</title>
<g id="a_node33"><a xlink:href="_m_l_c_l___linked_list_8h.html" target="_top" xlink:title=" ">
<polygon fill="none" stroke="black" points="1527.54,-290.5 1527.54,-320.5 1634.54,-320.5 1634.54,-290.5 1527.54,-290.5"/>
<text text-anchor="start" x="1535.54" y="-308.5" font-family="Helvetica,sans-Serif" font-size="10.00">include/Lists/MLCL</text>
<text text-anchor="middle" x="1581.04" y="-297.5" font-family="Helvetica,sans-Serif" font-size="10.00">_LinkedList.h</text>
</a>
</g>
</g>
<!-- Node1&#45;&gt;Node33 -->
<g id="edge43" class="edge">
<title>Node1&#45;&gt;Node33</title>
<path fill="none" stroke="midnightblue" d="M1298.05,-355.73C1362.56,-344.51 1465.01,-326.69 1527.34,-315.84"/>
<polygon fill="midnightblue" stroke="midnightblue" points="1297.29,-352.31 1288.04,-357.48 1298.49,-359.21 1297.29,-352.31"/>
</g>
<!-- Node37 -->
<g id="node37" class="node">
<title>Node37</title>
<g id="a_node37"><a xlink:href="_m_l_c_l___type_descriptor_8c.html" target="_top" xlink:title=" ">
<polygon fill="none" stroke="black" points="1653.04,-296 1653.04,-315 1799.04,-315 1799.04,-296 1653.04,-296"/>
<text text-anchor="middle" x="1726.04" y="-303" font-family="Helvetica,sans-Serif" font-size="10.00">src/MLCL_TypeDescriptor.c</text>
</a>
</g>
</g>
<!-- Node1&#45;&gt;Node37 -->
<g id="edge52" class="edge">
<title>Node1&#45;&gt;Node37</title>
<path fill="none" stroke="midnightblue" d="M1332.69,-357.32C1414.92,-349.29 1537.66,-336.3 1644.04,-321 1655.92,-319.29 1668.71,-317.17 1680.58,-315.08"/>
<polygon fill="midnightblue" stroke="midnightblue" points="1332.24,-353.85 1322.62,-358.3 1332.91,-360.81 1332.24,-353.85"/>
</g>
<!-- Node38 -->
<g id="node38" class="node">
<title>Node38</title>
<g id="a_node38"><a xlink:href="_m_l_c_l___binary_search_tree_8h.html" target="_top" xlink:title=" ">
<polygon fill="none" stroke="black" points="1224.04,-290.5 1224.04,-320.5 1340.04,-320.5 1340.04,-290.5 1224.04,-290.5"/>
<text text-anchor="start" x="1232.04" y="-308.5" font-family="Helvetica,sans-Serif" font-size="10.00">include/Trees/MLCL</text>
<text text-anchor="middle" x="1282.04" y="-297.5" font-family="Helvetica,sans-Serif" font-size="10.00">_BinarySearchTree.h</text>
</a>
</g>
</g>
<!-- Node1&#45;&gt;Node38 -->
<g id="edge53" class="edge">
<title>Node1&#45;&gt;Node38</title>
<path fill="none" stroke="midnightblue" d="M1251.15,-349.25C1257.69,-340.19 1265.69,-329.12 1271.9,-320.52"/>
<polygon fill="midnightblue" stroke="midnightblue" points="1248.22,-347.32 1245.2,-357.48 1253.89,-351.42 1248.22,-347.32"/>
</g>
<!-- Node3&#45;&gt;Node2 -->
<g id="edge3" class="edge">
<title>Node3&#45;&gt;Node2</title>
<path fill="none" stroke="midnightblue" d="M1045.64,-227.98C948.21,-221.19 771.98,-205.23 716.04,-176 693.46,-164.2 699.88,-145.28 677.04,-134 601.18,-96.55 381.7,-110.6 298.04,-98 295.09,-97.56 292.09,-97.07 289.05,-96.55"/>
<polygon fill="midnightblue" stroke="midnightblue" points="1045.47,-231.48 1055.68,-228.67 1045.95,-224.49 1045.47,-231.48"/>
</g>
<!-- Node4 -->
<g id="node4" class="node">
<title>Node4</title>
<g id="a_node4"><a xlink:href="_m_l_c_l___array_list__test_8c.html" target="_top" xlink:title=" ">
<polygon fill="none" stroke="black" points="392.54,-140 392.54,-170 511.54,-170 511.54,-140 392.54,-140"/>
<text text-anchor="start" x="400.54" y="-158" font-family="Helvetica,sans-Serif" font-size="10.00">src/_Tests/Lists/MLCL</text>
<text text-anchor="middle" x="452.04" y="-147" font-family="Helvetica,sans-Serif" font-size="10.00">_ArrayList_test.c</text>
</a>
</g>
</g>
<!-- Node3&#45;&gt;Node4 -->
<g id="edge4" class="edge">
<title>Node3&#45;&gt;Node4</title>
<path fill="none" stroke="midnightblue" d="M1045.89,-227.35C913.32,-217.77 619.33,-195.12 520.04,-176 511.94,-174.44 503.43,-172.33 495.27,-170.06"/>
<polygon fill="midnightblue" stroke="midnightblue" points="1045.69,-230.84 1055.91,-228.07 1046.19,-223.86 1045.69,-230.84"/>
</g>
<!-- Node5 -->
<g id="node5" class="node">
<title>Node5</title>
<g id="a_node5"><a xlink:href="_m_l_c_l___circular_double_linked_list__test_8c.html" target="_top" xlink:title=" ">
<polygon fill="none" stroke="black" points="2105.54,-134.5 2105.54,-175.5 2248.54,-175.5 2248.54,-134.5 2105.54,-134.5"/>
<text text-anchor="start" x="2113.54" y="-163.5" font-family="Helvetica,sans-Serif" font-size="10.00">src/_Tests/Lists/MLCL</text>
<text text-anchor="start" x="2113.54" y="-152.5" font-family="Helvetica,sans-Serif" font-size="10.00">_CircularDoubleLinkedList</text>
<text text-anchor="middle" x="2177.04" y="-141.5" font-family="Helvetica,sans-Serif" font-size="10.00">_test.c</text>
</a>
</g>
</g>
<!-- Node3&#45;&gt;Node5 -->
<g id="edge5" class="edge">
<title>Node3&#45;&gt;Node5</title>
<path fill="none" stroke="midnightblue" d="M1178.29,-217.61C1190.46,-215.4 1203.09,-213.4 1215.04,-212 1604.72,-166.48 1708.71,-231.87 2097.04,-176 2099.73,-175.61 2102.46,-175.17 2105.22,-174.69"/>
<polygon fill="midnightblue" stroke="midnightblue" points="1177.38,-214.22 1168.2,-219.5 1178.67,-221.1 1177.38,-214.22"/>
</g>
<!-- Node6 -->
<g id="node6" class="node">
<title>Node6</title>
<g id="a_node6"><a xlink:href="_m_l_c_l___circular_linked_list__test_8c.html" target="_top" xlink:title=" ">
<polygon fill="none" stroke="black" points="1456.04,-140 1456.04,-170 1596.04,-170 1596.04,-140 1456.04,-140"/>
<text text-anchor="start" x="1464.04" y="-158" font-family="Helvetica,sans-Serif" font-size="10.00">src/_Tests/Lists/MLCL</text>
<text text-anchor="middle" x="1526.04" y="-147" font-family="Helvetica,sans-Serif" font-size="10.00">_CircularLinkedList_test.c</text>
</a>
</g>
</g>
<!-- Node3&#45;&gt;Node6 -->
<g id="edge6" class="edge">
<title>Node3&#45;&gt;Node6</title>
<path fill="none" stroke="midnightblue" d="M1178.23,-218.76C1190.46,-216.43 1203.12,-214.08 1215.04,-212 1317.83,-194.05 1344.79,-196.83 1447.04,-176 1455.63,-174.25 1464.7,-172.17 1473.5,-170.03"/>
<polygon fill="midnightblue" stroke="midnightblue" points="1177.25,-215.39 1168.1,-220.72 1178.58,-222.26 1177.25,-215.39"/>
</g>
<!-- Node7 -->
<g id="node7" class="node">
<title>Node7</title>
<g id="a_node7"><a xlink:href="_m_l_c_l___double_linked_list__test_8c.html" target="_top" xlink:title=" ">
<polygon fill="none" stroke="black" points="1950.54,-140 1950.54,-170 2087.54,-170 2087.54,-140 1950.54,-140"/>
<text text-anchor="start" x="1958.54" y="-158" font-family="Helvetica,sans-Serif" font-size="10.00">src/_Tests/Lists/MLCL</text>
<text text-anchor="middle" x="2019.04" y="-147" font-family="Helvetica,sans-Serif" font-size="10.00">_DoubleLinkedList_test.c</text>
</a>
</g>
</g>
<!-- Node3&#45;&gt;Node7 -->
<g id="edge7" class="edge">
<title>Node3&#45;&gt;Node7</title>
<path fill="none" stroke="midnightblue" d="M1178.3,-217.7C1190.47,-215.48 1203.1,-213.45 1215.04,-212 1535.75,-173.11 1621.62,-224.37 1941.04,-176 1950.71,-174.53 1960.93,-172.38 1970.67,-170.01"/>
<polygon fill="midnightblue" stroke="midnightblue" points="1177.39,-214.31 1168.21,-219.59 1178.68,-221.18 1177.39,-214.31"/>
</g>
<!-- Node8 -->
<g id="node8" class="node">
<title>Node8</title>
<g id="a_node8"><a xlink:href="_m_l_c_l___linked_list__test_8c.html" target="_top" xlink:title=" ">
<polygon fill="none" stroke="black" points="1318.54,-140 1318.54,-170 1437.54,-170 1437.54,-140 1318.54,-140"/>
<text text-anchor="start" x="1326.54" y="-158" font-family="Helvetica,sans-Serif" font-size="10.00">src/_Tests/Lists/MLCL</text>
<text text-anchor="middle" x="1378.04" y="-147" font-family="Helvetica,sans-Serif" font-size="10.00">_LinkedList_test.c</text>
</a>
</g>
</g>
<!-- Node3&#45;&gt;Node8 -->
<g id="edge8" class="edge">
<title>Node3&#45;&gt;Node8</title>
<path fill="none" stroke="midnightblue" d="M1171.5,-215.18C1210.6,-204.11 1262.88,-189.25 1309.04,-176 1315.75,-174.07 1322.83,-172.03 1329.79,-170.02"/>
<polygon fill="midnightblue" stroke="midnightblue" points="1170.52,-211.82 1161.85,-217.92 1172.43,-218.56 1170.52,-211.82"/>
</g>
<!-- Node9 -->
<g id="node9" class="node">
<title>Node9</title>
<g id="a_node9"><a xlink:href="_m_l_c_l___list__test_8c.html" target="_top" xlink:title=" ">
<polygon fill="none" stroke="black" points="1102.54,-67.5 1102.54,-97.5 1221.54,-97.5 1221.54,-67.5 1102.54,-67.5"/>
<text text-anchor="start" x="1110.54" y="-85.5" font-family="Helvetica,sans-Serif" font-size="10.00">src/_Tests/Lists/MLCL</text>
<text text-anchor="middle" x="1162.04" y="-74.5" font-family="Helvetica,sans-Serif" font-size="10.00">_List_test.c</text>
</a>
</g>
</g>
<!-- Node3&#45;&gt;Node9 -->
<g id="edge9" class="edge">
<title>Node3&#45;&gt;Node9</title>
<path fill="none" stroke="midnightblue" d="M1116.31,-207.84C1120.25,-187.71 1126.89,-158.48 1136.04,-134 1140.81,-121.25 1147.99,-107.57 1153.6,-97.67"/>
<polygon fill="midnightblue" stroke="midnightblue" points="1112.86,-207.26 1114.44,-217.73 1119.73,-208.55 1112.86,-207.26"/>
</g>
<!-- Node10 -->
<g id="node10" class="node">
<title>Node10</title>
<g id="a_node10"><a xlink:href="_m_l_c_l___type_descriptor__test_8c.html" target="_top" xlink:title=" ">
<polygon fill="none" stroke="black" points="874.54,-140 874.54,-170 1045.54,-170 1045.54,-140 874.54,-140"/>
<text text-anchor="start" x="882.54" y="-158" font-family="Helvetica,sans-Serif" font-size="10.00">src/_Tests/MLCL_TypeDescriptor</text>
<text text-anchor="middle" x="960.04" y="-147" font-family="Helvetica,sans-Serif" font-size="10.00">_test.c</text>
</a>
</g>
</g>
<!-- Node3&#45;&gt;Node10 -->
<g id="edge10" class="edge">
<title>Node3&#45;&gt;Node10</title>
<path fill="none" stroke="midnightblue" d="M1074.74,-213.35C1047.98,-199.97 1012.5,-182.23 988.12,-170.04"/>
<polygon fill="midnightblue" stroke="midnightblue" points="1073.3,-216.54 1083.81,-217.88 1076.43,-210.28 1073.3,-216.54"/>
</g>
<!-- Node11 -->
<g id="node11" class="node">
<title>Node11</title>
<g id="a_node11"><a xlink:href="_m_l_c_l___queue__test_8c.html" target="_top" xlink:title=" ">
<polygon fill="none" stroke="black" points="1046.04,-0.5 1046.04,-30.5 1174.04,-30.5 1174.04,-0.5 1046.04,-0.5"/>
<text text-anchor="start" x="1054.04" y="-18.5" font-family="Helvetica,sans-Serif" font-size="10.00">src/_Tests/Queue/MLCL</text>
<text text-anchor="middle" x="1110.04" y="-7.5" font-family="Helvetica,sans-Serif" font-size="10.00">_Queue_test.c</text>
</a>
</g>
</g>
<!-- Node3&#45;&gt;Node11 -->
<g id="edge11" class="edge">
<title>Node3&#45;&gt;Node11</title>
<path fill="none" stroke="midnightblue" d="M1105.11,-207.96C1096.78,-175.75 1084.87,-116.85 1093.04,-67 1095.1,-54.4 1099.88,-40.71 1103.85,-30.77"/>
<polygon fill="midnightblue" stroke="midnightblue" points="1101.79,-209.07 1107.77,-217.81 1108.55,-207.24 1101.79,-209.07"/>
</g>
<!-- Node12 -->
<g id="node12" class="node">
<title>Node12</title>
<g id="a_node12"><a xlink:href="_m_l_c_l___stack__test_8c.html" target="_top" xlink:title=" ">
<polygon fill="none" stroke="black" points="1750.54,-0.5 1750.54,-30.5 1873.54,-30.5 1873.54,-0.5 1750.54,-0.5"/>
<text text-anchor="start" x="1758.54" y="-18.5" font-family="Helvetica,sans-Serif" font-size="10.00">src/_Tests/Stack/MLCL</text>
<text text-anchor="middle" x="1812.04" y="-7.5" font-family="Helvetica,sans-Serif" font-size="10.00">_Stack_test.c</text>
</a>
</g>
</g>
<!-- Node3&#45;&gt;Node12 -->
<g id="edge12" class="edge">
<title>Node3&#45;&gt;Node12</title>
<path fill="none" stroke="midnightblue" d="M1122.71,-208.81C1135.07,-182.96 1155.47,-143.53 1169.04,-134 1169.41,-133.74 1589.59,-57.07 1750.43,-27.74"/>
<polygon fill="midnightblue" stroke="midnightblue" points="1119.5,-207.42 1118.4,-217.96 1125.83,-210.41 1119.5,-207.42"/>
</g>
<!-- Node3&#45;&gt;Node13 -->
<g id="edge13" class="edge">
<title>Node3&#45;&gt;Node13</title>
<path fill="none" stroke="midnightblue" d="M1144.38,-212.64C1166.59,-199.35 1195.56,-182.02 1215.58,-170.04"/>
<polygon fill="midnightblue" stroke="midnightblue" points="1142.41,-209.74 1135.63,-217.88 1146.01,-215.75 1142.41,-209.74"/>
</g>
<!-- Node14 -->
<g id="node14" class="node">
<title>Node14</title>
<g id="a_node14"><a xlink:href="_m_l_c_l___binary_search_tree__test_8c.html" target="_top" xlink:title=" ">
<polygon fill="none" stroke="black" points="529.54,-140 529.54,-170 668.54,-170 668.54,-140 529.54,-140"/>
<text text-anchor="start" x="537.54" y="-158" font-family="Helvetica,sans-Serif" font-size="10.00">src/_Tests/Trees/MLCL</text>
<text text-anchor="middle" x="599.04" y="-147" font-family="Helvetica,sans-Serif" font-size="10.00">_BinarySearchTree_test.c</text>
</a>
</g>
</g>
<!-- Node3&#45;&gt;Node14 -->
<g id="edge14" class="edge">
<title>Node3&#45;&gt;Node14</title>
<path fill="none" stroke="midnightblue" d="M1045.9,-225.52C961.35,-216.75 810.64,-199.45 683.04,-176 673.75,-174.29 663.95,-172.21 654.44,-170.05"/>
<polygon fill="midnightblue" stroke="midnightblue" points="1045.57,-229.01 1055.87,-226.55 1046.29,-222.04 1045.57,-229.01"/>
</g>
<!-- Node15 -->
<g id="node15" class="node">
<title>Node15</title>
<g id="a_node15"><a xlink:href="_m_l_c_l__basic__types_8c.html" target="_top" xlink:title=" ">
<polygon fill="none" stroke="black" points="725.54,-145.5 725.54,-164.5 856.54,-164.5 856.54,-145.5 725.54,-145.5"/>
<text text-anchor="middle" x="791.04" y="-152.5" font-family="Helvetica,sans-Serif" font-size="10.00">src/MLCL_basic_types.c</text>
</a>
</g>
</g>
<!-- Node3&#45;&gt;Node15 -->
<g id="edge15" class="edge">
<title>Node3&#45;&gt;Node15</title>
<path fill="none" stroke="midnightblue" d="M1045.96,-217.79C996.12,-206.88 926.12,-191.17 865.04,-176 850.7,-172.44 834.89,-168.21 821.57,-164.55"/>
<polygon fill="midnightblue" stroke="midnightblue" points="1045.45,-221.26 1055.97,-219.97 1046.94,-214.42 1045.45,-221.26"/>
</g>
<!-- Node16&#45;&gt;Node4 -->
<g id="edge17" class="edge">
<title>Node16&#45;&gt;Node4</title>
<path fill="none" stroke="midnightblue" d="M507.57,-285.54C493.92,-277.66 480.13,-267.22 471.04,-254 453.46,-228.44 451.18,-190.71 451.39,-170.33"/>
<polygon fill="midnightblue" stroke="midnightblue" points="506,-288.67 516.46,-290.34 509.33,-282.51 506,-288.67"/>
</g>
<!-- Node17 -->
<g id="node17" class="node">
<title>Node17</title>
<g id="a_node17"><a xlink:href="_m_l_c_l___list_8h.html" target="_top" xlink:title=" ">
<polygon fill="none" stroke="black" points="2266.54,-140 2266.54,-170 2373.54,-170 2373.54,-140 2266.54,-140"/>
<text text-anchor="start" x="2274.54" y="-158" font-family="Helvetica,sans-Serif" font-size="10.00">include/Lists/MLCL</text>
<text text-anchor="middle" x="2320.04" y="-147" font-family="Helvetica,sans-Serif" font-size="10.00">_List.h</text>
</a>
</g>
</g>
<!-- Node16&#45;&gt;Node17 -->
<g id="edge18" class="edge">
<title>Node16&#45;&gt;Node17</title>
<path fill="none" stroke="midnightblue" d="M615.55,-303.04C848.36,-297.52 1644.06,-277.04 1693.04,-254 1715.82,-243.28 1708.39,-222.99 1731.04,-212 1836.65,-160.75 2142.77,-198.18 2258.04,-176 2265.7,-174.53 2273.74,-172.39 2281.39,-170.06"/>
<polygon fill="midnightblue" stroke="midnightblue" points="615.46,-299.54 605.54,-303.28 615.62,-306.54 615.46,-299.54"/>
</g>
<!-- Node23 -->
<g id="node23" class="node">
<title>Node23</title>
<g id="a_node23"><a xlink:href="_m_l_c_l___binary_heap_8h.html" target="_top" xlink:title=" ">
<polygon fill="none" stroke="black" points="192.04,-218 192.04,-248 338.04,-248 338.04,-218 192.04,-218"/>
<text text-anchor="start" x="200.04" y="-236" font-family="Helvetica,sans-Serif" font-size="10.00">include/Heap/MLCL_Binary</text>
<text text-anchor="middle" x="265.04" y="-225" font-family="Helvetica,sans-Serif" font-size="10.00">Heap.h</text>
</a>
</g>
</g>
<!-- Node16&#45;&gt;Node23 -->
<g id="edge27" class="edge">
<title>Node16&#45;&gt;Node23</title>
<path fill="none" stroke="midnightblue" d="M488.41,-288.87C438.74,-276.67 370.34,-259.87 322.36,-248.08"/>
<polygon fill="midnightblue" stroke="midnightblue" points="487.85,-292.34 498.39,-291.32 489.52,-285.54 487.85,-292.34"/>
</g>
<!-- Node28 -->
<g id="node28" class="node">
<title>Node28</title>
<g id="a_node28"><a xlink:href="_m_l_c_l___array_list_8c.html" target="_top" xlink:title=" ">
<polygon fill="none" stroke="black" points="480.54,-223.5 480.54,-242.5 623.54,-242.5 623.54,-223.5 480.54,-223.5"/>
<text text-anchor="middle" x="552.04" y="-230.5" font-family="Helvetica,sans-Serif" font-size="10.00">src/Lists/MLCL_ArrayList.c</text>
</a>
</g>
</g>
<!-- Node16&#45;&gt;Node28 -->
<g id="edge33" class="edge">
<title>Node16&#45;&gt;Node28</title>
<path fill="none" stroke="midnightblue" d="M552.04,-280.09C552.04,-267.21 552.04,-252.2 552.04,-242.89"/>
<polygon fill="midnightblue" stroke="midnightblue" points="548.54,-280.23 552.04,-290.23 555.54,-280.23 548.54,-280.23"/>
</g>
<!-- Node17&#45;&gt;Node9 -->
<g id="edge19" class="edge">
<title>Node17&#45;&gt;Node9</title>
<path fill="none" stroke="midnightblue" d="M2272.36,-137.17C2267.57,-135.92 2262.74,-134.82 2258.04,-134 1808.17,-55.14 1684.42,-153.17 1231.04,-98 1228,-97.63 1224.9,-97.19 1221.77,-96.71"/>
<polygon fill="midnightblue" stroke="midnightblue" points="2271.52,-140.57 2282.09,-139.93 2273.43,-133.84 2271.52,-140.57"/>
</g>
<!-- Node18 -->
<g id="node18" class="node">
<title>Node18</title>
<g id="a_node18"><a xlink:href="_m_l_c_l___queue_8h.html" target="_top" xlink:title=" ">
<polygon fill="none" stroke="black" points="1240.04,-67.5 1240.04,-97.5 1356.04,-97.5 1356.04,-67.5 1240.04,-67.5"/>
<text text-anchor="start" x="1248.04" y="-85.5" font-family="Helvetica,sans-Serif" font-size="10.00">include/Queue/MLCL</text>
<text text-anchor="middle" x="1298.04" y="-74.5" font-family="Helvetica,sans-Serif" font-size="10.00">_Queue.h</text>
</a>
</g>
</g>
<!-- Node17&#45;&gt;Node18 -->
<g id="edge20" class="edge">
<title>Node17&#45;&gt;Node18</title>
<path fill="none" stroke="midnightblue" d="M2271.77,-137.11C2267.17,-135.9 2262.54,-134.83 2258.04,-134 2083.55,-101.83 1536.66,-88.26 1356.35,-84.59"/>
<polygon fill="midnightblue" stroke="midnightblue" points="2271.17,-140.57 2281.74,-139.94 2273.08,-133.84 2271.17,-140.57"/>
</g>
<!-- Node20 -->
<g id="node20" class="node">
<title>Node20</title>
<g id="a_node20"><a xlink:href="_m_l_c_l___stack_8h.html" target="_top" xlink:title=" ">
<polygon fill="none" stroke="black" points="2264.54,-67.5 2264.54,-97.5 2375.54,-97.5 2375.54,-67.5 2264.54,-67.5"/>
<text text-anchor="start" x="2272.54" y="-85.5" font-family="Helvetica,sans-Serif" font-size="10.00">include/Stack/MLCL</text>
<text text-anchor="middle" x="2320.04" y="-74.5" font-family="Helvetica,sans-Serif" font-size="10.00">_Stack.h</text>
</a>
</g>
</g>
<!-- Node17&#45;&gt;Node20 -->
<g id="edge23" class="edge">
<title>Node17&#45;&gt;Node20</title>
<path fill="none" stroke="midnightblue" d="M2320.04,-129.73C2320.04,-119.07 2320.04,-106.91 2320.04,-97.75"/>
<polygon fill="midnightblue" stroke="midnightblue" points="2316.54,-129.73 2320.04,-139.73 2323.54,-129.73 2316.54,-129.73"/>
</g>
<!-- Node22 -->
<g id="node22" class="node">
<title>Node22</title>
<g id="a_node22"><a xlink:href="_m_l_c_l___list_8c.html" target="_top" xlink:title=" ">
<polygon fill="none" stroke="black" points="2130.04,-73 2130.04,-92 2246.04,-92 2246.04,-73 2130.04,-73"/>
<text text-anchor="middle" x="2188.04" y="-80" font-family="Helvetica,sans-Serif" font-size="10.00">src/Lists/MLCL_List.c</text>
</a>
</g>
</g>
<!-- Node17&#45;&gt;Node22 -->
<g id="edge26" class="edge">
<title>Node17&#45;&gt;Node22</title>
<path fill="none" stroke="midnightblue" d="M2284.75,-135.15C2258.5,-121.13 2223.92,-102.66 2204.02,-92.03"/>
<polygon fill="midnightblue" stroke="midnightblue" points="2283.17,-138.28 2293.64,-139.9 2286.47,-132.1 2283.17,-138.28"/>
</g>
<!-- Node18&#45;&gt;Node11 -->
<g id="edge21" class="edge">
<title>Node18&#45;&gt;Node11</title>
<path fill="none" stroke="midnightblue" d="M1247.69,-64.09C1217.34,-53.6 1179.19,-40.41 1150.75,-30.58"/>
<polygon fill="midnightblue" stroke="midnightblue" points="1246.65,-67.44 1257.25,-67.4 1248.94,-60.82 1246.65,-67.44"/>
</g>
<!-- Node19 -->
<g id="node19" class="node">
<title>Node19</title>
<g id="a_node19"><a xlink:href="_m_l_c_l___queue_8c.html" target="_top" xlink:title=" ">
<polygon fill="none" stroke="black" points="1228.04,-6 1228.04,-25 1368.04,-25 1368.04,-6 1228.04,-6"/>
<text text-anchor="middle" x="1298.04" y="-13" font-family="Helvetica,sans-Serif" font-size="10.00">src/Queue/MLCL_Queue.c</text>
</a>
</g>
</g>
<!-- Node18&#45;&gt;Node19 -->
<g id="edge22" class="edge">
<title>Node18&#45;&gt;Node19</title>
<path fill="none" stroke="midnightblue" d="M1298.04,-57.25C1298.04,-46.02 1298.04,-33.38 1298.04,-25.19"/>
<polygon fill="midnightblue" stroke="midnightblue" points="1294.54,-57.4 1298.04,-67.4 1301.54,-57.4 1294.54,-57.4"/>
</g>
<!-- Node20&#45;&gt;Node12 -->
<g id="edge24" class="edge">
<title>Node20&#45;&gt;Node12</title>
<path fill="none" stroke="midnightblue" d="M2254.25,-66.99C2112.26,-43.54 1957.41,-28.63 1873.6,-21.44"/>
<polygon fill="midnightblue" stroke="midnightblue" points="2254.01,-70.5 2264.45,-68.69 2255.16,-63.59 2254.01,-70.5"/>
</g>
<!-- Node21 -->
<g id="node21" class="node">
<title>Node21</title>
<g id="a_node21"><a xlink:href="_m_l_c_l___stack_8c.html" target="_top" xlink:title=" ">
<polygon fill="none" stroke="black" points="2254.54,-6 2254.54,-25 2385.54,-25 2385.54,-6 2254.54,-6"/>
<text text-anchor="middle" x="2320.04" y="-13" font-family="Helvetica,sans-Serif" font-size="10.00">src/Stack/MLCL_Stack.c</text>
</a>
</g>
</g>
<!-- Node20&#45;&gt;Node21 -->
<g id="edge25" class="edge">
<title>Node20&#45;&gt;Node21</title>
<path fill="none" stroke="midnightblue" d="M2320.04,-57.25C2320.04,-46.02 2320.04,-33.38 2320.04,-25.19"/>
<polygon fill="midnightblue" stroke="midnightblue" points="2316.54,-57.4 2320.04,-67.4 2323.54,-57.4 2316.54,-57.4"/>
</g>
<!-- Node24 -->
<g id="node24" class="node">
<title>Node24</title>
<g id="a_node24"><a xlink:href="_m_l_c_l___binary_heap__test_8h.html" target="_top" xlink:title=" ">
<polygon fill="none" stroke="black" points="194.54,-140 194.54,-170 335.54,-170 335.54,-140 194.54,-140"/>
<text text-anchor="start" x="202.54" y="-158" font-family="Helvetica,sans-Serif" font-size="10.00">include/_Tests/Heap</text>
<text text-anchor="middle" x="265.04" y="-147" font-family="Helvetica,sans-Serif" font-size="10.00">/MLCL_BinaryHeap_test.h</text>
</a>
</g>
</g>
<!-- Node23&#45;&gt;Node24 -->
<g id="edge28" class="edge">
<title>Node23&#45;&gt;Node24</title>
<path fill="none" stroke="midnightblue" d="M265.04,-207.59C265.04,-195.26 265.04,-180.72 265.04,-170.23"/>
<polygon fill="midnightblue" stroke="midnightblue" points="261.54,-207.7 265.04,-217.7 268.54,-207.71 261.54,-207.7"/>
</g>
<!-- Node27 -->
<g id="node27" class="node">
<title>Node27</title>
<g id="a_node27"><a xlink:href="_m_l_c_l___binary_heap_8c.html" target="_top" xlink:title=" ">
<polygon fill="none" stroke="black" points="17.54,-145.5 17.54,-164.5 176.54,-164.5 176.54,-145.5 17.54,-145.5"/>
<text text-anchor="middle" x="97.04" y="-152.5" font-family="Helvetica,sans-Serif" font-size="10.00">src/Heap/MLCL_BinaryHeap.c</text>
</a>
</g>
</g>
<!-- Node23&#45;&gt;Node27 -->
<g id="edge32" class="edge">
<title>Node23&#45;&gt;Node27</title>
<path fill="none" stroke="midnightblue" d="M224.51,-213.67C190.11,-198.1 142.26,-176.46 116.06,-164.61"/>
<polygon fill="midnightblue" stroke="midnightblue" points="223.28,-216.95 233.83,-217.88 226.16,-210.57 223.28,-216.95"/>
</g>
<!-- Node24&#45;&gt;Node2 -->
<g id="edge29" class="edge">
<title>Node24&#45;&gt;Node2</title>
<path fill="none" stroke="midnightblue" d="M252.82,-130.73C247.11,-119.83 240.48,-107.2 235.52,-97.75"/>
<polygon fill="midnightblue" stroke="midnightblue" points="249.81,-132.51 257.55,-139.73 256,-129.25 249.81,-132.51"/>
</g>
<!-- Node25 -->
<g id="node25" class="node">
<title>Node25</title>
<g id="a_node25"><a xlink:href="_m_l_c_l__all__tests_8h.html" target="_top" xlink:title=" ">
<polygon fill="none" stroke="black" points="307.04,-67.5 307.04,-97.5 421.04,-97.5 421.04,-67.5 307.04,-67.5"/>
<text text-anchor="start" x="315.04" y="-85.5" font-family="Helvetica,sans-Serif" font-size="10.00">include/_Tests/MLCL</text>
<text text-anchor="middle" x="364.04" y="-74.5" font-family="Helvetica,sans-Serif" font-size="10.00">_all_tests.h</text>
</a>
</g>
</g>
<!-- Node24&#45;&gt;Node25 -->
<g id="edge30" class="edge">
<title>Node24&#45;&gt;Node25</title>
<path fill="none" stroke="midnightblue" d="M293.22,-133.93C309.56,-122.29 329.74,-107.92 344.37,-97.5"/>
<polygon fill="midnightblue" stroke="midnightblue" points="291.19,-131.08 285.07,-139.73 295.25,-136.78 291.19,-131.08"/>
</g>
<!-- Node26 -->
<g id="node26" class="node">
<title>Node26</title>
<g id="a_node26"><a xlink:href="_m_l_c_l__all__tests_8c.html" target="_top" xlink:title=" ">
<polygon fill="none" stroke="black" points="309.04,-0.5 309.04,-30.5 419.04,-30.5 419.04,-0.5 309.04,-0.5"/>
<text text-anchor="start" x="317.04" y="-18.5" font-family="Helvetica,sans-Serif" font-size="10.00">src/_Tests/MLCL_all</text>
<text text-anchor="middle" x="364.04" y="-7.5" font-family="Helvetica,sans-Serif" font-size="10.00">_tests.c</text>
</a>
</g>
</g>
<!-- Node25&#45;&gt;Node26 -->
<g id="edge31" class="edge">
<title>Node25&#45;&gt;Node26</title>
<path fill="none" stroke="midnightblue" d="M364.04,-57.11C364.04,-48.15 364.04,-38.32 364.04,-30.58"/>
<polygon fill="midnightblue" stroke="midnightblue" points="360.54,-57.4 364.04,-67.4 367.54,-57.4 360.54,-57.4"/>
</g>
<!-- Node29&#45;&gt;Node7 -->
<g id="edge39" class="edge">
<title>Node29&#45;&gt;Node7</title>
<path fill="none" stroke="midnightblue" d="M2144.12,-291.18C2119.02,-283.58 2091.63,-271.86 2071.04,-254 2044.56,-231.03 2029.45,-191.19 2022.92,-170.07"/>
<polygon fill="midnightblue" stroke="midnightblue" points="2143.39,-294.61 2153.97,-294 2145.32,-287.88 2143.39,-294.61"/>
</g>
<!-- Node29&#45;&gt;Node17 -->
<g id="edge40" class="edge">
<title>Node29&#45;&gt;Node17</title>
<path fill="none" stroke="midnightblue" d="M2227.67,-281.84C2250.39,-250.89 2290.45,-196.31 2309.46,-170.41"/>
<polygon fill="midnightblue" stroke="midnightblue" points="2224.59,-280.13 2221.49,-290.26 2230.23,-284.27 2224.59,-280.13"/>
</g>
<!-- Node30 -->
<g id="node30" class="node">
<title>Node30</title>
<g id="a_node30"><a xlink:href="_m_l_c_l___circular_double_linked_list_8h.html" target="_top" xlink:title=" ">
<polygon fill="none" stroke="black" points="2293.04,-218 2293.04,-248 2445.04,-248 2445.04,-218 2293.04,-218"/>
<text text-anchor="start" x="2301.04" y="-236" font-family="Helvetica,sans-Serif" font-size="10.00">include/Lists/MLCL</text>
<text text-anchor="middle" x="2369.04" y="-225" font-family="Helvetica,sans-Serif" font-size="10.00">_CircularDoubleLinkedList.h</text>
</a>
</g>
</g>
<!-- Node29&#45;&gt;Node30 -->
<g id="edge35" class="edge">
<title>Node29&#45;&gt;Node30</title>
<path fill="none" stroke="midnightblue" d="M2252.08,-286.19C2278.74,-274.29 2312.97,-259.02 2337.5,-248.07"/>
<polygon fill="midnightblue" stroke="midnightblue" points="2250.34,-283.13 2242.63,-290.4 2253.19,-289.52 2250.34,-283.13"/>
</g>
<!-- Node31 -->
<g id="node31" class="node">
<title>Node31</title>
<g id="a_node31"><a xlink:href="_m_l_c_l___circular_double_linked_list_8c.html" target="_top" xlink:title=" ">
<polygon fill="none" stroke="black" points="2391.54,-140 2391.54,-170 2554.54,-170 2554.54,-140 2391.54,-140"/>
<text text-anchor="start" x="2399.54" y="-158" font-family="Helvetica,sans-Serif" font-size="10.00">src/Lists/MLCL_CircularDouble</text>
<text text-anchor="middle" x="2473.04" y="-147" font-family="Helvetica,sans-Serif" font-size="10.00">LinkedList.c</text>
</a>
</g>
</g>
<!-- Node29&#45;&gt;Node31 -->
<g id="edge41" class="edge">
<title>Node29&#45;&gt;Node31</title>
<path fill="none" stroke="midnightblue" d="M2278.45,-298.79C2341.65,-292.02 2429.92,-278.44 2454.04,-254 2476.19,-231.55 2476.45,-191.49 2474.75,-170.2"/>
<polygon fill="midnightblue" stroke="midnightblue" points="2277.73,-295.35 2268.14,-299.86 2278.45,-302.31 2277.73,-295.35"/>
</g>
<!-- Node32 -->
<g id="node32" class="node">
<title>Node32</title>
<g id="a_node32"><a xlink:href="_m_l_c_l___double_linked_list_8c.html" target="_top" xlink:title=" ">
<polygon fill="none" stroke="black" points="2079.54,-218 2079.54,-248 2236.54,-248 2236.54,-218 2079.54,-218"/>
<text text-anchor="start" x="2087.54" y="-236" font-family="Helvetica,sans-Serif" font-size="10.00">src/Lists/MLCL_DoubleLinked</text>
<text text-anchor="middle" x="2158.04" y="-225" font-family="Helvetica,sans-Serif" font-size="10.00">List.c</text>
</a>
</g>
</g>
<!-- Node29&#45;&gt;Node32 -->
<g id="edge42" class="edge">
<title>Node29&#45;&gt;Node32</title>
<path fill="none" stroke="midnightblue" d="M2194.28,-282.21C2185.93,-271.1 2176.07,-257.99 2168.75,-248.25"/>
<polygon fill="midnightblue" stroke="midnightblue" points="2191.51,-284.34 2200.31,-290.23 2197.1,-280.14 2191.51,-284.34"/>
</g>
<!-- Node30&#45;&gt;Node5 -->
<g id="edge36" class="edge">
<title>Node30&#45;&gt;Node5</title>
<path fill="none" stroke="midnightblue" d="M2323.84,-214.11C2294.64,-202.55 2256.65,-187.51 2226.63,-175.63"/>
<polygon fill="midnightblue" stroke="midnightblue" points="2322.79,-217.46 2333.38,-217.88 2325.37,-210.95 2322.79,-217.46"/>
</g>
<!-- Node30&#45;&gt;Node17 -->
<g id="edge37" class="edge">
<title>Node30&#45;&gt;Node17</title>
<path fill="none" stroke="midnightblue" d="M2354.26,-209.07C2346.11,-196.44 2336.25,-181.15 2329.21,-170.23"/>
<polygon fill="midnightblue" stroke="midnightblue" points="2351.46,-211.2 2359.82,-217.7 2357.35,-207.4 2351.46,-211.2"/>
</g>
<!-- Node30&#45;&gt;Node31 -->
<g id="edge38" class="edge">
<title>Node30&#45;&gt;Node31</title>
<path fill="none" stroke="midnightblue" d="M2396.94,-211.61C2414.83,-198.54 2437.61,-181.89 2453.57,-170.23"/>
<polygon fill="midnightblue" stroke="midnightblue" points="2394.61,-208.98 2388.6,-217.7 2398.74,-214.63 2394.61,-208.98"/>
</g>
<!-- Node33&#45;&gt;Node8 -->
<g id="edge48" class="edge">
<title>Node33&#45;&gt;Node8</title>
<path fill="none" stroke="midnightblue" d="M1570.49,-281.27C1560.06,-260.58 1542.28,-230.77 1519.04,-212 1503.51,-199.47 1456.98,-182.16 1421.58,-170.11"/>
<polygon fill="midnightblue" stroke="midnightblue" points="1567.38,-282.86 1574.89,-290.33 1573.67,-279.8 1567.38,-282.86"/>
</g>
<!-- Node33&#45;&gt;Node17 -->
<g id="edge49" class="edge">
<title>Node33&#45;&gt;Node17</title>
<path fill="none" stroke="midnightblue" d="M1644.66,-290C1757.46,-269.57 1788.65,-274.74 1897.04,-254 1975.18,-239.05 1993.29,-228.86 2071.04,-212 2153.75,-194.07 2176.06,-197.03 2258.04,-176 2264.83,-174.26 2271.97,-172.19 2278.89,-170.05"/>
<polygon fill="midnightblue" stroke="midnightblue" points="1643.79,-286.6 1634.59,-291.85 1645.06,-293.48 1643.79,-286.6"/>
</g>
<!-- Node34 -->
<g id="node34" class="node">
<title>Node34</title>
<g id="a_node34"><a xlink:href="_m_l_c_l___circular_linked_list_8h.html" target="_top" xlink:title=" ">
<polygon fill="none" stroke="black" points="1566.54,-218 1566.54,-248 1683.54,-248 1683.54,-218 1566.54,-218"/>
<text text-anchor="start" x="1574.54" y="-236" font-family="Helvetica,sans-Serif" font-size="10.00">include/Lists/MLCL</text>
<text text-anchor="middle" x="1625.04" y="-225" font-family="Helvetica,sans-Serif" font-size="10.00">_CircularLinkedList.h</text>
</a>
</g>
</g>
<!-- Node33&#45;&gt;Node34 -->
<g id="edge44" class="edge">
<title>Node33&#45;&gt;Node34</title>
<path fill="none" stroke="midnightblue" d="M1595.36,-281.56C1602.21,-270.59 1610.19,-257.8 1616.15,-248.25"/>
<polygon fill="midnightblue" stroke="midnightblue" points="1592.27,-279.9 1589.94,-290.23 1598.21,-283.6 1592.27,-279.9"/>
</g>
<!-- Node36 -->
<g id="node36" class="node">
<title>Node36</title>
<g id="a_node36"><a xlink:href="_m_l_c_l___linked_list_8c.html" target="_top" xlink:title=" ">
<polygon fill="none" stroke="black" points="1740.04,-223.5 1740.04,-242.5 1888.04,-242.5 1888.04,-223.5 1740.04,-223.5"/>
<text text-anchor="middle" x="1814.04" y="-230.5" font-family="Helvetica,sans-Serif" font-size="10.00">src/Lists/MLCL_LinkedList.c</text>
</a>
</g>
</g>
<!-- Node33&#45;&gt;Node36 -->
<g id="edge50" class="edge">
<title>Node33&#45;&gt;Node36</title>
<path fill="none" stroke="midnightblue" d="M1637.07,-287.55C1683.99,-273.35 1749.01,-253.68 1785.77,-242.55"/>
<polygon fill="midnightblue" stroke="midnightblue" points="1635.91,-284.24 1627.35,-290.49 1637.94,-290.94 1635.91,-284.24"/>
</g>
<!-- Node34&#45;&gt;Node6 -->
<g id="edge45" class="edge">
<title>Node34&#45;&gt;Node6</title>
<path fill="none" stroke="midnightblue" d="M1598.48,-211.61C1581.45,-198.54 1559.76,-181.89 1544.58,-170.23"/>
<polygon fill="midnightblue" stroke="midnightblue" points="1596.35,-214.39 1606.42,-217.7 1600.62,-208.84 1596.35,-214.39"/>
</g>
<!-- Node34&#45;&gt;Node17 -->
<g id="edge46" class="edge">
<title>Node34&#45;&gt;Node17</title>
<path fill="none" stroke="midnightblue" d="M1680.5,-215.55C1686.38,-214.18 1692.31,-212.96 1698.04,-212 1944.02,-170.84 2013.04,-222.64 2258.04,-176 2265.71,-174.54 2273.74,-172.41 2281.4,-170.09"/>
<polygon fill="midnightblue" stroke="midnightblue" points="1679.55,-212.18 1670.67,-217.97 1681.22,-218.98 1679.55,-212.18"/>
</g>
<!-- Node35 -->
<g id="node35" class="node">
<title>Node35</title>
<g id="a_node35"><a xlink:href="_m_l_c_l___circular_linked_list_8c.html" target="_top" xlink:title=" ">
<polygon fill="none" stroke="black" points="1772.04,-140 1772.04,-170 1932.04,-170 1932.04,-140 1772.04,-140"/>
<text text-anchor="start" x="1780.04" y="-158" font-family="Helvetica,sans-Serif" font-size="10.00">src/Lists/MLCL_CircularLinked</text>
<text text-anchor="middle" x="1852.04" y="-147" font-family="Helvetica,sans-Serif" font-size="10.00">List.c</text>
</a>
</g>
</g>
<!-- Node34&#45;&gt;Node35 -->
<g id="edge47" class="edge">
<title>Node34&#45;&gt;Node35</title>
<path fill="none" stroke="midnightblue" d="M1676.59,-214.74C1716.93,-201.23 1772.32,-182.69 1810,-170.07"/>
<polygon fill="midnightblue" stroke="midnightblue" points="1675.31,-211.48 1666.94,-217.97 1677.53,-218.12 1675.31,-211.48"/>
</g>
<!-- Node39 -->
<g id="node39" class="node">
<title>Node39</title>
<g id="a_node39"><a xlink:href="_m_l_c_l___a_v_l_tree_8h.html" target="_top" xlink:title=" ">
<polygon fill="none" stroke="black" points="1224.04,-218 1224.04,-248 1334.04,-248 1334.04,-218 1224.04,-218"/>
<text text-anchor="start" x="1232.04" y="-236" font-family="Helvetica,sans-Serif" font-size="10.00">include/Trees/MLCL</text>
<text text-anchor="middle" x="1279.04" y="-225" font-family="Helvetica,sans-Serif" font-size="10.00">_AVLTree.h</text>
</a>
</g>
</g>
<!-- Node38&#45;&gt;Node39 -->
<g id="edge54" class="edge">
<title>Node38&#45;&gt;Node39</title>
<path fill="none" stroke="midnightblue" d="M1281.01,-280.23C1280.55,-269.57 1280.04,-257.41 1279.65,-248.25"/>
<polygon fill="midnightblue" stroke="midnightblue" points="1277.51,-280.39 1281.43,-290.23 1284.5,-280.09 1277.51,-280.39"/>
</g>
<!-- Node41 -->
<g id="node41" class="node">
<title>Node41</title>
<g id="a_node41"><a xlink:href="_m_l_c_l___binary_search_tree__test_8h.html" target="_top" xlink:title=" ">
<polygon fill="none" stroke="black" points="642.04,-212.5 642.04,-253.5 778.04,-253.5 778.04,-212.5 642.04,-212.5"/>
<text text-anchor="start" x="650.04" y="-241.5" font-family="Helvetica,sans-Serif" font-size="10.00">include/_Tests/Trees</text>
<text text-anchor="start" x="650.04" y="-230.5" font-family="Helvetica,sans-Serif" font-size="10.00">/MLCL_BinarySearchTree</text>
<text text-anchor="middle" x="710.04" y="-219.5" font-family="Helvetica,sans-Serif" font-size="10.00">_test.h</text>
</a>
</g>
</g>
<!-- Node38&#45;&gt;Node41 -->
<g id="edge57" class="edge">
<title>Node38&#45;&gt;Node41</title>
<path fill="none" stroke="midnightblue" d="M1213.79,-296.09C1103.73,-282.52 888.28,-255.97 778.25,-242.41"/>
<polygon fill="midnightblue" stroke="midnightblue" points="1213.43,-299.57 1223.78,-297.32 1214.28,-292.62 1213.43,-299.57"/>
</g>
<!-- Node42 -->
<g id="node42" class="node">
<title>Node42</title>
<g id="a_node42"><a xlink:href="_m_l_c_l___binary_search_tree_8c.html" target="_top" xlink:title=" ">
<polygon fill="none" stroke="black" points="1352.04,-218 1352.04,-248 1510.04,-248 1510.04,-218 1352.04,-218"/>
<text text-anchor="start" x="1360.04" y="-236" font-family="Helvetica,sans-Serif" font-size="10.00">src/Trees/MLCL_BinarySearch</text>
<text text-anchor="middle" x="1431.04" y="-225" font-family="Helvetica,sans-Serif" font-size="10.00">Tree.c</text>
</a>
</g>
</g>
<!-- Node38&#45;&gt;Node42 -->
<g id="edge60" class="edge">
<title>Node38&#45;&gt;Node42</title>
<path fill="none" stroke="midnightblue" d="M1321.07,-286.03C1346.17,-274.16 1378.27,-258.97 1401.3,-248.07"/>
<polygon fill="midnightblue" stroke="midnightblue" points="1319.38,-282.96 1311.83,-290.4 1322.37,-289.29 1319.38,-282.96"/>
</g>
<!-- Node39&#45;&gt;Node13 -->
<g id="edge55" class="edge">
<title>Node39&#45;&gt;Node13</title>
<path fill="none" stroke="midnightblue" d="M1266.78,-208.7C1260.17,-196.14 1252.22,-181.04 1246.53,-170.23"/>
<polygon fill="midnightblue" stroke="midnightblue" points="1263.76,-210.49 1271.52,-217.7 1269.95,-207.23 1263.76,-210.49"/>
</g>
<!-- Node40 -->
<g id="node40" class="node">
<title>Node40</title>
<g id="a_node40"><a xlink:href="_m_l_c_l___a_v_l_tree_8c.html" target="_top" xlink:title=" ">
<polygon fill="none" stroke="black" points="1614.04,-145.5 1614.04,-164.5 1754.04,-164.5 1754.04,-145.5 1614.04,-145.5"/>
<text text-anchor="middle" x="1684.04" y="-152.5" font-family="Helvetica,sans-Serif" font-size="10.00">src/Trees/MLCL_AVLTree.c</text>
</a>
</g>
</g>
<!-- Node39&#45;&gt;Node40 -->
<g id="edge56" class="edge">
<title>Node39&#45;&gt;Node40</title>
<path fill="none" stroke="midnightblue" d="M1330.34,-215.15C1334.61,-214 1338.89,-212.93 1343.04,-212 1457.75,-186.38 1489.67,-198.46 1605.04,-176 1621.15,-172.86 1638.88,-168.46 1653.45,-164.59"/>
<polygon fill="midnightblue" stroke="midnightblue" points="1329.09,-211.87 1320.42,-217.97 1331,-218.6 1329.09,-211.87"/>
</g>
<!-- Node41&#45;&gt;Node14 -->
<g id="edge59" class="edge">
<title>Node41&#45;&gt;Node14</title>
<path fill="none" stroke="midnightblue" d="M673.02,-206.66C655.31,-194.53 634.76,-180.45 619.82,-170.23"/>
<polygon fill="midnightblue" stroke="midnightblue" points="671.23,-209.67 681.45,-212.43 675.18,-203.89 671.23,-209.67"/>
</g>
<!-- Node41&#45;&gt;Node25 -->
<g id="edge58" class="edge">
<title>Node41&#45;&gt;Node25</title>
<path fill="none" stroke="midnightblue" d="M631.6,-212.3C562.49,-202.22 421.73,-212.48 383.04,-176 361.57,-155.76 360.9,-118.25 362.39,-97.76"/>
<polygon fill="midnightblue" stroke="midnightblue" points="631.2,-215.78 641.65,-214.02 632.39,-208.88 631.2,-215.78"/>
</g>
</g>
</svg>
