<?xml version="1.0" encoding="UTF-8" standalone="no"?>
<!DOCTYPE svg PUBLIC "-//W3C//DTD SVG 1.1//EN"
 "http://www.w3.org/Graphics/SVG/1.1/DTD/svg11.dtd">
<!-- Generated by graphviz version 2.43.0 (0)
 -->
<!-- Title: include/Tree/MLCL_BinarySearchTree.h Pages: 1 -->
<svg width="607pt" height="251pt"
 viewBox="0.00 0.00 606.50 251.00" xmlns="http://www.w3.org/2000/svg" xmlns:xlink="http://www.w3.org/1999/xlink">
<g id="graph0" class="graph" transform="scale(1 1) rotate(0) translate(4 247)">
<title>include/Tree/MLCL_BinarySearchTree.h</title>
<!-- Node1 -->
<g id="node1" class="node">
<title>Node1</title>
<g id="a_node1"><a xlink:title=" ">
<polygon fill="#bfbfbf" stroke="black" points="288.5,-212.5 288.5,-242.5 429.5,-242.5 429.5,-212.5 288.5,-212.5"/>
<text text-anchor="start" x="296.5" y="-230.5" font-family="Helvetica,sans-Serif" font-size="10.00">include/Tree/MLCL_Binary</text>
<text text-anchor="middle" x="359" y="-219.5" font-family="Helvetica,sans-Serif" font-size="10.00">SearchTree.h</text>
</a>
</g>
</g>
<!-- Node2 -->
<g id="node2" class="node">
<title>Node2</title>
<g id="a_node2"><a xlink:href="_m_l_c_l___a_v_l_tree_8h.html" target="_top" xlink:title=" ">
<polygon fill="none" stroke="black" points="117,-145.5 117,-164.5 273,-164.5 273,-145.5 117,-145.5"/>
<text text-anchor="middle" x="195" y="-152.5" font-family="Helvetica,sans-Serif" font-size="10.00">include/Tree/MLCL_AVLTree.h</text>
</a>
</g>
</g>
<!-- Node1&#45;&gt;Node2 -->
<g id="edge1" class="edge">
<title>Node1&#45;&gt;Node2</title>
<path fill="none" stroke="midnightblue" d="M316.85,-208.38C284.05,-194.28 240.01,-175.35 214.85,-164.53"/>
<polygon fill="midnightblue" stroke="midnightblue" points="315.64,-211.67 326.21,-212.4 318.4,-205.24 315.64,-211.67"/>
</g>
<!-- Node5 -->
<g id="node5" class="node">
<title>Node5</title>
<g id="a_node5"><a xlink:href="_m_l_c_l___binary_search_tree__test_8h.html" target="_top" xlink:title=" ">
<polygon fill="none" stroke="black" points="291,-134.5 291,-175.5 427,-175.5 427,-134.5 291,-134.5"/>
<text text-anchor="start" x="299" y="-163.5" font-family="Helvetica,sans-Serif" font-size="10.00">include/_Tests/Tree</text>
<text text-anchor="start" x="299" y="-152.5" font-family="Helvetica,sans-Serif" font-size="10.00">/MLCL_BinarySearchTree</text>
<text text-anchor="middle" x="359" y="-141.5" font-family="Helvetica,sans-Serif" font-size="10.00">_test.h</text>
</a>
</g>
</g>
<!-- Node1&#45;&gt;Node5 -->
<g id="edge4" class="edge">
<title>Node1&#45;&gt;Node5</title>
<path fill="none" stroke="midnightblue" d="M359,-201.98C359,-193.35 359,-183.76 359,-175.59"/>
<polygon fill="midnightblue" stroke="midnightblue" points="355.5,-202.23 359,-212.23 362.5,-202.23 355.5,-202.23"/>
</g>
<!-- Node9 -->
<g id="node9" class="node">
<title>Node9</title>
<g id="a_node9"><a xlink:href="_m_l_c_l___binary_search_tree_8c.html" target="_top" xlink:title=" ">
<polygon fill="none" stroke="black" points="445.5,-140 445.5,-170 598.5,-170 598.5,-140 445.5,-140"/>
<text text-anchor="start" x="453.5" y="-158" font-family="Helvetica,sans-Serif" font-size="10.00">src/Tree/MLCL_BinarySearch</text>
<text text-anchor="middle" x="522" y="-147" font-family="Helvetica,sans-Serif" font-size="10.00">Tree.c</text>
</a>
</g>
</g>
<!-- Node1&#45;&gt;Node9 -->
<g id="edge8" class="edge">
<title>Node1&#45;&gt;Node9</title>
<path fill="none" stroke="midnightblue" d="M400.98,-208.34C428.54,-196.42 464.05,-181.07 489.46,-170.07"/>
<polygon fill="midnightblue" stroke="midnightblue" points="399.38,-205.22 391.59,-212.4 402.16,-211.65 399.38,-205.22"/>
</g>
<!-- Node3 -->
<g id="node3" class="node">
<title>Node3</title>
<g id="a_node3"><a xlink:href="_m_l_c_l___a_v_l_tree__test_8c.html" target="_top" xlink:title=" ">
<polygon fill="none" stroke="black" points="0,-67.5 0,-97.5 116,-97.5 116,-67.5 0,-67.5"/>
<text text-anchor="start" x="8" y="-85.5" font-family="Helvetica,sans-Serif" font-size="10.00">src/_Tests/Tree/MLCL</text>
<text text-anchor="middle" x="58" y="-74.5" font-family="Helvetica,sans-Serif" font-size="10.00">_AVLTree_test.c</text>
</a>
</g>
</g>
<!-- Node2&#45;&gt;Node3 -->
<g id="edge2" class="edge">
<title>Node2&#45;&gt;Node3</title>
<path fill="none" stroke="midnightblue" d="M169.29,-140.77C145.31,-128.43 109.67,-110.09 85.22,-97.51"/>
<polygon fill="midnightblue" stroke="midnightblue" points="167.98,-144.03 178.47,-145.5 171.18,-137.81 167.98,-144.03"/>
</g>
<!-- Node4 -->
<g id="node4" class="node">
<title>Node4</title>
<g id="a_node4"><a xlink:href="_m_l_c_l___a_v_l_tree_8c.html" target="_top" xlink:title=" ">
<polygon fill="none" stroke="black" points="134,-73 134,-92 268,-92 268,-73 134,-73"/>
<text text-anchor="middle" x="201" y="-80" font-family="Helvetica,sans-Serif" font-size="10.00">src/Tree/MLCL_AVLTree.c</text>
</a>
</g>
</g>
<!-- Node2&#45;&gt;Node4 -->
<g id="edge3" class="edge">
<title>Node2&#45;&gt;Node4</title>
<path fill="none" stroke="midnightblue" d="M196.59,-135.36C197.77,-121.4 199.35,-102.93 200.26,-92.22"/>
<polygon fill="midnightblue" stroke="midnightblue" points="193.1,-135.09 195.74,-145.36 200.07,-135.69 193.1,-135.09"/>
</g>
<!-- Node6 -->
<g id="node6" class="node">
<title>Node6</title>
<g id="a_node6"><a xlink:href="_m_l_c_l__all__tests_8h.html" target="_top" xlink:title=" ">
<polygon fill="none" stroke="black" points="297,-67.5 297,-97.5 411,-97.5 411,-67.5 297,-67.5"/>
<text text-anchor="start" x="305" y="-85.5" font-family="Helvetica,sans-Serif" font-size="10.00">include/_Tests/MLCL</text>
<text text-anchor="middle" x="354" y="-74.5" font-family="Helvetica,sans-Serif" font-size="10.00">_all_tests.h</text>
</a>
</g>
</g>
<!-- Node5&#45;&gt;Node6 -->
<g id="edge5" class="edge">
<title>Node5&#45;&gt;Node6</title>
<path fill="none" stroke="midnightblue" d="M356.9,-124.38C356.25,-115.21 355.56,-105.53 355.02,-97.89"/>
<polygon fill="midnightblue" stroke="midnightblue" points="353.41,-124.63 357.61,-134.36 360.39,-124.14 353.41,-124.63"/>
</g>
<!-- Node8 -->
<g id="node8" class="node">
<title>Node8</title>
<g id="a_node8"><a xlink:href="_m_l_c_l___binary_search_tree__test_8c.html" target="_top" xlink:title=" ">
<polygon fill="none" stroke="black" points="429.5,-67.5 429.5,-97.5 568.5,-97.5 568.5,-67.5 429.5,-67.5"/>
<text text-anchor="start" x="437.5" y="-85.5" font-family="Helvetica,sans-Serif" font-size="10.00">src/_Tests/Tree/MLCL</text>
<text text-anchor="middle" x="499" y="-74.5" font-family="Helvetica,sans-Serif" font-size="10.00">_BinarySearchTree_test.c</text>
</a>
</g>
</g>
<!-- Node5&#45;&gt;Node8 -->
<g id="edge7" class="edge">
<title>Node5&#45;&gt;Node8</title>
<path fill="none" stroke="midnightblue" d="M407.2,-129.73C428.43,-119.04 452.64,-106.85 470.86,-97.67"/>
<polygon fill="midnightblue" stroke="midnightblue" points="405.36,-126.74 398,-134.36 408.5,-132.99 405.36,-126.74"/>
</g>
<!-- Node7 -->
<g id="node7" class="node">
<title>Node7</title>
<g id="a_node7"><a xlink:href="_m_l_c_l__all__tests_8c.html" target="_top" xlink:title=" ">
<polygon fill="none" stroke="black" points="299,-0.5 299,-30.5 409,-30.5 409,-0.5 299,-0.5"/>
<text text-anchor="start" x="307" y="-18.5" font-family="Helvetica,sans-Serif" font-size="10.00">src/_Tests/MLCL_all</text>
<text text-anchor="middle" x="354" y="-7.5" font-family="Helvetica,sans-Serif" font-size="10.00">_tests.c</text>
</a>
</g>
</g>
<!-- Node6&#45;&gt;Node7 -->
<g id="edge6" class="edge">
<title>Node6&#45;&gt;Node7</title>
<path fill="none" stroke="midnightblue" d="M354,-57.11C354,-48.15 354,-38.32 354,-30.58"/>
<polygon fill="midnightblue" stroke="midnightblue" points="350.5,-57.4 354,-67.4 357.5,-57.4 350.5,-57.4"/>
</g>
</g>
</svg>
