<?xml version="1.0" encoding="UTF-8" standalone="no"?>
<!DOCTYPE svg PUBLIC "-//W3C//DTD SVG 1.1//EN"
 "http://www.w3.org/Graphics/SVG/1.1/DTD/svg11.dtd">
<!-- Generated by graphviz version 2.43.0 (0)
 -->
<!-- Title: include/MLCL_basic_types.h Pages: 1 -->
<svg width="2416pt" height="117pt"
 viewBox="0.00 0.00 2415.50 117.00" xmlns="http://www.w3.org/2000/svg" xmlns:xlink="http://www.w3.org/1999/xlink">
<g id="graph0" class="graph" transform="scale(1 1) rotate(0) translate(4 113)">
<title>include/MLCL_basic_types.h</title>
<!-- Node1 -->
<g id="node1" class="node">
<title>Node1</title>
<g id="a_node1"><a xlink:title=" ">
<polygon fill="#bfbfbf" stroke="black" points="1140,-78.5 1140,-108.5 1252,-108.5 1252,-78.5 1140,-78.5"/>
<text text-anchor="start" x="1148" y="-96.5" font-family="Helvetica,sans-Serif" font-size="10.00">include/MLCL_basic</text>
<text text-anchor="middle" x="1196" y="-85.5" font-family="Helvetica,sans-Serif" font-size="10.00">_types.h</text>
</a>
</g>
</g>
<!-- Node2 -->
<g id="node2" class="node">
<title>Node2</title>
<g id="a_node2"><a xlink:href="_m_l_c_l___binary_heap__test_8c.html" target="_top" xlink:title=" ">
<polygon fill="none" stroke="black" points="0,-6 0,-36 122,-36 122,-6 0,-6"/>
<text text-anchor="start" x="8" y="-24" font-family="Helvetica,sans-Serif" font-size="10.00">src/_Tests/Heap/MLCL</text>
<text text-anchor="middle" x="61" y="-13" font-family="Helvetica,sans-Serif" font-size="10.00">_BinaryHeap_test.c</text>
</a>
</g>
</g>
<!-- Node1&#45;&gt;Node2 -->
<g id="edge1" class="edge">
<title>Node1&#45;&gt;Node2</title>
<path fill="none" stroke="midnightblue" d="M1129.77,-91.36C928.28,-87.58 324.67,-73.82 131,-42 122.27,-40.57 113.08,-38.42 104.33,-36.06"/>
<polygon fill="midnightblue" stroke="midnightblue" points="1129.85,-94.86 1139.91,-91.55 1129.98,-87.86 1129.85,-94.86"/>
</g>
<!-- Node3 -->
<g id="node3" class="node">
<title>Node3</title>
<g id="a_node3"><a xlink:href="_m_l_c_l___array_list__test_8c.html" target="_top" xlink:title=" ">
<polygon fill="none" stroke="black" points="140.5,-6 140.5,-36 259.5,-36 259.5,-6 140.5,-6"/>
<text text-anchor="start" x="148.5" y="-24" font-family="Helvetica,sans-Serif" font-size="10.00">src/_Tests/Lists/MLCL</text>
<text text-anchor="middle" x="200" y="-13" font-family="Helvetica,sans-Serif" font-size="10.00">_ArrayList_test.c</text>
</a>
</g>
</g>
<!-- Node1&#45;&gt;Node3 -->
<g id="edge2" class="edge">
<title>Node1&#45;&gt;Node3</title>
<path fill="none" stroke="midnightblue" d="M1129.93,-90.89C946.58,-86.12 434.02,-70.53 268,-42 259.51,-40.54 250.58,-38.38 242.08,-36.02"/>
<polygon fill="midnightblue" stroke="midnightblue" points="1129.88,-94.39 1139.97,-91.15 1130.07,-87.4 1129.88,-94.39"/>
</g>
<!-- Node4 -->
<g id="node4" class="node">
<title>Node4</title>
<g id="a_node4"><a xlink:href="_m_l_c_l___circular_double_linked_list__test_8c.html" target="_top" xlink:title=" ">
<polygon fill="none" stroke="black" points="277.5,-0.5 277.5,-41.5 420.5,-41.5 420.5,-0.5 277.5,-0.5"/>
<text text-anchor="start" x="285.5" y="-29.5" font-family="Helvetica,sans-Serif" font-size="10.00">src/_Tests/Lists/MLCL</text>
<text text-anchor="start" x="285.5" y="-18.5" font-family="Helvetica,sans-Serif" font-size="10.00">_CircularDoubleLinkedList</text>
<text text-anchor="middle" x="349" y="-7.5" font-family="Helvetica,sans-Serif" font-size="10.00">_test.c</text>
</a>
</g>
</g>
<!-- Node1&#45;&gt;Node4 -->
<g id="edge3" class="edge">
<title>Node1&#45;&gt;Node4</title>
<path fill="none" stroke="midnightblue" d="M1129.83,-92.05C996.58,-90.29 686.71,-81.84 430,-42 426.99,-41.53 423.94,-41.01 420.86,-40.44"/>
<polygon fill="midnightblue" stroke="midnightblue" points="1129.84,-95.55 1139.89,-92.18 1129.93,-88.55 1129.84,-95.55"/>
</g>
<!-- Node5 -->
<g id="node5" class="node">
<title>Node5</title>
<g id="a_node5"><a xlink:href="_m_l_c_l___circular_linked_list__test_8c.html" target="_top" xlink:title=" ">
<polygon fill="none" stroke="black" points="439,-6 439,-36 579,-36 579,-6 439,-6"/>
<text text-anchor="start" x="447" y="-24" font-family="Helvetica,sans-Serif" font-size="10.00">src/_Tests/Lists/MLCL</text>
<text text-anchor="middle" x="509" y="-13" font-family="Helvetica,sans-Serif" font-size="10.00">_CircularLinkedList_test.c</text>
</a>
</g>
</g>
<!-- Node1&#45;&gt;Node5 -->
<g id="edge4" class="edge">
<title>Node1&#45;&gt;Node5</title>
<path fill="none" stroke="midnightblue" d="M1129.73,-90.57C1017.52,-86.52 783.28,-74.6 588,-42 578.65,-40.44 568.78,-38.33 559.31,-36.06"/>
<polygon fill="midnightblue" stroke="midnightblue" points="1129.76,-94.08 1139.87,-90.93 1130,-87.08 1129.76,-94.08"/>
</g>
<!-- Node6 -->
<g id="node6" class="node">
<title>Node6</title>
<g id="a_node6"><a xlink:href="_m_l_c_l___double_linked_list__test_8c.html" target="_top" xlink:title=" ">
<polygon fill="none" stroke="black" points="597.5,-6 597.5,-36 734.5,-36 734.5,-6 597.5,-6"/>
<text text-anchor="start" x="605.5" y="-24" font-family="Helvetica,sans-Serif" font-size="10.00">src/_Tests/Lists/MLCL</text>
<text text-anchor="middle" x="666" y="-13" font-family="Helvetica,sans-Serif" font-size="10.00">_DoubleLinkedList_test.c</text>
</a>
</g>
</g>
<!-- Node1&#45;&gt;Node6 -->
<g id="edge5" class="edge">
<title>Node1&#45;&gt;Node6</title>
<path fill="none" stroke="midnightblue" d="M1129.65,-88.09C1040.99,-81.52 879.23,-67.15 743,-42 734.17,-40.37 724.86,-38.28 715.89,-36.06"/>
<polygon fill="midnightblue" stroke="midnightblue" points="1129.6,-91.6 1139.83,-88.84 1130.11,-84.62 1129.6,-91.6"/>
</g>
<!-- Node7 -->
<g id="node7" class="node">
<title>Node7</title>
<g id="a_node7"><a xlink:href="_m_l_c_l___linked_list__test_8c.html" target="_top" xlink:title=" ">
<polygon fill="none" stroke="black" points="752.5,-6 752.5,-36 871.5,-36 871.5,-6 752.5,-6"/>
<text text-anchor="start" x="760.5" y="-24" font-family="Helvetica,sans-Serif" font-size="10.00">src/_Tests/Lists/MLCL</text>
<text text-anchor="middle" x="812" y="-13" font-family="Helvetica,sans-Serif" font-size="10.00">_LinkedList_test.c</text>
</a>
</g>
</g>
<!-- Node1&#45;&gt;Node7 -->
<g id="edge6" class="edge">
<title>Node1&#45;&gt;Node7</title>
<path fill="none" stroke="midnightblue" d="M1129.94,-84.44C1065.68,-76.02 965.52,-61.33 880,-42 872.44,-40.29 864.48,-38.21 856.78,-36.05"/>
<polygon fill="midnightblue" stroke="midnightblue" points="1129.57,-87.92 1139.93,-85.74 1130.47,-80.98 1129.57,-87.92"/>
</g>
<!-- Node8 -->
<g id="node8" class="node">
<title>Node8</title>
<g id="a_node8"><a xlink:href="_m_l_c_l___list__test_8c.html" target="_top" xlink:title=" ">
<polygon fill="none" stroke="black" points="889.5,-6 889.5,-36 1008.5,-36 1008.5,-6 889.5,-6"/>
<text text-anchor="start" x="897.5" y="-24" font-family="Helvetica,sans-Serif" font-size="10.00">src/_Tests/Lists/MLCL</text>
<text text-anchor="middle" x="949" y="-13" font-family="Helvetica,sans-Serif" font-size="10.00">_List_test.c</text>
</a>
</g>
</g>
<!-- Node1&#45;&gt;Node8 -->
<g id="edge7" class="edge">
<title>Node1&#45;&gt;Node8</title>
<path fill="none" stroke="midnightblue" d="M1135.81,-75.7C1101.06,-65.95 1056.54,-53.39 1017,-42 1010.38,-40.09 1003.4,-38.06 996.54,-36.05"/>
<polygon fill="midnightblue" stroke="midnightblue" points="1135.23,-79.17 1145.81,-78.5 1137.12,-72.43 1135.23,-79.17"/>
</g>
<!-- Node9 -->
<g id="node9" class="node">
<title>Node9</title>
<g id="a_node9"><a xlink:href="_m_l_c_l___type_descriptor__test_8c.html" target="_top" xlink:title=" ">
<polygon fill="none" stroke="black" points="1026.5,-6 1026.5,-36 1197.5,-36 1197.5,-6 1026.5,-6"/>
<text text-anchor="start" x="1034.5" y="-24" font-family="Helvetica,sans-Serif" font-size="10.00">src/_Tests/MLCL_TypeDescriptor</text>
<text text-anchor="middle" x="1112" y="-13" font-family="Helvetica,sans-Serif" font-size="10.00">_test.c</text>
</a>
</g>
</g>
<!-- Node1&#45;&gt;Node9 -->
<g id="edge8" class="edge">
<title>Node1&#45;&gt;Node9</title>
<path fill="none" stroke="midnightblue" d="M1171.32,-71.79C1157.59,-60.27 1140.87,-46.23 1128.69,-36"/>
<polygon fill="midnightblue" stroke="midnightblue" points="1169.09,-74.49 1179,-78.23 1173.59,-69.12 1169.09,-74.49"/>
</g>
<!-- Node10 -->
<g id="node10" class="node">
<title>Node10</title>
<g id="a_node10"><a xlink:href="_m_l_c_l___queue__test_8c.html" target="_top" xlink:title=" ">
<polygon fill="none" stroke="black" points="1216,-6 1216,-36 1344,-36 1344,-6 1216,-6"/>
<text text-anchor="start" x="1224" y="-24" font-family="Helvetica,sans-Serif" font-size="10.00">src/_Tests/Queue/MLCL</text>
<text text-anchor="middle" x="1280" y="-13" font-family="Helvetica,sans-Serif" font-size="10.00">_Queue_test.c</text>
</a>
</g>
</g>
<!-- Node1&#45;&gt;Node10 -->
<g id="edge9" class="edge">
<title>Node1&#45;&gt;Node10</title>
<path fill="none" stroke="midnightblue" d="M1220.68,-71.79C1234.41,-60.27 1251.13,-46.23 1263.31,-36"/>
<polygon fill="midnightblue" stroke="midnightblue" points="1218.41,-69.12 1213,-78.23 1222.91,-74.49 1218.41,-69.12"/>
</g>
<!-- Node11 -->
<g id="node11" class="node">
<title>Node11</title>
<g id="a_node11"><a xlink:href="_m_l_c_l___stack__test_8c.html" target="_top" xlink:title=" ">
<polygon fill="none" stroke="black" points="1362.5,-6 1362.5,-36 1485.5,-36 1485.5,-6 1362.5,-6"/>
<text text-anchor="start" x="1370.5" y="-24" font-family="Helvetica,sans-Serif" font-size="10.00">src/_Tests/Stack/MLCL</text>
<text text-anchor="middle" x="1424" y="-13" font-family="Helvetica,sans-Serif" font-size="10.00">_Stack_test.c</text>
</a>
</g>
</g>
<!-- Node1&#45;&gt;Node11 -->
<g id="edge10" class="edge">
<title>Node1&#45;&gt;Node11</title>
<path fill="none" stroke="midnightblue" d="M1250.94,-75.51C1289.93,-63.46 1341.66,-47.46 1378.38,-36.11"/>
<polygon fill="midnightblue" stroke="midnightblue" points="1249.84,-72.19 1241.32,-78.49 1251.91,-78.88 1249.84,-72.19"/>
</g>
<!-- Node12 -->
<g id="node12" class="node">
<title>Node12</title>
<g id="a_node12"><a xlink:href="_m_l_c_l___a_v_l_tree__test_8c.html" target="_top" xlink:title=" ">
<polygon fill="none" stroke="black" points="1504,-6 1504,-36 1626,-36 1626,-6 1504,-6"/>
<text text-anchor="start" x="1512" y="-24" font-family="Helvetica,sans-Serif" font-size="10.00">src/_Tests/Trees/MLCL</text>
<text text-anchor="middle" x="1565" y="-13" font-family="Helvetica,sans-Serif" font-size="10.00">_AVLTree_test.c</text>
</a>
</g>
</g>
<!-- Node1&#45;&gt;Node12 -->
<g id="edge11" class="edge">
<title>Node1&#45;&gt;Node12</title>
<path fill="none" stroke="midnightblue" d="M1262.26,-83.47C1323.12,-74.66 1415.64,-59.98 1495,-42 1502.64,-40.27 1510.69,-38.2 1518.5,-36.07"/>
<polygon fill="midnightblue" stroke="midnightblue" points="1261.42,-80.05 1252.02,-84.93 1262.42,-86.98 1261.42,-80.05"/>
</g>
<!-- Node13 -->
<g id="node13" class="node">
<title>Node13</title>
<g id="a_node13"><a xlink:href="_m_l_c_l___binary_search_tree__test_8c.html" target="_top" xlink:title=" ">
<polygon fill="none" stroke="black" points="1644.5,-6 1644.5,-36 1783.5,-36 1783.5,-6 1644.5,-6"/>
<text text-anchor="start" x="1652.5" y="-24" font-family="Helvetica,sans-Serif" font-size="10.00">src/_Tests/Trees/MLCL</text>
<text text-anchor="middle" x="1714" y="-13" font-family="Helvetica,sans-Serif" font-size="10.00">_BinarySearchTree_test.c</text>
</a>
</g>
</g>
<!-- Node1&#45;&gt;Node13 -->
<g id="edge12" class="edge">
<title>Node1&#45;&gt;Node13</title>
<path fill="none" stroke="midnightblue" d="M1262.32,-87.64C1348.63,-80.69 1503.93,-66.02 1635,-42 1644.05,-40.34 1653.59,-38.24 1662.8,-36.02"/>
<polygon fill="midnightblue" stroke="midnightblue" points="1261.83,-84.17 1252.14,-88.45 1262.39,-91.15 1261.83,-84.17"/>
</g>
<!-- Node14 -->
<g id="node14" class="node">
<title>Node14</title>
<g id="a_node14"><a xlink:href="_m_l_c_l___b_k_tree__test_8c.html" target="_top" xlink:title=" ">
<polygon fill="none" stroke="black" points="1802,-6 1802,-36 1924,-36 1924,-6 1802,-6"/>
<text text-anchor="start" x="1810" y="-24" font-family="Helvetica,sans-Serif" font-size="10.00">src/_Tests/Trees/MLCL</text>
<text text-anchor="middle" x="1863" y="-13" font-family="Helvetica,sans-Serif" font-size="10.00">_BKTree_test.c</text>
</a>
</g>
</g>
<!-- Node1&#45;&gt;Node14 -->
<g id="edge13" class="edge">
<title>Node1&#45;&gt;Node14</title>
<path fill="none" stroke="midnightblue" d="M1262.05,-91.09C1372.72,-87.79 1602.26,-76.97 1793,-42 1801.45,-40.45 1810.36,-38.31 1818.87,-36.01"/>
<polygon fill="midnightblue" stroke="midnightblue" points="1261.93,-87.59 1252.03,-91.37 1262.13,-94.59 1261.93,-87.59"/>
</g>
<!-- Node15 -->
<g id="node15" class="node">
<title>Node15</title>
<g id="a_node15"><a xlink:href="_m_l_c_l__basic__types_8c.html" target="_top" xlink:title=" ">
<polygon fill="none" stroke="black" points="1942.5,-11.5 1942.5,-30.5 2073.5,-30.5 2073.5,-11.5 1942.5,-11.5"/>
<text text-anchor="middle" x="2008" y="-18.5" font-family="Helvetica,sans-Serif" font-size="10.00">src/MLCL_basic_types.c</text>
</a>
</g>
</g>
<!-- Node1&#45;&gt;Node15 -->
<g id="edge14" class="edge">
<title>Node1&#45;&gt;Node15</title>
<path fill="none" stroke="midnightblue" d="M1262.54,-92.21C1392.37,-90.7 1688.17,-82.64 1933,-42 1949.09,-39.33 1966.72,-34.72 1980.85,-30.59"/>
<polygon fill="midnightblue" stroke="midnightblue" points="1262.32,-88.71 1252.36,-92.32 1262.4,-95.71 1262.32,-88.71"/>
</g>
<!-- Node16 -->
<g id="node16" class="node">
<title>Node16</title>
<g id="a_node16"><a xlink:href="_m_l_c_l___b_k_tree_8c.html" target="_top" xlink:title=" ">
<polygon fill="none" stroke="black" points="2091.5,-11.5 2091.5,-30.5 2226.5,-30.5 2226.5,-11.5 2091.5,-11.5"/>
<text text-anchor="middle" x="2159" y="-18.5" font-family="Helvetica,sans-Serif" font-size="10.00">src/Trees/MLCL_BKTree.c</text>
</a>
</g>
</g>
<!-- Node1&#45;&gt;Node16 -->
<g id="edge15" class="edge">
<title>Node1&#45;&gt;Node16</title>
<path fill="none" stroke="midnightblue" d="M1262.49,-93.24C1410.76,-93.91 1779.32,-90.1 2083,-42 2099.44,-39.4 2117.47,-34.73 2131.84,-30.56"/>
<polygon fill="midnightblue" stroke="midnightblue" points="1262.22,-89.74 1252.2,-93.19 1262.18,-96.74 1262.22,-89.74"/>
</g>
<!-- Node17 -->
<g id="node17" class="node">
<title>Node17</title>
<g id="a_node17"><a xlink:href="_m_l_c_l___ternary_search_tree_8c.html" target="_top" xlink:title=" ">
<polygon fill="none" stroke="black" points="2244.5,-6 2244.5,-36 2407.5,-36 2407.5,-6 2244.5,-6"/>
<text text-anchor="start" x="2252.5" y="-24" font-family="Helvetica,sans-Serif" font-size="10.00">src/Trees/MLCL_TernarySearch</text>
<text text-anchor="middle" x="2326" y="-13" font-family="Helvetica,sans-Serif" font-size="10.00">Tree.c</text>
</a>
</g>
</g>
<!-- Node1&#45;&gt;Node17 -->
<g id="edge16" class="edge">
<title>Node1&#45;&gt;Node17</title>
<path fill="none" stroke="midnightblue" d="M1262.11,-93.18C1427.2,-94.02 1870.56,-91.11 2236,-42 2246.95,-40.53 2258.53,-38.4 2269.61,-36.07"/>
<polygon fill="midnightblue" stroke="midnightblue" points="1262.13,-89.68 1252.11,-93.12 1262.09,-96.68 1262.13,-89.68"/>
</g>
</g>
</svg>
