<?xml version="1.0" encoding="UTF-8" standalone="no"?>
<!DOCTYPE svg PUBLIC "-//W3C//DTD SVG 1.1//EN"
 "http://www.w3.org/Graphics/SVG/1.1/DTD/svg11.dtd">
<!-- Generated by graphviz version 2.43.0 (0)
 -->
<!-- Title: src/Lists/MLCL_DynamicArray.c Pages: 1 -->
<svg width="215pt" height="207pt"
 viewBox="0.00 0.00 215.00 207.00" xmlns="http://www.w3.org/2000/svg" xmlns:xlink="http://www.w3.org/1999/xlink">
<g id="graph0" class="graph" transform="scale(1 1) rotate(0) translate(4 203)">
<title>src/Lists/MLCL_DynamicArray.c</title>
<!-- Node1 -->
<g id="node1" class="node">
<title>Node1</title>
<g id="a_node1"><a xlink:title=" ">
<polygon fill="#bfbfbf" stroke="black" points="43,-179.5 43,-198.5 205,-198.5 205,-179.5 43,-179.5"/>
<text text-anchor="middle" x="124" y="-186.5" font-family="Helvetica,sans-Serif" font-size="10.00">src/Lists/MLCL_DynamicArray.c</text>
</a>
</g>
</g>
<!-- Node2 -->
<g id="node2" class="node">
<title>Node2</title>
<g id="a_node2"><a xlink:href="_m_l_c_l___dynamic_array_8h.html" target="_top" xlink:title=" ">
<polygon fill="none" stroke="black" points="5,-112.5 5,-142.5 133,-142.5 133,-112.5 5,-112.5"/>
<text text-anchor="start" x="13" y="-130.5" font-family="Helvetica,sans-Serif" font-size="10.00">../../include/List</text>
<text text-anchor="middle" x="69" y="-119.5" font-family="Helvetica,sans-Serif" font-size="10.00">/MLCL_DynamicArray.h</text>
</a>
</g>
</g>
<!-- Node1&#45;&gt;Node2 -->
<g id="edge1" class="edge">
<title>Node1&#45;&gt;Node2</title>
<path fill="none" stroke="midnightblue" d="M116.12,-179.48C109.02,-171.79 98.28,-160.17 88.84,-149.96"/>
<polygon fill="midnightblue" stroke="midnightblue" points="91.32,-147.49 81.96,-142.52 86.18,-152.24 91.32,-147.49"/>
</g>
<!-- Node6 -->
<g id="node6" class="node">
<title>Node6</title>
<g id="a_node6"><a xlink:title=" ">
<polygon fill="none" stroke="#bfbfbf" points="151,-118 151,-137 207,-137 207,-118 151,-118"/>
<text text-anchor="middle" x="179" y="-125" font-family="Helvetica,sans-Serif" font-size="10.00">assert.h</text>
</a>
</g>
</g>
<!-- Node1&#45;&gt;Node6 -->
<g id="edge5" class="edge">
<title>Node1&#45;&gt;Node6</title>
<path fill="none" stroke="midnightblue" d="M131.88,-179.48C140.29,-170.37 153.82,-155.74 164.23,-144.48"/>
<polygon fill="midnightblue" stroke="midnightblue" points="166.92,-146.73 171.13,-137.01 161.78,-141.98 166.92,-146.73"/>
</g>
<!-- Node3 -->
<g id="node3" class="node">
<title>Node3</title>
<g id="a_node3"><a xlink:href="_m_l_c_l___type_descriptor_8h.html" target="_top" xlink:title=" ">
<polygon fill="none" stroke="black" points="0,-56.5 0,-75.5 138,-75.5 138,-56.5 0,-56.5"/>
<text text-anchor="middle" x="69" y="-63.5" font-family="Helvetica,sans-Serif" font-size="10.00">../MLCL_TypeDescriptor.h</text>
</a>
</g>
</g>
<!-- Node2&#45;&gt;Node3 -->
<g id="edge2" class="edge">
<title>Node2&#45;&gt;Node3</title>
<path fill="none" stroke="midnightblue" d="M69,-112.4C69,-104.47 69,-94.46 69,-85.86"/>
<polygon fill="midnightblue" stroke="midnightblue" points="72.5,-85.66 69,-75.66 65.5,-85.66 72.5,-85.66"/>
</g>
<!-- Node4 -->
<g id="node4" class="node">
<title>Node4</title>
<g id="a_node4"><a xlink:title=" ">
<polygon fill="none" stroke="#bfbfbf" points="7.5,-0.5 7.5,-19.5 60.5,-19.5 60.5,-0.5 7.5,-0.5"/>
<text text-anchor="middle" x="34" y="-7.5" font-family="Helvetica,sans-Serif" font-size="10.00">stdlib.h</text>
</a>
</g>
</g>
<!-- Node3&#45;&gt;Node4 -->
<g id="edge3" class="edge">
<title>Node3&#45;&gt;Node4</title>
<path fill="none" stroke="midnightblue" d="M63.22,-56.08C58.33,-48.53 51.17,-37.49 45.17,-28.23"/>
<polygon fill="midnightblue" stroke="midnightblue" points="48.05,-26.24 39.67,-19.75 42.17,-30.05 48.05,-26.24"/>
</g>
<!-- Node5 -->
<g id="node5" class="node">
<title>Node5</title>
<g id="a_node5"><a xlink:title=" ">
<polygon fill="none" stroke="#bfbfbf" points="79,-0.5 79,-19.5 129,-19.5 129,-0.5 79,-0.5"/>
<text text-anchor="middle" x="104" y="-7.5" font-family="Helvetica,sans-Serif" font-size="10.00">stdio.h</text>
</a>
</g>
</g>
<!-- Node3&#45;&gt;Node5 -->
<g id="edge4" class="edge">
<title>Node3&#45;&gt;Node5</title>
<path fill="none" stroke="midnightblue" d="M74.78,-56.08C79.67,-48.53 86.83,-37.49 92.83,-28.23"/>
<polygon fill="midnightblue" stroke="midnightblue" points="95.83,-30.05 98.33,-19.75 89.95,-26.24 95.83,-30.05"/>
</g>
</g>
</svg>
