<?xml version="1.0" encoding="UTF-8" standalone="no"?>
<!DOCTYPE svg PUBLIC "-//W3C//DTD SVG 1.1//EN"
 "http://www.w3.org/Graphics/SVG/1.1/DTD/svg11.dtd">
<!-- Generated by graphviz version 2.43.0 (0)
 -->
<!-- Title: src/Lists/MLCL_LinkedList.c Pages: 1 -->
<svg width="422pt" height="207pt"
 viewBox="0.00 0.00 422.00 207.00" xmlns="http://www.w3.org/2000/svg" xmlns:xlink="http://www.w3.org/1999/xlink">
<g id="graph0" class="graph" transform="scale(1 1) rotate(0) translate(4 203)">
<title>src/Lists/MLCL_LinkedList.c</title>
<!-- Node1 -->
<g id="node1" class="node">
<title>Node1</title>
<g id="a_node1"><a xlink:title=" ">
<polygon fill="#bfbfbf" stroke="black" points="184.5,-179.5 184.5,-198.5 332.5,-198.5 332.5,-179.5 184.5,-179.5"/>
<text text-anchor="middle" x="258.5" y="-186.5" font-family="Helvetica,sans-Serif" font-size="10.00">src/Lists/MLCL_LinkedList.c</text>
</a>
</g>
</g>
<!-- Node2 -->
<g id="node2" class="node">
<title>Node2</title>
<g id="a_node2"><a xlink:href="_m_l_c_l___linked_list_8h.html" target="_top" xlink:title=" ">
<polygon fill="none" stroke="black" points="95,-112.5 95,-142.5 204,-142.5 204,-112.5 95,-112.5"/>
<text text-anchor="start" x="103" y="-130.5" font-family="Helvetica,sans-Serif" font-size="10.00">../../include/Lists</text>
<text text-anchor="middle" x="149.5" y="-119.5" font-family="Helvetica,sans-Serif" font-size="10.00">/MLCL_LinkedList.h</text>
</a>
</g>
</g>
<!-- Node1&#45;&gt;Node2 -->
<g id="edge1" class="edge">
<title>Node1&#45;&gt;Node2</title>
<path fill="none" stroke="midnightblue" d="M242.88,-179.48C227.64,-171.15 203.92,-158.21 184.21,-147.45"/>
<polygon fill="midnightblue" stroke="midnightblue" points="185.64,-144.24 175.19,-142.52 182.29,-150.39 185.64,-144.24"/>
</g>
<!-- Node4 -->
<g id="node4" class="node">
<title>Node4</title>
<g id="a_node4"><a xlink:title=" ">
<polygon fill="none" stroke="#bfbfbf" points="0,-0.5 0,-19.5 53,-19.5 53,-0.5 0,-0.5"/>
<text text-anchor="middle" x="26.5" y="-7.5" font-family="Helvetica,sans-Serif" font-size="10.00">stdlib.h</text>
</a>
</g>
</g>
<!-- Node1&#45;&gt;Node4 -->
<g id="edge10" class="edge">
<title>Node1&#45;&gt;Node4</title>
<path fill="none" stroke="midnightblue" d="M184.87,-179.46C152.45,-173.12 115.09,-162.11 85.5,-143 53.37,-122.25 45.6,-111.55 31.5,-76 25.69,-61.35 24.72,-43.41 25.05,-30.09"/>
<polygon fill="midnightblue" stroke="midnightblue" points="28.56,-29.94 25.57,-19.78 21.57,-29.59 28.56,-29.94"/>
</g>
<!-- Node5 -->
<g id="node5" class="node">
<title>Node5</title>
<g id="a_node5"><a xlink:title=" ">
<polygon fill="none" stroke="#bfbfbf" points="195.5,-0.5 195.5,-19.5 245.5,-19.5 245.5,-0.5 195.5,-0.5"/>
<text text-anchor="middle" x="220.5" y="-7.5" font-family="Helvetica,sans-Serif" font-size="10.00">stdio.h</text>
</a>
</g>
</g>
<!-- Node1&#45;&gt;Node5 -->
<g id="edge9" class="edge">
<title>Node1&#45;&gt;Node5</title>
<path fill="none" stroke="midnightblue" d="M256.67,-179.46C250.86,-152.43 232.79,-68.24 224.6,-30.11"/>
<polygon fill="midnightblue" stroke="midnightblue" points="227.93,-28.91 222.4,-19.87 221.08,-30.38 227.93,-28.91"/>
</g>
<!-- Node6 -->
<g id="node6" class="node">
<title>Node6</title>
<g id="a_node6"><a xlink:title=" ">
<polygon fill="none" stroke="#bfbfbf" points="286.5,-118 286.5,-137 342.5,-137 342.5,-118 286.5,-118"/>
<text text-anchor="middle" x="314.5" y="-125" font-family="Helvetica,sans-Serif" font-size="10.00">assert.h</text>
</a>
</g>
</g>
<!-- Node1&#45;&gt;Node6 -->
<g id="edge7" class="edge">
<title>Node1&#45;&gt;Node6</title>
<path fill="none" stroke="midnightblue" d="M266.52,-179.48C275.09,-170.37 288.86,-155.74 299.46,-144.48"/>
<polygon fill="midnightblue" stroke="midnightblue" points="302.19,-146.69 306.49,-137.01 297.09,-141.89 302.19,-146.69"/>
</g>
<!-- Node7 -->
<g id="node7" class="node">
<title>Node7</title>
<g id="a_node7"><a xlink:title=" ">
<polygon fill="none" stroke="#bfbfbf" points="361,-118 361,-137 414,-137 414,-118 361,-118"/>
<text text-anchor="middle" x="387.5" y="-125" font-family="Helvetica,sans-Serif" font-size="10.00">string.h</text>
</a>
</g>
</g>
<!-- Node1&#45;&gt;Node7 -->
<g id="edge8" class="edge">
<title>Node1&#45;&gt;Node7</title>
<path fill="none" stroke="midnightblue" d="M276.98,-179.48C298.63,-169.49 334.71,-152.85 359.73,-141.31"/>
<polygon fill="midnightblue" stroke="midnightblue" points="361.44,-144.38 369.05,-137.01 358.51,-138.02 361.44,-144.38"/>
</g>
<!-- Node3 -->
<g id="node3" class="node">
<title>Node3</title>
<g id="a_node3"><a xlink:href="_m_l_c_l___type_descriptor_8h.html" target="_top" xlink:title=" ">
<polygon fill="none" stroke="black" points="54.5,-56.5 54.5,-75.5 192.5,-75.5 192.5,-56.5 54.5,-56.5"/>
<text text-anchor="middle" x="123.5" y="-63.5" font-family="Helvetica,sans-Serif" font-size="10.00">../MLCL_TypeDescriptor.h</text>
</a>
</g>
</g>
<!-- Node2&#45;&gt;Node3 -->
<g id="edge2" class="edge">
<title>Node2&#45;&gt;Node3</title>
<path fill="none" stroke="midnightblue" d="M143.34,-112.4C139.76,-104.2 135.2,-93.78 131.36,-84.99"/>
<polygon fill="midnightblue" stroke="midnightblue" points="134.49,-83.42 127.28,-75.66 128.08,-86.22 134.49,-83.42"/>
</g>
<!-- Node2&#45;&gt;Node4 -->
<g id="edge5" class="edge">
<title>Node2&#45;&gt;Node4</title>
<path fill="none" stroke="midnightblue" d="M100.51,-112.41C80.96,-104.56 59.75,-92.86 45.5,-76 34.48,-62.96 29.85,-43.81 27.91,-29.66"/>
<polygon fill="midnightblue" stroke="midnightblue" points="31.37,-29.19 26.85,-19.61 24.41,-29.92 31.37,-29.19"/>
</g>
<!-- Node2&#45;&gt;Node5 -->
<g id="edge6" class="edge">
<title>Node2&#45;&gt;Node5</title>
<path fill="none" stroke="midnightblue" d="M168.25,-112.45C179.37,-103.21 192.93,-90.23 201.5,-76 210.13,-61.68 215.03,-43.22 217.69,-29.63"/>
<polygon fill="midnightblue" stroke="midnightblue" points="221.17,-30.01 219.42,-19.56 214.28,-28.82 221.17,-30.01"/>
</g>
<!-- Node3&#45;&gt;Node4 -->
<g id="edge3" class="edge">
<title>Node3&#45;&gt;Node4</title>
<path fill="none" stroke="midnightblue" d="M107.92,-56.32C92.5,-47.74 68.69,-34.49 50.79,-24.52"/>
<polygon fill="midnightblue" stroke="midnightblue" points="52.49,-21.46 42.05,-19.65 49.08,-27.58 52.49,-21.46"/>
</g>
<!-- Node3&#45;&gt;Node5 -->
<g id="edge4" class="edge">
<title>Node3&#45;&gt;Node5</title>
<path fill="none" stroke="midnightblue" d="M139.08,-56.32C154.5,-47.74 178.31,-34.49 196.21,-24.52"/>
<polygon fill="midnightblue" stroke="midnightblue" points="197.92,-27.58 204.95,-19.65 194.51,-21.46 197.92,-27.58"/>
</g>
</g>
</svg>
