<?xml version="1.0" encoding="UTF-8" standalone="no"?>
<!DOCTYPE svg PUBLIC "-//W3C//DTD SVG 1.1//EN"
 "http://www.w3.org/Graphics/SVG/1.1/DTD/svg11.dtd">
<!-- Generated by graphviz version 2.43.0 (0)
 -->
<!-- Title: include/Lists/MLCL_DoubleLinkedList.h Pages: 1 -->
<svg width="858pt" height="307pt"
 viewBox="0.00 0.00 858.00 307.00" xmlns="http://www.w3.org/2000/svg" xmlns:xlink="http://www.w3.org/1999/xlink">
<g id="graph0" class="graph" transform="scale(1 1) rotate(0) translate(4 303)">
<title>include/Lists/MLCL_DoubleLinkedList.h</title>
<!-- Node1 -->
<g id="node1" class="node">
<title>Node1</title>
<g id="a_node1"><a xlink:title=" ">
<polygon fill="#bfbfbf" stroke="black" points="452.5,-268.5 452.5,-298.5 566.5,-298.5 566.5,-268.5 452.5,-268.5"/>
<text text-anchor="start" x="460.5" y="-286.5" font-family="Helvetica,sans-Serif" font-size="10.00">include/Lists/MLCL</text>
<text text-anchor="middle" x="509.5" y="-275.5" font-family="Helvetica,sans-Serif" font-size="10.00">_DoubleLinkedList.h</text>
</a>
</g>
</g>
<!-- Node2 -->
<g id="node2" class="node">
<title>Node2</title>
<g id="a_node2"><a xlink:href="_m_l_c_l___circular_double_linked_list_8h.html" target="_top" xlink:title=" ">
<polygon fill="none" stroke="black" points="329.5,-201.5 329.5,-231.5 481.5,-231.5 481.5,-201.5 329.5,-201.5"/>
<text text-anchor="start" x="337.5" y="-219.5" font-family="Helvetica,sans-Serif" font-size="10.00">include/Lists/MLCL</text>
<text text-anchor="middle" x="405.5" y="-208.5" font-family="Helvetica,sans-Serif" font-size="10.00">_CircularDoubleLinkedList.h</text>
</a>
</g>
</g>
<!-- Node1&#45;&gt;Node2 -->
<g id="edge1" class="edge">
<title>Node1&#45;&gt;Node2</title>
<path fill="none" stroke="midnightblue" d="M478.32,-263.02C462.14,-252.9 442.73,-240.77 428.02,-231.58"/>
<polygon fill="midnightblue" stroke="midnightblue" points="476.6,-266.06 486.93,-268.4 480.31,-260.13 476.6,-266.06"/>
</g>
<!-- Node4 -->
<g id="node4" class="node">
<title>Node4</title>
<g id="a_node4"><a xlink:href="_m_l_c_l___list_8h.html" target="_top" xlink:title=" ">
<polygon fill="none" stroke="black" points="209,-129 209,-159 316,-159 316,-129 209,-129"/>
<text text-anchor="start" x="217" y="-147" font-family="Helvetica,sans-Serif" font-size="10.00">include/Lists/MLCL</text>
<text text-anchor="middle" x="262.5" y="-136" font-family="Helvetica,sans-Serif" font-size="10.00">_List.h</text>
</a>
</g>
</g>
<!-- Node1&#45;&gt;Node4 -->
<g id="edge12" class="edge">
<title>Node1&#45;&gt;Node4</title>
<path fill="none" stroke="midnightblue" d="M442.38,-276.39C403.8,-270.14 356.1,-257.52 320.5,-232 294.24,-213.17 276.46,-178.47 268.06,-159.07"/>
<polygon fill="midnightblue" stroke="midnightblue" points="442.07,-279.88 452.48,-277.91 443.12,-272.96 442.07,-279.88"/>
</g>
<!-- Node11 -->
<g id="node11" class="node">
<title>Node11</title>
<g id="a_node11"><a xlink:href="_m_l_c_l___circular_double_linked_list_8c.html" target="_top" xlink:title=" ">
<polygon fill="none" stroke="black" points="495,-129 495,-159 658,-159 658,-129 495,-129"/>
<text text-anchor="start" x="503" y="-147" font-family="Helvetica,sans-Serif" font-size="10.00">src/Lists/MLCL_CircularDouble</text>
<text text-anchor="middle" x="576.5" y="-136" font-family="Helvetica,sans-Serif" font-size="10.00">LinkedList.c</text>
</a>
</g>
</g>
<!-- Node1&#45;&gt;Node11 -->
<g id="edge13" class="edge">
<title>Node1&#45;&gt;Node11</title>
<path fill="none" stroke="midnightblue" d="M512.5,-258.17C515.26,-241.42 520.36,-219.01 529.5,-201 537.54,-185.15 550.84,-169.89 561.25,-159.31"/>
<polygon fill="midnightblue" stroke="midnightblue" points="509,-257.86 511,-268.27 515.93,-258.89 509,-257.86"/>
</g>
<!-- Node12 -->
<g id="node12" class="node">
<title>Node12</title>
<g id="a_node12"><a xlink:href="_m_l_c_l___double_linked_list__test_8c.html" target="_top" xlink:title=" ">
<polygon fill="none" stroke="black" points="538,-201.5 538,-231.5 675,-231.5 675,-201.5 538,-201.5"/>
<text text-anchor="start" x="546" y="-219.5" font-family="Helvetica,sans-Serif" font-size="10.00">src/_Tests/Lists/MLCL</text>
<text text-anchor="middle" x="606.5" y="-208.5" font-family="Helvetica,sans-Serif" font-size="10.00">_DoubleLinkedList_test.c</text>
</a>
</g>
</g>
<!-- Node1&#45;&gt;Node12 -->
<g id="edge11" class="edge">
<title>Node1&#45;&gt;Node12</title>
<path fill="none" stroke="midnightblue" d="M539,-262.73C554.01,-252.68 571.9,-240.68 585.49,-231.58"/>
<polygon fill="midnightblue" stroke="midnightblue" points="536.91,-259.92 530.55,-268.4 540.8,-265.74 536.91,-259.92"/>
</g>
<!-- Node13 -->
<g id="node13" class="node">
<title>Node13</title>
<g id="a_node13"><a xlink:href="_m_l_c_l___double_linked_list_8c.html" target="_top" xlink:title=" ">
<polygon fill="none" stroke="black" points="693,-201.5 693,-231.5 850,-231.5 850,-201.5 693,-201.5"/>
<text text-anchor="start" x="701" y="-219.5" font-family="Helvetica,sans-Serif" font-size="10.00">src/Lists/MLCL_DoubleLinked</text>
<text text-anchor="middle" x="771.5" y="-208.5" font-family="Helvetica,sans-Serif" font-size="10.00">List.c</text>
</a>
</g>
</g>
<!-- Node1&#45;&gt;Node13 -->
<g id="edge14" class="edge">
<title>Node1&#45;&gt;Node13</title>
<path fill="none" stroke="midnightblue" d="M575.8,-266.05C618.63,-255.43 673.79,-241.74 714.62,-231.61"/>
<polygon fill="midnightblue" stroke="midnightblue" points="574.89,-262.67 566.03,-268.48 576.58,-269.47 574.89,-262.67"/>
</g>
<!-- Node3 -->
<g id="node3" class="node">
<title>Node3</title>
<g id="a_node3"><a xlink:href="_m_l_c_l___circular_double_linked_list__test_8c.html" target="_top" xlink:title=" ">
<polygon fill="none" stroke="black" points="334,-123.5 334,-164.5 477,-164.5 477,-123.5 334,-123.5"/>
<text text-anchor="start" x="342" y="-152.5" font-family="Helvetica,sans-Serif" font-size="10.00">src/_Tests/Lists/MLCL</text>
<text text-anchor="start" x="342" y="-141.5" font-family="Helvetica,sans-Serif" font-size="10.00">_CircularDoubleLinkedList</text>
<text text-anchor="middle" x="405.5" y="-130.5" font-family="Helvetica,sans-Serif" font-size="10.00">_test.c</text>
</a>
</g>
</g>
<!-- Node2&#45;&gt;Node3 -->
<g id="edge2" class="edge">
<title>Node2&#45;&gt;Node3</title>
<path fill="none" stroke="midnightblue" d="M405.5,-190.98C405.5,-182.35 405.5,-172.76 405.5,-164.59"/>
<polygon fill="midnightblue" stroke="midnightblue" points="402,-191.23 405.5,-201.23 409,-191.23 402,-191.23"/>
</g>
<!-- Node2&#45;&gt;Node4 -->
<g id="edge3" class="edge">
<title>Node2&#45;&gt;Node4</title>
<path fill="none" stroke="midnightblue" d="M367.72,-196.87C343.68,-185.02 313.05,-169.92 291.04,-159.07"/>
<polygon fill="midnightblue" stroke="midnightblue" points="366.39,-200.12 376.91,-201.4 369.48,-193.84 366.39,-200.12"/>
</g>
<!-- Node2&#45;&gt;Node11 -->
<g id="edge10" class="edge">
<title>Node2&#45;&gt;Node11</title>
<path fill="none" stroke="midnightblue" d="M449.16,-197.5C478.12,-185.56 515.59,-170.11 542.37,-159.07"/>
<polygon fill="midnightblue" stroke="midnightblue" points="447.6,-194.36 439.69,-201.4 450.27,-200.83 447.6,-194.36"/>
</g>
<!-- Node5 -->
<g id="node5" class="node">
<title>Node5</title>
<g id="a_node5"><a xlink:href="_m_l_c_l___list__test_8c.html" target="_top" xlink:title=" ">
<polygon fill="none" stroke="black" points="0,-56.5 0,-86.5 119,-86.5 119,-56.5 0,-56.5"/>
<text text-anchor="start" x="8" y="-74.5" font-family="Helvetica,sans-Serif" font-size="10.00">src/_Tests/Lists/MLCL</text>
<text text-anchor="middle" x="59.5" y="-63.5" font-family="Helvetica,sans-Serif" font-size="10.00">_List_test.c</text>
</a>
</g>
</g>
<!-- Node4&#45;&gt;Node5 -->
<g id="edge4" class="edge">
<title>Node4&#45;&gt;Node5</title>
<path fill="none" stroke="midnightblue" d="M212.45,-125.62C177.84,-113.6 132.37,-97.81 100.02,-86.57"/>
<polygon fill="midnightblue" stroke="midnightblue" points="211.31,-128.93 221.91,-128.9 213.61,-122.32 211.31,-128.93"/>
</g>
<!-- Node6 -->
<g id="node6" class="node">
<title>Node6</title>
<g id="a_node6"><a xlink:href="_m_l_c_l___list_8c.html" target="_top" xlink:title=" ">
<polygon fill="none" stroke="black" points="137.5,-62 137.5,-81 253.5,-81 253.5,-62 137.5,-62"/>
<text text-anchor="middle" x="195.5" y="-69" font-family="Helvetica,sans-Serif" font-size="10.00">src/Lists/MLCL_List.c</text>
</a>
</g>
</g>
<!-- Node4&#45;&gt;Node6 -->
<g id="edge5" class="edge">
<title>Node4&#45;&gt;Node6</title>
<path fill="none" stroke="midnightblue" d="M241.84,-121.26C229.09,-107.84 213.41,-91.35 203.95,-81.39"/>
<polygon fill="midnightblue" stroke="midnightblue" points="239.52,-123.9 248.94,-128.73 244.59,-119.07 239.52,-123.9"/>
</g>
<!-- Node7 -->
<g id="node7" class="node">
<title>Node7</title>
<g id="a_node7"><a xlink:href="_m_l_c_l___queue_8h.html" target="_top" xlink:title=" ">
<polygon fill="none" stroke="black" points="271.5,-56.5 271.5,-86.5 387.5,-86.5 387.5,-56.5 271.5,-56.5"/>
<text text-anchor="start" x="279.5" y="-74.5" font-family="Helvetica,sans-Serif" font-size="10.00">include/Queue/MLCL</text>
<text text-anchor="middle" x="329.5" y="-63.5" font-family="Helvetica,sans-Serif" font-size="10.00">_Queue.h</text>
</a>
</g>
</g>
<!-- Node4&#45;&gt;Node7 -->
<g id="edge6" class="edge">
<title>Node4&#45;&gt;Node7</title>
<path fill="none" stroke="midnightblue" d="M283.06,-121.36C293.75,-110.11 306.52,-96.68 315.96,-86.75"/>
<polygon fill="midnightblue" stroke="midnightblue" points="280.41,-119.07 276.06,-128.73 285.48,-123.9 280.41,-119.07"/>
</g>
<!-- Node9 -->
<g id="node9" class="node">
<title>Node9</title>
<g id="a_node9"><a xlink:href="_m_l_c_l___stack_8h.html" target="_top" xlink:title=" ">
<polygon fill="none" stroke="black" points="417,-56.5 417,-86.5 528,-86.5 528,-56.5 417,-56.5"/>
<text text-anchor="start" x="425" y="-74.5" font-family="Helvetica,sans-Serif" font-size="10.00">include/Stack/MLCL</text>
<text text-anchor="middle" x="472.5" y="-63.5" font-family="Helvetica,sans-Serif" font-size="10.00">_Stack.h</text>
</a>
</g>
</g>
<!-- Node4&#45;&gt;Node9 -->
<g id="edge8" class="edge">
<title>Node4&#45;&gt;Node9</title>
<path fill="none" stroke="midnightblue" d="M314.02,-125.7C349.82,-113.68 396.95,-97.86 430.48,-86.61"/>
<polygon fill="midnightblue" stroke="midnightblue" points="312.61,-122.49 304.24,-128.99 314.83,-129.12 312.61,-122.49"/>
</g>
<!-- Node8 -->
<g id="node8" class="node">
<title>Node8</title>
<g id="a_node8"><a xlink:href="_m_l_c_l___queue_8c.html" target="_top" xlink:title=" ">
<polygon fill="none" stroke="black" points="253.5,-0.5 253.5,-19.5 393.5,-19.5 393.5,-0.5 253.5,-0.5"/>
<text text-anchor="middle" x="323.5" y="-7.5" font-family="Helvetica,sans-Serif" font-size="10.00">src/Queue/MLCL_Queue.c</text>
</a>
</g>
</g>
<!-- Node7&#45;&gt;Node8 -->
<g id="edge7" class="edge">
<title>Node7&#45;&gt;Node8</title>
<path fill="none" stroke="midnightblue" d="M327.06,-46.29C326.11,-36.86 325.08,-26.65 324.37,-19.66"/>
<polygon fill="midnightblue" stroke="midnightblue" points="323.59,-46.8 328.08,-56.4 330.56,-46.1 323.59,-46.8"/>
</g>
<!-- Node10 -->
<g id="node10" class="node">
<title>Node10</title>
<g id="a_node10"><a xlink:href="_m_l_c_l___stack_8c.html" target="_top" xlink:title=" ">
<polygon fill="none" stroke="black" points="412,-0.5 412,-19.5 543,-19.5 543,-0.5 412,-0.5"/>
<text text-anchor="middle" x="477.5" y="-7.5" font-family="Helvetica,sans-Serif" font-size="10.00">src/Stack/MLCL_Stack.c</text>
</a>
</g>
</g>
<!-- Node9&#45;&gt;Node10 -->
<g id="edge9" class="edge">
<title>Node9&#45;&gt;Node10</title>
<path fill="none" stroke="midnightblue" d="M474.53,-46.29C475.33,-36.86 476.18,-26.65 476.77,-19.66"/>
<polygon fill="midnightblue" stroke="midnightblue" points="471.03,-46.14 473.68,-56.4 478.01,-46.73 471.03,-46.14"/>
</g>
</g>
</svg>
