<?xml version="1.0" encoding="UTF-8" standalone="no"?>
<!DOCTYPE svg PUBLIC "-//W3C//DTD SVG 1.1//EN"
 "http://www.w3.org/Graphics/SVG/1.1/DTD/svg11.dtd">
<!-- Generated by graphviz version 2.43.0 (0)
 -->
<!-- Title: src/List/MLCL_DoubleLinkedList.c Pages: 1 -->
<svg width="384pt" height="218pt"
 viewBox="0.00 0.00 384.00 218.00" xmlns="http://www.w3.org/2000/svg" xmlns:xlink="http://www.w3.org/1999/xlink">
<g id="graph0" class="graph" transform="scale(1 1) rotate(0) translate(4 214)">
<title>src/List/MLCL_DoubleLinkedList.c</title>
<!-- Node1 -->
<g id="node1" class="node">
<title>Node1</title>
<g id="a_node1"><a xlink:title=" ">
<polygon fill="#bfbfbf" stroke="black" points="144.5,-179.5 144.5,-209.5 296.5,-209.5 296.5,-179.5 144.5,-179.5"/>
<text text-anchor="start" x="152.5" y="-197.5" font-family="Helvetica,sans-Serif" font-size="10.00">src/List/MLCL_DoubleLinked</text>
<text text-anchor="middle" x="220.5" y="-186.5" font-family="Helvetica,sans-Serif" font-size="10.00">List.c</text>
</a>
</g>
</g>
<!-- Node2 -->
<g id="node2" class="node">
<title>Node2</title>
<g id="a_node2"><a xlink:href="_m_l_c_l___double_linked_list_8h.html" target="_top" xlink:title=" ">
<polygon fill="none" stroke="black" points="49,-112.5 49,-142.5 192,-142.5 192,-112.5 49,-112.5"/>
<text text-anchor="start" x="57" y="-130.5" font-family="Helvetica,sans-Serif" font-size="10.00">../../include/List</text>
<text text-anchor="middle" x="120.5" y="-119.5" font-family="Helvetica,sans-Serif" font-size="10.00">/MLCL_DoubleLinkedList.h</text>
</a>
</g>
</g>
<!-- Node1&#45;&gt;Node2 -->
<g id="edge1" class="edge">
<title>Node1&#45;&gt;Node2</title>
<path fill="none" stroke="midnightblue" d="M198.8,-179.4C184.78,-170.28 166.33,-158.29 150.86,-148.24"/>
<polygon fill="midnightblue" stroke="midnightblue" points="152.45,-145.09 142.16,-142.58 148.63,-150.96 152.45,-145.09"/>
</g>
<!-- Node3 -->
<g id="node3" class="node">
<title>Node3</title>
<g id="a_node3"><a xlink:title=" ">
<polygon fill="none" stroke="#bfbfbf" points="0,-0.5 0,-19.5 53,-19.5 53,-0.5 0,-0.5"/>
<text text-anchor="middle" x="26.5" y="-7.5" font-family="Helvetica,sans-Serif" font-size="10.00">stdlib.h</text>
</a>
</g>
</g>
<!-- Node1&#45;&gt;Node3 -->
<g id="edge9" class="edge">
<title>Node1&#45;&gt;Node3</title>
<path fill="none" stroke="midnightblue" d="M144.11,-180.94C101.2,-172.26 53.52,-159.35 39.5,-143 12.23,-111.2 17.15,-57.93 22.29,-29.77"/>
<polygon fill="midnightblue" stroke="midnightblue" points="25.78,-30.18 24.34,-19.68 18.92,-28.78 25.78,-30.18"/>
</g>
<!-- Node5 -->
<g id="node5" class="node">
<title>Node5</title>
<g id="a_node5"><a xlink:title=" ">
<polygon fill="none" stroke="#bfbfbf" points="146.5,-0.5 146.5,-19.5 196.5,-19.5 196.5,-0.5 146.5,-0.5"/>
<text text-anchor="middle" x="171.5" y="-7.5" font-family="Helvetica,sans-Serif" font-size="10.00">stdio.h</text>
</a>
</g>
</g>
<!-- Node1&#45;&gt;Node5 -->
<g id="edge8" class="edge">
<title>Node1&#45;&gt;Node5</title>
<path fill="none" stroke="midnightblue" d="M220.6,-179.33C220.34,-153.81 217.74,-98.81 201.5,-56 197.68,-45.92 191.25,-35.83 185.32,-27.77"/>
<polygon fill="midnightblue" stroke="midnightblue" points="187.91,-25.39 179.01,-19.64 182.38,-29.68 187.91,-25.39"/>
</g>
<!-- Node6 -->
<g id="node6" class="node">
<title>Node6</title>
<g id="a_node6"><a xlink:title=" ">
<polygon fill="none" stroke="#bfbfbf" points="248.5,-118 248.5,-137 304.5,-137 304.5,-118 248.5,-118"/>
<text text-anchor="middle" x="276.5" y="-125" font-family="Helvetica,sans-Serif" font-size="10.00">assert.h</text>
</a>
</g>
</g>
<!-- Node1&#45;&gt;Node6 -->
<g id="edge6" class="edge">
<title>Node1&#45;&gt;Node6</title>
<path fill="none" stroke="midnightblue" d="M232.65,-179.4C241.38,-169.26 253.18,-155.57 262.34,-144.94"/>
<polygon fill="midnightblue" stroke="midnightblue" points="265.13,-147.06 269.01,-137.19 259.83,-142.49 265.13,-147.06"/>
</g>
<!-- Node7 -->
<g id="node7" class="node">
<title>Node7</title>
<g id="a_node7"><a xlink:title=" ">
<polygon fill="none" stroke="#bfbfbf" points="323,-118 323,-137 376,-137 376,-118 323,-118"/>
<text text-anchor="middle" x="349.5" y="-125" font-family="Helvetica,sans-Serif" font-size="10.00">string.h</text>
</a>
</g>
</g>
<!-- Node1&#45;&gt;Node7 -->
<g id="edge7" class="edge">
<title>Node1&#45;&gt;Node7</title>
<path fill="none" stroke="midnightblue" d="M248.49,-179.4C270.83,-168.14 301.87,-152.5 323.63,-141.54"/>
<polygon fill="midnightblue" stroke="midnightblue" points="325.26,-144.63 332.62,-137.01 322.11,-138.38 325.26,-144.63"/>
</g>
<!-- Node2&#45;&gt;Node3 -->
<g id="edge2" class="edge">
<title>Node2&#45;&gt;Node3</title>
<path fill="none" stroke="midnightblue" d="M90.03,-112.39C74.65,-103.85 56.9,-91.59 45.5,-76 35.63,-62.5 30.87,-43.95 28.58,-30.12"/>
<polygon fill="midnightblue" stroke="midnightblue" points="31.99,-29.26 27.18,-19.82 25.06,-30.2 31.99,-29.26"/>
</g>
<!-- Node4 -->
<g id="node4" class="node">
<title>Node4</title>
<g id="a_node4"><a xlink:href="_m_l_c_l___type_descriptor_8h.html" target="_top" xlink:title=" ">
<polygon fill="none" stroke="black" points="54.5,-56.5 54.5,-75.5 192.5,-75.5 192.5,-56.5 54.5,-56.5"/>
<text text-anchor="middle" x="123.5" y="-63.5" font-family="Helvetica,sans-Serif" font-size="10.00">../MLCL_TypeDescriptor.h</text>
</a>
</g>
</g>
<!-- Node2&#45;&gt;Node4 -->
<g id="edge3" class="edge">
<title>Node2&#45;&gt;Node4</title>
<path fill="none" stroke="midnightblue" d="M121.21,-112.4C121.61,-104.47 122.12,-94.46 122.55,-85.86"/>
<polygon fill="midnightblue" stroke="midnightblue" points="126.06,-85.82 123.06,-75.66 119.06,-85.47 126.06,-85.82"/>
</g>
<!-- Node4&#45;&gt;Node3 -->
<g id="edge4" class="edge">
<title>Node4&#45;&gt;Node3</title>
<path fill="none" stroke="midnightblue" d="M107.92,-56.32C92.5,-47.74 68.69,-34.49 50.79,-24.52"/>
<polygon fill="midnightblue" stroke="midnightblue" points="52.49,-21.46 42.05,-19.65 49.08,-27.58 52.49,-21.46"/>
</g>
<!-- Node4&#45;&gt;Node5 -->
<g id="edge5" class="edge">
<title>Node4&#45;&gt;Node5</title>
<path fill="none" stroke="midnightblue" d="M131.43,-56.08C138.35,-48.3 148.57,-36.8 156.95,-27.37"/>
<polygon fill="midnightblue" stroke="midnightblue" points="159.69,-29.55 163.72,-19.75 154.46,-24.9 159.69,-29.55"/>
</g>
</g>
</svg>
