<?xml version="1.0" encoding="UTF-8" standalone="no"?>
<!DOCTYPE svg PUBLIC "-//W3C//DTD SVG 1.1//EN"
 "http://www.w3.org/Graphics/SVG/1.1/DTD/svg11.dtd">
<!-- Generated by graphviz version 2.43.0 (0)
 -->
<!-- Title: include/MLCL_DoubleLinkedList.h Pages: 1 -->
<svg width="631pt" height="173pt"
 viewBox="0.00 0.00 631.00 173.00" xmlns="http://www.w3.org/2000/svg" xmlns:xlink="http://www.w3.org/1999/xlink">
<g id="graph0" class="graph" transform="scale(1 1) rotate(0) translate(4 169)">
<title>include/MLCL_DoubleLinkedList.h</title>
<!-- Node1 -->
<g id="node1" class="node">
<title>Node1</title>
<g id="a_node1"><a xlink:title=" ">
<polygon fill="#bfbfbf" stroke="black" points="203.5,-134.5 203.5,-164.5 355.5,-164.5 355.5,-134.5 203.5,-134.5"/>
<text text-anchor="start" x="211.5" y="-152.5" font-family="Helvetica,sans-Serif" font-size="10.00">include/MLCL_DoubleLinked</text>
<text text-anchor="middle" x="279.5" y="-141.5" font-family="Helvetica,sans-Serif" font-size="10.00">List.h</text>
</a>
</g>
</g>
<!-- Node2 -->
<g id="node2" class="node">
<title>Node2</title>
<g id="a_node2"><a xlink:href="_m_l_c_l___circular_double_linked_list_8c.html" target="_top" xlink:title=" ">
<polygon fill="none" stroke="black" points="0,-0.5 0,-30.5 169,-30.5 169,-0.5 0,-0.5"/>
<text text-anchor="start" x="8" y="-18.5" font-family="Helvetica,sans-Serif" font-size="10.00">src/MLCL_CircularDoubleLinked</text>
<text text-anchor="middle" x="84.5" y="-7.5" font-family="Helvetica,sans-Serif" font-size="10.00">List.c</text>
</a>
</g>
</g>
<!-- Node1&#45;&gt;Node2 -->
<g id="edge1" class="edge">
<title>Node1&#45;&gt;Node2</title>
<path fill="none" stroke="midnightblue" d="M193.39,-142.05C161.2,-135.39 126.82,-122.53 103.5,-98 86.08,-79.68 83.56,-48.61 83.74,-30.59"/>
<polygon fill="midnightblue" stroke="midnightblue" points="192.82,-145.5 203.3,-143.92 194.12,-138.62 192.82,-145.5"/>
</g>
<!-- Node3 -->
<g id="node3" class="node">
<title>Node3</title>
<g id="a_node3"><a xlink:href="_m_l_c_l___circular_double_linked_list_8h.html" target="_top" xlink:title=" ">
<polygon fill="none" stroke="black" points="112.5,-67.5 112.5,-97.5 270.5,-97.5 270.5,-67.5 112.5,-67.5"/>
<text text-anchor="start" x="120.5" y="-85.5" font-family="Helvetica,sans-Serif" font-size="10.00">include/MLCL_CircularDouble</text>
<text text-anchor="middle" x="191.5" y="-74.5" font-family="Helvetica,sans-Serif" font-size="10.00">LinkedList.h</text>
</a>
</g>
</g>
<!-- Node1&#45;&gt;Node3 -->
<g id="edge2" class="edge">
<title>Node1&#45;&gt;Node3</title>
<path fill="none" stroke="midnightblue" d="M252.36,-128.45C238.82,-118.45 222.77,-106.6 210.56,-97.58"/>
<polygon fill="midnightblue" stroke="midnightblue" points="250.28,-131.27 260.41,-134.4 254.44,-125.64 250.28,-131.27"/>
</g>
<!-- Node5 -->
<g id="node5" class="node">
<title>Node5</title>
<g id="a_node5"><a xlink:href="_m_l_c_l___double_linked_list_8c.html" target="_top" xlink:title=" ">
<polygon fill="none" stroke="black" points="289,-73 289,-92 446,-92 446,-73 289,-73"/>
<text text-anchor="middle" x="367.5" y="-80" font-family="Helvetica,sans-Serif" font-size="10.00">src/MLCL_DoubleLinkedList.c</text>
</a>
</g>
</g>
<!-- Node1&#45;&gt;Node5 -->
<g id="edge5" class="edge">
<title>Node1&#45;&gt;Node5</title>
<path fill="none" stroke="midnightblue" d="M306.84,-128.31C323.36,-116.1 343.57,-101.18 355.98,-92.01"/>
<polygon fill="midnightblue" stroke="midnightblue" points="304.56,-125.64 298.59,-134.4 308.72,-131.27 304.56,-125.64"/>
</g>
<!-- Node6 -->
<g id="node6" class="node">
<title>Node6</title>
<g id="a_node6"><a xlink:href="_m_l_c_l___double_linked_list__test_8c.html" target="_top" xlink:title=" ">
<polygon fill="none" stroke="black" points="464,-67.5 464,-97.5 623,-97.5 623,-67.5 464,-67.5"/>
<text text-anchor="start" x="472" y="-85.5" font-family="Helvetica,sans-Serif" font-size="10.00">src/Tests/MLCL_DoubleLinked</text>
<text text-anchor="middle" x="543.5" y="-74.5" font-family="Helvetica,sans-Serif" font-size="10.00">List_test.c</text>
</a>
</g>
</g>
<!-- Node1&#45;&gt;Node6 -->
<g id="edge6" class="edge">
<title>Node1&#45;&gt;Node6</title>
<path fill="none" stroke="midnightblue" d="M346.31,-132.05C389.47,-121.43 445.04,-107.74 486.19,-97.61"/>
<polygon fill="midnightblue" stroke="midnightblue" points="345.33,-128.69 336.46,-134.48 347.01,-135.48 345.33,-128.69"/>
</g>
<!-- Node3&#45;&gt;Node2 -->
<g id="edge3" class="edge">
<title>Node3&#45;&gt;Node2</title>
<path fill="none" stroke="midnightblue" d="M159.42,-62.02C142.77,-51.9 122.81,-39.77 107.67,-30.58"/>
<polygon fill="midnightblue" stroke="midnightblue" points="157.92,-65.2 168.28,-67.4 161.55,-59.21 157.92,-65.2"/>
</g>
<!-- Node4 -->
<g id="node4" class="node">
<title>Node4</title>
<g id="a_node4"><a xlink:href="_m_l_c_l___circular_double_linked_list__test_8c.html" target="_top" xlink:title=" ">
<polygon fill="none" stroke="black" points="187,-0.5 187,-30.5 352,-30.5 352,-0.5 187,-0.5"/>
<text text-anchor="start" x="195" y="-18.5" font-family="Helvetica,sans-Serif" font-size="10.00">src/Tests/MLCL_CircularDouble</text>
<text text-anchor="middle" x="269.5" y="-7.5" font-family="Helvetica,sans-Serif" font-size="10.00">LinkedList_test.c</text>
</a>
</g>
</g>
<!-- Node3&#45;&gt;Node4 -->
<g id="edge4" class="edge">
<title>Node3&#45;&gt;Node4</title>
<path fill="none" stroke="midnightblue" d="M216.24,-60.88C228.09,-51.01 241.98,-39.43 252.61,-30.58"/>
<polygon fill="midnightblue" stroke="midnightblue" points="213.87,-58.31 208.42,-67.4 218.35,-63.68 213.87,-58.31"/>
</g>
</g>
</svg>
