<?xml version="1.0" encoding="UTF-8" standalone="no"?>
<!DOCTYPE svg PUBLIC "-//W3C//DTD SVG 1.1//EN"
 "http://www.w3.org/Graphics/SVG/1.1/DTD/svg11.dtd">
<!-- Generated by graphviz version 2.43.0 (0)
 -->
<!-- Title: include/Trees/MLCL_BKTree.h Pages: 1 -->
<svg width="531pt" height="330pt"
 viewBox="0.00 0.00 531.27 330.00" xmlns="http://www.w3.org/2000/svg" xmlns:xlink="http://www.w3.org/1999/xlink">
<g id="graph0" class="graph" transform="scale(1 1) rotate(0) translate(4 326)">
<title>include/Trees/MLCL_BKTree.h</title>
<!-- Node1 -->
<g id="node1" class="node">
<title>Node1</title>
<g id="a_node1"><a xlink:title=" ">
<polygon fill="#bfbfbf" stroke="black" points="40.27,-291.5 40.27,-321.5 150.27,-321.5 150.27,-291.5 40.27,-291.5"/>
<text text-anchor="start" x="48.27" y="-309.5" font-family="Helvetica,sans-Serif" font-size="10.00">include/Trees/MLCL</text>
<text text-anchor="middle" x="95.27" y="-298.5" font-family="Helvetica,sans-Serif" font-size="10.00">_BKTree.h</text>
</a>
</g>
</g>
<!-- Node2 -->
<g id="node2" class="node">
<title>Node2</title>
<g id="a_node2"><a xlink:href="_m_l_c_l___type_descriptor_8h.html" target="_top" xlink:title=" ">
<polygon fill="none" stroke="black" points="54.27,-56.5 54.27,-75.5 192.27,-75.5 192.27,-56.5 54.27,-56.5"/>
<text text-anchor="middle" x="123.27" y="-63.5" font-family="Helvetica,sans-Serif" font-size="10.00">../MLCL_TypeDescriptor.h</text>
</a>
</g>
</g>
<!-- Node1&#45;&gt;Node2 -->
<g id="edge1" class="edge">
<title>Node1&#45;&gt;Node2</title>
<path fill="none" stroke="midnightblue" d="M74.32,-291.48C41.27,-267.49 -17.04,-216.46 5.27,-168 24.01,-127.29 68.16,-96.87 96.82,-80.53"/>
<polygon fill="midnightblue" stroke="midnightblue" points="98.82,-83.43 105.89,-75.54 95.44,-77.3 98.82,-83.43"/>
</g>
<!-- Node5 -->
<g id="node5" class="node">
<title>Node5</title>
<g id="a_node5"><a xlink:href="_m_l_c_l___list_8h.html" target="_top" xlink:title=" ">
<polygon fill="none" stroke="black" points="200.77,-235.5 200.77,-254.5 309.77,-254.5 309.77,-235.5 200.77,-235.5"/>
<text text-anchor="middle" x="255.27" y="-242.5" font-family="Helvetica,sans-Serif" font-size="10.00">../Lists/MLCL_List.h</text>
</a>
</g>
</g>
<!-- Node1&#45;&gt;Node5 -->
<g id="edge4" class="edge">
<title>Node1&#45;&gt;Node5</title>
<path fill="none" stroke="midnightblue" d="M133.19,-291.4C160.39,-281.28 196.67,-267.79 222.6,-258.15"/>
<polygon fill="midnightblue" stroke="midnightblue" points="223.84,-261.42 231.99,-254.66 221.4,-254.86 223.84,-261.42"/>
</g>
<!-- Node3 -->
<g id="node3" class="node">
<title>Node3</title>
<g id="a_node3"><a xlink:title=" ">
<polygon fill="none" stroke="#bfbfbf" points="231.77,-0.5 231.77,-19.5 284.77,-19.5 284.77,-0.5 231.77,-0.5"/>
<text text-anchor="middle" x="258.27" y="-7.5" font-family="Helvetica,sans-Serif" font-size="10.00">stdlib.h</text>
</a>
</g>
</g>
<!-- Node2&#45;&gt;Node3 -->
<g id="edge2" class="edge">
<title>Node2&#45;&gt;Node3</title>
<path fill="none" stroke="midnightblue" d="M144.66,-56.44C166.98,-47.52 202.17,-33.44 227.48,-23.32"/>
<polygon fill="midnightblue" stroke="midnightblue" points="228.99,-26.48 236.98,-19.52 226.39,-19.98 228.99,-26.48"/>
</g>
<!-- Node4 -->
<g id="node4" class="node">
<title>Node4</title>
<g id="a_node4"><a xlink:title=" ">
<polygon fill="none" stroke="#bfbfbf" points="131.27,-0.5 131.27,-19.5 181.27,-19.5 181.27,-0.5 131.27,-0.5"/>
<text text-anchor="middle" x="156.27" y="-7.5" font-family="Helvetica,sans-Serif" font-size="10.00">stdio.h</text>
</a>
</g>
</g>
<!-- Node2&#45;&gt;Node4 -->
<g id="edge3" class="edge">
<title>Node2&#45;&gt;Node4</title>
<path fill="none" stroke="midnightblue" d="M128.72,-56.08C133.29,-48.61 139.94,-37.72 145.56,-28.52"/>
<polygon fill="midnightblue" stroke="midnightblue" points="148.69,-30.11 150.92,-19.75 142.72,-26.46 148.69,-30.11"/>
</g>
<!-- Node6 -->
<g id="node6" class="node">
<title>Node6</title>
<g id="a_node6"><a xlink:href="_m_l_c_l___array_list_8h.html" target="_top" xlink:title=" ">
<polygon fill="none" stroke="black" points="14.77,-174 14.77,-193 115.77,-193 115.77,-174 14.77,-174"/>
<text text-anchor="middle" x="65.27" y="-181" font-family="Helvetica,sans-Serif" font-size="10.00">MLCL_ArrayList.h</text>
</a>
</g>
</g>
<!-- Node5&#45;&gt;Node6 -->
<g id="edge5" class="edge">
<title>Node5&#45;&gt;Node6</title>
<path fill="none" stroke="midnightblue" d="M228.05,-235.48C195.03,-225.14 139.23,-207.66 102.32,-196.1"/>
<polygon fill="midnightblue" stroke="midnightblue" points="103.03,-192.66 92.44,-193.01 100.94,-199.34 103.03,-192.66"/>
</g>
<!-- Node7 -->
<g id="node7" class="node">
<title>Node7</title>
<g id="a_node7"><a xlink:href="_m_l_c_l___linked_list_8h.html" target="_top" xlink:title=" ">
<polygon fill="none" stroke="black" points="167.27,-112.5 167.27,-131.5 273.27,-131.5 273.27,-112.5 167.27,-112.5"/>
<text text-anchor="middle" x="220.27" y="-119.5" font-family="Helvetica,sans-Serif" font-size="10.00">MLCL_LinkedList.h</text>
</a>
</g>
</g>
<!-- Node5&#45;&gt;Node7 -->
<g id="edge7" class="edge">
<title>Node5&#45;&gt;Node7</title>
<path fill="none" stroke="midnightblue" d="M263.73,-235.32C276.68,-220.94 298.66,-191.43 286.27,-168 278.85,-153.95 264.85,-143.47 251.65,-136.17"/>
<polygon fill="midnightblue" stroke="midnightblue" points="253.23,-133.04 242.73,-131.62 250.05,-139.28 253.23,-133.04"/>
</g>
<!-- Node8 -->
<g id="node8" class="node">
<title>Node8</title>
<g id="a_node8"><a xlink:href="_m_l_c_l___circular_linked_list_8h.html" target="_top" xlink:title=" ">
<polygon fill="none" stroke="black" points="133.77,-174 133.77,-193 276.77,-193 276.77,-174 133.77,-174"/>
<text text-anchor="middle" x="205.27" y="-181" font-family="Helvetica,sans-Serif" font-size="10.00">MLCL_CircularLinkedList.h</text>
</a>
</g>
</g>
<!-- Node5&#45;&gt;Node8 -->
<g id="edge11" class="edge">
<title>Node5&#45;&gt;Node8</title>
<path fill="none" stroke="midnightblue" d="M248.11,-235.48C240.53,-226.46 228.4,-212.02 218.98,-200.81"/>
<polygon fill="midnightblue" stroke="midnightblue" points="221.53,-198.41 212.42,-193.01 216.18,-202.92 221.53,-198.41"/>
</g>
<!-- Node10 -->
<g id="node10" class="node">
<title>Node10</title>
<g id="a_node10"><a xlink:href="_m_l_c_l___double_linked_list_8h.html" target="_top" xlink:title=" ">
<polygon fill="none" stroke="black" points="291.27,-112.5 291.27,-131.5 431.27,-131.5 431.27,-112.5 291.27,-112.5"/>
<text text-anchor="middle" x="361.27" y="-119.5" font-family="Helvetica,sans-Serif" font-size="10.00">MLCL_DoubleLinkedList.h</text>
</a>
</g>
</g>
<!-- Node5&#45;&gt;Node10 -->
<g id="edge14" class="edge">
<title>Node5&#45;&gt;Node10</title>
<path fill="none" stroke="midnightblue" d="M264.78,-235.37C274.34,-226.55 289.32,-212.29 301.27,-199 318.75,-179.56 337.13,-155.7 348.87,-139.96"/>
<polygon fill="midnightblue" stroke="midnightblue" points="351.83,-141.85 354.95,-131.72 346.2,-137.69 351.83,-141.85"/>
</g>
<!-- Node11 -->
<g id="node11" class="node">
<title>Node11</title>
<g id="a_node11"><a xlink:href="_m_l_c_l___circular_double_linked_list_8h.html" target="_top" xlink:title=" ">
<polygon fill="none" stroke="black" points="371.27,-168.5 371.27,-198.5 523.27,-198.5 523.27,-168.5 371.27,-168.5"/>
<text text-anchor="start" x="379.27" y="-186.5" font-family="Helvetica,sans-Serif" font-size="10.00">MLCL_CircularDoubleLinked</text>
<text text-anchor="middle" x="447.27" y="-175.5" font-family="Helvetica,sans-Serif" font-size="10.00">List.h</text>
</a>
</g>
</g>
<!-- Node5&#45;&gt;Node11 -->
<g id="edge17" class="edge">
<title>Node5&#45;&gt;Node11</title>
<path fill="none" stroke="midnightblue" d="M282.78,-235.48C311.21,-226.66 356.37,-212.67 392.19,-201.57"/>
<polygon fill="midnightblue" stroke="midnightblue" points="393.5,-204.83 402.02,-198.52 391.43,-198.14 393.5,-204.83"/>
</g>
<!-- Node6&#45;&gt;Node2 -->
<g id="edge6" class="edge">
<title>Node6&#45;&gt;Node2</title>
<path fill="none" stroke="midnightblue" d="M66.34,-173.79C68.3,-160 73.32,-132.59 84.27,-112 89.95,-101.32 98.58,-91 106.29,-82.95"/>
<polygon fill="midnightblue" stroke="midnightblue" points="108.93,-85.26 113.53,-75.72 103.98,-80.3 108.93,-85.26"/>
</g>
<!-- Node7&#45;&gt;Node2 -->
<g id="edge8" class="edge">
<title>Node7&#45;&gt;Node2</title>
<path fill="none" stroke="midnightblue" d="M204.69,-112.32C189.27,-103.74 165.46,-90.49 147.56,-80.52"/>
<polygon fill="midnightblue" stroke="midnightblue" points="149.26,-77.46 138.82,-75.65 145.85,-83.58 149.26,-77.46"/>
</g>
<!-- Node7&#45;&gt;Node3 -->
<g id="edge9" class="edge">
<title>Node7&#45;&gt;Node3</title>
<path fill="none" stroke="midnightblue" d="M223.25,-112.37C229.41,-94.54 243.66,-53.3 251.96,-29.27"/>
<polygon fill="midnightblue" stroke="midnightblue" points="255.35,-30.19 255.3,-19.59 248.73,-27.9 255.35,-30.19"/>
</g>
<!-- Node7&#45;&gt;Node4 -->
<g id="edge10" class="edge">
<title>Node7&#45;&gt;Node4</title>
<path fill="none" stroke="midnightblue" d="M219.16,-112.46C217.18,-99.5 212.18,-74.41 201.27,-56 194.63,-44.79 184.56,-34.36 175.63,-26.37"/>
<polygon fill="midnightblue" stroke="midnightblue" points="177.76,-23.59 167.88,-19.77 173.22,-28.92 177.76,-23.59"/>
</g>
<!-- Node8&#45;&gt;Node7 -->
<g id="edge12" class="edge">
<title>Node8&#45;&gt;Node7</title>
<path fill="none" stroke="midnightblue" d="M207.42,-173.98C209.56,-165.49 212.91,-152.2 215.65,-141.32"/>
<polygon fill="midnightblue" stroke="midnightblue" points="219.07,-142.06 218.13,-131.51 212.29,-140.35 219.07,-142.06"/>
</g>
<!-- Node9 -->
<g id="node9" class="node">
<title>Node9</title>
<g id="a_node9"><a xlink:title=" ">
<polygon fill="none" stroke="#bfbfbf" points="93.27,-112.5 93.27,-131.5 149.27,-131.5 149.27,-112.5 93.27,-112.5"/>
<text text-anchor="middle" x="121.27" y="-119.5" font-family="Helvetica,sans-Serif" font-size="10.00">assert.h</text>
</a>
</g>
</g>
<!-- Node8&#45;&gt;Node9 -->
<g id="edge13" class="edge">
<title>Node8&#45;&gt;Node9</title>
<path fill="none" stroke="midnightblue" d="M193.24,-173.98C179.76,-164.43 157.7,-148.81 141.56,-137.37"/>
<polygon fill="midnightblue" stroke="midnightblue" points="143.47,-134.43 133.28,-131.51 139.42,-140.15 143.47,-134.43"/>
</g>
<!-- Node10&#45;&gt;Node2 -->
<g id="edge16" class="edge">
<title>Node10&#45;&gt;Node2</title>
<path fill="none" stroke="midnightblue" d="M323.56,-112.44C282.13,-103.04 215.51,-87.93 170.6,-77.74"/>
<polygon fill="midnightblue" stroke="midnightblue" points="171.33,-74.32 160.81,-75.52 169.78,-81.14 171.33,-74.32"/>
</g>
<!-- Node10&#45;&gt;Node3 -->
<g id="edge15" class="edge">
<title>Node10&#45;&gt;Node3</title>
<path fill="none" stroke="midnightblue" d="M353.19,-112.37C335.96,-93.97 295.42,-50.67 273.3,-27.05"/>
<polygon fill="midnightblue" stroke="midnightblue" points="275.71,-24.5 266.32,-19.59 270.6,-29.28 275.71,-24.5"/>
</g>
<!-- Node11&#45;&gt;Node10 -->
<g id="edge18" class="edge">
<title>Node11&#45;&gt;Node10</title>
<path fill="none" stroke="midnightblue" d="M426.89,-168.4C413.36,-159.04 395.66,-146.79 382.05,-137.38"/>
<polygon fill="midnightblue" stroke="midnightblue" points="384,-134.47 373.78,-131.66 380.02,-140.23 384,-134.47"/>
</g>
</g>
</svg>
