<?xml version="1.0" encoding="UTF-8" standalone="no"?>
<!DOCTYPE svg PUBLIC "-//W3C//DTD SVG 1.1//EN"
 "http://www.w3.org/Graphics/SVG/1.1/DTD/svg11.dtd">
<!-- Generated by graphviz version 2.43.0 (0)
 -->
<!-- Title: include/MLCL_BinaryTree.h Pages: 1 -->
<svg width="350pt" height="229pt"
 viewBox="0.00 0.00 350.00 229.00" xmlns="http://www.w3.org/2000/svg" xmlns:xlink="http://www.w3.org/1999/xlink">
<g id="graph0" class="graph" transform="scale(1 1) rotate(0) translate(4 225)">
<title>include/MLCL_BinaryTree.h</title>
<!-- Node1 -->
<g id="node1" class="node">
<title>Node1</title>
<g id="a_node1"><a xlink:title=" ">
<polygon fill="#bfbfbf" stroke="black" points="56,-201.5 56,-220.5 203,-220.5 203,-201.5 56,-201.5"/>
<text text-anchor="middle" x="129.5" y="-208.5" font-family="Helvetica,sans-Serif" font-size="10.00">include/MLCL_BinaryTree.h</text>
</a>
</g>
</g>
<!-- Node2 -->
<g id="node2" class="node">
<title>Node2</title>
<g id="a_node2"><a xlink:href="_m_l_c_l___binary_tree_8c.html" target="_top" xlink:title=" ">
<polygon fill="none" stroke="black" points="0,-140 0,-159 125,-159 125,-140 0,-140"/>
<text text-anchor="middle" x="62.5" y="-147" font-family="Helvetica,sans-Serif" font-size="10.00">src/MLCL_BinaryTree.c</text>
</a>
</g>
</g>
<!-- Node1&#45;&gt;Node2 -->
<g id="edge1" class="edge">
<title>Node1&#45;&gt;Node2</title>
<path fill="none" stroke="midnightblue" d="M112.21,-194.65C99.44,-183.31 82.52,-168.28 72.08,-159.01"/>
<polygon fill="midnightblue" stroke="midnightblue" points="110.1,-197.45 119.9,-201.48 114.75,-192.22 110.1,-197.45"/>
</g>
<!-- Node3 -->
<g id="node3" class="node">
<title>Node3</title>
<g id="a_node3"><a xlink:href="_m_l_c_l___binary_tree__test_8h.html" target="_top" xlink:title=" ">
<polygon fill="none" stroke="black" points="143,-134.5 143,-164.5 252,-164.5 252,-134.5 143,-134.5"/>
<text text-anchor="start" x="151" y="-152.5" font-family="Helvetica,sans-Serif" font-size="10.00">include/Tests/MLCL</text>
<text text-anchor="middle" x="197.5" y="-141.5" font-family="Helvetica,sans-Serif" font-size="10.00">_BinaryTree_test.h</text>
</a>
</g>
</g>
<!-- Node1&#45;&gt;Node3 -->
<g id="edge2" class="edge">
<title>Node1&#45;&gt;Node3</title>
<path fill="none" stroke="midnightblue" d="M147.05,-194.65C157.68,-185.35 171.13,-173.57 181.47,-164.52"/>
<polygon fill="midnightblue" stroke="midnightblue" points="144.46,-192.26 139.24,-201.48 149.07,-197.52 144.46,-192.26"/>
</g>
<!-- Node4 -->
<g id="node4" class="node">
<title>Node4</title>
<g id="a_node4"><a xlink:href="_m_l_c_l__all__tests_8h.html" target="_top" xlink:title=" ">
<polygon fill="none" stroke="black" points="70,-67.5 70,-97.5 179,-97.5 179,-67.5 70,-67.5"/>
<text text-anchor="start" x="78" y="-85.5" font-family="Helvetica,sans-Serif" font-size="10.00">include/Tests/MLCL</text>
<text text-anchor="middle" x="124.5" y="-74.5" font-family="Helvetica,sans-Serif" font-size="10.00">_all_tests.h</text>
</a>
</g>
</g>
<!-- Node3&#45;&gt;Node4 -->
<g id="edge3" class="edge">
<title>Node3&#45;&gt;Node4</title>
<path fill="none" stroke="midnightblue" d="M174.03,-127.6C163,-117.78 150.16,-106.34 140.31,-97.58"/>
<polygon fill="midnightblue" stroke="midnightblue" points="171.86,-130.36 181.66,-134.4 176.52,-125.13 171.86,-130.36"/>
</g>
<!-- Node6 -->
<g id="node6" class="node">
<title>Node6</title>
<g id="a_node6"><a xlink:href="_m_l_c_l___binary_tree__test_8c.html" target="_top" xlink:title=" ">
<polygon fill="none" stroke="black" points="197,-67.5 197,-97.5 342,-97.5 342,-67.5 197,-67.5"/>
<text text-anchor="start" x="205" y="-85.5" font-family="Helvetica,sans-Serif" font-size="10.00">src/Tests/MLCL_BinaryTree</text>
<text text-anchor="middle" x="269.5" y="-74.5" font-family="Helvetica,sans-Serif" font-size="10.00">_test.c</text>
</a>
</g>
</g>
<!-- Node3&#45;&gt;Node6 -->
<g id="edge5" class="edge">
<title>Node3&#45;&gt;Node6</title>
<path fill="none" stroke="midnightblue" d="M220.65,-127.6C231.52,-117.78 244.2,-106.34 253.91,-97.58"/>
<polygon fill="midnightblue" stroke="midnightblue" points="218.2,-125.1 213.12,-134.4 222.89,-130.29 218.2,-125.1"/>
</g>
<!-- Node5 -->
<g id="node5" class="node">
<title>Node5</title>
<g id="a_node5"><a xlink:href="_m_l_c_l__all__tests_8c.html" target="_top" xlink:title=" ">
<polygon fill="none" stroke="black" points="72,-0.5 72,-30.5 177,-30.5 177,-0.5 72,-0.5"/>
<text text-anchor="start" x="80" y="-18.5" font-family="Helvetica,sans-Serif" font-size="10.00">src/Tests/MLCL_all</text>
<text text-anchor="middle" x="124.5" y="-7.5" font-family="Helvetica,sans-Serif" font-size="10.00">_tests.c</text>
</a>
</g>
</g>
<!-- Node4&#45;&gt;Node5 -->
<g id="edge4" class="edge">
<title>Node4&#45;&gt;Node5</title>
<path fill="none" stroke="midnightblue" d="M124.5,-57.11C124.5,-48.15 124.5,-38.32 124.5,-30.58"/>
<polygon fill="midnightblue" stroke="midnightblue" points="121,-57.4 124.5,-67.4 128,-57.4 121,-57.4"/>
</g>
</g>
</svg>
