<?xml version="1.0" encoding="UTF-8" standalone="no"?>
<!DOCTYPE svg PUBLIC "-//W3C//DTD SVG 1.1//EN"
 "http://www.w3.org/Graphics/SVG/1.1/DTD/svg11.dtd">
<!-- Generated by graphviz version 2.43.0 (0)
 -->
<!-- Title: include/MLCL_TypeDescriptor.h Pages: 1 -->
<svg width="2353pt" height="318pt"
 viewBox="0.00 0.00 2353.00 318.00" xmlns="http://www.w3.org/2000/svg" xmlns:xlink="http://www.w3.org/1999/xlink">
<g id="graph0" class="graph" transform="scale(1 1) rotate(0) translate(4 314)">
<title>include/MLCL_TypeDescriptor.h</title>
<!-- Node1 -->
<g id="node1" class="node">
<title>Node1</title>
<g id="a_node1"><a xlink:title=" ">
<polygon fill="#bfbfbf" stroke="black" points="1318.5,-290.5 1318.5,-309.5 1485.5,-309.5 1485.5,-290.5 1318.5,-290.5"/>
<text text-anchor="middle" x="1402" y="-297.5" font-family="Helvetica,sans-Serif" font-size="10.00">include/MLCL_TypeDescriptor.h</text>
</a>
</g>
</g>
<!-- Node2 -->
<g id="node2" class="node">
<title>Node2</title>
<g id="a_node2"><a xlink:href="_m_l_c_l___array_list_8h.html" target="_top" xlink:title=" ">
<polygon fill="none" stroke="black" points="221.5,-151 221.5,-181 328.5,-181 328.5,-151 221.5,-151"/>
<text text-anchor="start" x="229.5" y="-169" font-family="Helvetica,sans-Serif" font-size="10.00">include/Lists/MLCL</text>
<text text-anchor="middle" x="275" y="-158" font-family="Helvetica,sans-Serif" font-size="10.00">_ArrayList.h</text>
</a>
</g>
</g>
<!-- Node1&#45;&gt;Node2 -->
<g id="edge1" class="edge">
<title>Node1&#45;&gt;Node2</title>
<path fill="none" stroke="midnightblue" d="M1308.23,-296.75C1120.87,-291.78 706.17,-278.37 566,-254 472.49,-237.74 366.61,-201.34 311.99,-181.15"/>
<polygon fill="midnightblue" stroke="midnightblue" points="1308.25,-300.25 1318.34,-297.01 1308.44,-293.25 1308.25,-300.25"/>
</g>
<!-- Node8 -->
<g id="node8" class="node">
<title>Node8</title>
<g id="a_node8"><a xlink:href="_m_l_c_l__basic__types_8h.html" target="_top" xlink:title=" ">
<polygon fill="none" stroke="black" points="1263,-151 1263,-181 1375,-181 1375,-151 1263,-151"/>
<text text-anchor="start" x="1271" y="-169" font-family="Helvetica,sans-Serif" font-size="10.00">include/MLCL_basic</text>
<text text-anchor="middle" x="1319" y="-158" font-family="Helvetica,sans-Serif" font-size="10.00">_types.h</text>
</a>
</g>
</g>
<!-- Node1&#45;&gt;Node8 -->
<g id="edge7" class="edge">
<title>Node1&#45;&gt;Node8</title>
<path fill="none" stroke="midnightblue" d="M1374.58,-285.43C1361.94,-277.84 1347.82,-267.23 1339,-254 1324.04,-231.57 1320.17,-199.44 1319.24,-181.16"/>
<polygon fill="midnightblue" stroke="midnightblue" points="1373,-288.55 1383.43,-290.41 1376.43,-282.45 1373,-288.55"/>
</g>
<!-- Node14 -->
<g id="node14" class="node">
<title>Node14</title>
<g id="a_node14"><a xlink:href="_m_l_c_l___a_v_l_tree__test_8c.html" target="_top" xlink:title=" ">
<polygon fill="none" stroke="black" points="1775,-73 1775,-103 1897,-103 1897,-73 1775,-73"/>
<text text-anchor="start" x="1783" y="-91" font-family="Helvetica,sans-Serif" font-size="10.00">src/_Tests/Trees/MLCL</text>
<text text-anchor="middle" x="1836" y="-80" font-family="Helvetica,sans-Serif" font-size="10.00">_AVLTree_test.c</text>
</a>
</g>
</g>
<!-- Node1&#45;&gt;Node14 -->
<g id="edge35" class="edge">
<title>Node1&#45;&gt;Node14</title>
<path fill="none" stroke="midnightblue" d="M1428.9,-285.98C1506.01,-248.67 1727.36,-141.57 1807.01,-103.03"/>
<polygon fill="midnightblue" stroke="midnightblue" points="1427.3,-282.87 1419.82,-290.38 1430.35,-289.17 1427.3,-282.87"/>
</g>
<!-- Node17 -->
<g id="node17" class="node">
<title>Node17</title>
<g id="a_node17"><a xlink:href="_m_l_c_l___double_linked_list_8h.html" target="_top" xlink:title=" ">
<polygon fill="none" stroke="black" points="575,-223.5 575,-253.5 689,-253.5 689,-223.5 575,-223.5"/>
<text text-anchor="start" x="583" y="-241.5" font-family="Helvetica,sans-Serif" font-size="10.00">include/Lists/MLCL</text>
<text text-anchor="middle" x="632" y="-230.5" font-family="Helvetica,sans-Serif" font-size="10.00">_DoubleLinkedList.h</text>
</a>
</g>
</g>
<!-- Node1&#45;&gt;Node17 -->
<g id="edge18" class="edge">
<title>Node1&#45;&gt;Node17</title>
<path fill="none" stroke="midnightblue" d="M1308.1,-291.74C1146.62,-279.27 820.99,-254.1 689.25,-243.92"/>
<polygon fill="midnightblue" stroke="midnightblue" points="1308.26,-295.27 1318.5,-292.55 1308.8,-288.29 1308.26,-295.27"/>
</g>
<!-- Node21 -->
<g id="node21" class="node">
<title>Node21</title>
<g id="a_node21"><a xlink:href="_m_l_c_l___linked_list_8h.html" target="_top" xlink:title=" ">
<polygon fill="none" stroke="black" points="1348.5,-223.5 1348.5,-253.5 1455.5,-253.5 1455.5,-223.5 1348.5,-223.5"/>
<text text-anchor="start" x="1356.5" y="-241.5" font-family="Helvetica,sans-Serif" font-size="10.00">include/Lists/MLCL</text>
<text text-anchor="middle" x="1402" y="-230.5" font-family="Helvetica,sans-Serif" font-size="10.00">_LinkedList.h</text>
</a>
</g>
</g>
<!-- Node1&#45;&gt;Node21 -->
<g id="edge27" class="edge">
<title>Node1&#45;&gt;Node21</title>
<path fill="none" stroke="midnightblue" d="M1402,-280.23C1402,-271.59 1402,-261.5 1402,-253.52"/>
<polygon fill="midnightblue" stroke="midnightblue" points="1398.5,-280.48 1402,-290.48 1405.5,-280.48 1398.5,-280.48"/>
</g>
<!-- Node25 -->
<g id="node25" class="node">
<title>Node25</title>
<g id="a_node25"><a xlink:href="_m_l_c_l___type_descriptor_8c.html" target="_top" xlink:title=" ">
<polygon fill="none" stroke="black" points="1953,-229 1953,-248 2099,-248 2099,-229 1953,-229"/>
<text text-anchor="middle" x="2026" y="-236" font-family="Helvetica,sans-Serif" font-size="10.00">src/MLCL_TypeDescriptor.c</text>
</a>
</g>
</g>
<!-- Node1&#45;&gt;Node25 -->
<g id="edge36" class="edge">
<title>Node1&#45;&gt;Node25</title>
<path fill="none" stroke="midnightblue" d="M1496.06,-293.83C1604.38,-287.26 1787.52,-274.29 1944,-254 1956.47,-252.38 1969.94,-250.19 1982.28,-248"/>
<polygon fill="midnightblue" stroke="midnightblue" points="1495.59,-290.35 1485.82,-294.44 1496.01,-297.34 1495.59,-290.35"/>
</g>
<!-- Node26 -->
<g id="node26" class="node">
<title>Node26</title>
<g id="a_node26"><a xlink:href="_m_l_c_l___binary_search_tree_8h.html" target="_top" xlink:title=" ">
<polygon fill="none" stroke="black" points="1819,-223.5 1819,-253.5 1935,-253.5 1935,-223.5 1819,-223.5"/>
<text text-anchor="start" x="1827" y="-241.5" font-family="Helvetica,sans-Serif" font-size="10.00">include/Trees/MLCL</text>
<text text-anchor="middle" x="1877" y="-230.5" font-family="Helvetica,sans-Serif" font-size="10.00">_BinarySearchTree.h</text>
</a>
</g>
</g>
<!-- Node1&#45;&gt;Node26 -->
<g id="edge37" class="edge">
<title>Node1&#45;&gt;Node26</title>
<path fill="none" stroke="midnightblue" d="M1480.2,-289.2C1575.33,-277.29 1733.73,-257.45 1818.78,-246.79"/>
<polygon fill="midnightblue" stroke="midnightblue" points="1479.54,-285.76 1470.06,-290.48 1480.41,-292.7 1479.54,-285.76"/>
</g>
<!-- Node3 -->
<g id="node3" class="node">
<title>Node3</title>
<g id="a_node3"><a xlink:href="_m_l_c_l___array_list__test_8c.html" target="_top" xlink:title=" ">
<polygon fill="none" stroke="black" points="290.5,-73 290.5,-103 409.5,-103 409.5,-73 290.5,-73"/>
<text text-anchor="start" x="298.5" y="-91" font-family="Helvetica,sans-Serif" font-size="10.00">src/_Tests/Lists/MLCL</text>
<text text-anchor="middle" x="350" y="-80" font-family="Helvetica,sans-Serif" font-size="10.00">_ArrayList_test.c</text>
</a>
</g>
</g>
<!-- Node2&#45;&gt;Node3 -->
<g id="edge2" class="edge">
<title>Node2&#45;&gt;Node3</title>
<path fill="none" stroke="midnightblue" d="M296.18,-143.53C308.92,-130.63 324.76,-114.57 335.96,-103.23"/>
<polygon fill="midnightblue" stroke="midnightblue" points="293.64,-141.13 289.11,-150.7 298.62,-146.05 293.64,-141.13"/>
</g>
<!-- Node4 -->
<g id="node4" class="node">
<title>Node4</title>
<g id="a_node4"><a xlink:href="_m_l_c_l___list_8h.html" target="_top" xlink:title=" ">
<polygon fill="none" stroke="black" points="4.5,-73 4.5,-103 111.5,-103 111.5,-73 4.5,-73"/>
<text text-anchor="start" x="12.5" y="-91" font-family="Helvetica,sans-Serif" font-size="10.00">include/Lists/MLCL</text>
<text text-anchor="middle" x="58" y="-80" font-family="Helvetica,sans-Serif" font-size="10.00">_List.h</text>
</a>
</g>
</g>
<!-- Node2&#45;&gt;Node4 -->
<g id="edge3" class="edge">
<title>Node2&#45;&gt;Node4</title>
<path fill="none" stroke="midnightblue" d="M225.47,-147.65C186.93,-134.16 134.13,-115.66 98.19,-103.07"/>
<polygon fill="midnightblue" stroke="midnightblue" points="224.35,-150.97 234.95,-150.97 226.66,-144.36 224.35,-150.97"/>
</g>
<!-- Node7 -->
<g id="node7" class="node">
<title>Node7</title>
<g id="a_node7"><a xlink:href="_m_l_c_l___array_list_8c.html" target="_top" xlink:title=" ">
<polygon fill="none" stroke="black" points="129.5,-78.5 129.5,-97.5 272.5,-97.5 272.5,-78.5 129.5,-78.5"/>
<text text-anchor="middle" x="201" y="-85.5" font-family="Helvetica,sans-Serif" font-size="10.00">src/Lists/MLCL_ArrayList.c</text>
</a>
</g>
</g>
<!-- Node2&#45;&gt;Node7 -->
<g id="edge6" class="edge">
<title>Node2&#45;&gt;Node7</title>
<path fill="none" stroke="midnightblue" d="M253.79,-143.21C238.99,-128.01 220.04,-108.55 209.34,-97.56"/>
<polygon fill="midnightblue" stroke="midnightblue" points="251.6,-145.98 261.08,-150.7 256.61,-141.1 251.6,-145.98"/>
</g>
<!-- Node5 -->
<g id="node5" class="node">
<title>Node5</title>
<g id="a_node5"><a xlink:href="_m_l_c_l___list__test_8c.html" target="_top" xlink:title=" ">
<polygon fill="none" stroke="black" points="673.5,-0.5 673.5,-30.5 792.5,-30.5 792.5,-0.5 673.5,-0.5"/>
<text text-anchor="start" x="681.5" y="-18.5" font-family="Helvetica,sans-Serif" font-size="10.00">src/_Tests/Lists/MLCL</text>
<text text-anchor="middle" x="733" y="-7.5" font-family="Helvetica,sans-Serif" font-size="10.00">_List_test.c</text>
</a>
</g>
</g>
<!-- Node4&#45;&gt;Node5 -->
<g id="edge4" class="edge">
<title>Node4&#45;&gt;Node5</title>
<path fill="none" stroke="midnightblue" d="M106.69,-70.14C111.16,-68.95 115.64,-67.87 120,-67 320.01,-27.06 562.8,-18.6 673.19,-16.89"/>
<polygon fill="midnightblue" stroke="midnightblue" points="105.65,-66.8 97,-72.92 107.58,-73.53 105.65,-66.8"/>
</g>
<!-- Node6 -->
<g id="node6" class="node">
<title>Node6</title>
<g id="a_node6"><a xlink:href="_m_l_c_l___list_8c.html" target="_top" xlink:title=" ">
<polygon fill="none" stroke="black" points="0,-6 0,-25 116,-25 116,-6 0,-6"/>
<text text-anchor="middle" x="58" y="-13" font-family="Helvetica,sans-Serif" font-size="10.00">src/Lists/MLCL_List.c</text>
</a>
</g>
</g>
<!-- Node4&#45;&gt;Node6 -->
<g id="edge5" class="edge">
<title>Node4&#45;&gt;Node6</title>
<path fill="none" stroke="midnightblue" d="M58,-62.59C58,-49.71 58,-34.7 58,-25.39"/>
<polygon fill="midnightblue" stroke="midnightblue" points="54.5,-62.73 58,-72.73 61.5,-62.73 54.5,-62.73"/>
</g>
<!-- Node8&#45;&gt;Node3 -->
<g id="edge8" class="edge">
<title>Node8&#45;&gt;Node3</title>
<path fill="none" stroke="midnightblue" d="M1252.86,-153.61C1231.86,-150.36 1208.51,-147.13 1187,-145 846.51,-111.33 755.43,-165.68 418,-109 409.51,-107.57 400.57,-105.43 392.07,-103.07"/>
<polygon fill="midnightblue" stroke="midnightblue" points="1252.54,-157.1 1262.96,-155.2 1253.63,-150.18 1252.54,-157.1"/>
</g>
<!-- Node8&#45;&gt;Node5 -->
<g id="edge13" class="edge">
<title>Node8&#45;&gt;Node5</title>
<path fill="none" stroke="midnightblue" d="M1306.3,-141.91C1291.45,-115.84 1267.01,-75.88 1252,-67 1175.64,-21.84 911.98,-16.23 792.58,-16.08"/>
<polygon fill="midnightblue" stroke="midnightblue" points="1303.35,-143.8 1311.3,-150.8 1309.45,-140.37 1303.35,-143.8"/>
</g>
<!-- Node9 -->
<g id="node9" class="node">
<title>Node9</title>
<g id="a_node9"><a xlink:href="_m_l_c_l___circular_double_linked_list__test_8c.html" target="_top" xlink:title=" ">
<polygon fill="none" stroke="black" points="608.5,-67.5 608.5,-108.5 751.5,-108.5 751.5,-67.5 608.5,-67.5"/>
<text text-anchor="start" x="616.5" y="-96.5" font-family="Helvetica,sans-Serif" font-size="10.00">src/_Tests/Lists/MLCL</text>
<text text-anchor="start" x="616.5" y="-85.5" font-family="Helvetica,sans-Serif" font-size="10.00">_CircularDoubleLinkedList</text>
<text text-anchor="middle" x="680" y="-74.5" font-family="Helvetica,sans-Serif" font-size="10.00">_test.c</text>
</a>
</g>
</g>
<!-- Node8&#45;&gt;Node9 -->
<g id="edge9" class="edge">
<title>Node8&#45;&gt;Node9</title>
<path fill="none" stroke="midnightblue" d="M1252.8,-154.09C1231.8,-150.87 1208.46,-147.53 1187,-145 997.86,-122.72 947.88,-140.2 760,-109 757.32,-108.55 754.59,-108.06 751.84,-107.54"/>
<polygon fill="midnightblue" stroke="midnightblue" points="1252.49,-157.59 1262.91,-155.66 1253.56,-150.67 1252.49,-157.59"/>
</g>
<!-- Node10 -->
<g id="node10" class="node">
<title>Node10</title>
<g id="a_node10"><a xlink:href="_m_l_c_l___circular_linked_list__test_8c.html" target="_top" xlink:title=" ">
<polygon fill="none" stroke="black" points="1103,-73 1103,-103 1243,-103 1243,-73 1103,-73"/>
<text text-anchor="start" x="1111" y="-91" font-family="Helvetica,sans-Serif" font-size="10.00">src/_Tests/Lists/MLCL</text>
<text text-anchor="middle" x="1173" y="-80" font-family="Helvetica,sans-Serif" font-size="10.00">_CircularLinkedList_test.c</text>
</a>
</g>
</g>
<!-- Node8&#45;&gt;Node10 -->
<g id="edge10" class="edge">
<title>Node8&#45;&gt;Node10</title>
<path fill="none" stroke="midnightblue" d="M1282.83,-146.17C1257.17,-132.82 1223.29,-115.18 1199.97,-103.04"/>
<polygon fill="midnightblue" stroke="midnightblue" points="1281.39,-149.37 1291.88,-150.88 1284.63,-143.16 1281.39,-149.37"/>
</g>
<!-- Node11 -->
<g id="node11" class="node">
<title>Node11</title>
<g id="a_node11"><a xlink:href="_m_l_c_l___double_linked_list__test_8c.html" target="_top" xlink:title=" ">
<polygon fill="none" stroke="black" points="769.5,-73 769.5,-103 906.5,-103 906.5,-73 769.5,-73"/>
<text text-anchor="start" x="777.5" y="-91" font-family="Helvetica,sans-Serif" font-size="10.00">src/_Tests/Lists/MLCL</text>
<text text-anchor="middle" x="838" y="-80" font-family="Helvetica,sans-Serif" font-size="10.00">_DoubleLinkedList_test.c</text>
</a>
</g>
</g>
<!-- Node8&#45;&gt;Node11 -->
<g id="edge11" class="edge">
<title>Node8&#45;&gt;Node11</title>
<path fill="none" stroke="midnightblue" d="M1252.72,-154.72C1231.72,-151.52 1208.4,-148.04 1187,-145 1066.71,-127.9 1035.28,-132.13 916,-109 907.22,-107.3 897.95,-105.2 888.99,-103"/>
<polygon fill="midnightblue" stroke="midnightblue" points="1252.42,-158.21 1262.83,-156.26 1253.47,-151.29 1252.42,-158.21"/>
</g>
<!-- Node12 -->
<g id="node12" class="node">
<title>Node12</title>
<g id="a_node12"><a xlink:href="_m_l_c_l___linked_list__test_8c.html" target="_top" xlink:title=" ">
<polygon fill="none" stroke="black" points="1637.5,-73 1637.5,-103 1756.5,-103 1756.5,-73 1637.5,-73"/>
<text text-anchor="start" x="1645.5" y="-91" font-family="Helvetica,sans-Serif" font-size="10.00">src/_Tests/Lists/MLCL</text>
<text text-anchor="middle" x="1697" y="-80" font-family="Helvetica,sans-Serif" font-size="10.00">_LinkedList_test.c</text>
</a>
</g>
</g>
<!-- Node8&#45;&gt;Node12 -->
<g id="edge12" class="edge">
<title>Node8&#45;&gt;Node12</title>
<path fill="none" stroke="midnightblue" d="M1374.85,-148.35C1379.61,-147.14 1384.38,-146 1389,-145 1494.41,-122.14 1523.68,-132.27 1629,-109 1636.69,-107.3 1644.79,-105.2 1652.6,-103.01"/>
<polygon fill="midnightblue" stroke="midnightblue" points="1373.88,-144.98 1365.1,-150.92 1375.66,-151.75 1373.88,-144.98"/>
</g>
<!-- Node13 -->
<g id="node13" class="node">
<title>Node13</title>
<g id="a_node13"><a xlink:href="_m_l_c_l___type_descriptor__test_8c.html" target="_top" xlink:title=" ">
<polygon fill="none" stroke="black" points="1299.5,-73 1299.5,-103 1470.5,-103 1470.5,-73 1299.5,-73"/>
<text text-anchor="start" x="1307.5" y="-91" font-family="Helvetica,sans-Serif" font-size="10.00">src/_Tests/MLCL_TypeDescriptor</text>
<text text-anchor="middle" x="1385" y="-80" font-family="Helvetica,sans-Serif" font-size="10.00">_test.c</text>
</a>
</g>
</g>
<!-- Node8&#45;&gt;Node13 -->
<g id="edge14" class="edge">
<title>Node8&#45;&gt;Node13</title>
<path fill="none" stroke="midnightblue" d="M1338.27,-142.81C1349.37,-130.03 1362.98,-114.36 1372.64,-103.23"/>
<polygon fill="midnightblue" stroke="midnightblue" points="1335.33,-140.86 1331.41,-150.7 1340.61,-145.45 1335.33,-140.86"/>
</g>
<!-- Node8&#45;&gt;Node14 -->
<g id="edge15" class="edge">
<title>Node8&#45;&gt;Node14</title>
<path fill="none" stroke="midnightblue" d="M1385.33,-151.23C1397.5,-148.96 1410.11,-146.77 1422,-145 1574.04,-122.33 1615.08,-138.23 1766,-109 1774.19,-107.41 1782.81,-105.32 1791.09,-103.08"/>
<polygon fill="midnightblue" stroke="midnightblue" points="1384.41,-147.85 1375.24,-153.16 1385.72,-154.72 1384.41,-147.85"/>
</g>
<!-- Node15 -->
<g id="node15" class="node">
<title>Node15</title>
<g id="a_node15"><a xlink:href="_m_l_c_l___binary_search_tree__test_8c.html" target="_top" xlink:title=" ">
<polygon fill="none" stroke="black" points="2073.5,-73 2073.5,-103 2212.5,-103 2212.5,-73 2073.5,-73"/>
<text text-anchor="start" x="2081.5" y="-91" font-family="Helvetica,sans-Serif" font-size="10.00">src/_Tests/Trees/MLCL</text>
<text text-anchor="middle" x="2143" y="-80" font-family="Helvetica,sans-Serif" font-size="10.00">_BinarySearchTree_test.c</text>
</a>
</g>
</g>
<!-- Node8&#45;&gt;Node15 -->
<g id="edge16" class="edge">
<title>Node8&#45;&gt;Node15</title>
<path fill="none" stroke="midnightblue" d="M1385.27,-150.76C1397.44,-148.54 1410.07,-146.49 1422,-145 1705.59,-109.68 1781.51,-152.27 2064,-109 2073.65,-107.52 2083.84,-105.39 2093.57,-103.06"/>
<polygon fill="midnightblue" stroke="midnightblue" points="1384.36,-147.37 1375.18,-152.66 1385.65,-154.25 1384.36,-147.37"/>
</g>
<!-- Node16 -->
<g id="node16" class="node">
<title>Node16</title>
<g id="a_node16"><a xlink:href="_m_l_c_l__basic__types_8c.html" target="_top" xlink:title=" ">
<polygon fill="none" stroke="black" points="1488.5,-78.5 1488.5,-97.5 1619.5,-97.5 1619.5,-78.5 1488.5,-78.5"/>
<text text-anchor="middle" x="1554" y="-85.5" font-family="Helvetica,sans-Serif" font-size="10.00">src/MLCL_basic_types.c</text>
</a>
</g>
</g>
<!-- Node8&#45;&gt;Node16 -->
<g id="edge17" class="edge">
<title>Node8&#45;&gt;Node16</title>
<path fill="none" stroke="midnightblue" d="M1372.07,-147.84C1420.53,-132.17 1490.14,-109.65 1527.65,-97.52"/>
<polygon fill="midnightblue" stroke="midnightblue" points="1370.81,-144.56 1362.38,-150.97 1372.97,-151.22 1370.81,-144.56"/>
</g>
<!-- Node17&#45;&gt;Node4 -->
<g id="edge24" class="edge">
<title>Node17&#45;&gt;Node4</title>
<path fill="none" stroke="midnightblue" d="M564.79,-234.94C454.82,-229.95 241.78,-216.7 173,-187 128.69,-167.86 88.67,-125.61 69.66,-103.35"/>
<polygon fill="midnightblue" stroke="midnightblue" points="564.63,-238.44 574.78,-235.38 564.94,-231.45 564.63,-238.44"/>
</g>
<!-- Node17&#45;&gt;Node11 -->
<g id="edge23" class="edge">
<title>Node17&#45;&gt;Node11</title>
<path fill="none" stroke="midnightblue" d="M636.13,-213.2C640.88,-192.41 650.66,-163.07 670,-145 679.01,-136.58 742.76,-116.71 789.07,-103.05"/>
<polygon fill="midnightblue" stroke="midnightblue" points="632.66,-212.69 634.08,-223.19 639.52,-214.09 632.66,-212.69"/>
</g>
<!-- Node18 -->
<g id="node18" class="node">
<title>Node18</title>
<g id="a_node18"><a xlink:href="_m_l_c_l___circular_double_linked_list_8h.html" target="_top" xlink:title=" ">
<polygon fill="none" stroke="black" points="433,-151 433,-181 585,-181 585,-151 433,-151"/>
<text text-anchor="start" x="441" y="-169" font-family="Helvetica,sans-Serif" font-size="10.00">include/Lists/MLCL</text>
<text text-anchor="middle" x="509" y="-158" font-family="Helvetica,sans-Serif" font-size="10.00">_CircularDoubleLinkedList.h</text>
</a>
</g>
</g>
<!-- Node17&#45;&gt;Node18 -->
<g id="edge19" class="edge">
<title>Node17&#45;&gt;Node18</title>
<path fill="none" stroke="midnightblue" d="M598.68,-218.4C578.13,-206.62 552.23,-191.78 533.55,-181.07"/>
<polygon fill="midnightblue" stroke="midnightblue" points="596.99,-221.47 607.4,-223.4 600.47,-215.39 596.99,-221.47"/>
</g>
<!-- Node19 -->
<g id="node19" class="node">
<title>Node19</title>
<g id="a_node19"><a xlink:href="_m_l_c_l___circular_double_linked_list_8c.html" target="_top" xlink:title=" ">
<polygon fill="none" stroke="black" points="427.5,-73 427.5,-103 590.5,-103 590.5,-73 427.5,-73"/>
<text text-anchor="start" x="435.5" y="-91" font-family="Helvetica,sans-Serif" font-size="10.00">src/Lists/MLCL_CircularDouble</text>
<text text-anchor="middle" x="509" y="-80" font-family="Helvetica,sans-Serif" font-size="10.00">LinkedList.c</text>
</a>
</g>
</g>
<!-- Node17&#45;&gt;Node19 -->
<g id="edge25" class="edge">
<title>Node17&#45;&gt;Node19</title>
<path fill="none" stroke="midnightblue" d="M626.37,-213.41C620.76,-193.42 610.56,-165.11 594,-145 579.17,-126.99 557.03,-112.67 539.07,-103.01"/>
<polygon fill="midnightblue" stroke="midnightblue" points="623.04,-214.5 628.96,-223.29 629.81,-212.73 623.04,-214.5"/>
</g>
<!-- Node20 -->
<g id="node20" class="node">
<title>Node20</title>
<g id="a_node20"><a xlink:href="_m_l_c_l___double_linked_list_8c.html" target="_top" xlink:title=" ">
<polygon fill="none" stroke="black" points="679.5,-151 679.5,-181 836.5,-181 836.5,-151 679.5,-151"/>
<text text-anchor="start" x="687.5" y="-169" font-family="Helvetica,sans-Serif" font-size="10.00">src/Lists/MLCL_DoubleLinked</text>
<text text-anchor="middle" x="758" y="-158" font-family="Helvetica,sans-Serif" font-size="10.00">List.c</text>
</a>
</g>
</g>
<!-- Node17&#45;&gt;Node20 -->
<g id="edge26" class="edge">
<title>Node17&#45;&gt;Node20</title>
<path fill="none" stroke="midnightblue" d="M666.14,-218.4C687.19,-206.62 713.72,-191.78 732.85,-181.07"/>
<polygon fill="midnightblue" stroke="midnightblue" points="664.21,-215.47 657.2,-223.4 667.63,-221.57 664.21,-215.47"/>
</g>
<!-- Node18&#45;&gt;Node4 -->
<g id="edge21" class="edge">
<title>Node18&#45;&gt;Node4</title>
<path fill="none" stroke="midnightblue" d="M422.59,-154.29C326.01,-142.02 175.85,-121.93 120,-109 112.84,-107.34 105.32,-105.24 98.08,-103.02"/>
<polygon fill="midnightblue" stroke="midnightblue" points="422.27,-157.78 432.63,-155.57 423.15,-150.84 422.27,-157.78"/>
</g>
<!-- Node18&#45;&gt;Node9 -->
<g id="edge20" class="edge">
<title>Node18&#45;&gt;Node9</title>
<path fill="none" stroke="midnightblue" d="M549.94,-146.81C575.85,-135.29 609.33,-120.41 635.84,-108.63"/>
<polygon fill="midnightblue" stroke="midnightblue" points="548.48,-143.62 540.76,-150.88 551.32,-150.02 548.48,-143.62"/>
</g>
<!-- Node18&#45;&gt;Node19 -->
<g id="edge22" class="edge">
<title>Node18&#45;&gt;Node19</title>
<path fill="none" stroke="midnightblue" d="M509,-140.59C509,-128.26 509,-113.72 509,-103.23"/>
<polygon fill="midnightblue" stroke="midnightblue" points="505.5,-140.7 509,-150.7 512.5,-140.71 505.5,-140.7"/>
</g>
<!-- Node21&#45;&gt;Node4 -->
<g id="edge33" class="edge">
<title>Node21&#45;&gt;Node4</title>
<path fill="none" stroke="midnightblue" d="M1337.93,-235.85C1098.22,-229.53 265.23,-206.27 212,-187 183.08,-176.53 182.67,-161.94 157,-145 133.43,-129.44 105.31,-113.79 85.06,-103.01"/>
<polygon fill="midnightblue" stroke="midnightblue" points="1338.13,-239.35 1348.22,-236.12 1338.32,-232.36 1338.13,-239.35"/>
</g>
<!-- Node21&#45;&gt;Node12 -->
<g id="edge32" class="edge">
<title>Node21&#45;&gt;Node12</title>
<path fill="none" stroke="midnightblue" d="M1400.3,-213.2C1400.25,-192.16 1403.83,-162.44 1422,-145 1489.36,-80.33 1538.06,-130.21 1629,-109 1636.43,-107.27 1644.25,-105.2 1651.83,-103.06"/>
<polygon fill="midnightblue" stroke="midnightblue" points="1396.81,-213.41 1400.6,-223.3 1403.8,-213.2 1396.81,-213.41"/>
</g>
<!-- Node22 -->
<g id="node22" class="node">
<title>Node22</title>
<g id="a_node22"><a xlink:href="_m_l_c_l___circular_linked_list_8h.html" target="_top" xlink:title=" ">
<polygon fill="none" stroke="black" points="1061.5,-151 1061.5,-181 1178.5,-181 1178.5,-151 1061.5,-151"/>
<text text-anchor="start" x="1069.5" y="-169" font-family="Helvetica,sans-Serif" font-size="10.00">include/Lists/MLCL</text>
<text text-anchor="middle" x="1120" y="-158" font-family="Helvetica,sans-Serif" font-size="10.00">_CircularLinkedList.h</text>
</a>
</g>
</g>
<!-- Node21&#45;&gt;Node22 -->
<g id="edge28" class="edge">
<title>Node21&#45;&gt;Node22</title>
<path fill="none" stroke="midnightblue" d="M1338.5,-221.62C1289.81,-209.45 1223.23,-192.81 1176.4,-181.1"/>
<polygon fill="midnightblue" stroke="midnightblue" points="1337.74,-225.04 1348.29,-224.07 1339.44,-218.25 1337.74,-225.04"/>
</g>
<!-- Node24 -->
<g id="node24" class="node">
<title>Node24</title>
<g id="a_node24"><a xlink:href="_m_l_c_l___linked_list_8c.html" target="_top" xlink:title=" ">
<polygon fill="none" stroke="black" points="1431,-156.5 1431,-175.5 1579,-175.5 1579,-156.5 1431,-156.5"/>
<text text-anchor="middle" x="1505" y="-163.5" font-family="Helvetica,sans-Serif" font-size="10.00">src/Lists/MLCL_LinkedList.c</text>
</a>
</g>
</g>
<!-- Node21&#45;&gt;Node24 -->
<g id="edge34" class="edge">
<title>Node21&#45;&gt;Node24</title>
<path fill="none" stroke="midnightblue" d="M1431.36,-217.4C1451.49,-203.62 1477.2,-186.03 1492.3,-175.69"/>
<polygon fill="midnightblue" stroke="midnightblue" points="1429.12,-214.7 1422.84,-223.23 1433.07,-220.47 1429.12,-214.7"/>
</g>
<!-- Node22&#45;&gt;Node4 -->
<g id="edge30" class="edge">
<title>Node22&#45;&gt;Node4</title>
<path fill="none" stroke="midnightblue" d="M1051.2,-159.56C995.59,-155.26 915.28,-149.3 845,-145 522.98,-125.3 437.36,-167.02 120,-109 112.21,-107.58 104.05,-105.44 96.29,-103.08"/>
<polygon fill="midnightblue" stroke="midnightblue" points="1051.04,-163.05 1061.29,-160.34 1051.59,-156.08 1051.04,-163.05"/>
</g>
<!-- Node22&#45;&gt;Node10 -->
<g id="edge29" class="edge">
<title>Node22&#45;&gt;Node10</title>
<path fill="none" stroke="midnightblue" d="M1135.73,-142.44C1144.59,-129.73 1155.39,-114.25 1163.08,-103.23"/>
<polygon fill="midnightblue" stroke="midnightblue" points="1132.82,-140.5 1129.97,-150.7 1138.56,-144.5 1132.82,-140.5"/>
</g>
<!-- Node23 -->
<g id="node23" class="node">
<title>Node23</title>
<g id="a_node23"><a xlink:href="_m_l_c_l___circular_linked_list_8c.html" target="_top" xlink:title=" ">
<polygon fill="none" stroke="black" points="925,-73 925,-103 1085,-103 1085,-73 925,-73"/>
<text text-anchor="start" x="933" y="-91" font-family="Helvetica,sans-Serif" font-size="10.00">src/Lists/MLCL_CircularLinked</text>
<text text-anchor="middle" x="1005" y="-80" font-family="Helvetica,sans-Serif" font-size="10.00">List.c</text>
</a>
</g>
</g>
<!-- Node22&#45;&gt;Node23 -->
<g id="edge31" class="edge">
<title>Node22&#45;&gt;Node23</title>
<path fill="none" stroke="midnightblue" d="M1090.17,-145.29C1070.13,-132.05 1044.21,-114.91 1026.25,-103.04"/>
<polygon fill="midnightblue" stroke="midnightblue" points="1088.37,-148.29 1098.64,-150.88 1092.23,-142.45 1088.37,-148.29"/>
</g>
<!-- Node27 -->
<g id="node27" class="node">
<title>Node27</title>
<g id="a_node27"><a xlink:href="_m_l_c_l___a_v_l_tree_8h.html" target="_top" xlink:title=" ">
<polygon fill="none" stroke="black" points="1822,-151 1822,-181 1932,-181 1932,-151 1822,-151"/>
<text text-anchor="start" x="1830" y="-169" font-family="Helvetica,sans-Serif" font-size="10.00">include/Trees/MLCL</text>
<text text-anchor="middle" x="1877" y="-158" font-family="Helvetica,sans-Serif" font-size="10.00">_AVLTree.h</text>
</a>
</g>
</g>
<!-- Node26&#45;&gt;Node27 -->
<g id="edge38" class="edge">
<title>Node26&#45;&gt;Node27</title>
<path fill="none" stroke="midnightblue" d="M1877,-213.23C1877,-202.57 1877,-190.41 1877,-181.25"/>
<polygon fill="midnightblue" stroke="midnightblue" points="1873.5,-213.23 1877,-223.23 1880.5,-213.23 1873.5,-213.23"/>
</g>
<!-- Node29 -->
<g id="node29" class="node">
<title>Node29</title>
<g id="a_node29"><a xlink:href="_m_l_c_l___binary_search_tree__test_8h.html" target="_top" xlink:title=" ">
<polygon fill="none" stroke="black" points="2033,-145.5 2033,-186.5 2169,-186.5 2169,-145.5 2033,-145.5"/>
<text text-anchor="start" x="2041" y="-174.5" font-family="Helvetica,sans-Serif" font-size="10.00">include/_Tests/Trees</text>
<text text-anchor="start" x="2041" y="-163.5" font-family="Helvetica,sans-Serif" font-size="10.00">/MLCL_BinarySearchTree</text>
<text text-anchor="middle" x="2101" y="-152.5" font-family="Helvetica,sans-Serif" font-size="10.00">_test.h</text>
</a>
</g>
</g>
<!-- Node26&#45;&gt;Node29 -->
<g id="edge41" class="edge">
<title>Node26&#45;&gt;Node29</title>
<path fill="none" stroke="midnightblue" d="M1931.28,-220.42C1963.71,-210.21 2005.01,-197.21 2038.75,-186.59"/>
<polygon fill="midnightblue" stroke="midnightblue" points="1930.01,-217.15 1921.52,-223.49 1932.11,-223.82 1930.01,-217.15"/>
</g>
<!-- Node32 -->
<g id="node32" class="node">
<title>Node32</title>
<g id="a_node32"><a xlink:href="_m_l_c_l___binary_search_tree_8c.html" target="_top" xlink:title=" ">
<polygon fill="none" stroke="black" points="2187,-151 2187,-181 2345,-181 2345,-151 2187,-151"/>
<text text-anchor="start" x="2195" y="-169" font-family="Helvetica,sans-Serif" font-size="10.00">src/Trees/MLCL_BinarySearch</text>
<text text-anchor="middle" x="2266" y="-158" font-family="Helvetica,sans-Serif" font-size="10.00">Tree.c</text>
</a>
</g>
</g>
<!-- Node26&#45;&gt;Node32 -->
<g id="edge45" class="edge">
<title>Node26&#45;&gt;Node32</title>
<path fill="none" stroke="midnightblue" d="M1945.04,-222.88C2049.18,-204.01 2077.76,-206.08 2178,-187 2187.39,-185.21 2197.3,-183.14 2206.95,-181.02"/>
<polygon fill="midnightblue" stroke="midnightblue" points="1944.27,-219.46 1935.06,-224.71 1945.53,-226.35 1944.27,-219.46"/>
</g>
<!-- Node27&#45;&gt;Node14 -->
<g id="edge39" class="edge">
<title>Node27&#45;&gt;Node14</title>
<path fill="none" stroke="midnightblue" d="M1864.43,-141.7C1857.66,-129.14 1849.51,-114.04 1843.68,-103.23"/>
<polygon fill="midnightblue" stroke="midnightblue" points="1861.46,-143.57 1869.29,-150.7 1867.62,-140.24 1861.46,-143.57"/>
</g>
<!-- Node28 -->
<g id="node28" class="node">
<title>Node28</title>
<g id="a_node28"><a xlink:href="_m_l_c_l___a_v_l_tree_8c.html" target="_top" xlink:title=" ">
<polygon fill="none" stroke="black" points="1915,-78.5 1915,-97.5 2055,-97.5 2055,-78.5 1915,-78.5"/>
<text text-anchor="middle" x="1985" y="-85.5" font-family="Helvetica,sans-Serif" font-size="10.00">src/Trees/MLCL_AVLTree.c</text>
</a>
</g>
</g>
<!-- Node27&#45;&gt;Node28 -->
<g id="edge40" class="edge">
<title>Node27&#45;&gt;Node28</title>
<path fill="none" stroke="midnightblue" d="M1905.35,-145.05C1927.26,-129.63 1956.5,-109.05 1972.77,-97.61"/>
<polygon fill="midnightblue" stroke="midnightblue" points="1903.22,-142.27 1897.06,-150.88 1907.25,-147.99 1903.22,-142.27"/>
</g>
<!-- Node29&#45;&gt;Node15 -->
<g id="edge44" class="edge">
<title>Node29&#45;&gt;Node15</title>
<path fill="none" stroke="midnightblue" d="M2116.67,-136.64C2122.97,-125.25 2129.95,-112.62 2135.14,-103.23"/>
<polygon fill="midnightblue" stroke="midnightblue" points="2113.59,-134.98 2111.82,-145.43 2119.72,-138.37 2113.59,-134.98"/>
</g>
<!-- Node30 -->
<g id="node30" class="node">
<title>Node30</title>
<g id="a_node30"><a xlink:href="_m_l_c_l__all__tests_8h.html" target="_top" xlink:title=" ">
<polygon fill="none" stroke="black" points="2231,-73 2231,-103 2345,-103 2345,-73 2231,-73"/>
<text text-anchor="start" x="2239" y="-91" font-family="Helvetica,sans-Serif" font-size="10.00">include/_Tests/MLCL</text>
<text text-anchor="middle" x="2288" y="-80" font-family="Helvetica,sans-Serif" font-size="10.00">_all_tests.h</text>
</a>
</g>
</g>
<!-- Node29&#45;&gt;Node30 -->
<g id="edge42" class="edge">
<title>Node29&#45;&gt;Node30</title>
<path fill="none" stroke="midnightblue" d="M2158.56,-141.61C2189.54,-129.02 2226.74,-113.9 2253.29,-103.11"/>
<polygon fill="midnightblue" stroke="midnightblue" points="2157.1,-138.42 2149.16,-145.43 2159.74,-144.91 2157.1,-138.42"/>
</g>
<!-- Node31 -->
<g id="node31" class="node">
<title>Node31</title>
<g id="a_node31"><a xlink:href="_m_l_c_l__all__tests_8c.html" target="_top" xlink:title=" ">
<polygon fill="none" stroke="black" points="2233,-0.5 2233,-30.5 2343,-30.5 2343,-0.5 2233,-0.5"/>
<text text-anchor="start" x="2241" y="-18.5" font-family="Helvetica,sans-Serif" font-size="10.00">src/_Tests/MLCL_all</text>
<text text-anchor="middle" x="2288" y="-7.5" font-family="Helvetica,sans-Serif" font-size="10.00">_tests.c</text>
</a>
</g>
</g>
<!-- Node30&#45;&gt;Node31 -->
<g id="edge43" class="edge">
<title>Node30&#45;&gt;Node31</title>
<path fill="none" stroke="midnightblue" d="M2288,-62.73C2288,-52.07 2288,-39.91 2288,-30.75"/>
<polygon fill="midnightblue" stroke="midnightblue" points="2284.5,-62.73 2288,-72.73 2291.5,-62.73 2284.5,-62.73"/>
</g>
</g>
</svg>
