<?xml version="1.0" encoding="UTF-8" standalone="no"?>
<!DOCTYPE svg PUBLIC "-//W3C//DTD SVG 1.1//EN"
 "http://www.w3.org/Graphics/SVG/1.1/DTD/svg11.dtd">
<!-- Generated by graphviz version 2.43.0 (0)
 -->
<!-- Title: src/Lists/MLCL_List.c Pages: 1 -->
<svg width="471pt" height="330pt"
 viewBox="0.00 0.00 471.03 330.00" xmlns="http://www.w3.org/2000/svg" xmlns:xlink="http://www.w3.org/1999/xlink">
<g id="graph0" class="graph" transform="scale(1 1) rotate(0) translate(4 326)">
<title>src/Lists/MLCL_List.c</title>
<!-- Node1 -->
<g id="node1" class="node">
<title>Node1</title>
<g id="a_node1"><a xlink:title=" ">
<polygon fill="#bfbfbf" stroke="black" points="178.17,-302.5 178.17,-321.5 294.17,-321.5 294.17,-302.5 178.17,-302.5"/>
<text text-anchor="middle" x="236.17" y="-309.5" font-family="Helvetica,sans-Serif" font-size="10.00">src/Lists/MLCL_List.c</text>
</a>
</g>
</g>
<!-- Node2 -->
<g id="node2" class="node">
<title>Node2</title>
<g id="a_node2"><a xlink:href="_m_l_c_l___list_8h.html" target="_top" xlink:title=" ">
<polygon fill="none" stroke="black" points="188.67,-235.5 188.67,-265.5 283.67,-265.5 283.67,-235.5 188.67,-235.5"/>
<text text-anchor="start" x="196.67" y="-253.5" font-family="Helvetica,sans-Serif" font-size="10.00">../../include/Lists</text>
<text text-anchor="middle" x="236.17" y="-242.5" font-family="Helvetica,sans-Serif" font-size="10.00">/MLCL_List.h</text>
</a>
</g>
</g>
<!-- Node1&#45;&gt;Node2 -->
<g id="edge1" class="edge">
<title>Node1&#45;&gt;Node2</title>
<path fill="none" stroke="midnightblue" d="M236.17,-302.48C236.17,-295.47 236.17,-285.19 236.17,-275.7"/>
<polygon fill="midnightblue" stroke="midnightblue" points="239.67,-275.52 236.17,-265.52 232.67,-275.52 239.67,-275.52"/>
</g>
<!-- Node3 -->
<g id="node3" class="node">
<title>Node3</title>
<g id="a_node3"><a xlink:href="_m_l_c_l___array_list_8h.html" target="_top" xlink:title=" ">
<polygon fill="none" stroke="black" points="185.67,-174 185.67,-193 286.67,-193 286.67,-174 185.67,-174"/>
<text text-anchor="middle" x="236.17" y="-181" font-family="Helvetica,sans-Serif" font-size="10.00">MLCL_ArrayList.h</text>
</a>
</g>
</g>
<!-- Node2&#45;&gt;Node3 -->
<g id="edge2" class="edge">
<title>Node2&#45;&gt;Node3</title>
<path fill="none" stroke="midnightblue" d="M236.17,-235.4C236.17,-226.06 236.17,-213.71 236.17,-203.52"/>
<polygon fill="midnightblue" stroke="midnightblue" points="239.67,-203.19 236.17,-193.19 232.67,-203.19 239.67,-203.19"/>
</g>
<!-- Node7 -->
<g id="node7" class="node">
<title>Node7</title>
<g id="a_node7"><a xlink:href="_m_l_c_l___linked_list_8h.html" target="_top" xlink:title=" ">
<polygon fill="none" stroke="black" points="330.17,-112.5 330.17,-131.5 436.17,-131.5 436.17,-112.5 330.17,-112.5"/>
<text text-anchor="middle" x="383.17" y="-119.5" font-family="Helvetica,sans-Serif" font-size="10.00">MLCL_LinkedList.h</text>
</a>
</g>
</g>
<!-- Node2&#45;&gt;Node7 -->
<g id="edge6" class="edge">
<title>Node2&#45;&gt;Node7</title>
<path fill="none" stroke="midnightblue" d="M283.85,-245.44C342.21,-239.36 435.91,-225.66 457.17,-199 465.75,-188.23 463.92,-180.01 457.17,-168 448.94,-153.38 433.84,-142.95 419.4,-135.85"/>
<polygon fill="midnightblue" stroke="midnightblue" points="420.65,-132.57 410.1,-131.64 417.77,-138.95 420.65,-132.57"/>
</g>
<!-- Node8 -->
<g id="node8" class="node">
<title>Node8</title>
<g id="a_node8"><a xlink:href="_m_l_c_l___circular_linked_list_8h.html" target="_top" xlink:title=" ">
<polygon fill="none" stroke="black" points="304.67,-174 304.67,-193 447.67,-193 447.67,-174 304.67,-174"/>
<text text-anchor="middle" x="376.17" y="-181" font-family="Helvetica,sans-Serif" font-size="10.00">MLCL_CircularLinkedList.h</text>
</a>
</g>
</g>
<!-- Node2&#45;&gt;Node8 -->
<g id="edge10" class="edge">
<title>Node2&#45;&gt;Node8</title>
<path fill="none" stroke="midnightblue" d="M266.54,-235.4C291,-224.04 325.08,-208.22 348.72,-197.24"/>
<polygon fill="midnightblue" stroke="midnightblue" points="350.25,-200.39 357.84,-193.01 347.3,-194.04 350.25,-200.39"/>
</g>
<!-- Node10 -->
<g id="node10" class="node">
<title>Node10</title>
<g id="a_node10"><a xlink:href="_m_l_c_l___double_linked_list_8h.html" target="_top" xlink:title=" ">
<polygon fill="none" stroke="black" points="44.17,-112.5 44.17,-131.5 184.17,-131.5 184.17,-112.5 44.17,-112.5"/>
<text text-anchor="middle" x="114.17" y="-119.5" font-family="Helvetica,sans-Serif" font-size="10.00">MLCL_DoubleLinkedList.h</text>
</a>
</g>
</g>
<!-- Node2&#45;&gt;Node10 -->
<g id="edge13" class="edge">
<title>Node2&#45;&gt;Node10</title>
<path fill="none" stroke="midnightblue" d="M188.65,-245.93C128.12,-240.28 28.62,-226.91 6.17,-199 -2.47,-188.26 -1.48,-179.46 6.17,-168 16.96,-151.81 34.79,-141.44 52.89,-134.79"/>
<polygon fill="midnightblue" stroke="midnightblue" points="54.25,-138.03 62.64,-131.56 52.04,-131.39 54.25,-138.03"/>
</g>
<!-- Node11 -->
<g id="node11" class="node">
<title>Node11</title>
<g id="a_node11"><a xlink:href="_m_l_c_l___circular_double_linked_list_8h.html" target="_top" xlink:title=" ">
<polygon fill="none" stroke="black" points="15.17,-168.5 15.17,-198.5 167.17,-198.5 167.17,-168.5 15.17,-168.5"/>
<text text-anchor="start" x="23.17" y="-186.5" font-family="Helvetica,sans-Serif" font-size="10.00">MLCL_CircularDoubleLinked</text>
<text text-anchor="middle" x="91.17" y="-175.5" font-family="Helvetica,sans-Serif" font-size="10.00">List.h</text>
</a>
</g>
</g>
<!-- Node2&#45;&gt;Node11 -->
<g id="edge16" class="edge">
<title>Node2&#45;&gt;Node11</title>
<path fill="none" stroke="midnightblue" d="M204.7,-235.4C183.33,-225.81 154.85,-213.05 131.77,-202.7"/>
<polygon fill="midnightblue" stroke="midnightblue" points="133.12,-199.47 122.57,-198.58 130.26,-205.86 133.12,-199.47"/>
</g>
<!-- Node4 -->
<g id="node4" class="node">
<title>Node4</title>
<g id="a_node4"><a xlink:href="_m_l_c_l___type_descriptor_8h.html" target="_top" xlink:title=" ">
<polygon fill="none" stroke="black" points="161.17,-56.5 161.17,-75.5 299.17,-75.5 299.17,-56.5 161.17,-56.5"/>
<text text-anchor="middle" x="230.17" y="-63.5" font-family="Helvetica,sans-Serif" font-size="10.00">../MLCL_TypeDescriptor.h</text>
</a>
</g>
</g>
<!-- Node3&#45;&gt;Node4 -->
<g id="edge3" class="edge">
<title>Node3&#45;&gt;Node4</title>
<path fill="none" stroke="midnightblue" d="M235.72,-173.82C234.75,-155.26 232.47,-111.34 231.15,-85.97"/>
<polygon fill="midnightblue" stroke="midnightblue" points="234.64,-85.59 230.62,-75.78 227.65,-85.95 234.64,-85.59"/>
</g>
<!-- Node5 -->
<g id="node5" class="node">
<title>Node5</title>
<g id="a_node5"><a xlink:title=" ">
<polygon fill="none" stroke="#bfbfbf" points="203.67,-0.5 203.67,-19.5 256.67,-19.5 256.67,-0.5 203.67,-0.5"/>
<text text-anchor="middle" x="230.17" y="-7.5" font-family="Helvetica,sans-Serif" font-size="10.00">stdlib.h</text>
</a>
</g>
</g>
<!-- Node4&#45;&gt;Node5 -->
<g id="edge4" class="edge">
<title>Node4&#45;&gt;Node5</title>
<path fill="none" stroke="midnightblue" d="M230.17,-56.08C230.17,-49.01 230.17,-38.86 230.17,-29.99"/>
<polygon fill="midnightblue" stroke="midnightblue" points="233.67,-29.75 230.17,-19.75 226.67,-29.75 233.67,-29.75"/>
</g>
<!-- Node6 -->
<g id="node6" class="node">
<title>Node6</title>
<g id="a_node6"><a xlink:title=" ">
<polygon fill="none" stroke="#bfbfbf" points="307.17,-0.5 307.17,-19.5 357.17,-19.5 357.17,-0.5 307.17,-0.5"/>
<text text-anchor="middle" x="332.17" y="-7.5" font-family="Helvetica,sans-Serif" font-size="10.00">stdio.h</text>
</a>
</g>
</g>
<!-- Node4&#45;&gt;Node6 -->
<g id="edge5" class="edge">
<title>Node4&#45;&gt;Node6</title>
<path fill="none" stroke="midnightblue" d="M246.55,-56.32C262.84,-47.7 288.03,-34.36 306.88,-24.39"/>
<polygon fill="midnightblue" stroke="midnightblue" points="308.62,-27.43 315.82,-19.65 305.34,-21.24 308.62,-27.43"/>
</g>
<!-- Node7&#45;&gt;Node4 -->
<g id="edge7" class="edge">
<title>Node7&#45;&gt;Node4</title>
<path fill="none" stroke="midnightblue" d="M358.92,-112.44C333.3,-103.4 292.68,-89.06 263.93,-78.92"/>
<polygon fill="midnightblue" stroke="midnightblue" points="264.89,-75.54 254.3,-75.52 262.56,-82.15 264.89,-75.54"/>
</g>
<!-- Node7&#45;&gt;Node5 -->
<g id="edge8" class="edge">
<title>Node7&#45;&gt;Node5</title>
<path fill="none" stroke="midnightblue" d="M374.39,-112.41C360.84,-99.37 333.71,-74.19 308.17,-56 291.61,-44.21 271.75,-32.79 256.21,-24.4"/>
<polygon fill="midnightblue" stroke="midnightblue" points="257.64,-21.2 247.17,-19.6 254.36,-27.38 257.64,-21.2"/>
</g>
<!-- Node7&#45;&gt;Node6 -->
<g id="edge9" class="edge">
<title>Node7&#45;&gt;Node6</title>
<path fill="none" stroke="midnightblue" d="M379.16,-112.37C370.86,-94.46 351.6,-52.92 340.49,-28.95"/>
<polygon fill="midnightblue" stroke="midnightblue" points="343.53,-27.19 336.15,-19.59 337.18,-30.14 343.53,-27.19"/>
</g>
<!-- Node8&#45;&gt;Node7 -->
<g id="edge11" class="edge">
<title>Node8&#45;&gt;Node7</title>
<path fill="none" stroke="midnightblue" d="M377.17,-173.98C378.16,-165.58 379.7,-152.48 380.97,-141.66"/>
<polygon fill="midnightblue" stroke="midnightblue" points="384.47,-141.85 382.16,-131.51 377.52,-141.03 384.47,-141.85"/>
</g>
<!-- Node9 -->
<g id="node9" class="node">
<title>Node9</title>
<g id="a_node9"><a xlink:title=" ">
<polygon fill="none" stroke="#bfbfbf" points="256.17,-112.5 256.17,-131.5 312.17,-131.5 312.17,-112.5 256.17,-112.5"/>
<text text-anchor="middle" x="284.17" y="-119.5" font-family="Helvetica,sans-Serif" font-size="10.00">assert.h</text>
</a>
</g>
</g>
<!-- Node8&#45;&gt;Node9 -->
<g id="edge12" class="edge">
<title>Node8&#45;&gt;Node9</title>
<path fill="none" stroke="midnightblue" d="M362.98,-173.98C348.09,-164.34 323.62,-148.52 305.89,-137.05"/>
<polygon fill="midnightblue" stroke="midnightblue" points="307.62,-134 297.32,-131.51 303.82,-139.88 307.62,-134"/>
</g>
<!-- Node10&#45;&gt;Node4 -->
<g id="edge15" class="edge">
<title>Node10&#45;&gt;Node4</title>
<path fill="none" stroke="midnightblue" d="M132.55,-112.44C151.38,-103.68 180.9,-89.94 202.55,-79.86"/>
<polygon fill="midnightblue" stroke="midnightblue" points="204.28,-82.91 211.87,-75.52 201.33,-76.56 204.28,-82.91"/>
</g>
<!-- Node10&#45;&gt;Node5 -->
<g id="edge14" class="edge">
<title>Node10&#45;&gt;Node5</title>
<path fill="none" stroke="midnightblue" d="M117.45,-112.49C122.94,-99.12 135.11,-72.96 152.17,-56 165.75,-42.49 184.21,-31.6 199.76,-23.92"/>
<polygon fill="midnightblue" stroke="midnightblue" points="201.45,-26.99 208.99,-19.56 198.46,-20.67 201.45,-26.99"/>
</g>
<!-- Node11&#45;&gt;Node10 -->
<g id="edge17" class="edge">
<title>Node11&#45;&gt;Node10</title>
<path fill="none" stroke="midnightblue" d="M96.62,-168.4C99.79,-160.2 103.81,-149.78 107.21,-140.99"/>
<polygon fill="midnightblue" stroke="midnightblue" points="110.48,-142.25 110.82,-131.66 103.95,-139.72 110.48,-142.25"/>
</g>
</g>
</svg>
