<?xml version="1.0" encoding="UTF-8" standalone="no"?>
<!DOCTYPE svg PUBLIC "-//W3C//DTD SVG 1.1//EN"
 "http://www.w3.org/Graphics/SVG/1.1/DTD/svg11.dtd">
<!-- Generated by graphviz version 2.43.0 (0)
 -->
<!-- Title: include/Lists/MLCL_LinkedList.h Pages: 1 -->
<svg width="1221pt" height="307pt"
 viewBox="0.00 0.00 1220.50 307.00" xmlns="http://www.w3.org/2000/svg" xmlns:xlink="http://www.w3.org/1999/xlink">
<g id="graph0" class="graph" transform="scale(1 1) rotate(0) translate(4 303)">
<title>include/Lists/MLCL_LinkedList.h</title>
<!-- Node1 -->
<g id="node1" class="node">
<title>Node1</title>
<g id="a_node1"><a xlink:title=" ">
<polygon fill="#bfbfbf" stroke="black" points="556.5,-268.5 556.5,-298.5 663.5,-298.5 663.5,-268.5 556.5,-268.5"/>
<text text-anchor="start" x="564.5" y="-286.5" font-family="Helvetica,sans-Serif" font-size="10.00">include/Lists/MLCL</text>
<text text-anchor="middle" x="610" y="-275.5" font-family="Helvetica,sans-Serif" font-size="10.00">_LinkedList.h</text>
</a>
</g>
</g>
<!-- Node2 -->
<g id="node2" class="node">
<title>Node2</title>
<g id="a_node2"><a xlink:href="_m_l_c_l___circular_linked_list_8h.html" target="_top" xlink:title=" ">
<polygon fill="none" stroke="black" points="404.5,-201.5 404.5,-231.5 521.5,-231.5 521.5,-201.5 404.5,-201.5"/>
<text text-anchor="start" x="412.5" y="-219.5" font-family="Helvetica,sans-Serif" font-size="10.00">include/Lists/MLCL</text>
<text text-anchor="middle" x="463" y="-208.5" font-family="Helvetica,sans-Serif" font-size="10.00">_CircularLinkedList.h</text>
</a>
</g>
</g>
<!-- Node1&#45;&gt;Node2 -->
<g id="edge1" class="edge">
<title>Node1&#45;&gt;Node2</title>
<path fill="none" stroke="midnightblue" d="M568.77,-264.27C545.36,-253.92 516.49,-241.15 494.83,-231.58"/>
<polygon fill="midnightblue" stroke="midnightblue" points="567.54,-267.55 578.1,-268.4 570.37,-261.15 567.54,-267.55"/>
</g>
<!-- Node4 -->
<g id="node4" class="node">
<title>Node4</title>
<g id="a_node4"><a xlink:href="_m_l_c_l___list_8h.html" target="_top" xlink:title=" ">
<polygon fill="none" stroke="black" points="529.5,-134.5 529.5,-164.5 636.5,-164.5 636.5,-134.5 529.5,-134.5"/>
<text text-anchor="start" x="537.5" y="-152.5" font-family="Helvetica,sans-Serif" font-size="10.00">include/Lists/MLCL</text>
<text text-anchor="middle" x="583" y="-141.5" font-family="Helvetica,sans-Serif" font-size="10.00">_List.h</text>
</a>
</g>
</g>
<!-- Node1&#45;&gt;Node4 -->
<g id="edge20" class="edge">
<title>Node1&#45;&gt;Node4</title>
<path fill="none" stroke="midnightblue" d="M595.92,-259.38C591.57,-251.05 587.32,-241.38 585,-232 579.3,-208.92 580.22,-181.03 581.53,-164.59"/>
<polygon fill="midnightblue" stroke="midnightblue" points="592.86,-261.08 600.77,-268.13 598.98,-257.69 592.86,-261.08"/>
</g>
<!-- Node20 -->
<g id="node20" class="node">
<title>Node20</title>
<g id="a_node20"><a xlink:href="_m_l_c_l___linked_list__test_8c.html" target="_top" xlink:title=" ">
<polygon fill="none" stroke="black" points="594.5,-201.5 594.5,-231.5 713.5,-231.5 713.5,-201.5 594.5,-201.5"/>
<text text-anchor="start" x="602.5" y="-219.5" font-family="Helvetica,sans-Serif" font-size="10.00">src/_Tests/Lists/MLCL</text>
<text text-anchor="middle" x="654" y="-208.5" font-family="Helvetica,sans-Serif" font-size="10.00">_LinkedList_test.c</text>
</a>
</g>
</g>
<!-- Node1&#45;&gt;Node20 -->
<g id="edge19" class="edge">
<title>Node1&#45;&gt;Node20</title>
<path fill="none" stroke="midnightblue" d="M625.32,-259.87C631.69,-250.46 638.88,-239.83 644.47,-231.58"/>
<polygon fill="midnightblue" stroke="midnightblue" points="622.25,-258.15 619.55,-268.4 628.05,-262.08 622.25,-258.15"/>
</g>
<!-- Node21 -->
<g id="node21" class="node">
<title>Node21</title>
<g id="a_node21"><a xlink:href="_m_l_c_l___linked_list_8c.html" target="_top" xlink:title=" ">
<polygon fill="none" stroke="black" points="732,-207 732,-226 880,-226 880,-207 732,-207"/>
<text text-anchor="middle" x="806" y="-214" font-family="Helvetica,sans-Serif" font-size="10.00">src/Lists/MLCL_LinkedList.c</text>
</a>
</g>
</g>
<!-- Node1&#45;&gt;Node21 -->
<g id="edge21" class="edge">
<title>Node1&#45;&gt;Node21</title>
<path fill="none" stroke="midnightblue" d="M662.44,-265.11C700.58,-252.46 750.54,-235.89 780.35,-226.01"/>
<polygon fill="midnightblue" stroke="midnightblue" points="660.92,-261.93 652.53,-268.4 663.12,-268.57 660.92,-261.93"/>
</g>
<!-- Node3 -->
<g id="node3" class="node">
<title>Node3</title>
<g id="a_node3"><a xlink:href="_m_l_c_l___circular_linked_list__test_8c.html" target="_top" xlink:title=" ">
<polygon fill="none" stroke="black" points="193,-134.5 193,-164.5 333,-164.5 333,-134.5 193,-134.5"/>
<text text-anchor="start" x="201" y="-152.5" font-family="Helvetica,sans-Serif" font-size="10.00">src/_Tests/Lists/MLCL</text>
<text text-anchor="middle" x="263" y="-141.5" font-family="Helvetica,sans-Serif" font-size="10.00">_CircularLinkedList_test.c</text>
</a>
</g>
</g>
<!-- Node2&#45;&gt;Node3 -->
<g id="edge2" class="edge">
<title>Node2&#45;&gt;Node3</title>
<path fill="none" stroke="midnightblue" d="M409.85,-198.23C377.5,-187.71 336.69,-174.45 306.31,-164.58"/>
<polygon fill="midnightblue" stroke="midnightblue" points="409.01,-201.63 419.6,-201.4 411.17,-194.98 409.01,-201.63"/>
</g>
<!-- Node2&#45;&gt;Node4 -->
<g id="edge3" class="edge">
<title>Node2&#45;&gt;Node4</title>
<path fill="none" stroke="midnightblue" d="M497.94,-196.57C516.82,-186.35 539.73,-173.94 557.01,-164.58"/>
<polygon fill="midnightblue" stroke="midnightblue" points="496.16,-193.56 489.04,-201.4 499.5,-199.71 496.16,-193.56"/>
</g>
<!-- Node19 -->
<g id="node19" class="node">
<title>Node19</title>
<g id="a_node19"><a xlink:href="_m_l_c_l___circular_linked_list_8c.html" target="_top" xlink:title=" ">
<polygon fill="none" stroke="black" points="351,-134.5 351,-164.5 511,-164.5 511,-134.5 351,-134.5"/>
<text text-anchor="start" x="359" y="-152.5" font-family="Helvetica,sans-Serif" font-size="10.00">src/Lists/MLCL_CircularLinked</text>
<text text-anchor="middle" x="431" y="-141.5" font-family="Helvetica,sans-Serif" font-size="10.00">List.c</text>
</a>
</g>
</g>
<!-- Node2&#45;&gt;Node19 -->
<g id="edge18" class="edge">
<title>Node2&#45;&gt;Node19</title>
<path fill="none" stroke="midnightblue" d="M451.57,-192.28C447.01,-183.02 441.91,-172.66 437.93,-164.58"/>
<polygon fill="midnightblue" stroke="midnightblue" points="448.5,-193.97 456.06,-201.4 454.78,-190.88 448.5,-193.97"/>
</g>
<!-- Node5 -->
<g id="node5" class="node">
<title>Node5</title>
<g id="a_node5"><a xlink:href="_m_l_c_l___list__test_8c.html" target="_top" xlink:title=" ">
<polygon fill="none" stroke="black" points="102.5,-67.5 102.5,-97.5 221.5,-97.5 221.5,-67.5 102.5,-67.5"/>
<text text-anchor="start" x="110.5" y="-85.5" font-family="Helvetica,sans-Serif" font-size="10.00">src/_Tests/Lists/MLCL</text>
<text text-anchor="middle" x="162" y="-74.5" font-family="Helvetica,sans-Serif" font-size="10.00">_List_test.c</text>
</a>
</g>
</g>
<!-- Node4&#45;&gt;Node5 -->
<g id="edge4" class="edge">
<title>Node4&#45;&gt;Node5</title>
<path fill="none" stroke="midnightblue" d="M519.23,-133.99C390.76,-111.84 355.43,-118.79 231,-98 227.98,-97.5 224.89,-96.95 221.78,-96.38"/>
<polygon fill="midnightblue" stroke="midnightblue" points="519.01,-137.51 529.46,-135.78 520.21,-130.61 519.01,-137.51"/>
</g>
<!-- Node6 -->
<g id="node6" class="node">
<title>Node6</title>
<g id="a_node6"><a xlink:href="_m_l_c_l___queue_8h.html" target="_top" xlink:title=" ">
<polygon fill="none" stroke="black" points="240,-67.5 240,-97.5 356,-97.5 356,-67.5 240,-67.5"/>
<text text-anchor="start" x="248" y="-85.5" font-family="Helvetica,sans-Serif" font-size="10.00">include/Queue/MLCL</text>
<text text-anchor="middle" x="298" y="-74.5" font-family="Helvetica,sans-Serif" font-size="10.00">_Queue.h</text>
</a>
</g>
</g>
<!-- Node4&#45;&gt;Node6 -->
<g id="edge5" class="edge">
<title>Node4&#45;&gt;Node6</title>
<path fill="none" stroke="midnightblue" d="M519.52,-133.89C458.13,-119.85 398.94,-106.4 356.44,-96.75"/>
<polygon fill="midnightblue" stroke="midnightblue" points="518.86,-137.33 529.39,-136.15 520.42,-130.51 518.86,-137.33"/>
</g>
<!-- Node9 -->
<g id="node9" class="node">
<title>Node9</title>
<g id="a_node9"><a xlink:href="_m_l_c_l___stack_8h.html" target="_top" xlink:title=" ">
<polygon fill="none" stroke="black" points="455.5,-67.5 455.5,-97.5 566.5,-97.5 566.5,-67.5 455.5,-67.5"/>
<text text-anchor="start" x="463.5" y="-85.5" font-family="Helvetica,sans-Serif" font-size="10.00">include/Stack/MLCL</text>
<text text-anchor="middle" x="511" y="-74.5" font-family="Helvetica,sans-Serif" font-size="10.00">_Stack.h</text>
</a>
</g>
</g>
<!-- Node4&#45;&gt;Node9 -->
<g id="edge8" class="edge">
<title>Node4&#45;&gt;Node9</title>
<path fill="none" stroke="midnightblue" d="M559.85,-127.6C548.98,-117.78 536.3,-106.34 526.59,-97.58"/>
<polygon fill="midnightblue" stroke="midnightblue" points="557.61,-130.29 567.38,-134.4 562.3,-125.1 557.61,-130.29"/>
</g>
<!-- Node12 -->
<g id="node12" class="node">
<title>Node12</title>
<g id="a_node12"><a xlink:href="_m_l_c_l___b_k_tree_8h.html" target="_top" xlink:title=" ">
<polygon fill="none" stroke="black" points="601,-67.5 601,-97.5 711,-97.5 711,-67.5 601,-67.5"/>
<text text-anchor="start" x="609" y="-85.5" font-family="Helvetica,sans-Serif" font-size="10.00">include/Trees/MLCL</text>
<text text-anchor="middle" x="656" y="-74.5" font-family="Helvetica,sans-Serif" font-size="10.00">_BKTree.h</text>
</a>
</g>
</g>
<!-- Node4&#45;&gt;Node12 -->
<g id="edge11" class="edge">
<title>Node4&#45;&gt;Node12</title>
<path fill="none" stroke="midnightblue" d="M606.47,-127.6C617.5,-117.78 630.34,-106.34 640.19,-97.58"/>
<polygon fill="midnightblue" stroke="midnightblue" points="603.98,-125.13 598.84,-134.4 608.64,-130.36 603.98,-125.13"/>
</g>
<!-- Node15 -->
<g id="node15" class="node">
<title>Node15</title>
<g id="a_node15"><a xlink:href="_m_l_c_l___ternary_search_tree_8h.html" target="_top" xlink:title=" ">
<polygon fill="none" stroke="black" points="814,-67.5 814,-97.5 934,-97.5 934,-67.5 814,-67.5"/>
<text text-anchor="start" x="822" y="-85.5" font-family="Helvetica,sans-Serif" font-size="10.00">include/Trees/MLCL</text>
<text text-anchor="middle" x="874" y="-74.5" font-family="Helvetica,sans-Serif" font-size="10.00">_TernarySearchTree.h</text>
</a>
</g>
</g>
<!-- Node4&#45;&gt;Node15 -->
<g id="edge14" class="edge">
<title>Node4&#45;&gt;Node15</title>
<path fill="none" stroke="midnightblue" d="M646.71,-134.27C696.43,-123.16 765.02,-107.84 813.82,-96.94"/>
<polygon fill="midnightblue" stroke="midnightblue" points="645.71,-130.91 636.71,-136.5 647.24,-137.74 645.71,-130.91"/>
</g>
<!-- Node18 -->
<g id="node18" class="node">
<title>Node18</title>
<g id="a_node18"><a xlink:href="_m_l_c_l___list_8c.html" target="_top" xlink:title=" ">
<polygon fill="none" stroke="black" points="952,-73 952,-92 1068,-92 1068,-73 952,-73"/>
<text text-anchor="middle" x="1010" y="-80" font-family="Helvetica,sans-Serif" font-size="10.00">src/Lists/MLCL_List.c</text>
</a>
</g>
</g>
<!-- Node4&#45;&gt;Node18 -->
<g id="edge17" class="edge">
<title>Node4&#45;&gt;Node18</title>
<path fill="none" stroke="midnightblue" d="M646.85,-140.99C718.99,-132.17 839.81,-116.38 943,-98 952.72,-96.27 963.19,-94.13 972.89,-92.04"/>
<polygon fill="midnightblue" stroke="midnightblue" points="646.07,-137.56 636.56,-142.24 646.91,-144.51 646.07,-137.56"/>
</g>
<!-- Node7 -->
<g id="node7" class="node">
<title>Node7</title>
<g id="a_node7"><a xlink:href="_m_l_c_l___queue__test_8c.html" target="_top" xlink:title=" ">
<polygon fill="none" stroke="black" points="0,-0.5 0,-30.5 128,-30.5 128,-0.5 0,-0.5"/>
<text text-anchor="start" x="8" y="-18.5" font-family="Helvetica,sans-Serif" font-size="10.00">src/_Tests/Queue/MLCL</text>
<text text-anchor="middle" x="64" y="-7.5" font-family="Helvetica,sans-Serif" font-size="10.00">_Queue_test.c</text>
</a>
</g>
</g>
<!-- Node6&#45;&gt;Node7 -->
<g id="edge6" class="edge">
<title>Node6&#45;&gt;Node7</title>
<path fill="none" stroke="midnightblue" d="M237.57,-64.71C199.49,-54.14 150.89,-40.63 114.8,-30.61"/>
<polygon fill="midnightblue" stroke="midnightblue" points="236.94,-68.17 247.51,-67.48 238.82,-61.43 236.94,-68.17"/>
</g>
<!-- Node8 -->
<g id="node8" class="node">
<title>Node8</title>
<g id="a_node8"><a xlink:href="_m_l_c_l___queue_8c.html" target="_top" xlink:title=" ">
<polygon fill="none" stroke="black" points="146,-6 146,-25 286,-25 286,-6 146,-6"/>
<text text-anchor="middle" x="216" y="-13" font-family="Helvetica,sans-Serif" font-size="10.00">src/Queue/MLCL_Queue.c</text>
</a>
</g>
</g>
<!-- Node6&#45;&gt;Node8 -->
<g id="edge7" class="edge">
<title>Node6&#45;&gt;Node8</title>
<path fill="none" stroke="midnightblue" d="M272.15,-61.01C256.93,-48.94 238.46,-34.3 226.97,-25.19"/>
<polygon fill="midnightblue" stroke="midnightblue" points="270.2,-63.93 280.21,-67.4 274.54,-58.44 270.2,-63.93"/>
</g>
<!-- Node10 -->
<g id="node10" class="node">
<title>Node10</title>
<g id="a_node10"><a xlink:href="_m_l_c_l___stack__test_8c.html" target="_top" xlink:title=" ">
<polygon fill="none" stroke="black" points="304.5,-0.5 304.5,-30.5 427.5,-30.5 427.5,-0.5 304.5,-0.5"/>
<text text-anchor="start" x="312.5" y="-18.5" font-family="Helvetica,sans-Serif" font-size="10.00">src/_Tests/Stack/MLCL</text>
<text text-anchor="middle" x="366" y="-7.5" font-family="Helvetica,sans-Serif" font-size="10.00">_Stack_test.c</text>
</a>
</g>
</g>
<!-- Node9&#45;&gt;Node10 -->
<g id="edge9" class="edge">
<title>Node9&#45;&gt;Node10</title>
<path fill="none" stroke="midnightblue" d="M470.33,-63.27C447.24,-52.92 418.76,-40.15 397.4,-30.58"/>
<polygon fill="midnightblue" stroke="midnightblue" points="468.98,-66.5 479.54,-67.4 471.84,-60.11 468.98,-66.5"/>
</g>
<!-- Node11 -->
<g id="node11" class="node">
<title>Node11</title>
<g id="a_node11"><a xlink:href="_m_l_c_l___stack_8c.html" target="_top" xlink:title=" ">
<polygon fill="none" stroke="black" points="445.5,-6 445.5,-25 576.5,-25 576.5,-6 445.5,-6"/>
<text text-anchor="middle" x="511" y="-13" font-family="Helvetica,sans-Serif" font-size="10.00">src/Stack/MLCL_Stack.c</text>
</a>
</g>
</g>
<!-- Node9&#45;&gt;Node11 -->
<g id="edge10" class="edge">
<title>Node9&#45;&gt;Node11</title>
<path fill="none" stroke="midnightblue" d="M511,-57.25C511,-46.02 511,-33.38 511,-25.19"/>
<polygon fill="midnightblue" stroke="midnightblue" points="507.5,-57.4 511,-67.4 514.5,-57.4 507.5,-57.4"/>
</g>
<!-- Node13 -->
<g id="node13" class="node">
<title>Node13</title>
<g id="a_node13"><a xlink:href="_m_l_c_l___b_k_tree__test_8c.html" target="_top" xlink:title=" ">
<polygon fill="none" stroke="black" points="595,-0.5 595,-30.5 717,-30.5 717,-0.5 595,-0.5"/>
<text text-anchor="start" x="603" y="-18.5" font-family="Helvetica,sans-Serif" font-size="10.00">src/_Tests/Trees/MLCL</text>
<text text-anchor="middle" x="656" y="-7.5" font-family="Helvetica,sans-Serif" font-size="10.00">_BKTree_test.c</text>
</a>
</g>
</g>
<!-- Node12&#45;&gt;Node13 -->
<g id="edge12" class="edge">
<title>Node12&#45;&gt;Node13</title>
<path fill="none" stroke="midnightblue" d="M656,-57.11C656,-48.15 656,-38.32 656,-30.58"/>
<polygon fill="midnightblue" stroke="midnightblue" points="652.5,-57.4 656,-67.4 659.5,-57.4 652.5,-57.4"/>
</g>
<!-- Node14 -->
<g id="node14" class="node">
<title>Node14</title>
<g id="a_node14"><a xlink:href="_m_l_c_l___b_k_tree_8c.html" target="_top" xlink:title=" ">
<polygon fill="none" stroke="black" points="735.5,-6 735.5,-25 870.5,-25 870.5,-6 735.5,-6"/>
<text text-anchor="middle" x="803" y="-13" font-family="Helvetica,sans-Serif" font-size="10.00">src/Trees/MLCL_BKTree.c</text>
</a>
</g>
</g>
<!-- Node12&#45;&gt;Node14 -->
<g id="edge13" class="edge">
<title>Node12&#45;&gt;Node14</title>
<path fill="none" stroke="midnightblue" d="M697.17,-63.3C725.52,-50.76 761.88,-34.68 783.76,-25.01"/>
<polygon fill="midnightblue" stroke="midnightblue" points="695.63,-60.15 687.9,-67.4 698.46,-66.55 695.63,-60.15"/>
</g>
<!-- Node16 -->
<g id="node16" class="node">
<title>Node16</title>
<g id="a_node16"><a xlink:href="_m_l_c_l___ternary_search_tree__test_8c.html" target="_top" xlink:title=" ">
<polygon fill="none" stroke="black" points="888.5,-0.5 888.5,-30.5 1031.5,-30.5 1031.5,-0.5 888.5,-0.5"/>
<text text-anchor="start" x="896.5" y="-18.5" font-family="Helvetica,sans-Serif" font-size="10.00">src/_Tests/Trees/MLCL</text>
<text text-anchor="middle" x="960" y="-7.5" font-family="Helvetica,sans-Serif" font-size="10.00">_TernarySearchTree_test.c</text>
</a>
</g>
</g>
<!-- Node15&#45;&gt;Node16 -->
<g id="edge15" class="edge">
<title>Node15&#45;&gt;Node16</title>
<path fill="none" stroke="midnightblue" d="M900.9,-61.17C914.05,-51.23 929.55,-39.51 941.38,-30.58"/>
<polygon fill="midnightblue" stroke="midnightblue" points="898.53,-58.57 892.66,-67.4 902.75,-64.16 898.53,-58.57"/>
</g>
<!-- Node17 -->
<g id="node17" class="node">
<title>Node17</title>
<g id="a_node17"><a xlink:href="_m_l_c_l___ternary_search_tree_8c.html" target="_top" xlink:title=" ">
<polygon fill="none" stroke="black" points="1049.5,-0.5 1049.5,-30.5 1212.5,-30.5 1212.5,-0.5 1049.5,-0.5"/>
<text text-anchor="start" x="1057.5" y="-18.5" font-family="Helvetica,sans-Serif" font-size="10.00">src/Trees/MLCL_TernarySearch</text>
<text text-anchor="middle" x="1131" y="-7.5" font-family="Helvetica,sans-Serif" font-size="10.00">Tree.c</text>
</a>
</g>
</g>
<!-- Node15&#45;&gt;Node17 -->
<g id="edge16" class="edge">
<title>Node15&#45;&gt;Node17</title>
<path fill="none" stroke="midnightblue" d="M939.3,-64.98C981.28,-54.37 1035.24,-40.72 1075.21,-30.61"/>
<polygon fill="midnightblue" stroke="midnightblue" points="938.29,-61.63 929.45,-67.48 940,-68.42 938.29,-61.63"/>
</g>
</g>
</svg>
