<?xml version="1.0" encoding="UTF-8" standalone="no"?>
<!DOCTYPE svg PUBLIC "-//W3C//DTD SVG 1.1//EN"
 "http://www.w3.org/Graphics/SVG/1.1/DTD/svg11.dtd">
<!-- Generated by graphviz version 2.43.0 (0)
 -->
<!-- Title: include/List/MLCL_LinkedList.h Pages: 1 -->
<svg width="170pt" height="151pt"
 viewBox="0.00 0.00 170.32 151.00" xmlns="http://www.w3.org/2000/svg" xmlns:xlink="http://www.w3.org/1999/xlink">
<g id="graph0" class="graph" transform="scale(1 1) rotate(0) translate(4 147)">
<title>include/List/MLCL_LinkedList.h</title>
<!-- Node1 -->
<g id="node1" class="node">
<title>Node1</title>
<g id="a_node1"><a xlink:title=" ">
<polygon fill="#bfbfbf" stroke="black" points="12.16,-112.5 12.16,-142.5 150.16,-142.5 150.16,-112.5 12.16,-112.5"/>
<text text-anchor="start" x="20.16" y="-130.5" font-family="Helvetica,sans-Serif" font-size="10.00">include/List/MLCL_Linked</text>
<text text-anchor="middle" x="81.16" y="-119.5" font-family="Helvetica,sans-Serif" font-size="10.00">List.h</text>
</a>
</g>
</g>
<!-- Node2 -->
<g id="node2" class="node">
<title>Node2</title>
<g id="a_node2"><a xlink:href="_m_l_c_l___type_descriptor_8h.html" target="_top" xlink:title=" ">
<polygon fill="none" stroke="black" points="12.16,-56.5 12.16,-75.5 150.16,-75.5 150.16,-56.5 12.16,-56.5"/>
<text text-anchor="middle" x="81.16" y="-63.5" font-family="Helvetica,sans-Serif" font-size="10.00">../MLCL_TypeDescriptor.h</text>
</a>
</g>
</g>
<!-- Node1&#45;&gt;Node2 -->
<g id="edge1" class="edge">
<title>Node1&#45;&gt;Node2</title>
<path fill="none" stroke="midnightblue" d="M81.16,-112.4C81.16,-104.47 81.16,-94.46 81.16,-85.86"/>
<polygon fill="midnightblue" stroke="midnightblue" points="84.66,-85.66 81.16,-75.66 77.66,-85.66 84.66,-85.66"/>
</g>
<!-- Node3 -->
<g id="node3" class="node">
<title>Node3</title>
<g id="a_node3"><a xlink:title=" ">
<polygon fill="none" stroke="#bfbfbf" points="12.66,-0.5 12.66,-19.5 65.66,-19.5 65.66,-0.5 12.66,-0.5"/>
<text text-anchor="middle" x="39.16" y="-7.5" font-family="Helvetica,sans-Serif" font-size="10.00">stdlib.h</text>
</a>
</g>
</g>
<!-- Node1&#45;&gt;Node3 -->
<g id="edge4" class="edge">
<title>Node1&#45;&gt;Node3</title>
<path fill="none" stroke="midnightblue" d="M44.71,-112.46C28.95,-104.35 12.1,-92.44 3.16,-76 -6.01,-59.14 7.64,-39.92 20.68,-26.78"/>
<polygon fill="midnightblue" stroke="midnightblue" points="23.21,-29.2 28.11,-19.81 18.43,-24.1 23.21,-29.2"/>
</g>
<!-- Node4 -->
<g id="node4" class="node">
<title>Node4</title>
<g id="a_node4"><a xlink:title=" ">
<polygon fill="none" stroke="#bfbfbf" points="97.16,-0.5 97.16,-19.5 147.16,-19.5 147.16,-0.5 97.16,-0.5"/>
<text text-anchor="middle" x="122.16" y="-7.5" font-family="Helvetica,sans-Serif" font-size="10.00">stdio.h</text>
</a>
</g>
</g>
<!-- Node1&#45;&gt;Node4 -->
<g id="edge5" class="edge">
<title>Node1&#45;&gt;Node4</title>
<path fill="none" stroke="midnightblue" d="M117.61,-112.46C133.36,-104.35 150.22,-92.44 159.16,-76 168.39,-59.03 154.39,-39.82 141.05,-26.72"/>
<polygon fill="midnightblue" stroke="midnightblue" points="143.19,-23.94 133.45,-19.77 138.46,-29.1 143.19,-23.94"/>
</g>
<!-- Node2&#45;&gt;Node3 -->
<g id="edge2" class="edge">
<title>Node2&#45;&gt;Node3</title>
<path fill="none" stroke="midnightblue" d="M74.22,-56.08C68.23,-48.38 59.41,-37.03 52.11,-27.65"/>
<polygon fill="midnightblue" stroke="midnightblue" points="54.87,-25.5 45.97,-19.75 49.34,-29.79 54.87,-25.5"/>
</g>
<!-- Node2&#45;&gt;Node4 -->
<g id="edge3" class="edge">
<title>Node2&#45;&gt;Node4</title>
<path fill="none" stroke="midnightblue" d="M87.93,-56.08C93.72,-48.46 102.22,-37.26 109.3,-27.94"/>
<polygon fill="midnightblue" stroke="midnightblue" points="112.25,-29.83 115.51,-19.75 106.68,-25.6 112.25,-29.83"/>
</g>
</g>
</svg>
