<?xml version="1.0" encoding="UTF-8" standalone="no"?>
<!DOCTYPE svg PUBLIC "-//W3C//DTD SVG 1.1//EN"
 "http://www.w3.org/Graphics/SVG/1.1/DTD/svg11.dtd">
<!-- Generated by graphviz version 2.43.0 (0)
 -->
<!-- Title: /home/antoine/Documents/Developpement/C/MyLittleCLibrary/include/MLCL_TypeDescriptor.h Pages: 1 -->
<svg width="2010pt" height="362pt"
 viewBox="0.00 0.00 2010.00 362.00" xmlns="http://www.w3.org/2000/svg" xmlns:xlink="http://www.w3.org/1999/xlink">
<g id="graph0" class="graph" transform="scale(1 1) rotate(0) translate(4 358)">
<title>/home/antoine/Documents/Developpement/C/MyLittleCLibrary/include/MLCL_TypeDescriptor.h</title>
<!-- Node1 -->
<g id="node1" class="node">
<title>Node1</title>
<g id="a_node1"><a xlink:title=" ">
<polygon fill="#bfbfbf" stroke="black" points="1068,-312.5 1068,-353.5 1259,-353.5 1259,-312.5 1068,-312.5"/>
<text text-anchor="start" x="1076" y="-341.5" font-family="Helvetica,sans-Serif" font-size="10.00">/home/antoine/Documents</text>
<text text-anchor="start" x="1076" y="-330.5" font-family="Helvetica,sans-Serif" font-size="10.00">/Developpement/C/MyLittleCLibrary</text>
<text text-anchor="middle" x="1163.5" y="-319.5" font-family="Helvetica,sans-Serif" font-size="10.00">/include/MLCL_TypeDescriptor.h</text>
</a>
</g>
</g>
<!-- Node2 -->
<g id="node2" class="node">
<title>Node2</title>
<g id="a_node2"><a xlink:href="_m_l_c_l__basic__types_8h.html" target="_top" xlink:title=" ">
<polygon fill="none" stroke="black" points="1068,-234.5 1068,-275.5 1259,-275.5 1259,-234.5 1068,-234.5"/>
<text text-anchor="start" x="1076" y="-263.5" font-family="Helvetica,sans-Serif" font-size="10.00">/home/antoine/Documents</text>
<text text-anchor="start" x="1076" y="-252.5" font-family="Helvetica,sans-Serif" font-size="10.00">/Developpement/C/MyLittleCLibrary</text>
<text text-anchor="middle" x="1163.5" y="-241.5" font-family="Helvetica,sans-Serif" font-size="10.00">/include/MLCL_basic_types.h</text>
</a>
</g>
</g>
<!-- Node1&#45;&gt;Node2 -->
<g id="edge1" class="edge">
<title>Node1&#45;&gt;Node2</title>
<path fill="none" stroke="midnightblue" d="M1163.5,-302.3C1163.5,-293.3 1163.5,-283.65 1163.5,-275.51"/>
<polygon fill="midnightblue" stroke="midnightblue" points="1160,-302.43 1163.5,-312.43 1167,-302.43 1160,-302.43"/>
</g>
<!-- Node9 -->
<g id="node9" class="node">
<title>Node9</title>
<g id="a_node9"><a xlink:href="_m_l_c_l_8h.html" target="_top" xlink:title=" ">
<polygon fill="none" stroke="black" points="868,-78.5 868,-119.5 1059,-119.5 1059,-78.5 868,-78.5"/>
<text text-anchor="start" x="876" y="-107.5" font-family="Helvetica,sans-Serif" font-size="10.00">/home/antoine/Documents</text>
<text text-anchor="start" x="876" y="-96.5" font-family="Helvetica,sans-Serif" font-size="10.00">/Developpement/C/MyLittleCLibrary</text>
<text text-anchor="middle" x="963.5" y="-85.5" font-family="Helvetica,sans-Serif" font-size="10.00">/MLCL.h</text>
</a>
</g>
</g>
<!-- Node1&#45;&gt;Node9 -->
<g id="edge28" class="edge">
<title>Node1&#45;&gt;Node9</title>
<path fill="none" stroke="midnightblue" d="M1057.87,-318.97C983.09,-303.62 887.82,-270.28 839.5,-198 829.13,-182.48 829.38,-171.68 839.5,-156 850.13,-139.53 866.91,-127.85 884.72,-119.59"/>
<polygon fill="midnightblue" stroke="midnightblue" points="1057.32,-322.43 1067.81,-320.93 1058.68,-315.56 1057.32,-322.43"/>
</g>
<!-- Node11 -->
<g id="node11" class="node">
<title>Node11</title>
<g id="a_node11"><a xlink:href="_m_l_c_l___double_linked_list_8h.html" target="_top" xlink:title=" ">
<polygon fill="none" stroke="black" points="357,-234.5 357,-275.5 548,-275.5 548,-234.5 357,-234.5"/>
<text text-anchor="start" x="365" y="-263.5" font-family="Helvetica,sans-Serif" font-size="10.00">/home/antoine/Documents</text>
<text text-anchor="start" x="365" y="-252.5" font-family="Helvetica,sans-Serif" font-size="10.00">/Developpement/C/MyLittleCLibrary</text>
<text text-anchor="middle" x="452.5" y="-241.5" font-family="Helvetica,sans-Serif" font-size="10.00">/include/MLCL_DoubleLinkedList.h</text>
</a>
</g>
</g>
<!-- Node1&#45;&gt;Node11 -->
<g id="edge10" class="edge">
<title>Node1&#45;&gt;Node11</title>
<path fill="none" stroke="midnightblue" d="M1057.83,-320.7C919.98,-305.97 680.81,-280.4 548.11,-266.22"/>
<polygon fill="midnightblue" stroke="midnightblue" points="1057.67,-324.21 1067.98,-321.79 1058.41,-317.25 1057.67,-324.21"/>
</g>
<!-- Node15 -->
<g id="node15" class="node">
<title>Node15</title>
<g id="a_node15"><a xlink:href="_m_l_c_l___linked_list_8h.html" target="_top" xlink:title=" ">
<polygon fill="none" stroke="black" points="1416,-234.5 1416,-275.5 1607,-275.5 1607,-234.5 1416,-234.5"/>
<text text-anchor="start" x="1424" y="-263.5" font-family="Helvetica,sans-Serif" font-size="10.00">/home/antoine/Documents</text>
<text text-anchor="start" x="1424" y="-252.5" font-family="Helvetica,sans-Serif" font-size="10.00">/Developpement/C/MyLittleCLibrary</text>
<text text-anchor="middle" x="1511.5" y="-241.5" font-family="Helvetica,sans-Serif" font-size="10.00">/include/MLCL_LinkedList.h</text>
</a>
</g>
</g>
<!-- Node1&#45;&gt;Node15 -->
<g id="edge19" class="edge">
<title>Node1&#45;&gt;Node15</title>
<path fill="none" stroke="midnightblue" d="M1263.01,-310.27C1313.17,-299.31 1373.52,-286.13 1422.19,-275.51"/>
<polygon fill="midnightblue" stroke="midnightblue" points="1262.14,-306.88 1253.12,-312.43 1263.64,-313.71 1262.14,-306.88"/>
</g>
<!-- Node19 -->
<g id="node19" class="node">
<title>Node19</title>
<g id="a_node19"><a xlink:href="_m_l_c_l___type_descriptor_8c.html" target="_top" xlink:title=" ">
<polygon fill="none" stroke="black" points="1625,-234.5 1625,-275.5 1816,-275.5 1816,-234.5 1625,-234.5"/>
<text text-anchor="start" x="1633" y="-263.5" font-family="Helvetica,sans-Serif" font-size="10.00">/home/antoine/Documents</text>
<text text-anchor="start" x="1633" y="-252.5" font-family="Helvetica,sans-Serif" font-size="10.00">/Developpement/C/MyLittleCLibrary</text>
<text text-anchor="middle" x="1720.5" y="-241.5" font-family="Helvetica,sans-Serif" font-size="10.00">/src/MLCL_TypeDescriptor.c</text>
</a>
</g>
</g>
<!-- Node1&#45;&gt;Node19 -->
<g id="edge27" class="edge">
<title>Node1&#45;&gt;Node19</title>
<path fill="none" stroke="midnightblue" d="M1269.36,-320.94C1361.34,-310.85 1498.05,-294.69 1616.5,-276 1619.22,-275.57 1621.99,-275.12 1624.77,-274.66"/>
<polygon fill="midnightblue" stroke="midnightblue" points="1268.77,-317.49 1259.21,-322.05 1269.53,-324.45 1268.77,-317.49"/>
</g>
<!-- Node3 -->
<g id="node3" class="node">
<title>Node3</title>
<g id="a_node3"><a xlink:href="_m_l_c_l__basic__types_8c.html" target="_top" xlink:title=" ">
<polygon fill="none" stroke="black" points="1068,-156.5 1068,-197.5 1259,-197.5 1259,-156.5 1068,-156.5"/>
<text text-anchor="start" x="1076" y="-185.5" font-family="Helvetica,sans-Serif" font-size="10.00">/home/antoine/Documents</text>
<text text-anchor="start" x="1076" y="-174.5" font-family="Helvetica,sans-Serif" font-size="10.00">/Developpement/C/MyLittleCLibrary</text>
<text text-anchor="middle" x="1163.5" y="-163.5" font-family="Helvetica,sans-Serif" font-size="10.00">/src/MLCL_basic_types.c</text>
</a>
</g>
</g>
<!-- Node2&#45;&gt;Node3 -->
<g id="edge2" class="edge">
<title>Node2&#45;&gt;Node3</title>
<path fill="none" stroke="midnightblue" d="M1163.5,-224.3C1163.5,-215.3 1163.5,-205.65 1163.5,-197.51"/>
<polygon fill="midnightblue" stroke="midnightblue" points="1160,-224.43 1163.5,-234.43 1167,-224.43 1160,-224.43"/>
</g>
<!-- Node4 -->
<g id="node4" class="node">
<title>Node4</title>
<g id="a_node4"><a xlink:href="_m_l_c_l___circular_double_linked_list__test_8c.html" target="_top" xlink:title=" ">
<polygon fill="none" stroke="black" points="514,-78.5 514,-119.5 763,-119.5 763,-78.5 514,-78.5"/>
<text text-anchor="start" x="522" y="-107.5" font-family="Helvetica,sans-Serif" font-size="10.00">/home/antoine/Documents</text>
<text text-anchor="start" x="522" y="-96.5" font-family="Helvetica,sans-Serif" font-size="10.00">/Developpement/C/MyLittleCLibrary</text>
<text text-anchor="middle" x="638.5" y="-85.5" font-family="Helvetica,sans-Serif" font-size="10.00">/src/Tests/MLCL_CircularDoubleLinkedList_test.c</text>
</a>
</g>
</g>
<!-- Node2&#45;&gt;Node4 -->
<g id="edge3" class="edge">
<title>Node2&#45;&gt;Node4</title>
<path fill="none" stroke="midnightblue" d="M1057.64,-244.72C993.23,-236.88 910.04,-222.8 839.5,-198 803.09,-185.2 798.03,-173.24 763.5,-156 737.76,-143.15 708.42,-129.93 684.64,-119.57"/>
<polygon fill="midnightblue" stroke="midnightblue" points="1057.47,-248.22 1067.82,-245.92 1058.3,-241.27 1057.47,-248.22"/>
</g>
<!-- Node5 -->
<g id="node5" class="node">
<title>Node5</title>
<g id="a_node5"><a xlink:href="_m_l_c_l___circular_linked_list__test_8c.html" target="_top" xlink:title=" ">
<polygon fill="none" stroke="black" points="1293,-78.5 1293,-119.5 1508,-119.5 1508,-78.5 1293,-78.5"/>
<text text-anchor="start" x="1301" y="-107.5" font-family="Helvetica,sans-Serif" font-size="10.00">/home/antoine/Documents</text>
<text text-anchor="start" x="1301" y="-96.5" font-family="Helvetica,sans-Serif" font-size="10.00">/Developpement/C/MyLittleCLibrary</text>
<text text-anchor="middle" x="1400.5" y="-85.5" font-family="Helvetica,sans-Serif" font-size="10.00">/src/Tests/MLCL_CircularLinkedList_test.c</text>
</a>
</g>
</g>
<!-- Node2&#45;&gt;Node5 -->
<g id="edge4" class="edge">
<title>Node2&#45;&gt;Node5</title>
<path fill="none" stroke="midnightblue" d="M1224.09,-230.48C1244.56,-221.49 1267.13,-210.38 1286.5,-198 1322.79,-174.81 1359.66,-140.8 1381.28,-119.55"/>
<polygon fill="midnightblue" stroke="midnightblue" points="1222.65,-227.29 1214.85,-234.47 1225.42,-233.72 1222.65,-227.29"/>
</g>
<!-- Node6 -->
<g id="node6" class="node">
<title>Node6</title>
<g id="a_node6"><a xlink:href="_m_l_c_l___double_linked_list__test_8c.html" target="_top" xlink:title=" ">
<polygon fill="none" stroke="black" points="542.5,-156.5 542.5,-197.5 754.5,-197.5 754.5,-156.5 542.5,-156.5"/>
<text text-anchor="start" x="550.5" y="-185.5" font-family="Helvetica,sans-Serif" font-size="10.00">/home/antoine/Documents</text>
<text text-anchor="start" x="550.5" y="-174.5" font-family="Helvetica,sans-Serif" font-size="10.00">/Developpement/C/MyLittleCLibrary</text>
<text text-anchor="middle" x="648.5" y="-163.5" font-family="Helvetica,sans-Serif" font-size="10.00">/src/Tests/MLCL_DoubleLinkedList_test.c</text>
</a>
</g>
</g>
<!-- Node2&#45;&gt;Node6 -->
<g id="edge5" class="edge">
<title>Node2&#45;&gt;Node6</title>
<path fill="none" stroke="midnightblue" d="M1057.59,-239.7C977.99,-228.77 866.31,-213.08 768.5,-198 764.01,-197.31 759.43,-196.59 754.81,-195.86"/>
<polygon fill="midnightblue" stroke="midnightblue" points="1057.24,-243.18 1067.62,-241.07 1058.19,-236.25 1057.24,-243.18"/>
</g>
<!-- Node7 -->
<g id="node7" class="node">
<title>Node7</title>
<g id="a_node7"><a xlink:href="_m_l_c_l___linked_list__test_8c.html" target="_top" xlink:title=" ">
<polygon fill="none" stroke="black" points="1354,-156.5 1354,-197.5 1545,-197.5 1545,-156.5 1354,-156.5"/>
<text text-anchor="start" x="1362" y="-185.5" font-family="Helvetica,sans-Serif" font-size="10.00">/home/antoine/Documents</text>
<text text-anchor="start" x="1362" y="-174.5" font-family="Helvetica,sans-Serif" font-size="10.00">/Developpement/C/MyLittleCLibrary</text>
<text text-anchor="middle" x="1449.5" y="-163.5" font-family="Helvetica,sans-Serif" font-size="10.00">/src/Tests/MLCL_LinkedList_test.c</text>
</a>
</g>
</g>
<!-- Node2&#45;&gt;Node7 -->
<g id="edge6" class="edge">
<title>Node2&#45;&gt;Node7</title>
<path fill="none" stroke="midnightblue" d="M1246.83,-231.86C1287.75,-220.98 1336.61,-208 1376.1,-197.51"/>
<polygon fill="midnightblue" stroke="midnightblue" points="1245.92,-228.48 1237.15,-234.43 1247.72,-235.24 1245.92,-228.48"/>
</g>
<!-- Node8 -->
<g id="node8" class="node">
<title>Node8</title>
<g id="a_node8"><a xlink:href="_m_l_c_l___type_descriptor__test_8c.html" target="_top" xlink:title=" ">
<polygon fill="none" stroke="black" points="849,-156.5 849,-197.5 1050,-197.5 1050,-156.5 849,-156.5"/>
<text text-anchor="start" x="857" y="-185.5" font-family="Helvetica,sans-Serif" font-size="10.00">/home/antoine/Documents</text>
<text text-anchor="start" x="857" y="-174.5" font-family="Helvetica,sans-Serif" font-size="10.00">/Developpement/C/MyLittleCLibrary</text>
<text text-anchor="middle" x="949.5" y="-163.5" font-family="Helvetica,sans-Serif" font-size="10.00">/src/Tests/MLCL_TypeDescriptor_test.c</text>
</a>
</g>
</g>
<!-- Node2&#45;&gt;Node8 -->
<g id="edge7" class="edge">
<title>Node2&#45;&gt;Node8</title>
<path fill="none" stroke="midnightblue" d="M1098.81,-231.03C1068.69,-220.33 1033.23,-207.73 1004.42,-197.51"/>
<polygon fill="midnightblue" stroke="midnightblue" points="1097.79,-234.38 1108.39,-234.43 1100.14,-227.78 1097.79,-234.38"/>
</g>
<!-- Node2&#45;&gt;Node9 -->
<g id="edge8" class="edge">
<title>Node2&#45;&gt;Node9</title>
<path fill="none" stroke="midnightblue" d="M1233.87,-229.55C1247.27,-221.61 1259.56,-211.29 1267.5,-198 1277.07,-181.97 1279.44,-170.35 1267.5,-156 1241.27,-124.5 1138.11,-110.65 1059.17,-104.61"/>
<polygon fill="midnightblue" stroke="midnightblue" points="1232.04,-226.57 1224.95,-234.44 1235.4,-232.71 1232.04,-226.57"/>
</g>
<!-- Node10 -->
<g id="node10" class="node">
<title>Node10</title>
<g id="a_node10"><a xlink:href="test_8c.html" target="_top" xlink:title=" ">
<polygon fill="none" stroke="black" points="868,-0.5 868,-41.5 1059,-41.5 1059,-0.5 868,-0.5"/>
<text text-anchor="start" x="876" y="-29.5" font-family="Helvetica,sans-Serif" font-size="10.00">/home/antoine/Documents</text>
<text text-anchor="start" x="876" y="-18.5" font-family="Helvetica,sans-Serif" font-size="10.00">/Developpement/C/MyLittleCLibrary</text>
<text text-anchor="middle" x="963.5" y="-7.5" font-family="Helvetica,sans-Serif" font-size="10.00">/test.c</text>
</a>
</g>
</g>
<!-- Node9&#45;&gt;Node10 -->
<g id="edge9" class="edge">
<title>Node9&#45;&gt;Node10</title>
<path fill="none" stroke="midnightblue" d="M963.5,-68.3C963.5,-59.3 963.5,-49.65 963.5,-41.51"/>
<polygon fill="midnightblue" stroke="midnightblue" points="960,-68.43 963.5,-78.43 967,-68.43 960,-68.43"/>
</g>
<!-- Node11&#45;&gt;Node6 -->
<g id="edge17" class="edge">
<title>Node11&#45;&gt;Node6</title>
<path fill="none" stroke="midnightblue" d="M512.47,-230.75C539.9,-220.11 572.05,-207.65 598.2,-197.51"/>
<polygon fill="midnightblue" stroke="midnightblue" points="511.03,-227.55 502.97,-234.43 513.56,-234.08 511.03,-227.55"/>
</g>
<!-- Node11&#45;&gt;Node9 -->
<g id="edge18" class="edge">
<title>Node11&#45;&gt;Node9</title>
<path fill="none" stroke="midnightblue" d="M473.64,-226.38C494.89,-198.95 525.62,-160.35 533.5,-156 547.99,-148 745.52,-124.56 867.76,-110.67"/>
<polygon fill="midnightblue" stroke="midnightblue" points="470.72,-224.43 467.38,-234.49 476.26,-228.71 470.72,-224.43"/>
</g>
<!-- Node12 -->
<g id="node12" class="node">
<title>Node12</title>
<g id="a_node12"><a xlink:href="_m_l_c_l___circular_double_linked_list_8c.html" target="_top" xlink:title=" ">
<polygon fill="none" stroke="black" points="0,-78.5 0,-119.5 197,-119.5 197,-78.5 0,-78.5"/>
<text text-anchor="start" x="8" y="-107.5" font-family="Helvetica,sans-Serif" font-size="10.00">/home/antoine/Documents</text>
<text text-anchor="start" x="8" y="-96.5" font-family="Helvetica,sans-Serif" font-size="10.00">/Developpement/C/MyLittleCLibrary</text>
<text text-anchor="middle" x="98.5" y="-85.5" font-family="Helvetica,sans-Serif" font-size="10.00">/src/MLCL_CircularDoubleLinkedList.c</text>
</a>
</g>
</g>
<!-- Node11&#45;&gt;Node12 -->
<g id="edge11" class="edge">
<title>Node11&#45;&gt;Node12</title>
<path fill="none" stroke="midnightblue" d="M346.75,-254.44C240.27,-252.35 86.46,-241.58 48.5,-198 27.93,-174.38 54.23,-140.8 75.8,-119.72"/>
<polygon fill="midnightblue" stroke="midnightblue" points="346.84,-257.94 356.9,-254.61 346.97,-250.94 346.84,-257.94"/>
</g>
<!-- Node13 -->
<g id="node13" class="node">
<title>Node13</title>
<g id="a_node13"><a xlink:href="_m_l_c_l___circular_double_linked_list_8h.html" target="_top" xlink:title=" ">
<polygon fill="none" stroke="black" points="58,-156.5 58,-197.5 277,-197.5 277,-156.5 58,-156.5"/>
<text text-anchor="start" x="66" y="-185.5" font-family="Helvetica,sans-Serif" font-size="10.00">/home/antoine/Documents</text>
<text text-anchor="start" x="66" y="-174.5" font-family="Helvetica,sans-Serif" font-size="10.00">/Developpement/C/MyLittleCLibrary</text>
<text text-anchor="middle" x="167.5" y="-163.5" font-family="Helvetica,sans-Serif" font-size="10.00">/include/MLCL_CircularDoubleLinkedList.h</text>
</a>
</g>
</g>
<!-- Node11&#45;&gt;Node13 -->
<g id="edge12" class="edge">
<title>Node11&#45;&gt;Node13</title>
<path fill="none" stroke="midnightblue" d="M369.2,-231.79C328.48,-220.93 279.92,-207.98 240.65,-197.51"/>
<polygon fill="midnightblue" stroke="midnightblue" points="368.54,-235.23 379.11,-234.43 370.34,-228.47 368.54,-235.23"/>
</g>
<!-- Node14 -->
<g id="node14" class="node">
<title>Node14</title>
<g id="a_node14"><a xlink:href="_m_l_c_l___double_linked_list_8c.html" target="_top" xlink:title=" ">
<polygon fill="none" stroke="black" points="295,-156.5 295,-197.5 486,-197.5 486,-156.5 295,-156.5"/>
<text text-anchor="start" x="303" y="-185.5" font-family="Helvetica,sans-Serif" font-size="10.00">/home/antoine/Documents</text>
<text text-anchor="start" x="303" y="-174.5" font-family="Helvetica,sans-Serif" font-size="10.00">/Developpement/C/MyLittleCLibrary</text>
<text text-anchor="middle" x="390.5" y="-163.5" font-family="Helvetica,sans-Serif" font-size="10.00">/src/MLCL_DoubleLinkedList.c</text>
</a>
</g>
</g>
<!-- Node11&#45;&gt;Node14 -->
<g id="edge16" class="edge">
<title>Node11&#45;&gt;Node14</title>
<path fill="none" stroke="midnightblue" d="M430.17,-226.63C422.31,-216.99 413.64,-206.36 406.41,-197.51"/>
<polygon fill="midnightblue" stroke="midnightblue" points="427.5,-228.89 436.53,-234.43 432.92,-224.47 427.5,-228.89"/>
</g>
<!-- Node13&#45;&gt;Node4 -->
<g id="edge14" class="edge">
<title>Node13&#45;&gt;Node4</title>
<path fill="none" stroke="midnightblue" d="M287.46,-155.69C368.22,-142.47 449.05,-129.63 513.88,-119.44"/>
<polygon fill="midnightblue" stroke="midnightblue" points="286.4,-152.31 277.1,-157.38 287.53,-159.22 286.4,-152.31"/>
</g>
<!-- Node13&#45;&gt;Node9 -->
<g id="edge15" class="edge">
<title>Node13&#45;&gt;Node9</title>
<path fill="none" stroke="midnightblue" d="M287.09,-155.86C502.22,-130.15 559.03,-138.93 771.5,-120 802.88,-117.2 837.1,-113.76 867.85,-110.53"/>
<polygon fill="midnightblue" stroke="midnightblue" points="286.56,-152.4 277.05,-157.07 287.4,-159.35 286.56,-152.4"/>
</g>
<!-- Node13&#45;&gt;Node12 -->
<g id="edge13" class="edge">
<title>Node13&#45;&gt;Node12</title>
<path fill="none" stroke="midnightblue" d="M142.91,-148.92C134.09,-139.2 124.33,-128.45 116.21,-119.51"/>
<polygon fill="midnightblue" stroke="midnightblue" points="140.42,-151.38 149.73,-156.43 145.6,-146.67 140.42,-151.38"/>
</g>
<!-- Node15&#45;&gt;Node7 -->
<g id="edge25" class="edge">
<title>Node15&#45;&gt;Node7</title>
<path fill="none" stroke="midnightblue" d="M1489.17,-226.63C1481.31,-216.99 1472.64,-206.36 1465.41,-197.51"/>
<polygon fill="midnightblue" stroke="midnightblue" points="1486.5,-228.89 1495.53,-234.43 1491.92,-224.47 1486.5,-228.89"/>
</g>
<!-- Node15&#45;&gt;Node9 -->
<g id="edge26" class="edge">
<title>Node15&#45;&gt;Node9</title>
<path fill="none" stroke="midnightblue" d="M1538.49,-226.52C1556.13,-205.24 1572.79,-176.11 1554.5,-156 1538.07,-137.94 1222.13,-115.93 1059.09,-105.72"/>
<polygon fill="midnightblue" stroke="midnightblue" points="1535.69,-224.41 1531.76,-234.25 1540.96,-229.01 1535.69,-224.41"/>
</g>
<!-- Node16 -->
<g id="node16" class="node">
<title>Node16</title>
<g id="a_node16"><a xlink:href="_m_l_c_l___circular_linked_list_8h.html" target="_top" xlink:title=" ">
<polygon fill="none" stroke="black" points="1602,-156.5 1602,-197.5 1793,-197.5 1793,-156.5 1602,-156.5"/>
<text text-anchor="start" x="1610" y="-185.5" font-family="Helvetica,sans-Serif" font-size="10.00">/home/antoine/Documents</text>
<text text-anchor="start" x="1610" y="-174.5" font-family="Helvetica,sans-Serif" font-size="10.00">/Developpement/C/MyLittleCLibrary</text>
<text text-anchor="middle" x="1697.5" y="-163.5" font-family="Helvetica,sans-Serif" font-size="10.00">/include/MLCL_CircularLinkedList.h</text>
</a>
</g>
</g>
<!-- Node15&#45;&gt;Node16 -->
<g id="edge20" class="edge">
<title>Node15&#45;&gt;Node16</title>
<path fill="none" stroke="midnightblue" d="M1568.75,-230.61C1594.71,-220 1625.05,-207.6 1649.76,-197.51"/>
<polygon fill="midnightblue" stroke="midnightblue" points="1567.33,-227.41 1559.4,-234.43 1569.98,-233.89 1567.33,-227.41"/>
</g>
<!-- Node18 -->
<g id="node18" class="node">
<title>Node18</title>
<g id="a_node18"><a xlink:href="_m_l_c_l___linked_list_8c.html" target="_top" xlink:title=" ">
<polygon fill="none" stroke="black" points="1811,-156.5 1811,-197.5 2002,-197.5 2002,-156.5 1811,-156.5"/>
<text text-anchor="start" x="1819" y="-185.5" font-family="Helvetica,sans-Serif" font-size="10.00">/home/antoine/Documents</text>
<text text-anchor="start" x="1819" y="-174.5" font-family="Helvetica,sans-Serif" font-size="10.00">/Developpement/C/MyLittleCLibrary</text>
<text text-anchor="middle" x="1906.5" y="-163.5" font-family="Helvetica,sans-Serif" font-size="10.00">/src/MLCL_LinkedList.c</text>
</a>
</g>
</g>
<!-- Node15&#45;&gt;Node18 -->
<g id="edge24" class="edge">
<title>Node15&#45;&gt;Node18</title>
<path fill="none" stroke="midnightblue" d="M1617.04,-233.69C1677.27,-222.1 1752.2,-207.69 1810.74,-196.43"/>
<polygon fill="midnightblue" stroke="midnightblue" points="1616.28,-230.28 1607.12,-235.6 1617.6,-237.15 1616.28,-230.28"/>
</g>
<!-- Node16&#45;&gt;Node5 -->
<g id="edge22" class="edge">
<title>Node16&#45;&gt;Node5</title>
<path fill="none" stroke="midnightblue" d="M1611.23,-153.92C1568.69,-143.04 1517.82,-130.02 1476.73,-119.51"/>
<polygon fill="midnightblue" stroke="midnightblue" points="1610.46,-157.34 1621.02,-156.43 1612.19,-150.56 1610.46,-157.34"/>
</g>
<!-- Node16&#45;&gt;Node9 -->
<g id="edge23" class="edge">
<title>Node16&#45;&gt;Node9</title>
<path fill="none" stroke="midnightblue" d="M1591.95,-156.62C1590.46,-156.41 1588.97,-156.2 1587.5,-156 1401.17,-130.75 1181.94,-114.07 1059.21,-105.89"/>
<polygon fill="midnightblue" stroke="midnightblue" points="1591.49,-160.09 1601.89,-158.08 1592.51,-153.16 1591.49,-160.09"/>
</g>
<!-- Node17 -->
<g id="node17" class="node">
<title>Node17</title>
<g id="a_node17"><a xlink:href="_m_l_c_l___circular_linked_list_8c.html" target="_top" xlink:title=" ">
<polygon fill="none" stroke="black" points="1602,-78.5 1602,-119.5 1793,-119.5 1793,-78.5 1602,-78.5"/>
<text text-anchor="start" x="1610" y="-107.5" font-family="Helvetica,sans-Serif" font-size="10.00">/home/antoine/Documents</text>
<text text-anchor="start" x="1610" y="-96.5" font-family="Helvetica,sans-Serif" font-size="10.00">/Developpement/C/MyLittleCLibrary</text>
<text text-anchor="middle" x="1697.5" y="-85.5" font-family="Helvetica,sans-Serif" font-size="10.00">/src/MLCL_CircularLinkedList.c</text>
</a>
</g>
</g>
<!-- Node16&#45;&gt;Node17 -->
<g id="edge21" class="edge">
<title>Node16&#45;&gt;Node17</title>
<path fill="none" stroke="midnightblue" d="M1697.5,-146.3C1697.5,-137.3 1697.5,-127.65 1697.5,-119.51"/>
<polygon fill="midnightblue" stroke="midnightblue" points="1694,-146.43 1697.5,-156.43 1701,-146.43 1694,-146.43"/>
</g>
</g>
</svg>
