<?xml version="1.0" encoding="UTF-8" standalone="no"?>
<!DOCTYPE svg PUBLIC "-//W3C//DTD SVG 1.1//EN"
 "http://www.w3.org/Graphics/SVG/1.1/DTD/svg11.dtd">
<!-- Generated by graphviz version 2.43.0 (0)
 -->
<!-- Title: include/Lists/MLCL_ArrayList.h Pages: 1 -->
<svg width="909pt" height="307pt"
 viewBox="0.00 0.00 908.50 307.00" xmlns="http://www.w3.org/2000/svg" xmlns:xlink="http://www.w3.org/1999/xlink">
<g id="graph0" class="graph" transform="scale(1 1) rotate(0) translate(4 303)">
<title>include/Lists/MLCL_ArrayList.h</title>
<!-- Node1 -->
<g id="node1" class="node">
<title>Node1</title>
<g id="a_node1"><a xlink:title=" ">
<polygon fill="#bfbfbf" stroke="black" points="457.5,-268.5 457.5,-298.5 564.5,-298.5 564.5,-268.5 457.5,-268.5"/>
<text text-anchor="start" x="465.5" y="-286.5" font-family="Helvetica,sans-Serif" font-size="10.00">include/Lists/MLCL</text>
<text text-anchor="middle" x="511" y="-275.5" font-family="Helvetica,sans-Serif" font-size="10.00">_ArrayList.h</text>
</a>
</g>
</g>
<!-- Node2 -->
<g id="node2" class="node">
<title>Node2</title>
<g id="a_node2"><a xlink:href="_m_l_c_l___array_list__test_8c.html" target="_top" xlink:title=" ">
<polygon fill="none" stroke="black" points="213.5,-201.5 213.5,-231.5 332.5,-231.5 332.5,-201.5 213.5,-201.5"/>
<text text-anchor="start" x="221.5" y="-219.5" font-family="Helvetica,sans-Serif" font-size="10.00">src/_Tests/Lists/MLCL</text>
<text text-anchor="middle" x="273" y="-208.5" font-family="Helvetica,sans-Serif" font-size="10.00">_ArrayList_test.c</text>
</a>
</g>
</g>
<!-- Node1&#45;&gt;Node2 -->
<g id="edge1" class="edge">
<title>Node1&#45;&gt;Node2</title>
<path fill="none" stroke="midnightblue" d="M449.54,-265.71C410.81,-255.14 361.37,-241.63 324.67,-231.61"/>
<polygon fill="midnightblue" stroke="midnightblue" points="449.08,-269.22 459.65,-268.48 450.93,-262.46 449.08,-269.22"/>
</g>
<!-- Node3 -->
<g id="node3" class="node">
<title>Node3</title>
<g id="a_node3"><a xlink:href="_m_l_c_l___list_8h.html" target="_top" xlink:title=" ">
<polygon fill="none" stroke="black" points="350.5,-201.5 350.5,-231.5 457.5,-231.5 457.5,-201.5 350.5,-201.5"/>
<text text-anchor="start" x="358.5" y="-219.5" font-family="Helvetica,sans-Serif" font-size="10.00">include/Lists/MLCL</text>
<text text-anchor="middle" x="404" y="-208.5" font-family="Helvetica,sans-Serif" font-size="10.00">_List.h</text>
</a>
</g>
</g>
<!-- Node1&#45;&gt;Node3 -->
<g id="edge2" class="edge">
<title>Node1&#45;&gt;Node3</title>
<path fill="none" stroke="midnightblue" d="M478.92,-263.02C462.27,-252.9 442.31,-240.77 427.17,-231.58"/>
<polygon fill="midnightblue" stroke="midnightblue" points="477.42,-266.2 487.78,-268.4 481.05,-260.21 477.42,-266.2"/>
</g>
<!-- Node12 -->
<g id="node12" class="node">
<title>Node12</title>
<g id="a_node12"><a xlink:href="_m_l_c_l___binary_heap_8h.html" target="_top" xlink:title=" ">
<polygon fill="none" stroke="black" points="545,-201.5 545,-231.5 691,-231.5 691,-201.5 545,-201.5"/>
<text text-anchor="start" x="553" y="-219.5" font-family="Helvetica,sans-Serif" font-size="10.00">include/Heap/MLCL_Binary</text>
<text text-anchor="middle" x="618" y="-208.5" font-family="Helvetica,sans-Serif" font-size="10.00">Heap.h</text>
</a>
</g>
</g>
<!-- Node1&#45;&gt;Node12 -->
<g id="edge11" class="edge">
<title>Node1&#45;&gt;Node12</title>
<path fill="none" stroke="midnightblue" d="M543.08,-263.02C559.73,-252.9 579.69,-240.77 594.83,-231.58"/>
<polygon fill="midnightblue" stroke="midnightblue" points="540.95,-260.21 534.22,-268.4 544.58,-266.2 540.95,-260.21"/>
</g>
<!-- Node18 -->
<g id="node18" class="node">
<title>Node18</title>
<g id="a_node18"><a xlink:href="_m_l_c_l___array_list_8c.html" target="_top" xlink:title=" ">
<polygon fill="none" stroke="black" points="709.5,-207 709.5,-226 852.5,-226 852.5,-207 709.5,-207"/>
<text text-anchor="middle" x="781" y="-214" font-family="Helvetica,sans-Serif" font-size="10.00">src/Lists/MLCL_ArrayList.c</text>
</a>
</g>
</g>
<!-- Node1&#45;&gt;Node18 -->
<g id="edge17" class="edge">
<title>Node1&#45;&gt;Node18</title>
<path fill="none" stroke="midnightblue" d="M574.7,-267.16C628.02,-254.33 702.15,-236.48 745.5,-226.05"/>
<polygon fill="midnightblue" stroke="midnightblue" points="573.57,-263.84 564.67,-269.58 575.21,-270.64 573.57,-263.84"/>
</g>
<!-- Node4 -->
<g id="node4" class="node">
<title>Node4</title>
<g id="a_node4"><a xlink:href="_m_l_c_l___list__test_8c.html" target="_top" xlink:title=" ">
<polygon fill="none" stroke="black" points="29.5,-134.5 29.5,-164.5 148.5,-164.5 148.5,-134.5 29.5,-134.5"/>
<text text-anchor="start" x="37.5" y="-152.5" font-family="Helvetica,sans-Serif" font-size="10.00">src/_Tests/Lists/MLCL</text>
<text text-anchor="middle" x="89" y="-141.5" font-family="Helvetica,sans-Serif" font-size="10.00">_List_test.c</text>
</a>
</g>
</g>
<!-- Node3&#45;&gt;Node4 -->
<g id="edge3" class="edge">
<title>Node3&#45;&gt;Node4</title>
<path fill="none" stroke="midnightblue" d="M340.62,-200.96C258.31,-183.52 236.21,-180.91 158,-165 155,-164.39 151.93,-163.76 148.83,-163.12"/>
<polygon fill="midnightblue" stroke="midnightblue" points="339.9,-204.38 350.41,-203.04 341.36,-197.54 339.9,-204.38"/>
</g>
<!-- Node5 -->
<g id="node5" class="node">
<title>Node5</title>
<g id="a_node5"><a xlink:href="_m_l_c_l___queue_8h.html" target="_top" xlink:title=" ">
<polygon fill="none" stroke="black" points="167,-134.5 167,-164.5 283,-164.5 283,-134.5 167,-134.5"/>
<text text-anchor="start" x="175" y="-152.5" font-family="Helvetica,sans-Serif" font-size="10.00">include/Queue/MLCL</text>
<text text-anchor="middle" x="225" y="-141.5" font-family="Helvetica,sans-Serif" font-size="10.00">_Queue.h</text>
</a>
</g>
</g>
<!-- Node3&#45;&gt;Node5 -->
<g id="edge4" class="edge">
<title>Node3&#45;&gt;Node5</title>
<path fill="none" stroke="midnightblue" d="M355.68,-197.96C326.85,-187.48 290.72,-174.37 263.76,-164.58"/>
<polygon fill="midnightblue" stroke="midnightblue" points="354.57,-201.27 365.16,-201.4 356.95,-194.69 354.57,-201.27"/>
</g>
<!-- Node8 -->
<g id="node8" class="node">
<title>Node8</title>
<g id="a_node8"><a xlink:href="_m_l_c_l___stack_8h.html" target="_top" xlink:title=" ">
<polygon fill="none" stroke="black" points="313.5,-134.5 313.5,-164.5 424.5,-164.5 424.5,-134.5 313.5,-134.5"/>
<text text-anchor="start" x="321.5" y="-152.5" font-family="Helvetica,sans-Serif" font-size="10.00">include/Stack/MLCL</text>
<text text-anchor="middle" x="369" y="-141.5" font-family="Helvetica,sans-Serif" font-size="10.00">_Stack.h</text>
</a>
</g>
</g>
<!-- Node3&#45;&gt;Node8 -->
<g id="edge7" class="edge">
<title>Node3&#45;&gt;Node8</title>
<path fill="none" stroke="midnightblue" d="M391.66,-192.58C386.63,-183.24 380.98,-172.75 376.58,-164.58"/>
<polygon fill="midnightblue" stroke="midnightblue" points="388.58,-194.25 396.41,-201.4 394.75,-190.93 388.58,-194.25"/>
</g>
<!-- Node11 -->
<g id="node11" class="node">
<title>Node11</title>
<g id="a_node11"><a xlink:href="_m_l_c_l___list_8c.html" target="_top" xlink:title=" ">
<polygon fill="none" stroke="black" points="443,-140 443,-159 559,-159 559,-140 443,-140"/>
<text text-anchor="middle" x="501" y="-147" font-family="Helvetica,sans-Serif" font-size="10.00">src/Lists/MLCL_List.c</text>
</a>
</g>
</g>
<!-- Node3&#45;&gt;Node11 -->
<g id="edge10" class="edge">
<title>Node3&#45;&gt;Node11</title>
<path fill="none" stroke="midnightblue" d="M433.64,-195.64C451.94,-183.37 474.49,-168.26 488.3,-159.01"/>
<polygon fill="midnightblue" stroke="midnightblue" points="431.41,-192.92 425.05,-201.4 435.3,-198.74 431.41,-192.92"/>
</g>
<!-- Node6 -->
<g id="node6" class="node">
<title>Node6</title>
<g id="a_node6"><a xlink:href="_m_l_c_l___queue__test_8c.html" target="_top" xlink:title=" ">
<polygon fill="none" stroke="black" points="0,-67.5 0,-97.5 128,-97.5 128,-67.5 0,-67.5"/>
<text text-anchor="start" x="8" y="-85.5" font-family="Helvetica,sans-Serif" font-size="10.00">src/_Tests/Queue/MLCL</text>
<text text-anchor="middle" x="64" y="-74.5" font-family="Helvetica,sans-Serif" font-size="10.00">_Queue_test.c</text>
</a>
</g>
</g>
<!-- Node5&#45;&gt;Node6 -->
<g id="edge5" class="edge">
<title>Node5&#45;&gt;Node6</title>
<path fill="none" stroke="midnightblue" d="M180.52,-130.54C154.76,-120.14 122.8,-107.24 98.87,-97.58"/>
<polygon fill="midnightblue" stroke="midnightblue" points="179.48,-133.9 190.07,-134.4 182.1,-127.41 179.48,-133.9"/>
</g>
<!-- Node7 -->
<g id="node7" class="node">
<title>Node7</title>
<g id="a_node7"><a xlink:href="_m_l_c_l___queue_8c.html" target="_top" xlink:title=" ">
<polygon fill="none" stroke="black" points="146,-73 146,-92 286,-92 286,-73 146,-73"/>
<text text-anchor="middle" x="216" y="-80" font-family="Helvetica,sans-Serif" font-size="10.00">src/Queue/MLCL_Queue.c</text>
</a>
</g>
</g>
<!-- Node5&#45;&gt;Node7 -->
<g id="edge6" class="edge">
<title>Node5&#45;&gt;Node7</title>
<path fill="none" stroke="midnightblue" d="M221.64,-124.25C220.09,-113.02 218.34,-100.38 217.2,-92.19"/>
<polygon fill="midnightblue" stroke="midnightblue" points="218.21,-124.97 223.05,-134.4 225.14,-124.01 218.21,-124.97"/>
</g>
<!-- Node9 -->
<g id="node9" class="node">
<title>Node9</title>
<g id="a_node9"><a xlink:href="_m_l_c_l___stack__test_8c.html" target="_top" xlink:title=" ">
<polygon fill="none" stroke="black" points="304.5,-67.5 304.5,-97.5 427.5,-97.5 427.5,-67.5 304.5,-67.5"/>
<text text-anchor="start" x="312.5" y="-85.5" font-family="Helvetica,sans-Serif" font-size="10.00">src/_Tests/Stack/MLCL</text>
<text text-anchor="middle" x="366" y="-74.5" font-family="Helvetica,sans-Serif" font-size="10.00">_Stack_test.c</text>
</a>
</g>
</g>
<!-- Node8&#45;&gt;Node9 -->
<g id="edge8" class="edge">
<title>Node8&#45;&gt;Node9</title>
<path fill="none" stroke="midnightblue" d="M367.89,-124.4C367.47,-115.37 367.01,-105.41 366.65,-97.58"/>
<polygon fill="midnightblue" stroke="midnightblue" points="364.39,-124.57 368.35,-134.4 371.38,-124.25 364.39,-124.57"/>
</g>
<!-- Node10 -->
<g id="node10" class="node">
<title>Node10</title>
<g id="a_node10"><a xlink:href="_m_l_c_l___stack_8c.html" target="_top" xlink:title=" ">
<polygon fill="none" stroke="black" points="445.5,-73 445.5,-92 576.5,-92 576.5,-73 445.5,-73"/>
<text text-anchor="middle" x="511" y="-80" font-family="Helvetica,sans-Serif" font-size="10.00">src/Stack/MLCL_Stack.c</text>
</a>
</g>
</g>
<!-- Node8&#45;&gt;Node10 -->
<g id="edge9" class="edge">
<title>Node8&#45;&gt;Node10</title>
<path fill="none" stroke="midnightblue" d="M409.13,-130.13C436.46,-117.62 471.37,-101.64 492.42,-92.01"/>
<polygon fill="midnightblue" stroke="midnightblue" points="407.45,-127.05 399.81,-134.4 410.36,-133.42 407.45,-127.05"/>
</g>
<!-- Node13 -->
<g id="node13" class="node">
<title>Node13</title>
<g id="a_node13"><a xlink:href="_m_l_c_l___binary_heap__test_8h.html" target="_top" xlink:title=" ">
<polygon fill="none" stroke="black" points="582.5,-134.5 582.5,-164.5 723.5,-164.5 723.5,-134.5 582.5,-134.5"/>
<text text-anchor="start" x="590.5" y="-152.5" font-family="Helvetica,sans-Serif" font-size="10.00">include/_Tests/Heap</text>
<text text-anchor="middle" x="653" y="-141.5" font-family="Helvetica,sans-Serif" font-size="10.00">/MLCL_BinaryHeap_test.h</text>
</a>
</g>
</g>
<!-- Node12&#45;&gt;Node13 -->
<g id="edge12" class="edge">
<title>Node12&#45;&gt;Node13</title>
<path fill="none" stroke="midnightblue" d="M630.34,-192.58C635.37,-183.24 641.02,-172.75 645.42,-164.58"/>
<polygon fill="midnightblue" stroke="midnightblue" points="627.25,-190.93 625.59,-201.4 633.42,-194.25 627.25,-190.93"/>
</g>
<!-- Node17 -->
<g id="node17" class="node">
<title>Node17</title>
<g id="a_node17"><a xlink:href="_m_l_c_l___binary_heap_8c.html" target="_top" xlink:title=" ">
<polygon fill="none" stroke="black" points="741.5,-140 741.5,-159 900.5,-159 900.5,-140 741.5,-140"/>
<text text-anchor="middle" x="821" y="-147" font-family="Helvetica,sans-Serif" font-size="10.00">src/Heap/MLCL_BinaryHeap.c</text>
</a>
</g>
</g>
<!-- Node12&#45;&gt;Node17 -->
<g id="edge16" class="edge">
<title>Node12&#45;&gt;Node17</title>
<path fill="none" stroke="midnightblue" d="M671.81,-198.27C711.37,-185.6 763.43,-168.93 794.43,-159.01"/>
<polygon fill="midnightblue" stroke="midnightblue" points="670.5,-195.01 662.05,-201.4 672.64,-201.68 670.5,-195.01"/>
</g>
<!-- Node14 -->
<g id="node14" class="node">
<title>Node14</title>
<g id="a_node14"><a xlink:href="_m_l_c_l___binary_heap__test_8c.html" target="_top" xlink:title=" ">
<polygon fill="none" stroke="black" points="595,-67.5 595,-97.5 717,-97.5 717,-67.5 595,-67.5"/>
<text text-anchor="start" x="603" y="-85.5" font-family="Helvetica,sans-Serif" font-size="10.00">src/_Tests/Heap/MLCL</text>
<text text-anchor="middle" x="656" y="-74.5" font-family="Helvetica,sans-Serif" font-size="10.00">_BinaryHeap_test.c</text>
</a>
</g>
</g>
<!-- Node13&#45;&gt;Node14 -->
<g id="edge13" class="edge">
<title>Node13&#45;&gt;Node14</title>
<path fill="none" stroke="midnightblue" d="M654.11,-124.4C654.53,-115.37 654.99,-105.41 655.35,-97.58"/>
<polygon fill="midnightblue" stroke="midnightblue" points="650.62,-124.25 653.65,-134.4 657.61,-124.57 650.62,-124.25"/>
</g>
<!-- Node15 -->
<g id="node15" class="node">
<title>Node15</title>
<g id="a_node15"><a xlink:href="_m_l_c_l__all__tests_8h.html" target="_top" xlink:title=" ">
<polygon fill="none" stroke="black" points="735,-67.5 735,-97.5 849,-97.5 849,-67.5 735,-67.5"/>
<text text-anchor="start" x="743" y="-85.5" font-family="Helvetica,sans-Serif" font-size="10.00">include/_Tests/MLCL</text>
<text text-anchor="middle" x="792" y="-74.5" font-family="Helvetica,sans-Serif" font-size="10.00">_all_tests.h</text>
</a>
</g>
</g>
<!-- Node13&#45;&gt;Node15 -->
<g id="edge14" class="edge">
<title>Node13&#45;&gt;Node15</title>
<path fill="none" stroke="midnightblue" d="M692.28,-130.13C714.37,-119.8 741.51,-107.11 761.9,-97.58"/>
<polygon fill="midnightblue" stroke="midnightblue" points="690.74,-126.99 683.16,-134.4 693.7,-133.33 690.74,-126.99"/>
</g>
<!-- Node16 -->
<g id="node16" class="node">
<title>Node16</title>
<g id="a_node16"><a xlink:href="_m_l_c_l__all__tests_8c.html" target="_top" xlink:title=" ">
<polygon fill="none" stroke="black" points="737,-0.5 737,-30.5 847,-30.5 847,-0.5 737,-0.5"/>
<text text-anchor="start" x="745" y="-18.5" font-family="Helvetica,sans-Serif" font-size="10.00">src/_Tests/MLCL_all</text>
<text text-anchor="middle" x="792" y="-7.5" font-family="Helvetica,sans-Serif" font-size="10.00">_tests.c</text>
</a>
</g>
</g>
<!-- Node15&#45;&gt;Node16 -->
<g id="edge15" class="edge">
<title>Node15&#45;&gt;Node16</title>
<path fill="none" stroke="midnightblue" d="M792,-57.11C792,-48.15 792,-38.32 792,-30.58"/>
<polygon fill="midnightblue" stroke="midnightblue" points="788.5,-57.4 792,-67.4 795.5,-57.4 788.5,-57.4"/>
</g>
</g>
</svg>
