<?xml version="1.0" encoding="UTF-8" standalone="no"?>
<!DOCTYPE svg PUBLIC "-//W3C//DTD SVG 1.1//EN"
 "http://www.w3.org/Graphics/SVG/1.1/DTD/svg11.dtd">
<!-- Generated by graphviz version 2.43.0 (0)
 -->
<!-- Title: src/Tree/MLCL_Tree.c Pages: 1 -->
<svg width="175pt" height="319pt"
 viewBox="0.00 0.00 174.84 319.00" xmlns="http://www.w3.org/2000/svg" xmlns:xlink="http://www.w3.org/1999/xlink">
<g id="graph0" class="graph" transform="scale(1 1) rotate(0) translate(4 315)">
<title>src/Tree/MLCL_Tree.c</title>
<!-- Node1 -->
<g id="node1" class="node">
<title>Node1</title>
<g id="a_node1"><a xlink:title=" ">
<polygon fill="#bfbfbf" stroke="black" points="22.84,-291.5 22.84,-310.5 139.84,-310.5 139.84,-291.5 22.84,-291.5"/>
<text text-anchor="middle" x="81.34" y="-298.5" font-family="Helvetica,sans-Serif" font-size="10.00">src/Tree/MLCL_Tree.c</text>
</a>
</g>
</g>
<!-- Node2 -->
<g id="node2" class="node">
<title>Node2</title>
<g id="a_node2"><a xlink:href="_m_l_c_l___tree_8h.html" target="_top" xlink:title=" ">
<polygon fill="none" stroke="black" points="34.84,-224.5 34.84,-254.5 127.84,-254.5 127.84,-224.5 34.84,-224.5"/>
<text text-anchor="start" x="42.84" y="-242.5" font-family="Helvetica,sans-Serif" font-size="10.00">../../include/Tree</text>
<text text-anchor="middle" x="81.34" y="-231.5" font-family="Helvetica,sans-Serif" font-size="10.00">/MLCL_Tree.h</text>
</a>
</g>
</g>
<!-- Node1&#45;&gt;Node2 -->
<g id="edge1" class="edge">
<title>Node1&#45;&gt;Node2</title>
<path fill="none" stroke="midnightblue" d="M81.34,-291.48C81.34,-284.47 81.34,-274.19 81.34,-264.7"/>
<polygon fill="midnightblue" stroke="midnightblue" points="84.84,-264.52 81.34,-254.52 77.84,-264.52 84.84,-264.52"/>
</g>
<!-- Node3 -->
<g id="node3" class="node">
<title>Node3</title>
<g id="a_node3"><a xlink:href="_m_l_c_l___binary_search_tree_8h.html" target="_top" xlink:title=" ">
<polygon fill="none" stroke="black" points="10.34,-112.5 10.34,-131.5 152.34,-131.5 152.34,-112.5 10.34,-112.5"/>
<text text-anchor="middle" x="81.34" y="-119.5" font-family="Helvetica,sans-Serif" font-size="10.00">MLCL_BinarySearchTree.h</text>
</a>
</g>
</g>
<!-- Node2&#45;&gt;Node3 -->
<g id="edge2" class="edge">
<title>Node2&#45;&gt;Node3</title>
<path fill="none" stroke="midnightblue" d="M73.5,-224.31C66.64,-210.17 58.34,-187.75 62.34,-168 64.24,-158.65 68.13,-148.83 71.91,-140.75"/>
<polygon fill="midnightblue" stroke="midnightblue" points="75.13,-142.14 76.47,-131.63 68.87,-139.01 75.13,-142.14"/>
</g>
<!-- Node7 -->
<g id="node7" class="node">
<title>Node7</title>
<g id="a_node7"><a xlink:href="_m_l_c_l___a_v_l_tree_8h.html" target="_top" xlink:title=" ">
<polygon fill="none" stroke="black" points="71.84,-168.5 71.84,-187.5 166.84,-187.5 166.84,-168.5 71.84,-168.5"/>
<text text-anchor="middle" x="119.34" y="-175.5" font-family="Helvetica,sans-Serif" font-size="10.00">MLCL_AVLTree.h</text>
</a>
</g>
</g>
<!-- Node2&#45;&gt;Node7 -->
<g id="edge8" class="edge">
<title>Node2&#45;&gt;Node7</title>
<path fill="none" stroke="midnightblue" d="M90.35,-224.4C95.76,-215.93 102.67,-205.1 108.4,-196.14"/>
<polygon fill="midnightblue" stroke="midnightblue" points="111.38,-197.97 113.81,-187.66 105.48,-194.2 111.38,-197.97"/>
</g>
<!-- Node4 -->
<g id="node4" class="node">
<title>Node4</title>
<g id="a_node4"><a xlink:href="_m_l_c_l___type_descriptor_8h.html" target="_top" xlink:title=" ">
<polygon fill="none" stroke="black" points="12.34,-56.5 12.34,-75.5 150.34,-75.5 150.34,-56.5 12.34,-56.5"/>
<text text-anchor="middle" x="81.34" y="-63.5" font-family="Helvetica,sans-Serif" font-size="10.00">../MLCL_TypeDescriptor.h</text>
</a>
</g>
</g>
<!-- Node3&#45;&gt;Node4 -->
<g id="edge3" class="edge">
<title>Node3&#45;&gt;Node4</title>
<path fill="none" stroke="midnightblue" d="M81.34,-112.08C81.34,-105.01 81.34,-94.86 81.34,-85.99"/>
<polygon fill="midnightblue" stroke="midnightblue" points="84.84,-85.75 81.34,-75.75 77.84,-85.75 84.84,-85.75"/>
</g>
<!-- Node5 -->
<g id="node5" class="node">
<title>Node5</title>
<g id="a_node5"><a xlink:title=" ">
<polygon fill="none" stroke="#bfbfbf" points="12.84,-0.5 12.84,-19.5 65.84,-19.5 65.84,-0.5 12.84,-0.5"/>
<text text-anchor="middle" x="39.34" y="-7.5" font-family="Helvetica,sans-Serif" font-size="10.00">stdlib.h</text>
</a>
</g>
</g>
<!-- Node3&#45;&gt;Node5 -->
<g id="edge6" class="edge">
<title>Node3&#45;&gt;Node5</title>
<path fill="none" stroke="midnightblue" d="M52.22,-112.44C34.7,-105.62 13.82,-94.14 3.34,-76 -6.26,-59.38 7.46,-40.12 20.64,-26.9"/>
<polygon fill="midnightblue" stroke="midnightblue" points="23.23,-29.27 28.15,-19.89 18.46,-24.15 23.23,-29.27"/>
</g>
<!-- Node6 -->
<g id="node6" class="node">
<title>Node6</title>
<g id="a_node6"><a xlink:title=" ">
<polygon fill="none" stroke="#bfbfbf" points="97.34,-0.5 97.34,-19.5 147.34,-19.5 147.34,-0.5 97.34,-0.5"/>
<text text-anchor="middle" x="122.34" y="-7.5" font-family="Helvetica,sans-Serif" font-size="10.00">stdio.h</text>
</a>
</g>
</g>
<!-- Node3&#45;&gt;Node6 -->
<g id="edge7" class="edge">
<title>Node3&#45;&gt;Node6</title>
<path fill="none" stroke="midnightblue" d="M110.46,-112.44C127.99,-105.62 148.86,-94.14 159.34,-76 169.01,-59.27 154.94,-40.03 141.46,-26.85"/>
<polygon fill="midnightblue" stroke="midnightblue" points="143.52,-24 133.77,-19.85 138.81,-29.17 143.52,-24"/>
</g>
<!-- Node4&#45;&gt;Node5 -->
<g id="edge4" class="edge">
<title>Node4&#45;&gt;Node5</title>
<path fill="none" stroke="midnightblue" d="M74.41,-56.08C68.41,-48.38 59.59,-37.03 52.29,-27.65"/>
<polygon fill="midnightblue" stroke="midnightblue" points="55.05,-25.5 46.15,-19.75 49.53,-29.79 55.05,-25.5"/>
</g>
<!-- Node4&#45;&gt;Node6 -->
<g id="edge5" class="edge">
<title>Node4&#45;&gt;Node6</title>
<path fill="none" stroke="midnightblue" d="M88.11,-56.08C93.9,-48.46 102.4,-37.26 109.48,-27.94"/>
<polygon fill="midnightblue" stroke="midnightblue" points="112.44,-29.83 115.7,-19.75 106.86,-25.6 112.44,-29.83"/>
</g>
<!-- Node7&#45;&gt;Node3 -->
<g id="edge9" class="edge">
<title>Node7&#45;&gt;Node3</title>
<path fill="none" stroke="midnightblue" d="M113.07,-168.08C107.7,-160.46 99.82,-149.26 93.26,-139.94"/>
<polygon fill="midnightblue" stroke="midnightblue" points="96.12,-137.91 87.5,-131.75 90.39,-141.94 96.12,-137.91"/>
</g>
</g>
</svg>
