<?xml version="1.0" encoding="UTF-8" standalone="no"?>
<!DOCTYPE svg PUBLIC "-//W3C//DTD SVG 1.1//EN"
 "http://www.w3.org/Graphics/SVG/1.1/DTD/svg11.dtd">
<!-- Generated by graphviz version 2.43.0 (0)
 -->
<!-- Title: include/Lists/MLCL_ArrayList.h Pages: 1 -->
<svg width="413pt" height="173pt"
 viewBox="0.00 0.00 413.00 173.00" xmlns="http://www.w3.org/2000/svg" xmlns:xlink="http://www.w3.org/1999/xlink">
<g id="graph0" class="graph" transform="scale(1 1) rotate(0) translate(4 169)">
<title>include/Lists/MLCL_ArrayList.h</title>
<!-- Node1 -->
<g id="node1" class="node">
<title>Node1</title>
<g id="a_node1"><a xlink:title=" ">
<polygon fill="#bfbfbf" stroke="black" points="137,-134.5 137,-164.5 244,-164.5 244,-134.5 137,-134.5"/>
<text text-anchor="start" x="145" y="-152.5" font-family="Helvetica,sans-Serif" font-size="10.00">include/Lists/MLCL</text>
<text text-anchor="middle" x="190.5" y="-141.5" font-family="Helvetica,sans-Serif" font-size="10.00">_ArrayList.h</text>
</a>
</g>
</g>
<!-- Node2 -->
<g id="node2" class="node">
<title>Node2</title>
<g id="a_node2"><a xlink:href="_m_l_c_l___array_list__test_8c.html" target="_top" xlink:title=" ">
<polygon fill="none" stroke="black" points="0,-67.5 0,-97.5 119,-97.5 119,-67.5 0,-67.5"/>
<text text-anchor="start" x="8" y="-85.5" font-family="Helvetica,sans-Serif" font-size="10.00">src/_Tests/Lists/MLCL</text>
<text text-anchor="middle" x="59.5" y="-74.5" font-family="Helvetica,sans-Serif" font-size="10.00">_ArrayList_test.c</text>
</a>
</g>
</g>
<!-- Node1&#45;&gt;Node2 -->
<g id="edge1" class="edge">
<title>Node1&#45;&gt;Node2</title>
<path fill="none" stroke="midnightblue" d="M152.92,-129.85C132.21,-119.58 106.91,-107.03 87.87,-97.58"/>
<polygon fill="midnightblue" stroke="midnightblue" points="151.56,-133.09 162.07,-134.4 154.67,-126.82 151.56,-133.09"/>
</g>
<!-- Node3 -->
<g id="node3" class="node">
<title>Node3</title>
<g id="a_node3"><a xlink:href="_m_l_c_l___list_8h.html" target="_top" xlink:title=" ">
<polygon fill="none" stroke="black" points="137,-67.5 137,-97.5 244,-97.5 244,-67.5 137,-67.5"/>
<text text-anchor="start" x="145" y="-85.5" font-family="Helvetica,sans-Serif" font-size="10.00">include/Lists/MLCL</text>
<text text-anchor="middle" x="190.5" y="-74.5" font-family="Helvetica,sans-Serif" font-size="10.00">_List.h</text>
</a>
</g>
</g>
<!-- Node1&#45;&gt;Node3 -->
<g id="edge2" class="edge">
<title>Node1&#45;&gt;Node3</title>
<path fill="none" stroke="midnightblue" d="M190.5,-124.11C190.5,-115.15 190.5,-105.32 190.5,-97.58"/>
<polygon fill="midnightblue" stroke="midnightblue" points="187,-124.4 190.5,-134.4 194,-124.4 187,-124.4"/>
</g>
<!-- Node6 -->
<g id="node6" class="node">
<title>Node6</title>
<g id="a_node6"><a xlink:href="_m_l_c_l___array_list_8c.html" target="_top" xlink:title=" ">
<polygon fill="none" stroke="black" points="262,-73 262,-92 405,-92 405,-73 262,-73"/>
<text text-anchor="middle" x="333.5" y="-80" font-family="Helvetica,sans-Serif" font-size="10.00">src/Lists/MLCL_ArrayList.c</text>
</a>
</g>
</g>
<!-- Node1&#45;&gt;Node6 -->
<g id="edge5" class="edge">
<title>Node1&#45;&gt;Node6</title>
<path fill="none" stroke="midnightblue" d="M230.91,-130.13C258.43,-117.62 293.59,-101.64 314.78,-92.01"/>
<polygon fill="midnightblue" stroke="midnightblue" points="229.18,-127.07 221.53,-134.4 232.08,-133.44 229.18,-127.07"/>
</g>
<!-- Node4 -->
<g id="node4" class="node">
<title>Node4</title>
<g id="a_node4"><a xlink:href="_m_l_c_l___list__test_8c.html" target="_top" xlink:title=" ">
<polygon fill="none" stroke="black" points="63,-0.5 63,-30.5 182,-30.5 182,-0.5 63,-0.5"/>
<text text-anchor="start" x="71" y="-18.5" font-family="Helvetica,sans-Serif" font-size="10.00">src/_Tests/Lists/MLCL</text>
<text text-anchor="middle" x="122.5" y="-7.5" font-family="Helvetica,sans-Serif" font-size="10.00">_List_test.c</text>
</a>
</g>
</g>
<!-- Node3&#45;&gt;Node4 -->
<g id="edge3" class="edge">
<title>Node3&#45;&gt;Node4</title>
<path fill="none" stroke="midnightblue" d="M168.33,-60.31C158.13,-50.56 146.31,-39.26 137.23,-30.58"/>
<polygon fill="midnightblue" stroke="midnightblue" points="166.1,-63.02 175.75,-67.4 170.93,-57.96 166.1,-63.02"/>
</g>
<!-- Node5 -->
<g id="node5" class="node">
<title>Node5</title>
<g id="a_node5"><a xlink:href="_m_l_c_l___list_8c.html" target="_top" xlink:title=" ">
<polygon fill="none" stroke="black" points="200.5,-6 200.5,-25 316.5,-25 316.5,-6 200.5,-6"/>
<text text-anchor="middle" x="258.5" y="-13" font-family="Helvetica,sans-Serif" font-size="10.00">src/Lists/MLCL_List.c</text>
</a>
</g>
</g>
<!-- Node3&#45;&gt;Node5 -->
<g id="edge4" class="edge">
<title>Node3&#45;&gt;Node5</title>
<path fill="none" stroke="midnightblue" d="M212.64,-60.34C225.13,-48.4 240.05,-34.14 249.4,-25.19"/>
<polygon fill="midnightblue" stroke="midnightblue" points="210.07,-57.96 205.25,-67.4 214.9,-63.02 210.07,-57.96"/>
</g>
</g>
</svg>
