<?xml version="1.0" encoding="UTF-8" standalone="no"?>
<!DOCTYPE svg PUBLIC "-//W3C//DTD SVG 1.1//EN"
 "http://www.w3.org/Graphics/SVG/1.1/DTD/svg11.dtd">
<!-- Generated by graphviz version 2.43.0 (0)
 -->
<!-- Title: include/Lists/MLCL_LinkedList.h Pages: 1 -->
<svg width="695pt" height="240pt"
 viewBox="0.00 0.00 695.00 240.00" xmlns="http://www.w3.org/2000/svg" xmlns:xlink="http://www.w3.org/1999/xlink">
<g id="graph0" class="graph" transform="scale(1 1) rotate(0) translate(4 236)">
<title>include/Lists/MLCL_LinkedList.h</title>
<!-- Node1 -->
<g id="node1" class="node">
<title>Node1</title>
<g id="a_node1"><a xlink:title=" ">
<polygon fill="#bfbfbf" stroke="black" points="363.5,-201.5 363.5,-231.5 470.5,-231.5 470.5,-201.5 363.5,-201.5"/>
<text text-anchor="start" x="371.5" y="-219.5" font-family="Helvetica,sans-Serif" font-size="10.00">include/Lists/MLCL</text>
<text text-anchor="middle" x="417" y="-208.5" font-family="Helvetica,sans-Serif" font-size="10.00">_LinkedList.h</text>
</a>
</g>
</g>
<!-- Node2 -->
<g id="node2" class="node">
<title>Node2</title>
<g id="a_node2"><a xlink:href="_m_l_c_l___circular_linked_list_8h.html" target="_top" xlink:title=" ">
<polygon fill="none" stroke="black" points="211.5,-134.5 211.5,-164.5 328.5,-164.5 328.5,-134.5 211.5,-134.5"/>
<text text-anchor="start" x="219.5" y="-152.5" font-family="Helvetica,sans-Serif" font-size="10.00">include/Lists/MLCL</text>
<text text-anchor="middle" x="270" y="-141.5" font-family="Helvetica,sans-Serif" font-size="10.00">_CircularLinkedList.h</text>
</a>
</g>
</g>
<!-- Node1&#45;&gt;Node2 -->
<g id="edge1" class="edge">
<title>Node1&#45;&gt;Node2</title>
<path fill="none" stroke="midnightblue" d="M375.77,-197.27C352.36,-186.92 323.49,-174.15 301.83,-164.58"/>
<polygon fill="midnightblue" stroke="midnightblue" points="374.54,-200.55 385.1,-201.4 377.37,-194.15 374.54,-200.55"/>
</g>
<!-- Node4 -->
<g id="node4" class="node">
<title>Node4</title>
<g id="a_node4"><a xlink:href="_m_l_c_l___list_8h.html" target="_top" xlink:title=" ">
<polygon fill="none" stroke="black" points="336.5,-67.5 336.5,-97.5 443.5,-97.5 443.5,-67.5 336.5,-67.5"/>
<text text-anchor="start" x="344.5" y="-85.5" font-family="Helvetica,sans-Serif" font-size="10.00">include/Lists/MLCL</text>
<text text-anchor="middle" x="390" y="-74.5" font-family="Helvetica,sans-Serif" font-size="10.00">_List.h</text>
</a>
</g>
</g>
<!-- Node1&#45;&gt;Node4 -->
<g id="edge8" class="edge">
<title>Node1&#45;&gt;Node4</title>
<path fill="none" stroke="midnightblue" d="M402.92,-192.38C398.57,-184.05 394.32,-174.38 392,-165 386.3,-141.92 387.22,-114.03 388.53,-97.59"/>
<polygon fill="midnightblue" stroke="midnightblue" points="399.86,-194.08 407.77,-201.13 405.98,-190.69 399.86,-194.08"/>
</g>
<!-- Node8 -->
<g id="node8" class="node">
<title>Node8</title>
<g id="a_node8"><a xlink:href="_m_l_c_l___linked_list__test_8c.html" target="_top" xlink:title=" ">
<polygon fill="none" stroke="black" points="401.5,-134.5 401.5,-164.5 520.5,-164.5 520.5,-134.5 401.5,-134.5"/>
<text text-anchor="start" x="409.5" y="-152.5" font-family="Helvetica,sans-Serif" font-size="10.00">src/_Tests/Lists/MLCL</text>
<text text-anchor="middle" x="461" y="-141.5" font-family="Helvetica,sans-Serif" font-size="10.00">_LinkedList_test.c</text>
</a>
</g>
</g>
<!-- Node1&#45;&gt;Node8 -->
<g id="edge7" class="edge">
<title>Node1&#45;&gt;Node8</title>
<path fill="none" stroke="midnightblue" d="M432.32,-192.87C438.69,-183.46 445.88,-172.83 451.47,-164.58"/>
<polygon fill="midnightblue" stroke="midnightblue" points="429.25,-191.15 426.55,-201.4 435.05,-195.08 429.25,-191.15"/>
</g>
<!-- Node9 -->
<g id="node9" class="node">
<title>Node9</title>
<g id="a_node9"><a xlink:href="_m_l_c_l___linked_list_8c.html" target="_top" xlink:title=" ">
<polygon fill="none" stroke="black" points="539,-140 539,-159 687,-159 687,-140 539,-140"/>
<text text-anchor="middle" x="613" y="-147" font-family="Helvetica,sans-Serif" font-size="10.00">src/Lists/MLCL_LinkedList.c</text>
</a>
</g>
</g>
<!-- Node1&#45;&gt;Node9 -->
<g id="edge9" class="edge">
<title>Node1&#45;&gt;Node9</title>
<path fill="none" stroke="midnightblue" d="M469.44,-198.11C507.58,-185.46 557.54,-168.89 587.35,-159.01"/>
<polygon fill="midnightblue" stroke="midnightblue" points="467.92,-194.93 459.53,-201.4 470.12,-201.57 467.92,-194.93"/>
</g>
<!-- Node3 -->
<g id="node3" class="node">
<title>Node3</title>
<g id="a_node3"><a xlink:href="_m_l_c_l___circular_linked_list__test_8c.html" target="_top" xlink:title=" ">
<polygon fill="none" stroke="black" points="0,-67.5 0,-97.5 140,-97.5 140,-67.5 0,-67.5"/>
<text text-anchor="start" x="8" y="-85.5" font-family="Helvetica,sans-Serif" font-size="10.00">src/_Tests/Lists/MLCL</text>
<text text-anchor="middle" x="70" y="-74.5" font-family="Helvetica,sans-Serif" font-size="10.00">_CircularLinkedList_test.c</text>
</a>
</g>
</g>
<!-- Node2&#45;&gt;Node3 -->
<g id="edge2" class="edge">
<title>Node2&#45;&gt;Node3</title>
<path fill="none" stroke="midnightblue" d="M216.85,-131.23C184.5,-120.71 143.69,-107.45 113.31,-97.58"/>
<polygon fill="midnightblue" stroke="midnightblue" points="216.01,-134.63 226.6,-134.4 218.17,-127.98 216.01,-134.63"/>
</g>
<!-- Node2&#45;&gt;Node4 -->
<g id="edge3" class="edge">
<title>Node2&#45;&gt;Node4</title>
<path fill="none" stroke="midnightblue" d="M304.94,-129.57C323.82,-119.35 346.73,-106.94 364.01,-97.58"/>
<polygon fill="midnightblue" stroke="midnightblue" points="303.16,-126.56 296.04,-134.4 306.5,-132.71 303.16,-126.56"/>
</g>
<!-- Node7 -->
<g id="node7" class="node">
<title>Node7</title>
<g id="a_node7"><a xlink:href="_m_l_c_l___circular_linked_list_8c.html" target="_top" xlink:title=" ">
<polygon fill="none" stroke="black" points="158,-67.5 158,-97.5 318,-97.5 318,-67.5 158,-67.5"/>
<text text-anchor="start" x="166" y="-85.5" font-family="Helvetica,sans-Serif" font-size="10.00">src/Lists/MLCL_CircularLinked</text>
<text text-anchor="middle" x="238" y="-74.5" font-family="Helvetica,sans-Serif" font-size="10.00">List.c</text>
</a>
</g>
</g>
<!-- Node2&#45;&gt;Node7 -->
<g id="edge6" class="edge">
<title>Node2&#45;&gt;Node7</title>
<path fill="none" stroke="midnightblue" d="M258.57,-125.28C254.01,-116.02 248.91,-105.66 244.93,-97.58"/>
<polygon fill="midnightblue" stroke="midnightblue" points="255.5,-126.97 263.06,-134.4 261.78,-123.88 255.5,-126.97"/>
</g>
<!-- Node5 -->
<g id="node5" class="node">
<title>Node5</title>
<g id="a_node5"><a xlink:href="_m_l_c_l___list__test_8c.html" target="_top" xlink:title=" ">
<polygon fill="none" stroke="black" points="262.5,-0.5 262.5,-30.5 381.5,-30.5 381.5,-0.5 262.5,-0.5"/>
<text text-anchor="start" x="270.5" y="-18.5" font-family="Helvetica,sans-Serif" font-size="10.00">src/_Tests/Lists/MLCL</text>
<text text-anchor="middle" x="322" y="-7.5" font-family="Helvetica,sans-Serif" font-size="10.00">_List_test.c</text>
</a>
</g>
</g>
<!-- Node4&#45;&gt;Node5 -->
<g id="edge4" class="edge">
<title>Node4&#45;&gt;Node5</title>
<path fill="none" stroke="midnightblue" d="M367.83,-60.31C357.63,-50.56 345.81,-39.26 336.73,-30.58"/>
<polygon fill="midnightblue" stroke="midnightblue" points="365.6,-63.02 375.25,-67.4 370.43,-57.96 365.6,-63.02"/>
</g>
<!-- Node6 -->
<g id="node6" class="node">
<title>Node6</title>
<g id="a_node6"><a xlink:href="_m_l_c_l___list_8c.html" target="_top" xlink:title=" ">
<polygon fill="none" stroke="black" points="400,-6 400,-25 516,-25 516,-6 400,-6"/>
<text text-anchor="middle" x="458" y="-13" font-family="Helvetica,sans-Serif" font-size="10.00">src/Lists/MLCL_List.c</text>
</a>
</g>
</g>
<!-- Node4&#45;&gt;Node6 -->
<g id="edge5" class="edge">
<title>Node4&#45;&gt;Node6</title>
<path fill="none" stroke="midnightblue" d="M412.14,-60.34C424.63,-48.4 439.55,-34.14 448.9,-25.19"/>
<polygon fill="midnightblue" stroke="midnightblue" points="409.57,-57.96 404.75,-67.4 414.4,-63.02 409.57,-57.96"/>
</g>
</g>
</svg>
