<?xml version="1.0" encoding="UTF-8" standalone="no"?>
<!DOCTYPE svg PUBLIC "-//W3C//DTD SVG 1.1//EN"
 "http://www.w3.org/Graphics/SVG/1.1/DTD/svg11.dtd">
<!-- Generated by graphviz version 2.43.0 (0)
 -->
<!-- Title: include/Lists/MLCL_DoubleLinkedList.h Pages: 1 -->
<svg width="187pt" height="151pt"
 viewBox="0.00 0.00 186.50 151.00" xmlns="http://www.w3.org/2000/svg" xmlns:xlink="http://www.w3.org/1999/xlink">
<g id="graph0" class="graph" transform="scale(1 1) rotate(0) translate(4 147)">
<title>include/Lists/MLCL_DoubleLinkedList.h</title>
<!-- Node1 -->
<g id="node1" class="node">
<title>Node1</title>
<g id="a_node1"><a xlink:title=" ">
<polygon fill="#bfbfbf" stroke="black" points="3.5,-112.5 3.5,-142.5 117.5,-142.5 117.5,-112.5 3.5,-112.5"/>
<text text-anchor="start" x="11.5" y="-130.5" font-family="Helvetica,sans-Serif" font-size="10.00">include/Lists/MLCL</text>
<text text-anchor="middle" x="60.5" y="-119.5" font-family="Helvetica,sans-Serif" font-size="10.00">_DoubleLinkedList.h</text>
</a>
</g>
</g>
<!-- Node2 -->
<g id="node2" class="node">
<title>Node2</title>
<g id="a_node2"><a xlink:title=" ">
<polygon fill="none" stroke="#bfbfbf" points="0,-0.5 0,-19.5 53,-19.5 53,-0.5 0,-0.5"/>
<text text-anchor="middle" x="26.5" y="-7.5" font-family="Helvetica,sans-Serif" font-size="10.00">stdlib.h</text>
</a>
</g>
</g>
<!-- Node1&#45;&gt;Node2 -->
<g id="edge1" class="edge">
<title>Node1&#45;&gt;Node2</title>
<path fill="none" stroke="midnightblue" d="M50.03,-112.28C43.48,-102.57 35.55,-89.14 31.5,-76 26.86,-60.94 25.79,-43.04 25.77,-29.84"/>
<polygon fill="midnightblue" stroke="midnightblue" points="29.28,-29.7 25.97,-19.64 22.28,-29.57 29.28,-29.7"/>
</g>
<!-- Node3 -->
<g id="node3" class="node">
<title>Node3</title>
<g id="a_node3"><a xlink:href="_m_l_c_l___type_descriptor_8h.html" target="_top" xlink:title=" ">
<polygon fill="none" stroke="black" points="40.5,-56.5 40.5,-75.5 178.5,-75.5 178.5,-56.5 40.5,-56.5"/>
<text text-anchor="middle" x="109.5" y="-63.5" font-family="Helvetica,sans-Serif" font-size="10.00">../MLCL_TypeDescriptor.h</text>
</a>
</g>
</g>
<!-- Node1&#45;&gt;Node3 -->
<g id="edge2" class="edge">
<title>Node1&#45;&gt;Node3</title>
<path fill="none" stroke="midnightblue" d="M72.11,-112.4C79.23,-103.75 88.38,-92.64 95.85,-83.58"/>
<polygon fill="midnightblue" stroke="midnightblue" points="98.71,-85.6 102.37,-75.66 93.31,-81.15 98.71,-85.6"/>
</g>
<!-- Node3&#45;&gt;Node2 -->
<g id="edge3" class="edge">
<title>Node3&#45;&gt;Node2</title>
<path fill="none" stroke="midnightblue" d="M96.16,-56.32C83.34,-47.98 63.72,-35.21 48.56,-25.35"/>
<polygon fill="midnightblue" stroke="midnightblue" points="50.09,-22.17 39.8,-19.65 46.28,-28.04 50.09,-22.17"/>
</g>
<!-- Node4 -->
<g id="node4" class="node">
<title>Node4</title>
<g id="a_node4"><a xlink:title=" ">
<polygon fill="none" stroke="#bfbfbf" points="84.5,-0.5 84.5,-19.5 134.5,-19.5 134.5,-0.5 84.5,-0.5"/>
<text text-anchor="middle" x="109.5" y="-7.5" font-family="Helvetica,sans-Serif" font-size="10.00">stdio.h</text>
</a>
</g>
</g>
<!-- Node3&#45;&gt;Node4 -->
<g id="edge4" class="edge">
<title>Node3&#45;&gt;Node4</title>
<path fill="none" stroke="midnightblue" d="M109.5,-56.08C109.5,-49.01 109.5,-38.86 109.5,-29.99"/>
<polygon fill="midnightblue" stroke="midnightblue" points="113,-29.75 109.5,-19.75 106,-29.75 113,-29.75"/>
</g>
</g>
</svg>
