<?xml version="1.0" encoding="UTF-8" standalone="no"?>
<!DOCTYPE svg PUBLIC "-//W3C//DTD SVG 1.1//EN"
 "http://www.w3.org/Graphics/SVG/1.1/DTD/svg11.dtd">
<!-- Generated by graphviz version 2.43.0 (0)
 -->
<!-- Title: src/MLCL_basic_types.c Pages: 1 -->
<svg width="370pt" height="207pt"
 viewBox="0.00 0.00 370.20 207.00" xmlns="http://www.w3.org/2000/svg" xmlns:xlink="http://www.w3.org/1999/xlink">
<g id="graph0" class="graph" transform="scale(1 1) rotate(0) translate(4 203)">
<title>src/MLCL_basic_types.c</title>
<!-- Node1 -->
<g id="node1" class="node">
<title>Node1</title>
<g id="a_node1"><a xlink:title=" ">
<polygon fill="#bfbfbf" stroke="black" points="141.2,-179.5 141.2,-198.5 272.2,-198.5 272.2,-179.5 141.2,-179.5"/>
<text text-anchor="middle" x="206.7" y="-186.5" font-family="Helvetica,sans-Serif" font-size="10.00">src/MLCL_basic_types.c</text>
</a>
</g>
</g>
<!-- Node2 -->
<g id="node2" class="node">
<title>Node2</title>
<g id="a_node2"><a xlink:href="_m_l_c_l__basic__types_8h.html" target="_top" xlink:title=" ">
<polygon fill="none" stroke="black" points="57.2,-112.5 57.2,-142.5 178.2,-142.5 178.2,-112.5 57.2,-112.5"/>
<text text-anchor="start" x="65.2" y="-130.5" font-family="Helvetica,sans-Serif" font-size="10.00">../include/MLCL_basic</text>
<text text-anchor="middle" x="117.7" y="-119.5" font-family="Helvetica,sans-Serif" font-size="10.00">_types.h</text>
</a>
</g>
</g>
<!-- Node1&#45;&gt;Node2 -->
<g id="edge1" class="edge">
<title>Node1&#45;&gt;Node2</title>
<path fill="none" stroke="midnightblue" d="M193.95,-179.48C181.78,-171.34 163.01,-158.79 147.14,-148.18"/>
<polygon fill="midnightblue" stroke="midnightblue" points="148.94,-145.17 138.68,-142.52 145.05,-150.99 148.94,-145.17"/>
</g>
<!-- Node4 -->
<g id="node4" class="node">
<title>Node4</title>
<g id="a_node4"><a xlink:title=" ">
<polygon fill="none" stroke="#bfbfbf" points="3.2,-0.5 3.2,-19.5 56.2,-19.5 56.2,-0.5 3.2,-0.5"/>
<text text-anchor="middle" x="29.7" y="-7.5" font-family="Helvetica,sans-Serif" font-size="10.00">stdlib.h</text>
</a>
</g>
</g>
<!-- Node1&#45;&gt;Node4 -->
<g id="edge8" class="edge">
<title>Node1&#45;&gt;Node4</title>
<path fill="none" stroke="midnightblue" d="M141.1,-179.92C110.53,-173.65 74.97,-162.57 47.7,-143 18.36,-121.94 12.41,-110.5 1.7,-76 -3.56,-59.03 6.06,-40.49 15.42,-27.57"/>
<polygon fill="midnightblue" stroke="midnightblue" points="18.25,-29.63 21.68,-19.61 12.75,-25.3 18.25,-29.63"/>
</g>
<!-- Node5 -->
<g id="node5" class="node">
<title>Node5</title>
<g id="a_node5"><a xlink:title=" ">
<polygon fill="none" stroke="#bfbfbf" points="143.7,-0.5 143.7,-19.5 193.7,-19.5 193.7,-0.5 143.7,-0.5"/>
<text text-anchor="middle" x="168.7" y="-7.5" font-family="Helvetica,sans-Serif" font-size="10.00">stdio.h</text>
</a>
</g>
</g>
<!-- Node1&#45;&gt;Node5 -->
<g id="edge7" class="edge">
<title>Node1&#45;&gt;Node5</title>
<path fill="none" stroke="midnightblue" d="M204.87,-179.46C199.07,-152.43 180.99,-68.24 172.8,-30.11"/>
<polygon fill="midnightblue" stroke="midnightblue" points="176.13,-28.91 170.61,-19.87 169.28,-30.38 176.13,-28.91"/>
</g>
<!-- Node6 -->
<g id="node6" class="node">
<title>Node6</title>
<g id="a_node6"><a xlink:title=" ">
<polygon fill="none" stroke="#bfbfbf" points="234.7,-118 234.7,-137 290.7,-137 290.7,-118 234.7,-118"/>
<text text-anchor="middle" x="262.7" y="-125" font-family="Helvetica,sans-Serif" font-size="10.00">assert.h</text>
</a>
</g>
</g>
<!-- Node1&#45;&gt;Node6 -->
<g id="edge6" class="edge">
<title>Node1&#45;&gt;Node6</title>
<path fill="none" stroke="midnightblue" d="M214.73,-179.48C223.29,-170.37 237.06,-155.74 247.66,-144.48"/>
<polygon fill="midnightblue" stroke="midnightblue" points="250.39,-146.69 254.69,-137.01 245.29,-141.89 250.39,-146.69"/>
</g>
<!-- Node7 -->
<g id="node7" class="node">
<title>Node7</title>
<g id="a_node7"><a xlink:title=" ">
<polygon fill="none" stroke="#bfbfbf" points="309.2,-118 309.2,-137 362.2,-137 362.2,-118 309.2,-118"/>
<text text-anchor="middle" x="335.7" y="-125" font-family="Helvetica,sans-Serif" font-size="10.00">string.h</text>
</a>
</g>
</g>
<!-- Node1&#45;&gt;Node7 -->
<g id="edge9" class="edge">
<title>Node1&#45;&gt;Node7</title>
<path fill="none" stroke="midnightblue" d="M225.18,-179.48C246.83,-169.49 282.92,-152.85 307.93,-141.31"/>
<polygon fill="midnightblue" stroke="midnightblue" points="309.64,-144.38 317.25,-137.01 306.71,-138.02 309.64,-144.38"/>
</g>
<!-- Node3 -->
<g id="node3" class="node">
<title>Node3</title>
<g id="a_node3"><a xlink:href="_m_l_c_l___type_descriptor_8h.html" target="_top" xlink:title=" ">
<polygon fill="none" stroke="black" points="11.2,-56.5 11.2,-75.5 140.2,-75.5 140.2,-56.5 11.2,-56.5"/>
<text text-anchor="middle" x="75.7" y="-63.5" font-family="Helvetica,sans-Serif" font-size="10.00">MLCL_TypeDescriptor.h</text>
</a>
</g>
</g>
<!-- Node2&#45;&gt;Node3 -->
<g id="edge2" class="edge">
<title>Node2&#45;&gt;Node3</title>
<path fill="none" stroke="midnightblue" d="M107.75,-112.4C101.71,-103.84 93.96,-92.87 87.6,-83.86"/>
<polygon fill="midnightblue" stroke="midnightblue" points="90.44,-81.81 81.81,-75.66 84.72,-85.85 90.44,-81.81"/>
</g>
<!-- Node2&#45;&gt;Node5 -->
<g id="edge5" class="edge">
<title>Node2&#45;&gt;Node5</title>
<path fill="none" stroke="midnightblue" d="M127.66,-112.45C134.3,-102.6 142.85,-88.94 148.7,-76 155.54,-60.87 160.9,-42.75 164.34,-29.49"/>
<polygon fill="midnightblue" stroke="midnightblue" points="167.77,-30.21 166.78,-19.66 160.98,-28.53 167.77,-30.21"/>
</g>
<!-- Node3&#45;&gt;Node4 -->
<g id="edge3" class="edge">
<title>Node3&#45;&gt;Node4</title>
<path fill="none" stroke="midnightblue" d="M68.11,-56.08C61.47,-48.3 51.68,-36.8 43.64,-27.37"/>
<polygon fill="midnightblue" stroke="midnightblue" points="46.31,-25.09 37.16,-19.75 40.98,-29.63 46.31,-25.09"/>
</g>
<!-- Node3&#45;&gt;Node5 -->
<g id="edge4" class="edge">
<title>Node3&#45;&gt;Node5</title>
<path fill="none" stroke="midnightblue" d="M90.64,-56.32C105.29,-47.82 127.84,-34.73 144.94,-24.8"/>
<polygon fill="midnightblue" stroke="midnightblue" points="146.91,-27.7 153.8,-19.65 143.39,-21.65 146.91,-27.7"/>
</g>
</g>
</svg>
