<?xml version="1.0" encoding="UTF-8" standalone="no"?>
<!DOCTYPE svg PUBLIC "-//W3C//DTD SVG 1.1//EN"
 "http://www.w3.org/Graphics/SVG/1.1/DTD/svg11.dtd">
<!-- Generated by graphviz version 2.43.0 (0)
 -->
<!-- Title: src/Trees/MLCL_BKTree.c Pages: 1 -->
<svg width="751pt" height="397pt"
 viewBox="0.00 0.00 750.50 397.00" xmlns="http://www.w3.org/2000/svg" xmlns:xlink="http://www.w3.org/1999/xlink">
<g id="graph0" class="graph" transform="scale(1 1) rotate(0) translate(4 393)">
<title>src/Trees/MLCL_BKTree.c</title>
<!-- Node1 -->
<g id="node1" class="node">
<title>Node1</title>
<g id="a_node1"><a xlink:title=" ">
<polygon fill="#bfbfbf" stroke="black" points="547.5,-369.5 547.5,-388.5 682.5,-388.5 682.5,-369.5 547.5,-369.5"/>
<text text-anchor="middle" x="615" y="-376.5" font-family="Helvetica,sans-Serif" font-size="10.00">src/Trees/MLCL_BKTree.c</text>
</a>
</g>
</g>
<!-- Node2 -->
<g id="node2" class="node">
<title>Node2</title>
<g id="a_node2"><a xlink:href="_m_l_c_l___b_k_tree_8h.html" target="_top" xlink:title=" ">
<polygon fill="none" stroke="black" points="489,-302.5 489,-332.5 587,-332.5 587,-302.5 489,-302.5"/>
<text text-anchor="start" x="497" y="-320.5" font-family="Helvetica,sans-Serif" font-size="10.00">../../include/Trees</text>
<text text-anchor="middle" x="538" y="-309.5" font-family="Helvetica,sans-Serif" font-size="10.00">/MLCL_BKTree.h</text>
</a>
</g>
</g>
<!-- Node1&#45;&gt;Node2 -->
<g id="edge1" class="edge">
<title>Node1&#45;&gt;Node2</title>
<path fill="none" stroke="midnightblue" d="M603.97,-369.48C593.64,-361.49 577.8,-349.25 564.23,-338.77"/>
<polygon fill="midnightblue" stroke="midnightblue" points="566.2,-335.87 556.15,-332.52 561.92,-341.41 566.2,-335.87"/>
</g>
<!-- Node13 -->
<g id="node13" class="node">
<title>Node13</title>
<g id="a_node13"><a xlink:href="_m_l_c_l__basic__types_8h.html" target="_top" xlink:title=" ">
<polygon fill="none" stroke="black" points="565.5,-112.5 565.5,-142.5 664.5,-142.5 664.5,-112.5 565.5,-112.5"/>
<text text-anchor="start" x="573.5" y="-130.5" font-family="Helvetica,sans-Serif" font-size="10.00">../../include/MLCL</text>
<text text-anchor="middle" x="615" y="-119.5" font-family="Helvetica,sans-Serif" font-size="10.00">_basic_types.h</text>
</a>
</g>
</g>
<!-- Node1&#45;&gt;Node13 -->
<g id="edge20" class="edge">
<title>Node1&#45;&gt;Node13</title>
<path fill="none" stroke="midnightblue" d="M615,-369.41C615,-335.02 615,-206.51 615,-152.57"/>
<polygon fill="midnightblue" stroke="midnightblue" points="618.5,-152.54 615,-142.54 611.5,-152.54 618.5,-152.54"/>
</g>
<!-- Node14 -->
<g id="node14" class="node">
<title>Node14</title>
<g id="a_node14"><a xlink:href="_m_l_c_l__utils_8h.html" target="_top" xlink:title=" ">
<polygon fill="none" stroke="black" points="643.5,-302.5 643.5,-332.5 742.5,-332.5 742.5,-302.5 643.5,-302.5"/>
<text text-anchor="start" x="651.5" y="-320.5" font-family="Helvetica,sans-Serif" font-size="10.00">../../include/MLCL</text>
<text text-anchor="middle" x="693" y="-309.5" font-family="Helvetica,sans-Serif" font-size="10.00">_utils.h</text>
</a>
</g>
</g>
<!-- Node1&#45;&gt;Node14 -->
<g id="edge23" class="edge">
<title>Node1&#45;&gt;Node14</title>
<path fill="none" stroke="midnightblue" d="M626.18,-369.48C636.64,-361.49 652.68,-349.25 666.43,-338.77"/>
<polygon fill="midnightblue" stroke="midnightblue" points="668.79,-341.37 674.62,-332.52 664.54,-335.81 668.79,-341.37"/>
</g>
<!-- Node3 -->
<g id="node3" class="node">
<title>Node3</title>
<g id="a_node3"><a xlink:href="_m_l_c_l___type_descriptor_8h.html" target="_top" xlink:title=" ">
<polygon fill="none" stroke="black" points="408,-56.5 408,-75.5 546,-75.5 546,-56.5 408,-56.5"/>
<text text-anchor="middle" x="477" y="-63.5" font-family="Helvetica,sans-Serif" font-size="10.00">../MLCL_TypeDescriptor.h</text>
</a>
</g>
</g>
<!-- Node2&#45;&gt;Node3 -->
<g id="edge2" class="edge">
<title>Node2&#45;&gt;Node3</title>
<path fill="none" stroke="midnightblue" d="M537.07,-302.25C535.21,-277.06 530.18,-223.15 519,-179 510.32,-144.75 494.63,-106.55 485.07,-84.78"/>
<polygon fill="midnightblue" stroke="midnightblue" points="488.21,-83.21 480.94,-75.5 481.81,-86.06 488.21,-83.21"/>
</g>
<!-- Node6 -->
<g id="node6" class="node">
<title>Node6</title>
<g id="a_node6"><a xlink:href="_m_l_c_l___list_8h.html" target="_top" xlink:title=" ">
<polygon fill="none" stroke="black" points="275.5,-246.5 275.5,-265.5 384.5,-265.5 384.5,-246.5 275.5,-246.5"/>
<text text-anchor="middle" x="330" y="-253.5" font-family="Helvetica,sans-Serif" font-size="10.00">../Lists/MLCL_List.h</text>
</a>
</g>
</g>
<!-- Node2&#45;&gt;Node6 -->
<g id="edge5" class="edge">
<title>Node2&#45;&gt;Node6</title>
<path fill="none" stroke="midnightblue" d="M488.97,-302.47C452.62,-292.08 403.69,-278.08 369.75,-268.37"/>
<polygon fill="midnightblue" stroke="midnightblue" points="370.31,-264.89 359.74,-265.51 368.39,-271.62 370.31,-264.89"/>
</g>
<!-- Node4 -->
<g id="node4" class="node">
<title>Node4</title>
<g id="a_node4"><a xlink:title=" ">
<polygon fill="none" stroke="#bfbfbf" points="315.5,-0.5 315.5,-19.5 368.5,-19.5 368.5,-0.5 315.5,-0.5"/>
<text text-anchor="middle" x="342" y="-7.5" font-family="Helvetica,sans-Serif" font-size="10.00">stdlib.h</text>
</a>
</g>
</g>
<!-- Node3&#45;&gt;Node4 -->
<g id="edge3" class="edge">
<title>Node3&#45;&gt;Node4</title>
<path fill="none" stroke="midnightblue" d="M455.61,-56.44C433.29,-47.52 398.1,-33.44 372.79,-23.32"/>
<polygon fill="midnightblue" stroke="midnightblue" points="373.88,-19.98 363.29,-19.52 371.28,-26.48 373.88,-19.98"/>
</g>
<!-- Node5 -->
<g id="node5" class="node">
<title>Node5</title>
<g id="a_node5"><a xlink:title=" ">
<polygon fill="none" stroke="#bfbfbf" points="452,-0.5 452,-19.5 502,-19.5 502,-0.5 452,-0.5"/>
<text text-anchor="middle" x="477" y="-7.5" font-family="Helvetica,sans-Serif" font-size="10.00">stdio.h</text>
</a>
</g>
</g>
<!-- Node3&#45;&gt;Node5 -->
<g id="edge4" class="edge">
<title>Node3&#45;&gt;Node5</title>
<path fill="none" stroke="midnightblue" d="M477,-56.08C477,-49.01 477,-38.86 477,-29.99"/>
<polygon fill="midnightblue" stroke="midnightblue" points="480.5,-29.75 477,-19.75 473.5,-29.75 480.5,-29.75"/>
</g>
<!-- Node7 -->
<g id="node7" class="node">
<title>Node7</title>
<g id="a_node7"><a xlink:href="_m_l_c_l___array_list_8h.html" target="_top" xlink:title=" ">
<polygon fill="none" stroke="black" points="408.5,-185 408.5,-204 509.5,-204 509.5,-185 408.5,-185"/>
<text text-anchor="middle" x="459" y="-192" font-family="Helvetica,sans-Serif" font-size="10.00">MLCL_ArrayList.h</text>
</a>
</g>
</g>
<!-- Node6&#45;&gt;Node7 -->
<g id="edge6" class="edge">
<title>Node6&#45;&gt;Node7</title>
<path fill="none" stroke="midnightblue" d="M348.48,-246.48C370.13,-236.49 406.21,-219.85 431.23,-208.31"/>
<polygon fill="midnightblue" stroke="midnightblue" points="432.94,-211.38 440.55,-204.01 430.01,-205.02 432.94,-211.38"/>
</g>
<!-- Node8 -->
<g id="node8" class="node">
<title>Node8</title>
<g id="a_node8"><a xlink:href="_m_l_c_l___linked_list_8h.html" target="_top" xlink:title=" ">
<polygon fill="none" stroke="black" points="327,-118 327,-137 433,-137 433,-118 327,-118"/>
<text text-anchor="middle" x="380" y="-125" font-family="Helvetica,sans-Serif" font-size="10.00">MLCL_LinkedList.h</text>
</a>
</g>
</g>
<!-- Node6&#45;&gt;Node8 -->
<g id="edge8" class="edge">
<title>Node6&#45;&gt;Node8</title>
<path fill="none" stroke="midnightblue" d="M337.49,-246.29C344.55,-237.64 354.94,-223.71 361,-210 369.97,-189.7 375,-164.61 377.6,-147.67"/>
<polygon fill="midnightblue" stroke="midnightblue" points="381.12,-147.8 379.03,-137.41 374.18,-146.83 381.12,-147.8"/>
</g>
<!-- Node9 -->
<g id="node9" class="node">
<title>Node9</title>
<g id="a_node9"><a xlink:href="_m_l_c_l___circular_linked_list_8h.html" target="_top" xlink:title=" ">
<polygon fill="none" stroke="black" points="208.5,-185 208.5,-204 351.5,-204 351.5,-185 208.5,-185"/>
<text text-anchor="middle" x="280" y="-192" font-family="Helvetica,sans-Serif" font-size="10.00">MLCL_CircularLinkedList.h</text>
</a>
</g>
</g>
<!-- Node6&#45;&gt;Node9 -->
<g id="edge12" class="edge">
<title>Node6&#45;&gt;Node9</title>
<path fill="none" stroke="midnightblue" d="M322.84,-246.48C315.26,-237.46 303.13,-223.02 293.71,-211.81"/>
<polygon fill="midnightblue" stroke="midnightblue" points="296.26,-209.41 287.15,-204.01 290.9,-213.92 296.26,-209.41"/>
</g>
<!-- Node11 -->
<g id="node11" class="node">
<title>Node11</title>
<g id="a_node11"><a xlink:href="_m_l_c_l___double_linked_list_8h.html" target="_top" xlink:title=" ">
<polygon fill="none" stroke="black" points="95,-118 95,-137 235,-137 235,-118 95,-118"/>
<text text-anchor="middle" x="165" y="-125" font-family="Helvetica,sans-Serif" font-size="10.00">MLCL_DoubleLinkedList.h</text>
</a>
</g>
</g>
<!-- Node6&#45;&gt;Node11 -->
<g id="edge15" class="edge">
<title>Node6&#45;&gt;Node11</title>
<path fill="none" stroke="midnightblue" d="M275.39,-246.6C249.87,-240.25 220.64,-229.19 200,-210 181.89,-193.16 172.73,-165.38 168.42,-147.01"/>
<polygon fill="midnightblue" stroke="midnightblue" points="171.84,-146.27 166.36,-137.2 164.99,-147.71 171.84,-146.27"/>
</g>
<!-- Node12 -->
<g id="node12" class="node">
<title>Node12</title>
<g id="a_node12"><a xlink:href="_m_l_c_l___circular_double_linked_list_8h.html" target="_top" xlink:title=" ">
<polygon fill="none" stroke="black" points="0,-179.5 0,-209.5 152,-209.5 152,-179.5 0,-179.5"/>
<text text-anchor="start" x="8" y="-197.5" font-family="Helvetica,sans-Serif" font-size="10.00">MLCL_CircularDoubleLinked</text>
<text text-anchor="middle" x="76" y="-186.5" font-family="Helvetica,sans-Serif" font-size="10.00">List.h</text>
</a>
</g>
</g>
<!-- Node6&#45;&gt;Node12 -->
<g id="edge18" class="edge">
<title>Node6&#45;&gt;Node12</title>
<path fill="none" stroke="midnightblue" d="M293.61,-246.48C255.19,-237.48 193.69,-223.07 145.85,-211.86"/>
<polygon fill="midnightblue" stroke="midnightblue" points="146.4,-208.4 135.86,-209.52 144.8,-215.21 146.4,-208.4"/>
</g>
<!-- Node7&#45;&gt;Node3 -->
<g id="edge7" class="edge">
<title>Node7&#45;&gt;Node3</title>
<path fill="none" stroke="midnightblue" d="M460.24,-184.81C463.13,-164.49 470.38,-113.55 474.33,-85.78"/>
<polygon fill="midnightblue" stroke="midnightblue" points="477.81,-86.15 475.75,-75.76 470.88,-85.16 477.81,-86.15"/>
</g>
<!-- Node8&#45;&gt;Node3 -->
<g id="edge9" class="edge">
<title>Node8&#45;&gt;Node3</title>
<path fill="none" stroke="midnightblue" d="M393.9,-117.98C409.67,-108.3 435.64,-92.37 454.35,-80.89"/>
<polygon fill="midnightblue" stroke="midnightblue" points="456.43,-83.72 463.13,-75.51 452.77,-77.75 456.43,-83.72"/>
</g>
<!-- Node8&#45;&gt;Node4 -->
<g id="edge10" class="edge">
<title>Node8&#45;&gt;Node4</title>
<path fill="none" stroke="midnightblue" d="M377.14,-117.82C370.98,-99.09 356.33,-54.55 348.02,-29.29"/>
<polygon fill="midnightblue" stroke="midnightblue" points="351.34,-28.19 344.89,-19.78 344.69,-30.37 351.34,-28.19"/>
</g>
<!-- Node8&#45;&gt;Node5 -->
<g id="edge11" class="edge">
<title>Node8&#45;&gt;Node5</title>
<path fill="none" stroke="midnightblue" d="M380.26,-117.76C381.11,-103.44 384.63,-74.69 399,-56 410.13,-41.53 427.33,-30.9 442.75,-23.61"/>
<polygon fill="midnightblue" stroke="midnightblue" points="444.32,-26.74 452.05,-19.5 441.49,-20.34 444.32,-26.74"/>
</g>
<!-- Node9&#45;&gt;Node8 -->
<g id="edge13" class="edge">
<title>Node9&#45;&gt;Node8</title>
<path fill="none" stroke="midnightblue" d="M293.49,-184.73C310.05,-173.96 338.38,-155.55 358.09,-142.74"/>
<polygon fill="midnightblue" stroke="midnightblue" points="360.25,-145.51 366.73,-137.13 356.44,-139.64 360.25,-145.51"/>
</g>
<!-- Node10 -->
<g id="node10" class="node">
<title>Node10</title>
<g id="a_node10"><a xlink:title=" ">
<polygon fill="none" stroke="#bfbfbf" points="253,-118 253,-137 309,-137 309,-118 253,-118"/>
<text text-anchor="middle" x="281" y="-125" font-family="Helvetica,sans-Serif" font-size="10.00">assert.h</text>
</a>
</g>
</g>
<!-- Node9&#45;&gt;Node10 -->
<g id="edge14" class="edge">
<title>Node9&#45;&gt;Node10</title>
<path fill="none" stroke="midnightblue" d="M280.13,-184.73C280.28,-175.18 280.52,-159.62 280.71,-147.28"/>
<polygon fill="midnightblue" stroke="midnightblue" points="284.21,-147.18 280.87,-137.13 277.21,-147.07 284.21,-147.18"/>
</g>
<!-- Node11&#45;&gt;Node3 -->
<g id="edge17" class="edge">
<title>Node11&#45;&gt;Node3</title>
<path fill="none" stroke="midnightblue" d="M209.7,-117.98C265.77,-107.28 361.86,-88.96 422.27,-77.44"/>
<polygon fill="midnightblue" stroke="midnightblue" points="423.21,-80.82 432.38,-75.51 421.9,-73.94 423.21,-80.82"/>
</g>
<!-- Node11&#45;&gt;Node4 -->
<g id="edge16" class="edge">
<title>Node11&#45;&gt;Node4</title>
<path fill="none" stroke="midnightblue" d="M178.3,-117.82C208.54,-98.09 282.69,-49.7 319.92,-25.41"/>
<polygon fill="midnightblue" stroke="midnightblue" points="322.08,-28.18 328.54,-19.78 318.25,-22.32 322.08,-28.18"/>
</g>
<!-- Node12&#45;&gt;Node11 -->
<g id="edge19" class="edge">
<title>Node12&#45;&gt;Node11</title>
<path fill="none" stroke="midnightblue" d="M95.31,-179.4C109.96,-168.7 130.04,-154.03 144.88,-143.19"/>
<polygon fill="midnightblue" stroke="midnightblue" points="147.34,-145.73 153.35,-137.01 143.21,-140.08 147.34,-145.73"/>
</g>
<!-- Node13&#45;&gt;Node3 -->
<g id="edge21" class="edge">
<title>Node13&#45;&gt;Node3</title>
<path fill="none" stroke="midnightblue" d="M582.3,-112.4C559.25,-102.46 528.64,-89.26 506.37,-79.66"/>
<polygon fill="midnightblue" stroke="midnightblue" points="507.65,-76.4 497.08,-75.66 504.88,-82.83 507.65,-76.4"/>
</g>
<!-- Node13&#45;&gt;Node5 -->
<g id="edge22" class="edge">
<title>Node13&#45;&gt;Node5</title>
<path fill="none" stroke="midnightblue" d="M605.17,-112.26C594.18,-97.06 575.25,-72.87 555,-56 539.78,-43.32 520.52,-32.17 504.94,-24.14"/>
<polygon fill="midnightblue" stroke="midnightblue" points="506.3,-20.91 495.79,-19.56 503.17,-27.17 506.3,-20.91"/>
</g>
</g>
</svg>
