<?xml version="1.0" encoding="UTF-8" standalone="no"?>
<!DOCTYPE svg PUBLIC "-//W3C//DTD SVG 1.1//EN"
 "http://www.w3.org/Graphics/SVG/1.1/DTD/svg11.dtd">
<!-- Generated by graphviz version 2.43.0 (0)
 -->
<!-- Title: include/_Tests Pages: 1 -->
<svg width="182pt" height="247pt"
 viewBox="0.00 0.00 182.00 247.00" xmlns="http://www.w3.org/2000/svg" xmlns:xlink="http://www.w3.org/1999/xlink">
<g id="graph0" class="graph" transform="scale(1 1) rotate(0) translate(4 243)">
<title>include/_Tests</title>
<g id="clust1" class="cluster">
<title>clusterdir_d44c64559bbebec7f509842c48db8b23</title>
<g id="a_clust1"><a xlink:href="dir_d44c64559bbebec7f509842c48db8b23.html" target="_top" xlink:title="include">
<polygon fill="#ddddee" stroke="black" points="8,-8 8,-231 166,-231 166,-8 8,-8"/>
<text text-anchor="middle" x="87" y="-219" font-family="Helvetica,sans-Serif" font-size="10.00">include</text>
</a>
</g>
</g>
<g id="clust2" class="cluster">
<title>clusterdir_95b8e8d8e762be9449aef13bd51def4f</title>
<g id="a_clust2"><a xlink:href="dir_95b8e8d8e762be9449aef13bd51def4f.html" target="_top">
<polygon fill="#eeeeff" stroke="black" points="16,-80 16,-204 158,-204 158,-80 16,-80"/>
</a>
</g>
</g>
<!-- dir_c22db52d98d74fab066d45cbc00ede11 -->
<g id="node1" class="node">
<title>dir_c22db52d98d74fab066d45cbc00ede11</title>
<g id="a_node1"><a xlink:href="dir_c22db52d98d74fab066d45cbc00ede11.html" target="_top" xlink:title="Tree">
<polygon fill="none" stroke="black" points="150,-52 96,-52 96,-16 150,-16 150,-52"/>
<text text-anchor="middle" x="123" y="-31.5" font-family="Helvetica,sans-Serif" font-size="10.00">Tree</text>
</a>
</g>
</g>
<!-- dir_95b8e8d8e762be9449aef13bd51def4f -->
<g id="node2" class="node">
<title>dir_95b8e8d8e762be9449aef13bd51def4f</title>
<text text-anchor="middle" x="87" y="-175.5" font-family="Helvetica,sans-Serif" font-size="10.00">_Tests</text>
</g>
<!-- dir_cb7d06971fc1e4fac1e6ee659b57074d -->
<g id="node3" class="node">
<title>dir_cb7d06971fc1e4fac1e6ee659b57074d</title>
<g id="a_node3"><a xlink:href="dir_cb7d06971fc1e4fac1e6ee659b57074d.html" target="_top" xlink:title="List">
<polygon fill="white" stroke="black" points="78,-124 24,-124 24,-88 78,-88 78,-124"/>
<text text-anchor="middle" x="51" y="-103.5" font-family="Helvetica,sans-Serif" font-size="10.00">List</text>
</a>
</g>
</g>
<!-- dir_95b8e8d8e762be9449aef13bd51def4f&#45;&gt;dir_cb7d06971fc1e4fac1e6ee659b57074d -->
<g id="edge2" class="edge">
<title>dir_95b8e8d8e762be9449aef13bd51def4f&#45;&gt;dir_cb7d06971fc1e4fac1e6ee659b57074d</title>
<path fill="none" stroke="black" d="M78.1,-159.7C74,-151.73 69.05,-142.1 64.51,-133.26"/>
<polygon fill="black" stroke="black" points="67.48,-131.4 59.8,-124.1 61.26,-134.6 67.48,-131.4"/>
<g id="a_edge2&#45;headlabel"><a xlink:href="dir_000003_000004.html" target="_top" xlink:title="5">
<text text-anchor="middle" x="71.65" y="-130.79" font-family="Helvetica,sans-Serif" font-size="10.00">5</text>
</a>
</g>
</g>
<!-- dir_12969e853f19e9ae3f26f5fa0de377b2 -->
<g id="node4" class="node">
<title>dir_12969e853f19e9ae3f26f5fa0de377b2</title>
<g id="a_node4"><a xlink:href="dir_12969e853f19e9ae3f26f5fa0de377b2.html" target="_top" xlink:title="Tree">
<polygon fill="white" stroke="black" points="150,-124 96,-124 96,-88 150,-88 150,-124"/>
<text text-anchor="middle" x="123" y="-103.5" font-family="Helvetica,sans-Serif" font-size="10.00">Tree</text>
</a>
</g>
</g>
<!-- dir_95b8e8d8e762be9449aef13bd51def4f&#45;&gt;dir_12969e853f19e9ae3f26f5fa0de377b2 -->
<g id="edge1" class="edge">
<title>dir_95b8e8d8e762be9449aef13bd51def4f&#45;&gt;dir_12969e853f19e9ae3f26f5fa0de377b2</title>
<path fill="none" stroke="black" d="M95.9,-159.7C100,-151.73 104.95,-142.1 109.49,-133.26"/>
<polygon fill="black" stroke="black" points="112.74,-134.6 114.2,-124.1 106.52,-131.4 112.74,-134.6"/>
<g id="a_edge1&#45;headlabel"><a xlink:href="dir_000003_000005.html" target="_top" xlink:title="2">
<text text-anchor="middle" x="113.62" y="-136.59" font-family="Helvetica,sans-Serif" font-size="10.00">2</text>
</a>
</g>
</g>
<!-- dir_12969e853f19e9ae3f26f5fa0de377b2&#45;&gt;dir_c22db52d98d74fab066d45cbc00ede11 -->
<g id="edge3" class="edge">
<title>dir_12969e853f19e9ae3f26f5fa0de377b2&#45;&gt;dir_c22db52d98d74fab066d45cbc00ede11</title>
<path fill="none" stroke="black" d="M123,-87.7C123,-79.98 123,-70.71 123,-62.11"/>
<polygon fill="black" stroke="black" points="126.5,-62.1 123,-52.1 119.5,-62.1 126.5,-62.1"/>
<g id="a_edge3&#45;headlabel"><a xlink:href="dir_000005_000007.html" target="_top" xlink:title="1">
<text text-anchor="middle" x="129.34" y="-63.2" font-family="Helvetica,sans-Serif" font-size="10.00">1</text>
</a>
</g>
</g>
</g>
</svg>
