<?xml version="1.0" encoding="UTF-8" standalone="no"?>
<!DOCTYPE svg PUBLIC "-//W3C//DTD SVG 1.1//EN"
 "http://www.w3.org/Graphics/SVG/1.1/DTD/svg11.dtd">
<!-- Generated by graphviz version 2.43.0 (0)
 -->
<!-- Title: include/_Tests Pages: 1 -->
<svg width="254pt" height="247pt"
 viewBox="0.00 0.00 254.00 247.00" xmlns="http://www.w3.org/2000/svg" xmlns:xlink="http://www.w3.org/1999/xlink">
<g id="graph0" class="graph" transform="scale(1 1) rotate(0) translate(4 243)">
<title>include/_Tests</title>
<g id="clust1" class="cluster">
<title>clusterdir_d44c64559bbebec7f509842c48db8b23</title>
<g id="a_clust1"><a xlink:href="dir_d44c64559bbebec7f509842c48db8b23.html" target="_top" xlink:title="include">
<polygon fill="#ddddee" stroke="black" points="8,-8 8,-231 238,-231 238,-8 8,-8"/>
<text text-anchor="middle" x="123" y="-219" font-family="Helvetica,sans-Serif" font-size="10.00">include</text>
</a>
</g>
</g>
<g id="clust2" class="cluster">
<title>clusterdir_95b8e8d8e762be9449aef13bd51def4f</title>
<g id="a_clust2"><a xlink:href="dir_95b8e8d8e762be9449aef13bd51def4f.html" target="_top">
<polygon fill="#eeeeff" stroke="black" points="16,-80 16,-204 230,-204 230,-80 16,-80"/>
</a>
</g>
</g>
<!-- dir_f4c66b3ca8ca5a1b5d70e2f69528e83d -->
<g id="node1" class="node">
<title>dir_f4c66b3ca8ca5a1b5d70e2f69528e83d</title>
<g id="a_node1"><a xlink:href="dir_f4c66b3ca8ca5a1b5d70e2f69528e83d.html" target="_top" xlink:title="Heap">
<polygon fill="none" stroke="black" points="78,-52 24,-52 24,-16 78,-16 78,-52"/>
<text text-anchor="middle" x="51" y="-31.5" font-family="Helvetica,sans-Serif" font-size="10.00">Heap</text>
</a>
</g>
</g>
<!-- dir_c9317402502baf1d7691173b723c5823 -->
<g id="node2" class="node">
<title>dir_c9317402502baf1d7691173b723c5823</title>
<g id="a_node2"><a xlink:href="dir_c9317402502baf1d7691173b723c5823.html" target="_top" xlink:title="Trees">
<polygon fill="none" stroke="black" points="222,-52 168,-52 168,-16 222,-16 222,-52"/>
<text text-anchor="middle" x="195" y="-31.5" font-family="Helvetica,sans-Serif" font-size="10.00">Trees</text>
</a>
</g>
</g>
<!-- dir_95b8e8d8e762be9449aef13bd51def4f -->
<g id="node3" class="node">
<title>dir_95b8e8d8e762be9449aef13bd51def4f</title>
<text text-anchor="middle" x="123" y="-175.5" font-family="Helvetica,sans-Serif" font-size="10.00">_Tests</text>
</g>
<!-- dir_6cd476d63b791c5e3f6af2f959869e55 -->
<g id="node4" class="node">
<title>dir_6cd476d63b791c5e3f6af2f959869e55</title>
<g id="a_node4"><a xlink:href="dir_6cd476d63b791c5e3f6af2f959869e55.html" target="_top" xlink:title="Heap">
<polygon fill="white" stroke="black" points="78,-124 24,-124 24,-88 78,-88 78,-124"/>
<text text-anchor="middle" x="51" y="-103.5" font-family="Helvetica,sans-Serif" font-size="10.00">Heap</text>
</a>
</g>
</g>
<!-- dir_95b8e8d8e762be9449aef13bd51def4f&#45;&gt;dir_6cd476d63b791c5e3f6af2f959869e55 -->
<g id="edge2" class="edge">
<title>dir_95b8e8d8e762be9449aef13bd51def4f&#45;&gt;dir_6cd476d63b791c5e3f6af2f959869e55</title>
<path fill="none" stroke="black" d="M105.2,-159.7C96.4,-151.14 85.62,-140.66 76,-131.3"/>
<polygon fill="black" stroke="black" points="78.2,-128.57 68.59,-124.1 73.32,-133.58 78.2,-128.57"/>
<g id="a_edge2&#45;headlabel"><a xlink:href="dir_000001_000002.html" target="_top" xlink:title="1">
<text text-anchor="middle" x="82.76" y="-126.54" font-family="Helvetica,sans-Serif" font-size="10.00">1</text>
</a>
</g>
</g>
<!-- dir_9a1770a654ee9acac19b43c47ec28448 -->
<g id="node5" class="node">
<title>dir_9a1770a654ee9acac19b43c47ec28448</title>
<g id="a_node5"><a xlink:href="dir_9a1770a654ee9acac19b43c47ec28448.html" target="_top" xlink:title="Lists">
<polygon fill="white" stroke="black" points="150,-124 96,-124 96,-88 150,-88 150,-124"/>
<text text-anchor="middle" x="123" y="-103.5" font-family="Helvetica,sans-Serif" font-size="10.00">Lists</text>
</a>
</g>
</g>
<!-- dir_95b8e8d8e762be9449aef13bd51def4f&#45;&gt;dir_9a1770a654ee9acac19b43c47ec28448 -->
<g id="edge3" class="edge">
<title>dir_95b8e8d8e762be9449aef13bd51def4f&#45;&gt;dir_9a1770a654ee9acac19b43c47ec28448</title>
<path fill="none" stroke="black" d="M123,-159.7C123,-151.98 123,-142.71 123,-134.11"/>
<polygon fill="black" stroke="black" points="126.5,-134.1 123,-124.1 119.5,-134.1 126.5,-134.1"/>
<g id="a_edge3&#45;headlabel"><a xlink:href="dir_000001_000003.html" target="_top" xlink:title="6">
<text text-anchor="middle" x="129.34" y="-135.2" font-family="Helvetica,sans-Serif" font-size="10.00">6</text>
</a>
</g>
</g>
<!-- dir_5237ca8fd7e322a483eadd619285db62 -->
<g id="node6" class="node">
<title>dir_5237ca8fd7e322a483eadd619285db62</title>
<g id="a_node6"><a xlink:href="dir_5237ca8fd7e322a483eadd619285db62.html" target="_top" xlink:title="Trees">
<polygon fill="white" stroke="black" points="222,-124 168,-124 168,-88 222,-88 222,-124"/>
<text text-anchor="middle" x="195" y="-103.5" font-family="Helvetica,sans-Serif" font-size="10.00">Trees</text>
</a>
</g>
</g>
<!-- dir_95b8e8d8e762be9449aef13bd51def4f&#45;&gt;dir_5237ca8fd7e322a483eadd619285db62 -->
<g id="edge1" class="edge">
<title>dir_95b8e8d8e762be9449aef13bd51def4f&#45;&gt;dir_5237ca8fd7e322a483eadd619285db62</title>
<path fill="none" stroke="black" d="M140.8,-159.7C149.6,-151.14 160.38,-140.66 170,-131.3"/>
<polygon fill="black" stroke="black" points="172.68,-133.58 177.41,-124.1 167.8,-128.57 172.68,-133.58"/>
<g id="a_edge1&#45;headlabel"><a xlink:href="dir_000001_000004.html" target="_top" xlink:title="2">
<text text-anchor="middle" x="172.08" y="-135.63" font-family="Helvetica,sans-Serif" font-size="10.00">2</text>
</a>
</g>
</g>
<!-- dir_6cd476d63b791c5e3f6af2f959869e55&#45;&gt;dir_f4c66b3ca8ca5a1b5d70e2f69528e83d -->
<g id="edge4" class="edge">
<title>dir_6cd476d63b791c5e3f6af2f959869e55&#45;&gt;dir_f4c66b3ca8ca5a1b5d70e2f69528e83d</title>
<path fill="none" stroke="black" d="M51,-87.7C51,-79.98 51,-70.71 51,-62.11"/>
<polygon fill="black" stroke="black" points="54.5,-62.1 51,-52.1 47.5,-62.1 54.5,-62.1"/>
<g id="a_edge4&#45;headlabel"><a xlink:href="dir_000002_000005.html" target="_top" xlink:title="1">
<text text-anchor="middle" x="57.34" y="-63.2" font-family="Helvetica,sans-Serif" font-size="10.00">1</text>
</a>
</g>
</g>
<!-- dir_5237ca8fd7e322a483eadd619285db62&#45;&gt;dir_c9317402502baf1d7691173b723c5823 -->
<g id="edge5" class="edge">
<title>dir_5237ca8fd7e322a483eadd619285db62&#45;&gt;dir_c9317402502baf1d7691173b723c5823</title>
<path fill="none" stroke="black" d="M195,-87.7C195,-79.98 195,-70.71 195,-62.11"/>
<polygon fill="black" stroke="black" points="198.5,-62.1 195,-52.1 191.5,-62.1 198.5,-62.1"/>
<g id="a_edge5&#45;headlabel"><a xlink:href="dir_000004_000009.html" target="_top" xlink:title="1">
<text text-anchor="middle" x="201.34" y="-63.2" font-family="Helvetica,sans-Serif" font-size="10.00">1</text>
</a>
</g>
</g>
</g>
</svg>
