<?xml version="1.0" encoding="UTF-8" standalone="no"?>
<!DOCTYPE svg PUBLIC "-//W3C//DTD SVG 1.1//EN"
 "http://www.w3.org/Graphics/SVG/1.1/DTD/svg11.dtd">
<!-- Generated by graphviz version 2.43.0 (0)
 -->
<!-- Title: src Pages: 1 -->
<svg width="182pt" height="175pt"
 viewBox="0.00 0.00 182.00 175.00" xmlns="http://www.w3.org/2000/svg" xmlns:xlink="http://www.w3.org/1999/xlink">
<g id="graph0" class="graph" transform="scale(1 1) rotate(0) translate(4 171)">
<title>src</title>
<g id="clust1" class="cluster">
<title>clusterdir_1519ca9e8b05cccad84ed44e180bf63d</title>
<g id="a_clust1"><a xlink:href="dir_1519ca9e8b05cccad84ed44e180bf63d.html" target="_top" xlink:title="MyLittleCLibrary">
<polygon fill="#ddddee" stroke="black" points="8,-8 8,-159 166,-159 166,-8 8,-8"/>
<text text-anchor="middle" x="87" y="-147" font-family="Helvetica,sans-Serif" font-size="10.00">MyLittleCLibrary</text>
</a>
</g>
</g>
<g id="clust2" class="cluster">
<title>clusterdir_91b91e0e5b49ab3ba4e2175b36015486</title>
<g id="a_clust2"><a xlink:href="dir_91b91e0e5b49ab3ba4e2175b36015486.html" target="_top">
<polygon fill="#eeeeff" stroke="black" points="16,-80 16,-132 158,-132 158,-80 16,-80"/>
</a>
</g>
</g>
<!-- dir_e012a631de67abdda8ef04af00445ac0 -->
<g id="node1" class="node">
<title>dir_e012a631de67abdda8ef04af00445ac0</title>
<g id="a_node1"><a xlink:href="dir_e012a631de67abdda8ef04af00445ac0.html" target="_top" xlink:title="include">
<polygon fill="none" stroke="red" points="114,-52 60,-52 60,-16 114,-16 114,-52"/>
<text text-anchor="middle" x="87" y="-31.5" font-family="Helvetica,sans-Serif" font-size="10.00">include</text>
</a>
</g>
</g>
<!-- dir_91b91e0e5b49ab3ba4e2175b36015486 -->
<g id="node2" class="node">
<title>dir_91b91e0e5b49ab3ba4e2175b36015486</title>
<text text-anchor="middle" x="123" y="-103.5" font-family="Helvetica,sans-Serif" font-size="10.00">src</text>
</g>
<!-- dir_91b91e0e5b49ab3ba4e2175b36015486&#45;&gt;dir_e012a631de67abdda8ef04af00445ac0 -->
<g id="edge2" class="edge">
<title>dir_91b91e0e5b49ab3ba4e2175b36015486&#45;&gt;dir_e012a631de67abdda8ef04af00445ac0</title>
<path fill="none" stroke="black" d="M114.1,-87.7C110,-79.73 105.05,-70.1 100.51,-61.26"/>
<polygon fill="black" stroke="black" points="103.48,-59.4 95.8,-52.1 97.26,-62.6 103.48,-59.4"/>
<g id="a_edge2&#45;headlabel"><a xlink:href="dir_000008_000010.html" target="_top" xlink:title="28">
<text text-anchor="middle" x="107.65" y="-58.79" font-family="Helvetica,sans-Serif" font-size="10.00">28</text>
</a>
</g>
</g>
<!-- dir_636543e588661f76585760be83e15cbb -->
<g id="node3" class="node">
<title>dir_636543e588661f76585760be83e15cbb</title>
<g id="a_node3"><a xlink:href="dir_636543e588661f76585760be83e15cbb.html" target="_top" xlink:title="Tests">
<polygon fill="white" stroke="black" points="78,-124 24,-124 24,-88 78,-88 78,-124"/>
<text text-anchor="middle" x="51" y="-103.5" font-family="Helvetica,sans-Serif" font-size="10.00">Tests</text>
</a>
</g>
</g>
<!-- dir_636543e588661f76585760be83e15cbb&#45;&gt;dir_e012a631de67abdda8ef04af00445ac0 -->
<g id="edge1" class="edge">
<title>dir_636543e588661f76585760be83e15cbb&#45;&gt;dir_e012a631de67abdda8ef04af00445ac0</title>
<path fill="none" stroke="black" d="M59.9,-87.7C64,-79.73 68.95,-70.1 73.49,-61.26"/>
<polygon fill="black" stroke="black" points="76.74,-62.6 78.2,-52.1 70.52,-59.4 76.74,-62.6"/>
<g id="a_edge1&#45;headlabel"><a xlink:href="dir_000009_000010.html" target="_top" xlink:title="21">
<text text-anchor="middle" x="77.62" y="-64.59" font-family="Helvetica,sans-Serif" font-size="10.00">21</text>
</a>
</g>
</g>
</g>
</svg>
