<?xml version="1.0" encoding="UTF-8" standalone="no"?>
<!DOCTYPE svg PUBLIC "-//W3C//DTD SVG 1.1//EN"
 "http://www.w3.org/Graphics/SVG/1.1/DTD/svg11.dtd">
<!-- Generated by graphviz version 2.43.0 (0)
 -->
<!-- Title: include Pages: 1 -->
<svg width="310pt" height="220pt"
 viewBox="0.00 0.00 310.00 220.00" xmlns="http://www.w3.org/2000/svg" xmlns:xlink="http://www.w3.org/1999/xlink">
<g id="graph0" class="graph" transform="scale(1 1) rotate(0) translate(4 216)">
<title>include</title>
<g id="clust1" class="cluster">
<title>clusterdir_d44c64559bbebec7f509842c48db8b23</title>
<g id="a_clust1"><a xlink:href="dir_d44c64559bbebec7f509842c48db8b23.html" target="_top">
<polygon fill="#eeeeff" stroke="black" points="8,-8 8,-204 294,-204 294,-8 8,-8"/>
</a>
</g>
</g>
<!-- dir_d44c64559bbebec7f509842c48db8b23 -->
<g id="node1" class="node">
<title>dir_d44c64559bbebec7f509842c48db8b23</title>
<text text-anchor="middle" x="259" y="-175.5" font-family="Helvetica,sans-Serif" font-size="10.00">include</text>
</g>
<!-- dir_95b8e8d8e762be9449aef13bd51def4f -->
<g id="node2" class="node">
<title>dir_95b8e8d8e762be9449aef13bd51def4f</title>
<g id="a_node2"><a xlink:href="dir_95b8e8d8e762be9449aef13bd51def4f.html" target="_top" xlink:title="_Tests">
<polygon fill="white" stroke="red" points="214,-196 160,-196 160,-160 214,-160 214,-196"/>
<text text-anchor="middle" x="187" y="-175.5" font-family="Helvetica,sans-Serif" font-size="10.00">_Tests</text>
</a>
</g>
</g>
<!-- dir_f4c66b3ca8ca5a1b5d70e2f69528e83d -->
<g id="node3" class="node">
<title>dir_f4c66b3ca8ca5a1b5d70e2f69528e83d</title>
<g id="a_node3"><a xlink:href="dir_f4c66b3ca8ca5a1b5d70e2f69528e83d.html" target="_top" xlink:title="Heap">
<polygon fill="white" stroke="black" points="214,-124 160,-124 160,-88 214,-88 214,-124"/>
<text text-anchor="middle" x="187" y="-103.5" font-family="Helvetica,sans-Serif" font-size="10.00">Heap</text>
</a>
</g>
</g>
<!-- dir_95b8e8d8e762be9449aef13bd51def4f&#45;&gt;dir_f4c66b3ca8ca5a1b5d70e2f69528e83d -->
<g id="edge2" class="edge">
<title>dir_95b8e8d8e762be9449aef13bd51def4f&#45;&gt;dir_f4c66b3ca8ca5a1b5d70e2f69528e83d</title>
<path fill="none" stroke="black" d="M187,-159.7C187,-151.98 187,-142.71 187,-134.11"/>
<polygon fill="black" stroke="black" points="190.5,-134.1 187,-124.1 183.5,-134.1 190.5,-134.1"/>
<g id="a_edge2&#45;headlabel"><a xlink:href="dir_000001_000007.html" target="_top" xlink:title="1">
<text text-anchor="middle" x="193.34" y="-135.2" font-family="Helvetica,sans-Serif" font-size="10.00">1</text>
</a>
</g>
</g>
<!-- dir_c9317402502baf1d7691173b723c5823 -->
<g id="node7" class="node">
<title>dir_c9317402502baf1d7691173b723c5823</title>
<g id="a_node7"><a xlink:href="dir_c9317402502baf1d7691173b723c5823.html" target="_top" xlink:title="Trees">
<polygon fill="white" stroke="black" points="286,-124 232,-124 232,-88 286,-88 286,-124"/>
<text text-anchor="middle" x="259" y="-103.5" font-family="Helvetica,sans-Serif" font-size="10.00">Trees</text>
</a>
</g>
</g>
<!-- dir_95b8e8d8e762be9449aef13bd51def4f&#45;&gt;dir_c9317402502baf1d7691173b723c5823 -->
<g id="edge3" class="edge">
<title>dir_95b8e8d8e762be9449aef13bd51def4f&#45;&gt;dir_c9317402502baf1d7691173b723c5823</title>
<path fill="none" stroke="black" d="M204.8,-159.7C213.6,-151.14 224.38,-140.66 234,-131.3"/>
<polygon fill="black" stroke="black" points="236.68,-133.58 241.41,-124.1 231.8,-128.57 236.68,-133.58"/>
<g id="a_edge3&#45;headlabel"><a xlink:href="dir_000001_000011.html" target="_top" xlink:title="1">
<text text-anchor="middle" x="236.08" y="-135.63" font-family="Helvetica,sans-Serif" font-size="10.00">1</text>
</a>
</g>
</g>
<!-- dir_29806fc413ce322725a63a32078703a5 -->
<g id="node4" class="node">
<title>dir_29806fc413ce322725a63a32078703a5</title>
<g id="a_node4"><a xlink:href="dir_29806fc413ce322725a63a32078703a5.html" target="_top" xlink:title="Lists">
<polygon fill="white" stroke="black" points="178,-52 124,-52 124,-16 178,-16 178,-52"/>
<text text-anchor="middle" x="151" y="-31.5" font-family="Helvetica,sans-Serif" font-size="10.00">Lists</text>
</a>
</g>
</g>
<!-- dir_f4c66b3ca8ca5a1b5d70e2f69528e83d&#45;&gt;dir_29806fc413ce322725a63a32078703a5 -->
<g id="edge6" class="edge">
<title>dir_f4c66b3ca8ca5a1b5d70e2f69528e83d&#45;&gt;dir_29806fc413ce322725a63a32078703a5</title>
<path fill="none" stroke="black" d="M178.1,-87.7C174,-79.73 169.05,-70.1 164.51,-61.26"/>
<polygon fill="black" stroke="black" points="167.48,-59.4 159.8,-52.1 161.26,-62.6 167.48,-59.4"/>
<g id="a_edge6&#45;headlabel"><a xlink:href="dir_000007_000008.html" target="_top" xlink:title="1">
<text text-anchor="middle" x="171.65" y="-58.79" font-family="Helvetica,sans-Serif" font-size="10.00">1</text>
</a>
</g>
</g>
<!-- dir_65fb833b16a3c966966b583934172cff -->
<g id="node5" class="node">
<title>dir_65fb833b16a3c966966b583934172cff</title>
<g id="a_node5"><a xlink:href="dir_65fb833b16a3c966966b583934172cff.html" target="_top" xlink:title="Queue">
<polygon fill="white" stroke="black" points="142,-124 88,-124 88,-88 142,-88 142,-124"/>
<text text-anchor="middle" x="115" y="-103.5" font-family="Helvetica,sans-Serif" font-size="10.00">Queue</text>
</a>
</g>
</g>
<!-- dir_65fb833b16a3c966966b583934172cff&#45;&gt;dir_29806fc413ce322725a63a32078703a5 -->
<g id="edge1" class="edge">
<title>dir_65fb833b16a3c966966b583934172cff&#45;&gt;dir_29806fc413ce322725a63a32078703a5</title>
<path fill="none" stroke="black" d="M123.9,-87.7C128,-79.73 132.95,-70.1 137.49,-61.26"/>
<polygon fill="black" stroke="black" points="140.74,-62.6 142.2,-52.1 134.52,-59.4 140.74,-62.6"/>
<g id="a_edge1&#45;headlabel"><a xlink:href="dir_000009_000008.html" target="_top" xlink:title="1">
<text text-anchor="middle" x="141.62" y="-64.59" font-family="Helvetica,sans-Serif" font-size="10.00">1</text>
</a>
</g>
</g>
<!-- dir_0a2f7417c1c69ad2868f7b0d2963b00f -->
<g id="node6" class="node">
<title>dir_0a2f7417c1c69ad2868f7b0d2963b00f</title>
<g id="a_node6"><a xlink:href="dir_0a2f7417c1c69ad2868f7b0d2963b00f.html" target="_top" xlink:title="Stack">
<polygon fill="white" stroke="black" points="70,-124 16,-124 16,-88 70,-88 70,-124"/>
<text text-anchor="middle" x="43" y="-103.5" font-family="Helvetica,sans-Serif" font-size="10.00">Stack</text>
</a>
</g>
</g>
<!-- dir_0a2f7417c1c69ad2868f7b0d2963b00f&#45;&gt;dir_29806fc413ce322725a63a32078703a5 -->
<g id="edge4" class="edge">
<title>dir_0a2f7417c1c69ad2868f7b0d2963b00f&#45;&gt;dir_29806fc413ce322725a63a32078703a5</title>
<path fill="none" stroke="black" d="M69.42,-87.88C83.41,-78.81 100.78,-67.55 115.89,-57.76"/>
<polygon fill="black" stroke="black" points="117.99,-60.57 124.48,-52.19 114.18,-54.69 117.99,-60.57"/>
<g id="a_edge4&#45;headlabel"><a xlink:href="dir_000010_000008.html" target="_top" xlink:title="1">
<text text-anchor="middle" x="116.52" y="-62.4" font-family="Helvetica,sans-Serif" font-size="10.00">1</text>
</a>
</g>
</g>
<!-- dir_c9317402502baf1d7691173b723c5823&#45;&gt;dir_29806fc413ce322725a63a32078703a5 -->
<g id="edge5" class="edge">
<title>dir_c9317402502baf1d7691173b723c5823&#45;&gt;dir_29806fc413ce322725a63a32078703a5</title>
<path fill="none" stroke="black" d="M232.58,-87.88C218.59,-78.81 201.22,-67.55 186.11,-57.76"/>
<polygon fill="black" stroke="black" points="187.82,-54.69 177.52,-52.19 184.01,-60.57 187.82,-54.69"/>
<g id="a_edge5&#45;headlabel"><a xlink:href="dir_000011_000008.html" target="_top" xlink:title="1">
<text text-anchor="middle" x="192.38" y="-51.76" font-family="Helvetica,sans-Serif" font-size="10.00">1</text>
</a>
</g>
</g>
</g>
</svg>
