<?xml version="1.0" encoding="UTF-8" standalone="no"?>
<!DOCTYPE svg PUBLIC "-//W3C//DTD SVG 1.1//EN"
 "http://www.w3.org/Graphics/SVG/1.1/DTD/svg11.dtd">
<!-- Generated by graphviz version 2.43.0 (0)
 -->
<!-- Title: /home/antoine/Documents/Developpement/C/MyLittleCLibrary/src/MLCL_LinkedList.c Pages: 1 -->
<svg width="460pt" height="218pt"
 viewBox="0.00 0.00 460.00 218.00" xmlns="http://www.w3.org/2000/svg" xmlns:xlink="http://www.w3.org/1999/xlink">
<g id="graph0" class="graph" transform="scale(1 1) rotate(0) translate(4 214)">
<title>/home/antoine/Documents/Developpement/C/MyLittleCLibrary/src/MLCL_LinkedList.c</title>
<!-- Node1 -->
<g id="node1" class="node">
<title>Node1</title>
<g id="a_node1"><a xlink:title=" ">
<polygon fill="#bfbfbf" stroke="black" points="201,-168.5 201,-209.5 392,-209.5 392,-168.5 201,-168.5"/>
<text text-anchor="start" x="209" y="-197.5" font-family="Helvetica,sans-Serif" font-size="10.00">/home/antoine/Documents</text>
<text text-anchor="start" x="209" y="-186.5" font-family="Helvetica,sans-Serif" font-size="10.00">/Developpement/C/MyLittleCLibrary</text>
<text text-anchor="middle" x="296.5" y="-175.5" font-family="Helvetica,sans-Serif" font-size="10.00">/src/MLCL_LinkedList.c</text>
</a>
</g>
</g>
<!-- Node2 -->
<g id="node2" class="node">
<title>Node2</title>
<g id="a_node2"><a xlink:href="_m_l_c_l___linked_list_8h.html" target="_top" xlink:title=" ">
<polygon fill="none" stroke="black" points="91,-112.5 91,-131.5 244,-131.5 244,-112.5 91,-112.5"/>
<text text-anchor="middle" x="167.5" y="-119.5" font-family="Helvetica,sans-Serif" font-size="10.00">../include/MLCL_LinkedList.h</text>
</a>
</g>
</g>
<!-- Node1&#45;&gt;Node2 -->
<g id="edge1" class="edge">
<title>Node1&#45;&gt;Node2</title>
<path fill="none" stroke="midnightblue" d="M257.8,-168.5C237.07,-158.05 212.08,-145.46 193.65,-136.18"/>
<polygon fill="midnightblue" stroke="midnightblue" points="195.18,-133.03 184.67,-131.65 192.03,-139.28 195.18,-133.03"/>
</g>
<!-- Node3 -->
<g id="node3" class="node">
<title>Node3</title>
<g id="a_node3"><a xlink:title=" ">
<polygon fill="none" stroke="#bfbfbf" points="0,-0.5 0,-19.5 53,-19.5 53,-0.5 0,-0.5"/>
<text text-anchor="middle" x="26.5" y="-7.5" font-family="Helvetica,sans-Serif" font-size="10.00">stdlib.h</text>
</a>
</g>
</g>
<!-- Node1&#45;&gt;Node3 -->
<g id="edge10" class="edge">
<title>Node1&#45;&gt;Node3</title>
<path fill="none" stroke="midnightblue" d="M200.84,-175.32C161.81,-167.12 117.49,-153.74 81.5,-132 52.69,-114.59 43.61,-107.01 30.5,-76 24.37,-61.5 23.72,-43.55 24.41,-30.19"/>
<polygon fill="midnightblue" stroke="midnightblue" points="27.93,-30.08 25.25,-19.83 20.95,-29.51 27.93,-30.08"/>
</g>
<!-- Node5 -->
<g id="node5" class="node">
<title>Node5</title>
<g id="a_node5"><a xlink:title=" ">
<polygon fill="none" stroke="#bfbfbf" points="233.5,-0.5 233.5,-19.5 283.5,-19.5 283.5,-0.5 233.5,-0.5"/>
<text text-anchor="middle" x="258.5" y="-7.5" font-family="Helvetica,sans-Serif" font-size="10.00">stdio.h</text>
</a>
</g>
</g>
<!-- Node1&#45;&gt;Node5 -->
<g id="edge9" class="edge">
<title>Node1&#45;&gt;Node5</title>
<path fill="none" stroke="midnightblue" d="M292.29,-168.38C284.89,-133.93 269.67,-63.04 262.46,-29.44"/>
<polygon fill="midnightblue" stroke="midnightblue" points="265.86,-28.63 260.34,-19.58 259.02,-30.1 265.86,-28.63"/>
</g>
<!-- Node6 -->
<g id="node6" class="node">
<title>Node6</title>
<g id="a_node6"><a xlink:title=" ">
<polygon fill="none" stroke="#bfbfbf" points="324.5,-112.5 324.5,-131.5 380.5,-131.5 380.5,-112.5 324.5,-112.5"/>
<text text-anchor="middle" x="352.5" y="-119.5" font-family="Helvetica,sans-Serif" font-size="10.00">assert.h</text>
</a>
</g>
</g>
<!-- Node1&#45;&gt;Node6 -->
<g id="edge7" class="edge">
<title>Node1&#45;&gt;Node6</title>
<path fill="none" stroke="midnightblue" d="M313.3,-168.5C321.31,-159.2 330.78,-148.21 338.41,-139.36"/>
<polygon fill="midnightblue" stroke="midnightblue" points="341.17,-141.51 345.05,-131.65 335.87,-136.94 341.17,-141.51"/>
</g>
<!-- Node7 -->
<g id="node7" class="node">
<title>Node7</title>
<g id="a_node7"><a xlink:title=" ">
<polygon fill="none" stroke="#bfbfbf" points="399,-112.5 399,-131.5 452,-131.5 452,-112.5 399,-112.5"/>
<text text-anchor="middle" x="425.5" y="-119.5" font-family="Helvetica,sans-Serif" font-size="10.00">string.h</text>
</a>
</g>
</g>
<!-- Node1&#45;&gt;Node7 -->
<g id="edge8" class="edge">
<title>Node1&#45;&gt;Node7</title>
<path fill="none" stroke="midnightblue" d="M335.2,-168.5C355.93,-158.05 380.92,-145.46 399.35,-136.18"/>
<polygon fill="midnightblue" stroke="midnightblue" points="400.97,-139.28 408.33,-131.65 397.82,-133.03 400.97,-139.28"/>
</g>
<!-- Node2&#45;&gt;Node3 -->
<g id="edge2" class="edge">
<title>Node2&#45;&gt;Node3</title>
<path fill="none" stroke="midnightblue" d="M113.67,-112.44C89.86,-106.08 63.29,-95.06 45.5,-76 33.85,-63.52 29.31,-44.29 27.55,-29.98"/>
<polygon fill="midnightblue" stroke="midnightblue" points="31.02,-29.44 26.66,-19.78 24.04,-30.05 31.02,-29.44"/>
</g>
<!-- Node4 -->
<g id="node4" class="node">
<title>Node4</title>
<g id="a_node4"><a xlink:href="_m_l_c_l___type_descriptor_8h.html" target="_top" xlink:title=" ">
<polygon fill="none" stroke="black" points="54.5,-56.5 54.5,-75.5 230.5,-75.5 230.5,-56.5 54.5,-56.5"/>
<text text-anchor="middle" x="142.5" y="-63.5" font-family="Helvetica,sans-Serif" font-size="10.00">../include/MLCL_TypeDescriptor.h</text>
</a>
</g>
</g>
<!-- Node2&#45;&gt;Node4 -->
<g id="edge3" class="edge">
<title>Node2&#45;&gt;Node4</title>
<path fill="none" stroke="midnightblue" d="M163.37,-112.08C159.99,-104.77 155.08,-94.18 150.88,-85.1"/>
<polygon fill="midnightblue" stroke="midnightblue" points="153.93,-83.36 146.55,-75.75 147.58,-86.3 153.93,-83.36"/>
</g>
<!-- Node2&#45;&gt;Node5 -->
<g id="edge6" class="edge">
<title>Node2&#45;&gt;Node5</title>
<path fill="none" stroke="midnightblue" d="M189.43,-112.41C205.5,-105.04 226.68,-92.92 239.5,-76 249.7,-62.54 254.43,-43.73 256.62,-29.8"/>
<polygon fill="midnightblue" stroke="midnightblue" points="260.1,-30.24 257.89,-19.88 253.15,-29.35 260.1,-30.24"/>
</g>
<!-- Node4&#45;&gt;Node3 -->
<g id="edge4" class="edge">
<title>Node4&#45;&gt;Node3</title>
<path fill="none" stroke="midnightblue" d="M124.12,-56.44C105.28,-47.68 75.77,-33.94 54.12,-23.86"/>
<polygon fill="midnightblue" stroke="midnightblue" points="55.34,-20.56 44.79,-19.52 52.38,-26.91 55.34,-20.56"/>
</g>
<!-- Node4&#45;&gt;Node5 -->
<g id="edge5" class="edge">
<title>Node4&#45;&gt;Node5</title>
<path fill="none" stroke="midnightblue" d="M160.88,-56.44C179.72,-47.68 209.23,-33.94 230.88,-23.86"/>
<polygon fill="midnightblue" stroke="midnightblue" points="232.62,-26.91 240.21,-19.52 229.66,-20.56 232.62,-26.91"/>
</g>
</g>
</svg>
