<?xml version="1.0" encoding="UTF-8" standalone="no"?>
<!DOCTYPE svg PUBLIC "-//W3C//DTD SVG 1.1//EN"
 "http://www.w3.org/Graphics/SVG/1.1/DTD/svg11.dtd">
<!-- Generated by graphviz version 2.43.0 (0)
 -->
<!-- Title: /home/antoine/Documents/Developpement/C/MyLittleCLibrary/include/MLCL_CircularLinkedList.h Pages: 1 -->
<svg width="253pt" height="218pt"
 viewBox="0.00 0.00 253.36 218.00" xmlns="http://www.w3.org/2000/svg" xmlns:xlink="http://www.w3.org/1999/xlink">
<g id="graph0" class="graph" transform="scale(1 1) rotate(0) translate(4 214)">
<title>/home/antoine/Documents/Developpement/C/MyLittleCLibrary/include/MLCL_CircularLinkedList.h</title>
<!-- Node1 -->
<g id="node1" class="node">
<title>Node1</title>
<g id="a_node1"><a xlink:title=" ">
<polygon fill="#bfbfbf" stroke="black" points="54.36,-168.5 54.36,-209.5 245.36,-209.5 245.36,-168.5 54.36,-168.5"/>
<text text-anchor="start" x="62.36" y="-197.5" font-family="Helvetica,sans-Serif" font-size="10.00">/home/antoine/Documents</text>
<text text-anchor="start" x="62.36" y="-186.5" font-family="Helvetica,sans-Serif" font-size="10.00">/Developpement/C/MyLittleCLibrary</text>
<text text-anchor="middle" x="149.86" y="-175.5" font-family="Helvetica,sans-Serif" font-size="10.00">/include/MLCL_CircularLinkedList.h</text>
</a>
</g>
</g>
<!-- Node2 -->
<g id="node2" class="node">
<title>Node2</title>
<g id="a_node2"><a xlink:href="_m_l_c_l___linked_list_8h.html" target="_top" xlink:title=" ">
<polygon fill="none" stroke="black" points="47.86,-112.5 47.86,-131.5 153.86,-131.5 153.86,-112.5 47.86,-112.5"/>
<text text-anchor="middle" x="100.86" y="-119.5" font-family="Helvetica,sans-Serif" font-size="10.00">MLCL_LinkedList.h</text>
</a>
</g>
</g>
<!-- Node1&#45;&gt;Node2 -->
<g id="edge1" class="edge">
<title>Node1&#45;&gt;Node2</title>
<path fill="none" stroke="midnightblue" d="M135.16,-168.5C128.29,-159.39 120.2,-148.66 113.6,-139.91"/>
<polygon fill="midnightblue" stroke="midnightblue" points="116.2,-137.53 107.38,-131.65 110.61,-141.74 116.2,-137.53"/>
</g>
<!-- Node6 -->
<g id="node6" class="node">
<title>Node6</title>
<g id="a_node6"><a xlink:title=" ">
<polygon fill="none" stroke="#bfbfbf" points="171.86,-112.5 171.86,-131.5 227.86,-131.5 227.86,-112.5 171.86,-112.5"/>
<text text-anchor="middle" x="199.86" y="-119.5" font-family="Helvetica,sans-Serif" font-size="10.00">assert.h</text>
</a>
</g>
</g>
<!-- Node1&#45;&gt;Node6 -->
<g id="edge7" class="edge">
<title>Node1&#45;&gt;Node6</title>
<path fill="none" stroke="midnightblue" d="M164.86,-168.5C171.94,-159.3 180.29,-148.44 187.06,-139.63"/>
<polygon fill="midnightblue" stroke="midnightblue" points="189.88,-141.71 193.2,-131.65 184.33,-137.44 189.88,-141.71"/>
</g>
<!-- Node3 -->
<g id="node3" class="node">
<title>Node3</title>
<g id="a_node3"><a xlink:title=" ">
<polygon fill="none" stroke="#bfbfbf" points="27.36,-0.5 27.36,-19.5 80.36,-19.5 80.36,-0.5 27.36,-0.5"/>
<text text-anchor="middle" x="53.86" y="-7.5" font-family="Helvetica,sans-Serif" font-size="10.00">stdlib.h</text>
</a>
</g>
</g>
<!-- Node2&#45;&gt;Node3 -->
<g id="edge2" class="edge">
<title>Node2&#45;&gt;Node3</title>
<path fill="none" stroke="midnightblue" d="M58.47,-112.45C38.28,-106.02 15.95,-94.93 3.86,-76 -7.8,-57.75 12.05,-38.24 30.08,-25.41"/>
<polygon fill="midnightblue" stroke="midnightblue" points="32.27,-28.15 38.64,-19.68 28.38,-22.33 32.27,-28.15"/>
</g>
<!-- Node4 -->
<g id="node4" class="node">
<title>Node4</title>
<g id="a_node4"><a xlink:href="_m_l_c_l___type_descriptor_8h.html" target="_top" xlink:title=" ">
<polygon fill="none" stroke="black" points="12.86,-56.5 12.86,-75.5 188.86,-75.5 188.86,-56.5 12.86,-56.5"/>
<text text-anchor="middle" x="100.86" y="-63.5" font-family="Helvetica,sans-Serif" font-size="10.00">../include/MLCL_TypeDescriptor.h</text>
</a>
</g>
</g>
<!-- Node2&#45;&gt;Node4 -->
<g id="edge3" class="edge">
<title>Node2&#45;&gt;Node4</title>
<path fill="none" stroke="midnightblue" d="M100.86,-112.08C100.86,-105.01 100.86,-94.86 100.86,-85.99"/>
<polygon fill="midnightblue" stroke="midnightblue" points="104.36,-85.75 100.86,-75.75 97.36,-85.75 104.36,-85.75"/>
</g>
<!-- Node5 -->
<g id="node5" class="node">
<title>Node5</title>
<g id="a_node5"><a xlink:title=" ">
<polygon fill="none" stroke="#bfbfbf" points="121.86,-0.5 121.86,-19.5 171.86,-19.5 171.86,-0.5 121.86,-0.5"/>
<text text-anchor="middle" x="146.86" y="-7.5" font-family="Helvetica,sans-Serif" font-size="10.00">stdio.h</text>
</a>
</g>
</g>
<!-- Node2&#45;&gt;Node5 -->
<g id="edge6" class="edge">
<title>Node2&#45;&gt;Node5</title>
<path fill="none" stroke="midnightblue" d="M143.25,-112.45C163.44,-106.02 185.77,-94.93 197.86,-76 209.6,-57.61 189.38,-38.13 171.04,-25.34"/>
<polygon fill="midnightblue" stroke="midnightblue" points="172.62,-22.19 162.33,-19.64 168.78,-28.04 172.62,-22.19"/>
</g>
<!-- Node4&#45;&gt;Node3 -->
<g id="edge4" class="edge">
<title>Node4&#45;&gt;Node3</title>
<path fill="none" stroke="midnightblue" d="M93.1,-56.08C86.32,-48.3 76.31,-36.8 68.1,-27.37"/>
<polygon fill="midnightblue" stroke="midnightblue" points="70.68,-25 61.47,-19.75 65.4,-29.59 70.68,-25"/>
</g>
<!-- Node4&#45;&gt;Node5 -->
<g id="edge5" class="edge">
<title>Node4&#45;&gt;Node5</title>
<path fill="none" stroke="midnightblue" d="M108.45,-56.08C115.09,-48.3 124.88,-36.8 132.92,-27.37"/>
<polygon fill="midnightblue" stroke="midnightblue" points="135.58,-29.63 139.4,-19.75 130.25,-25.09 135.58,-29.63"/>
</g>
</g>
</svg>
