<?xml version="1.0" encoding="UTF-8" standalone="no"?>
<!DOCTYPE svg PUBLIC "-//W3C//DTD SVG 1.1//EN"
 "http://www.w3.org/Graphics/SVG/1.1/DTD/svg11.dtd">
<!-- Generated by graphviz version 2.43.0 (0)
 -->
<!-- Title: /home/antoine/Documents/Developpement/C/MyLittleCLibrary/MLCL.h Pages: 1 -->
<svg width="1405pt" height="307pt"
 viewBox="0.00 0.00 1404.50 307.00" xmlns="http://www.w3.org/2000/svg" xmlns:xlink="http://www.w3.org/1999/xlink">
<g id="graph0" class="graph" transform="scale(1 1) rotate(0) translate(4 303)">
<title>/home/antoine/Documents/Developpement/C/MyLittleCLibrary/MLCL.h</title>
<!-- Node1 -->
<g id="node1" class="node">
<title>Node1</title>
<g id="a_node1"><a xlink:title=" ">
<polygon fill="#bfbfbf" stroke="black" points="456,-257.5 456,-298.5 647,-298.5 647,-257.5 456,-257.5"/>
<text text-anchor="start" x="464" y="-286.5" font-family="Helvetica,sans-Serif" font-size="10.00">/home/antoine/Documents</text>
<text text-anchor="start" x="464" y="-275.5" font-family="Helvetica,sans-Serif" font-size="10.00">/Developpement/C/MyLittleCLibrary</text>
<text text-anchor="middle" x="551.5" y="-264.5" font-family="Helvetica,sans-Serif" font-size="10.00">/MLCL.h</text>
</a>
</g>
</g>
<!-- Node2 -->
<g id="node2" class="node">
<title>Node2</title>
<g id="a_node2"><a xlink:href="_m_l_c_l___type_descriptor_8h.html" target="_top" xlink:title=" ">
<polygon fill="none" stroke="black" points="203,-62 203,-81 370,-81 370,-62 203,-62"/>
<text text-anchor="middle" x="286.5" y="-69" font-family="Helvetica,sans-Serif" font-size="10.00">include/MLCL_TypeDescriptor.h</text>
</a>
</g>
</g>
<!-- Node1&#45;&gt;Node2 -->
<g id="edge1" class="edge">
<title>Node1&#45;&gt;Node2</title>
<path fill="none" stroke="midnightblue" d="M537.24,-257.24C507.6,-216.22 441.82,-125.42 438.5,-123 411.43,-103.3 376.21,-90.96 346.49,-83.41"/>
<polygon fill="midnightblue" stroke="midnightblue" points="347.18,-79.98 336.64,-81.03 345.53,-86.78 347.18,-79.98"/>
</g>
<!-- Node5 -->
<g id="node5" class="node">
<title>Node5</title>
<g id="a_node5"><a xlink:href="_m_l_c_l__basic__types_8h.html" target="_top" xlink:title=" ">
<polygon fill="none" stroke="black" points="81.5,-123.5 81.5,-153.5 193.5,-153.5 193.5,-123.5 81.5,-123.5"/>
<text text-anchor="start" x="89.5" y="-141.5" font-family="Helvetica,sans-Serif" font-size="10.00">include/MLCL_basic</text>
<text text-anchor="middle" x="137.5" y="-130.5" font-family="Helvetica,sans-Serif" font-size="10.00">_types.h</text>
</a>
</g>
</g>
<!-- Node1&#45;&gt;Node5 -->
<g id="edge4" class="edge">
<title>Node1&#45;&gt;Node5</title>
<path fill="none" stroke="midnightblue" d="M455.92,-269.3C396.21,-262.02 318.73,-247.96 254.5,-221 218.92,-206.07 183.3,-179.11 160.87,-160.3"/>
<polygon fill="midnightblue" stroke="midnightblue" points="163.11,-157.61 153.23,-153.78 158.56,-162.93 163.11,-157.61"/>
</g>
<!-- Node6 -->
<g id="node6" class="node">
<title>Node6</title>
<g id="a_node6"><a xlink:href="_m_l_c_l___linked_list_8h.html" target="_top" xlink:title=" ">
<polygon fill="none" stroke="black" points="211.5,-129 211.5,-148 355.5,-148 355.5,-129 211.5,-129"/>
<text text-anchor="middle" x="283.5" y="-136" font-family="Helvetica,sans-Serif" font-size="10.00">include/MLCL_LinkedList.h</text>
</a>
</g>
</g>
<!-- Node1&#45;&gt;Node6 -->
<g id="edge7" class="edge">
<title>Node1&#45;&gt;Node6</title>
<path fill="none" stroke="midnightblue" d="M455.93,-271.08C382.41,-264.3 289.46,-250.1 265.5,-221 250.58,-202.88 261.75,-175.05 271.97,-157.06"/>
<polygon fill="midnightblue" stroke="midnightblue" points="275.15,-158.57 277.37,-148.21 269.18,-154.92 275.15,-158.57"/>
</g>
<!-- Node7 -->
<g id="node7" class="node">
<title>Node7</title>
<g id="a_node7"><a xlink:href="_m_l_c_l___circular_linked_list_8h.html" target="_top" xlink:title=" ">
<polygon fill="none" stroke="black" points="275,-190.5 275,-220.5 430,-220.5 430,-190.5 275,-190.5"/>
<text text-anchor="start" x="283" y="-208.5" font-family="Helvetica,sans-Serif" font-size="10.00">include/MLCL_CircularLinked</text>
<text text-anchor="middle" x="352.5" y="-197.5" font-family="Helvetica,sans-Serif" font-size="10.00">List.h</text>
</a>
</g>
</g>
<!-- Node1&#45;&gt;Node7 -->
<g id="edge11" class="edge">
<title>Node1&#45;&gt;Node7</title>
<path fill="none" stroke="midnightblue" d="M496.33,-257.46C466.8,-246.99 430.72,-234.21 402.09,-224.07"/>
<polygon fill="midnightblue" stroke="midnightblue" points="402.89,-220.64 392.29,-220.6 400.55,-227.24 402.89,-220.64"/>
</g>
<!-- Node9 -->
<g id="node9" class="node">
<title>Node9</title>
<g id="a_node9"><a xlink:href="_m_l_c_l___double_linked_list_8h.html" target="_top" xlink:title=" ">
<polygon fill="none" stroke="black" points="485.5,-123.5 485.5,-153.5 637.5,-153.5 637.5,-123.5 485.5,-123.5"/>
<text text-anchor="start" x="493.5" y="-141.5" font-family="Helvetica,sans-Serif" font-size="10.00">include/MLCL_DoubleLinked</text>
<text text-anchor="middle" x="561.5" y="-130.5" font-family="Helvetica,sans-Serif" font-size="10.00">List.h</text>
</a>
</g>
</g>
<!-- Node1&#45;&gt;Node9 -->
<g id="edge14" class="edge">
<title>Node1&#45;&gt;Node9</title>
<path fill="none" stroke="midnightblue" d="M535.19,-257.37C522.64,-239.77 508.8,-213.24 517.5,-190 521.52,-179.27 528.96,-169.32 536.59,-161.14"/>
<polygon fill="midnightblue" stroke="midnightblue" points="539.27,-163.41 543.87,-153.87 534.32,-158.46 539.27,-163.41"/>
</g>
<!-- Node10 -->
<g id="node10" class="node">
<title>Node10</title>
<g id="a_node10"><a xlink:href="_m_l_c_l___circular_double_linked_list_8h.html" target="_top" xlink:title=" ">
<polygon fill="none" stroke="black" points="526.5,-190.5 526.5,-220.5 684.5,-220.5 684.5,-190.5 526.5,-190.5"/>
<text text-anchor="start" x="534.5" y="-208.5" font-family="Helvetica,sans-Serif" font-size="10.00">include/MLCL_CircularDouble</text>
<text text-anchor="middle" x="605.5" y="-197.5" font-family="Helvetica,sans-Serif" font-size="10.00">LinkedList.h</text>
</a>
</g>
</g>
<!-- Node1&#45;&gt;Node10 -->
<g id="edge17" class="edge">
<title>Node1&#45;&gt;Node10</title>
<path fill="none" stroke="midnightblue" d="M566.54,-257.36C573.33,-248.5 581.38,-238 588.39,-228.84"/>
<polygon fill="midnightblue" stroke="midnightblue" points="591.17,-230.96 594.48,-220.89 585.62,-226.7 591.17,-230.96"/>
</g>
<!-- Node11 -->
<g id="node11" class="node">
<title>Node11</title>
<g id="a_node11"><a xlink:href="_m_l_c_l__all__tests_8h.html" target="_top" xlink:title=" ">
<polygon fill="none" stroke="black" points="858,-190.5 858,-220.5 967,-220.5 967,-190.5 858,-190.5"/>
<text text-anchor="start" x="866" y="-208.5" font-family="Helvetica,sans-Serif" font-size="10.00">include/Tests/MLCL</text>
<text text-anchor="middle" x="912.5" y="-197.5" font-family="Helvetica,sans-Serif" font-size="10.00">_all_tests.h</text>
</a>
</g>
</g>
<!-- Node1&#45;&gt;Node11 -->
<g id="edge19" class="edge">
<title>Node1&#45;&gt;Node11</title>
<path fill="none" stroke="midnightblue" d="M647.29,-258.29C710.61,-245.93 791.92,-230.05 847.72,-219.15"/>
<polygon fill="midnightblue" stroke="midnightblue" points="848.68,-222.53 857.83,-217.18 847.34,-215.66 848.68,-222.53"/>
</g>
<!-- Node12 -->
<g id="node12" class="node">
<title>Node12</title>
<g id="a_node12"><a xlink:href="_m_l_c_l___linked_list__test_8h.html" target="_top" xlink:title=" ">
<polygon fill="none" stroke="black" points="655.5,-129 655.5,-148 785.5,-148 785.5,-129 655.5,-129"/>
<text text-anchor="middle" x="720.5" y="-136" font-family="Helvetica,sans-Serif" font-size="10.00">MLCL_LinkedList_test.h</text>
</a>
</g>
</g>
<!-- Node1&#45;&gt;Node12 -->
<g id="edge28" class="edge">
<title>Node1&#45;&gt;Node12</title>
<path fill="none" stroke="midnightblue" d="M635.84,-257.47C656.92,-249.17 677.93,-237.46 693.5,-221 709.78,-203.78 716.26,-176.51 718.82,-158.32"/>
<polygon fill="midnightblue" stroke="midnightblue" points="722.31,-158.67 719.97,-148.34 715.35,-157.87 722.31,-158.67"/>
</g>
<!-- Node13 -->
<g id="node13" class="node">
<title>Node13</title>
<g id="a_node13"><a xlink:href="_m_l_c_l___type_descriptor__test_8h.html" target="_top" xlink:title=" ">
<polygon fill="none" stroke="black" points="804,-123.5 804,-153.5 925,-153.5 925,-123.5 804,-123.5"/>
<text text-anchor="start" x="812" y="-141.5" font-family="Helvetica,sans-Serif" font-size="10.00">MLCL_TypeDescriptor</text>
<text text-anchor="middle" x="864.5" y="-130.5" font-family="Helvetica,sans-Serif" font-size="10.00">_test.h</text>
</a>
</g>
</g>
<!-- Node1&#45;&gt;Node13 -->
<g id="edge27" class="edge">
<title>Node1&#45;&gt;Node13</title>
<path fill="none" stroke="midnightblue" d="M617.96,-257.39C648.46,-247.65 684.81,-234.97 716.5,-221 758.21,-202.61 803.83,-176.51 833.23,-158.84"/>
<polygon fill="midnightblue" stroke="midnightblue" points="835.07,-161.82 841.82,-153.64 831.45,-155.83 835.07,-161.82"/>
</g>
<!-- Node14 -->
<g id="node14" class="node">
<title>Node14</title>
<g id="a_node14"><a xlink:href="_m_l_c_l___circular_linked_list__test_8h.html" target="_top" xlink:title=" ">
<polygon fill="none" stroke="black" points="1092.5,-123.5 1092.5,-153.5 1226.5,-153.5 1226.5,-123.5 1092.5,-123.5"/>
<text text-anchor="start" x="1100.5" y="-141.5" font-family="Helvetica,sans-Serif" font-size="10.00">MLCL_CircularLinkedList</text>
<text text-anchor="middle" x="1159.5" y="-130.5" font-family="Helvetica,sans-Serif" font-size="10.00">_test.h</text>
</a>
</g>
</g>
<!-- Node1&#45;&gt;Node14 -->
<g id="edge29" class="edge">
<title>Node1&#45;&gt;Node14</title>
<path fill="none" stroke="midnightblue" d="M647.37,-272.16C734.35,-265.93 865.42,-251.96 975.5,-221 1029.84,-205.72 1088.88,-177.26 1125.04,-158.35"/>
<polygon fill="midnightblue" stroke="midnightblue" points="1126.96,-161.29 1134.17,-153.53 1123.69,-155.11 1126.96,-161.29"/>
</g>
<!-- Node16 -->
<g id="node16" class="node">
<title>Node16</title>
<g id="a_node16"><a xlink:href="_m_l_c_l___circular_double_linked_list__test_8h.html" target="_top" xlink:title=" ">
<polygon fill="none" stroke="black" points="1244.5,-123.5 1244.5,-153.5 1396.5,-153.5 1396.5,-123.5 1244.5,-123.5"/>
<text text-anchor="start" x="1252.5" y="-141.5" font-family="Helvetica,sans-Serif" font-size="10.00">MLCL_CircularDoubleLinked</text>
<text text-anchor="middle" x="1320.5" y="-130.5" font-family="Helvetica,sans-Serif" font-size="10.00">List_test.h</text>
</a>
</g>
</g>
<!-- Node1&#45;&gt;Node16 -->
<g id="edge30" class="edge">
<title>Node1&#45;&gt;Node16</title>
<path fill="none" stroke="midnightblue" d="M647.37,-270.32C744.76,-262.48 899.61,-247.12 1031.5,-221 1115.85,-204.29 1211.49,-175.28 1268.85,-156.75"/>
<polygon fill="midnightblue" stroke="midnightblue" points="1269.98,-160.07 1278.41,-153.65 1267.82,-153.41 1269.98,-160.07"/>
</g>
<!-- Node17 -->
<g id="node17" class="node">
<title>Node17</title>
<g id="a_node17"><a xlink:href="_m_l_c_l__exceptions_8h.html" target="_top" xlink:title=" ">
<polygon fill="none" stroke="black" points="0,-56.5 0,-86.5 109,-86.5 109,-56.5 0,-56.5"/>
<text text-anchor="start" x="8" y="-74.5" font-family="Helvetica,sans-Serif" font-size="10.00">include/Tests/MLCL</text>
<text text-anchor="middle" x="54.5" y="-63.5" font-family="Helvetica,sans-Serif" font-size="10.00">_exceptions.h</text>
</a>
</g>
</g>
<!-- Node1&#45;&gt;Node17 -->
<g id="edge25" class="edge">
<title>Node1&#45;&gt;Node17</title>
<path fill="none" stroke="midnightblue" d="M455.98,-270.74C383.3,-263.89 281.62,-249.77 196.5,-221 137.16,-200.94 110.23,-204 72.5,-154 60.07,-137.52 55.9,-114.15 54.64,-96.66"/>
<polygon fill="midnightblue" stroke="midnightblue" points="58.14,-96.47 54.19,-86.64 51.15,-96.79 58.14,-96.47"/>
</g>
<!-- Node3 -->
<g id="node3" class="node">
<title>Node3</title>
<g id="a_node3"><a xlink:title=" ">
<polygon fill="none" stroke="#bfbfbf" points="371,-0.5 371,-19.5 424,-19.5 424,-0.5 371,-0.5"/>
<text text-anchor="middle" x="397.5" y="-7.5" font-family="Helvetica,sans-Serif" font-size="10.00">stdlib.h</text>
</a>
</g>
</g>
<!-- Node2&#45;&gt;Node3 -->
<g id="edge2" class="edge">
<title>Node2&#45;&gt;Node3</title>
<path fill="none" stroke="midnightblue" d="M302.4,-61.98C320.78,-52.12 351.26,-35.79 372.74,-24.27"/>
<polygon fill="midnightblue" stroke="midnightblue" points="374.47,-27.32 381.63,-19.51 371.16,-21.15 374.47,-27.32"/>
</g>
<!-- Node4 -->
<g id="node4" class="node">
<title>Node4</title>
<g id="a_node4"><a xlink:title=" ">
<polygon fill="none" stroke="#bfbfbf" points="131.5,-0.5 131.5,-19.5 181.5,-19.5 181.5,-0.5 131.5,-0.5"/>
<text text-anchor="middle" x="156.5" y="-7.5" font-family="Helvetica,sans-Serif" font-size="10.00">stdio.h</text>
</a>
</g>
</g>
<!-- Node2&#45;&gt;Node4 -->
<g id="edge3" class="edge">
<title>Node2&#45;&gt;Node4</title>
<path fill="none" stroke="midnightblue" d="M267.87,-61.98C246.06,-51.99 209.7,-35.35 184.48,-23.81"/>
<polygon fill="midnightblue" stroke="midnightblue" points="185.64,-20.49 175.09,-19.51 182.73,-26.85 185.64,-20.49"/>
</g>
<!-- Node5&#45;&gt;Node2 -->
<g id="edge5" class="edge">
<title>Node5&#45;&gt;Node2</title>
<path fill="none" stroke="midnightblue" d="M169.83,-123.4C195.97,-111.99 232.45,-96.08 257.62,-85.1"/>
<polygon fill="midnightblue" stroke="midnightblue" points="259.23,-88.21 267,-81.01 256.43,-81.8 259.23,-88.21"/>
</g>
<!-- Node5&#45;&gt;Node4 -->
<g id="edge6" class="edge">
<title>Node5&#45;&gt;Node4</title>
<path fill="none" stroke="midnightblue" d="M139.61,-123.48C143.04,-100.62 149.85,-55.3 153.69,-29.71"/>
<polygon fill="midnightblue" stroke="midnightblue" points="157.16,-30.2 155.18,-19.79 150.23,-29.16 157.16,-30.2"/>
</g>
<!-- Node6&#45;&gt;Node2 -->
<g id="edge9" class="edge">
<title>Node6&#45;&gt;Node2</title>
<path fill="none" stroke="midnightblue" d="M283.9,-128.73C284.35,-119.18 285.06,-103.62 285.63,-91.28"/>
<polygon fill="midnightblue" stroke="midnightblue" points="289.14,-91.28 286.1,-81.13 282.14,-90.96 289.14,-91.28"/>
</g>
<!-- Node6&#45;&gt;Node3 -->
<g id="edge8" class="edge">
<title>Node6&#45;&gt;Node3</title>
<path fill="none" stroke="midnightblue" d="M313.07,-128.97C334.33,-121.33 362.05,-108.04 378.5,-87 391.3,-70.63 395.59,-46.74 396.97,-30.13"/>
<polygon fill="midnightblue" stroke="midnightblue" points="400.47,-30.15 397.52,-19.97 393.48,-29.77 400.47,-30.15"/>
</g>
<!-- Node6&#45;&gt;Node4 -->
<g id="edge10" class="edge">
<title>Node6&#45;&gt;Node4</title>
<path fill="none" stroke="midnightblue" d="M259.87,-128.91C240.04,-120.71 212.06,-106.68 193.5,-87 177.8,-70.36 167.51,-45.81 161.85,-29.15"/>
<polygon fill="midnightblue" stroke="midnightblue" points="165.15,-27.98 158.79,-19.51 158.48,-30.1 165.15,-27.98"/>
</g>
<!-- Node7&#45;&gt;Node6 -->
<g id="edge12" class="edge">
<title>Node7&#45;&gt;Node6</title>
<path fill="none" stroke="midnightblue" d="M337.53,-190.4C326.56,-180.06 311.66,-166.02 300.28,-155.31"/>
<polygon fill="midnightblue" stroke="midnightblue" points="302.41,-152.5 292.73,-148.19 297.61,-157.6 302.41,-152.5"/>
</g>
<!-- Node8 -->
<g id="node8" class="node">
<title>Node8</title>
<g id="a_node8"><a xlink:title=" ">
<polygon fill="none" stroke="#bfbfbf" points="373.5,-129 373.5,-148 429.5,-148 429.5,-129 373.5,-129"/>
<text text-anchor="middle" x="401.5" y="-136" font-family="Helvetica,sans-Serif" font-size="10.00">assert.h</text>
</a>
</g>
</g>
<!-- Node7&#45;&gt;Node8 -->
<g id="edge13" class="edge">
<title>Node7&#45;&gt;Node8</title>
<path fill="none" stroke="midnightblue" d="M363.13,-190.4C370.7,-180.36 380.89,-166.84 388.87,-156.25"/>
<polygon fill="midnightblue" stroke="midnightblue" points="391.72,-158.29 394.95,-148.19 386.13,-154.07 391.72,-158.29"/>
</g>
<!-- Node9&#45;&gt;Node2 -->
<g id="edge16" class="edge">
<title>Node9&#45;&gt;Node2</title>
<path fill="none" stroke="midnightblue" d="M502.17,-123.48C451.27,-111.45 378.98,-94.36 332.4,-83.35"/>
<polygon fill="midnightblue" stroke="midnightblue" points="333.12,-79.92 322.58,-81.03 331.51,-86.74 333.12,-79.92"/>
</g>
<!-- Node9&#45;&gt;Node3 -->
<g id="edge15" class="edge">
<title>Node9&#45;&gt;Node3</title>
<path fill="none" stroke="midnightblue" d="M543.32,-123.48C512.22,-99.49 449.06,-50.77 417.05,-26.08"/>
<polygon fill="midnightblue" stroke="midnightblue" points="418.95,-23.12 408.89,-19.79 414.67,-28.67 418.95,-23.12"/>
</g>
<!-- Node10&#45;&gt;Node9 -->
<g id="edge18" class="edge">
<title>Node10&#45;&gt;Node9</title>
<path fill="none" stroke="midnightblue" d="M595.95,-190.4C590.36,-182.13 583.17,-171.51 576.8,-162.1"/>
<polygon fill="midnightblue" stroke="midnightblue" points="579.53,-159.9 571.03,-153.58 573.74,-163.82 579.53,-159.9"/>
</g>
<!-- Node11&#45;&gt;Node12 -->
<g id="edge20" class="edge">
<title>Node11&#45;&gt;Node12</title>
<path fill="none" stroke="midnightblue" d="M870.84,-190.4C836.26,-178.69 787.64,-162.23 755.16,-151.23"/>
<polygon fill="midnightblue" stroke="midnightblue" points="756.22,-147.9 745.63,-148.01 753.98,-154.53 756.22,-147.9"/>
</g>
<!-- Node11&#45;&gt;Node13 -->
<g id="edge21" class="edge">
<title>Node11&#45;&gt;Node13</title>
<path fill="none" stroke="midnightblue" d="M902.08,-190.4C895.92,-182.05 887.97,-171.29 880.98,-161.81"/>
<polygon fill="midnightblue" stroke="midnightblue" points="883.65,-159.54 874.89,-153.58 878.02,-163.7 883.65,-159.54"/>
</g>
<!-- Node11&#45;&gt;Node14 -->
<g id="edge22" class="edge">
<title>Node11&#45;&gt;Node14</title>
<path fill="none" stroke="midnightblue" d="M965.79,-190.48C1004.05,-180.41 1055.76,-166.8 1096.14,-156.17"/>
<polygon fill="midnightblue" stroke="midnightblue" points="1097.1,-159.54 1105.88,-153.61 1095.32,-152.77 1097.1,-159.54"/>
</g>
<!-- Node15 -->
<g id="node15" class="node">
<title>Node15</title>
<g id="a_node15"><a xlink:href="_m_l_c_l___double_linked_list__test_8h.html" target="_top" xlink:title=" ">
<polygon fill="none" stroke="black" points="943,-123.5 943,-153.5 1074,-153.5 1074,-123.5 943,-123.5"/>
<text text-anchor="start" x="951" y="-141.5" font-family="Helvetica,sans-Serif" font-size="10.00">MLCL_DoubleLinkedList</text>
<text text-anchor="middle" x="1008.5" y="-130.5" font-family="Helvetica,sans-Serif" font-size="10.00">_test.h</text>
</a>
</g>
</g>
<!-- Node11&#45;&gt;Node15 -->
<g id="edge23" class="edge">
<title>Node11&#45;&gt;Node15</title>
<path fill="none" stroke="midnightblue" d="M933.33,-190.4C946.79,-181.28 964.5,-169.29 979.35,-159.24"/>
<polygon fill="midnightblue" stroke="midnightblue" points="981.39,-162.08 987.71,-153.58 977.47,-156.28 981.39,-162.08"/>
</g>
<!-- Node11&#45;&gt;Node16 -->
<g id="edge24" class="edge">
<title>Node11&#45;&gt;Node16</title>
<path fill="none" stroke="midnightblue" d="M967.12,-196.2C1029.3,-186.69 1134.22,-170.49 1234.09,-154.22"/>
<polygon fill="midnightblue" stroke="midnightblue" points="1234.75,-157.66 1244.05,-152.59 1233.62,-150.75 1234.75,-157.66"/>
</g>
<!-- Node17&#45;&gt;Node4 -->
<g id="edge26" class="edge">
<title>Node17&#45;&gt;Node4</title>
<path fill="none" stroke="midnightblue" d="M78.67,-56.4C95.02,-46.86 116.51,-34.32 132.77,-24.84"/>
<polygon fill="midnightblue" stroke="midnightblue" points="134.78,-27.72 141.66,-19.66 131.26,-21.67 134.78,-27.72"/>
</g>
</g>
</svg>
