<?xml version="1.0" encoding="UTF-8" standalone="no"?>
<!DOCTYPE svg PUBLIC "-//W3C//DTD SVG 1.1//EN"
 "http://www.w3.org/Graphics/SVG/1.1/DTD/svg11.dtd">
<!-- Generated by graphviz version 2.43.0 (0)
 -->
<!-- Title: /home/antoine/Documents/Developpement/C/MyLittleCLibrary/include/MLCL_LinkedList.h Pages: 1 -->
<svg width="209pt" height="162pt"
 viewBox="0.00 0.00 209.02 162.00" xmlns="http://www.w3.org/2000/svg" xmlns:xlink="http://www.w3.org/1999/xlink">
<g id="graph0" class="graph" transform="scale(1 1) rotate(0) translate(4 158)">
<title>/home/antoine/Documents/Developpement/C/MyLittleCLibrary/include/MLCL_LinkedList.h</title>
<!-- Node1 -->
<g id="node1" class="node">
<title>Node1</title>
<g id="a_node1"><a xlink:title=" ">
<polygon fill="#bfbfbf" stroke="black" points="5.01,-112.5 5.01,-153.5 196.01,-153.5 196.01,-112.5 5.01,-112.5"/>
<text text-anchor="start" x="13.01" y="-141.5" font-family="Helvetica,sans-Serif" font-size="10.00">/home/antoine/Documents</text>
<text text-anchor="start" x="13.01" y="-130.5" font-family="Helvetica,sans-Serif" font-size="10.00">/Developpement/C/MyLittleCLibrary</text>
<text text-anchor="middle" x="100.51" y="-119.5" font-family="Helvetica,sans-Serif" font-size="10.00">/include/MLCL_LinkedList.h</text>
</a>
</g>
</g>
<!-- Node2 -->
<g id="node2" class="node">
<title>Node2</title>
<g id="a_node2"><a xlink:title=" ">
<polygon fill="none" stroke="#bfbfbf" points="27.01,-0.5 27.01,-19.5 80.01,-19.5 80.01,-0.5 27.01,-0.5"/>
<text text-anchor="middle" x="53.51" y="-7.5" font-family="Helvetica,sans-Serif" font-size="10.00">stdlib.h</text>
</a>
</g>
</g>
<!-- Node1&#45;&gt;Node2 -->
<g id="edge1" class="edge">
<title>Node1&#45;&gt;Node2</title>
<path fill="none" stroke="midnightblue" d="M44.63,-112.39C28.48,-103.83 12.74,-92 3.51,-76 -7.32,-57.25 12.37,-37.83 30.14,-25.16"/>
<polygon fill="midnightblue" stroke="midnightblue" points="32.2,-27.99 38.56,-19.51 28.31,-22.17 32.2,-27.99"/>
</g>
<!-- Node3 -->
<g id="node3" class="node">
<title>Node3</title>
<g id="a_node3"><a xlink:href="_m_l_c_l___type_descriptor_8h.html" target="_top" xlink:title=" ">
<polygon fill="none" stroke="black" points="12.51,-56.5 12.51,-75.5 188.51,-75.5 188.51,-56.5 12.51,-56.5"/>
<text text-anchor="middle" x="100.51" y="-63.5" font-family="Helvetica,sans-Serif" font-size="10.00">../include/MLCL_TypeDescriptor.h</text>
</a>
</g>
</g>
<!-- Node1&#45;&gt;Node3 -->
<g id="edge2" class="edge">
<title>Node1&#45;&gt;Node3</title>
<path fill="none" stroke="midnightblue" d="M100.51,-112.5C100.51,-104.07 100.51,-94.24 100.51,-85.87"/>
<polygon fill="midnightblue" stroke="midnightblue" points="104.01,-85.65 100.51,-75.65 97.01,-85.65 104.01,-85.65"/>
</g>
<!-- Node4 -->
<g id="node4" class="node">
<title>Node4</title>
<g id="a_node4"><a xlink:title=" ">
<polygon fill="none" stroke="#bfbfbf" points="121.51,-0.5 121.51,-19.5 171.51,-19.5 171.51,-0.5 121.51,-0.5"/>
<text text-anchor="middle" x="146.51" y="-7.5" font-family="Helvetica,sans-Serif" font-size="10.00">stdio.h</text>
</a>
</g>
</g>
<!-- Node1&#45;&gt;Node4 -->
<g id="edge5" class="edge">
<title>Node1&#45;&gt;Node4</title>
<path fill="none" stroke="midnightblue" d="M156.39,-112.39C172.53,-103.83 188.27,-92 197.51,-76 208.35,-57.21 188.58,-37.94 170.58,-25.31"/>
<polygon fill="midnightblue" stroke="midnightblue" points="172.31,-22.25 162.03,-19.67 168.46,-28.1 172.31,-22.25"/>
</g>
<!-- Node3&#45;&gt;Node2 -->
<g id="edge3" class="edge">
<title>Node3&#45;&gt;Node2</title>
<path fill="none" stroke="midnightblue" d="M92.75,-56.08C85.97,-48.3 75.96,-36.8 67.75,-27.37"/>
<polygon fill="midnightblue" stroke="midnightblue" points="70.33,-25 61.12,-19.75 65.05,-29.59 70.33,-25"/>
</g>
<!-- Node3&#45;&gt;Node4 -->
<g id="edge4" class="edge">
<title>Node3&#45;&gt;Node4</title>
<path fill="none" stroke="midnightblue" d="M108.1,-56.08C114.73,-48.3 124.53,-36.8 132.56,-27.37"/>
<polygon fill="midnightblue" stroke="midnightblue" points="135.23,-29.63 139.05,-19.75 129.9,-25.09 135.23,-29.63"/>
</g>
</g>
</svg>
