<?xml version="1.0" encoding="UTF-8" standalone="no"?>
<!DOCTYPE svg PUBLIC "-//W3C//DTD SVG 1.1//EN"
 "http://www.w3.org/Graphics/SVG/1.1/DTD/svg11.dtd">
<!-- Generated by graphviz version 2.43.0 (0)
 -->
<!-- Title: /home/antoine/Documents/Developpement/C/MyLittleCLibrary/include/Tests/MLCL_exceptions.h Pages: 1 -->
<svg width="1358pt" height="206pt"
 viewBox="0.00 0.00 1358.00 206.00" xmlns="http://www.w3.org/2000/svg" xmlns:xlink="http://www.w3.org/1999/xlink">
<g id="graph0" class="graph" transform="scale(1 1) rotate(0) translate(4 202)">
<title>/home/antoine/Documents/Developpement/C/MyLittleCLibrary/include/Tests/MLCL_exceptions.h</title>
<!-- Node1 -->
<g id="node1" class="node">
<title>Node1</title>
<g id="a_node1"><a xlink:title=" ">
<polygon fill="#bfbfbf" stroke="black" points="621,-156.5 621,-197.5 812,-197.5 812,-156.5 621,-156.5"/>
<text text-anchor="start" x="629" y="-185.5" font-family="Helvetica,sans-Serif" font-size="10.00">/home/antoine/Documents</text>
<text text-anchor="start" x="629" y="-174.5" font-family="Helvetica,sans-Serif" font-size="10.00">/Developpement/C/MyLittleCLibrary</text>
<text text-anchor="middle" x="716.5" y="-163.5" font-family="Helvetica,sans-Serif" font-size="10.00">/include/Tests/MLCL_exceptions.h</text>
</a>
</g>
</g>
<!-- Node2 -->
<g id="node2" class="node">
<title>Node2</title>
<g id="a_node2"><a xlink:href="_m_l_c_l___circular_double_linked_list__test_8c.html" target="_top" xlink:title=" ">
<polygon fill="none" stroke="black" points="0,-78.5 0,-119.5 249,-119.5 249,-78.5 0,-78.5"/>
<text text-anchor="start" x="8" y="-107.5" font-family="Helvetica,sans-Serif" font-size="10.00">/home/antoine/Documents</text>
<text text-anchor="start" x="8" y="-96.5" font-family="Helvetica,sans-Serif" font-size="10.00">/Developpement/C/MyLittleCLibrary</text>
<text text-anchor="middle" x="124.5" y="-85.5" font-family="Helvetica,sans-Serif" font-size="10.00">/src/Tests/MLCL_CircularDoubleLinkedList_test.c</text>
</a>
</g>
</g>
<!-- Node1&#45;&gt;Node2 -->
<g id="edge1" class="edge">
<title>Node1&#45;&gt;Node2</title>
<path fill="none" stroke="midnightblue" d="M610.82,-163.88C517.93,-153.04 379.13,-136.37 258.5,-120 255.47,-119.59 252.4,-119.17 249.31,-118.74"/>
<polygon fill="midnightblue" stroke="midnightblue" points="610.45,-167.36 620.79,-165.05 611.26,-160.41 610.45,-167.36"/>
</g>
<!-- Node3 -->
<g id="node3" class="node">
<title>Node3</title>
<g id="a_node3"><a xlink:href="_m_l_c_l___circular_linked_list__test_8c.html" target="_top" xlink:title=" ">
<polygon fill="none" stroke="black" points="267,-78.5 267,-119.5 482,-119.5 482,-78.5 267,-78.5"/>
<text text-anchor="start" x="275" y="-107.5" font-family="Helvetica,sans-Serif" font-size="10.00">/home/antoine/Documents</text>
<text text-anchor="start" x="275" y="-96.5" font-family="Helvetica,sans-Serif" font-size="10.00">/Developpement/C/MyLittleCLibrary</text>
<text text-anchor="middle" x="374.5" y="-85.5" font-family="Helvetica,sans-Serif" font-size="10.00">/src/Tests/MLCL_CircularLinkedList_test.c</text>
</a>
</g>
</g>
<!-- Node1&#45;&gt;Node3 -->
<g id="edge2" class="edge">
<title>Node1&#45;&gt;Node3</title>
<path fill="none" stroke="midnightblue" d="M618.4,-154.2C569.16,-143.26 510,-130.11 462.28,-119.51"/>
<polygon fill="midnightblue" stroke="midnightblue" points="617.91,-157.68 628.43,-156.43 619.42,-150.84 617.91,-157.68"/>
</g>
<!-- Node4 -->
<g id="node4" class="node">
<title>Node4</title>
<g id="a_node4"><a xlink:href="_m_l_c_l___double_linked_list__test_8c.html" target="_top" xlink:title=" ">
<polygon fill="none" stroke="black" points="500.5,-78.5 500.5,-119.5 712.5,-119.5 712.5,-78.5 500.5,-78.5"/>
<text text-anchor="start" x="508.5" y="-107.5" font-family="Helvetica,sans-Serif" font-size="10.00">/home/antoine/Documents</text>
<text text-anchor="start" x="508.5" y="-96.5" font-family="Helvetica,sans-Serif" font-size="10.00">/Developpement/C/MyLittleCLibrary</text>
<text text-anchor="middle" x="606.5" y="-85.5" font-family="Helvetica,sans-Serif" font-size="10.00">/src/Tests/MLCL_DoubleLinkedList_test.c</text>
</a>
</g>
</g>
<!-- Node1&#45;&gt;Node4 -->
<g id="edge3" class="edge">
<title>Node1&#45;&gt;Node4</title>
<path fill="none" stroke="midnightblue" d="M679.79,-150.64C665.1,-140.49 648.45,-128.98 634.73,-119.51"/>
<polygon fill="midnightblue" stroke="midnightblue" points="677.96,-153.62 688.17,-156.43 681.93,-147.86 677.96,-153.62"/>
</g>
<!-- Node5 -->
<g id="node5" class="node">
<title>Node5</title>
<g id="a_node5"><a xlink:href="_m_l_c_l___linked_list__test_8c.html" target="_top" xlink:title=" ">
<polygon fill="none" stroke="black" points="731,-78.5 731,-119.5 922,-119.5 922,-78.5 731,-78.5"/>
<text text-anchor="start" x="739" y="-107.5" font-family="Helvetica,sans-Serif" font-size="10.00">/home/antoine/Documents</text>
<text text-anchor="start" x="739" y="-96.5" font-family="Helvetica,sans-Serif" font-size="10.00">/Developpement/C/MyLittleCLibrary</text>
<text text-anchor="middle" x="826.5" y="-85.5" font-family="Helvetica,sans-Serif" font-size="10.00">/src/Tests/MLCL_LinkedList_test.c</text>
</a>
</g>
</g>
<!-- Node1&#45;&gt;Node5 -->
<g id="edge4" class="edge">
<title>Node1&#45;&gt;Node5</title>
<path fill="none" stroke="midnightblue" d="M753.21,-150.64C767.9,-140.49 784.55,-128.98 798.27,-119.51"/>
<polygon fill="midnightblue" stroke="midnightblue" points="751.07,-147.86 744.83,-156.43 755.04,-153.62 751.07,-147.86"/>
</g>
<!-- Node6 -->
<g id="node6" class="node">
<title>Node6</title>
<g id="a_node6"><a xlink:href="_m_l_c_l___type_descriptor__test_8c.html" target="_top" xlink:title=" ">
<polygon fill="none" stroke="black" points="940,-78.5 940,-119.5 1141,-119.5 1141,-78.5 940,-78.5"/>
<text text-anchor="start" x="948" y="-107.5" font-family="Helvetica,sans-Serif" font-size="10.00">/home/antoine/Documents</text>
<text text-anchor="start" x="948" y="-96.5" font-family="Helvetica,sans-Serif" font-size="10.00">/Developpement/C/MyLittleCLibrary</text>
<text text-anchor="middle" x="1040.5" y="-85.5" font-family="Helvetica,sans-Serif" font-size="10.00">/src/Tests/MLCL_TypeDescriptor_test.c</text>
</a>
</g>
</g>
<!-- Node1&#45;&gt;Node6 -->
<g id="edge5" class="edge">
<title>Node1&#45;&gt;Node6</title>
<path fill="none" stroke="midnightblue" d="M809.73,-154.13C856.32,-143.2 912.23,-130.09 957.34,-119.51"/>
<polygon fill="midnightblue" stroke="midnightblue" points="808.87,-150.74 799.94,-156.43 810.47,-157.55 808.87,-150.74"/>
</g>
<!-- Node7 -->
<g id="node7" class="node">
<title>Node7</title>
<g id="a_node7"><a xlink:href="_m_l_c_l_8h.html" target="_top" xlink:title=" ">
<polygon fill="none" stroke="black" points="1159,-78.5 1159,-119.5 1350,-119.5 1350,-78.5 1159,-78.5"/>
<text text-anchor="start" x="1167" y="-107.5" font-family="Helvetica,sans-Serif" font-size="10.00">/home/antoine/Documents</text>
<text text-anchor="start" x="1167" y="-96.5" font-family="Helvetica,sans-Serif" font-size="10.00">/Developpement/C/MyLittleCLibrary</text>
<text text-anchor="middle" x="1254.5" y="-85.5" font-family="Helvetica,sans-Serif" font-size="10.00">/MLCL.h</text>
</a>
</g>
</g>
<!-- Node1&#45;&gt;Node7 -->
<g id="edge6" class="edge">
<title>Node1&#45;&gt;Node7</title>
<path fill="none" stroke="midnightblue" d="M822.41,-164.18C910.45,-153.92 1038.91,-137.91 1150.5,-120 1153.22,-119.56 1155.98,-119.11 1158.77,-118.64"/>
<polygon fill="midnightblue" stroke="midnightblue" points="821.95,-160.71 812.42,-165.34 822.76,-167.67 821.95,-160.71"/>
</g>
<!-- Node8 -->
<g id="node8" class="node">
<title>Node8</title>
<g id="a_node8"><a xlink:href="test_8c.html" target="_top" xlink:title=" ">
<polygon fill="none" stroke="black" points="1159,-0.5 1159,-41.5 1350,-41.5 1350,-0.5 1159,-0.5"/>
<text text-anchor="start" x="1167" y="-29.5" font-family="Helvetica,sans-Serif" font-size="10.00">/home/antoine/Documents</text>
<text text-anchor="start" x="1167" y="-18.5" font-family="Helvetica,sans-Serif" font-size="10.00">/Developpement/C/MyLittleCLibrary</text>
<text text-anchor="middle" x="1254.5" y="-7.5" font-family="Helvetica,sans-Serif" font-size="10.00">/test.c</text>
</a>
</g>
</g>
<!-- Node7&#45;&gt;Node8 -->
<g id="edge7" class="edge">
<title>Node7&#45;&gt;Node8</title>
<path fill="none" stroke="midnightblue" d="M1254.5,-68.3C1254.5,-59.3 1254.5,-49.65 1254.5,-41.51"/>
<polygon fill="midnightblue" stroke="midnightblue" points="1251,-68.43 1254.5,-78.43 1258,-68.43 1251,-68.43"/>
</g>
</g>
</svg>
