<?xml version="1.0" encoding="UTF-8" standalone="no"?>
<!DOCTYPE svg PUBLIC "-//W3C//DTD SVG 1.1//EN"
 "http://www.w3.org/Graphics/SVG/1.1/DTD/svg11.dtd">
<!-- Generated by graphviz version 2.43.0 (0)
 -->
<!-- Title: /home/antoine/Documents/Developpement/C/MyLittleCLibrary/include/MLCL_CircularLinkedList.h Pages: 1 -->
<svg width="641pt" height="206pt"
 viewBox="0.00 0.00 641.00 206.00" xmlns="http://www.w3.org/2000/svg" xmlns:xlink="http://www.w3.org/1999/xlink">
<g id="graph0" class="graph" transform="scale(1 1) rotate(0) translate(4 202)">
<title>/home/antoine/Documents/Developpement/C/MyLittleCLibrary/include/MLCL_CircularLinkedList.h</title>
<!-- Node1 -->
<g id="node1" class="node">
<title>Node1</title>
<g id="a_node1"><a xlink:title=" ">
<polygon fill="#bfbfbf" stroke="black" points="221,-156.5 221,-197.5 412,-197.5 412,-156.5 221,-156.5"/>
<text text-anchor="start" x="229" y="-185.5" font-family="Helvetica,sans-Serif" font-size="10.00">/home/antoine/Documents</text>
<text text-anchor="start" x="229" y="-174.5" font-family="Helvetica,sans-Serif" font-size="10.00">/Developpement/C/MyLittleCLibrary</text>
<text text-anchor="middle" x="316.5" y="-163.5" font-family="Helvetica,sans-Serif" font-size="10.00">/include/MLCL_CircularLinkedList.h</text>
</a>
</g>
</g>
<!-- Node2 -->
<g id="node2" class="node">
<title>Node2</title>
<g id="a_node2"><a xlink:href="_m_l_c_l___circular_linked_list_8c.html" target="_top" xlink:title=" ">
<polygon fill="none" stroke="black" points="0,-78.5 0,-119.5 191,-119.5 191,-78.5 0,-78.5"/>
<text text-anchor="start" x="8" y="-107.5" font-family="Helvetica,sans-Serif" font-size="10.00">/home/antoine/Documents</text>
<text text-anchor="start" x="8" y="-96.5" font-family="Helvetica,sans-Serif" font-size="10.00">/Developpement/C/MyLittleCLibrary</text>
<text text-anchor="middle" x="95.5" y="-85.5" font-family="Helvetica,sans-Serif" font-size="10.00">/src/MLCL_CircularLinkedList.c</text>
</a>
</g>
</g>
<!-- Node1&#45;&gt;Node2 -->
<g id="edge1" class="edge">
<title>Node1&#45;&gt;Node2</title>
<path fill="none" stroke="midnightblue" d="M250.1,-153.17C218.9,-142.44 182.09,-129.78 152.22,-119.51"/>
<polygon fill="midnightblue" stroke="midnightblue" points="248.99,-156.49 259.59,-156.43 251.27,-149.87 248.99,-156.49"/>
</g>
<!-- Node3 -->
<g id="node3" class="node">
<title>Node3</title>
<g id="a_node3"><a xlink:href="_m_l_c_l___circular_linked_list__test_8c.html" target="_top" xlink:title=" ">
<polygon fill="none" stroke="black" points="209,-78.5 209,-119.5 424,-119.5 424,-78.5 209,-78.5"/>
<text text-anchor="start" x="217" y="-107.5" font-family="Helvetica,sans-Serif" font-size="10.00">/home/antoine/Documents</text>
<text text-anchor="start" x="217" y="-96.5" font-family="Helvetica,sans-Serif" font-size="10.00">/Developpement/C/MyLittleCLibrary</text>
<text text-anchor="middle" x="316.5" y="-85.5" font-family="Helvetica,sans-Serif" font-size="10.00">/src/Tests/MLCL_CircularLinkedList_test.c</text>
</a>
</g>
</g>
<!-- Node1&#45;&gt;Node3 -->
<g id="edge2" class="edge">
<title>Node1&#45;&gt;Node3</title>
<path fill="none" stroke="midnightblue" d="M316.5,-146.3C316.5,-137.3 316.5,-127.65 316.5,-119.51"/>
<polygon fill="midnightblue" stroke="midnightblue" points="313,-146.43 316.5,-156.43 320,-146.43 313,-146.43"/>
</g>
<!-- Node4 -->
<g id="node4" class="node">
<title>Node4</title>
<g id="a_node4"><a xlink:href="_m_l_c_l_8h.html" target="_top" xlink:title=" ">
<polygon fill="none" stroke="black" points="442,-78.5 442,-119.5 633,-119.5 633,-78.5 442,-78.5"/>
<text text-anchor="start" x="450" y="-107.5" font-family="Helvetica,sans-Serif" font-size="10.00">/home/antoine/Documents</text>
<text text-anchor="start" x="450" y="-96.5" font-family="Helvetica,sans-Serif" font-size="10.00">/Developpement/C/MyLittleCLibrary</text>
<text text-anchor="middle" x="537.5" y="-85.5" font-family="Helvetica,sans-Serif" font-size="10.00">/MLCL.h</text>
</a>
</g>
</g>
<!-- Node1&#45;&gt;Node4 -->
<g id="edge3" class="edge">
<title>Node1&#45;&gt;Node4</title>
<path fill="none" stroke="midnightblue" d="M382.9,-153.17C414.1,-142.44 450.91,-129.78 480.78,-119.51"/>
<polygon fill="midnightblue" stroke="midnightblue" points="381.73,-149.87 373.41,-156.43 384.01,-156.49 381.73,-149.87"/>
</g>
<!-- Node5 -->
<g id="node5" class="node">
<title>Node5</title>
<g id="a_node5"><a xlink:href="test_8c.html" target="_top" xlink:title=" ">
<polygon fill="none" stroke="black" points="442,-0.5 442,-41.5 633,-41.5 633,-0.5 442,-0.5"/>
<text text-anchor="start" x="450" y="-29.5" font-family="Helvetica,sans-Serif" font-size="10.00">/home/antoine/Documents</text>
<text text-anchor="start" x="450" y="-18.5" font-family="Helvetica,sans-Serif" font-size="10.00">/Developpement/C/MyLittleCLibrary</text>
<text text-anchor="middle" x="537.5" y="-7.5" font-family="Helvetica,sans-Serif" font-size="10.00">/test.c</text>
</a>
</g>
</g>
<!-- Node4&#45;&gt;Node5 -->
<g id="edge4" class="edge">
<title>Node4&#45;&gt;Node5</title>
<path fill="none" stroke="midnightblue" d="M537.5,-68.3C537.5,-59.3 537.5,-49.65 537.5,-41.51"/>
<polygon fill="midnightblue" stroke="midnightblue" points="534,-68.43 537.5,-78.43 541,-68.43 534,-68.43"/>
</g>
</g>
</svg>
