<?xml version="1.0" encoding="UTF-8" standalone="no"?>
<!DOCTYPE svg PUBLIC "-//W3C//DTD SVG 1.1//EN"
 "http://www.w3.org/Graphics/SVG/1.1/DTD/svg11.dtd">
<!-- Generated by graphviz version 2.43.0 (0)
 -->
<!-- Title: /home/antoine/Documents/Developpement/C/MyLittleCLibrary/include/MLCL_DoubleLinkedList.h Pages: 1 -->
<svg width="936pt" height="284pt"
 viewBox="0.00 0.00 935.50 284.00" xmlns="http://www.w3.org/2000/svg" xmlns:xlink="http://www.w3.org/1999/xlink">
<g id="graph0" class="graph" transform="scale(1 1) rotate(0) translate(4 280)">
<title>/home/antoine/Documents/Developpement/C/MyLittleCLibrary/include/MLCL_DoubleLinkedList.h</title>
<!-- Node1 -->
<g id="node1" class="node">
<title>Node1</title>
<g id="a_node1"><a xlink:title=" ">
<polygon fill="#bfbfbf" stroke="black" points="382,-234.5 382,-275.5 573,-275.5 573,-234.5 382,-234.5"/>
<text text-anchor="start" x="390" y="-263.5" font-family="Helvetica,sans-Serif" font-size="10.00">/home/antoine/Documents</text>
<text text-anchor="start" x="390" y="-252.5" font-family="Helvetica,sans-Serif" font-size="10.00">/Developpement/C/MyLittleCLibrary</text>
<text text-anchor="middle" x="477.5" y="-241.5" font-family="Helvetica,sans-Serif" font-size="10.00">/include/MLCL_DoubleLinkedList.h</text>
</a>
</g>
</g>
<!-- Node2 -->
<g id="node2" class="node">
<title>Node2</title>
<g id="a_node2"><a xlink:href="_m_l_c_l___circular_double_linked_list_8c.html" target="_top" xlink:title=" ">
<polygon fill="none" stroke="black" points="0,-78.5 0,-119.5 197,-119.5 197,-78.5 0,-78.5"/>
<text text-anchor="start" x="8" y="-107.5" font-family="Helvetica,sans-Serif" font-size="10.00">/home/antoine/Documents</text>
<text text-anchor="start" x="8" y="-96.5" font-family="Helvetica,sans-Serif" font-size="10.00">/Developpement/C/MyLittleCLibrary</text>
<text text-anchor="middle" x="98.5" y="-85.5" font-family="Helvetica,sans-Serif" font-size="10.00">/src/MLCL_CircularDoubleLinkedList.c</text>
</a>
</g>
</g>
<!-- Node1&#45;&gt;Node2 -->
<g id="edge1" class="edge">
<title>Node1&#45;&gt;Node2</title>
<path fill="none" stroke="midnightblue" d="M371.82,-242.21C323.94,-234.08 267.62,-220.51 220.5,-198 179.32,-178.33 139.64,-142.27 117.24,-119.8"/>
<polygon fill="midnightblue" stroke="midnightblue" points="371.47,-245.7 381.9,-243.87 372.6,-238.8 371.47,-245.7"/>
</g>
<!-- Node3 -->
<g id="node3" class="node">
<title>Node3</title>
<g id="a_node3"><a xlink:href="_m_l_c_l___circular_double_linked_list_8h.html" target="_top" xlink:title=" ">
<polygon fill="none" stroke="black" points="230,-156.5 230,-197.5 449,-197.5 449,-156.5 230,-156.5"/>
<text text-anchor="start" x="238" y="-185.5" font-family="Helvetica,sans-Serif" font-size="10.00">/home/antoine/Documents</text>
<text text-anchor="start" x="238" y="-174.5" font-family="Helvetica,sans-Serif" font-size="10.00">/Developpement/C/MyLittleCLibrary</text>
<text text-anchor="middle" x="339.5" y="-163.5" font-family="Helvetica,sans-Serif" font-size="10.00">/include/MLCL_CircularDoubleLinkedList.h</text>
</a>
</g>
</g>
<!-- Node1&#45;&gt;Node3 -->
<g id="edge2" class="edge">
<title>Node1&#45;&gt;Node3</title>
<path fill="none" stroke="midnightblue" d="M432.99,-229.49C414.19,-219.13 392.61,-207.25 374.92,-197.51"/>
<polygon fill="midnightblue" stroke="midnightblue" points="431.51,-232.67 441.96,-234.43 434.89,-226.54 431.51,-232.67"/>
</g>
<!-- Node5 -->
<g id="node5" class="node">
<title>Node5</title>
<g id="a_node5"><a xlink:href="_m_l_c_l_8h.html" target="_top" xlink:title=" ">
<polygon fill="none" stroke="black" points="482,-78.5 482,-119.5 673,-119.5 673,-78.5 482,-78.5"/>
<text text-anchor="start" x="490" y="-107.5" font-family="Helvetica,sans-Serif" font-size="10.00">/home/antoine/Documents</text>
<text text-anchor="start" x="490" y="-96.5" font-family="Helvetica,sans-Serif" font-size="10.00">/Developpement/C/MyLittleCLibrary</text>
<text text-anchor="middle" x="577.5" y="-85.5" font-family="Helvetica,sans-Serif" font-size="10.00">/MLCL.h</text>
</a>
</g>
</g>
<!-- Node1&#45;&gt;Node5 -->
<g id="edge9" class="edge">
<title>Node1&#45;&gt;Node5</title>
<path fill="none" stroke="midnightblue" d="M477.5,-224.23C478.81,-203.58 483.26,-176.26 496.5,-156 506.41,-140.83 522,-128.62 536.87,-119.52"/>
<polygon fill="midnightblue" stroke="midnightblue" points="474,-224.21 477.07,-234.35 481,-224.5 474,-224.21"/>
</g>
<!-- Node7 -->
<g id="node7" class="node">
<title>Node7</title>
<g id="a_node7"><a xlink:href="_m_l_c_l___double_linked_list_8c.html" target="_top" xlink:title=" ">
<polygon fill="none" stroke="black" points="506,-156.5 506,-197.5 697,-197.5 697,-156.5 506,-156.5"/>
<text text-anchor="start" x="514" y="-185.5" font-family="Helvetica,sans-Serif" font-size="10.00">/home/antoine/Documents</text>
<text text-anchor="start" x="514" y="-174.5" font-family="Helvetica,sans-Serif" font-size="10.00">/Developpement/C/MyLittleCLibrary</text>
<text text-anchor="middle" x="601.5" y="-163.5" font-family="Helvetica,sans-Serif" font-size="10.00">/src/MLCL_DoubleLinkedList.c</text>
</a>
</g>
</g>
<!-- Node1&#45;&gt;Node7 -->
<g id="edge7" class="edge">
<title>Node1&#45;&gt;Node7</title>
<path fill="none" stroke="midnightblue" d="M518.42,-228.92C535.09,-218.7 554.07,-207.07 569.68,-197.51"/>
<polygon fill="midnightblue" stroke="midnightblue" points="516.13,-226.22 509.43,-234.43 519.79,-232.19 516.13,-226.22"/>
</g>
<!-- Node8 -->
<g id="node8" class="node">
<title>Node8</title>
<g id="a_node8"><a xlink:href="_m_l_c_l___double_linked_list__test_8c.html" target="_top" xlink:title=" ">
<polygon fill="none" stroke="black" points="715.5,-156.5 715.5,-197.5 927.5,-197.5 927.5,-156.5 715.5,-156.5"/>
<text text-anchor="start" x="723.5" y="-185.5" font-family="Helvetica,sans-Serif" font-size="10.00">/home/antoine/Documents</text>
<text text-anchor="start" x="723.5" y="-174.5" font-family="Helvetica,sans-Serif" font-size="10.00">/Developpement/C/MyLittleCLibrary</text>
<text text-anchor="middle" x="821.5" y="-163.5" font-family="Helvetica,sans-Serif" font-size="10.00">/src/Tests/MLCL_DoubleLinkedList_test.c</text>
</a>
</g>
</g>
<!-- Node1&#45;&gt;Node8 -->
<g id="edge8" class="edge">
<title>Node1&#45;&gt;Node8</title>
<path fill="none" stroke="midnightblue" d="M575.87,-232.27C625.45,-221.31 685.11,-208.13 733.21,-197.51"/>
<polygon fill="midnightblue" stroke="midnightblue" points="575.1,-228.85 566.09,-234.43 576.61,-235.69 575.1,-228.85"/>
</g>
<!-- Node3&#45;&gt;Node2 -->
<g id="edge3" class="edge">
<title>Node3&#45;&gt;Node2</title>
<path fill="none" stroke="midnightblue" d="M267.53,-153.3C233.41,-142.55 193.07,-129.82 160.35,-119.51"/>
<polygon fill="midnightblue" stroke="midnightblue" points="266.85,-156.76 277.44,-156.43 268.95,-150.08 266.85,-156.76"/>
</g>
<!-- Node4 -->
<g id="node4" class="node">
<title>Node4</title>
<g id="a_node4"><a xlink:href="_m_l_c_l___circular_double_linked_list__test_8c.html" target="_top" xlink:title=" ">
<polygon fill="none" stroke="black" points="215,-78.5 215,-119.5 464,-119.5 464,-78.5 215,-78.5"/>
<text text-anchor="start" x="223" y="-107.5" font-family="Helvetica,sans-Serif" font-size="10.00">/home/antoine/Documents</text>
<text text-anchor="start" x="223" y="-96.5" font-family="Helvetica,sans-Serif" font-size="10.00">/Developpement/C/MyLittleCLibrary</text>
<text text-anchor="middle" x="339.5" y="-85.5" font-family="Helvetica,sans-Serif" font-size="10.00">/src/Tests/MLCL_CircularDoubleLinkedList_test.c</text>
</a>
</g>
</g>
<!-- Node3&#45;&gt;Node4 -->
<g id="edge4" class="edge">
<title>Node3&#45;&gt;Node4</title>
<path fill="none" stroke="midnightblue" d="M339.5,-146.3C339.5,-137.3 339.5,-127.65 339.5,-119.51"/>
<polygon fill="midnightblue" stroke="midnightblue" points="336,-146.43 339.5,-156.43 343,-146.43 336,-146.43"/>
</g>
<!-- Node3&#45;&gt;Node5 -->
<g id="edge5" class="edge">
<title>Node3&#45;&gt;Node5</title>
<path fill="none" stroke="midnightblue" d="M410.57,-153.3C444.26,-142.55 484.11,-129.82 516.42,-119.51"/>
<polygon fill="midnightblue" stroke="midnightblue" points="409.25,-150.05 400.79,-156.43 411.38,-156.72 409.25,-150.05"/>
</g>
<!-- Node6 -->
<g id="node6" class="node">
<title>Node6</title>
<g id="a_node6"><a xlink:href="test_8c.html" target="_top" xlink:title=" ">
<polygon fill="none" stroke="black" points="482,-0.5 482,-41.5 673,-41.5 673,-0.5 482,-0.5"/>
<text text-anchor="start" x="490" y="-29.5" font-family="Helvetica,sans-Serif" font-size="10.00">/home/antoine/Documents</text>
<text text-anchor="start" x="490" y="-18.5" font-family="Helvetica,sans-Serif" font-size="10.00">/Developpement/C/MyLittleCLibrary</text>
<text text-anchor="middle" x="577.5" y="-7.5" font-family="Helvetica,sans-Serif" font-size="10.00">/test.c</text>
</a>
</g>
</g>
<!-- Node5&#45;&gt;Node6 -->
<g id="edge6" class="edge">
<title>Node5&#45;&gt;Node6</title>
<path fill="none" stroke="midnightblue" d="M577.5,-68.3C577.5,-59.3 577.5,-49.65 577.5,-41.51"/>
<polygon fill="midnightblue" stroke="midnightblue" points="574,-68.43 577.5,-78.43 581,-68.43 574,-68.43"/>
</g>
</g>
</svg>
