<?xml version="1.0" encoding="UTF-8" standalone="no"?>
<!DOCTYPE svg PUBLIC "-//W3C//DTD SVG 1.1//EN"
 "http://www.w3.org/Graphics/SVG/1.1/DTD/svg11.dtd">
<!-- Generated by graphviz version 2.43.0 (0)
 -->
<!-- Title: /home/antoine/Documents/Developpement/C/MyLittleCLibrary/include/MLCL_LinkedList.h Pages: 1 -->
<svg width="949pt" height="284pt"
 viewBox="0.00 0.00 949.00 284.00" xmlns="http://www.w3.org/2000/svg" xmlns:xlink="http://www.w3.org/1999/xlink">
<g id="graph0" class="graph" transform="scale(1 1) rotate(0) translate(4 280)">
<title>/home/antoine/Documents/Developpement/C/MyLittleCLibrary/include/MLCL_LinkedList.h</title>
<!-- Node1 -->
<g id="node1" class="node">
<title>Node1</title>
<g id="a_node1"><a xlink:title=" ">
<polygon fill="#bfbfbf" stroke="black" points="479,-234.5 479,-275.5 670,-275.5 670,-234.5 479,-234.5"/>
<text text-anchor="start" x="487" y="-263.5" font-family="Helvetica,sans-Serif" font-size="10.00">/home/antoine/Documents</text>
<text text-anchor="start" x="487" y="-252.5" font-family="Helvetica,sans-Serif" font-size="10.00">/Developpement/C/MyLittleCLibrary</text>
<text text-anchor="middle" x="574.5" y="-241.5" font-family="Helvetica,sans-Serif" font-size="10.00">/include/MLCL_LinkedList.h</text>
</a>
</g>
</g>
<!-- Node2 -->
<g id="node2" class="node">
<title>Node2</title>
<g id="a_node2"><a xlink:href="_m_l_c_l___circular_linked_list_8h.html" target="_top" xlink:title=" ">
<polygon fill="none" stroke="black" points="269,-156.5 269,-197.5 460,-197.5 460,-156.5 269,-156.5"/>
<text text-anchor="start" x="277" y="-185.5" font-family="Helvetica,sans-Serif" font-size="10.00">/home/antoine/Documents</text>
<text text-anchor="start" x="277" y="-174.5" font-family="Helvetica,sans-Serif" font-size="10.00">/Developpement/C/MyLittleCLibrary</text>
<text text-anchor="middle" x="364.5" y="-163.5" font-family="Helvetica,sans-Serif" font-size="10.00">/include/MLCL_CircularLinkedList.h</text>
</a>
</g>
</g>
<!-- Node1&#45;&gt;Node2 -->
<g id="edge1" class="edge">
<title>Node1&#45;&gt;Node2</title>
<path fill="none" stroke="midnightblue" d="M510.64,-230.89C481.16,-220.22 446.54,-207.69 418.4,-197.51"/>
<polygon fill="midnightblue" stroke="midnightblue" points="509.83,-234.32 520.42,-234.43 512.21,-227.73 509.83,-234.32"/>
</g>
<!-- Node5 -->
<g id="node5" class="node">
<title>Node5</title>
<g id="a_node5"><a xlink:href="_m_l_c_l_8h.html" target="_top" xlink:title=" ">
<polygon fill="none" stroke="black" points="442,-78.5 442,-119.5 633,-119.5 633,-78.5 442,-78.5"/>
<text text-anchor="start" x="450" y="-107.5" font-family="Helvetica,sans-Serif" font-size="10.00">/home/antoine/Documents</text>
<text text-anchor="start" x="450" y="-96.5" font-family="Helvetica,sans-Serif" font-size="10.00">/Developpement/C/MyLittleCLibrary</text>
<text text-anchor="middle" x="537.5" y="-85.5" font-family="Helvetica,sans-Serif" font-size="10.00">/MLCL.h</text>
</a>
</g>
</g>
<!-- Node1&#45;&gt;Node5 -->
<g id="edge8" class="edge">
<title>Node1&#45;&gt;Node5</title>
<path fill="none" stroke="midnightblue" d="M547.88,-226.69C541.23,-218.17 535,-208.29 531.5,-198 522.67,-172.01 527.32,-139.95 531.99,-119.74"/>
<polygon fill="midnightblue" stroke="midnightblue" points="545.22,-228.97 554.31,-234.41 550.6,-224.49 545.22,-228.97"/>
</g>
<!-- Node7 -->
<g id="node7" class="node">
<title>Node7</title>
<g id="a_node7"><a xlink:href="_m_l_c_l___linked_list_8c.html" target="_top" xlink:title=" ">
<polygon fill="none" stroke="black" points="541,-156.5 541,-197.5 732,-197.5 732,-156.5 541,-156.5"/>
<text text-anchor="start" x="549" y="-185.5" font-family="Helvetica,sans-Serif" font-size="10.00">/home/antoine/Documents</text>
<text text-anchor="start" x="549" y="-174.5" font-family="Helvetica,sans-Serif" font-size="10.00">/Developpement/C/MyLittleCLibrary</text>
<text text-anchor="middle" x="636.5" y="-163.5" font-family="Helvetica,sans-Serif" font-size="10.00">/src/MLCL_LinkedList.c</text>
</a>
</g>
</g>
<!-- Node1&#45;&gt;Node7 -->
<g id="edge6" class="edge">
<title>Node1&#45;&gt;Node7</title>
<path fill="none" stroke="midnightblue" d="M596.83,-226.63C604.69,-216.99 613.36,-206.36 620.59,-197.51"/>
<polygon fill="midnightblue" stroke="midnightblue" points="594.08,-224.47 590.47,-234.43 599.5,-228.89 594.08,-224.47"/>
</g>
<!-- Node8 -->
<g id="node8" class="node">
<title>Node8</title>
<g id="a_node8"><a xlink:href="_m_l_c_l___linked_list__test_8c.html" target="_top" xlink:title=" ">
<polygon fill="none" stroke="black" points="750,-156.5 750,-197.5 941,-197.5 941,-156.5 750,-156.5"/>
<text text-anchor="start" x="758" y="-185.5" font-family="Helvetica,sans-Serif" font-size="10.00">/home/antoine/Documents</text>
<text text-anchor="start" x="758" y="-174.5" font-family="Helvetica,sans-Serif" font-size="10.00">/Developpement/C/MyLittleCLibrary</text>
<text text-anchor="middle" x="845.5" y="-163.5" font-family="Helvetica,sans-Serif" font-size="10.00">/src/Tests/MLCL_LinkedList_test.c</text>
</a>
</g>
</g>
<!-- Node1&#45;&gt;Node8 -->
<g id="edge7" class="edge">
<title>Node1&#45;&gt;Node8</title>
<path fill="none" stroke="midnightblue" d="M653.95,-231.72C692.62,-220.87 738.68,-207.96 775.95,-197.51"/>
<polygon fill="midnightblue" stroke="midnightblue" points="652.97,-228.36 644.29,-234.43 654.86,-235.1 652.97,-228.36"/>
</g>
<!-- Node3 -->
<g id="node3" class="node">
<title>Node3</title>
<g id="a_node3"><a xlink:href="_m_l_c_l___circular_linked_list_8c.html" target="_top" xlink:title=" ">
<polygon fill="none" stroke="black" points="0,-78.5 0,-119.5 191,-119.5 191,-78.5 0,-78.5"/>
<text text-anchor="start" x="8" y="-107.5" font-family="Helvetica,sans-Serif" font-size="10.00">/home/antoine/Documents</text>
<text text-anchor="start" x="8" y="-96.5" font-family="Helvetica,sans-Serif" font-size="10.00">/Developpement/C/MyLittleCLibrary</text>
<text text-anchor="middle" x="95.5" y="-85.5" font-family="Helvetica,sans-Serif" font-size="10.00">/src/MLCL_CircularLinkedList.c</text>
</a>
</g>
</g>
<!-- Node2&#45;&gt;Node3 -->
<g id="edge2" class="edge">
<title>Node2&#45;&gt;Node3</title>
<path fill="none" stroke="midnightblue" d="M285.15,-153.58C246.86,-142.76 201.37,-129.91 164.54,-119.51"/>
<polygon fill="midnightblue" stroke="midnightblue" points="284.65,-157.08 295.23,-156.43 286.55,-150.34 284.65,-157.08"/>
</g>
<!-- Node4 -->
<g id="node4" class="node">
<title>Node4</title>
<g id="a_node4"><a xlink:href="_m_l_c_l___circular_linked_list__test_8c.html" target="_top" xlink:title=" ">
<polygon fill="none" stroke="black" points="209,-78.5 209,-119.5 424,-119.5 424,-78.5 209,-78.5"/>
<text text-anchor="start" x="217" y="-107.5" font-family="Helvetica,sans-Serif" font-size="10.00">/home/antoine/Documents</text>
<text text-anchor="start" x="217" y="-96.5" font-family="Helvetica,sans-Serif" font-size="10.00">/Developpement/C/MyLittleCLibrary</text>
<text text-anchor="middle" x="316.5" y="-85.5" font-family="Helvetica,sans-Serif" font-size="10.00">/src/Tests/MLCL_CircularLinkedList_test.c</text>
</a>
</g>
</g>
<!-- Node2&#45;&gt;Node4 -->
<g id="edge3" class="edge">
<title>Node2&#45;&gt;Node4</title>
<path fill="none" stroke="midnightblue" d="M346.66,-147.76C340.72,-138.35 334.24,-128.1 328.82,-119.51"/>
<polygon fill="midnightblue" stroke="midnightblue" points="343.84,-149.84 352.14,-156.43 349.76,-146.1 343.84,-149.84"/>
</g>
<!-- Node2&#45;&gt;Node5 -->
<g id="edge4" class="edge">
<title>Node2&#45;&gt;Node5</title>
<path fill="none" stroke="midnightblue" d="M418.38,-152.33C442.39,-141.78 470.32,-129.51 493.1,-119.51"/>
<polygon fill="midnightblue" stroke="midnightblue" points="416.8,-149.2 409.05,-156.43 419.62,-155.61 416.8,-149.2"/>
</g>
<!-- Node6 -->
<g id="node6" class="node">
<title>Node6</title>
<g id="a_node6"><a xlink:href="test_8c.html" target="_top" xlink:title=" ">
<polygon fill="none" stroke="black" points="442,-0.5 442,-41.5 633,-41.5 633,-0.5 442,-0.5"/>
<text text-anchor="start" x="450" y="-29.5" font-family="Helvetica,sans-Serif" font-size="10.00">/home/antoine/Documents</text>
<text text-anchor="start" x="450" y="-18.5" font-family="Helvetica,sans-Serif" font-size="10.00">/Developpement/C/MyLittleCLibrary</text>
<text text-anchor="middle" x="537.5" y="-7.5" font-family="Helvetica,sans-Serif" font-size="10.00">/test.c</text>
</a>
</g>
</g>
<!-- Node5&#45;&gt;Node6 -->
<g id="edge5" class="edge">
<title>Node5&#45;&gt;Node6</title>
<path fill="none" stroke="midnightblue" d="M537.5,-68.3C537.5,-59.3 537.5,-49.65 537.5,-41.51"/>
<polygon fill="midnightblue" stroke="midnightblue" points="534,-68.43 537.5,-78.43 541,-68.43 534,-68.43"/>
</g>
</g>
</svg>
